<?xml version="1.0" encoding="UTF-8" standalone="no"?>
<!DOCTYPE svg PUBLIC "-//W3C//DTD SVG 1.1//EN"
 "http://www.w3.org/Graphics/SVG/1.1/DTD/svg11.dtd">
<!-- Generated by graphviz version 2.43.0 (0)
 -->
<!-- Title: %3 Pages: 1 -->
<svg width="2838pt" height="1919pt"
 viewBox="0.00 0.00 2838.00 1919.00" xmlns="http://www.w3.org/2000/svg" xmlns:xlink="http://www.w3.org/1999/xlink">
<g id="graph0" class="graph" transform="scale(1 1) rotate(0) translate(4 1915)">
<title>%3</title>
<g id="clust1" class="cluster">
<title>cluster_0</title>
<polygon fill="#cdaa7d" stroke="black" points="1505,-1734 1505,-1903 2156,-1903 2156,-1734 1505,-1734"/>
<text text-anchor="middle" x="1830.5" y="-1887.8" font-family="Times,serif" font-size="14.00">Bartlett\CompatInfo\Application\DataCollector\ErrorHandler</text>
</g>
<g id="clust2" class="cluster">
<title>cluster_1</title>
<polygon fill="transparent" stroke="black" points="314,-275 314,-1726 1250,-1726 1250,-275 314,-275"/>
<text text-anchor="middle" x="782" y="-1710.8" font-family="Times,serif" font-size="14.00">Doctrine\Common\Collections</text>
</g>
<g id="clust3" class="cluster">
<title>cluster_2</title>
<polygon fill="transparent" stroke="black" points="8,-8 8,-267 1128,-267 1128,-8 8,-8"/>
<text text-anchor="middle" x="568" y="-251.8" font-family="Times,serif" font-size="14.00">0</text>
</g>
<g id="clust4" class="cluster">
<title>cluster_3</title>
<polygon fill="#cdaa7d" stroke="black" points="1258,-370 1258,-1564.5 2132,-1564.5 2132,-370 1258,-370"/>
<text text-anchor="middle" x="1695" y="-1549.3" font-family="Times,serif" font-size="14.00">Bartlett\CompatInfo\Application\DataCollector</text>
</g>
<g id="clust5" class="cluster">
<title>cluster_4</title>
<polygon fill="transparent" stroke="black" points="2140,-811.5 2140,-923.5 2546,-923.5 2546,-811.5 2140,-811.5"/>
<text text-anchor="middle" x="2343" y="-908.3" font-family="Times,serif" font-size="14.00">PhpParser</text>
</g>
<g id="clust6" class="cluster">
<title>cluster_5</title>
<polygon fill="#cdaa7d" stroke="black" points="2237,-1753 2237,-1884 2725,-1884 2725,-1753 2237,-1753"/>
<text text-anchor="middle" x="2481" y="-1868.8" font-family="Times,serif" font-size="14.00">Bartlett\CompatInfo\Application\DataCollector\Normalizer</text>
</g>
<g id="clust7" class="cluster">
<title>cluster_6</title>
<polygon fill="transparent" stroke="black" points="2140,-1300.5 2140,-1431.5 2822,-1431.5 2822,-1300.5 2140,-1300.5"/>
<text text-anchor="middle" x="2481" y="-1416.3" font-family="Times,serif" font-size="14.00">Symfony\Component\Serializer\Normalizer</text>
</g>
<!-- Bartlett\\CompatInfo\\Application\\DataCollector\\ErrorHandler\\Collecting -->
<g id="node1" class="node">
<title>Bartlett\\CompatInfo\\Application\\DataCollector\\ErrorHandler\\Collecting</title>
<polygon fill="#fefece" stroke="transparent" points="1821.5,-1872 1512.5,-1872 1512.5,-1742 1821.5,-1742 1821.5,-1872"/>
<polygon fill="#eeeeee" stroke="transparent" points="1521,-1834 1521,-1868 1814,-1868 1814,-1834 1521,-1834"/>
<polygon fill="none" stroke="black" points="1521,-1834 1521,-1868 1814,-1868 1814,-1834 1521,-1834"/>
<text text-anchor="start" x="1627" y="-1840.8" font-family="Times,serif" font-weight="bold" font-size="14.00">Collecting</text>
<polygon fill="none" stroke="black" points="1521,-1828 1521,-1834 1814,-1834 1814,-1828 1521,-1828"/>
<polygon fill="none" stroke="black" points="1521,-1746 1521,-1828 1814,-1828 1814,-1746 1521,-1746"/>
<text text-anchor="start" x="1526" y="-1811.8" font-family="Times,serif" font-size="14.00">+ handleError(error : PhpParser\Error)</text>
<text text-anchor="start" x="1526" y="-1792.8" font-family="Times,serif" font-size="14.00">+ getErrors() : array</text>
<text text-anchor="start" x="1526" y="-1773.8" font-family="Times,serif" font-size="14.00">+ hasErrors() : bool</text>
<text text-anchor="start" x="1526" y="-1754.8" font-family="Times,serif" font-size="14.00">+ clearErrors() : void</text>
</g>
<!-- Doctrine\\Common\\Collections\\ArrayCollection -->
<g id="node3" class="node">
<title>Doctrine\\Common\\Collections\\ArrayCollection</title>
<polygon fill="#fefece" stroke="transparent" points="991.5,-1695 532.5,-1695 532.5,-1014 991.5,-1014 991.5,-1695"/>
<polygon fill="#eeeeee" stroke="transparent" points="541,-1656.5 541,-1690.5 984,-1690.5 984,-1656.5 541,-1656.5"/>
<polygon fill="none" stroke="black" points="541,-1656.5 541,-1690.5 984,-1690.5 984,-1656.5 541,-1656.5"/>
<text text-anchor="start" x="701" y="-1663.3" font-family="Times,serif" font-weight="bold" font-size="14.00">ArrayCollection</text>
<polygon fill="none" stroke="black" points="541,-1650.5 541,-1656.5 984,-1656.5 984,-1650.5 541,-1650.5"/>
<polygon fill="none" stroke="black" points="541,-1017.5 541,-1650.5 984,-1650.5 984,-1017.5 541,-1017.5"/>
<text text-anchor="start" x="546" y="-1634.3" font-family="Times,serif" font-size="14.00">+ __construct(elements : array = [])</text>
<text text-anchor="start" x="546" y="-1615.3" font-family="Times,serif" font-size="14.00">+ toArray()</text>
<text text-anchor="start" x="546" y="-1596.3" font-family="Times,serif" font-size="14.00">+ first()</text>
<text text-anchor="start" x="546" y="-1577.3" font-family="Times,serif" font-size="14.00">+ last()</text>
<text text-anchor="start" x="546" y="-1558.3" font-family="Times,serif" font-size="14.00">+ key()</text>
<text text-anchor="start" x="546" y="-1539.3" font-family="Times,serif" font-size="14.00">+ next()</text>
<text text-anchor="start" x="546" y="-1520.3" font-family="Times,serif" font-size="14.00">+ current()</text>
<text text-anchor="start" x="546" y="-1501.3" font-family="Times,serif" font-size="14.00">+ remove(key)</text>
<text text-anchor="start" x="546" y="-1482.3" font-family="Times,serif" font-size="14.00">+ removeElement(element)</text>
<text text-anchor="start" x="546" y="-1463.3" font-family="Times,serif" font-size="14.00">+ offsetExists(offset : TKey)</text>
<text text-anchor="start" x="546" y="-1444.3" font-family="Times,serif" font-size="14.00">+ offsetGet(offset : TKey)</text>
<text text-anchor="start" x="546" y="-1425.3" font-family="Times,serif" font-size="14.00">+ offsetSet(offset : mixed, value : T)</text>
<text text-anchor="start" x="546" y="-1406.3" font-family="Times,serif" font-size="14.00">+ offsetUnset(offset : TKey)</text>
<text text-anchor="start" x="546" y="-1387.3" font-family="Times,serif" font-size="14.00">+ containsKey(key)</text>
<text text-anchor="start" x="546" y="-1368.3" font-family="Times,serif" font-size="14.00">+ contains(element)</text>
<text text-anchor="start" x="546" y="-1349.3" font-family="Times,serif" font-size="14.00">+ exists(p : Closure)</text>
<text text-anchor="start" x="546" y="-1330.3" font-family="Times,serif" font-size="14.00">+ indexOf(element)</text>
<text text-anchor="start" x="546" y="-1311.3" font-family="Times,serif" font-size="14.00">+ get(key)</text>
<text text-anchor="start" x="546" y="-1292.3" font-family="Times,serif" font-size="14.00">+ getKeys()</text>
<text text-anchor="start" x="546" y="-1273.3" font-family="Times,serif" font-size="14.00">+ getValues()</text>
<text text-anchor="start" x="546" y="-1254.3" font-family="Times,serif" font-size="14.00">+ count()</text>
<text text-anchor="start" x="546" y="-1235.3" font-family="Times,serif" font-size="14.00">+ set(key, value)</text>
<text text-anchor="start" x="546" y="-1216.3" font-family="Times,serif" font-size="14.00">+ add(element)</text>
<text text-anchor="start" x="546" y="-1197.3" font-family="Times,serif" font-size="14.00">+ isEmpty()</text>
<text text-anchor="start" x="546" y="-1178.3" font-family="Times,serif" font-size="14.00">+ getIterator()</text>
<text text-anchor="start" x="546" y="-1159.3" font-family="Times,serif" font-size="14.00">+ map(func : Closure)</text>
<text text-anchor="start" x="546" y="-1140.3" font-family="Times,serif" font-size="14.00">+ filter(p : Closure)</text>
<text text-anchor="start" x="546" y="-1121.3" font-family="Times,serif" font-size="14.00">+ forAll(p : Closure)</text>
<text text-anchor="start" x="546" y="-1102.3" font-family="Times,serif" font-size="14.00">+ partition(p : Closure)</text>
<text text-anchor="start" x="546" y="-1083.3" font-family="Times,serif" font-size="14.00">+ __toString() : string</text>
<text text-anchor="start" x="546" y="-1064.3" font-family="Times,serif" font-size="14.00">+ clear()</text>
<text text-anchor="start" x="546" y="-1045.3" font-family="Times,serif" font-size="14.00">+ slice(offset, length = «unknown»)</text>
<text text-anchor="start" x="546" y="-1026.3" font-family="Times,serif" font-size="14.00">+ matching(criteria : Doctrine\Common\Collections\Criteria)</text>
</g>
<!-- Bartlett\\CompatInfo\\Application\\DataCollector\\ErrorHandler\\Collecting&#45;&gt;Doctrine\\Common\\Collections\\ArrayCollection -->
<g id="edge9" class="edge">
<title>Bartlett\\CompatInfo\\Application\\DataCollector\\ErrorHandler\\Collecting&#45;&gt;Doctrine\\Common\\Collections\\ArrayCollection</title>
<path fill="none" stroke="black" d="M1512.42,-1792.88C1432.63,-1781.99 1335.25,-1762.13 1254,-1726 1164.68,-1686.28 1076.41,-1627.69 999.83,-1568.76"/>
<polygon fill="none" stroke="black" points="1001.56,-1565.67 991.51,-1562.31 997.28,-1571.2 1001.56,-1565.67"/>
</g>
<!-- Bartlett\\CompatInfo\\Application\\DataCollector\\ErrorHandler -->
<g id="node12" class="node">
<title>Bartlett\\CompatInfo\\Application\\DataCollector\\ErrorHandler</title>
<polygon fill="#fefece" stroke="transparent" points="2123.5,-1410 1864.5,-1410 1864.5,-1299 2123.5,-1299 2123.5,-1410"/>
<polygon fill="#eeeeee" stroke="transparent" points="1873,-1371.5 1873,-1405.5 2116,-1405.5 2116,-1371.5 1873,-1371.5"/>
<polygon fill="none" stroke="black" points="1873,-1371.5 1873,-1405.5 2116,-1405.5 2116,-1371.5 1873,-1371.5"/>
<text text-anchor="start" x="1949.5" y="-1392.3" font-family="Times,serif" font-weight="bold" font-size="14.00">«interface»</text>
<text text-anchor="start" x="1941" y="-1378.3" font-family="Times,serif" font-weight="bold" font-size="14.00">ErrorHandler</text>
<polygon fill="none" stroke="black" points="1873,-1365.5 1873,-1371.5 2116,-1371.5 2116,-1365.5 1873,-1365.5"/>
<polygon fill="none" stroke="black" points="1873,-1302.5 1873,-1365.5 2116,-1365.5 2116,-1302.5 1873,-1302.5"/>
<text text-anchor="start" x="1878" y="-1349.3" font-family="Times,serif" font-size="14.00">+ «abstract» getErrors() : array</text>
<text text-anchor="start" x="1878" y="-1330.3" font-family="Times,serif" font-size="14.00">+ «abstract» hasErrors() : bool</text>
<text text-anchor="start" x="1878" y="-1311.3" font-family="Times,serif" font-size="14.00">+ «abstract» clearErrors() : void</text>
</g>
<!-- Bartlett\\CompatInfo\\Application\\DataCollector\\ErrorHandler\\Collecting&#45;&gt;Bartlett\\CompatInfo\\Application\\DataCollector\\ErrorHandler -->
<g id="edge11" class="edge">
<title>Bartlett\\CompatInfo\\Application\\DataCollector\\ErrorHandler\\Collecting&#45;&gt;Bartlett\\CompatInfo\\Application\\DataCollector\\ErrorHandler</title>
<path fill="none" stroke="black" stroke-dasharray="5,2" d="M1810.64,-1741.93C1817.5,-1739.19 1824.31,-1736.53 1831,-1734 1841.91,-1729.87 1847.56,-1734.05 1856,-1726 1942.28,-1643.67 1975.01,-1502.42 1987.14,-1420.16"/>
<polygon fill="none" stroke="black" points="1990.61,-1420.58 1988.55,-1410.18 1983.68,-1419.59 1990.61,-1420.58"/>
</g>
<!-- Bartlett\\CompatInfo\\Application\\DataCollector\\ErrorHandler\\Throwing -->
<g id="node2" class="node">
<title>Bartlett\\CompatInfo\\Application\\DataCollector\\ErrorHandler\\Throwing</title>
<polygon fill="#fefece" stroke="transparent" points="2148.5,-1872 1839.5,-1872 1839.5,-1742 2148.5,-1742 2148.5,-1872"/>
<polygon fill="#eeeeee" stroke="transparent" points="1848,-1834 1848,-1868 2141,-1868 2141,-1834 1848,-1834"/>
<polygon fill="none" stroke="black" points="1848,-1834 1848,-1868 2141,-1868 2141,-1834 1848,-1834"/>
<text text-anchor="start" x="1956.5" y="-1840.8" font-family="Times,serif" font-weight="bold" font-size="14.00">Throwing</text>
<polygon fill="none" stroke="black" points="1848,-1828 1848,-1834 2141,-1834 2141,-1828 1848,-1828"/>
<polygon fill="none" stroke="black" points="1848,-1746 1848,-1828 2141,-1828 2141,-1746 1848,-1746"/>
<text text-anchor="start" x="1853" y="-1811.8" font-family="Times,serif" font-size="14.00">+ handleError(error : PhpParser\Error)</text>
<text text-anchor="start" x="1853" y="-1792.8" font-family="Times,serif" font-size="14.00">+ hasErrors() : bool</text>
<text text-anchor="start" x="1853" y="-1773.8" font-family="Times,serif" font-size="14.00">+ getErrors() : array</text>
<text text-anchor="start" x="1853" y="-1754.8" font-family="Times,serif" font-size="14.00">+ clearErrors() : void</text>
</g>
<!-- Bartlett\\CompatInfo\\Application\\DataCollector\\ErrorHandler\\Throwing&#45;&gt;Bartlett\\CompatInfo\\Application\\DataCollector\\ErrorHandler -->
<g id="edge12" class="edge">
<title>Bartlett\\CompatInfo\\Application\\DataCollector\\ErrorHandler\\Throwing&#45;&gt;Bartlett\\CompatInfo\\Application\\DataCollector\\ErrorHandler</title>
<path fill="none" stroke="black" stroke-dasharray="5,2" d="M1994,-1741.93C1994,-1656.5 1994,-1506.09 1994,-1420.29"/>
<polygon fill="none" stroke="black" points="1997.5,-1420.16 1994,-1410.16 1990.5,-1420.16 1997.5,-1420.16"/>
</g>
<!-- Doctrine\\Common\\Collections\\Collection -->
<g id="node4" class="node">
<title>Doctrine\\Common\\Collections\\Collection</title>
<polygon fill="#fefece" stroke="transparent" points="684,-949.5 322,-949.5 322,-762.5 684,-762.5 684,-949.5"/>
<polygon fill="#eeeeee" stroke="transparent" points="330,-911 330,-945 676,-945 676,-911 330,-911"/>
<polygon fill="none" stroke="black" points="330,-911 330,-945 676,-945 676,-911 330,-911"/>
<text text-anchor="start" x="458" y="-931.8" font-family="Times,serif" font-weight="bold" font-size="14.00">«interface»</text>
<text text-anchor="start" x="463" y="-917.8" font-family="Times,serif" font-weight="bold" font-size="14.00">Collection</text>
<polygon fill="none" stroke="black" points="330,-905 330,-911 676,-911 676,-905 330,-905"/>
<polygon fill="none" stroke="black" points="330,-766 330,-905 676,-905 676,-766 330,-766"/>
<text text-anchor="start" x="335" y="-888.8" font-family="Times,serif" font-size="14.00">+ «abstract» add(element : mixed)</text>
<text text-anchor="start" x="335" y="-869.8" font-family="Times,serif" font-size="14.00">+ «abstract» clear()</text>
<text text-anchor="start" x="335" y="-850.8" font-family="Times,serif" font-size="14.00">+ «abstract» remove(key : mixed)</text>
<text text-anchor="start" x="335" y="-831.8" font-family="Times,serif" font-size="14.00">+ «abstract» removeElement(element : mixed)</text>
<text text-anchor="start" x="335" y="-812.8" font-family="Times,serif" font-size="14.00">+ «abstract» set(key : mixed, value : mixed)</text>
<text text-anchor="start" x="335" y="-793.8" font-family="Times,serif" font-size="14.00">+ «abstract» filter(p : Closure)</text>
<text text-anchor="start" x="335" y="-774.8" font-family="Times,serif" font-size="14.00">+ «abstract» partition(p : Closure)</text>
</g>
<!-- Doctrine\\Common\\Collections\\ArrayCollection&#45;&gt;Doctrine\\Common\\Collections\\Collection -->
<g id="edge6" class="edge">
<title>Doctrine\\Common\\Collections\\ArrayCollection&#45;&gt;Doctrine\\Common\\Collections\\Collection</title>
<path fill="none" stroke="black" stroke-dasharray="5,2" d="M584.77,-1013.75C574.74,-994.52 565.15,-976.13 556.29,-959.16"/>
<polygon fill="none" stroke="black" points="559.18,-957.13 551.45,-949.88 552.97,-960.37 559.18,-957.13"/>
</g>
<!-- Doctrine\\Common\\Collections\\Selectable -->
<g id="node6" class="node">
<title>Doctrine\\Common\\Collections\\Selectable</title>
<polygon fill="#fefece" stroke="transparent" points="1241.5,-892.5 702.5,-892.5 702.5,-819.5 1241.5,-819.5 1241.5,-892.5"/>
<polygon fill="#eeeeee" stroke="transparent" points="711,-854 711,-888 1234,-888 1234,-854 711,-854"/>
<polygon fill="none" stroke="black" points="711,-854 711,-888 1234,-888 1234,-854 711,-854"/>
<text text-anchor="start" x="927.5" y="-874.8" font-family="Times,serif" font-weight="bold" font-size="14.00">«interface»</text>
<text text-anchor="start" x="931.5" y="-860.8" font-family="Times,serif" font-weight="bold" font-size="14.00">Selectable</text>
<polygon fill="none" stroke="black" points="711,-848 711,-854 1234,-854 1234,-848 711,-848"/>
<polygon fill="none" stroke="black" points="711,-823 711,-848 1234,-848 1234,-823 711,-823"/>
<text text-anchor="start" x="716" y="-831.8" font-family="Times,serif" font-size="14.00">+ «abstract» matching(criteria : Doctrine\Common\Collections\Criteria)</text>
</g>
<!-- Doctrine\\Common\\Collections\\ArrayCollection&#45;&gt;Doctrine\\Common\\Collections\\Selectable -->
<g id="edge7" class="edge">
<title>Doctrine\\Common\\Collections\\ArrayCollection&#45;&gt;Doctrine\\Common\\Collections\\Selectable</title>
<path fill="none" stroke="black" stroke-dasharray="5,2" d="M905.7,-1013.75C924.24,-969.92 940.91,-930.51 952.89,-902.17"/>
<polygon fill="none" stroke="black" points="956.26,-903.19 956.93,-892.62 949.82,-900.47 956.26,-903.19"/>
</g>
<!-- Stringable -->
<g id="node11" class="node">
<title>Stringable</title>
<polygon fill="#fefece" stroke="transparent" points="279.5,-207.5 16.5,-207.5 16.5,-134.5 279.5,-134.5 279.5,-207.5"/>
<polygon fill="#eeeeee" stroke="transparent" points="25,-169 25,-203 272,-203 272,-169 25,-169"/>
<polygon fill="none" stroke="black" points="25,-169 25,-203 272,-203 272,-169 25,-169"/>
<text text-anchor="start" x="103.5" y="-189.8" font-family="Times,serif" font-weight="bold" font-size="14.00">«interface»</text>
<text text-anchor="start" x="107" y="-175.8" font-family="Times,serif" font-weight="bold" font-size="14.00">Stringable</text>
<polygon fill="none" stroke="black" points="25,-163 25,-169 272,-169 272,-163 25,-163"/>
<polygon fill="none" stroke="black" points="25,-138 25,-163 272,-163 272,-138 25,-138"/>
<text text-anchor="start" x="30" y="-146.8" font-family="Times,serif" font-size="14.00">+ «abstract» __toString() : string</text>
</g>
<!-- Doctrine\\Common\\Collections\\ArrayCollection&#45;&gt;Stringable -->
<g id="edge8" class="edge">
<title>Doctrine\\Common\\Collections\\ArrayCollection&#45;&gt;Stringable</title>
<path fill="none" stroke="black" stroke-dasharray="5,2" d="M532.38,-1209.54C451.42,-1147.73 367.16,-1068.75 313,-978 160.09,-721.82 146.86,-347.1 147.17,-217.83"/>
<polygon fill="none" stroke="black" points="150.67,-217.54 147.23,-207.52 143.67,-217.5 150.67,-217.54"/>
</g>
<!-- Doctrine\\Common\\Collections\\ReadableCollection -->
<g id="node5" class="node">
<title>Doctrine\\Common\\Collections\\ReadableCollection</title>
<polygon fill="#fefece" stroke="transparent" points="774.5,-698 321.5,-698 321.5,-283 774.5,-283 774.5,-698"/>
<polygon fill="#eeeeee" stroke="transparent" points="330,-659.5 330,-693.5 767,-693.5 767,-659.5 330,-659.5"/>
<polygon fill="none" stroke="black" points="330,-659.5 330,-693.5 767,-693.5 767,-659.5 330,-659.5"/>
<text text-anchor="start" x="503.5" y="-680.3" font-family="Times,serif" font-weight="bold" font-size="14.00">«interface»</text>
<text text-anchor="start" x="472" y="-666.3" font-family="Times,serif" font-weight="bold" font-size="14.00">ReadableCollection</text>
<polygon fill="none" stroke="black" points="330,-653.5 330,-659.5 767,-659.5 767,-653.5 330,-653.5"/>
<polygon fill="none" stroke="black" points="330,-286.5 330,-653.5 767,-653.5 767,-286.5 330,-286.5"/>
<text text-anchor="start" x="335" y="-637.3" font-family="Times,serif" font-size="14.00">+ «abstract» contains(element : mixed)</text>
<text text-anchor="start" x="335" y="-618.3" font-family="Times,serif" font-size="14.00">+ «abstract» isEmpty()</text>
<text text-anchor="start" x="335" y="-599.3" font-family="Times,serif" font-size="14.00">+ «abstract» containsKey(key : mixed)</text>
<text text-anchor="start" x="335" y="-580.3" font-family="Times,serif" font-size="14.00">+ «abstract» get(key : mixed)</text>
<text text-anchor="start" x="335" y="-561.3" font-family="Times,serif" font-size="14.00">+ «abstract» getKeys()</text>
<text text-anchor="start" x="335" y="-542.3" font-family="Times,serif" font-size="14.00">+ «abstract» getValues()</text>
<text text-anchor="start" x="335" y="-523.3" font-family="Times,serif" font-size="14.00">+ «abstract» toArray()</text>
<text text-anchor="start" x="335" y="-504.3" font-family="Times,serif" font-size="14.00">+ «abstract» first()</text>
<text text-anchor="start" x="335" y="-485.3" font-family="Times,serif" font-size="14.00">+ «abstract» last()</text>
<text text-anchor="start" x="335" y="-466.3" font-family="Times,serif" font-size="14.00">+ «abstract» key()</text>
<text text-anchor="start" x="335" y="-447.3" font-family="Times,serif" font-size="14.00">+ «abstract» current()</text>
<text text-anchor="start" x="335" y="-428.3" font-family="Times,serif" font-size="14.00">+ «abstract» next()</text>
<text text-anchor="start" x="335" y="-409.3" font-family="Times,serif" font-size="14.00">+ «abstract» slice(offset : int, length : mixed = «unknown»)</text>
<text text-anchor="start" x="335" y="-390.3" font-family="Times,serif" font-size="14.00">+ «abstract» exists(p : Closure)</text>
<text text-anchor="start" x="335" y="-371.3" font-family="Times,serif" font-size="14.00">+ «abstract» filter(p : Closure)</text>
<text text-anchor="start" x="335" y="-352.3" font-family="Times,serif" font-size="14.00">+ «abstract» map(func : Closure)</text>
<text text-anchor="start" x="335" y="-333.3" font-family="Times,serif" font-size="14.00">+ «abstract» partition(p : Closure)</text>
<text text-anchor="start" x="335" y="-314.3" font-family="Times,serif" font-size="14.00">+ «abstract» forAll(p : Closure)</text>
<text text-anchor="start" x="335" y="-295.3" font-family="Times,serif" font-size="14.00">+ «abstract» indexOf(element : mixed)</text>
</g>
<!-- Doctrine\\Common\\Collections\\Collection&#45;&gt;Doctrine\\Common\\Collections\\ReadableCollection -->
<g id="edge4" class="edge">
<title>Doctrine\\Common\\Collections\\Collection&#45;&gt;Doctrine\\Common\\Collections\\ReadableCollection</title>
<path fill="none" stroke="black" stroke-dasharray="5,2" d="M514.47,-762.33C516.58,-745.32 518.86,-726.92 521.2,-707.99"/>
<polygon fill="none" stroke="black" points="524.67,-708.41 522.43,-698.06 517.73,-707.55 524.67,-708.41"/>
</g>
<!-- ArrayAccess -->
<g id="node10" class="node">
<title>ArrayAccess</title>
<polygon fill="#fefece" stroke="transparent" points="1120.5,-236 721.5,-236 721.5,-106 1120.5,-106 1120.5,-236"/>
<polygon fill="#eeeeee" stroke="transparent" points="730,-198 730,-232 1113,-232 1113,-198 730,-198"/>
<polygon fill="none" stroke="black" points="730,-198 730,-232 1113,-232 1113,-198 730,-198"/>
<text text-anchor="start" x="876.5" y="-218.8" font-family="Times,serif" font-weight="bold" font-size="14.00">«interface»</text>
<text text-anchor="start" x="873.5" y="-204.8" font-family="Times,serif" font-weight="bold" font-size="14.00">ArrayAccess</text>
<polygon fill="none" stroke="black" points="730,-192 730,-198 1113,-198 1113,-192 730,-192"/>
<polygon fill="none" stroke="black" points="730,-110 730,-192 1113,-192 1113,-110 730,-110"/>
<text text-anchor="start" x="735" y="-175.8" font-family="Times,serif" font-size="14.00">+ «abstract» offsetExists(offset : mixed)</text>
<text text-anchor="start" x="735" y="-156.8" font-family="Times,serif" font-size="14.00">+ «abstract» offsetGet(offset : mixed)</text>
<text text-anchor="start" x="735" y="-137.8" font-family="Times,serif" font-size="14.00">+ «abstract» offsetSet(offset : mixed, value : mixed)</text>
<text text-anchor="start" x="735" y="-118.8" font-family="Times,serif" font-size="14.00">+ «abstract» offsetUnset(offset : mixed)</text>
</g>
<!-- Doctrine\\Common\\Collections\\Collection&#45;&gt;ArrayAccess -->
<g id="edge5" class="edge">
<title>Doctrine\\Common\\Collections\\Collection&#45;&gt;ArrayAccess</title>
<path fill="none" stroke="black" stroke-dasharray="5,2" d="M642.62,-762.46C659.66,-752.39 677.05,-742.67 694,-734 732.36,-714.39 755.51,-730.32 784,-698 897.46,-569.29 918.86,-358.07 921.74,-246.47"/>
<polygon fill="none" stroke="black" points="925.24,-246.39 921.95,-236.32 918.24,-246.24 925.24,-246.39"/>
</g>
<!-- Countable -->
<g id="node7" class="node">
<title>Countable</title>
<polygon fill="#fefece" stroke="transparent" points="472,-207.5 298,-207.5 298,-134.5 472,-134.5 472,-207.5"/>
<polygon fill="#eeeeee" stroke="transparent" points="306,-169 306,-203 464,-203 464,-169 306,-169"/>
<polygon fill="none" stroke="black" points="306,-169 306,-203 464,-203 464,-169 306,-169"/>
<text text-anchor="start" x="340" y="-189.8" font-family="Times,serif" font-weight="bold" font-size="14.00">«interface»</text>
<text text-anchor="start" x="344" y="-175.8" font-family="Times,serif" font-weight="bold" font-size="14.00">Countable</text>
<polygon fill="none" stroke="black" points="306,-163 306,-169 464,-169 464,-163 306,-163"/>
<polygon fill="none" stroke="black" points="306,-138 306,-163 464,-163 464,-138 306,-138"/>
<text text-anchor="start" x="311" y="-146.8" font-family="Times,serif" font-size="14.00">+ «abstract» count()</text>
</g>
<!-- Doctrine\\Common\\Collections\\ReadableCollection&#45;&gt;Countable -->
<g id="edge1" class="edge">
<title>Doctrine\\Common\\Collections\\ReadableCollection&#45;&gt;Countable</title>
<path fill="none" stroke="black" stroke-dasharray="5,2" d="M441.78,-282.6C429.13,-257.96 417.36,-235.03 407.85,-216.51"/>
<polygon fill="none" stroke="black" points="410.91,-214.81 403.23,-207.51 404.68,-218 410.91,-214.81"/>
</g>
<!-- IteratorAggregate -->
<g id="node8" class="node">
<title>IteratorAggregate</title>
<polygon fill="#fefece" stroke="transparent" points="703.5,-207.5 490.5,-207.5 490.5,-134.5 703.5,-134.5 703.5,-207.5"/>
<polygon fill="#eeeeee" stroke="transparent" points="499,-169 499,-203 696,-203 696,-169 499,-169"/>
<polygon fill="none" stroke="black" points="499,-169 499,-203 696,-203 696,-169 499,-169"/>
<text text-anchor="start" x="552.5" y="-189.8" font-family="Times,serif" font-weight="bold" font-size="14.00">«interface»</text>
<text text-anchor="start" x="525.5" y="-175.8" font-family="Times,serif" font-weight="bold" font-size="14.00">IteratorAggregate</text>
<polygon fill="none" stroke="black" points="499,-163 499,-169 696,-169 696,-163 499,-163"/>
<polygon fill="none" stroke="black" points="499,-138 499,-163 696,-163 696,-138 499,-138"/>
<text text-anchor="start" x="504" y="-146.8" font-family="Times,serif" font-size="14.00">+ «abstract» getIterator()</text>
</g>
<!-- Doctrine\\Common\\Collections\\ReadableCollection&#45;&gt;IteratorAggregate -->
<g id="edge3" class="edge">
<title>Doctrine\\Common\\Collections\\ReadableCollection&#45;&gt;IteratorAggregate</title>
<path fill="none" stroke="black" stroke-dasharray="5,2" d="M579.93,-282.6C583.66,-258.41 587.14,-235.86 589.97,-217.52"/>
<polygon fill="none" stroke="black" points="593.45,-217.93 591.52,-207.51 586.54,-216.86 593.45,-217.93"/>
</g>
<!-- Traversable -->
<g id="node9" class="node">
<title>Traversable</title>
<polygon fill="#fefece" stroke="transparent" points="654.5,-70 539.5,-70 539.5,-16 654.5,-16 654.5,-70"/>
<polygon fill="#eeeeee" stroke="transparent" points="548,-32 548,-66 647,-66 647,-32 548,-32"/>
<polygon fill="none" stroke="black" points="548,-32 548,-66 647,-66 647,-32 548,-32"/>
<text text-anchor="start" x="552.5" y="-52.8" font-family="Times,serif" font-weight="bold" font-size="14.00">«interface»</text>
<text text-anchor="start" x="551" y="-38.8" font-family="Times,serif" font-weight="bold" font-size="14.00">Traversable</text>
<polygon fill="none" stroke="black" points="548,-26 548,-32 647,-32 647,-26 548,-26"/>
<polygon fill="none" stroke="black" points="548,-20 548,-26 647,-26 647,-20 548,-20"/>
</g>
<!-- IteratorAggregate&#45;&gt;Traversable -->
<g id="edge2" class="edge">
<title>IteratorAggregate&#45;&gt;Traversable</title>
<path fill="none" stroke="black" stroke-dasharray="5,2" d="M597,-134.23C597,-117.36 597,-97.26 597,-80.32"/>
<polygon fill="none" stroke="black" points="600.5,-80.24 597,-70.24 593.5,-80.24 600.5,-80.24"/>
</g>
<!-- PhpParser\\ErrorHandler -->
<g id="node18" class="node">
<title>PhpParser\\ErrorHandler</title>
<polygon fill="#fefece" stroke="transparent" points="2537.5,-892.5 2148.5,-892.5 2148.5,-819.5 2537.5,-819.5 2537.5,-892.5"/>
<polygon fill="#eeeeee" stroke="transparent" points="2157,-854 2157,-888 2530,-888 2530,-854 2157,-854"/>
<polygon fill="none" stroke="black" points="2157,-854 2157,-888 2530,-888 2530,-854 2157,-854"/>
<text text-anchor="start" x="2298.5" y="-874.8" font-family="Times,serif" font-weight="bold" font-size="14.00">«interface»</text>
<text text-anchor="start" x="2290" y="-860.8" font-family="Times,serif" font-weight="bold" font-size="14.00">ErrorHandler</text>
<polygon fill="none" stroke="black" points="2157,-848 2157,-854 2530,-854 2530,-848 2157,-848"/>
<polygon fill="none" stroke="black" points="2157,-823 2157,-848 2530,-848 2530,-823 2157,-823"/>
<text text-anchor="start" x="2162" y="-831.8" font-family="Times,serif" font-size="14.00">+ «abstract» handleError(error : PhpParser\Error)</text>
</g>
<!-- Bartlett\\CompatInfo\\Application\\DataCollector\\ErrorHandler&#45;&gt;PhpParser\\ErrorHandler -->
<g id="edge10" class="edge">
<title>Bartlett\\CompatInfo\\Application\\DataCollector\\ErrorHandler&#45;&gt;PhpParser\\ErrorHandler</title>
<path fill="none" stroke="black" stroke-dasharray="5,2" d="M2007.25,-1298.98C2026.55,-1227.86 2067.73,-1102.14 2136,-1014 2172.77,-966.53 2227.27,-925.97 2271.13,-897.98"/>
<polygon fill="none" stroke="black" points="2273.15,-900.84 2279.75,-892.55 2269.42,-894.92 2273.15,-900.84"/>
</g>
<!-- Bartlett\\CompatInfo\\Application\\DataCollector\\DataCollector -->
<g id="node13" class="node">
<title>Bartlett\\CompatInfo\\Application\\DataCollector\\DataCollector</title>
<polygon fill="#fefece" stroke="transparent" points="2011.5,-978 1286.5,-978 1286.5,-734 2011.5,-734 2011.5,-978"/>
<polygon fill="#eeeeee" stroke="transparent" points="1295,-940 1295,-974 2004,-974 2004,-940 1295,-940"/>
<polygon fill="none" stroke="black" points="1295,-940 1295,-974 2004,-974 2004,-940 1295,-940"/>
<text text-anchor="start" x="1607.5" y="-960.8" font-family="Times,serif" font-weight="bold" font-size="14.00">«abstract»</text>
<text text-anchor="start" x="1595" y="-946.8" font-family="Times,serif" font-weight="bold" font-size="14.00">DataCollector</text>
<polygon fill="none" stroke="black" points="1295,-934 1295,-940 2004,-940 2004,-934 1295,-934"/>
<polygon fill="none" stroke="black" points="1295,-738 1295,-934 2004,-934 2004,-738 1295,-738"/>
<text text-anchor="start" x="1300" y="-917.8" font-family="Times,serif" font-size="14.00">+ __construct(visitor : Bartlett\CompatInfo\Application\PhpParser\NodeVisitor\NodeVisitor)</text>
<text text-anchor="start" x="1300" y="-898.8" font-family="Times,serif" font-size="14.00">+ reset() : void</text>
<text text-anchor="start" x="1300" y="-879.8" font-family="Times,serif" font-size="14.00">+ getData() : array</text>
<text text-anchor="start" x="1300" y="-860.8" font-family="Times,serif" font-size="14.00">+ collect(nodes : array) : array</text>
<text text-anchor="start" x="1300" y="-841.8" font-family="Times,serif" font-size="14.00">+ setName(name : string) : Bartlett\CompatInfo\Application\DataCollector\DataCollectorInterface</text>
<text text-anchor="start" x="1300" y="-822.8" font-family="Times,serif" font-size="14.00">+ getName() : string</text>
<text text-anchor="start" x="1300" y="-803.8" font-family="Times,serif" font-size="14.00">+ addFile(file : Symfony\Component\Finder\SplFileInfo) : void</text>
<text text-anchor="start" x="1300" y="-784.8" font-family="Times,serif" font-size="14.00">+ getFiles() : array</text>
<text text-anchor="start" x="1300" y="-765.8" font-family="Times,serif" font-size="14.00">+ addErrors(errors : array) : void</text>
<text text-anchor="start" x="1300" y="-746.8" font-family="Times,serif" font-size="14.00">+ getErrors() : array</text>
</g>
<!-- Bartlett\\CompatInfo\\Application\\DataCollector\\DataCollectorInterface -->
<g id="node14" class="node">
<title>Bartlett\\CompatInfo\\Application\\DataCollector\\DataCollectorInterface</title>
<polygon fill="#fefece" stroke="transparent" points="2071.5,-603 1266.5,-603 1266.5,-378 2071.5,-378 2071.5,-603"/>
<polygon fill="#eeeeee" stroke="transparent" points="1275,-564.5 1275,-598.5 2064,-598.5 2064,-564.5 1275,-564.5"/>
<polygon fill="none" stroke="black" points="1275,-564.5 1275,-598.5 2064,-598.5 2064,-564.5 1275,-564.5"/>
<text text-anchor="start" x="1624.5" y="-585.3" font-family="Times,serif" font-weight="bold" font-size="14.00">«interface»</text>
<text text-anchor="start" x="1579" y="-571.3" font-family="Times,serif" font-weight="bold" font-size="14.00">DataCollectorInterface</text>
<polygon fill="none" stroke="black" points="1275,-558.5 1275,-564.5 2064,-564.5 2064,-558.5 1275,-558.5"/>
<polygon fill="none" stroke="black" points="1275,-381.5 1275,-558.5 2064,-558.5 2064,-381.5 1275,-381.5"/>
<text text-anchor="start" x="1280" y="-542.3" font-family="Times,serif" font-size="14.00">+ «abstract» reset() : void</text>
<text text-anchor="start" x="1280" y="-523.3" font-family="Times,serif" font-size="14.00">+ «abstract» getData() : array</text>
<text text-anchor="start" x="1280" y="-504.3" font-family="Times,serif" font-size="14.00">+ «abstract» collect(nodes : array) : array</text>
<text text-anchor="start" x="1280" y="-485.3" font-family="Times,serif" font-size="14.00">+ «abstract» setName(name : string) : Bartlett\CompatInfo\Application\DataCollector\DataCollectorInterface</text>
<text text-anchor="start" x="1280" y="-466.3" font-family="Times,serif" font-size="14.00">+ «abstract» getName() : string</text>
<text text-anchor="start" x="1280" y="-447.3" font-family="Times,serif" font-size="14.00">+ «abstract» addFile(file : Symfony\Component\Finder\SplFileInfo) : void</text>
<text text-anchor="start" x="1280" y="-428.3" font-family="Times,serif" font-size="14.00">+ «abstract» getFiles() : array</text>
<text text-anchor="start" x="1280" y="-409.3" font-family="Times,serif" font-size="14.00">+ «abstract» addErrors(errors : array) : void</text>
<text text-anchor="start" x="1280" y="-390.3" font-family="Times,serif" font-size="14.00">+ «abstract» getErrors() : array</text>
</g>
<!-- Bartlett\\CompatInfo\\Application\\DataCollector\\DataCollector&#45;&gt;Bartlett\\CompatInfo\\Application\\DataCollector\\DataCollectorInterface -->
<g id="edge14" class="edge">
<title>Bartlett\\CompatInfo\\Application\\DataCollector\\DataCollector&#45;&gt;Bartlett\\CompatInfo\\Application\\DataCollector\\DataCollectorInterface</title>
<path fill="none" stroke="black" stroke-dasharray="5,2" d="M1655.66,-733.96C1657.79,-695.19 1660.16,-652.25 1662.29,-613.42"/>
<polygon fill="none" stroke="black" points="1665.8,-613.29 1662.86,-603.12 1658.81,-612.91 1665.8,-613.29"/>
</g>
<!-- Bartlett\\CompatInfo\\Application\\DataCollector\\RuleUpdater -->
<g id="node15" class="node">
<title>Bartlett\\CompatInfo\\Application\\DataCollector\\RuleUpdater</title>
<polygon fill="#fefece" stroke="transparent" points="1846.5,-1381.5 1723.5,-1381.5 1723.5,-1327.5 1846.5,-1327.5 1846.5,-1381.5"/>
<polygon fill="#eeeeee" stroke="transparent" points="1732,-1343.5 1732,-1377.5 1839,-1377.5 1839,-1343.5 1732,-1343.5"/>
<polygon fill="none" stroke="black" points="1732,-1343.5 1732,-1377.5 1839,-1377.5 1839,-1343.5 1732,-1343.5"/>
<text text-anchor="start" x="1735" y="-1350.3" font-family="Times,serif" font-weight="bold" font-size="14.00">RuleUpdater</text>
<polygon fill="none" stroke="black" points="1732,-1337.5 1732,-1343.5 1839,-1343.5 1839,-1337.5 1732,-1337.5"/>
<polygon fill="none" stroke="black" points="1732,-1331.5 1732,-1337.5 1839,-1337.5 1839,-1331.5 1732,-1331.5"/>
</g>
<!-- Bartlett\\CompatInfo\\Application\\DataCollector\\VersionDataCollector -->
<g id="node16" class="node">
<title>Bartlett\\CompatInfo\\Application\\DataCollector\\VersionDataCollector</title>
<polygon fill="#fefece" stroke="transparent" points="1705.5,-1533.5 1430.5,-1533.5 1430.5,-1175.5 1705.5,-1175.5 1705.5,-1533.5"/>
<polygon fill="#eeeeee" stroke="transparent" points="1439,-1495.5 1439,-1529.5 1698,-1529.5 1698,-1495.5 1439,-1495.5"/>
<polygon fill="none" stroke="black" points="1439,-1495.5 1439,-1529.5 1698,-1529.5 1698,-1495.5 1439,-1495.5"/>
<text text-anchor="start" x="1484.5" y="-1502.3" font-family="Times,serif" font-weight="bold" font-size="14.00">VersionDataCollector</text>
<polygon fill="none" stroke="black" points="1439,-1489.5 1439,-1495.5 1698,-1495.5 1698,-1489.5 1439,-1489.5"/>
<polygon fill="none" stroke="black" points="1439,-1179.5 1439,-1489.5 1698,-1489.5 1698,-1179.5 1439,-1179.5"/>
<text text-anchor="start" x="1444" y="-1473.3" font-family="Times,serif" font-size="14.00">+ __construct(keysAllowed : array)</text>
<text text-anchor="start" x="1444" y="-1454.3" font-family="Times,serif" font-size="14.00">+ collect(nodes : array) : array</text>
<text text-anchor="start" x="1444" y="-1435.3" font-family="Times,serif" font-size="14.00">+ reset() : void</text>
<text text-anchor="start" x="1444" y="-1416.3" font-family="Times,serif" font-size="14.00">+ getData() : array</text>
<text text-anchor="start" x="1444" y="-1397.3" font-family="Times,serif" font-size="14.00">+ getVersions() : array</text>
<text text-anchor="start" x="1444" y="-1378.3" font-family="Times,serif" font-size="14.00">+ getExtensions() : array</text>
<text text-anchor="start" x="1444" y="-1359.3" font-family="Times,serif" font-size="14.00">+ getNamespaces() : array</text>
<text text-anchor="start" x="1444" y="-1340.3" font-family="Times,serif" font-size="14.00">+ getClasses() : array</text>
<text text-anchor="start" x="1444" y="-1321.3" font-family="Times,serif" font-size="14.00">+ getInterfaces() : array</text>
<text text-anchor="start" x="1444" y="-1302.3" font-family="Times,serif" font-size="14.00">+ getTraits() : array</text>
<text text-anchor="start" x="1444" y="-1283.3" font-family="Times,serif" font-size="14.00">+ getMethods() : array</text>
<text text-anchor="start" x="1444" y="-1264.3" font-family="Times,serif" font-size="14.00">+ getGenerators() : array</text>
<text text-anchor="start" x="1444" y="-1245.3" font-family="Times,serif" font-size="14.00">+ getFunctions() : array</text>
<text text-anchor="start" x="1444" y="-1226.3" font-family="Times,serif" font-size="14.00">+ getConstants() : array</text>
<text text-anchor="start" x="1444" y="-1207.3" font-family="Times,serif" font-size="14.00">+ getDirectives() : array</text>
<text text-anchor="start" x="1444" y="-1188.3" font-family="Times,serif" font-size="14.00">+ getConditions() : array</text>
</g>
<!-- Bartlett\\CompatInfo\\Application\\DataCollector\\VersionDataCollector&#45;&gt;Bartlett\\CompatInfo\\Application\\DataCollector\\DataCollector -->
<g id="edge15" class="edge">
<title>Bartlett\\CompatInfo\\Application\\DataCollector\\VersionDataCollector&#45;&gt;Bartlett\\CompatInfo\\Application\\DataCollector\\DataCollector</title>
<path fill="none" stroke="black" d="M1597.07,-1175.3C1607.13,-1113.65 1618.21,-1045.71 1627.55,-988.49"/>
<polygon fill="none" stroke="black" points="1631.06,-988.73 1629.21,-978.3 1624.15,-987.6 1631.06,-988.73"/>
</g>
<!-- Bartlett\\CompatInfo\\Application\\DataCollector\\VersionUpdater -->
<g id="node17" class="node">
<title>Bartlett\\CompatInfo\\Application\\DataCollector\\VersionUpdater</title>
<polygon fill="#fefece" stroke="transparent" points="1412,-1381.5 1266,-1381.5 1266,-1327.5 1412,-1327.5 1412,-1381.5"/>
<polygon fill="#eeeeee" stroke="transparent" points="1274,-1343.5 1274,-1377.5 1404,-1377.5 1404,-1343.5 1274,-1343.5"/>
<polygon fill="none" stroke="black" points="1274,-1343.5 1274,-1377.5 1404,-1377.5 1404,-1343.5 1274,-1343.5"/>
<text text-anchor="start" x="1277" y="-1350.3" font-family="Times,serif" font-weight="bold" font-size="14.00">VersionUpdater</text>
<polygon fill="none" stroke="black" points="1274,-1337.5 1274,-1343.5 1404,-1343.5 1404,-1337.5 1274,-1337.5"/>
<polygon fill="none" stroke="black" points="1274,-1331.5 1274,-1337.5 1404,-1337.5 1404,-1331.5 1274,-1331.5"/>
</g>
<!-- Bartlett\\CompatInfo\\Application\\DataCollector\\Normalizer\\NodeNormalizer -->
<g id="node19" class="node">
<title>Bartlett\\CompatInfo\\Application\\DataCollector\\Normalizer\\NodeNormalizer</title>
<polygon fill="#fefece" stroke="transparent" points="2717,-1853 2245,-1853 2245,-1761 2717,-1761 2717,-1853"/>
<polygon fill="#eeeeee" stroke="transparent" points="2253,-1815 2253,-1849 2709,-1849 2709,-1815 2253,-1815"/>
<polygon fill="none" stroke="black" points="2253,-1815 2253,-1849 2709,-1849 2709,-1815 2253,-1815"/>
<text text-anchor="start" x="2416" y="-1821.8" font-family="Times,serif" font-weight="bold" font-size="14.00">NodeNormalizer</text>
<polygon fill="none" stroke="black" points="2253,-1809 2253,-1815 2709,-1815 2709,-1809 2253,-1809"/>
<polygon fill="none" stroke="black" points="2253,-1765 2253,-1809 2709,-1809 2709,-1765 2253,-1765"/>
<text text-anchor="start" x="2258" y="-1792.8" font-family="Times,serif" font-size="14.00">+ normalize(object, format = «unknown», context : array = [])</text>
<text text-anchor="start" x="2258" y="-1773.8" font-family="Times,serif" font-size="14.00">+ supportsNormalization(data, format = «unknown»)</text>
</g>
<!-- Symfony\\Component\\Serializer\\Normalizer\\NormalizerInterface -->
<g id="node20" class="node">
<title>Symfony\\Component\\Serializer\\Normalizer\\NormalizerInterface</title>
<polygon fill="#fefece" stroke="transparent" points="2814,-1400.5 2148,-1400.5 2148,-1308.5 2814,-1308.5 2814,-1400.5"/>
<polygon fill="#eeeeee" stroke="transparent" points="2156,-1362.5 2156,-1396.5 2806,-1396.5 2806,-1362.5 2156,-1362.5"/>
<polygon fill="none" stroke="black" points="2156,-1362.5 2156,-1396.5 2806,-1396.5 2806,-1362.5 2156,-1362.5"/>
<text text-anchor="start" x="2436" y="-1383.3" font-family="Times,serif" font-weight="bold" font-size="14.00">«interface»</text>
<text text-anchor="start" x="2400" y="-1369.3" font-family="Times,serif" font-weight="bold" font-size="14.00">NormalizerInterface</text>
<polygon fill="none" stroke="black" points="2156,-1356.5 2156,-1362.5 2806,-1362.5 2806,-1356.5 2156,-1356.5"/>
<polygon fill="none" stroke="black" points="2156,-1312.5 2156,-1356.5 2806,-1356.5 2806,-1312.5 2156,-1312.5"/>
<text text-anchor="start" x="2161" y="-1340.3" font-family="Times,serif" font-size="14.00">+ «abstract» normalize(object : mixed, format : string = «unknown», context : array = [])</text>
<text text-anchor="start" x="2161" y="-1321.3" font-family="Times,serif" font-size="14.00">+ «abstract» supportsNormalization(data : mixed, format : string = «unknown»)</text>
</g>
<!-- Bartlett\\CompatInfo\\Application\\DataCollector\\Normalizer\\NodeNormalizer&#45;&gt;Symfony\\Component\\Serializer\\Normalizer\\NormalizerInterface -->
<g id="edge13" class="edge">
<title>Bartlett\\CompatInfo\\Application\\DataCollector\\Normalizer\\NodeNormalizer&#45;&gt;Symfony\\Component\\Serializer\\Normalizer\\NormalizerInterface</title>
<path fill="none" stroke="black" stroke-dasharray="5,2" d="M2481,-1760.74C2481,-1677.6 2481,-1500.82 2481,-1410.75"/>
<polygon fill="none" stroke="black" points="2484.5,-1410.73 2481,-1400.73 2477.5,-1410.73 2484.5,-1410.73"/>
</g>
</g>
</svg>
