<?xml version="1.0" encoding="UTF-8" standalone="no"?>
<!DOCTYPE svg PUBLIC "-//W3C//DTD SVG 1.1//EN"
 "http://www.w3.org/Graphics/SVG/1.1/DTD/svg11.dtd">
<!-- Generated by graphviz version 2.43.0 (0)
 -->
<!-- Title: %3 Pages: 1 -->
<svg width="4659pt" height="1664pt"
 viewBox="0.00 0.00 4659.00 1664.00" xmlns="http://www.w3.org/2000/svg" xmlns:xlink="http://www.w3.org/1999/xlink">
<g id="graph0" class="graph" transform="scale(1 1) rotate(0) translate(4 1660)">
<title>%3</title>
<g id="clust1" class="cluster">
<title>cluster_0</title>
<polygon fill="#cdaa7d" stroke="black" points="0,-1337 0,-1541 413,-1541 413,-1337 0,-1337"/>
<text text-anchor="middle" x="206.5" y="-1525.8" font-family="Times,serif" font-size="14.00">Bartlett\CompatInfo\Application\PhpParser\Node\Name</text>
</g>
<g id="clust2" class="cluster">
<title>cluster_1</title>
<polygon fill="transparent" stroke="black" points="803,-1336 803,-1543 1028,-1543 1028,-1336 803,-1336"/>
<text text-anchor="middle" x="915.5" y="-1527.8" font-family="Times,serif" font-size="14.00">PhpParser\Node\Name</text>
</g>
<g id="clust3" class="cluster">
<title>cluster_2</title>
<polygon fill="transparent" stroke="black" points="2217,-1231 2217,-1648 2776,-1648 2776,-1231 2217,-1231"/>
<text text-anchor="middle" x="2496.5" y="-1632.8" font-family="Times,serif" font-size="14.00">PhpParser\Node</text>
</g>
<g id="clust4" class="cluster">
<title>cluster_3</title>
<polygon fill="transparent" stroke="black" points="3595,-699 3595,-1374 4643,-1374 4643,-699 3595,-699"/>
<text text-anchor="middle" x="4119" y="-1358.8" font-family="Times,serif" font-size="14.00">PhpParser</text>
</g>
<g id="clust5" class="cluster">
<title>cluster_4</title>
<polygon fill="transparent" stroke="black" points="4226.5,-1382 4226.5,-1586 4505.5,-1586 4505.5,-1382 4226.5,-1382"/>
<text text-anchor="middle" x="4366" y="-1570.8" font-family="Times,serif" font-size="14.00">0</text>
</g>
<g id="clust6" class="cluster">
<title>cluster_5</title>
<polygon fill="#cdaa7d" stroke="black" points="433,-8 433,-507 2789.5,-507 2789.5,-8 433,-8"/>
<text text-anchor="middle" x="1611.25" y="-491.8" font-family="Times,serif" font-size="14.00">Bartlett\CompatInfo\Application\PhpParser\NodeVisitor</text>
</g>
<g id="clust7" class="cluster">
<title>cluster_6</title>
<polygon fill="transparent" stroke="black" points="2156,-515 2156,-832 2837,-832 2837,-515 2156,-515"/>
<text text-anchor="middle" x="2496.5" y="-816.8" font-family="Times,serif" font-size="14.00">PhpParser\NodeVisitor</text>
</g>
<g id="clust8" class="cluster">
<title>cluster_7</title>
<polygon fill="#cdaa7d" stroke="black" points="1418,-908 1418,-1169 3575,-1169 3575,-908 1418,-908"/>
<text text-anchor="middle" x="2496.5" y="-1153.8" font-family="Times,serif" font-size="14.00">Bartlett\CompatInfo\Application\PhpParser</text>
</g>
<!-- Bartlett\\CompatInfo\\Application\\PhpParser\\Node\\Name\\ClassFullyQualified -->
<g id="node1" class="node">
<title>Bartlett\\CompatInfo\\Application\\PhpParser\\Node\\Name\\ClassFullyQualified</title>
<polygon fill="#fefece" stroke="transparent" points="293.5,-1509.5 118.5,-1509.5 118.5,-1436.5 293.5,-1436.5 293.5,-1509.5"/>
<polygon fill="#eeeeee" stroke="transparent" points="127,-1471 127,-1505 286,-1505 286,-1471 127,-1471"/>
<polygon fill="none" stroke="black" points="127,-1471 127,-1505 286,-1505 286,-1471 127,-1471"/>
<text text-anchor="start" x="130" y="-1477.8" font-family="Times,serif" font-weight="bold" font-size="14.00">ClassFullyQualified</text>
<polygon fill="none" stroke="black" points="127,-1465 127,-1471 286,-1471 286,-1465 127,-1465"/>
<polygon fill="none" stroke="black" points="127,-1440 127,-1465 286,-1465 286,-1440 127,-1440"/>
<text text-anchor="start" x="132" y="-1448.8" font-family="Times,serif" font-size="14.00">+ getType() : string</text>
</g>
<!-- PhpParser\\Node\\Name\\FullyQualified -->
<g id="node3" class="node">
<title>PhpParser\\Node\\Name\\FullyQualified</title>
<polygon fill="#fefece" stroke="transparent" points="1020,-1512 811,-1512 811,-1344 1020,-1344 1020,-1512"/>
<polygon fill="#eeeeee" stroke="transparent" points="819.5,-1474 819.5,-1508 1012.5,-1508 1012.5,-1474 819.5,-1474"/>
<polygon fill="none" stroke="black" points="819.5,-1474 819.5,-1508 1012.5,-1508 1012.5,-1474 819.5,-1474"/>
<text text-anchor="start" x="860.5" y="-1480.8" font-family="Times,serif" font-weight="bold" font-size="14.00">FullyQualified</text>
<polygon fill="none" stroke="black" points="819.5,-1468 819.5,-1474 1012.5,-1474 1012.5,-1468 819.5,-1468"/>
<polygon fill="none" stroke="black" points="819.5,-1348 819.5,-1468 1012.5,-1468 1012.5,-1348 819.5,-1348"/>
<text text-anchor="start" x="824.5" y="-1451.8" font-family="Times,serif" font-size="14.00">+ isUnqualified() : bool</text>
<text text-anchor="start" x="824.5" y="-1432.8" font-family="Times,serif" font-size="14.00">+ isQualified() : bool</text>
<text text-anchor="start" x="824.5" y="-1413.8" font-family="Times,serif" font-size="14.00">+ isFullyQualified() : bool</text>
<text text-anchor="start" x="824.5" y="-1394.8" font-family="Times,serif" font-size="14.00">+ isRelative() : bool</text>
<text text-anchor="start" x="824.5" y="-1375.8" font-family="Times,serif" font-size="14.00">+ toCodeString() : string</text>
<text text-anchor="start" x="824.5" y="-1356.8" font-family="Times,serif" font-size="14.00">+ getType() : string</text>
</g>
<!-- Bartlett\\CompatInfo\\Application\\PhpParser\\Node\\Name\\ClassFullyQualified&#45;&gt;PhpParser\\Node\\Name\\FullyQualified -->
<g id="edge6" class="edge">
<title>Bartlett\\CompatInfo\\Application\\PhpParser\\Node\\Name\\ClassFullyQualified&#45;&gt;PhpParser\\Node\\Name\\FullyQualified</title>
<path fill="none" stroke="black" d="M293.75,-1467.48C421.31,-1459.37 659.61,-1444.21 800.95,-1435.22"/>
<polygon fill="none" stroke="black" points="801.2,-1438.71 810.96,-1434.59 800.76,-1431.73 801.2,-1438.71"/>
</g>
<!-- Bartlett\\CompatInfo\\Application\\PhpParser\\Node\\Name\\InterfaceFullyQualified -->
<g id="node2" class="node">
<title>Bartlett\\CompatInfo\\Application\\PhpParser\\Node\\Name\\InterfaceFullyQualified</title>
<polygon fill="#fefece" stroke="transparent" points="309,-1418.5 103,-1418.5 103,-1345.5 309,-1345.5 309,-1418.5"/>
<polygon fill="#eeeeee" stroke="transparent" points="111,-1380 111,-1414 301,-1414 301,-1380 111,-1380"/>
<polygon fill="none" stroke="black" points="111,-1380 111,-1414 301,-1414 301,-1380 111,-1380"/>
<text text-anchor="start" x="114" y="-1386.8" font-family="Times,serif" font-weight="bold" font-size="14.00">InterfaceFullyQualified</text>
<polygon fill="none" stroke="black" points="111,-1374 111,-1380 301,-1380 301,-1374 111,-1374"/>
<polygon fill="none" stroke="black" points="111,-1349 111,-1374 301,-1374 301,-1349 111,-1349"/>
<text text-anchor="start" x="116" y="-1357.8" font-family="Times,serif" font-size="14.00">+ getType() : string</text>
</g>
<!-- Bartlett\\CompatInfo\\Application\\PhpParser\\Node\\Name\\InterfaceFullyQualified&#45;&gt;PhpParser\\Node\\Name\\FullyQualified -->
<g id="edge7" class="edge">
<title>Bartlett\\CompatInfo\\Application\\PhpParser\\Node\\Name\\InterfaceFullyQualified&#45;&gt;PhpParser\\Node\\Name\\FullyQualified</title>
<path fill="none" stroke="black" d="M309.12,-1388.64C439.69,-1397.13 665.1,-1411.78 800.94,-1420.62"/>
<polygon fill="none" stroke="black" points="800.77,-1424.11 810.97,-1421.27 801.22,-1417.13 800.77,-1424.11"/>
</g>
<!-- PhpParser\\Node\\Name -->
<g id="node4" class="node">
<title>PhpParser\\Node\\Name</title>
<polygon fill="#fefece" stroke="transparent" points="2768,-1616.5 2225,-1616.5 2225,-1239.5 2768,-1239.5 2768,-1616.5"/>
<polygon fill="#eeeeee" stroke="transparent" points="2233.5,-1578 2233.5,-1612 2760.5,-1612 2760.5,-1578 2233.5,-1578"/>
<polygon fill="none" stroke="black" points="2233.5,-1578 2233.5,-1612 2760.5,-1612 2760.5,-1578 2233.5,-1578"/>
<text text-anchor="start" x="2474" y="-1584.8" font-family="Times,serif" font-weight="bold" font-size="14.00">Name</text>
<polygon fill="none" stroke="black" points="2233.5,-1553 2233.5,-1578 2760.5,-1578 2760.5,-1553 2233.5,-1553"/>
<text text-anchor="start" x="2238.5" y="-1561.8" font-family="Times,serif" font-size="14.00">+ parts : mixed</text>
<polygon fill="none" stroke="black" points="2233.5,-1243 2233.5,-1553 2760.5,-1553 2760.5,-1243 2233.5,-1243"/>
<text text-anchor="start" x="2238.5" y="-1536.8" font-family="Times,serif" font-size="14.00">+ __construct(name : mixed, attributes : array = [])</text>
<text text-anchor="start" x="2238.5" y="-1517.8" font-family="Times,serif" font-size="14.00">+ getSubNodeNames() : array</text>
<text text-anchor="start" x="2238.5" y="-1498.8" font-family="Times,serif" font-size="14.00">+ getFirst() : string</text>
<text text-anchor="start" x="2238.5" y="-1479.8" font-family="Times,serif" font-size="14.00">+ getLast() : string</text>
<text text-anchor="start" x="2238.5" y="-1460.8" font-family="Times,serif" font-size="14.00">+ isUnqualified() : bool</text>
<text text-anchor="start" x="2238.5" y="-1441.8" font-family="Times,serif" font-size="14.00">+ isQualified() : bool</text>
<text text-anchor="start" x="2238.5" y="-1422.8" font-family="Times,serif" font-size="14.00">+ isFullyQualified() : bool</text>
<text text-anchor="start" x="2238.5" y="-1403.8" font-family="Times,serif" font-size="14.00">+ isRelative() : bool</text>
<text text-anchor="start" x="2238.5" y="-1384.8" font-family="Times,serif" font-size="14.00">+ toString() : string</text>
<text text-anchor="start" x="2238.5" y="-1365.8" font-family="Times,serif" font-size="14.00">+ toCodeString() : string</text>
<text text-anchor="start" x="2238.5" y="-1346.8" font-family="Times,serif" font-size="14.00">+ toLowerString() : string</text>
<text text-anchor="start" x="2238.5" y="-1327.8" font-family="Times,serif" font-size="14.00">+ isSpecialClassName() : bool</text>
<text text-anchor="start" x="2238.5" y="-1308.8" font-family="Times,serif" font-size="14.00">+ __toString() : string</text>
<text text-anchor="start" x="2238.5" y="-1289.8" font-family="Times,serif" font-size="14.00">+ slice(offset : int, length : int = «unknown»)</text>
<text text-anchor="start" x="2238.5" y="-1270.8" font-family="Times,serif" font-size="14.00">+ «static» concat(name1 : mixed, name2 : mixed, attributes : array = [])</text>
<text text-anchor="start" x="2238.5" y="-1251.8" font-family="Times,serif" font-size="14.00">+ getType() : string</text>
</g>
<!-- PhpParser\\Node\\Name\\FullyQualified&#45;&gt;PhpParser\\Node\\Name -->
<g id="edge5" class="edge">
<title>PhpParser\\Node\\Name\\FullyQualified&#45;&gt;PhpParser\\Node\\Name</title>
<path fill="none" stroke="black" d="M1020.1,-1428C1259.48,-1428 1857.73,-1428 2214.59,-1428"/>
<polygon fill="none" stroke="black" points="2214.82,-1431.5 2224.82,-1428 2214.82,-1424.5 2214.82,-1431.5"/>
</g>
<!-- PhpParser\\NodeAbstract -->
<g id="node5" class="node">
<title>PhpParser\\NodeAbstract</title>
<polygon fill="#fefece" stroke="transparent" points="4061,-1342.5 3603,-1342.5 3603,-965.5 4061,-965.5 4061,-1342.5"/>
<polygon fill="#eeeeee" stroke="transparent" points="3611,-1304 3611,-1338 4053,-1338 4053,-1304 3611,-1304"/>
<polygon fill="none" stroke="black" points="3611,-1304 3611,-1338 4053,-1338 4053,-1304 3611,-1304"/>
<text text-anchor="start" x="3790" y="-1324.8" font-family="Times,serif" font-weight="bold" font-size="14.00">«abstract»</text>
<text text-anchor="start" x="3778" y="-1310.8" font-family="Times,serif" font-weight="bold" font-size="14.00">NodeAbstract</text>
<polygon fill="none" stroke="black" points="3611,-1298 3611,-1304 4053,-1304 4053,-1298 3611,-1298"/>
<polygon fill="none" stroke="black" points="3611,-969 3611,-1298 4053,-1298 4053,-969 3611,-969"/>
<text text-anchor="start" x="3616" y="-1281.8" font-family="Times,serif" font-size="14.00">+ __construct(attributes : array = [])</text>
<text text-anchor="start" x="3616" y="-1262.8" font-family="Times,serif" font-size="14.00">+ getLine() : int</text>
<text text-anchor="start" x="3616" y="-1243.8" font-family="Times,serif" font-size="14.00">+ getStartLine() : int</text>
<text text-anchor="start" x="3616" y="-1224.8" font-family="Times,serif" font-size="14.00">+ getEndLine() : int</text>
<text text-anchor="start" x="3616" y="-1205.8" font-family="Times,serif" font-size="14.00">+ getStartTokenPos() : int</text>
<text text-anchor="start" x="3616" y="-1186.8" font-family="Times,serif" font-size="14.00">+ getEndTokenPos() : int</text>
<text text-anchor="start" x="3616" y="-1167.8" font-family="Times,serif" font-size="14.00">+ getStartFilePos() : int</text>
<text text-anchor="start" x="3616" y="-1148.8" font-family="Times,serif" font-size="14.00">+ getEndFilePos() : int</text>
<text text-anchor="start" x="3616" y="-1129.8" font-family="Times,serif" font-size="14.00">+ getComments() : array</text>
<text text-anchor="start" x="3616" y="-1110.8" font-family="Times,serif" font-size="14.00">+ getDocComment()</text>
<text text-anchor="start" x="3616" y="-1091.8" font-family="Times,serif" font-size="14.00">+ setDocComment(docComment : PhpParser\Comment\Doc)</text>
<text text-anchor="start" x="3616" y="-1072.8" font-family="Times,serif" font-size="14.00">+ setAttribute(key : string, value)</text>
<text text-anchor="start" x="3616" y="-1053.8" font-family="Times,serif" font-size="14.00">+ hasAttribute(key : string) : bool</text>
<text text-anchor="start" x="3616" y="-1034.8" font-family="Times,serif" font-size="14.00">+ getAttribute(key : string, default = «unknown»)</text>
<text text-anchor="start" x="3616" y="-1015.8" font-family="Times,serif" font-size="14.00">+ getAttributes() : array</text>
<text text-anchor="start" x="3616" y="-996.8" font-family="Times,serif" font-size="14.00">+ setAttributes(attributes : array)</text>
<text text-anchor="start" x="3616" y="-977.8" font-family="Times,serif" font-size="14.00">+ jsonSerialize() : array</text>
</g>
<!-- PhpParser\\Node\\Name&#45;&gt;PhpParser\\NodeAbstract -->
<g id="edge3" class="edge">
<title>PhpParser\\Node\\Name&#45;&gt;PhpParser\\NodeAbstract</title>
<path fill="none" stroke="black" d="M2768.16,-1372.39C3010.19,-1322.65 3361.47,-1250.48 3592.98,-1202.91"/>
<polygon fill="none" stroke="black" points="3593.79,-1206.31 3602.88,-1200.87 3592.38,-1199.46 3593.79,-1206.31"/>
</g>
<!-- Stringable -->
<g id="node11" class="node">
<title>Stringable</title>
<polygon fill="#fefece" stroke="transparent" points="4497.5,-1554.5 4234.5,-1554.5 4234.5,-1481.5 4497.5,-1481.5 4497.5,-1554.5"/>
<polygon fill="#eeeeee" stroke="transparent" points="4243,-1516 4243,-1550 4490,-1550 4490,-1516 4243,-1516"/>
<polygon fill="none" stroke="black" points="4243,-1516 4243,-1550 4490,-1550 4490,-1516 4243,-1516"/>
<text text-anchor="start" x="4321.5" y="-1536.8" font-family="Times,serif" font-weight="bold" font-size="14.00">«interface»</text>
<text text-anchor="start" x="4325" y="-1522.8" font-family="Times,serif" font-weight="bold" font-size="14.00">Stringable</text>
<polygon fill="none" stroke="black" points="4243,-1510 4243,-1516 4490,-1516 4490,-1510 4243,-1510"/>
<polygon fill="none" stroke="black" points="4243,-1485 4243,-1510 4490,-1510 4490,-1485 4243,-1485"/>
<text text-anchor="start" x="4248" y="-1493.8" font-family="Times,serif" font-size="14.00">+ «abstract» __toString() : string</text>
</g>
<!-- PhpParser\\Node\\Name&#45;&gt;Stringable -->
<g id="edge4" class="edge">
<title>PhpParser\\Node\\Name&#45;&gt;Stringable</title>
<path fill="none" stroke="black" stroke-dasharray="5,2" d="M2768.05,-1441.04C3170.98,-1460.46 3914.42,-1496.29 4223.98,-1511.2"/>
<polygon fill="none" stroke="black" points="4224.2,-1514.72 4234.36,-1511.7 4224.54,-1507.73 4224.2,-1514.72"/>
</g>
<!-- PhpParser\\Node -->
<g id="node6" class="node">
<title>PhpParser\\Node</title>
<polygon fill="#fefece" stroke="transparent" points="4635,-1342.5 4097,-1342.5 4097,-965.5 4635,-965.5 4635,-1342.5"/>
<polygon fill="#eeeeee" stroke="transparent" points="4105,-1304 4105,-1338 4627,-1338 4627,-1304 4105,-1304"/>
<polygon fill="none" stroke="black" points="4105,-1304 4105,-1338 4627,-1338 4627,-1304 4105,-1304"/>
<text text-anchor="start" x="4321" y="-1324.8" font-family="Times,serif" font-weight="bold" font-size="14.00">«interface»</text>
<text text-anchor="start" x="4345.5" y="-1310.8" font-family="Times,serif" font-weight="bold" font-size="14.00">Node</text>
<polygon fill="none" stroke="black" points="4105,-1298 4105,-1304 4627,-1304 4627,-1298 4105,-1298"/>
<polygon fill="none" stroke="black" points="4105,-969 4105,-1298 4627,-1298 4627,-969 4105,-969"/>
<text text-anchor="start" x="4110" y="-1281.8" font-family="Times,serif" font-size="14.00">+ «abstract» getType() : string</text>
<text text-anchor="start" x="4110" y="-1262.8" font-family="Times,serif" font-size="14.00">+ «abstract» getSubNodeNames() : array</text>
<text text-anchor="start" x="4110" y="-1243.8" font-family="Times,serif" font-size="14.00">+ «abstract» getLine() : int</text>
<text text-anchor="start" x="4110" y="-1224.8" font-family="Times,serif" font-size="14.00">+ «abstract» getStartLine() : int</text>
<text text-anchor="start" x="4110" y="-1205.8" font-family="Times,serif" font-size="14.00">+ «abstract» getEndLine() : int</text>
<text text-anchor="start" x="4110" y="-1186.8" font-family="Times,serif" font-size="14.00">+ «abstract» getStartTokenPos() : int</text>
<text text-anchor="start" x="4110" y="-1167.8" font-family="Times,serif" font-size="14.00">+ «abstract» getEndTokenPos() : int</text>
<text text-anchor="start" x="4110" y="-1148.8" font-family="Times,serif" font-size="14.00">+ «abstract» getStartFilePos() : int</text>
<text text-anchor="start" x="4110" y="-1129.8" font-family="Times,serif" font-size="14.00">+ «abstract» getEndFilePos() : int</text>
<text text-anchor="start" x="4110" y="-1110.8" font-family="Times,serif" font-size="14.00">+ «abstract» getComments() : array</text>
<text text-anchor="start" x="4110" y="-1091.8" font-family="Times,serif" font-size="14.00">+ «abstract» getDocComment()</text>
<text text-anchor="start" x="4110" y="-1072.8" font-family="Times,serif" font-size="14.00">+ «abstract» setDocComment(docComment : PhpParser\Comment\Doc)</text>
<text text-anchor="start" x="4110" y="-1053.8" font-family="Times,serif" font-size="14.00">+ «abstract» setAttribute(key : string, value : mixed)</text>
<text text-anchor="start" x="4110" y="-1034.8" font-family="Times,serif" font-size="14.00">+ «abstract» hasAttribute(key : string) : bool</text>
<text text-anchor="start" x="4110" y="-1015.8" font-family="Times,serif" font-size="14.00">+ «abstract» getAttribute(key : string, default : mixed = «unknown»)</text>
<text text-anchor="start" x="4110" y="-996.8" font-family="Times,serif" font-size="14.00">+ «abstract» getAttributes() : array</text>
<text text-anchor="start" x="4110" y="-977.8" font-family="Times,serif" font-size="14.00">+ «abstract» setAttributes(attributes : array)</text>
</g>
<!-- PhpParser\\NodeAbstract&#45;&gt;PhpParser\\Node -->
<g id="edge1" class="edge">
<title>PhpParser\\NodeAbstract&#45;&gt;PhpParser\\Node</title>
<path fill="none" stroke="black" stroke-dasharray="5,2" d="M4061.32,-1154C4069.63,-1154 4078,-1154 4086.38,-1154"/>
<polygon fill="none" stroke="black" points="4086.61,-1157.5 4096.61,-1154 4086.61,-1150.5 4086.61,-1157.5"/>
</g>
<!-- JsonSerializable -->
<g id="node10" class="node">
<title>JsonSerializable</title>
<polygon fill="#fefece" stroke="transparent" points="4478.5,-1463.5 4253.5,-1463.5 4253.5,-1390.5 4478.5,-1390.5 4478.5,-1463.5"/>
<polygon fill="#eeeeee" stroke="transparent" points="4262,-1425 4262,-1459 4471,-1459 4471,-1425 4262,-1425"/>
<polygon fill="none" stroke="black" points="4262,-1425 4262,-1459 4471,-1459 4471,-1425 4262,-1425"/>
<text text-anchor="start" x="4321.5" y="-1445.8" font-family="Times,serif" font-weight="bold" font-size="14.00">«interface»</text>
<text text-anchor="start" x="4303" y="-1431.8" font-family="Times,serif" font-weight="bold" font-size="14.00">JsonSerializable</text>
<polygon fill="none" stroke="black" points="4262,-1419 4262,-1425 4471,-1425 4471,-1419 4262,-1419"/>
<polygon fill="none" stroke="black" points="4262,-1394 4262,-1419 4471,-1419 4471,-1394 4262,-1394"/>
<text text-anchor="start" x="4267" y="-1402.8" font-family="Times,serif" font-size="14.00">+ «abstract» jsonSerialize()</text>
</g>
<!-- PhpParser\\NodeAbstract&#45;&gt;JsonSerializable -->
<g id="edge2" class="edge">
<title>PhpParser\\NodeAbstract&#45;&gt;JsonSerializable</title>
<path fill="none" stroke="black" stroke-dasharray="5,2" d="M4035.2,-1342.62C4055.22,-1355.95 4075.95,-1368.03 4097,-1378 4142.3,-1399.45 4196.01,-1411.54 4243.42,-1418.34"/>
<polygon fill="none" stroke="black" points="4243.05,-1421.82 4253.43,-1419.71 4244,-1414.88 4243.05,-1421.82"/>
</g>
<!-- PhpParser\\NodeVisitorAbstract -->
<g id="node7" class="node">
<title>PhpParser\\NodeVisitorAbstract</title>
<polygon fill="#fefece" stroke="transparent" points="3979,-837 3685,-837 3685,-707 3979,-707 3979,-837"/>
<polygon fill="#eeeeee" stroke="transparent" points="3693,-799 3693,-833 3971,-833 3971,-799 3693,-799"/>
<polygon fill="none" stroke="black" points="3693,-799 3693,-833 3971,-833 3971,-799 3693,-799"/>
<text text-anchor="start" x="3752" y="-805.8" font-family="Times,serif" font-weight="bold" font-size="14.00">NodeVisitorAbstract</text>
<polygon fill="none" stroke="black" points="3693,-793 3693,-799 3971,-799 3971,-793 3693,-793"/>
<polygon fill="none" stroke="black" points="3693,-711 3693,-793 3971,-793 3971,-711 3693,-711"/>
<text text-anchor="start" x="3698" y="-776.8" font-family="Times,serif" font-size="14.00">+ beforeTraverse(nodes : array)</text>
<text text-anchor="start" x="3698" y="-757.8" font-family="Times,serif" font-size="14.00">+ enterNode(node : PhpParser\Node)</text>
<text text-anchor="start" x="3698" y="-738.8" font-family="Times,serif" font-size="14.00">+ leaveNode(node : PhpParser\Node)</text>
<text text-anchor="start" x="3698" y="-719.8" font-family="Times,serif" font-size="14.00">+ afterTraverse(nodes : array)</text>
</g>
<!-- PhpParser\\NodeVisitor -->
<g id="node8" class="node">
<title>PhpParser\\NodeVisitor</title>
<polygon fill="#fefece" stroke="transparent" points="4553,-837 4179,-837 4179,-707 4553,-707 4553,-837"/>
<polygon fill="#eeeeee" stroke="transparent" points="4187,-799 4187,-833 4545,-833 4545,-799 4187,-799"/>
<polygon fill="none" stroke="black" points="4187,-799 4187,-833 4545,-833 4545,-799 4187,-799"/>
<text text-anchor="start" x="4321" y="-819.8" font-family="Times,serif" font-weight="bold" font-size="14.00">«interface»</text>
<text text-anchor="start" x="4319" y="-805.8" font-family="Times,serif" font-weight="bold" font-size="14.00">NodeVisitor</text>
<polygon fill="none" stroke="black" points="4187,-793 4187,-799 4545,-799 4545,-793 4187,-793"/>
<polygon fill="none" stroke="black" points="4187,-711 4187,-793 4545,-793 4545,-711 4187,-711"/>
<text text-anchor="start" x="4192" y="-776.8" font-family="Times,serif" font-size="14.00">+ «abstract» beforeTraverse(nodes : array)</text>
<text text-anchor="start" x="4192" y="-757.8" font-family="Times,serif" font-size="14.00">+ «abstract» enterNode(node : PhpParser\Node)</text>
<text text-anchor="start" x="4192" y="-738.8" font-family="Times,serif" font-size="14.00">+ «abstract» leaveNode(node : PhpParser\Node)</text>
<text text-anchor="start" x="4192" y="-719.8" font-family="Times,serif" font-size="14.00">+ «abstract» afterTraverse(nodes : array)</text>
</g>
<!-- PhpParser\\NodeVisitorAbstract&#45;&gt;PhpParser\\NodeVisitor -->
<g id="edge8" class="edge">
<title>PhpParser\\NodeVisitorAbstract&#45;&gt;PhpParser\\NodeVisitor</title>
<path fill="none" stroke="black" stroke-dasharray="5,2" d="M3979.08,-772C4037.62,-772 4105.96,-772 4168.73,-772"/>
<polygon fill="none" stroke="black" points="4168.76,-775.5 4178.76,-772 4168.76,-768.5 4168.76,-775.5"/>
</g>
<!-- PhpParser\\NodeDumper -->
<g id="node9" class="node">
<title>PhpParser\\NodeDumper</title>
<polygon fill="#fefece" stroke="transparent" points="4053,-947 3611,-947 3611,-855 4053,-855 4053,-947"/>
<polygon fill="#eeeeee" stroke="transparent" points="3619,-909 3619,-943 4045,-943 4045,-909 3619,-909"/>
<polygon fill="none" stroke="black" points="3619,-909 3619,-943 4045,-943 4045,-909 3619,-909"/>
<text text-anchor="start" x="3779.5" y="-915.8" font-family="Times,serif" font-weight="bold" font-size="14.00">NodeDumper</text>
<polygon fill="none" stroke="black" points="3619,-903 3619,-909 4045,-909 4045,-903 3619,-903"/>
<polygon fill="none" stroke="black" points="3619,-859 3619,-903 4045,-903 4045,-859 3619,-859"/>
<text text-anchor="start" x="3624" y="-886.8" font-family="Times,serif" font-size="14.00">+ __construct(options : array = [])</text>
<text text-anchor="start" x="3624" y="-867.8" font-family="Times,serif" font-size="14.00">+ dump(node : mixed, code : string = «unknown») : string</text>
</g>
<!-- Bartlett\\CompatInfo\\Application\\PhpParser\\NodeVisitor\\FilterVisitor -->
<g id="node12" class="node">
<title>Bartlett\\CompatInfo\\Application\\PhpParser\\NodeVisitor\\FilterVisitor</title>
<polygon fill="#fefece" stroke="transparent" points="1329,-108 502,-108 502,-16 1329,-16 1329,-108"/>
<polygon fill="#eeeeee" stroke="transparent" points="510.5,-70 510.5,-104 1321.5,-104 1321.5,-70 510.5,-70"/>
<polygon fill="none" stroke="black" points="510.5,-70 510.5,-104 1321.5,-104 1321.5,-70 510.5,-70"/>
<text text-anchor="start" x="867.5" y="-76.8" font-family="Times,serif" font-weight="bold" font-size="14.00">FilterVisitor</text>
<polygon fill="none" stroke="black" points="510.5,-64 510.5,-70 1321.5,-70 1321.5,-64 510.5,-64"/>
<polygon fill="none" stroke="black" points="510.5,-20 510.5,-64 1321.5,-64 1321.5,-20 510.5,-20"/>
<text text-anchor="start" x="515.5" y="-47.8" font-family="Times,serif" font-size="14.00">+ __construct(normalizer : Symfony\Component\Serializer\Normalizer\NormalizerInterface, context : array = [])</text>
<text text-anchor="start" x="515.5" y="-28.8" font-family="Times,serif" font-size="14.00">+ getCollection() : Doctrine\Common\Collections\ArrayCollection</text>
</g>
<!-- Bartlett\\CompatInfo\\Application\\PhpParser\\NodeVisitor\\NodeVisitor -->
<g id="node13" class="node">
<title>Bartlett\\CompatInfo\\Application\\PhpParser\\NodeVisitor\\NodeVisitor</title>
<polygon fill="#fefece" stroke="transparent" points="2781.5,-261.5 2211.5,-261.5 2211.5,-188.5 2781.5,-188.5 2781.5,-261.5"/>
<polygon fill="#eeeeee" stroke="transparent" points="2219.5,-223 2219.5,-257 2773.5,-257 2773.5,-223 2219.5,-223"/>
<polygon fill="none" stroke="black" points="2219.5,-223 2219.5,-257 2773.5,-257 2773.5,-223 2219.5,-223"/>
<text text-anchor="start" x="2451.5" y="-243.8" font-family="Times,serif" font-weight="bold" font-size="14.00">«interface»</text>
<text text-anchor="start" x="2449.5" y="-229.8" font-family="Times,serif" font-weight="bold" font-size="14.00">NodeVisitor</text>
<polygon fill="none" stroke="black" points="2219.5,-217 2219.5,-223 2773.5,-223 2773.5,-217 2219.5,-217"/>
<polygon fill="none" stroke="black" points="2219.5,-192 2219.5,-217 2773.5,-217 2773.5,-192 2219.5,-192"/>
<text text-anchor="start" x="2224.5" y="-200.8" font-family="Times,serif" font-size="14.00">+ «abstract» getCollection() : Doctrine\Common\Collections\ArrayCollection</text>
</g>
<!-- Bartlett\\CompatInfo\\Application\\PhpParser\\NodeVisitor\\FilterVisitor&#45;&gt;Bartlett\\CompatInfo\\Application\\PhpParser\\NodeVisitor\\NodeVisitor -->
<g id="edge12" class="edge">
<title>Bartlett\\CompatInfo\\Application\\PhpParser\\NodeVisitor\\FilterVisitor&#45;&gt;Bartlett\\CompatInfo\\Application\\PhpParser\\NodeVisitor\\NodeVisitor</title>
<path fill="none" stroke="black" stroke-dasharray="5,2" d="M1329.04,-104.59C1602.8,-132.85 1955.58,-169.26 2201.16,-194.62"/>
<polygon fill="none" stroke="black" points="2201,-198.12 2211.31,-195.66 2201.72,-191.15 2201,-198.12"/>
</g>
<!-- PhpParser\\NodeVisitor\\FindingVisitor -->
<g id="node17" class="node">
<title>PhpParser\\NodeVisitor\\FindingVisitor</title>
<polygon fill="#fefece" stroke="transparent" points="2645.5,-653 2347.5,-653 2347.5,-523 2645.5,-523 2645.5,-653"/>
<polygon fill="#eeeeee" stroke="transparent" points="2355.5,-615 2355.5,-649 2637.5,-649 2637.5,-615 2355.5,-615"/>
<polygon fill="none" stroke="black" points="2355.5,-615 2355.5,-649 2637.5,-649 2637.5,-615 2355.5,-615"/>
<text text-anchor="start" x="2439.5" y="-621.8" font-family="Times,serif" font-weight="bold" font-size="14.00">FindingVisitor</text>
<polygon fill="none" stroke="black" points="2355.5,-609 2355.5,-615 2637.5,-615 2637.5,-609 2355.5,-609"/>
<polygon fill="none" stroke="black" points="2355.5,-527 2355.5,-609 2637.5,-609 2637.5,-527 2355.5,-527"/>
<text text-anchor="start" x="2360.5" y="-592.8" font-family="Times,serif" font-size="14.00">+ __construct(filterCallback : callable)</text>
<text text-anchor="start" x="2360.5" y="-573.8" font-family="Times,serif" font-size="14.00">+ getFoundNodes() : array</text>
<text text-anchor="start" x="2360.5" y="-554.8" font-family="Times,serif" font-size="14.00">+ beforeTraverse(nodes : array)</text>
<text text-anchor="start" x="2360.5" y="-535.8" font-family="Times,serif" font-size="14.00">+ enterNode(node : PhpParser\Node)</text>
</g>
<!-- Bartlett\\CompatInfo\\Application\\PhpParser\\NodeVisitor\\FilterVisitor&#45;&gt;PhpParser\\NodeVisitor\\FindingVisitor -->
<g id="edge10" class="edge">
<title>Bartlett\\CompatInfo\\Application\\PhpParser\\NodeVisitor\\FilterVisitor&#45;&gt;PhpParser\\NodeVisitor\\FindingVisitor</title>
<path fill="none" stroke="black" d="M1329.23,-71.52C1351.56,-83.36 1372.13,-98.31 1390,-117 1450.66,-180.44 1355.94,-448.92 1418,-511 1543.09,-636.14 2069.2,-618.64 2337.18,-600.78"/>
<polygon fill="none" stroke="black" points="2337.65,-604.26 2347.39,-600.09 2337.18,-597.27 2337.65,-604.26"/>
</g>
<!-- Bartlett\\CompatInfo\\Application\\PhpParser\\NodeVisitor\\NodeVisitor&#45;&gt;PhpParser\\NodeVisitor -->
<g id="edge11" class="edge">
<title>Bartlett\\CompatInfo\\Application\\PhpParser\\NodeVisitor\\NodeVisitor&#45;&gt;PhpParser\\NodeVisitor</title>
<path fill="none" stroke="black" stroke-dasharray="5,2" d="M2646.43,-261.54C2855.06,-313.41 3245.73,-413 3575,-511 3778.91,-571.69 4009.7,-648.94 4168.93,-703.61"/>
<polygon fill="none" stroke="black" points="4168.24,-707.07 4178.84,-707.01 4170.52,-700.45 4168.24,-707.07"/>
</g>
<!-- Bartlett\\CompatInfo\\Application\\PhpParser\\NodeVisitor\\NameResolverVisitor -->
<g id="node14" class="node">
<title>Bartlett\\CompatInfo\\Application\\PhpParser\\NodeVisitor\\NameResolverVisitor</title>
<polygon fill="#fefece" stroke="transparent" points="1248,-218 583,-218 583,-126 1248,-126 1248,-218"/>
<polygon fill="#eeeeee" stroke="transparent" points="591.5,-180 591.5,-214 1240.5,-214 1240.5,-180 591.5,-180"/>
<polygon fill="none" stroke="black" points="591.5,-180 591.5,-214 1240.5,-214 1240.5,-180 591.5,-180"/>
<text text-anchor="start" x="832.5" y="-186.8" font-family="Times,serif" font-weight="bold" font-size="14.00">NameResolverVisitor</text>
<polygon fill="none" stroke="black" points="591.5,-174 591.5,-180 1240.5,-180 1240.5,-174 591.5,-174"/>
<polygon fill="none" stroke="black" points="591.5,-130 591.5,-174 1240.5,-174 1240.5,-130 591.5,-130"/>
<text text-anchor="start" x="596.5" y="-157.8" font-family="Times,serif" font-size="14.00">+ __construct(errorHandler : PhpParser\ErrorHandler = «unknown», options : array = [])</text>
<text text-anchor="start" x="596.5" y="-138.8" font-family="Times,serif" font-size="14.00">+ enterNode(node : PhpParser\Node)</text>
</g>
<!-- PhpParser\\NodeVisitor\\NameResolver -->
<g id="node18" class="node">
<title>PhpParser\\NodeVisitor\\NameResolver</title>
<polygon fill="#fefece" stroke="transparent" points="2829,-801 2164,-801 2164,-671 2829,-671 2829,-801"/>
<polygon fill="#eeeeee" stroke="transparent" points="2172.5,-763 2172.5,-797 2821.5,-797 2821.5,-763 2172.5,-763"/>
<polygon fill="none" stroke="black" points="2172.5,-763 2172.5,-797 2821.5,-797 2821.5,-763 2172.5,-763"/>
<text text-anchor="start" x="2439.5" y="-769.8" font-family="Times,serif" font-weight="bold" font-size="14.00">NameResolver</text>
<polygon fill="none" stroke="black" points="2172.5,-757 2172.5,-763 2821.5,-763 2821.5,-757 2172.5,-757"/>
<polygon fill="none" stroke="black" points="2172.5,-675 2172.5,-757 2821.5,-757 2821.5,-675 2172.5,-675"/>
<text text-anchor="start" x="2177.5" y="-740.8" font-family="Times,serif" font-size="14.00">+ __construct(errorHandler : PhpParser\ErrorHandler = «unknown», options : array = [])</text>
<text text-anchor="start" x="2177.5" y="-721.8" font-family="Times,serif" font-size="14.00">+ getNameContext() : PhpParser\NameContext</text>
<text text-anchor="start" x="2177.5" y="-702.8" font-family="Times,serif" font-size="14.00">+ beforeTraverse(nodes : array)</text>
<text text-anchor="start" x="2177.5" y="-683.8" font-family="Times,serif" font-size="14.00">+ enterNode(node : PhpParser\Node)</text>
</g>
<!-- Bartlett\\CompatInfo\\Application\\PhpParser\\NodeVisitor\\NameResolverVisitor&#45;&gt;PhpParser\\NodeVisitor\\NameResolver -->
<g id="edge14" class="edge">
<title>Bartlett\\CompatInfo\\Application\\PhpParser\\NodeVisitor\\NameResolverVisitor&#45;&gt;PhpParser\\NodeVisitor\\NameResolver</title>
<path fill="none" stroke="black" d="M1248.14,-152.14C1301.75,-164.13 1352.03,-187.02 1390,-227 1456.71,-297.23 1349.65,-593.36 1418,-662 1628.58,-873.49 1993.84,-850.6 2240.03,-803.02"/>
<polygon fill="none" stroke="black" points="2241.06,-806.39 2250.2,-801.03 2239.71,-799.52 2241.06,-806.39"/>
</g>
<!-- Bartlett\\CompatInfo\\Application\\PhpParser\\NodeVisitor\\ParentContextVisitor -->
<g id="node15" class="node">
<title>Bartlett\\CompatInfo\\Application\\PhpParser\\NodeVisitor\\ParentContextVisitor</title>
<polygon fill="#fefece" stroke="transparent" points="1062.5,-476 768.5,-476 768.5,-346 1062.5,-346 1062.5,-476"/>
<polygon fill="#eeeeee" stroke="transparent" points="776.5,-438 776.5,-472 1054.5,-472 1054.5,-438 776.5,-438"/>
<polygon fill="none" stroke="black" points="776.5,-438 776.5,-472 1054.5,-472 1054.5,-438 776.5,-438"/>
<text text-anchor="start" x="831.5" y="-444.8" font-family="Times,serif" font-weight="bold" font-size="14.00">ParentContextVisitor</text>
<polygon fill="none" stroke="black" points="776.5,-432 776.5,-438 1054.5,-438 1054.5,-432 776.5,-432"/>
<polygon fill="none" stroke="black" points="776.5,-350 776.5,-432 1054.5,-432 1054.5,-350 776.5,-350"/>
<text text-anchor="start" x="781.5" y="-415.8" font-family="Times,serif" font-size="14.00">+ __construct(options : array = [])</text>
<text text-anchor="start" x="781.5" y="-396.8" font-family="Times,serif" font-size="14.00">+ beforeTraverse(nodes : array)</text>
<text text-anchor="start" x="781.5" y="-377.8" font-family="Times,serif" font-size="14.00">+ enterNode(node : PhpParser\Node)</text>
<text text-anchor="start" x="781.5" y="-358.8" font-family="Times,serif" font-size="14.00">+ leaveNode(node : PhpParser\Node)</text>
</g>
<!-- Bartlett\\CompatInfo\\Application\\PhpParser\\NodeVisitor\\ParentContextVisitor&#45;&gt;PhpParser\\NodeVisitorAbstract -->
<g id="edge15" class="edge">
<title>Bartlett\\CompatInfo\\Application\\PhpParser\\NodeVisitor\\ParentContextVisitor&#45;&gt;PhpParser\\NodeVisitorAbstract</title>
<path fill="none" stroke="black" d="M962.48,-476.08C1041.42,-581.46 1214.05,-785.53 1418,-864 1529.84,-907.03 3463.12,-906.93 3575,-864 3586.16,-859.72 3584.61,-851.92 3595,-846 3619.77,-831.87 3647.58,-820.09 3675.17,-810.39"/>
<polygon fill="none" stroke="black" points="3676.6,-813.61 3684.92,-807.05 3674.33,-806.99 3676.6,-813.61"/>
</g>
<!-- Bartlett\\CompatInfo\\Application\\PhpParser\\NodeVisitor\\VersionResolverVisitor -->
<g id="node16" class="node">
<title>Bartlett\\CompatInfo\\Application\\PhpParser\\NodeVisitor\\VersionResolverVisitor</title>
<polygon fill="#fefece" stroke="transparent" points="1390,-328 441,-328 441,-236 1390,-236 1390,-328"/>
<polygon fill="#eeeeee" stroke="transparent" points="449.5,-290 449.5,-324 1382.5,-324 1382.5,-290 449.5,-290"/>
<polygon fill="none" stroke="black" points="449.5,-290 449.5,-324 1382.5,-324 1382.5,-290 449.5,-290"/>
<text text-anchor="start" x="825.5" y="-296.8" font-family="Times,serif" font-weight="bold" font-size="14.00">VersionResolverVisitor</text>
<polygon fill="none" stroke="black" points="449.5,-284 449.5,-290 1382.5,-290 1382.5,-284 449.5,-284"/>
<polygon fill="none" stroke="black" points="449.5,-240 449.5,-284 1382.5,-284 1382.5,-240 449.5,-240"/>
<text text-anchor="start" x="454.5" y="-267.8" font-family="Times,serif" font-size="14.00">+ __construct(referenceCollection : Bartlett\CompatInfo\Application\Collection\ReferenceCollectionInterface, options : array = [])</text>
<text text-anchor="start" x="454.5" y="-248.8" font-family="Times,serif" font-size="14.00">+ enterNode(node : PhpParser\Node)</text>
</g>
<!-- Bartlett\\CompatInfo\\Application\\PhpParser\\NodeVisitor\\VersionResolverVisitor&#45;&gt;PhpParser\\NodeVisitorAbstract -->
<g id="edge16" class="edge">
<title>Bartlett\\CompatInfo\\Application\\PhpParser\\NodeVisitor\\VersionResolverVisitor&#45;&gt;PhpParser\\NodeVisitorAbstract</title>
<path fill="none" stroke="black" d="M1381.28,-328.25C1384.26,-331.07 1387.16,-333.99 1390,-337 1466.16,-417.84 1337.3,-759.7 1418,-836 1461.54,-877.16 3515.53,-843.32 3575,-836 3607.66,-831.98 3642.14,-825.18 3674.85,-817.47"/>
<polygon fill="none" stroke="black" points="3676.03,-820.79 3684.94,-815.05 3674.4,-813.98 3676.03,-820.79"/>
</g>
<!-- PhpParser\\NodeVisitor\\FindingVisitor&#45;&gt;PhpParser\\NodeVisitorAbstract -->
<g id="edge9" class="edge">
<title>PhpParser\\NodeVisitor\\FindingVisitor&#45;&gt;PhpParser\\NodeVisitorAbstract</title>
<path fill="none" stroke="black" d="M2645.84,-582.59C2855.83,-578.42 3250.36,-583.52 3575,-662 3614.66,-671.59 3655.98,-686.8 3693.56,-702.89"/>
<polygon fill="none" stroke="black" points="3692.46,-706.23 3703.03,-707 3695.24,-699.81 3692.46,-706.23"/>
</g>
<!-- PhpParser\\NodeVisitor\\NameResolver&#45;&gt;PhpParser\\NodeVisitorAbstract -->
<g id="edge13" class="edge">
<title>PhpParser\\NodeVisitor\\NameResolver&#45;&gt;PhpParser\\NodeVisitorAbstract</title>
<path fill="none" stroke="black" d="M2829.27,-744.96C3099.27,-752.25 3468.26,-762.21 3674.72,-767.78"/>
<polygon fill="none" stroke="black" points="3674.64,-771.28 3684.73,-768.05 3674.83,-764.28 3674.64,-771.28"/>
</g>
<!-- Bartlett\\CompatInfo\\Application\\PhpParser\\NodeDumper -->
<g id="node19" class="node">
<title>Bartlett\\CompatInfo\\Application\\PhpParser\\NodeDumper</title>
<polygon fill="#fefece" stroke="transparent" points="2717.5,-1137.5 2275.5,-1137.5 2275.5,-1026.5 2717.5,-1026.5 2717.5,-1137.5"/>
<polygon fill="#eeeeee" stroke="transparent" points="2283.5,-1099 2283.5,-1133 2709.5,-1133 2709.5,-1099 2283.5,-1099"/>
<polygon fill="none" stroke="black" points="2283.5,-1099 2283.5,-1133 2709.5,-1133 2709.5,-1099 2283.5,-1099"/>
<text text-anchor="start" x="2444" y="-1105.8" font-family="Times,serif" font-weight="bold" font-size="14.00">NodeDumper</text>
<polygon fill="none" stroke="black" points="2283.5,-1093 2283.5,-1099 2709.5,-1099 2709.5,-1093 2283.5,-1093"/>
<polygon fill="none" stroke="black" points="2283.5,-1030 2283.5,-1093 2709.5,-1093 2709.5,-1030 2283.5,-1030"/>
<text text-anchor="start" x="2288.5" y="-1076.8" font-family="Times,serif" font-size="14.00">+ __construct(options : array = [])</text>
<text text-anchor="start" x="2288.5" y="-1057.8" font-family="Times,serif" font-size="14.00">+ dump(node : mixed, code : string = «unknown») : string</text>
<text text-anchor="start" x="2288.5" y="-1038.8" font-family="Times,serif" font-size="14.00">+ dumpPosition(node : PhpParser\Node)</text>
</g>
<!-- Bartlett\\CompatInfo\\Application\\PhpParser\\NodeDumper&#45;&gt;PhpParser\\NodeDumper -->
<g id="edge17" class="edge">
<title>Bartlett\\CompatInfo\\Application\\PhpParser\\NodeDumper&#45;&gt;PhpParser\\NodeDumper</title>
<path fill="none" stroke="black" d="M2717.52,-1134.82C2954.42,-1177.96 3330.17,-1204.92 3575,-1017 3597.3,-999.88 3574.26,-975.97 3595,-957 3597.49,-954.73 3600.05,-952.54 3602.67,-950.44"/>
<polygon fill="none" stroke="black" points="3604.85,-953.18 3610.76,-944.38 3600.66,-947.58 3604.85,-953.18"/>
</g>
<!-- Bartlett\\CompatInfo\\Application\\PhpParser\\Parser -->
<g id="node20" class="node">
<title>Bartlett\\CompatInfo\\Application\\PhpParser\\Parser</title>
<polygon fill="#fefece" stroke="transparent" points="3567,-1008 1426,-1008 1426,-916 3567,-916 3567,-1008"/>
<polygon fill="#eeeeee" stroke="transparent" points="1434.5,-970 1434.5,-1004 3559.5,-1004 3559.5,-970 1434.5,-970"/>
<polygon fill="none" stroke="black" points="1434.5,-970 1434.5,-1004 3559.5,-1004 3559.5,-970 1434.5,-970"/>
<text text-anchor="start" x="2471" y="-976.8" font-family="Times,serif" font-weight="bold" font-size="14.00">Parser</text>
<polygon fill="none" stroke="black" points="1434.5,-964 1434.5,-970 3559.5,-970 3559.5,-964 1434.5,-964"/>
<polygon fill="none" stroke="black" points="1434.5,-920 1434.5,-964 3559.5,-964 3559.5,-920 1434.5,-920"/>
<text text-anchor="start" x="1439.5" y="-947.8" font-family="Times,serif" font-size="14.00">+ __construct(compatibilityEventDispatcher : Symfony\Component\EventDispatcher\EventDispatcherInterface, compatibilityAnalyser : Bartlett\CompatInfo\Application\Analyser\SniffAnalyserInterface, referenceCollection : Bartlett\CompatInfo\Application\Collection\ReferenceCollectionInterface)</text>
<text text-anchor="start" x="1439.5" y="-928.8" font-family="Times,serif" font-size="14.00">+ parse(source : string, finder : Symfony\Component\Finder\Finder, errorHandler : Bartlett\CompatInfo\Application\DataCollector\ErrorHandler, version : string) : Bartlett\CompatInfo\Application\Profiler\Profile</text>
</g>
</g>
</svg>
