<?xml version="1.0" encoding="UTF-8" standalone="no"?>
<!DOCTYPE svg PUBLIC "-//W3C//DTD SVG 1.1//EN"
 "http://www.w3.org/Graphics/SVG/1.1/DTD/svg11.dtd">
<!-- Generated by graphviz version 2.43.0 (0)
 -->
<!-- Title: %3 Pages: 1 -->
<svg width="1582pt" height="677pt"
 viewBox="0.00 0.00 1582.00 677.00" xmlns="http://www.w3.org/2000/svg" xmlns:xlink="http://www.w3.org/1999/xlink">
<g id="graph0" class="graph" transform="scale(1 1) rotate(0) translate(4 673)">
<title>%3</title>
<g id="clust1" class="cluster">
<title>cluster_0</title>
<polygon fill="#cdaa7d" stroke="black" points="8,-8 8,-661 1566,-661 1566,-8 8,-8"/>
<text text-anchor="middle" x="787" y="-645.8" font-family="Times,serif" font-size="14.00">Bartlett\CompatInfo\Application\Profiler</text>
</g>
<!-- Bartlett\\CompatInfo\\Application\\Profiler\\CollectorInterface -->
<g id="node1" class="node">
<title>Bartlett\\CompatInfo\\Application\\Profiler\\CollectorInterface</title>
<polygon fill="#fefece" stroke="transparent" points="1170,-165 328,-165 328,-16 1170,-16 1170,-165"/>
<polygon fill="#eeeeee" stroke="transparent" points="336,-126.5 336,-160.5 1162,-160.5 1162,-126.5 336,-126.5"/>
<polygon fill="none" stroke="black" points="336,-126.5 336,-160.5 1162,-160.5 1162,-126.5 336,-126.5"/>
<text text-anchor="start" x="704" y="-147.3" font-family="Times,serif" font-weight="bold" font-size="14.00">«interface»</text>
<text text-anchor="start" x="676.5" y="-133.3" font-family="Times,serif" font-weight="bold" font-size="14.00">CollectorInterface</text>
<polygon fill="none" stroke="black" points="336,-120.5 336,-126.5 1162,-126.5 1162,-120.5 336,-120.5"/>
<polygon fill="none" stroke="black" points="336,-19.5 336,-120.5 1162,-120.5 1162,-19.5 336,-19.5"/>
<text text-anchor="start" x="341" y="-104.3" font-family="Times,serif" font-size="14.00">+ «abstract» getCollectors() : array</text>
<text text-anchor="start" x="341" y="-85.3" font-family="Times,serif" font-size="14.00">+ «abstract» getCollector(name : string) : Bartlett\CompatInfo\Application\DataCollector\DataCollectorInterface</text>
<text text-anchor="start" x="341" y="-66.3" font-family="Times,serif" font-size="14.00">+ «abstract» addCollector(collector : Bartlett\CompatInfo\Application\DataCollector\DataCollectorInterface) : void</text>
<text text-anchor="start" x="341" y="-47.3" font-family="Times,serif" font-size="14.00">+ «abstract» setCollectors(collectors : array) : void</text>
<text text-anchor="start" x="341" y="-28.3" font-family="Times,serif" font-size="14.00">+ «abstract» hasCollector(name : string) : bool</text>
</g>
<!-- Bartlett\\CompatInfo\\Application\\Profiler\\CollectorTrait -->
<g id="node2" class="node">
<title>Bartlett\\CompatInfo\\Application\\Profiler\\CollectorTrait</title>
<polygon fill="#fefece" stroke="transparent" points="1558,-601.5 796,-601.5 796,-452.5 1558,-452.5 1558,-601.5"/>
<polygon fill="#eeeeee" stroke="transparent" points="804,-563 804,-597 1550,-597 1550,-563 804,-563"/>
<polygon fill="none" stroke="black" points="804,-563 804,-597 1550,-597 1550,-563 804,-563"/>
<text text-anchor="start" x="1122" y="-569.8" font-family="Times,serif" font-weight="bold" font-size="14.00">CollectorTrait</text>
<polygon fill="none" stroke="black" points="804,-557 804,-563 1550,-563 1550,-557 804,-557"/>
<polygon fill="none" stroke="black" points="804,-456 804,-557 1550,-557 1550,-456 804,-456"/>
<text text-anchor="start" x="809" y="-540.8" font-family="Times,serif" font-size="14.00">+ getCollectors() : array</text>
<text text-anchor="start" x="809" y="-521.8" font-family="Times,serif" font-size="14.00">+ getCollector(name : string) : Bartlett\CompatInfo\Application\DataCollector\DataCollectorInterface</text>
<text text-anchor="start" x="809" y="-502.8" font-family="Times,serif" font-size="14.00">+ addCollector(collector : Bartlett\CompatInfo\Application\DataCollector\DataCollectorInterface) : void</text>
<text text-anchor="start" x="809" y="-483.8" font-family="Times,serif" font-size="14.00">+ setCollectors(collectors : array) : void</text>
<text text-anchor="start" x="809" y="-464.8" font-family="Times,serif" font-size="14.00">+ hasCollector(name : string) : bool</text>
</g>
<!-- Bartlett\\CompatInfo\\Application\\Profiler\\Profile -->
<g id="node3" class="node">
<title>Bartlett\\CompatInfo\\Application\\Profiler\\Profile</title>
<polygon fill="#fefece" stroke="transparent" points="1443,-388 681,-388 681,-201 1443,-201 1443,-388"/>
<polygon fill="#eeeeee" stroke="transparent" points="689,-349.5 689,-383.5 1435,-383.5 1435,-349.5 689,-349.5"/>
<polygon fill="none" stroke="black" points="689,-349.5 689,-383.5 1435,-383.5 1435,-349.5 689,-349.5"/>
<text text-anchor="start" x="1036" y="-356.3" font-family="Times,serif" font-weight="bold" font-size="14.00">Profile</text>
<polygon fill="none" stroke="black" points="689,-343.5 689,-349.5 1435,-349.5 1435,-343.5 689,-343.5"/>
<polygon fill="none" stroke="black" points="689,-204.5 689,-343.5 1435,-343.5 1435,-204.5 689,-204.5"/>
<text text-anchor="start" x="694" y="-327.3" font-family="Times,serif" font-size="14.00">+ __construct(token : string, data : iterable)</text>
<text text-anchor="start" x="694" y="-308.3" font-family="Times,serif" font-size="14.00">+ getData() : array</text>
<text text-anchor="start" x="694" y="-289.3" font-family="Times,serif" font-size="14.00">+ getCollectors() : array</text>
<text text-anchor="start" x="694" y="-270.3" font-family="Times,serif" font-size="14.00">+ getCollector(name : string) : Bartlett\CompatInfo\Application\DataCollector\DataCollectorInterface</text>
<text text-anchor="start" x="694" y="-251.3" font-family="Times,serif" font-size="14.00">+ addCollector(collector : Bartlett\CompatInfo\Application\DataCollector\DataCollectorInterface) : void</text>
<text text-anchor="start" x="694" y="-232.3" font-family="Times,serif" font-size="14.00">+ setCollectors(collectors : array) : void</text>
<text text-anchor="start" x="694" y="-213.3" font-family="Times,serif" font-size="14.00">+ hasCollector(name : string) : bool</text>
</g>
<!-- Bartlett\\CompatInfo\\Application\\Profiler\\Profile&#45;&gt;Bartlett\\CompatInfo\\Application\\Profiler\\CollectorInterface -->
<g id="edge1" class="edge">
<title>Bartlett\\CompatInfo\\Application\\Profiler\\Profile&#45;&gt;Bartlett\\CompatInfo\\Application\\Profiler\\CollectorInterface</title>
<path fill="none" stroke="black" stroke-dasharray="5,2" d="M918.33,-200.78C902.73,-190.71 886.97,-180.54 871.66,-170.66"/>
<polygon fill="none" stroke="black" points="873.5,-167.68 863.2,-165.2 869.7,-173.56 873.5,-167.68"/>
</g>
<!-- Bartlett\\CompatInfo\\Application\\Profiler\\Profiler -->
<g id="node4" class="node">
<title>Bartlett\\CompatInfo\\Application\\Profiler\\Profiler</title>
<polygon fill="#fefece" stroke="transparent" points="778,-630 16,-630 16,-424 778,-424 778,-630"/>
<polygon fill="#eeeeee" stroke="transparent" points="24,-592 24,-626 770,-626 770,-592 24,-592"/>
<polygon fill="none" stroke="black" points="24,-592 24,-626 770,-626 770,-592 24,-592"/>
<text text-anchor="start" x="367" y="-598.8" font-family="Times,serif" font-weight="bold" font-size="14.00">Profiler</text>
<polygon fill="none" stroke="black" points="24,-586 24,-592 770,-592 770,-586 24,-586"/>
<polygon fill="none" stroke="black" points="24,-428 24,-586 770,-586 770,-428 24,-428"/>
<text text-anchor="start" x="29" y="-569.8" font-family="Times,serif" font-size="14.00">+ __construct(token : string)</text>
<text text-anchor="start" x="29" y="-550.8" font-family="Times,serif" font-size="14.00">+ reset() : void</text>
<text text-anchor="start" x="29" y="-531.8" font-family="Times,serif" font-size="14.00">+ collect() : Bartlett\CompatInfo\Application\Profiler\Profile</text>
<text text-anchor="start" x="29" y="-512.8" font-family="Times,serif" font-size="14.00">+ getCollectors() : array</text>
<text text-anchor="start" x="29" y="-493.8" font-family="Times,serif" font-size="14.00">+ getCollector(name : string) : Bartlett\CompatInfo\Application\DataCollector\DataCollectorInterface</text>
<text text-anchor="start" x="29" y="-474.8" font-family="Times,serif" font-size="14.00">+ addCollector(collector : Bartlett\CompatInfo\Application\DataCollector\DataCollectorInterface) : void</text>
<text text-anchor="start" x="29" y="-455.8" font-family="Times,serif" font-size="14.00">+ setCollectors(collectors : array) : void</text>
<text text-anchor="start" x="29" y="-436.8" font-family="Times,serif" font-size="14.00">+ hasCollector(name : string) : bool</text>
</g>
<!-- Bartlett\\CompatInfo\\Application\\Profiler\\ProfilerInterface -->
<g id="node5" class="node">
<title>Bartlett\\CompatInfo\\Application\\Profiler\\ProfilerInterface</title>
<polygon fill="#fefece" stroke="transparent" points="662.5,-340.5 131.5,-340.5 131.5,-248.5 662.5,-248.5 662.5,-340.5"/>
<polygon fill="#eeeeee" stroke="transparent" points="140,-302.5 140,-336.5 655,-336.5 655,-302.5 140,-302.5"/>
<polygon fill="none" stroke="black" points="140,-302.5 140,-336.5 655,-336.5 655,-302.5 140,-302.5"/>
<text text-anchor="start" x="352.5" y="-323.3" font-family="Times,serif" font-weight="bold" font-size="14.00">«interface»</text>
<text text-anchor="start" x="331" y="-309.3" font-family="Times,serif" font-weight="bold" font-size="14.00">ProfilerInterface</text>
<polygon fill="none" stroke="black" points="140,-296.5 140,-302.5 655,-302.5 655,-296.5 140,-296.5"/>
<polygon fill="none" stroke="black" points="140,-252.5 140,-296.5 655,-296.5 655,-252.5 140,-252.5"/>
<text text-anchor="start" x="145" y="-280.3" font-family="Times,serif" font-size="14.00">+ «abstract» reset() : void</text>
<text text-anchor="start" x="145" y="-261.3" font-family="Times,serif" font-size="14.00">+ «abstract» collect() : Bartlett\CompatInfo\Application\Profiler\Profile</text>
</g>
<!-- Bartlett\\CompatInfo\\Application\\Profiler\\Profiler&#45;&gt;Bartlett\\CompatInfo\\Application\\Profiler\\ProfilerInterface -->
<g id="edge3" class="edge">
<title>Bartlett\\CompatInfo\\Application\\Profiler\\Profiler&#45;&gt;Bartlett\\CompatInfo\\Application\\Profiler\\ProfilerInterface</title>
<path fill="none" stroke="black" stroke-dasharray="5,2" d="M397,-423.89C397,-398.74 397,-372.73 397,-350.76"/>
<polygon fill="none" stroke="black" points="400.5,-350.65 397,-340.65 393.5,-350.65 400.5,-350.65"/>
</g>
<!-- Bartlett\\CompatInfo\\Application\\Profiler\\ProfilerInterface&#45;&gt;Bartlett\\CompatInfo\\Application\\Profiler\\CollectorInterface -->
<g id="edge2" class="edge">
<title>Bartlett\\CompatInfo\\Application\\Profiler\\ProfilerInterface&#45;&gt;Bartlett\\CompatInfo\\Application\\Profiler\\CollectorInterface</title>
<path fill="none" stroke="black" stroke-dasharray="5,2" d="M475.56,-248.42C515.63,-225.42 565.54,-196.78 611.71,-170.29"/>
<polygon fill="none" stroke="black" points="613.65,-173.21 620.58,-165.19 610.17,-167.14 613.65,-173.21"/>
</g>
</g>
</svg>
