<?xml version="1.0" encoding="UTF-8" standalone="no"?>
<!DOCTYPE svg PUBLIC "-//W3C//DTD SVG 1.1//EN"
 "http://www.w3.org/Graphics/SVG/1.1/DTD/svg11.dtd">
<!-- Generated by graphviz version 2.43.0 (0)
 -->
<!-- Title: %3 Pages: 1 -->
<svg width="3662pt" height="1227pt"
 viewBox="0.00 0.00 3662.00 1227.00" xmlns="http://www.w3.org/2000/svg" xmlns:xlink="http://www.w3.org/1999/xlink">
<g id="graph0" class="graph" transform="scale(1 1) rotate(0) translate(4 1223)">
<title>%3</title>
<g id="clust1" class="cluster">
<title>cluster_0</title>
<polygon fill="#cdaa7d" stroke="black" points="8,-8 8,-1211 3248,-1211 3248,-8 8,-8"/>
<text text-anchor="middle" x="1628" y="-1195.8" font-family="Times,serif" font-size="14.00">Bartlett\CompatInfo\Application\Analyser</text>
</g>
<g id="clust2" class="cluster">
<title>cluster_1</title>
<polygon fill="transparent" stroke="black" points="3256,-231 3256,-400 3646,-400 3646,-231 3256,-231"/>
<text text-anchor="middle" x="3451" y="-384.8" font-family="Times,serif" font-size="14.00">PhpParser</text>
</g>
<!-- Bartlett\\CompatInfo\\Application\\Analyser\\AbstractSniffAnalyser -->
<g id="node1" class="node">
<title>Bartlett\\CompatInfo\\Application\\Analyser\\AbstractSniffAnalyser</title>
<polygon fill="#fefece" stroke="transparent" points="2950,-761 884,-761 884,-536 2950,-536 2950,-761"/>
<polygon fill="#eeeeee" stroke="transparent" points="892,-722.5 892,-756.5 2942,-756.5 2942,-722.5 892,-722.5"/>
<polygon fill="none" stroke="black" points="892,-722.5 892,-756.5 2942,-756.5 2942,-722.5 892,-722.5"/>
<text text-anchor="start" x="1875" y="-743.3" font-family="Times,serif" font-weight="bold" font-size="14.00">«abstract»</text>
<text text-anchor="start" x="1831" y="-729.3" font-family="Times,serif" font-weight="bold" font-size="14.00">AbstractSniffAnalyser</text>
<polygon fill="none" stroke="black" points="892,-716.5 892,-722.5 2942,-722.5 2942,-716.5 892,-716.5"/>
<polygon fill="none" stroke="black" points="892,-539.5 892,-716.5 2942,-716.5 2942,-539.5 892,-539.5"/>
<text text-anchor="start" x="897" y="-700.3" font-family="Times,serif" font-size="14.00">+ __construct(profiler : Bartlett\CompatInfo\Application\Profiler\ProfilerInterface, dispatcher : Symfony\Component\EventDispatcher\EventDispatcherInterface, sniffs : Bartlett\CompatInfo\Application\Collection\SniffCollectionInterface, attributeParentKey : string, attributeKey : string)</text>
<text text-anchor="start" x="897" y="-681.3" font-family="Times,serif" font-size="14.00">+ getProfiler() : Bartlett\CompatInfo\Application\Profiler\ProfilerInterface</text>
<text text-anchor="start" x="897" y="-662.3" font-family="Times,serif" font-size="14.00">+ setErrorHandler(errorHandler : Bartlett\CompatInfo\Application\DataCollector\ErrorHandler) : void</text>
<text text-anchor="start" x="897" y="-643.3" font-family="Times,serif" font-size="14.00">+ setUpBeforeVisitor() : void</text>
<text text-anchor="start" x="897" y="-624.3" font-family="Times,serif" font-size="14.00">+ tearDownAfterVisitor() : void</text>
<text text-anchor="start" x="897" y="-605.3" font-family="Times,serif" font-size="14.00">+ beforeTraverse(nodes : array) : ?array</text>
<text text-anchor="start" x="897" y="-586.3" font-family="Times,serif" font-size="14.00">+ enterNode(node : PhpParser\Node)</text>
<text text-anchor="start" x="897" y="-567.3" font-family="Times,serif" font-size="14.00">+ leaveNode(node : PhpParser\Node)</text>
<text text-anchor="start" x="897" y="-548.3" font-family="Times,serif" font-size="14.00">+ afterTraverse(nodes : array) : ?array</text>
</g>
<!-- Bartlett\\CompatInfo\\Application\\Analyser\\SniffAnalyserInterface -->
<g id="node2" class="node">
<title>Bartlett\\CompatInfo\\Application\\Analyser\\SniffAnalyserInterface</title>
<polygon fill="#fefece" stroke="transparent" points="2931.5,-500 2094.5,-500 2094.5,-408 2931.5,-408 2931.5,-500"/>
<polygon fill="#eeeeee" stroke="transparent" points="2103,-462 2103,-496 2924,-496 2924,-462 2103,-462"/>
<polygon fill="none" stroke="black" points="2103,-462 2103,-496 2924,-496 2924,-462 2103,-462"/>
<text text-anchor="start" x="2468.5" y="-482.8" font-family="Times,serif" font-weight="bold" font-size="14.00">«interface»</text>
<text text-anchor="start" x="2424.5" y="-468.8" font-family="Times,serif" font-weight="bold" font-size="14.00">SniffAnalyserInterface</text>
<polygon fill="none" stroke="black" points="2103,-456 2103,-462 2924,-462 2924,-456 2103,-456"/>
<polygon fill="none" stroke="black" points="2103,-412 2103,-456 2924,-456 2924,-412 2103,-412"/>
<text text-anchor="start" x="2108" y="-439.8" font-family="Times,serif" font-size="14.00">+ «abstract» getProfiler() : Bartlett\CompatInfo\Application\Profiler\ProfilerInterface</text>
<text text-anchor="start" x="2108" y="-420.8" font-family="Times,serif" font-size="14.00">+ «abstract» setErrorHandler(errorHandler : Bartlett\CompatInfo\Application\DataCollector\ErrorHandler) : void</text>
</g>
<!-- Bartlett\\CompatInfo\\Application\\Analyser\\AbstractSniffAnalyser&#45;&gt;Bartlett\\CompatInfo\\Application\\Analyser\\SniffAnalyserInterface -->
<g id="edge4" class="edge">
<title>Bartlett\\CompatInfo\\Application\\Analyser\\AbstractSniffAnalyser&#45;&gt;Bartlett\\CompatInfo\\Application\\Analyser\\SniffAnalyserInterface</title>
<path fill="none" stroke="black" stroke-dasharray="5,2" d="M2262.4,-535.94C2297.82,-524.5 2332.31,-513.36 2363.82,-503.18"/>
<polygon fill="none" stroke="black" points="2365.07,-506.46 2373.51,-500.05 2362.91,-499.8 2365.07,-506.46"/>
</g>
<!-- Bartlett\\CompatInfo\\Application\\Analyser\\SniffVisitorInterface -->
<g id="node3" class="node">
<title>Bartlett\\CompatInfo\\Application\\Analyser\\SniffVisitorInterface</title>
<polygon fill="#fefece" stroke="transparent" points="2678,-350 2348,-350 2348,-258 2678,-258 2678,-350"/>
<polygon fill="#eeeeee" stroke="transparent" points="2356,-312 2356,-346 2670,-346 2670,-312 2356,-312"/>
<polygon fill="none" stroke="black" points="2356,-312 2356,-346 2670,-346 2670,-312 2356,-312"/>
<text text-anchor="start" x="2468" y="-332.8" font-family="Times,serif" font-weight="bold" font-size="14.00">«interface»</text>
<text text-anchor="start" x="2431.5" y="-318.8" font-family="Times,serif" font-weight="bold" font-size="14.00">SniffVisitorInterface</text>
<polygon fill="none" stroke="black" points="2356,-306 2356,-312 2670,-312 2670,-306 2356,-306"/>
<polygon fill="none" stroke="black" points="2356,-262 2356,-306 2670,-306 2670,-262 2356,-262"/>
<text text-anchor="start" x="2361" y="-289.8" font-family="Times,serif" font-size="14.00">+ «abstract» setUpBeforeVisitor() : void</text>
<text text-anchor="start" x="2361" y="-270.8" font-family="Times,serif" font-size="14.00">+ «abstract» tearDownAfterVisitor() : void</text>
</g>
<!-- Bartlett\\CompatInfo\\Application\\Analyser\\SniffAnalyserInterface&#45;&gt;Bartlett\\CompatInfo\\Application\\Analyser\\SniffVisitorInterface -->
<g id="edge2" class="edge">
<title>Bartlett\\CompatInfo\\Application\\Analyser\\SniffAnalyserInterface&#45;&gt;Bartlett\\CompatInfo\\Application\\Analyser\\SniffVisitorInterface</title>
<path fill="none" stroke="black" stroke-dasharray="5,2" d="M2513,-407.79C2513,-392.8 2513,-375.94 2513,-360.27"/>
<polygon fill="none" stroke="black" points="2516.5,-360.19 2513,-350.19 2509.5,-360.19 2516.5,-360.19"/>
</g>
<!-- PhpParser\\NodeVisitor -->
<g id="node6" class="node">
<title>PhpParser\\NodeVisitor</title>
<polygon fill="#fefece" stroke="transparent" points="3638,-369 3264,-369 3264,-239 3638,-239 3638,-369"/>
<polygon fill="#eeeeee" stroke="transparent" points="3272,-331 3272,-365 3630,-365 3630,-331 3272,-331"/>
<polygon fill="none" stroke="black" points="3272,-331 3272,-365 3630,-365 3630,-331 3272,-331"/>
<text text-anchor="start" x="3406" y="-351.8" font-family="Times,serif" font-weight="bold" font-size="14.00">«interface»</text>
<text text-anchor="start" x="3404" y="-337.8" font-family="Times,serif" font-weight="bold" font-size="14.00">NodeVisitor</text>
<polygon fill="none" stroke="black" points="3272,-325 3272,-331 3630,-331 3630,-325 3272,-325"/>
<polygon fill="none" stroke="black" points="3272,-243 3272,-325 3630,-325 3630,-243 3272,-243"/>
<text text-anchor="start" x="3277" y="-308.8" font-family="Times,serif" font-size="14.00">+ «abstract» beforeTraverse(nodes : array)</text>
<text text-anchor="start" x="3277" y="-289.8" font-family="Times,serif" font-size="14.00">+ «abstract» enterNode(node : PhpParser\Node)</text>
<text text-anchor="start" x="3277" y="-270.8" font-family="Times,serif" font-size="14.00">+ «abstract» leaveNode(node : PhpParser\Node)</text>
<text text-anchor="start" x="3277" y="-251.8" font-family="Times,serif" font-size="14.00">+ «abstract» afterTraverse(nodes : array)</text>
</g>
<!-- Bartlett\\CompatInfo\\Application\\Analyser\\SniffAnalyserInterface&#45;&gt;PhpParser\\NodeVisitor -->
<g id="edge3" class="edge">
<title>Bartlett\\CompatInfo\\Application\\Analyser\\SniffAnalyserInterface&#45;&gt;PhpParser\\NodeVisitor</title>
<path fill="none" stroke="black" stroke-dasharray="5,2" d="M2931.56,-436.32C3062.83,-428.18 3189.67,-416.48 3252,-400 3276.78,-393.45 3302.21,-383.83 3326.25,-373.19"/>
<polygon fill="none" stroke="black" points="3327.72,-376.37 3335.39,-369.07 3324.84,-369.99 3327.72,-376.37"/>
</g>
<!-- Bartlett\\CompatInfo\\Application\\Analyser\\AnalyserInterface -->
<g id="node4" class="node">
<title>Bartlett\\CompatInfo\\Application\\Analyser\\AnalyserInterface</title>
<polygon fill="#fefece" stroke="transparent" points="2813,-203 2213,-203 2213,-16 2813,-16 2813,-203"/>
<polygon fill="#eeeeee" stroke="transparent" points="2221,-164.5 2221,-198.5 2805,-198.5 2805,-164.5 2221,-164.5"/>
<polygon fill="none" stroke="black" points="2221,-164.5 2221,-198.5 2805,-198.5 2805,-164.5 2221,-164.5"/>
<text text-anchor="start" x="2468" y="-185.3" font-family="Times,serif" font-weight="bold" font-size="14.00">«interface»</text>
<text text-anchor="start" x="2442" y="-171.3" font-family="Times,serif" font-weight="bold" font-size="14.00">AnalyserInterface</text>
<polygon fill="none" stroke="black" points="2221,-158.5 2221,-164.5 2805,-164.5 2805,-158.5 2221,-158.5"/>
<polygon fill="none" stroke="black" points="2221,-19.5 2221,-158.5 2805,-158.5 2805,-19.5 2221,-19.5"/>
<text text-anchor="start" x="2226" y="-142.3" font-family="Times,serif" font-size="14.00">+ «abstract» getCurrentFile() : Symfony\Component\Finder\SplFileInfo</text>
<text text-anchor="start" x="2226" y="-123.3" font-family="Times,serif" font-size="14.00">+ «abstract» getTokens() : array</text>
<text text-anchor="start" x="2226" y="-104.3" font-family="Times,serif" font-size="14.00">+ «abstract» setTokens(tokens : array) : void</text>
<text text-anchor="start" x="2226" y="-85.3" font-family="Times,serif" font-size="14.00">+ «abstract» setCurrentFile(file : Symfony\Component\Finder\SplFileInfo) : void</text>
<text text-anchor="start" x="2226" y="-66.3" font-family="Times,serif" font-size="14.00">+ «abstract» getName() : string</text>
<text text-anchor="start" x="2226" y="-47.3" font-family="Times,serif" font-size="14.00">+ «abstract» getNamespace() : string</text>
<text text-anchor="start" x="2226" y="-28.3" font-family="Times,serif" font-size="14.00">+ «abstract» getShortName() : string</text>
</g>
<!-- Bartlett\\CompatInfo\\Application\\Analyser\\SniffVisitorInterface&#45;&gt;Bartlett\\CompatInfo\\Application\\Analyser\\AnalyserInterface -->
<g id="edge1" class="edge">
<title>Bartlett\\CompatInfo\\Application\\Analyser\\SniffVisitorInterface&#45;&gt;Bartlett\\CompatInfo\\Application\\Analyser\\AnalyserInterface</title>
<path fill="none" stroke="black" stroke-dasharray="5,2" d="M2513,-257.87C2513,-244.38 2513,-229 2513,-213.38"/>
<polygon fill="none" stroke="black" points="2516.5,-213.11 2513,-203.11 2509.5,-213.11 2516.5,-213.11"/>
</g>
<!-- Bartlett\\CompatInfo\\Application\\Analyser\\CompatibilityAnalyser -->
<g id="node5" class="node">
<title>Bartlett\\CompatInfo\\Application\\Analyser\\CompatibilityAnalyser</title>
<polygon fill="#fefece" stroke="transparent" points="3239.5,-1180 16.5,-1180 16.5,-797 3239.5,-797 3239.5,-1180"/>
<polygon fill="#eeeeee" stroke="transparent" points="25,-1141.5 25,-1175.5 3232,-1175.5 3232,-1141.5 25,-1141.5"/>
<polygon fill="none" stroke="black" points="25,-1141.5 25,-1175.5 3232,-1175.5 3232,-1141.5 25,-1141.5"/>
<text text-anchor="start" x="1541" y="-1148.3" font-family="Times,serif" font-weight="bold" font-size="14.00">CompatibilityAnalyser</text>
<polygon fill="none" stroke="black" points="25,-1059.5 25,-1141.5 3232,-1141.5 3232,-1059.5 25,-1059.5"/>
<text text-anchor="start" x="30" y="-1125.3" font-family="Times,serif" font-size="14.00">+ «static» ANALYSER_NODE_ATTRIBUTE : string = &quot;bartlett\.data_collector&quot; {readOnly}</text>
<text text-anchor="start" x="30" y="-1106.3" font-family="Times,serif" font-size="14.00">+ «static» PARENT_NODE_ATTRIBUTE : string = &quot;bartlett\.parent&quot; {readOnly}</text>
<text text-anchor="start" x="30" y="-1087.3" font-family="Times,serif" font-size="14.00">+ «static» NAMESPACED_NAME_NODE_ATTRIBUTE : string = &quot;bartlett\.name&quot; {readOnly}</text>
<text text-anchor="start" x="30" y="-1068.3" font-family="Times,serif" font-size="14.00">+ «static» COLLECTOR_NAME : string = &quot;Bartlett\CompatInfo\Application\Analyser\CompatibilityAnalyser&quot; {readOnly}</text>
<polygon fill="none" stroke="black" points="25,-1053.5 25,-1059.5 3232,-1059.5 3232,-1053.5 25,-1053.5"/>
<polygon fill="none" stroke="black" points="25,-800.5 25,-1053.5 3232,-1053.5 3232,-800.5 25,-800.5"/>
<text text-anchor="start" x="30" y="-1037.3" font-family="Times,serif" font-size="14.00">+ __construct(profiler : Bartlett\CompatInfo\Application\Profiler\ProfilerInterface, sniffCollection : Bartlett\CompatInfo\Application\Collection\SniffCollectionInterface, referenceCollection : Bartlett\CompatInfo\Application\Collection\ReferenceCollectionInterface, polyfillCollection : Bartlett\CompatInfo\Application\Collection\PolyfillCollectionInterface, compatibilityEventDispatcher : Symfony\Component\EventDispatcher\EventDispatcherInterface)</text>
<text text-anchor="start" x="30" y="-1018.3" font-family="Times,serif" font-size="14.00">+ getCurrentFile() : Symfony\Component\Finder\SplFileInfo</text>
<text text-anchor="start" x="30" y="-999.3" font-family="Times,serif" font-size="14.00">+ getTokens() : array</text>
<text text-anchor="start" x="30" y="-980.3" font-family="Times,serif" font-size="14.00">+ setTokens(tokens : array) : void</text>
<text text-anchor="start" x="30" y="-961.3" font-family="Times,serif" font-size="14.00">+ setCurrentFile(file : Symfony\Component\Finder\SplFileInfo) : void</text>
<text text-anchor="start" x="30" y="-942.3" font-family="Times,serif" font-size="14.00">+ getName() : string</text>
<text text-anchor="start" x="30" y="-923.3" font-family="Times,serif" font-size="14.00">+ getNamespace() : string</text>
<text text-anchor="start" x="30" y="-904.3" font-family="Times,serif" font-size="14.00">+ getShortName() : string</text>
<text text-anchor="start" x="30" y="-885.3" font-family="Times,serif" font-size="14.00">+ beforeTraverse(nodes : array) : ?array</text>
<text text-anchor="start" x="30" y="-866.3" font-family="Times,serif" font-size="14.00">+ afterTraverse(nodes : array) : ?array</text>
<text text-anchor="start" x="30" y="-847.3" font-family="Times,serif" font-size="14.00">+ getData() : array</text>
<text text-anchor="start" x="30" y="-828.3" font-family="Times,serif" font-size="14.00">+ enterNode(node : PhpParser\Node)</text>
<text text-anchor="start" x="30" y="-809.3" font-family="Times,serif" font-size="14.00">+ leaveNode(node : PhpParser\Node)</text>
</g>
<!-- Bartlett\\CompatInfo\\Application\\Analyser\\CompatibilityAnalyser&#45;&gt;Bartlett\\CompatInfo\\Application\\Analyser\\AbstractSniffAnalyser -->
<g id="edge5" class="edge">
<title>Bartlett\\CompatInfo\\Application\\Analyser\\CompatibilityAnalyser&#45;&gt;Bartlett\\CompatInfo\\Application\\Analyser\\AbstractSniffAnalyser</title>
<path fill="none" stroke="black" d="M1791.08,-796.77C1799.18,-787.29 1807.21,-777.91 1815.05,-768.74"/>
<polygon fill="none" stroke="black" points="1817.75,-770.97 1821.59,-761.09 1812.43,-766.42 1817.75,-770.97"/>
</g>
</g>
</svg>
