<?xml version="1.0" encoding="UTF-8" standalone="no"?>
<!DOCTYPE svg PUBLIC "-//W3C//DTD SVG 1.1//EN"
 "http://www.w3.org/Graphics/SVG/1.1/DTD/svg11.dtd">
<!-- Generated by graphviz version 2.43.0 (0)
 -->
<!-- Title: %3 Pages: 1 -->
<svg width="4659pt" height="1677pt"
 viewBox="0.00 0.00 4659.00 1677.00" xmlns="http://www.w3.org/2000/svg" xmlns:xlink="http://www.w3.org/1999/xlink">
<g id="graph0" class="graph" transform="scale(1 1) rotate(0) translate(4 1673)">
<title>%3</title>
<g id="clust1" class="cluster">
<title>cluster_0</title>
<polygon fill="#cdaa7d" stroke="black" points="0,-1341 0,-1545 413,-1545 413,-1341 0,-1341"/>
<text text-anchor="middle" x="206.5" y="-1529.8" font-family="Times,serif" font-size="14.00">Bartlett\CompatInfo\Application\PhpParser\Node\Name</text>
</g>
<g id="clust2" class="cluster">
<title>cluster_1</title>
<polygon fill="transparent" stroke="black" points="803,-1340 803,-1547 1028,-1547 1028,-1340 803,-1340"/>
<text text-anchor="middle" x="915.5" y="-1531.8" font-family="Times,serif" font-size="14.00">PhpParser\Node\Name</text>
</g>
<g id="clust3" class="cluster">
<title>cluster_2</title>
<polygon fill="transparent" stroke="black" points="2217,-1226 2217,-1661 2776,-1661 2776,-1226 2217,-1226"/>
<text text-anchor="middle" x="2496.5" y="-1645.8" font-family="Times,serif" font-size="14.00">PhpParser\Node</text>
</g>
<g id="clust4" class="cluster">
<title>cluster_3</title>
<polygon fill="transparent" stroke="black" points="3595,-701 3595,-1376 4643,-1376 4643,-701 3595,-701"/>
<text text-anchor="middle" x="4119" y="-1360.8" font-family="Times,serif" font-size="14.00">PhpParser</text>
</g>
<g id="clust5" class="cluster">
<title>cluster_4</title>
<polygon fill="transparent" stroke="black" points="4226.5,-1384 4226.5,-1588 4505.5,-1588 4505.5,-1384 4226.5,-1384"/>
<text text-anchor="middle" x="4366" y="-1572.8" font-family="Times,serif" font-size="14.00">0</text>
</g>
<g id="clust6" class="cluster">
<title>cluster_5</title>
<polygon fill="#cdaa7d" stroke="black" points="433,-8 433,-507 2789.5,-507 2789.5,-8 433,-8"/>
<text text-anchor="middle" x="1611.25" y="-491.8" font-family="Times,serif" font-size="14.00">Bartlett\CompatInfo\Application\PhpParser\NodeVisitor</text>
</g>
<g id="clust7" class="cluster">
<title>cluster_6</title>
<polygon fill="transparent" stroke="black" points="2156,-515 2156,-832 2837,-832 2837,-515 2156,-515"/>
<text text-anchor="middle" x="2496.5" y="-816.8" font-family="Times,serif" font-size="14.00">PhpParser\NodeVisitor</text>
</g>
<g id="clust8" class="cluster">
<title>cluster_7</title>
<polygon fill="#cdaa7d" stroke="black" points="1418,-908 1418,-1169 3575,-1169 3575,-908 1418,-908"/>
<text text-anchor="middle" x="2496.5" y="-1153.8" font-family="Times,serif" font-size="14.00">Bartlett\CompatInfo\Application\PhpParser</text>
</g>
<!-- Bartlett\\CompatInfo\\Application\\PhpParser\\Node\\Name\\ClassFullyQualified -->
<g id="node1" class="node">
<title>Bartlett\\CompatInfo\\Application\\PhpParser\\Node\\Name\\ClassFullyQualified</title>
<polygon fill="#fefece" stroke="transparent" points="293.5,-1513.5 118.5,-1513.5 118.5,-1440.5 293.5,-1440.5 293.5,-1513.5"/>
<polygon fill="#eeeeee" stroke="transparent" points="127,-1475 127,-1509 286,-1509 286,-1475 127,-1475"/>
<polygon fill="none" stroke="black" points="127,-1475 127,-1509 286,-1509 286,-1475 127,-1475"/>
<text text-anchor="start" x="130" y="-1481.8" font-family="Times,serif" font-weight="bold" font-size="14.00">ClassFullyQualified</text>
<polygon fill="none" stroke="black" points="127,-1469 127,-1475 286,-1475 286,-1469 127,-1469"/>
<polygon fill="none" stroke="black" points="127,-1444 127,-1469 286,-1469 286,-1444 127,-1444"/>
<text text-anchor="start" x="132" y="-1452.8" font-family="Times,serif" font-size="14.00">+ getType() : string</text>
</g>
<!-- PhpParser\\Node\\Name\\FullyQualified -->
<g id="node3" class="node">
<title>PhpParser\\Node\\Name\\FullyQualified</title>
<polygon fill="#fefece" stroke="transparent" points="1020,-1516 811,-1516 811,-1348 1020,-1348 1020,-1516"/>
<polygon fill="#eeeeee" stroke="transparent" points="819.5,-1478 819.5,-1512 1012.5,-1512 1012.5,-1478 819.5,-1478"/>
<polygon fill="none" stroke="black" points="819.5,-1478 819.5,-1512 1012.5,-1512 1012.5,-1478 819.5,-1478"/>
<text text-anchor="start" x="860.5" y="-1484.8" font-family="Times,serif" font-weight="bold" font-size="14.00">FullyQualified</text>
<polygon fill="none" stroke="black" points="819.5,-1472 819.5,-1478 1012.5,-1478 1012.5,-1472 819.5,-1472"/>
<polygon fill="none" stroke="black" points="819.5,-1352 819.5,-1472 1012.5,-1472 1012.5,-1352 819.5,-1352"/>
<text text-anchor="start" x="824.5" y="-1455.8" font-family="Times,serif" font-size="14.00">+ isUnqualified() : bool</text>
<text text-anchor="start" x="824.5" y="-1436.8" font-family="Times,serif" font-size="14.00">+ isQualified() : bool</text>
<text text-anchor="start" x="824.5" y="-1417.8" font-family="Times,serif" font-size="14.00">+ isFullyQualified() : bool</text>
<text text-anchor="start" x="824.5" y="-1398.8" font-family="Times,serif" font-size="14.00">+ isRelative() : bool</text>
<text text-anchor="start" x="824.5" y="-1379.8" font-family="Times,serif" font-size="14.00">+ toCodeString() : string</text>
<text text-anchor="start" x="824.5" y="-1360.8" font-family="Times,serif" font-size="14.00">+ getType() : string</text>
</g>
<!-- Bartlett\\CompatInfo\\Application\\PhpParser\\Node\\Name\\ClassFullyQualified&#45;&gt;PhpParser\\Node\\Name\\FullyQualified -->
<g id="edge6" class="edge">
<title>Bartlett\\CompatInfo\\Application\\PhpParser\\Node\\Name\\ClassFullyQualified&#45;&gt;PhpParser\\Node\\Name\\FullyQualified</title>
<path fill="none" stroke="black" d="M293.75,-1471.48C421.31,-1463.37 659.61,-1448.21 800.95,-1439.22"/>
<polygon fill="none" stroke="black" points="801.2,-1442.71 810.96,-1438.59 800.76,-1435.73 801.2,-1442.71"/>
</g>
<!-- Bartlett\\CompatInfo\\Application\\PhpParser\\Node\\Name\\InterfaceFullyQualified -->
<g id="node2" class="node">
<title>Bartlett\\CompatInfo\\Application\\PhpParser\\Node\\Name\\InterfaceFullyQualified</title>
<polygon fill="#fefece" stroke="transparent" points="309,-1422.5 103,-1422.5 103,-1349.5 309,-1349.5 309,-1422.5"/>
<polygon fill="#eeeeee" stroke="transparent" points="111,-1384 111,-1418 301,-1418 301,-1384 111,-1384"/>
<polygon fill="none" stroke="black" points="111,-1384 111,-1418 301,-1418 301,-1384 111,-1384"/>
<text text-anchor="start" x="114" y="-1390.8" font-family="Times,serif" font-weight="bold" font-size="14.00">InterfaceFullyQualified</text>
<polygon fill="none" stroke="black" points="111,-1378 111,-1384 301,-1384 301,-1378 111,-1378"/>
<polygon fill="none" stroke="black" points="111,-1353 111,-1378 301,-1378 301,-1353 111,-1353"/>
<text text-anchor="start" x="116" y="-1361.8" font-family="Times,serif" font-size="14.00">+ getType() : string</text>
</g>
<!-- Bartlett\\CompatInfo\\Application\\PhpParser\\Node\\Name\\InterfaceFullyQualified&#45;&gt;PhpParser\\Node\\Name\\FullyQualified -->
<g id="edge7" class="edge">
<title>Bartlett\\CompatInfo\\Application\\PhpParser\\Node\\Name\\InterfaceFullyQualified&#45;&gt;PhpParser\\Node\\Name\\FullyQualified</title>
<path fill="none" stroke="black" d="M309.12,-1392.64C439.69,-1401.13 665.1,-1415.78 800.94,-1424.62"/>
<polygon fill="none" stroke="black" points="800.77,-1428.11 810.97,-1425.27 801.22,-1421.13 800.77,-1428.11"/>
</g>
<!-- PhpParser\\Node\\Name -->
<g id="node4" class="node">
<title>PhpParser\\Node\\Name</title>
<polygon fill="#fefece" stroke="transparent" points="2768,-1630 2225,-1630 2225,-1234 2768,-1234 2768,-1630"/>
<polygon fill="#eeeeee" stroke="transparent" points="2233.5,-1592 2233.5,-1626 2760.5,-1626 2760.5,-1592 2233.5,-1592"/>
<polygon fill="none" stroke="black" points="2233.5,-1592 2233.5,-1626 2760.5,-1626 2760.5,-1592 2233.5,-1592"/>
<text text-anchor="start" x="2474" y="-1598.8" font-family="Times,serif" font-weight="bold" font-size="14.00">Name</text>
<polygon fill="none" stroke="black" points="2233.5,-1567 2233.5,-1592 2760.5,-1592 2760.5,-1567 2233.5,-1567"/>
<text text-anchor="start" x="2238.5" y="-1575.8" font-family="Times,serif" font-size="14.00">+ parts : mixed</text>
<polygon fill="none" stroke="black" points="2233.5,-1238 2233.5,-1567 2760.5,-1567 2760.5,-1238 2233.5,-1238"/>
<text text-anchor="start" x="2238.5" y="-1550.8" font-family="Times,serif" font-size="14.00">+ __construct(name : mixed, attributes : array = [])</text>
<text text-anchor="start" x="2238.5" y="-1531.8" font-family="Times,serif" font-size="14.00">+ getSubNodeNames() : array</text>
<text text-anchor="start" x="2238.5" y="-1512.8" font-family="Times,serif" font-size="14.00">+ getParts() : array</text>
<text text-anchor="start" x="2238.5" y="-1493.8" font-family="Times,serif" font-size="14.00">+ getFirst() : string</text>
<text text-anchor="start" x="2238.5" y="-1474.8" font-family="Times,serif" font-size="14.00">+ getLast() : string</text>
<text text-anchor="start" x="2238.5" y="-1455.8" font-family="Times,serif" font-size="14.00">+ isUnqualified() : bool</text>
<text text-anchor="start" x="2238.5" y="-1436.8" font-family="Times,serif" font-size="14.00">+ isQualified() : bool</text>
<text text-anchor="start" x="2238.5" y="-1417.8" font-family="Times,serif" font-size="14.00">+ isFullyQualified() : bool</text>
<text text-anchor="start" x="2238.5" y="-1398.8" font-family="Times,serif" font-size="14.00">+ isRelative() : bool</text>
<text text-anchor="start" x="2238.5" y="-1379.8" font-family="Times,serif" font-size="14.00">+ toString() : string</text>
<text text-anchor="start" x="2238.5" y="-1360.8" font-family="Times,serif" font-size="14.00">+ toCodeString() : string</text>
<text text-anchor="start" x="2238.5" y="-1341.8" font-family="Times,serif" font-size="14.00">+ toLowerString() : string</text>
<text text-anchor="start" x="2238.5" y="-1322.8" font-family="Times,serif" font-size="14.00">+ isSpecialClassName() : bool</text>
<text text-anchor="start" x="2238.5" y="-1303.8" font-family="Times,serif" font-size="14.00">+ __toString() : string</text>
<text text-anchor="start" x="2238.5" y="-1284.8" font-family="Times,serif" font-size="14.00">+ slice(offset : int, length : int = «unknown»)</text>
<text text-anchor="start" x="2238.5" y="-1265.8" font-family="Times,serif" font-size="14.00">+ «static» concat(name1 : mixed, name2 : mixed, attributes : array = [])</text>
<text text-anchor="start" x="2238.5" y="-1246.8" font-family="Times,serif" font-size="14.00">+ getType() : string</text>
</g>
<!-- PhpParser\\Node\\Name\\FullyQualified&#45;&gt;PhpParser\\Node\\Name -->
<g id="edge5" class="edge">
<title>PhpParser\\Node\\Name\\FullyQualified&#45;&gt;PhpParser\\Node\\Name</title>
<path fill="none" stroke="black" d="M1020.1,-1432C1259.48,-1432 1857.73,-1432 2214.59,-1432"/>
<polygon fill="none" stroke="black" points="2214.82,-1435.5 2224.82,-1432 2214.82,-1428.5 2214.82,-1435.5"/>
</g>
<!-- PhpParser\\NodeAbstract -->
<g id="node5" class="node">
<title>PhpParser\\NodeAbstract</title>
<polygon fill="#fefece" stroke="transparent" points="4061,-1344.5 3603,-1344.5 3603,-967.5 4061,-967.5 4061,-1344.5"/>
<polygon fill="#eeeeee" stroke="transparent" points="3611,-1306 3611,-1340 4053,-1340 4053,-1306 3611,-1306"/>
<polygon fill="none" stroke="black" points="3611,-1306 3611,-1340 4053,-1340 4053,-1306 3611,-1306"/>
<text text-anchor="start" x="3790" y="-1326.8" font-family="Times,serif" font-weight="bold" font-size="14.00">«abstract»</text>
<text text-anchor="start" x="3778" y="-1312.8" font-family="Times,serif" font-weight="bold" font-size="14.00">NodeAbstract</text>
<polygon fill="none" stroke="black" points="3611,-1300 3611,-1306 4053,-1306 4053,-1300 3611,-1300"/>
<polygon fill="none" stroke="black" points="3611,-971 3611,-1300 4053,-1300 4053,-971 3611,-971"/>
<text text-anchor="start" x="3616" y="-1283.8" font-family="Times,serif" font-size="14.00">+ __construct(attributes : array = [])</text>
<text text-anchor="start" x="3616" y="-1264.8" font-family="Times,serif" font-size="14.00">+ getLine() : int</text>
<text text-anchor="start" x="3616" y="-1245.8" font-family="Times,serif" font-size="14.00">+ getStartLine() : int</text>
<text text-anchor="start" x="3616" y="-1226.8" font-family="Times,serif" font-size="14.00">+ getEndLine() : int</text>
<text text-anchor="start" x="3616" y="-1207.8" font-family="Times,serif" font-size="14.00">+ getStartTokenPos() : int</text>
<text text-anchor="start" x="3616" y="-1188.8" font-family="Times,serif" font-size="14.00">+ getEndTokenPos() : int</text>
<text text-anchor="start" x="3616" y="-1169.8" font-family="Times,serif" font-size="14.00">+ getStartFilePos() : int</text>
<text text-anchor="start" x="3616" y="-1150.8" font-family="Times,serif" font-size="14.00">+ getEndFilePos() : int</text>
<text text-anchor="start" x="3616" y="-1131.8" font-family="Times,serif" font-size="14.00">+ getComments() : array</text>
<text text-anchor="start" x="3616" y="-1112.8" font-family="Times,serif" font-size="14.00">+ getDocComment()</text>
<text text-anchor="start" x="3616" y="-1093.8" font-family="Times,serif" font-size="14.00">+ setDocComment(docComment : PhpParser\Comment\Doc)</text>
<text text-anchor="start" x="3616" y="-1074.8" font-family="Times,serif" font-size="14.00">+ setAttribute(key : string, value)</text>
<text text-anchor="start" x="3616" y="-1055.8" font-family="Times,serif" font-size="14.00">+ hasAttribute(key : string) : bool</text>
<text text-anchor="start" x="3616" y="-1036.8" font-family="Times,serif" font-size="14.00">+ getAttribute(key : string, default = «unknown»)</text>
<text text-anchor="start" x="3616" y="-1017.8" font-family="Times,serif" font-size="14.00">+ getAttributes() : array</text>
<text text-anchor="start" x="3616" y="-998.8" font-family="Times,serif" font-size="14.00">+ setAttributes(attributes : array)</text>
<text text-anchor="start" x="3616" y="-979.8" font-family="Times,serif" font-size="14.00">+ jsonSerialize() : array</text>
</g>
<!-- PhpParser\\Node\\Name&#45;&gt;PhpParser\\NodeAbstract -->
<g id="edge3" class="edge">
<title>PhpParser\\Node\\Name&#45;&gt;PhpParser\\NodeAbstract</title>
<path fill="none" stroke="black" d="M2768.16,-1375.98C3010.19,-1325.89 3361.47,-1253.18 3592.98,-1205.26"/>
<polygon fill="none" stroke="black" points="3593.8,-1208.67 3602.88,-1203.21 3592.38,-1201.81 3593.8,-1208.67"/>
</g>
<!-- Stringable -->
<g id="node11" class="node">
<title>Stringable</title>
<polygon fill="#fefece" stroke="transparent" points="4497.5,-1556.5 4234.5,-1556.5 4234.5,-1483.5 4497.5,-1483.5 4497.5,-1556.5"/>
<polygon fill="#eeeeee" stroke="transparent" points="4243,-1518 4243,-1552 4490,-1552 4490,-1518 4243,-1518"/>
<polygon fill="none" stroke="black" points="4243,-1518 4243,-1552 4490,-1552 4490,-1518 4243,-1518"/>
<text text-anchor="start" x="4321.5" y="-1538.8" font-family="Times,serif" font-weight="bold" font-size="14.00">«interface»</text>
<text text-anchor="start" x="4325" y="-1524.8" font-family="Times,serif" font-weight="bold" font-size="14.00">Stringable</text>
<polygon fill="none" stroke="black" points="4243,-1512 4243,-1518 4490,-1518 4490,-1512 4243,-1512"/>
<polygon fill="none" stroke="black" points="4243,-1487 4243,-1512 4490,-1512 4490,-1487 4243,-1487"/>
<text text-anchor="start" x="4248" y="-1495.8" font-family="Times,serif" font-size="14.00">+ «abstract» __toString() : string</text>
</g>
<!-- PhpParser\\Node\\Name&#45;&gt;Stringable -->
<g id="edge4" class="edge">
<title>PhpParser\\Node\\Name&#45;&gt;Stringable</title>
<path fill="none" stroke="black" stroke-dasharray="5,2" d="M2768.05,-1444.75C3170.98,-1463.74 3914.42,-1498.77 4223.98,-1513.35"/>
<polygon fill="none" stroke="black" points="4224.2,-1516.87 4234.36,-1513.84 4224.53,-1509.88 4224.2,-1516.87"/>
</g>
<!-- PhpParser\\Node -->
<g id="node6" class="node">
<title>PhpParser\\Node</title>
<polygon fill="#fefece" stroke="transparent" points="4635,-1344.5 4097,-1344.5 4097,-967.5 4635,-967.5 4635,-1344.5"/>
<polygon fill="#eeeeee" stroke="transparent" points="4105,-1306 4105,-1340 4627,-1340 4627,-1306 4105,-1306"/>
<polygon fill="none" stroke="black" points="4105,-1306 4105,-1340 4627,-1340 4627,-1306 4105,-1306"/>
<text text-anchor="start" x="4321" y="-1326.8" font-family="Times,serif" font-weight="bold" font-size="14.00">«interface»</text>
<text text-anchor="start" x="4345.5" y="-1312.8" font-family="Times,serif" font-weight="bold" font-size="14.00">Node</text>
<polygon fill="none" stroke="black" points="4105,-1300 4105,-1306 4627,-1306 4627,-1300 4105,-1300"/>
<polygon fill="none" stroke="black" points="4105,-971 4105,-1300 4627,-1300 4627,-971 4105,-971"/>
<text text-anchor="start" x="4110" y="-1283.8" font-family="Times,serif" font-size="14.00">+ «abstract» getType() : string</text>
<text text-anchor="start" x="4110" y="-1264.8" font-family="Times,serif" font-size="14.00">+ «abstract» getSubNodeNames() : array</text>
<text text-anchor="start" x="4110" y="-1245.8" font-family="Times,serif" font-size="14.00">+ «abstract» getLine() : int</text>
<text text-anchor="start" x="4110" y="-1226.8" font-family="Times,serif" font-size="14.00">+ «abstract» getStartLine() : int</text>
<text text-anchor="start" x="4110" y="-1207.8" font-family="Times,serif" font-size="14.00">+ «abstract» getEndLine() : int</text>
<text text-anchor="start" x="4110" y="-1188.8" font-family="Times,serif" font-size="14.00">+ «abstract» getStartTokenPos() : int</text>
<text text-anchor="start" x="4110" y="-1169.8" font-family="Times,serif" font-size="14.00">+ «abstract» getEndTokenPos() : int</text>
<text text-anchor="start" x="4110" y="-1150.8" font-family="Times,serif" font-size="14.00">+ «abstract» getStartFilePos() : int</text>
<text text-anchor="start" x="4110" y="-1131.8" font-family="Times,serif" font-size="14.00">+ «abstract» getEndFilePos() : int</text>
<text text-anchor="start" x="4110" y="-1112.8" font-family="Times,serif" font-size="14.00">+ «abstract» getComments() : array</text>
<text text-anchor="start" x="4110" y="-1093.8" font-family="Times,serif" font-size="14.00">+ «abstract» getDocComment()</text>
<text text-anchor="start" x="4110" y="-1074.8" font-family="Times,serif" font-size="14.00">+ «abstract» setDocComment(docComment : PhpParser\Comment\Doc)</text>
<text text-anchor="start" x="4110" y="-1055.8" font-family="Times,serif" font-size="14.00">+ «abstract» setAttribute(key : string, value : mixed)</text>
<text text-anchor="start" x="4110" y="-1036.8" font-family="Times,serif" font-size="14.00">+ «abstract» hasAttribute(key : string) : bool</text>
<text text-anchor="start" x="4110" y="-1017.8" font-family="Times,serif" font-size="14.00">+ «abstract» getAttribute(key : string, default : mixed = «unknown»)</text>
<text text-anchor="start" x="4110" y="-998.8" font-family="Times,serif" font-size="14.00">+ «abstract» getAttributes() : array</text>
<text text-anchor="start" x="4110" y="-979.8" font-family="Times,serif" font-size="14.00">+ «abstract» setAttributes(attributes : array)</text>
</g>
<!-- PhpParser\\NodeAbstract&#45;&gt;PhpParser\\Node -->
<g id="edge1" class="edge">
<title>PhpParser\\NodeAbstract&#45;&gt;PhpParser\\Node</title>
<path fill="none" stroke="black" stroke-dasharray="5,2" d="M4061.32,-1156C4069.63,-1156 4078,-1156 4086.38,-1156"/>
<polygon fill="none" stroke="black" points="4086.61,-1159.5 4096.61,-1156 4086.61,-1152.5 4086.61,-1159.5"/>
</g>
<!-- JsonSerializable -->
<g id="node10" class="node">
<title>JsonSerializable</title>
<polygon fill="#fefece" stroke="transparent" points="4478.5,-1465.5 4253.5,-1465.5 4253.5,-1392.5 4478.5,-1392.5 4478.5,-1465.5"/>
<polygon fill="#eeeeee" stroke="transparent" points="4262,-1427 4262,-1461 4471,-1461 4471,-1427 4262,-1427"/>
<polygon fill="none" stroke="black" points="4262,-1427 4262,-1461 4471,-1461 4471,-1427 4262,-1427"/>
<text text-anchor="start" x="4321.5" y="-1447.8" font-family="Times,serif" font-weight="bold" font-size="14.00">«interface»</text>
<text text-anchor="start" x="4303" y="-1433.8" font-family="Times,serif" font-weight="bold" font-size="14.00">JsonSerializable</text>
<polygon fill="none" stroke="black" points="4262,-1421 4262,-1427 4471,-1427 4471,-1421 4262,-1421"/>
<polygon fill="none" stroke="black" points="4262,-1396 4262,-1421 4471,-1421 4471,-1396 4262,-1396"/>
<text text-anchor="start" x="4267" y="-1404.8" font-family="Times,serif" font-size="14.00">+ «abstract» jsonSerialize()</text>
</g>
<!-- PhpParser\\NodeAbstract&#45;&gt;JsonSerializable -->
<g id="edge2" class="edge">
<title>PhpParser\\NodeAbstract&#45;&gt;JsonSerializable</title>
<path fill="none" stroke="black" stroke-dasharray="5,2" d="M4035.2,-1344.62C4055.22,-1357.95 4075.95,-1370.03 4097,-1380 4142.3,-1401.45 4196.01,-1413.54 4243.42,-1420.34"/>
<polygon fill="none" stroke="black" points="4243.05,-1423.82 4253.43,-1421.71 4244,-1416.88 4243.05,-1423.82"/>
</g>
<!-- PhpParser\\NodeVisitorAbstract -->
<g id="node7" class="node">
<title>PhpParser\\NodeVisitorAbstract</title>
<polygon fill="#fefece" stroke="transparent" points="3979,-839 3685,-839 3685,-709 3979,-709 3979,-839"/>
<polygon fill="#eeeeee" stroke="transparent" points="3693,-801 3693,-835 3971,-835 3971,-801 3693,-801"/>
<polygon fill="none" stroke="black" points="3693,-801 3693,-835 3971,-835 3971,-801 3693,-801"/>
<text text-anchor="start" x="3752" y="-807.8" font-family="Times,serif" font-weight="bold" font-size="14.00">NodeVisitorAbstract</text>
<polygon fill="none" stroke="black" points="3693,-795 3693,-801 3971,-801 3971,-795 3693,-795"/>
<polygon fill="none" stroke="black" points="3693,-713 3693,-795 3971,-795 3971,-713 3693,-713"/>
<text text-anchor="start" x="3698" y="-778.8" font-family="Times,serif" font-size="14.00">+ beforeTraverse(nodes : array)</text>
<text text-anchor="start" x="3698" y="-759.8" font-family="Times,serif" font-size="14.00">+ enterNode(node : PhpParser\Node)</text>
<text text-anchor="start" x="3698" y="-740.8" font-family="Times,serif" font-size="14.00">+ leaveNode(node : PhpParser\Node)</text>
<text text-anchor="start" x="3698" y="-721.8" font-family="Times,serif" font-size="14.00">+ afterTraverse(nodes : array)</text>
</g>
<!-- PhpParser\\NodeVisitor -->
<g id="node8" class="node">
<title>PhpParser\\NodeVisitor</title>
<polygon fill="#fefece" stroke="transparent" points="4553,-839 4179,-839 4179,-709 4553,-709 4553,-839"/>
<polygon fill="#eeeeee" stroke="transparent" points="4187,-801 4187,-835 4545,-835 4545,-801 4187,-801"/>
<polygon fill="none" stroke="black" points="4187,-801 4187,-835 4545,-835 4545,-801 4187,-801"/>
<text text-anchor="start" x="4321" y="-821.8" font-family="Times,serif" font-weight="bold" font-size="14.00">«interface»</text>
<text text-anchor="start" x="4319" y="-807.8" font-family="Times,serif" font-weight="bold" font-size="14.00">NodeVisitor</text>
<polygon fill="none" stroke="black" points="4187,-795 4187,-801 4545,-801 4545,-795 4187,-795"/>
<polygon fill="none" stroke="black" points="4187,-713 4187,-795 4545,-795 4545,-713 4187,-713"/>
<text text-anchor="start" x="4192" y="-778.8" font-family="Times,serif" font-size="14.00">+ «abstract» beforeTraverse(nodes : array)</text>
<text text-anchor="start" x="4192" y="-759.8" font-family="Times,serif" font-size="14.00">+ «abstract» enterNode(node : PhpParser\Node)</text>
<text text-anchor="start" x="4192" y="-740.8" font-family="Times,serif" font-size="14.00">+ «abstract» leaveNode(node : PhpParser\Node)</text>
<text text-anchor="start" x="4192" y="-721.8" font-family="Times,serif" font-size="14.00">+ «abstract» afterTraverse(nodes : array)</text>
</g>
<!-- PhpParser\\NodeVisitorAbstract&#45;&gt;PhpParser\\NodeVisitor -->
<g id="edge8" class="edge">
<title>PhpParser\\NodeVisitorAbstract&#45;&gt;PhpParser\\NodeVisitor</title>
<path fill="none" stroke="black" stroke-dasharray="5,2" d="M3979.08,-774C4037.62,-774 4105.96,-774 4168.73,-774"/>
<polygon fill="none" stroke="black" points="4168.76,-777.5 4178.76,-774 4168.76,-770.5 4168.76,-777.5"/>
</g>
<!-- PhpParser\\NodeDumper -->
<g id="node9" class="node">
<title>PhpParser\\NodeDumper</title>
<polygon fill="#fefece" stroke="transparent" points="4053,-949 3611,-949 3611,-857 4053,-857 4053,-949"/>
<polygon fill="#eeeeee" stroke="transparent" points="3619,-911 3619,-945 4045,-945 4045,-911 3619,-911"/>
<polygon fill="none" stroke="black" points="3619,-911 3619,-945 4045,-945 4045,-911 3619,-911"/>
<text text-anchor="start" x="3779.5" y="-917.8" font-family="Times,serif" font-weight="bold" font-size="14.00">NodeDumper</text>
<polygon fill="none" stroke="black" points="3619,-905 3619,-911 4045,-911 4045,-905 3619,-905"/>
<polygon fill="none" stroke="black" points="3619,-861 3619,-905 4045,-905 4045,-861 3619,-861"/>
<text text-anchor="start" x="3624" y="-888.8" font-family="Times,serif" font-size="14.00">+ __construct(options : array = [])</text>
<text text-anchor="start" x="3624" y="-869.8" font-family="Times,serif" font-size="14.00">+ dump(node : mixed, code : string = «unknown») : string</text>
</g>
<!-- Bartlett\\CompatInfo\\Application\\PhpParser\\NodeVisitor\\FilterVisitor -->
<g id="node12" class="node">
<title>Bartlett\\CompatInfo\\Application\\PhpParser\\NodeVisitor\\FilterVisitor</title>
<polygon fill="#fefece" stroke="transparent" points="1329,-108 502,-108 502,-16 1329,-16 1329,-108"/>
<polygon fill="#eeeeee" stroke="transparent" points="510.5,-70 510.5,-104 1321.5,-104 1321.5,-70 510.5,-70"/>
<polygon fill="none" stroke="black" points="510.5,-70 510.5,-104 1321.5,-104 1321.5,-70 510.5,-70"/>
<text text-anchor="start" x="867.5" y="-76.8" font-family="Times,serif" font-weight="bold" font-size="14.00">FilterVisitor</text>
<polygon fill="none" stroke="black" points="510.5,-64 510.5,-70 1321.5,-70 1321.5,-64 510.5,-64"/>
<polygon fill="none" stroke="black" points="510.5,-20 510.5,-64 1321.5,-64 1321.5,-20 510.5,-20"/>
<text text-anchor="start" x="515.5" y="-47.8" font-family="Times,serif" font-size="14.00">+ __construct(normalizer : Symfony\Component\Serializer\Normalizer\NormalizerInterface, context : array = [])</text>
<text text-anchor="start" x="515.5" y="-28.8" font-family="Times,serif" font-size="14.00">+ getCollection() : Doctrine\Common\Collections\ArrayCollection</text>
</g>
<!-- Bartlett\\CompatInfo\\Application\\PhpParser\\NodeVisitor\\NodeVisitor -->
<g id="node13" class="node">
<title>Bartlett\\CompatInfo\\Application\\PhpParser\\NodeVisitor\\NodeVisitor</title>
<polygon fill="#fefece" stroke="transparent" points="2781.5,-262.5 2211.5,-262.5 2211.5,-189.5 2781.5,-189.5 2781.5,-262.5"/>
<polygon fill="#eeeeee" stroke="transparent" points="2219.5,-224 2219.5,-258 2773.5,-258 2773.5,-224 2219.5,-224"/>
<polygon fill="none" stroke="black" points="2219.5,-224 2219.5,-258 2773.5,-258 2773.5,-224 2219.5,-224"/>
<text text-anchor="start" x="2451.5" y="-244.8" font-family="Times,serif" font-weight="bold" font-size="14.00">«interface»</text>
<text text-anchor="start" x="2449.5" y="-230.8" font-family="Times,serif" font-weight="bold" font-size="14.00">NodeVisitor</text>
<polygon fill="none" stroke="black" points="2219.5,-218 2219.5,-224 2773.5,-224 2773.5,-218 2219.5,-218"/>
<polygon fill="none" stroke="black" points="2219.5,-193 2219.5,-218 2773.5,-218 2773.5,-193 2219.5,-193"/>
<text text-anchor="start" x="2224.5" y="-201.8" font-family="Times,serif" font-size="14.00">+ «abstract» getCollection() : Doctrine\Common\Collections\ArrayCollection</text>
</g>
<!-- Bartlett\\CompatInfo\\Application\\PhpParser\\NodeVisitor\\FilterVisitor&#45;&gt;Bartlett\\CompatInfo\\Application\\PhpParser\\NodeVisitor\\NodeVisitor -->
<g id="edge12" class="edge">
<title>Bartlett\\CompatInfo\\Application\\PhpParser\\NodeVisitor\\FilterVisitor&#45;&gt;Bartlett\\CompatInfo\\Application\\PhpParser\\NodeVisitor\\NodeVisitor</title>
<path fill="none" stroke="black" stroke-dasharray="5,2" d="M1329.04,-104.85C1602.8,-133.28 1955.58,-169.92 2201.16,-195.43"/>
<polygon fill="none" stroke="black" points="2201,-198.93 2211.31,-196.48 2201.73,-191.97 2201,-198.93"/>
</g>
<!-- PhpParser\\NodeVisitor\\FindingVisitor -->
<g id="node17" class="node">
<title>PhpParser\\NodeVisitor\\FindingVisitor</title>
<polygon fill="#fefece" stroke="transparent" points="2645.5,-653 2347.5,-653 2347.5,-523 2645.5,-523 2645.5,-653"/>
<polygon fill="#eeeeee" stroke="transparent" points="2355.5,-615 2355.5,-649 2637.5,-649 2637.5,-615 2355.5,-615"/>
<polygon fill="none" stroke="black" points="2355.5,-615 2355.5,-649 2637.5,-649 2637.5,-615 2355.5,-615"/>
<text text-anchor="start" x="2439.5" y="-621.8" font-family="Times,serif" font-weight="bold" font-size="14.00">FindingVisitor</text>
<polygon fill="none" stroke="black" points="2355.5,-609 2355.5,-615 2637.5,-615 2637.5,-609 2355.5,-609"/>
<polygon fill="none" stroke="black" points="2355.5,-527 2355.5,-609 2637.5,-609 2637.5,-527 2355.5,-527"/>
<text text-anchor="start" x="2360.5" y="-592.8" font-family="Times,serif" font-size="14.00">+ __construct(filterCallback : callable)</text>
<text text-anchor="start" x="2360.5" y="-573.8" font-family="Times,serif" font-size="14.00">+ getFoundNodes() : array</text>
<text text-anchor="start" x="2360.5" y="-554.8" font-family="Times,serif" font-size="14.00">+ beforeTraverse(nodes : array)</text>
<text text-anchor="start" x="2360.5" y="-535.8" font-family="Times,serif" font-size="14.00">+ enterNode(node : PhpParser\Node)</text>
</g>
<!-- Bartlett\\CompatInfo\\Application\\PhpParser\\NodeVisitor\\FilterVisitor&#45;&gt;PhpParser\\NodeVisitor\\FindingVisitor -->
<g id="edge10" class="edge">
<title>Bartlett\\CompatInfo\\Application\\PhpParser\\NodeVisitor\\FilterVisitor&#45;&gt;PhpParser\\NodeVisitor\\FindingVisitor</title>
<path fill="none" stroke="black" d="M1329.23,-71.52C1351.56,-83.36 1372.13,-98.31 1390,-117 1450.66,-180.44 1355.94,-448.92 1418,-511 1543.09,-636.14 2069.2,-618.64 2337.18,-600.78"/>
<polygon fill="none" stroke="black" points="2337.65,-604.26 2347.39,-600.09 2337.18,-597.27 2337.65,-604.26"/>
</g>
<!-- Bartlett\\CompatInfo\\Application\\PhpParser\\NodeVisitor\\NodeVisitor&#45;&gt;PhpParser\\NodeVisitor -->
<g id="edge11" class="edge">
<title>Bartlett\\CompatInfo\\Application\\PhpParser\\NodeVisitor\\NodeVisitor&#45;&gt;PhpParser\\NodeVisitor</title>
<path fill="none" stroke="black" stroke-dasharray="5,2" d="M2647.8,-262.58C2856.8,-314.18 3246.57,-413 3575,-511 3779.7,-572.08 4011.33,-650.28 4170.58,-705.49"/>
<polygon fill="none" stroke="black" points="4169.89,-708.95 4180.48,-708.92 4172.18,-702.34 4169.89,-708.95"/>
</g>
<!-- Bartlett\\CompatInfo\\Application\\PhpParser\\NodeVisitor\\NameResolverVisitor -->
<g id="node14" class="node">
<title>Bartlett\\CompatInfo\\Application\\PhpParser\\NodeVisitor\\NameResolverVisitor</title>
<polygon fill="#fefece" stroke="transparent" points="1248,-218 583,-218 583,-126 1248,-126 1248,-218"/>
<polygon fill="#eeeeee" stroke="transparent" points="591.5,-180 591.5,-214 1240.5,-214 1240.5,-180 591.5,-180"/>
<polygon fill="none" stroke="black" points="591.5,-180 591.5,-214 1240.5,-214 1240.5,-180 591.5,-180"/>
<text text-anchor="start" x="832.5" y="-186.8" font-family="Times,serif" font-weight="bold" font-size="14.00">NameResolverVisitor</text>
<polygon fill="none" stroke="black" points="591.5,-174 591.5,-180 1240.5,-180 1240.5,-174 591.5,-174"/>
<polygon fill="none" stroke="black" points="591.5,-130 591.5,-174 1240.5,-174 1240.5,-130 591.5,-130"/>
<text text-anchor="start" x="596.5" y="-157.8" font-family="Times,serif" font-size="14.00">+ __construct(errorHandler : PhpParser\ErrorHandler = «unknown», options : array = [])</text>
<text text-anchor="start" x="596.5" y="-138.8" font-family="Times,serif" font-size="14.00">+ enterNode(node : PhpParser\Node)</text>
</g>
<!-- PhpParser\\NodeVisitor\\NameResolver -->
<g id="node18" class="node">
<title>PhpParser\\NodeVisitor\\NameResolver</title>
<polygon fill="#fefece" stroke="transparent" points="2829,-801 2164,-801 2164,-671 2829,-671 2829,-801"/>
<polygon fill="#eeeeee" stroke="transparent" points="2172.5,-763 2172.5,-797 2821.5,-797 2821.5,-763 2172.5,-763"/>
<polygon fill="none" stroke="black" points="2172.5,-763 2172.5,-797 2821.5,-797 2821.5,-763 2172.5,-763"/>
<text text-anchor="start" x="2439.5" y="-769.8" font-family="Times,serif" font-weight="bold" font-size="14.00">NameResolver</text>
<polygon fill="none" stroke="black" points="2172.5,-757 2172.5,-763 2821.5,-763 2821.5,-757 2172.5,-757"/>
<polygon fill="none" stroke="black" points="2172.5,-675 2172.5,-757 2821.5,-757 2821.5,-675 2172.5,-675"/>
<text text-anchor="start" x="2177.5" y="-740.8" font-family="Times,serif" font-size="14.00">+ __construct(errorHandler : PhpParser\ErrorHandler = «unknown», options : array = [])</text>
<text text-anchor="start" x="2177.5" y="-721.8" font-family="Times,serif" font-size="14.00">+ getNameContext() : PhpParser\NameContext</text>
<text text-anchor="start" x="2177.5" y="-702.8" font-family="Times,serif" font-size="14.00">+ beforeTraverse(nodes : array)</text>
<text text-anchor="start" x="2177.5" y="-683.8" font-family="Times,serif" font-size="14.00">+ enterNode(node : PhpParser\Node)</text>
</g>
<!-- Bartlett\\CompatInfo\\Application\\PhpParser\\NodeVisitor\\NameResolverVisitor&#45;&gt;PhpParser\\NodeVisitor\\NameResolver -->
<g id="edge14" class="edge">
<title>Bartlett\\CompatInfo\\Application\\PhpParser\\NodeVisitor\\NameResolverVisitor&#45;&gt;PhpParser\\NodeVisitor\\NameResolver</title>
<path fill="none" stroke="black" d="M1248.14,-152.14C1301.75,-164.13 1352.03,-187.02 1390,-227 1456.71,-297.23 1349.65,-593.36 1418,-662 1628.58,-873.49 1993.84,-850.6 2240.03,-803.02"/>
<polygon fill="none" stroke="black" points="2241.06,-806.39 2250.2,-801.03 2239.71,-799.52 2241.06,-806.39"/>
</g>
<!-- Bartlett\\CompatInfo\\Application\\PhpParser\\NodeVisitor\\ParentContextVisitor -->
<g id="node15" class="node">
<title>Bartlett\\CompatInfo\\Application\\PhpParser\\NodeVisitor\\ParentContextVisitor</title>
<polygon fill="#fefece" stroke="transparent" points="1062.5,-476 768.5,-476 768.5,-346 1062.5,-346 1062.5,-476"/>
<polygon fill="#eeeeee" stroke="transparent" points="776.5,-438 776.5,-472 1054.5,-472 1054.5,-438 776.5,-438"/>
<polygon fill="none" stroke="black" points="776.5,-438 776.5,-472 1054.5,-472 1054.5,-438 776.5,-438"/>
<text text-anchor="start" x="831.5" y="-444.8" font-family="Times,serif" font-weight="bold" font-size="14.00">ParentContextVisitor</text>
<polygon fill="none" stroke="black" points="776.5,-432 776.5,-438 1054.5,-438 1054.5,-432 776.5,-432"/>
<polygon fill="none" stroke="black" points="776.5,-350 776.5,-432 1054.5,-432 1054.5,-350 776.5,-350"/>
<text text-anchor="start" x="781.5" y="-415.8" font-family="Times,serif" font-size="14.00">+ __construct(options : array = [])</text>
<text text-anchor="start" x="781.5" y="-396.8" font-family="Times,serif" font-size="14.00">+ beforeTraverse(nodes : array)</text>
<text text-anchor="start" x="781.5" y="-377.8" font-family="Times,serif" font-size="14.00">+ enterNode(node : PhpParser\Node)</text>
<text text-anchor="start" x="781.5" y="-358.8" font-family="Times,serif" font-size="14.00">+ leaveNode(node : PhpParser\Node)</text>
</g>
<!-- Bartlett\\CompatInfo\\Application\\PhpParser\\NodeVisitor\\ParentContextVisitor&#45;&gt;PhpParser\\NodeVisitorAbstract -->
<g id="edge15" class="edge">
<title>Bartlett\\CompatInfo\\Application\\PhpParser\\NodeVisitor\\ParentContextVisitor&#45;&gt;PhpParser\\NodeVisitorAbstract</title>
<path fill="none" stroke="black" d="M962.48,-476.08C1041.42,-581.46 1214.05,-785.53 1418,-864 1529.84,-907.03 3461.92,-903.67 3575,-864 3585.74,-860.23 3584.95,-853.35 3595,-848 3620,-834.69 3647.79,-823.32 3675.27,-813.78"/>
<polygon fill="none" stroke="black" points="3676.63,-817.02 3684.97,-810.48 3674.38,-810.39 3676.63,-817.02"/>
</g>
<!-- Bartlett\\CompatInfo\\Application\\PhpParser\\NodeVisitor\\VersionResolverVisitor -->
<g id="node16" class="node">
<title>Bartlett\\CompatInfo\\Application\\PhpParser\\NodeVisitor\\VersionResolverVisitor</title>
<polygon fill="#fefece" stroke="transparent" points="1390,-328 441,-328 441,-236 1390,-236 1390,-328"/>
<polygon fill="#eeeeee" stroke="transparent" points="449.5,-290 449.5,-324 1382.5,-324 1382.5,-290 449.5,-290"/>
<polygon fill="none" stroke="black" points="449.5,-290 449.5,-324 1382.5,-324 1382.5,-290 449.5,-290"/>
<text text-anchor="start" x="825.5" y="-296.8" font-family="Times,serif" font-weight="bold" font-size="14.00">VersionResolverVisitor</text>
<polygon fill="none" stroke="black" points="449.5,-284 449.5,-290 1382.5,-290 1382.5,-284 449.5,-284"/>
<polygon fill="none" stroke="black" points="449.5,-240 449.5,-284 1382.5,-284 1382.5,-240 449.5,-240"/>
<text text-anchor="start" x="454.5" y="-267.8" font-family="Times,serif" font-size="14.00">+ __construct(referenceCollection : Bartlett\CompatInfo\Application\Collection\ReferenceCollectionInterface, options : array = [])</text>
<text text-anchor="start" x="454.5" y="-248.8" font-family="Times,serif" font-size="14.00">+ enterNode(node : PhpParser\Node)</text>
</g>
<!-- Bartlett\\CompatInfo\\Application\\PhpParser\\NodeVisitor\\VersionResolverVisitor&#45;&gt;PhpParser\\NodeVisitorAbstract -->
<g id="edge16" class="edge">
<title>Bartlett\\CompatInfo\\Application\\PhpParser\\NodeVisitor\\VersionResolverVisitor&#45;&gt;PhpParser\\NodeVisitorAbstract</title>
<path fill="none" stroke="black" d="M1381.28,-328.25C1384.26,-331.07 1387.16,-333.99 1390,-337 1466.16,-417.84 1337.3,-759.7 1418,-836 1461.54,-877.16 3515.51,-843.1 3575,-836 3607.61,-832.11 3642.07,-825.52 3674.78,-818.05"/>
<polygon fill="none" stroke="black" points="3675.92,-821.38 3684.87,-815.71 3674.34,-814.56 3675.92,-821.38"/>
</g>
<!-- PhpParser\\NodeVisitor\\FindingVisitor&#45;&gt;PhpParser\\NodeVisitorAbstract -->
<g id="edge9" class="edge">
<title>PhpParser\\NodeVisitor\\FindingVisitor&#45;&gt;PhpParser\\NodeVisitorAbstract</title>
<path fill="none" stroke="black" d="M2645.91,-582.29C2855.99,-577.78 3250.62,-582.45 3575,-662 3615.78,-672 3658.26,-688.04 3696.61,-704.9"/>
<polygon fill="none" stroke="black" points="3695.19,-708.1 3705.75,-708.97 3698.04,-701.7 3695.19,-708.1"/>
</g>
<!-- PhpParser\\NodeVisitor\\NameResolver&#45;&gt;PhpParser\\NodeVisitorAbstract -->
<g id="edge13" class="edge">
<title>PhpParser\\NodeVisitor\\NameResolver&#45;&gt;PhpParser\\NodeVisitorAbstract</title>
<path fill="none" stroke="black" d="M2829.27,-745.45C3099.27,-753.15 3468.26,-763.66 3674.72,-769.55"/>
<polygon fill="none" stroke="black" points="3674.64,-773.05 3684.73,-769.83 3674.84,-766.05 3674.64,-773.05"/>
</g>
<!-- Bartlett\\CompatInfo\\Application\\PhpParser\\NodeDumper -->
<g id="node19" class="node">
<title>Bartlett\\CompatInfo\\Application\\PhpParser\\NodeDumper</title>
<polygon fill="#fefece" stroke="transparent" points="2717.5,-1137.5 2275.5,-1137.5 2275.5,-1026.5 2717.5,-1026.5 2717.5,-1137.5"/>
<polygon fill="#eeeeee" stroke="transparent" points="2283.5,-1099 2283.5,-1133 2709.5,-1133 2709.5,-1099 2283.5,-1099"/>
<polygon fill="none" stroke="black" points="2283.5,-1099 2283.5,-1133 2709.5,-1133 2709.5,-1099 2283.5,-1099"/>
<text text-anchor="start" x="2444" y="-1105.8" font-family="Times,serif" font-weight="bold" font-size="14.00">NodeDumper</text>
<polygon fill="none" stroke="black" points="2283.5,-1093 2283.5,-1099 2709.5,-1099 2709.5,-1093 2283.5,-1093"/>
<polygon fill="none" stroke="black" points="2283.5,-1030 2283.5,-1093 2709.5,-1093 2709.5,-1030 2283.5,-1030"/>
<text text-anchor="start" x="2288.5" y="-1076.8" font-family="Times,serif" font-size="14.00">+ __construct(options : array = [])</text>
<text text-anchor="start" x="2288.5" y="-1057.8" font-family="Times,serif" font-size="14.00">+ dump(node : mixed, code : string = «unknown») : string</text>
<text text-anchor="start" x="2288.5" y="-1038.8" font-family="Times,serif" font-size="14.00">+ dumpPosition(node : PhpParser\Node)</text>
</g>
<!-- Bartlett\\CompatInfo\\Application\\PhpParser\\NodeDumper&#45;&gt;PhpParser\\NodeDumper -->
<g id="edge17" class="edge">
<title>Bartlett\\CompatInfo\\Application\\PhpParser\\NodeDumper&#45;&gt;PhpParser\\NodeDumper</title>
<path fill="none" stroke="black" d="M2717.69,-1134.43C2954.3,-1177.1 3329.39,-1203.52 3575,-1017 3596.72,-1000.51 3574.79,-977.3 3595,-959 3597.5,-956.74 3600.07,-954.56 3602.71,-952.47"/>
<polygon fill="none" stroke="black" points="3604.88,-955.22 3610.82,-946.45 3600.7,-949.6 3604.88,-955.22"/>
</g>
<!-- Bartlett\\CompatInfo\\Application\\PhpParser\\Parser -->
<g id="node20" class="node">
<title>Bartlett\\CompatInfo\\Application\\PhpParser\\Parser</title>
<polygon fill="#fefece" stroke="transparent" points="3567,-1008 1426,-1008 1426,-916 3567,-916 3567,-1008"/>
<polygon fill="#eeeeee" stroke="transparent" points="1434.5,-970 1434.5,-1004 3559.5,-1004 3559.5,-970 1434.5,-970"/>
<polygon fill="none" stroke="black" points="1434.5,-970 1434.5,-1004 3559.5,-1004 3559.5,-970 1434.5,-970"/>
<text text-anchor="start" x="2471" y="-976.8" font-family="Times,serif" font-weight="bold" font-size="14.00">Parser</text>
<polygon fill="none" stroke="black" points="1434.5,-964 1434.5,-970 3559.5,-970 3559.5,-964 1434.5,-964"/>
<polygon fill="none" stroke="black" points="1434.5,-920 1434.5,-964 3559.5,-964 3559.5,-920 1434.5,-920"/>
<text text-anchor="start" x="1439.5" y="-947.8" font-family="Times,serif" font-size="14.00">+ __construct(compatibilityEventDispatcher : Symfony\Component\EventDispatcher\EventDispatcherInterface, compatibilityAnalyser : Bartlett\CompatInfo\Application\Analyser\SniffAnalyserInterface, referenceCollection : Bartlett\CompatInfo\Application\Collection\ReferenceCollectionInterface)</text>
<text text-anchor="start" x="1439.5" y="-928.8" font-family="Times,serif" font-size="14.00">+ parse(source : string, finder : Symfony\Component\Finder\Finder, errorHandler : Bartlett\CompatInfo\Application\DataCollector\ErrorHandler, version : string) : Bartlett\CompatInfo\Application\Profiler\Profile</text>
</g>
</g>
</svg>
