<?xml version="1.0" encoding="UTF-8" standalone="no"?>
<!DOCTYPE svg PUBLIC "-//W3C//DTD SVG 1.1//EN"
 "http://www.w3.org/Graphics/SVG/1.1/DTD/svg11.dtd">
<!-- Generated by graphviz version 2.43.0 (0)
 -->
<!-- Title: %3 Pages: 1 -->
<svg width="1266pt" height="745pt"
 viewBox="0.00 0.00 1266.00 745.00" xmlns="http://www.w3.org/2000/svg" xmlns:xlink="http://www.w3.org/1999/xlink">
<g id="graph0" class="graph" transform="scale(1 1) rotate(0) translate(4 741)">
<title>%3</title>
<g id="clust1" class="cluster">
<title>cluster_0</title>
<polygon fill="#cdaa7d" stroke="black" points="8,-541 8,-729 1250,-729 1250,-541 8,-541"/>
<text text-anchor="middle" x="629" y="-713.8" font-family="Times,serif" font-size="14.00">Bartlett\CompatInfo\Application\Logger</text>
</g>
<g id="clust2" class="cluster">
<title>cluster_1</title>
<polygon fill="transparent" stroke="black" points="339,-8 339,-533 919,-533 919,-8 339,-8"/>
<text text-anchor="middle" x="629" y="-517.8" font-family="Times,serif" font-size="14.00">Psr\Log</text>
</g>
<!-- Bartlett\\CompatInfo\\Application\\Logger\\DefaultLogger -->
<g id="node1" class="node">
<title>Bartlett\\CompatInfo\\Application\\Logger\\DefaultLogger</title>
<polygon fill="#fefece" stroke="transparent" points="1242,-698 16,-698 16,-549 1242,-549 1242,-698"/>
<polygon fill="#eeeeee" stroke="transparent" points="24,-659.5 24,-693.5 1234,-693.5 1234,-659.5 24,-659.5"/>
<polygon fill="none" stroke="black" points="24,-659.5 24,-693.5 1234,-693.5 1234,-659.5 24,-659.5"/>
<text text-anchor="start" x="572" y="-666.3" font-family="Times,serif" font-weight="bold" font-size="14.00">DefaultLogger</text>
<polygon fill="none" stroke="black" points="24,-653.5 24,-659.5 1234,-659.5 1234,-653.5 24,-653.5"/>
<polygon fill="none" stroke="black" points="24,-552.5 24,-653.5 1234,-653.5 1234,-552.5 24,-552.5"/>
<text text-anchor="start" x="29" y="-637.3" font-family="Times,serif" font-size="14.00">+ __construct(stream : string, name : string = &#39;DefaultLoggerChannel&#39;, level : string = Psr\Log\LogLevel\:\:INFO, handler : mixed = «unknown», processors : array = [])</text>
<text text-anchor="start" x="29" y="-618.3" font-family="Times,serif" font-size="14.00">+ isHandling(record : array) : bool</text>
<text text-anchor="start" x="29" y="-599.3" font-family="Times,serif" font-size="14.00">+ log(level, message, context : array = []) : void</text>
<text text-anchor="start" x="29" y="-580.3" font-family="Times,serif" font-size="14.00">+ handle(record : array) : void</text>
<text text-anchor="start" x="29" y="-561.3" font-family="Times,serif" font-size="14.00">+ interpolate(record : array) : array</text>
</g>
<!-- Psr\\Log\\AbstractLogger -->
<g id="node2" class="node">
<title>Psr\\Log\\AbstractLogger</title>
<polygon fill="#fefece" stroke="transparent" points="911,-502 347,-502 347,-277 911,-277 911,-502"/>
<polygon fill="#eeeeee" stroke="transparent" points="355,-463.5 355,-497.5 903,-497.5 903,-463.5 355,-463.5"/>
<polygon fill="none" stroke="black" points="355,-463.5 355,-497.5 903,-497.5 903,-463.5 355,-463.5"/>
<text text-anchor="start" x="587" y="-484.3" font-family="Times,serif" font-weight="bold" font-size="14.00">«abstract»</text>
<text text-anchor="start" x="568" y="-470.3" font-family="Times,serif" font-weight="bold" font-size="14.00">AbstractLogger</text>
<polygon fill="none" stroke="black" points="355,-457.5 355,-463.5 903,-463.5 903,-457.5 355,-457.5"/>
<polygon fill="none" stroke="black" points="355,-280.5 355,-457.5 903,-457.5 903,-280.5 355,-280.5"/>
<text text-anchor="start" x="360" y="-441.3" font-family="Times,serif" font-size="14.00">+ emergency(message : mixed, context : array = []) : void</text>
<text text-anchor="start" x="360" y="-422.3" font-family="Times,serif" font-size="14.00">+ alert(message : mixed, context : array = []) : void</text>
<text text-anchor="start" x="360" y="-403.3" font-family="Times,serif" font-size="14.00">+ critical(message : mixed, context : array = []) : void</text>
<text text-anchor="start" x="360" y="-384.3" font-family="Times,serif" font-size="14.00">+ error(message : mixed, context : array = []) : void</text>
<text text-anchor="start" x="360" y="-365.3" font-family="Times,serif" font-size="14.00">+ warning(message : mixed, context : array = []) : void</text>
<text text-anchor="start" x="360" y="-346.3" font-family="Times,serif" font-size="14.00">+ notice(message : mixed, context : array = []) : void</text>
<text text-anchor="start" x="360" y="-327.3" font-family="Times,serif" font-size="14.00">+ info(message : mixed, context : array = []) : void</text>
<text text-anchor="start" x="360" y="-308.3" font-family="Times,serif" font-size="14.00">+ debug(message : mixed, context : array = []) : void</text>
<text text-anchor="start" x="360" y="-289.3" font-family="Times,serif" font-size="14.00">+ «abstract» log(level : mixed, message : mixed, context : array = []) : void</text>
</g>
<!-- Bartlett\\CompatInfo\\Application\\Logger\\DefaultLogger&#45;&gt;Psr\\Log\\AbstractLogger -->
<g id="edge2" class="edge">
<title>Bartlett\\CompatInfo\\Application\\Logger\\DefaultLogger&#45;&gt;Psr\\Log\\AbstractLogger</title>
<path fill="none" stroke="black" d="M629,-548.77C629,-537.05 629,-524.66 629,-512.17"/>
<polygon fill="none" stroke="black" points="632.5,-512.16 629,-502.16 625.5,-512.16 632.5,-512.16"/>
</g>
<!-- Psr\\Log\\LoggerInterface -->
<g id="node3" class="node">
<title>Psr\\Log\\LoggerInterface</title>
<polygon fill="#fefece" stroke="transparent" points="911,-241 347,-241 347,-16 911,-16 911,-241"/>
<polygon fill="#eeeeee" stroke="transparent" points="355,-202.5 355,-236.5 903,-236.5 903,-202.5 355,-202.5"/>
<polygon fill="none" stroke="black" points="355,-202.5 355,-236.5 903,-236.5 903,-202.5 355,-202.5"/>
<text text-anchor="start" x="584" y="-223.3" font-family="Times,serif" font-weight="bold" font-size="14.00">«interface»</text>
<text text-anchor="start" x="565" y="-209.3" font-family="Times,serif" font-weight="bold" font-size="14.00">LoggerInterface</text>
<polygon fill="none" stroke="black" points="355,-196.5 355,-202.5 903,-202.5 903,-196.5 355,-196.5"/>
<polygon fill="none" stroke="black" points="355,-19.5 355,-196.5 903,-196.5 903,-19.5 355,-19.5"/>
<text text-anchor="start" x="360" y="-180.3" font-family="Times,serif" font-size="14.00">+ «abstract» emergency(message : mixed, context : array = []) : void</text>
<text text-anchor="start" x="360" y="-161.3" font-family="Times,serif" font-size="14.00">+ «abstract» alert(message : mixed, context : array = []) : void</text>
<text text-anchor="start" x="360" y="-142.3" font-family="Times,serif" font-size="14.00">+ «abstract» critical(message : mixed, context : array = []) : void</text>
<text text-anchor="start" x="360" y="-123.3" font-family="Times,serif" font-size="14.00">+ «abstract» error(message : mixed, context : array = []) : void</text>
<text text-anchor="start" x="360" y="-104.3" font-family="Times,serif" font-size="14.00">+ «abstract» warning(message : mixed, context : array = []) : void</text>
<text text-anchor="start" x="360" y="-85.3" font-family="Times,serif" font-size="14.00">+ «abstract» notice(message : mixed, context : array = []) : void</text>
<text text-anchor="start" x="360" y="-66.3" font-family="Times,serif" font-size="14.00">+ «abstract» info(message : mixed, context : array = []) : void</text>
<text text-anchor="start" x="360" y="-47.3" font-family="Times,serif" font-size="14.00">+ «abstract» debug(message : mixed, context : array = []) : void</text>
<text text-anchor="start" x="360" y="-28.3" font-family="Times,serif" font-size="14.00">+ «abstract» log(level : mixed, message : mixed, context : array = []) : void</text>
</g>
<!-- Psr\\Log\\AbstractLogger&#45;&gt;Psr\\Log\\LoggerInterface -->
<g id="edge1" class="edge">
<title>Psr\\Log\\AbstractLogger&#45;&gt;Psr\\Log\\LoggerInterface</title>
<path fill="none" stroke="black" stroke-dasharray="5,2" d="M629,-276.78C629,-268.41 629,-259.94 629,-251.51"/>
<polygon fill="none" stroke="black" points="632.5,-251.26 629,-241.26 625.5,-251.26 632.5,-251.26"/>
</g>
</g>
</svg>
