<?xml version="1.0" encoding="UTF-8" standalone="no"?>
<!DOCTYPE svg PUBLIC "-//W3C//DTD SVG 1.1//EN"
 "http://www.w3.org/Graphics/SVG/1.1/DTD/svg11.dtd">
<!-- Generated by graphviz version 2.43.0 (0)
 -->
<!-- Title: %3 Pages: 1 -->
<svg width="2678pt" height="1778pt"
 viewBox="0.00 0.00 2678.00 1778.00" xmlns="http://www.w3.org/2000/svg" xmlns:xlink="http://www.w3.org/1999/xlink">
<g id="graph0" class="graph" transform="scale(1 1) rotate(0) translate(4 1774)">
<title>%3</title>
<g id="clust1" class="cluster">
<title>cluster_0</title>
<polygon fill="#cdaa7d" stroke="black" points="484,-1234 484,-1762 2662,-1762 2662,-1234 484,-1234"/>
<text text-anchor="middle" x="1573" y="-1746.8" font-family="Times,serif" font-size="14.00">Bartlett\CompatInfo\Application\Collection</text>
</g>
<g id="clust2" class="cluster">
<title>cluster_1</title>
<polygon fill="transparent" stroke="black" points="8,-275 8,-1631 476,-1631 476,-275 8,-275"/>
<text text-anchor="middle" x="242" y="-1615.8" font-family="Times,serif" font-size="14.00">Doctrine\Common\Collections</text>
</g>
<g id="clust3" class="cluster">
<title>cluster_2</title>
<polygon fill="transparent" stroke="black" points="134,-8 134,-267 972,-267 972,-8 134,-8"/>
<text text-anchor="middle" x="553" y="-251.8" font-family="Times,serif" font-size="14.00">0</text>
</g>
<!-- Bartlett\\CompatInfo\\Application\\Collection\\ReferenceCollection -->
<g id="node1" class="node">
<title>Bartlett\\CompatInfo\\Application\\Collection\\ReferenceCollection</title>
<polygon fill="#fefece" stroke="transparent" points="2394,-1731 492,-1731 492,-1639 2394,-1639 2394,-1731"/>
<polygon fill="#eeeeee" stroke="transparent" points="500,-1693 500,-1727 2386,-1727 2386,-1693 500,-1693"/>
<polygon fill="none" stroke="black" points="500,-1693 500,-1727 2386,-1727 2386,-1693 500,-1693"/>
<text text-anchor="start" x="1363" y="-1699.8" font-family="Times,serif" font-weight="bold" font-size="14.00">ReferenceCollection</text>
<polygon fill="none" stroke="black" points="500,-1687 500,-1693 2386,-1693 2386,-1687 500,-1687"/>
<polygon fill="none" stroke="black" points="500,-1643 500,-1687 2386,-1687 2386,-1643 500,-1643"/>
<text text-anchor="start" x="505" y="-1670.8" font-family="Times,serif" font-size="14.00">+ __construct(classRepository : Bartlett\CompatInfoDb\Domain\Repository\ClassRepository, constantRepository : Bartlett\CompatInfoDb\Domain\Repository\ConstantRepository, functionRepository : Bartlett\CompatInfoDb\Domain\Repository\FunctionRepository)</text>
<text text-anchor="start" x="505" y="-1651.8" font-family="Times,serif" font-size="14.00">+ find(group : string, key : string, argc : int = 0, extra : string = «unknown») : array</text>
</g>
<!-- Bartlett\\CompatInfo\\Application\\Collection\\ReferenceCollectionInterface -->
<g id="node2" class="node">
<title>Bartlett\\CompatInfo\\Application\\Collection\\ReferenceCollectionInterface</title>
<polygon fill="#fefece" stroke="transparent" points="1499.5,-1315 790.5,-1315 790.5,-1242 1499.5,-1242 1499.5,-1315"/>
<polygon fill="#eeeeee" stroke="transparent" points="799,-1276.5 799,-1310.5 1492,-1310.5 1492,-1276.5 799,-1276.5"/>
<polygon fill="none" stroke="black" points="799,-1276.5 799,-1310.5 1492,-1310.5 1492,-1276.5 799,-1276.5"/>
<text text-anchor="start" x="1100.5" y="-1297.3" font-family="Times,serif" font-weight="bold" font-size="14.00">«interface»</text>
<text text-anchor="start" x="1029" y="-1283.3" font-family="Times,serif" font-weight="bold" font-size="14.00">ReferenceCollectionInterface</text>
<polygon fill="none" stroke="black" points="799,-1270.5 799,-1276.5 1492,-1276.5 1492,-1270.5 799,-1270.5"/>
<polygon fill="none" stroke="black" points="799,-1245.5 799,-1270.5 1492,-1270.5 1492,-1245.5 799,-1245.5"/>
<text text-anchor="start" x="804" y="-1254.3" font-family="Times,serif" font-size="14.00">+ «abstract» find(group : string, key : string, argc : int = 0, extra : string = «unknown») : array</text>
</g>
<!-- Bartlett\\CompatInfo\\Application\\Collection\\ReferenceCollection&#45;&gt;Bartlett\\CompatInfo\\Application\\Collection\\ReferenceCollectionInterface -->
<g id="edge9" class="edge">
<title>Bartlett\\CompatInfo\\Application\\Collection\\ReferenceCollection&#45;&gt;Bartlett\\CompatInfo\\Application\\Collection\\ReferenceCollectionInterface</title>
<path fill="none" stroke="black" stroke-dasharray="5,2" d="M1409.68,-1638.78C1351.95,-1560.41 1234.03,-1400.35 1177.13,-1323.12"/>
<polygon fill="none" stroke="black" points="1179.91,-1320.99 1171.16,-1315.01 1174.27,-1325.14 1179.91,-1320.99"/>
</g>
<!-- Doctrine\\Common\\Collections\\AbstractLazyCollection -->
<g id="node5" class="node">
<title>Doctrine\\Common\\Collections\\AbstractLazyCollection</title>
<polygon fill="#fefece" stroke="transparent" points="448,-1600 164,-1600 164,-957 448,-957 448,-1600"/>
<polygon fill="#eeeeee" stroke="transparent" points="172,-1561.5 172,-1595.5 440,-1595.5 440,-1561.5 172,-1561.5"/>
<polygon fill="none" stroke="black" points="172,-1561.5 172,-1595.5 440,-1595.5 440,-1561.5 172,-1561.5"/>
<text text-anchor="start" x="264" y="-1582.3" font-family="Times,serif" font-weight="bold" font-size="14.00">«abstract»</text>
<text text-anchor="start" x="215" y="-1568.3" font-family="Times,serif" font-weight="bold" font-size="14.00">AbstractLazyCollection</text>
<polygon fill="none" stroke="black" points="172,-1555.5 172,-1561.5 440,-1561.5 440,-1555.5 172,-1555.5"/>
<polygon fill="none" stroke="black" points="172,-960.5 172,-1555.5 440,-1555.5 440,-960.5 172,-960.5"/>
<text text-anchor="start" x="177" y="-1539.3" font-family="Times,serif" font-size="14.00">+ count()</text>
<text text-anchor="start" x="177" y="-1520.3" font-family="Times,serif" font-size="14.00">+ add(element)</text>
<text text-anchor="start" x="177" y="-1501.3" font-family="Times,serif" font-size="14.00">+ clear()</text>
<text text-anchor="start" x="177" y="-1482.3" font-family="Times,serif" font-size="14.00">+ contains(element)</text>
<text text-anchor="start" x="177" y="-1463.3" font-family="Times,serif" font-size="14.00">+ isEmpty()</text>
<text text-anchor="start" x="177" y="-1444.3" font-family="Times,serif" font-size="14.00">+ remove(key)</text>
<text text-anchor="start" x="177" y="-1425.3" font-family="Times,serif" font-size="14.00">+ removeElement(element)</text>
<text text-anchor="start" x="177" y="-1406.3" font-family="Times,serif" font-size="14.00">+ containsKey(key)</text>
<text text-anchor="start" x="177" y="-1387.3" font-family="Times,serif" font-size="14.00">+ get(key)</text>
<text text-anchor="start" x="177" y="-1368.3" font-family="Times,serif" font-size="14.00">+ getKeys()</text>
<text text-anchor="start" x="177" y="-1349.3" font-family="Times,serif" font-size="14.00">+ getValues()</text>
<text text-anchor="start" x="177" y="-1330.3" font-family="Times,serif" font-size="14.00">+ set(key, value)</text>
<text text-anchor="start" x="177" y="-1311.3" font-family="Times,serif" font-size="14.00">+ toArray()</text>
<text text-anchor="start" x="177" y="-1292.3" font-family="Times,serif" font-size="14.00">+ first()</text>
<text text-anchor="start" x="177" y="-1273.3" font-family="Times,serif" font-size="14.00">+ last()</text>
<text text-anchor="start" x="177" y="-1254.3" font-family="Times,serif" font-size="14.00">+ key()</text>
<text text-anchor="start" x="177" y="-1235.3" font-family="Times,serif" font-size="14.00">+ current()</text>
<text text-anchor="start" x="177" y="-1216.3" font-family="Times,serif" font-size="14.00">+ next()</text>
<text text-anchor="start" x="177" y="-1197.3" font-family="Times,serif" font-size="14.00">+ exists(p : Closure)</text>
<text text-anchor="start" x="177" y="-1178.3" font-family="Times,serif" font-size="14.00">+ filter(p : Closure)</text>
<text text-anchor="start" x="177" y="-1159.3" font-family="Times,serif" font-size="14.00">+ forAll(p : Closure)</text>
<text text-anchor="start" x="177" y="-1140.3" font-family="Times,serif" font-size="14.00">+ map(func : Closure)</text>
<text text-anchor="start" x="177" y="-1121.3" font-family="Times,serif" font-size="14.00">+ partition(p : Closure)</text>
<text text-anchor="start" x="177" y="-1102.3" font-family="Times,serif" font-size="14.00">+ indexOf(element)</text>
<text text-anchor="start" x="177" y="-1083.3" font-family="Times,serif" font-size="14.00">+ slice(offset, length = «unknown»)</text>
<text text-anchor="start" x="177" y="-1064.3" font-family="Times,serif" font-size="14.00">+ getIterator()</text>
<text text-anchor="start" x="177" y="-1045.3" font-family="Times,serif" font-size="14.00">+ offsetExists(offset : TKey)</text>
<text text-anchor="start" x="177" y="-1026.3" font-family="Times,serif" font-size="14.00">+ offsetGet(offset : TKey)</text>
<text text-anchor="start" x="177" y="-1007.3" font-family="Times,serif" font-size="14.00">+ offsetSet(offset : mixed, value : T)</text>
<text text-anchor="start" x="177" y="-988.3" font-family="Times,serif" font-size="14.00">+ offsetUnset(offset : TKey)</text>
<text text-anchor="start" x="177" y="-969.3" font-family="Times,serif" font-size="14.00">+ isInitialized()</text>
</g>
<!-- Bartlett\\CompatInfo\\Application\\Collection\\ReferenceCollection&#45;&gt;Doctrine\\Common\\Collections\\AbstractLazyCollection -->
<g id="edge7" class="edge">
<title>Bartlett\\CompatInfo\\Application\\Collection\\ReferenceCollection&#45;&gt;Doctrine\\Common\\Collections\\AbstractLazyCollection</title>
<path fill="none" stroke="black" d="M497.58,-1638.88C490.11,-1636.39 484.19,-1633.77 480,-1631 469.24,-1623.9 459.11,-1615.93 449.59,-1607.25"/>
<polygon fill="none" stroke="black" points="451.75,-1604.48 442.09,-1600.14 446.94,-1609.56 451.75,-1604.48"/>
</g>
<!-- Doctrine\\Common\\Collections\\Collection -->
<g id="node6" class="node">
<title>Doctrine\\Common\\Collections\\Collection</title>
<polygon fill="#fefece" stroke="transparent" points="468,-921 106,-921 106,-734 468,-734 468,-921"/>
<polygon fill="#eeeeee" stroke="transparent" points="114,-882.5 114,-916.5 460,-916.5 460,-882.5 114,-882.5"/>
<polygon fill="none" stroke="black" points="114,-882.5 114,-916.5 460,-916.5 460,-882.5 114,-882.5"/>
<text text-anchor="start" x="242" y="-903.3" font-family="Times,serif" font-weight="bold" font-size="14.00">«interface»</text>
<text text-anchor="start" x="247" y="-889.3" font-family="Times,serif" font-weight="bold" font-size="14.00">Collection</text>
<polygon fill="none" stroke="black" points="114,-876.5 114,-882.5 460,-882.5 460,-876.5 114,-876.5"/>
<polygon fill="none" stroke="black" points="114,-737.5 114,-876.5 460,-876.5 460,-737.5 114,-737.5"/>
<text text-anchor="start" x="119" y="-860.3" font-family="Times,serif" font-size="14.00">+ «abstract» add(element : mixed)</text>
<text text-anchor="start" x="119" y="-841.3" font-family="Times,serif" font-size="14.00">+ «abstract» clear()</text>
<text text-anchor="start" x="119" y="-822.3" font-family="Times,serif" font-size="14.00">+ «abstract» remove(key : mixed)</text>
<text text-anchor="start" x="119" y="-803.3" font-family="Times,serif" font-size="14.00">+ «abstract» removeElement(element : mixed)</text>
<text text-anchor="start" x="119" y="-784.3" font-family="Times,serif" font-size="14.00">+ «abstract» set(key : mixed, value : mixed)</text>
<text text-anchor="start" x="119" y="-765.3" font-family="Times,serif" font-size="14.00">+ «abstract» filter(p : Closure)</text>
<text text-anchor="start" x="119" y="-746.3" font-family="Times,serif" font-size="14.00">+ «abstract» partition(p : Closure)</text>
</g>
<!-- Bartlett\\CompatInfo\\Application\\Collection\\ReferenceCollectionInterface&#45;&gt;Doctrine\\Common\\Collections\\Collection -->
<g id="edge8" class="edge">
<title>Bartlett\\CompatInfo\\Application\\Collection\\ReferenceCollectionInterface&#45;&gt;Doctrine\\Common\\Collections\\Collection</title>
<path fill="none" stroke="black" stroke-dasharray="5,2" d="M1076.96,-1241.89C947.81,-1174.31 663.12,-1025.33 473.16,-925.92"/>
<polygon fill="none" stroke="black" points="474.67,-922.76 464.18,-921.22 471.42,-928.96 474.67,-922.76"/>
</g>
<!-- Bartlett\\CompatInfo\\Application\\Collection\\SniffCollection -->
<g id="node3" class="node">
<title>Bartlett\\CompatInfo\\Application\\Collection\\SniffCollection</title>
<polygon fill="#fefece" stroke="transparent" points="2654,-1731 2412,-1731 2412,-1639 2654,-1639 2654,-1731"/>
<polygon fill="#eeeeee" stroke="transparent" points="2420,-1693 2420,-1727 2646,-1727 2646,-1693 2420,-1693"/>
<polygon fill="none" stroke="black" points="2420,-1693 2420,-1727 2646,-1727 2646,-1693 2420,-1693"/>
<text text-anchor="start" x="2474.5" y="-1699.8" font-family="Times,serif" font-weight="bold" font-size="14.00">SniffCollection</text>
<polygon fill="none" stroke="black" points="2420,-1687 2420,-1693 2646,-1693 2646,-1687 2420,-1687"/>
<polygon fill="none" stroke="black" points="2420,-1643 2420,-1687 2646,-1687 2646,-1643 2420,-1643"/>
<text text-anchor="start" x="2425" y="-1670.8" font-family="Times,serif" font-size="14.00">+ __construct(sniffs : iterable)</text>
<text text-anchor="start" x="2425" y="-1651.8" font-family="Times,serif" font-size="14.00">+ getIterator() : Traversable</text>
</g>
<!-- Bartlett\\CompatInfo\\Application\\Collection\\SniffCollectionInterface -->
<g id="node4" class="node">
<title>Bartlett\\CompatInfo\\Application\\Collection\\SniffCollectionInterface</title>
<polygon fill="#fefece" stroke="transparent" points="2184,-1305.5 1972,-1305.5 1972,-1251.5 2184,-1251.5 2184,-1305.5"/>
<polygon fill="#eeeeee" stroke="transparent" points="1980,-1267.5 1980,-1301.5 2176,-1301.5 2176,-1267.5 1980,-1267.5"/>
<polygon fill="none" stroke="black" points="1980,-1267.5 1980,-1301.5 2176,-1301.5 2176,-1267.5 1980,-1267.5"/>
<text text-anchor="start" x="2033" y="-1288.3" font-family="Times,serif" font-weight="bold" font-size="14.00">«interface»</text>
<text text-anchor="start" x="1983" y="-1274.3" font-family="Times,serif" font-weight="bold" font-size="14.00">SniffCollectionInterface</text>
<polygon fill="none" stroke="black" points="1980,-1261.5 1980,-1267.5 2176,-1267.5 2176,-1261.5 1980,-1261.5"/>
<polygon fill="none" stroke="black" points="1980,-1255.5 1980,-1261.5 2176,-1261.5 2176,-1255.5 1980,-1255.5"/>
</g>
<!-- Bartlett\\CompatInfo\\Application\\Collection\\SniffCollection&#45;&gt;Bartlett\\CompatInfo\\Application\\Collection\\SniffCollectionInterface -->
<g id="edge11" class="edge">
<title>Bartlett\\CompatInfo\\Application\\Collection\\SniffCollection&#45;&gt;Bartlett\\CompatInfo\\Application\\Collection\\SniffCollectionInterface</title>
<path fill="none" stroke="black" stroke-dasharray="5,2" d="M2482.13,-1638.78C2389.57,-1556.49 2195.74,-1384.17 2114.77,-1312.19"/>
<polygon fill="none" stroke="black" points="2117.09,-1309.57 2107.29,-1305.54 2112.44,-1314.8 2117.09,-1309.57"/>
</g>
<!-- IteratorAggregate -->
<g id="node9" class="node">
<title>IteratorAggregate</title>
<polygon fill="#fefece" stroke="transparent" points="964.5,-207.5 751.5,-207.5 751.5,-134.5 964.5,-134.5 964.5,-207.5"/>
<polygon fill="#eeeeee" stroke="transparent" points="760,-169 760,-203 957,-203 957,-169 760,-169"/>
<polygon fill="none" stroke="black" points="760,-169 760,-203 957,-203 957,-169 760,-169"/>
<text text-anchor="start" x="813.5" y="-189.8" font-family="Times,serif" font-weight="bold" font-size="14.00">«interface»</text>
<text text-anchor="start" x="786.5" y="-175.8" font-family="Times,serif" font-weight="bold" font-size="14.00">IteratorAggregate</text>
<polygon fill="none" stroke="black" points="760,-163 760,-169 957,-169 957,-163 760,-163"/>
<polygon fill="none" stroke="black" points="760,-138 760,-163 957,-163 957,-138 760,-138"/>
<text text-anchor="start" x="765" y="-146.8" font-family="Times,serif" font-size="14.00">+ «abstract» getIterator()</text>
</g>
<!-- Bartlett\\CompatInfo\\Application\\Collection\\SniffCollectionInterface&#45;&gt;IteratorAggregate -->
<g id="edge10" class="edge">
<title>Bartlett\\CompatInfo\\Application\\Collection\\SniffCollectionInterface&#45;&gt;IteratorAggregate</title>
<path fill="none" stroke="black" stroke-dasharray="5,2" d="M2049.05,-1251.26C1888.28,-1105.59 1105.47,-396.24 904.89,-214.49"/>
<polygon fill="none" stroke="black" points="907.21,-211.87 897.45,-207.75 902.51,-217.05 907.21,-211.87"/>
</g>
<!-- Doctrine\\Common\\Collections\\AbstractLazyCollection&#45;&gt;Doctrine\\Common\\Collections\\Collection -->
<g id="edge6" class="edge">
<title>Doctrine\\Common\\Collections\\AbstractLazyCollection&#45;&gt;Doctrine\\Common\\Collections\\Collection</title>
<path fill="none" stroke="black" stroke-dasharray="5,2" d="M292.43,-956.86C292.06,-948.11 291.7,-939.6 291.35,-931.4"/>
<polygon fill="none" stroke="black" points="294.84,-931.03 290.92,-921.19 287.85,-931.33 294.84,-931.03"/>
</g>
<!-- Doctrine\\Common\\Collections\\ReadableCollection -->
<g id="node7" class="node">
<title>Doctrine\\Common\\Collections\\ReadableCollection</title>
<polygon fill="#fefece" stroke="transparent" points="468.5,-698 15.5,-698 15.5,-283 468.5,-283 468.5,-698"/>
<polygon fill="#eeeeee" stroke="transparent" points="24,-659.5 24,-693.5 461,-693.5 461,-659.5 24,-659.5"/>
<polygon fill="none" stroke="black" points="24,-659.5 24,-693.5 461,-693.5 461,-659.5 24,-659.5"/>
<text text-anchor="start" x="197.5" y="-680.3" font-family="Times,serif" font-weight="bold" font-size="14.00">«interface»</text>
<text text-anchor="start" x="166" y="-666.3" font-family="Times,serif" font-weight="bold" font-size="14.00">ReadableCollection</text>
<polygon fill="none" stroke="black" points="24,-653.5 24,-659.5 461,-659.5 461,-653.5 24,-653.5"/>
<polygon fill="none" stroke="black" points="24,-286.5 24,-653.5 461,-653.5 461,-286.5 24,-286.5"/>
<text text-anchor="start" x="29" y="-637.3" font-family="Times,serif" font-size="14.00">+ «abstract» contains(element : mixed)</text>
<text text-anchor="start" x="29" y="-618.3" font-family="Times,serif" font-size="14.00">+ «abstract» isEmpty()</text>
<text text-anchor="start" x="29" y="-599.3" font-family="Times,serif" font-size="14.00">+ «abstract» containsKey(key : mixed)</text>
<text text-anchor="start" x="29" y="-580.3" font-family="Times,serif" font-size="14.00">+ «abstract» get(key : mixed)</text>
<text text-anchor="start" x="29" y="-561.3" font-family="Times,serif" font-size="14.00">+ «abstract» getKeys()</text>
<text text-anchor="start" x="29" y="-542.3" font-family="Times,serif" font-size="14.00">+ «abstract» getValues()</text>
<text text-anchor="start" x="29" y="-523.3" font-family="Times,serif" font-size="14.00">+ «abstract» toArray()</text>
<text text-anchor="start" x="29" y="-504.3" font-family="Times,serif" font-size="14.00">+ «abstract» first()</text>
<text text-anchor="start" x="29" y="-485.3" font-family="Times,serif" font-size="14.00">+ «abstract» last()</text>
<text text-anchor="start" x="29" y="-466.3" font-family="Times,serif" font-size="14.00">+ «abstract» key()</text>
<text text-anchor="start" x="29" y="-447.3" font-family="Times,serif" font-size="14.00">+ «abstract» current()</text>
<text text-anchor="start" x="29" y="-428.3" font-family="Times,serif" font-size="14.00">+ «abstract» next()</text>
<text text-anchor="start" x="29" y="-409.3" font-family="Times,serif" font-size="14.00">+ «abstract» slice(offset : int, length : mixed = «unknown»)</text>
<text text-anchor="start" x="29" y="-390.3" font-family="Times,serif" font-size="14.00">+ «abstract» exists(p : Closure)</text>
<text text-anchor="start" x="29" y="-371.3" font-family="Times,serif" font-size="14.00">+ «abstract» filter(p : Closure)</text>
<text text-anchor="start" x="29" y="-352.3" font-family="Times,serif" font-size="14.00">+ «abstract» map(func : Closure)</text>
<text text-anchor="start" x="29" y="-333.3" font-family="Times,serif" font-size="14.00">+ «abstract» partition(p : Closure)</text>
<text text-anchor="start" x="29" y="-314.3" font-family="Times,serif" font-size="14.00">+ «abstract» forAll(p : Closure)</text>
<text text-anchor="start" x="29" y="-295.3" font-family="Times,serif" font-size="14.00">+ «abstract» indexOf(element : mixed)</text>
</g>
<!-- Doctrine\\Common\\Collections\\Collection&#45;&gt;Doctrine\\Common\\Collections\\ReadableCollection -->
<g id="edge4" class="edge">
<title>Doctrine\\Common\\Collections\\Collection&#45;&gt;Doctrine\\Common\\Collections\\ReadableCollection</title>
<path fill="none" stroke="black" stroke-dasharray="5,2" d="M274.52,-733.63C273.42,-725.4 272.27,-716.87 271.1,-708.14"/>
<polygon fill="none" stroke="black" points="274.57,-707.65 269.77,-698.21 267.63,-708.58 274.57,-707.65"/>
</g>
<!-- ArrayAccess -->
<g id="node11" class="node">
<title>ArrayAccess</title>
<polygon fill="#fefece" stroke="transparent" points="733.5,-236 334.5,-236 334.5,-106 733.5,-106 733.5,-236"/>
<polygon fill="#eeeeee" stroke="transparent" points="343,-198 343,-232 726,-232 726,-198 343,-198"/>
<polygon fill="none" stroke="black" points="343,-198 343,-232 726,-232 726,-198 343,-198"/>
<text text-anchor="start" x="489.5" y="-218.8" font-family="Times,serif" font-weight="bold" font-size="14.00">«interface»</text>
<text text-anchor="start" x="486.5" y="-204.8" font-family="Times,serif" font-weight="bold" font-size="14.00">ArrayAccess</text>
<polygon fill="none" stroke="black" points="343,-192 343,-198 726,-198 726,-192 343,-192"/>
<polygon fill="none" stroke="black" points="343,-110 343,-192 726,-192 726,-110 343,-110"/>
<text text-anchor="start" x="348" y="-175.8" font-family="Times,serif" font-size="14.00">+ «abstract» offsetExists(offset : mixed)</text>
<text text-anchor="start" x="348" y="-156.8" font-family="Times,serif" font-size="14.00">+ «abstract» offsetGet(offset : mixed)</text>
<text text-anchor="start" x="348" y="-137.8" font-family="Times,serif" font-size="14.00">+ «abstract» offsetSet(offset : mixed, value : mixed)</text>
<text text-anchor="start" x="348" y="-118.8" font-family="Times,serif" font-size="14.00">+ «abstract» offsetUnset(offset : mixed)</text>
</g>
<!-- Doctrine\\Common\\Collections\\Collection&#45;&gt;ArrayAccess -->
<g id="edge5" class="edge">
<title>Doctrine\\Common\\Collections\\Collection&#45;&gt;ArrayAccess</title>
<path fill="none" stroke="black" stroke-dasharray="5,2" d="M448.7,-733.85C459.52,-722.91 469.19,-710.96 477,-698 562.27,-556.41 555.83,-353.98 544.47,-246.2"/>
<polygon fill="none" stroke="black" points="547.93,-245.63 543.36,-236.07 540.97,-246.39 547.93,-245.63"/>
</g>
<!-- Countable -->
<g id="node8" class="node">
<title>Countable</title>
<polygon fill="#fefece" stroke="transparent" points="316,-207.5 142,-207.5 142,-134.5 316,-134.5 316,-207.5"/>
<polygon fill="#eeeeee" stroke="transparent" points="150,-169 150,-203 308,-203 308,-169 150,-169"/>
<polygon fill="none" stroke="black" points="150,-169 150,-203 308,-203 308,-169 150,-169"/>
<text text-anchor="start" x="184" y="-189.8" font-family="Times,serif" font-weight="bold" font-size="14.00">«interface»</text>
<text text-anchor="start" x="188" y="-175.8" font-family="Times,serif" font-weight="bold" font-size="14.00">Countable</text>
<polygon fill="none" stroke="black" points="150,-163 150,-169 308,-169 308,-163 150,-163"/>
<polygon fill="none" stroke="black" points="150,-138 150,-163 308,-163 308,-138 150,-138"/>
<text text-anchor="start" x="155" y="-146.8" font-family="Times,serif" font-size="14.00">+ «abstract» count()</text>
</g>
<!-- Doctrine\\Common\\Collections\\ReadableCollection&#45;&gt;Countable -->
<g id="edge1" class="edge">
<title>Doctrine\\Common\\Collections\\ReadableCollection&#45;&gt;Countable</title>
<path fill="none" stroke="black" stroke-dasharray="5,2" d="M233.53,-282.6C232.54,-258.41 231.61,-235.86 230.86,-217.52"/>
<polygon fill="none" stroke="black" points="234.36,-217.36 230.45,-207.51 227.37,-217.64 234.36,-217.36"/>
</g>
<!-- Doctrine\\Common\\Collections\\ReadableCollection&#45;&gt;IteratorAggregate -->
<g id="edge3" class="edge">
<title>Doctrine\\Common\\Collections\\ReadableCollection&#45;&gt;IteratorAggregate</title>
<path fill="none" stroke="black" stroke-dasharray="5,2" d="M468.72,-404.27C557.05,-367.14 657.42,-319.96 743,-267 767.51,-251.83 792.44,-231.9 812.79,-214.21"/>
<polygon fill="none" stroke="black" points="815.16,-216.79 820.36,-207.56 810.54,-211.53 815.16,-216.79"/>
</g>
<!-- Traversable -->
<g id="node10" class="node">
<title>Traversable</title>
<polygon fill="#fefece" stroke="transparent" points="915.5,-70 800.5,-70 800.5,-16 915.5,-16 915.5,-70"/>
<polygon fill="#eeeeee" stroke="transparent" points="809,-32 809,-66 908,-66 908,-32 809,-32"/>
<polygon fill="none" stroke="black" points="809,-32 809,-66 908,-66 908,-32 809,-32"/>
<text text-anchor="start" x="813.5" y="-52.8" font-family="Times,serif" font-weight="bold" font-size="14.00">«interface»</text>
<text text-anchor="start" x="812" y="-38.8" font-family="Times,serif" font-weight="bold" font-size="14.00">Traversable</text>
<polygon fill="none" stroke="black" points="809,-26 809,-32 908,-32 908,-26 809,-26"/>
<polygon fill="none" stroke="black" points="809,-20 809,-26 908,-26 908,-20 809,-20"/>
</g>
<!-- IteratorAggregate&#45;&gt;Traversable -->
<g id="edge2" class="edge">
<title>IteratorAggregate&#45;&gt;Traversable</title>
<path fill="none" stroke="black" stroke-dasharray="5,2" d="M858,-134.23C858,-117.36 858,-97.26 858,-80.32"/>
<polygon fill="none" stroke="black" points="861.5,-80.24 858,-70.24 854.5,-80.24 861.5,-80.24"/>
</g>
</g>
</svg>
