<?xml version="1.0" encoding="UTF-8" standalone="no"?>
<!DOCTYPE svg PUBLIC "-//W3C//DTD SVG 1.1//EN"
 "http://www.w3.org/Graphics/SVG/1.1/DTD/svg11.dtd">
<!-- Generated by graphviz version 2.43.0 (0)
 -->
<!-- Title: %3 Pages: 1 -->
<svg width="1054pt" height="426pt"
 viewBox="0.00 0.00 1054.00 426.00" xmlns="http://www.w3.org/2000/svg" xmlns:xlink="http://www.w3.org/1999/xlink">
<g id="graph0" class="graph" transform="scale(1 1) rotate(0) translate(4 422)">
<title>%3</title>
<g id="clust1" class="cluster">
<title>cluster_0</title>
<polygon fill="Bisque" stroke="black" points="8,-193 8,-410 656,-410 656,-193 8,-193"/>
<text text-anchor="middle" x="332" y="-394.8" font-family="Times,serif" font-size="14.00">Bartlett\CompatInfo\Application\Query\Analyser\Compatibility</text>
</g>
<g id="clust2" class="cluster">
<title>cluster_1</title>
<polygon fill="BurlyWood" stroke="black" points="676,-76 676,-271 1038,-271 1038,-76 676,-76"/>
<text text-anchor="middle" x="857" y="-255.8" font-family="Times,serif" font-size="14.00">Bartlett\CompatInfo\Application\Query</text>
</g>
<g id="clust3" class="cluster">
<title>cluster_2</title>
<polygon fill="Bisque" stroke="black" points="19.5,-8 19.5,-185 644.5,-185 644.5,-8 19.5,-8"/>
<text text-anchor="middle" x="332" y="-169.8" font-family="Times,serif" font-size="14.00">Bartlett\CompatInfo\Application\Query\Diagnose</text>
</g>
<!-- Bartlett\\CompatInfo\\Application\\Query\\Analyser\\Compatibility\\GetCompatibilityHandler -->
<g id="node1" class="node">
<title>Bartlett\\CompatInfo\\Application\\Query\\Analyser\\Compatibility\\GetCompatibilityHandler</title>
<polygon fill="#fefece" stroke="transparent" points="648,-379 16,-379 16,-319 648,-319 648,-379"/>
<polygon fill="#eeeeee" stroke="transparent" points="16,-357 16,-379 648,-379 648,-357 16,-357"/>
<polygon fill="none" stroke="black" points="16,-357 16,-379 648,-379 648,-357 16,-357"/>
<text text-anchor="start" x="275" y="-362.6" font-family="Verdana" font-weight="bold" font-size="8.00">GetCompatibilityHandler</text>
<polygon fill="none" stroke="black" points="16,-351 16,-357 648,-357 648,-351 16,-351"/>
<polygon fill="none" stroke="black" points="16,-319 16,-351 648,-351 648,-319 16,-319"/>
<text text-anchor="start" x="21" y="-339.6" font-family="Verdana" font-size="8.00">+ __construct(parser : Bartlett\CompatInfo\Application\PhpParser\Parser)</text>
<text text-anchor="start" x="21" y="-326.6" font-family="Verdana" font-size="8.00">+ __invoke(query : Bartlett\CompatInfo\Application\Query\Analyser\Compatibility\GetCompatibilityQuery) : Bartlett\CompatInfo\Application\Profiler\Profile</text>
</g>
<!-- Bartlett\\CompatInfo\\Application\\Query\\QueryHandlerInterface -->
<g id="node3" class="node">
<title>Bartlett\\CompatInfo\\Application\\Query\\QueryHandlerInterface</title>
<polygon fill="#fefece" stroke="transparent" points="912,-240 802,-240 802,-204 912,-204 912,-240"/>
<polygon fill="#eeeeee" stroke="transparent" points="802,-217 802,-239 912,-239 912,-217 802,-217"/>
<polygon fill="none" stroke="black" points="802,-217 802,-239 912,-239 912,-217 802,-217"/>
<text text-anchor="start" x="831" y="-230.6" font-family="Verdana" font-weight="bold" font-size="8.00">«interface»</text>
<text text-anchor="start" x="805" y="-222.6" font-family="Verdana" font-weight="bold" font-size="8.00">QueryHandlerInterface</text>
<polygon fill="none" stroke="black" points="802,-211 802,-217 912,-217 912,-211 802,-211"/>
<polygon fill="none" stroke="black" points="802,-205 802,-211 912,-211 912,-205 802,-205"/>
</g>
<!-- Bartlett\\CompatInfo\\Application\\Query\\Analyser\\Compatibility\\GetCompatibilityHandler&#45;&gt;Bartlett\\CompatInfo\\Application\\Query\\QueryHandlerInterface -->
<g id="edge1" class="edge">
<title>Bartlett\\CompatInfo\\Application\\Query\\Analyser\\Compatibility\\GetCompatibilityHandler&#45;&gt;Bartlett\\CompatInfo\\Application\\Query\\QueryHandlerInterface</title>
<path fill="none" stroke="black" stroke-dasharray="5,2" d="M619.64,-318.95C631.98,-316.22 644.15,-313.25 656,-310 712.9,-294.41 774.49,-265.29 814.06,-244.82"/>
<polygon fill="none" stroke="black" points="815.9,-247.81 823.14,-240.08 812.65,-241.61 815.9,-247.81"/>
</g>
<!-- Bartlett\\CompatInfo\\Application\\Query\\Analyser\\Compatibility\\GetCompatibilityQuery -->
<g id="node2" class="node">
<title>Bartlett\\CompatInfo\\Application\\Query\\Analyser\\Compatibility\\GetCompatibilityQuery</title>
<polygon fill="#fefece" stroke="transparent" points="505,-300.5 159,-300.5 159,-201.5 505,-201.5 505,-300.5"/>
<polygon fill="#eeeeee" stroke="transparent" points="159,-278 159,-300 505,-300 505,-278 159,-278"/>
<polygon fill="none" stroke="black" points="159,-278 159,-300 505,-300 505,-278 159,-278"/>
<text text-anchor="start" x="279.5" y="-283.6" font-family="Verdana" font-weight="bold" font-size="8.00">GetCompatibilityQuery</text>
<polygon fill="none" stroke="black" points="159,-272 159,-278 505,-278 505,-272 159,-272"/>
<polygon fill="none" stroke="black" points="159,-201 159,-272 505,-272 505,-201 159,-201"/>
<text text-anchor="start" x="164" y="-260.6" font-family="Verdana" font-size="8.00">+ __construct(source : string, exclude : array, stopOnFailure : bool, version : string)</text>
<text text-anchor="start" x="164" y="-247.6" font-family="Verdana" font-size="8.00">+ getSource() : string</text>
<text text-anchor="start" x="164" y="-234.6" font-family="Verdana" font-size="8.00">+ getExclude() : array</text>
<text text-anchor="start" x="164" y="-221.6" font-family="Verdana" font-size="8.00">+ isStopOnFailure() : bool</text>
<text text-anchor="start" x="164" y="-208.6" font-family="Verdana" font-size="8.00">+ getVersion() : string</text>
</g>
<!-- Bartlett\\CompatInfo\\Application\\Query\\QueryInterface -->
<g id="node4" class="node">
<title>Bartlett\\CompatInfo\\Application\\Query\\QueryInterface</title>
<polygon fill="#fefece" stroke="transparent" points="894,-186 820,-186 820,-150 894,-150 894,-186"/>
<polygon fill="#eeeeee" stroke="transparent" points="820,-163 820,-185 894,-185 894,-163 820,-163"/>
<polygon fill="none" stroke="black" points="820,-163 820,-185 894,-185 894,-163 820,-163"/>
<text text-anchor="start" x="831" y="-176.6" font-family="Verdana" font-weight="bold" font-size="8.00">«interface»</text>
<text text-anchor="start" x="823" y="-168.6" font-family="Verdana" font-weight="bold" font-size="8.00">QueryInterface</text>
<polygon fill="none" stroke="black" points="820,-157 820,-163 894,-163 894,-157 820,-157"/>
<polygon fill="none" stroke="black" points="820,-151 820,-157 894,-157 894,-151 820,-151"/>
</g>
<!-- Bartlett\\CompatInfo\\Application\\Query\\Analyser\\Compatibility\\GetCompatibilityQuery&#45;&gt;Bartlett\\CompatInfo\\Application\\Query\\QueryInterface -->
<g id="edge2" class="edge">
<title>Bartlett\\CompatInfo\\Application\\Query\\Analyser\\Compatibility\\GetCompatibilityQuery&#45;&gt;Bartlett\\CompatInfo\\Application\\Query\\QueryInterface</title>
<path fill="none" stroke="black" stroke-dasharray="5,2" d="M505.22,-222.43C559.81,-213.5 620.41,-203.71 676,-195 721.32,-187.9 773.12,-180.17 809.48,-174.81"/>
<polygon fill="none" stroke="black" points="810.39,-178.21 819.78,-173.29 809.38,-171.29 810.39,-178.21"/>
</g>
<!-- Bartlett\\CompatInfo\\Application\\Query\\QueryBusInterface -->
<g id="node5" class="node">
<title>Bartlett\\CompatInfo\\Application\\Query\\QueryBusInterface</title>
<polygon fill="#fefece" stroke="transparent" points="1030,-131.5 684,-131.5 684,-84.5 1030,-84.5 1030,-131.5"/>
<polygon fill="#eeeeee" stroke="transparent" points="684,-109 684,-131 1030,-131 1030,-109 684,-109"/>
<polygon fill="none" stroke="black" points="684,-109 684,-131 1030,-131 1030,-109 684,-109"/>
<text text-anchor="start" x="831" y="-122.6" font-family="Verdana" font-weight="bold" font-size="8.00">«interface»</text>
<text text-anchor="start" x="814.5" y="-114.6" font-family="Verdana" font-weight="bold" font-size="8.00">QueryBusInterface</text>
<polygon fill="none" stroke="black" points="684,-103 684,-109 1030,-109 1030,-103 684,-103"/>
<polygon fill="none" stroke="black" points="684,-84 684,-103 1030,-103 1030,-84 684,-84"/>
<text text-anchor="start" x="689" y="-91.6" font-family="Verdana" font-size="8.00">+ «abstract» query(query : Bartlett\CompatInfo\Application\Query\QueryInterface)</text>
</g>
<!-- Bartlett\\CompatInfo\\Application\\Query\\Diagnose\\DiagnoseHandler -->
<g id="node6" class="node">
<title>Bartlett\\CompatInfo\\Application\\Query\\Diagnose\\DiagnoseHandler</title>
<polygon fill="#fefece" stroke="transparent" points="636.5,-154 27.5,-154 27.5,-94 636.5,-94 636.5,-154"/>
<polygon fill="#eeeeee" stroke="transparent" points="28,-132 28,-154 637,-154 637,-132 28,-132"/>
<polygon fill="none" stroke="black" points="28,-132 28,-154 637,-154 637,-132 28,-132"/>
<text text-anchor="start" x="293" y="-137.6" font-family="Verdana" font-weight="bold" font-size="8.00">DiagnoseHandler</text>
<polygon fill="none" stroke="black" points="28,-126 28,-132 637,-132 637,-126 28,-126"/>
<polygon fill="none" stroke="black" points="28,-94 28,-126 637,-126 637,-94 28,-94"/>
<text text-anchor="start" x="33" y="-114.6" font-family="Verdana" font-size="8.00">+ __construct(handler : Bartlett\CompatInfoDb\Application\Query\Diagnose\DiagnoseHandler)</text>
<text text-anchor="start" x="33" y="-101.6" font-family="Verdana" font-size="8.00">+ __invoke(query : Bartlett\CompatInfo\Application\Query\Diagnose\DiagnoseQuery) : Bartlett\CompatInfoDb\Infrastructure\RequirementsInterface</text>
</g>
<!-- Bartlett\\CompatInfo\\Application\\Query\\Diagnose\\DiagnoseHandler&#45;&gt;Bartlett\\CompatInfo\\Application\\Query\\QueryHandlerInterface -->
<g id="edge3" class="edge">
<title>Bartlett\\CompatInfo\\Application\\Query\\Diagnose\\DiagnoseHandler&#45;&gt;Bartlett\\CompatInfo\\Application\\Query\\QueryHandlerInterface</title>
<path fill="none" stroke="black" stroke-dasharray="5,2" d="M497.57,-154.05C548.57,-164.18 604.81,-176.2 656,-189 665,-191.25 666.94,-192.97 676,-195 714.03,-203.51 757.19,-210.09 791.72,-214.62"/>
<polygon fill="none" stroke="black" points="791.31,-218.1 801.67,-215.9 792.2,-211.15 791.31,-218.1"/>
</g>
<!-- Bartlett\\CompatInfo\\Application\\Query\\Diagnose\\DiagnoseQuery -->
<g id="node7" class="node">
<title>Bartlett\\CompatInfo\\Application\\Query\\Diagnose\\DiagnoseQuery</title>
<polygon fill="#fefece" stroke="transparent" points="478.5,-76 185.5,-76 185.5,-16 478.5,-16 478.5,-76"/>
<polygon fill="#eeeeee" stroke="transparent" points="186,-54 186,-76 479,-76 479,-54 186,-54"/>
<polygon fill="none" stroke="black" points="186,-54 186,-76 479,-76 479,-54 186,-54"/>
<text text-anchor="start" x="297.5" y="-59.6" font-family="Verdana" font-weight="bold" font-size="8.00">DiagnoseQuery</text>
<polygon fill="none" stroke="black" points="186,-48 186,-54 479,-54 479,-48 186,-48"/>
<polygon fill="none" stroke="black" points="186,-16 186,-48 479,-48 479,-16 186,-16"/>
<text text-anchor="start" x="191" y="-36.6" font-family="Verdana" font-size="8.00">+ __construct(entityManager : Doctrine\ORM\EntityManagerInterface)</text>
<text text-anchor="start" x="191" y="-23.6" font-family="Verdana" font-size="8.00">+ getDatabaseConnection() : Doctrine\DBAL\Connection</text>
</g>
<!-- Bartlett\\CompatInfo\\Application\\Query\\Diagnose\\DiagnoseQuery&#45;&gt;Bartlett\\CompatInfo\\Application\\Query\\QueryInterface -->
<g id="edge4" class="edge">
<title>Bartlett\\CompatInfo\\Application\\Query\\Diagnose\\DiagnoseQuery&#45;&gt;Bartlett\\CompatInfo\\Application\\Query\\QueryInterface</title>
<path fill="none" stroke="black" stroke-dasharray="5,2" d="M478.52,-31.68C539.17,-33.23 606.79,-45.7 656,-85 676.65,-101.49 655.59,-124.21 676,-141 713.27,-171.65 770.12,-175.34 809.94,-173.33"/>
<polygon fill="none" stroke="black" points="810.17,-176.82 819.92,-172.69 809.72,-169.84 810.17,-176.82"/>
</g>
</g>
</svg>
