<?xml version="1.0" encoding="UTF-8" standalone="no"?>
<!DOCTYPE svg PUBLIC "-//W3C//DTD SVG 1.1//EN"
 "http://www.w3.org/Graphics/SVG/1.1/DTD/svg11.dtd">
<!-- Generated by graphviz version 2.43.0 (0)
 -->
<!-- Title: %3 Pages: 1 -->
<svg width="726pt" height="547pt"
 viewBox="0.00 0.00 726.00 547.00" xmlns="http://www.w3.org/2000/svg" xmlns:xlink="http://www.w3.org/1999/xlink">
<g id="graph0" class="graph" transform="scale(1 1) rotate(0) translate(4 543)">
<title>%3</title>
<g id="clust1" class="cluster">
<title>cluster_0</title>
<polygon fill="BurlyWood" stroke="black" points="8,-393 8,-531 710,-531 710,-393 8,-393"/>
<text text-anchor="middle" x="359" y="-515.8" font-family="Times,serif" font-size="14.00">Bartlett\CompatInfo\Application\Logger</text>
</g>
<g id="clust2" class="cluster">
<title>cluster_1</title>
<polygon fill="transparent" stroke="black" points="193,-8 193,-385 525,-385 525,-8 193,-8"/>
<text text-anchor="middle" x="359" y="-369.8" font-family="Times,serif" font-size="14.00">Psr\Log</text>
</g>
<!-- Bartlett\\CompatInfo\\Application\\Logger\\DefaultLogger -->
<g id="node1" class="node">
<title>Bartlett\\CompatInfo\\Application\\Logger\\DefaultLogger</title>
<polygon fill="#fefece" stroke="transparent" points="702,-500 16,-500 16,-401 702,-401 702,-500"/>
<polygon fill="#eeeeee" stroke="transparent" points="16,-477.5 16,-499.5 702,-499.5 702,-477.5 16,-477.5"/>
<polygon fill="none" stroke="black" points="16,-477.5 16,-499.5 702,-499.5 702,-477.5 16,-477.5"/>
<text text-anchor="start" x="326" y="-483.1" font-family="Verdana" font-weight="bold" font-size="8.00">DefaultLogger</text>
<polygon fill="none" stroke="black" points="16,-471.5 16,-477.5 702,-477.5 702,-471.5 16,-471.5"/>
<polygon fill="none" stroke="black" points="16,-400.5 16,-471.5 702,-471.5 702,-400.5 16,-400.5"/>
<text text-anchor="start" x="21" y="-460.1" font-family="Verdana" font-size="8.00">+ __construct(stream : string, name : string = &#39;DefaultLoggerChannel&#39;, level : string = Psr\Log\LogLevel\:\:INFO, handler : mixed = «unknown», processors : array = [])</text>
<text text-anchor="start" x="21" y="-447.1" font-family="Verdana" font-size="8.00">+ isHandling(record : array) : bool</text>
<text text-anchor="start" x="21" y="-434.1" font-family="Verdana" font-size="8.00">+ log(level, message, context : array = []) : void</text>
<text text-anchor="start" x="21" y="-421.1" font-family="Verdana" font-size="8.00">+ handle(record : array) : void</text>
<text text-anchor="start" x="21" y="-408.1" font-family="Verdana" font-size="8.00">+ interpolate(record : array) : array</text>
</g>
<!-- Psr\\Log\\AbstractLogger -->
<g id="node2" class="node">
<title>Psr\\Log\\AbstractLogger</title>
<polygon fill="#fefece" stroke="transparent" points="517,-354 201,-354 201,-203 517,-203 517,-354"/>
<polygon fill="#eeeeee" stroke="transparent" points="201,-331.5 201,-353.5 517,-353.5 517,-331.5 201,-331.5"/>
<polygon fill="none" stroke="black" points="201,-331.5 201,-353.5 517,-353.5 517,-331.5 201,-331.5"/>
<text text-anchor="start" x="335" y="-345.1" font-family="Verdana" font-weight="bold" font-size="8.00">«abstract»</text>
<text text-anchor="start" x="324" y="-337.1" font-family="Verdana" font-weight="bold" font-size="8.00">AbstractLogger</text>
<polygon fill="none" stroke="black" points="201,-325.5 201,-331.5 517,-331.5 517,-325.5 201,-325.5"/>
<polygon fill="none" stroke="black" points="201,-202.5 201,-325.5 517,-325.5 517,-202.5 201,-202.5"/>
<text text-anchor="start" x="206" y="-314.1" font-family="Verdana" font-size="8.00">+ emergency(message : mixed, context : array = []) : void</text>
<text text-anchor="start" x="206" y="-301.1" font-family="Verdana" font-size="8.00">+ alert(message : mixed, context : array = []) : void</text>
<text text-anchor="start" x="206" y="-288.1" font-family="Verdana" font-size="8.00">+ critical(message : mixed, context : array = []) : void</text>
<text text-anchor="start" x="206" y="-275.1" font-family="Verdana" font-size="8.00">+ error(message : mixed, context : array = []) : void</text>
<text text-anchor="start" x="206" y="-262.1" font-family="Verdana" font-size="8.00">+ warning(message : mixed, context : array = []) : void</text>
<text text-anchor="start" x="206" y="-249.1" font-family="Verdana" font-size="8.00">+ notice(message : mixed, context : array = []) : void</text>
<text text-anchor="start" x="206" y="-236.1" font-family="Verdana" font-size="8.00">+ info(message : mixed, context : array = []) : void</text>
<text text-anchor="start" x="206" y="-223.1" font-family="Verdana" font-size="8.00">+ debug(message : mixed, context : array = []) : void</text>
<text text-anchor="start" x="206" y="-210.1" font-family="Verdana" font-size="8.00">+ «abstract» log(level : mixed, message : mixed, context : array = []) : void</text>
</g>
<!-- Bartlett\\CompatInfo\\Application\\Logger\\DefaultLogger&#45;&gt;Psr\\Log\\AbstractLogger -->
<g id="edge2" class="edge">
<title>Bartlett\\CompatInfo\\Application\\Logger\\DefaultLogger&#45;&gt;Psr\\Log\\AbstractLogger</title>
<path fill="none" stroke="black" d="M359,-400.78C359,-389.33 359,-376.79 359,-364.25"/>
<polygon fill="none" stroke="black" points="362.5,-364.22 359,-354.22 355.5,-364.22 362.5,-364.22"/>
</g>
<!-- Psr\\Log\\LoggerInterface -->
<g id="node3" class="node">
<title>Psr\\Log\\LoggerInterface</title>
<polygon fill="#fefece" stroke="transparent" points="517,-167 201,-167 201,-16 517,-16 517,-167"/>
<polygon fill="#eeeeee" stroke="transparent" points="201,-144.5 201,-166.5 517,-166.5 517,-144.5 201,-144.5"/>
<polygon fill="none" stroke="black" points="201,-144.5 201,-166.5 517,-166.5 517,-144.5 201,-144.5"/>
<text text-anchor="start" x="333" y="-158.1" font-family="Verdana" font-weight="bold" font-size="8.00">«interface»</text>
<text text-anchor="start" x="322.5" y="-150.1" font-family="Verdana" font-weight="bold" font-size="8.00">LoggerInterface</text>
<polygon fill="none" stroke="black" points="201,-138.5 201,-144.5 517,-144.5 517,-138.5 201,-138.5"/>
<polygon fill="none" stroke="black" points="201,-15.5 201,-138.5 517,-138.5 517,-15.5 201,-15.5"/>
<text text-anchor="start" x="206" y="-127.1" font-family="Verdana" font-size="8.00">+ «abstract» emergency(message : mixed, context : array = []) : void</text>
<text text-anchor="start" x="206" y="-114.1" font-family="Verdana" font-size="8.00">+ «abstract» alert(message : mixed, context : array = []) : void</text>
<text text-anchor="start" x="206" y="-101.1" font-family="Verdana" font-size="8.00">+ «abstract» critical(message : mixed, context : array = []) : void</text>
<text text-anchor="start" x="206" y="-88.1" font-family="Verdana" font-size="8.00">+ «abstract» error(message : mixed, context : array = []) : void</text>
<text text-anchor="start" x="206" y="-75.1" font-family="Verdana" font-size="8.00">+ «abstract» warning(message : mixed, context : array = []) : void</text>
<text text-anchor="start" x="206" y="-62.1" font-family="Verdana" font-size="8.00">+ «abstract» notice(message : mixed, context : array = []) : void</text>
<text text-anchor="start" x="206" y="-49.1" font-family="Verdana" font-size="8.00">+ «abstract» info(message : mixed, context : array = []) : void</text>
<text text-anchor="start" x="206" y="-36.1" font-family="Verdana" font-size="8.00">+ «abstract» debug(message : mixed, context : array = []) : void</text>
<text text-anchor="start" x="206" y="-23.1" font-family="Verdana" font-size="8.00">+ «abstract» log(level : mixed, message : mixed, context : array = []) : void</text>
</g>
<!-- Psr\\Log\\AbstractLogger&#45;&gt;Psr\\Log\\LoggerInterface -->
<g id="edge1" class="edge">
<title>Psr\\Log\\AbstractLogger&#45;&gt;Psr\\Log\\LoggerInterface</title>
<path fill="none" stroke="black" stroke-dasharray="5,2" d="M359,-202.79C359,-194.45 359,-185.9 359,-177.45"/>
<polygon fill="none" stroke="black" points="362.5,-177.19 359,-167.19 355.5,-177.19 362.5,-177.19"/>
</g>
</g>
</svg>
