<?xml version="1.0" encoding="UTF-8" standalone="no"?>
<!DOCTYPE svg PUBLIC "-//W3C//DTD SVG 1.1//EN"
 "http://www.w3.org/Graphics/SVG/1.1/DTD/svg11.dtd">
<!-- Generated by graphviz version 2.43.0 (0)
 -->
<!-- Title: %3 Pages: 1 -->
<svg width="2062pt" height="411pt"
 viewBox="0.00 0.00 2062.00 411.00" xmlns="http://www.w3.org/2000/svg" xmlns:xlink="http://www.w3.org/1999/xlink">
<g id="graph0" class="graph" transform="scale(1 1) rotate(0) translate(4 407)">
<title>%3</title>
<g id="clust1" class="cluster">
<title>cluster_0</title>
<polygon fill="#cdaa7d" stroke="black" points="8,-8 8,-395 2046,-395 2046,-8 8,-8"/>
<text text-anchor="middle" x="1027" y="-379.8" font-family="Times,serif" font-size="14.00">Bartlett\CompatInfo\Application\Polyfills</text>
</g>
<!-- Bartlett\\CompatInfo\\Application\\Polyfills\\PolyfillInterface -->
<g id="node1" class="node">
<title>Bartlett\\CompatInfo\\Application\\Polyfills\\PolyfillInterface</title>
<polygon fill="#fefece" stroke="transparent" points="1160.5,-108 893.5,-108 893.5,-16 1160.5,-16 1160.5,-108"/>
<polygon fill="#eeeeee" stroke="transparent" points="902,-70 902,-104 1153,-104 1153,-70 902,-70"/>
<polygon fill="none" stroke="black" points="902,-70 902,-104 1153,-104 1153,-70 902,-70"/>
<text text-anchor="start" x="982.5" y="-90.8" font-family="Times,serif" font-weight="bold" font-size="14.00">«interface»</text>
<text text-anchor="start" x="964" y="-76.8" font-family="Times,serif" font-weight="bold" font-size="14.00">PolyfillInterface</text>
<polygon fill="none" stroke="black" points="902,-64 902,-70 1153,-70 1153,-64 902,-64"/>
<polygon fill="none" stroke="black" points="902,-20 902,-64 1153,-64 1153,-20 902,-20"/>
<text text-anchor="start" x="907" y="-47.8" font-family="Times,serif" font-size="14.00">+ «abstract» getName() : string</text>
<text text-anchor="start" x="907" y="-28.8" font-family="Times,serif" font-size="14.00">+ «abstract» getVersion() : string</text>
</g>
<!-- Bartlett\\CompatInfo\\Application\\Polyfills\\SymfonyCtype -->
<g id="node2" class="node">
<title>Bartlett\\CompatInfo\\Application\\Polyfills\\SymfonyCtype</title>
<polygon fill="#fefece" stroke="transparent" points="2038,-364 1852,-364 1852,-272 2038,-272 2038,-364"/>
<polygon fill="#eeeeee" stroke="transparent" points="1860,-326 1860,-360 2030,-360 2030,-326 1860,-326"/>
<polygon fill="none" stroke="black" points="1860,-326 1860,-360 2030,-360 2030,-326 1860,-326"/>
<text text-anchor="start" x="1889" y="-332.8" font-family="Times,serif" font-weight="bold" font-size="14.00">SymfonyCtype</text>
<polygon fill="none" stroke="black" points="1860,-320 1860,-326 2030,-326 2030,-320 1860,-320"/>
<polygon fill="none" stroke="black" points="1860,-276 1860,-320 2030,-320 2030,-276 1860,-276"/>
<text text-anchor="start" x="1865" y="-303.8" font-family="Times,serif" font-size="14.00">+ getName() : string</text>
<text text-anchor="start" x="1865" y="-284.8" font-family="Times,serif" font-size="14.00">+ getVersion() : string</text>
</g>
<!-- Bartlett\\CompatInfo\\Application\\Polyfills\\AbstractPolyfillInstalled -->
<g id="node3" class="node">
<title>Bartlett\\CompatInfo\\Application\\Polyfills\\AbstractPolyfillInstalled</title>
<polygon fill="#fefece" stroke="transparent" points="1154.5,-236 899.5,-236 899.5,-144 1154.5,-144 1154.5,-236"/>
<polygon fill="#eeeeee" stroke="transparent" points="908,-198 908,-232 1147,-232 1147,-198 908,-198"/>
<polygon fill="none" stroke="black" points="908,-198 908,-232 1147,-232 1147,-198 908,-198"/>
<text text-anchor="start" x="985.5" y="-218.8" font-family="Times,serif" font-weight="bold" font-size="14.00">«abstract»</text>
<text text-anchor="start" x="931.5" y="-204.8" font-family="Times,serif" font-weight="bold" font-size="14.00">AbstractPolyfillInstalled</text>
<polygon fill="none" stroke="black" points="908,-192 908,-198 1147,-198 1147,-192 908,-192"/>
<polygon fill="none" stroke="black" points="908,-148 908,-192 1147,-192 1147,-148 908,-148"/>
<text text-anchor="start" x="913" y="-175.8" font-family="Times,serif" font-size="14.00">+ «abstract» getName() : string</text>
<text text-anchor="start" x="913" y="-156.8" font-family="Times,serif" font-size="14.00">+ getVersion() : string</text>
</g>
<!-- Bartlett\\CompatInfo\\Application\\Polyfills\\SymfonyCtype&#45;&gt;Bartlett\\CompatInfo\\Application\\Polyfills\\AbstractPolyfillInstalled -->
<g id="edge2" class="edge">
<title>Bartlett\\CompatInfo\\Application\\Polyfills\\SymfonyCtype&#45;&gt;Bartlett\\CompatInfo\\Application\\Polyfills\\AbstractPolyfillInstalled</title>
<path fill="none" stroke="black" d="M1851.76,-274.5C1848.83,-273.6 1845.9,-272.76 1843,-272 1610.2,-210.76 1328.95,-195.08 1164.81,-191.49"/>
<polygon fill="none" stroke="black" points="1164.72,-187.99 1154.65,-191.29 1164.58,-194.99 1164.72,-187.99"/>
</g>
<!-- Bartlett\\CompatInfo\\Application\\Polyfills\\AbstractPolyfillInstalled&#45;&gt;Bartlett\\CompatInfo\\Application\\Polyfills\\PolyfillInterface -->
<g id="edge1" class="edge">
<title>Bartlett\\CompatInfo\\Application\\Polyfills\\AbstractPolyfillInstalled&#45;&gt;Bartlett\\CompatInfo\\Application\\Polyfills\\PolyfillInterface</title>
<path fill="none" stroke="black" stroke-dasharray="5,2" d="M1027,-143.87C1027,-135.63 1027,-126.96 1027,-118.47"/>
<polygon fill="none" stroke="black" points="1030.5,-118.24 1027,-108.24 1023.5,-118.24 1030.5,-118.24"/>
</g>
<!-- Bartlett\\CompatInfo\\Application\\Polyfills\\SymfonyIconv -->
<g id="node4" class="node">
<title>Bartlett\\CompatInfo\\Application\\Polyfills\\SymfonyIconv</title>
<polygon fill="#fefece" stroke="transparent" points="1834,-364 1648,-364 1648,-272 1834,-272 1834,-364"/>
<polygon fill="#eeeeee" stroke="transparent" points="1656,-326 1656,-360 1826,-360 1826,-326 1656,-326"/>
<polygon fill="none" stroke="black" points="1656,-326 1656,-360 1826,-360 1826,-326 1656,-326"/>
<text text-anchor="start" x="1686" y="-332.8" font-family="Times,serif" font-weight="bold" font-size="14.00">SymfonyIconv</text>
<polygon fill="none" stroke="black" points="1656,-320 1656,-326 1826,-326 1826,-320 1656,-320"/>
<polygon fill="none" stroke="black" points="1656,-276 1656,-320 1826,-320 1826,-276 1656,-276"/>
<text text-anchor="start" x="1661" y="-303.8" font-family="Times,serif" font-size="14.00">+ getName() : string</text>
<text text-anchor="start" x="1661" y="-284.8" font-family="Times,serif" font-size="14.00">+ getVersion() : string</text>
</g>
<!-- Bartlett\\CompatInfo\\Application\\Polyfills\\SymfonyIconv&#45;&gt;Bartlett\\CompatInfo\\Application\\Polyfills\\AbstractPolyfillInstalled -->
<g id="edge3" class="edge">
<title>Bartlett\\CompatInfo\\Application\\Polyfills\\SymfonyIconv&#45;&gt;Bartlett\\CompatInfo\\Application\\Polyfills\\AbstractPolyfillInstalled</title>
<path fill="none" stroke="black" d="M1647.72,-274.62C1644.8,-273.69 1641.89,-272.81 1639,-272 1479.75,-227.32 1290.11,-207.07 1164.58,-198.04"/>
<polygon fill="none" stroke="black" points="1164.75,-194.54 1154.52,-197.33 1164.25,-201.52 1164.75,-194.54"/>
</g>
<!-- Bartlett\\CompatInfo\\Application\\Polyfills\\SymfonyMbstring -->
<g id="node5" class="node">
<title>Bartlett\\CompatInfo\\Application\\Polyfills\\SymfonyMbstring</title>
<polygon fill="#fefece" stroke="transparent" points="1630,-364 1444,-364 1444,-272 1630,-272 1630,-364"/>
<polygon fill="#eeeeee" stroke="transparent" points="1452,-326 1452,-360 1622,-360 1622,-326 1452,-326"/>
<polygon fill="none" stroke="black" points="1452,-326 1452,-360 1622,-360 1622,-326 1452,-326"/>
<text text-anchor="start" x="1466.5" y="-332.8" font-family="Times,serif" font-weight="bold" font-size="14.00">SymfonyMbstring</text>
<polygon fill="none" stroke="black" points="1452,-320 1452,-326 1622,-326 1622,-320 1452,-320"/>
<polygon fill="none" stroke="black" points="1452,-276 1452,-320 1622,-320 1622,-276 1452,-276"/>
<text text-anchor="start" x="1457" y="-303.8" font-family="Times,serif" font-size="14.00">+ getName() : string</text>
<text text-anchor="start" x="1457" y="-284.8" font-family="Times,serif" font-size="14.00">+ getVersion() : string</text>
</g>
<!-- Bartlett\\CompatInfo\\Application\\Polyfills\\SymfonyMbstring&#45;&gt;Bartlett\\CompatInfo\\Application\\Polyfills\\AbstractPolyfillInstalled -->
<g id="edge4" class="edge">
<title>Bartlett\\CompatInfo\\Application\\Polyfills\\SymfonyMbstring&#45;&gt;Bartlett\\CompatInfo\\Application\\Polyfills\\AbstractPolyfillInstalled</title>
<path fill="none" stroke="black" d="M1443.93,-274.96C1440.94,-273.92 1437.95,-272.93 1435,-272 1346.83,-244.17 1244.81,-223.92 1164.84,-210.63"/>
<polygon fill="none" stroke="black" points="1165.14,-207.13 1154.71,-208.96 1164,-214.03 1165.14,-207.13"/>
</g>
<!-- Bartlett\\CompatInfo\\Application\\Polyfills\\SymfonyPhp70 -->
<g id="node6" class="node">
<title>Bartlett\\CompatInfo\\Application\\Polyfills\\SymfonyPhp70</title>
<polygon fill="#fefece" stroke="transparent" points="1426,-364 1240,-364 1240,-272 1426,-272 1426,-364"/>
<polygon fill="#eeeeee" stroke="transparent" points="1248,-326 1248,-360 1418,-360 1418,-326 1248,-326"/>
<polygon fill="none" stroke="black" points="1248,-326 1248,-360 1418,-360 1418,-326 1248,-326"/>
<text text-anchor="start" x="1274" y="-332.8" font-family="Times,serif" font-weight="bold" font-size="14.00">SymfonyPhp70</text>
<polygon fill="none" stroke="black" points="1248,-320 1248,-326 1418,-326 1418,-320 1248,-320"/>
<polygon fill="none" stroke="black" points="1248,-276 1248,-320 1418,-320 1418,-276 1248,-276"/>
<text text-anchor="start" x="1253" y="-303.8" font-family="Times,serif" font-size="14.00">+ getName() : string</text>
<text text-anchor="start" x="1253" y="-284.8" font-family="Times,serif" font-size="14.00">+ getVersion() : string</text>
</g>
<!-- Bartlett\\CompatInfo\\Application\\Polyfills\\SymfonyPhp70&#45;&gt;Bartlett\\CompatInfo\\Application\\Polyfills\\AbstractPolyfillInstalled -->
<g id="edge5" class="edge">
<title>Bartlett\\CompatInfo\\Application\\Polyfills\\SymfonyPhp70&#45;&gt;Bartlett\\CompatInfo\\Application\\Polyfills\\AbstractPolyfillInstalled</title>
<path fill="none" stroke="black" d="M1239.95,-275.78C1236.94,-274.5 1233.95,-273.23 1231,-272 1205.65,-261.38 1178.38,-250.31 1152.3,-239.89"/>
<polygon fill="none" stroke="black" points="1153.33,-236.54 1142.74,-236.08 1150.74,-243.04 1153.33,-236.54"/>
</g>
<!-- Bartlett\\CompatInfo\\Application\\Polyfills\\SymfonyPhp71 -->
<g id="node7" class="node">
<title>Bartlett\\CompatInfo\\Application\\Polyfills\\SymfonyPhp71</title>
<polygon fill="#fefece" stroke="transparent" points="1222,-364 1036,-364 1036,-272 1222,-272 1222,-364"/>
<polygon fill="#eeeeee" stroke="transparent" points="1044,-326 1044,-360 1214,-360 1214,-326 1044,-326"/>
<polygon fill="none" stroke="black" points="1044,-326 1044,-360 1214,-360 1214,-326 1044,-326"/>
<text text-anchor="start" x="1070" y="-332.8" font-family="Times,serif" font-weight="bold" font-size="14.00">SymfonyPhp71</text>
<polygon fill="none" stroke="black" points="1044,-320 1044,-326 1214,-326 1214,-320 1044,-320"/>
<polygon fill="none" stroke="black" points="1044,-276 1044,-320 1214,-320 1214,-276 1044,-276"/>
<text text-anchor="start" x="1049" y="-303.8" font-family="Times,serif" font-size="14.00">+ getName() : string</text>
<text text-anchor="start" x="1049" y="-284.8" font-family="Times,serif" font-size="14.00">+ getVersion() : string</text>
</g>
<!-- Bartlett\\CompatInfo\\Application\\Polyfills\\SymfonyPhp71&#45;&gt;Bartlett\\CompatInfo\\Application\\Polyfills\\AbstractPolyfillInstalled -->
<g id="edge6" class="edge">
<title>Bartlett\\CompatInfo\\Application\\Polyfills\\SymfonyPhp71&#45;&gt;Bartlett\\CompatInfo\\Application\\Polyfills\\AbstractPolyfillInstalled</title>
<path fill="none" stroke="black" d="M1092.46,-271.87C1085.21,-262.91 1077.54,-253.43 1070.09,-244.23"/>
<polygon fill="none" stroke="black" points="1072.64,-241.81 1063.62,-236.24 1067.2,-246.22 1072.64,-241.81"/>
</g>
<!-- Bartlett\\CompatInfo\\Application\\Polyfills\\SymfonyPhp72 -->
<g id="node8" class="node">
<title>Bartlett\\CompatInfo\\Application\\Polyfills\\SymfonyPhp72</title>
<polygon fill="#fefece" stroke="transparent" points="1018,-364 832,-364 832,-272 1018,-272 1018,-364"/>
<polygon fill="#eeeeee" stroke="transparent" points="840,-326 840,-360 1010,-360 1010,-326 840,-326"/>
<polygon fill="none" stroke="black" points="840,-326 840,-360 1010,-360 1010,-326 840,-326"/>
<text text-anchor="start" x="866" y="-332.8" font-family="Times,serif" font-weight="bold" font-size="14.00">SymfonyPhp72</text>
<polygon fill="none" stroke="black" points="840,-320 840,-326 1010,-326 1010,-320 840,-320"/>
<polygon fill="none" stroke="black" points="840,-276 840,-320 1010,-320 1010,-276 840,-276"/>
<text text-anchor="start" x="845" y="-303.8" font-family="Times,serif" font-size="14.00">+ getName() : string</text>
<text text-anchor="start" x="845" y="-284.8" font-family="Times,serif" font-size="14.00">+ getVersion() : string</text>
</g>
<!-- Bartlett\\CompatInfo\\Application\\Polyfills\\SymfonyPhp72&#45;&gt;Bartlett\\CompatInfo\\Application\\Polyfills\\AbstractPolyfillInstalled -->
<g id="edge7" class="edge">
<title>Bartlett\\CompatInfo\\Application\\Polyfills\\SymfonyPhp72&#45;&gt;Bartlett\\CompatInfo\\Application\\Polyfills\\AbstractPolyfillInstalled</title>
<path fill="none" stroke="black" d="M961.54,-271.87C968.79,-262.91 976.46,-253.43 983.91,-244.23"/>
<polygon fill="none" stroke="black" points="986.8,-246.22 990.38,-236.24 981.36,-241.81 986.8,-246.22"/>
</g>
<!-- Bartlett\\CompatInfo\\Application\\Polyfills\\SymfonyPhp73 -->
<g id="node9" class="node">
<title>Bartlett\\CompatInfo\\Application\\Polyfills\\SymfonyPhp73</title>
<polygon fill="#fefece" stroke="transparent" points="814,-364 628,-364 628,-272 814,-272 814,-364"/>
<polygon fill="#eeeeee" stroke="transparent" points="636,-326 636,-360 806,-360 806,-326 636,-326"/>
<polygon fill="none" stroke="black" points="636,-326 636,-360 806,-360 806,-326 636,-326"/>
<text text-anchor="start" x="662" y="-332.8" font-family="Times,serif" font-weight="bold" font-size="14.00">SymfonyPhp73</text>
<polygon fill="none" stroke="black" points="636,-320 636,-326 806,-326 806,-320 636,-320"/>
<polygon fill="none" stroke="black" points="636,-276 636,-320 806,-320 806,-276 636,-276"/>
<text text-anchor="start" x="641" y="-303.8" font-family="Times,serif" font-size="14.00">+ getName() : string</text>
<text text-anchor="start" x="641" y="-284.8" font-family="Times,serif" font-size="14.00">+ getVersion() : string</text>
</g>
<!-- Bartlett\\CompatInfo\\Application\\Polyfills\\SymfonyPhp73&#45;&gt;Bartlett\\CompatInfo\\Application\\Polyfills\\AbstractPolyfillInstalled -->
<g id="edge8" class="edge">
<title>Bartlett\\CompatInfo\\Application\\Polyfills\\SymfonyPhp73&#45;&gt;Bartlett\\CompatInfo\\Application\\Polyfills\\AbstractPolyfillInstalled</title>
<path fill="none" stroke="black" d="M814.05,-275.78C817.06,-274.5 820.05,-273.23 823,-272 848.35,-261.38 875.62,-250.31 901.7,-239.89"/>
<polygon fill="none" stroke="black" points="903.26,-243.04 911.26,-236.08 900.67,-236.54 903.26,-243.04"/>
</g>
<!-- Bartlett\\CompatInfo\\Application\\Polyfills\\SymfonyPhp74 -->
<g id="node10" class="node">
<title>Bartlett\\CompatInfo\\Application\\Polyfills\\SymfonyPhp74</title>
<polygon fill="#fefece" stroke="transparent" points="610,-364 424,-364 424,-272 610,-272 610,-364"/>
<polygon fill="#eeeeee" stroke="transparent" points="432,-326 432,-360 602,-360 602,-326 432,-326"/>
<polygon fill="none" stroke="black" points="432,-326 432,-360 602,-360 602,-326 432,-326"/>
<text text-anchor="start" x="458" y="-332.8" font-family="Times,serif" font-weight="bold" font-size="14.00">SymfonyPhp74</text>
<polygon fill="none" stroke="black" points="432,-320 432,-326 602,-326 602,-320 432,-320"/>
<polygon fill="none" stroke="black" points="432,-276 432,-320 602,-320 602,-276 432,-276"/>
<text text-anchor="start" x="437" y="-303.8" font-family="Times,serif" font-size="14.00">+ getName() : string</text>
<text text-anchor="start" x="437" y="-284.8" font-family="Times,serif" font-size="14.00">+ getVersion() : string</text>
</g>
<!-- Bartlett\\CompatInfo\\Application\\Polyfills\\SymfonyPhp74&#45;&gt;Bartlett\\CompatInfo\\Application\\Polyfills\\AbstractPolyfillInstalled -->
<g id="edge9" class="edge">
<title>Bartlett\\CompatInfo\\Application\\Polyfills\\SymfonyPhp74&#45;&gt;Bartlett\\CompatInfo\\Application\\Polyfills\\AbstractPolyfillInstalled</title>
<path fill="none" stroke="black" d="M610.07,-274.96C613.06,-273.92 616.05,-272.93 619,-272 707.17,-244.17 809.19,-223.92 889.16,-210.63"/>
<polygon fill="none" stroke="black" points="890,-214.03 899.29,-208.96 888.86,-207.13 890,-214.03"/>
</g>
<!-- Bartlett\\CompatInfo\\Application\\Polyfills\\SymfonyPhp80 -->
<g id="node11" class="node">
<title>Bartlett\\CompatInfo\\Application\\Polyfills\\SymfonyPhp80</title>
<polygon fill="#fefece" stroke="transparent" points="406,-364 220,-364 220,-272 406,-272 406,-364"/>
<polygon fill="#eeeeee" stroke="transparent" points="228,-326 228,-360 398,-360 398,-326 228,-326"/>
<polygon fill="none" stroke="black" points="228,-326 228,-360 398,-360 398,-326 228,-326"/>
<text text-anchor="start" x="254" y="-332.8" font-family="Times,serif" font-weight="bold" font-size="14.00">SymfonyPhp80</text>
<polygon fill="none" stroke="black" points="228,-320 228,-326 398,-326 398,-320 228,-320"/>
<polygon fill="none" stroke="black" points="228,-276 228,-320 398,-320 398,-276 228,-276"/>
<text text-anchor="start" x="233" y="-303.8" font-family="Times,serif" font-size="14.00">+ getName() : string</text>
<text text-anchor="start" x="233" y="-284.8" font-family="Times,serif" font-size="14.00">+ getVersion() : string</text>
</g>
<!-- Bartlett\\CompatInfo\\Application\\Polyfills\\SymfonyPhp80&#45;&gt;Bartlett\\CompatInfo\\Application\\Polyfills\\AbstractPolyfillInstalled -->
<g id="edge10" class="edge">
<title>Bartlett\\CompatInfo\\Application\\Polyfills\\SymfonyPhp80&#45;&gt;Bartlett\\CompatInfo\\Application\\Polyfills\\AbstractPolyfillInstalled</title>
<path fill="none" stroke="black" d="M406.28,-274.62C409.2,-273.69 412.11,-272.81 415,-272 574.25,-227.32 763.89,-207.07 889.42,-198.04"/>
<polygon fill="none" stroke="black" points="889.75,-201.52 899.48,-197.33 889.25,-194.54 889.75,-201.52"/>
</g>
<!-- Bartlett\\CompatInfo\\Application\\Polyfills\\SymfonyPhp81 -->
<g id="node12" class="node">
<title>Bartlett\\CompatInfo\\Application\\Polyfills\\SymfonyPhp81</title>
<polygon fill="#fefece" stroke="transparent" points="202,-364 16,-364 16,-272 202,-272 202,-364"/>
<polygon fill="#eeeeee" stroke="transparent" points="24,-326 24,-360 194,-360 194,-326 24,-326"/>
<polygon fill="none" stroke="black" points="24,-326 24,-360 194,-360 194,-326 24,-326"/>
<text text-anchor="start" x="50" y="-332.8" font-family="Times,serif" font-weight="bold" font-size="14.00">SymfonyPhp81</text>
<polygon fill="none" stroke="black" points="24,-320 24,-326 194,-326 194,-320 24,-320"/>
<polygon fill="none" stroke="black" points="24,-276 24,-320 194,-320 194,-276 24,-276"/>
<text text-anchor="start" x="29" y="-303.8" font-family="Times,serif" font-size="14.00">+ getName() : string</text>
<text text-anchor="start" x="29" y="-284.8" font-family="Times,serif" font-size="14.00">+ getVersion() : string</text>
</g>
<!-- Bartlett\\CompatInfo\\Application\\Polyfills\\SymfonyPhp81&#45;&gt;Bartlett\\CompatInfo\\Application\\Polyfills\\AbstractPolyfillInstalled -->
<g id="edge11" class="edge">
<title>Bartlett\\CompatInfo\\Application\\Polyfills\\SymfonyPhp81&#45;&gt;Bartlett\\CompatInfo\\Application\\Polyfills\\AbstractPolyfillInstalled</title>
<path fill="none" stroke="black" d="M202.24,-274.5C205.17,-273.6 208.1,-272.76 211,-272 443.8,-210.76 725.05,-195.08 889.19,-191.49"/>
<polygon fill="none" stroke="black" points="889.42,-194.99 899.35,-191.29 889.28,-187.99 889.42,-194.99"/>
</g>
</g>
</svg>
