<?xml version="1.0" encoding="UTF-8" standalone="no"?>
<!DOCTYPE svg PUBLIC "-//W3C//DTD SVG 1.1//EN"
 "http://www.w3.org/Graphics/SVG/1.1/DTD/svg11.dtd">
<!-- Generated by graphviz version 2.43.0 (0)
 -->
<!-- Title: %3 Pages: 1 -->
<svg width="1726pt" height="1381pt"
 viewBox="0.00 0.00 1726.00 1381.00" xmlns="http://www.w3.org/2000/svg" xmlns:xlink="http://www.w3.org/1999/xlink">
<g id="graph0" class="graph" transform="scale(1 1) rotate(0) translate(4 1377)">
<title>%3</title>
<g id="clust1" class="cluster">
<title>cluster_0</title>
<polygon fill="transparent" stroke="black" points="820,-1240 820,-1365 1269,-1365 1269,-1240 820,-1240"/>
<text text-anchor="middle" x="1044.5" y="-1349.8" font-family="Times,serif" font-size="14.00">Bartlett\CompatInfo\Application\DataCollector\ErrorHandler</text>
</g>
<g id="clust2" class="cluster">
<title>cluster_1</title>
<polygon fill="transparent" stroke="black" points="187,-213 187,-1232 723,-1232 723,-213 187,-213"/>
<text text-anchor="middle" x="455" y="-1216.8" font-family="Times,serif" font-size="14.00">Doctrine\Common\Collections</text>
</g>
<g id="clust3" class="cluster">
<title>cluster_2</title>
<polygon fill="transparent" stroke="black" points="8,-8 8,-205 657,-205 657,-8 8,-8"/>
<text text-anchor="middle" x="332.5" y="-189.8" font-family="Times,serif" font-size="14.00">0</text>
</g>
<g id="clust4" class="cluster">
<title>cluster_3</title>
<polygon fill="BurlyWood" stroke="black" points="731,-278 731,-1121.5 1236,-1121.5 1236,-278 731,-278"/>
<text text-anchor="middle" x="983.5" y="-1106.3" font-family="Times,serif" font-size="14.00">Bartlett\CompatInfo\Application\DataCollector</text>
</g>
<g id="clust5" class="cluster">
<title>cluster_4</title>
<polygon fill="transparent" stroke="black" points="1244,-588.5 1244,-674.5 1470,-674.5 1470,-588.5 1244,-588.5"/>
<text text-anchor="middle" x="1357" y="-659.3" font-family="Times,serif" font-size="14.00">PhpParser</text>
</g>
<g id="clust6" class="cluster">
<title>cluster_5</title>
<polygon fill="transparent" stroke="black" points="1277,-1253 1277,-1352 1710,-1352 1710,-1253 1277,-1253"/>
<text text-anchor="middle" x="1493.5" y="-1336.8" font-family="Times,serif" font-size="14.00">Bartlett\CompatInfo\Application\DataCollector\Normalizer</text>
</g>
<g id="clust7" class="cluster">
<title>cluster_6</title>
<polygon fill="transparent" stroke="black" points="1272,-931.5 1272,-1030.5 1660,-1030.5 1660,-931.5 1272,-931.5"/>
<text text-anchor="middle" x="1466" y="-1015.3" font-family="Times,serif" font-size="14.00">Symfony\Component\Serializer\Normalizer</text>
</g>
<!-- Bartlett\\CompatInfo\\Application\\DataCollector\\ErrorHandler\\Collecting -->
<g id="node1" class="node">
<title>Bartlett\\CompatInfo\\Application\\DataCollector\\ErrorHandler\\Collecting</title>
<polygon fill="#fefece" stroke="transparent" points="1035,-1334 871,-1334 871,-1248 1035,-1248 1035,-1334"/>
<polygon fill="#eeeeee" stroke="transparent" points="871,-1312 871,-1334 1035,-1334 1035,-1312 871,-1312"/>
<polygon fill="none" stroke="black" points="871,-1312 871,-1334 1035,-1334 1035,-1312 871,-1312"/>
<text text-anchor="start" x="930" y="-1317.6" font-family="Verdana" font-weight="bold" font-size="8.00">Collecting</text>
<polygon fill="none" stroke="black" points="871,-1306 871,-1312 1035,-1312 1035,-1306 871,-1306"/>
<polygon fill="none" stroke="black" points="871,-1248 871,-1306 1035,-1306 1035,-1248 871,-1248"/>
<text text-anchor="start" x="876" y="-1294.6" font-family="Verdana" font-size="8.00">+ handleError(error : PhpParser\Error)</text>
<text text-anchor="start" x="876" y="-1281.6" font-family="Verdana" font-size="8.00">+ getErrors() : array</text>
<text text-anchor="start" x="876" y="-1268.6" font-family="Verdana" font-size="8.00">+ hasErrors() : bool</text>
<text text-anchor="start" x="876" y="-1255.6" font-family="Verdana" font-size="8.00">+ clearErrors() : void</text>
</g>
<!-- Doctrine\\Common\\Collections\\ArrayCollection -->
<g id="node3" class="node">
<title>Doctrine\\Common\\Collections\\ArrayCollection</title>
<polygon fill="#fefece" stroke="transparent" points="571,-1201 317,-1201 317,-738 571,-738 571,-1201"/>
<polygon fill="#eeeeee" stroke="transparent" points="317,-1178.5 317,-1200.5 571,-1200.5 571,-1178.5 317,-1178.5"/>
<polygon fill="none" stroke="black" points="317,-1178.5 317,-1200.5 571,-1200.5 571,-1178.5 317,-1178.5"/>
<text text-anchor="start" x="409" y="-1184.1" font-family="Verdana" font-weight="bold" font-size="8.00">ArrayCollection</text>
<polygon fill="none" stroke="black" points="317,-1172.5 317,-1178.5 571,-1178.5 571,-1172.5 317,-1172.5"/>
<polygon fill="none" stroke="black" points="317,-737.5 317,-1172.5 571,-1172.5 571,-737.5 317,-737.5"/>
<text text-anchor="start" x="322" y="-1161.1" font-family="Verdana" font-size="8.00">+ __construct(elements : array = [])</text>
<text text-anchor="start" x="322" y="-1148.1" font-family="Verdana" font-size="8.00">+ toArray()</text>
<text text-anchor="start" x="322" y="-1135.1" font-family="Verdana" font-size="8.00">+ first()</text>
<text text-anchor="start" x="322" y="-1122.1" font-family="Verdana" font-size="8.00">+ last()</text>
<text text-anchor="start" x="322" y="-1109.1" font-family="Verdana" font-size="8.00">+ key()</text>
<text text-anchor="start" x="322" y="-1096.1" font-family="Verdana" font-size="8.00">+ next()</text>
<text text-anchor="start" x="322" y="-1083.1" font-family="Verdana" font-size="8.00">+ current()</text>
<text text-anchor="start" x="322" y="-1070.1" font-family="Verdana" font-size="8.00">+ remove(key)</text>
<text text-anchor="start" x="322" y="-1057.1" font-family="Verdana" font-size="8.00">+ removeElement(element)</text>
<text text-anchor="start" x="322" y="-1044.1" font-family="Verdana" font-size="8.00">+ offsetExists(offset : TKey)</text>
<text text-anchor="start" x="322" y="-1031.1" font-family="Verdana" font-size="8.00">+ offsetGet(offset : TKey)</text>
<text text-anchor="start" x="322" y="-1018.1" font-family="Verdana" font-size="8.00">+ offsetSet(offset : mixed, value : T)</text>
<text text-anchor="start" x="322" y="-1005.1" font-family="Verdana" font-size="8.00">+ offsetUnset(offset : TKey)</text>
<text text-anchor="start" x="322" y="-992.1" font-family="Verdana" font-size="8.00">+ containsKey(key)</text>
<text text-anchor="start" x="322" y="-979.1" font-family="Verdana" font-size="8.00">+ contains(element)</text>
<text text-anchor="start" x="322" y="-966.1" font-family="Verdana" font-size="8.00">+ exists(p : Closure)</text>
<text text-anchor="start" x="322" y="-953.1" font-family="Verdana" font-size="8.00">+ indexOf(element)</text>
<text text-anchor="start" x="322" y="-940.1" font-family="Verdana" font-size="8.00">+ get(key)</text>
<text text-anchor="start" x="322" y="-927.1" font-family="Verdana" font-size="8.00">+ getKeys()</text>
<text text-anchor="start" x="322" y="-914.1" font-family="Verdana" font-size="8.00">+ getValues()</text>
<text text-anchor="start" x="322" y="-901.1" font-family="Verdana" font-size="8.00">+ count()</text>
<text text-anchor="start" x="322" y="-888.1" font-family="Verdana" font-size="8.00">+ set(key, value)</text>
<text text-anchor="start" x="322" y="-875.1" font-family="Verdana" font-size="8.00">+ add(element)</text>
<text text-anchor="start" x="322" y="-862.1" font-family="Verdana" font-size="8.00">+ isEmpty()</text>
<text text-anchor="start" x="322" y="-849.1" font-family="Verdana" font-size="8.00">+ getIterator()</text>
<text text-anchor="start" x="322" y="-836.1" font-family="Verdana" font-size="8.00">+ map(func : Closure)</text>
<text text-anchor="start" x="322" y="-823.1" font-family="Verdana" font-size="8.00">+ filter(p : Closure)</text>
<text text-anchor="start" x="322" y="-810.1" font-family="Verdana" font-size="8.00">+ forAll(p : Closure)</text>
<text text-anchor="start" x="322" y="-797.1" font-family="Verdana" font-size="8.00">+ partition(p : Closure)</text>
<text text-anchor="start" x="322" y="-784.1" font-family="Verdana" font-size="8.00">+ __toString() : string</text>
<text text-anchor="start" x="322" y="-771.1" font-family="Verdana" font-size="8.00">+ clear()</text>
<text text-anchor="start" x="322" y="-758.1" font-family="Verdana" font-size="8.00">+ slice(offset, length = «unknown»)</text>
<text text-anchor="start" x="322" y="-745.1" font-family="Verdana" font-size="8.00">+ matching(criteria : Doctrine\Common\Collections\Criteria)</text>
</g>
<!-- Bartlett\\CompatInfo\\Application\\DataCollector\\ErrorHandler\\Collecting&#45;&gt;Doctrine\\Common\\Collections\\ArrayCollection -->
<g id="edge9" class="edge">
<title>Bartlett\\CompatInfo\\Application\\DataCollector\\ErrorHandler\\Collecting&#45;&gt;Doctrine\\Common\\Collections\\ArrayCollection</title>
<path fill="none" stroke="black" d="M870.96,-1279C826.4,-1270.61 771.47,-1256.21 727,-1232 673.43,-1202.84 622.13,-1161.28 578.26,-1119.85"/>
<polygon fill="none" stroke="black" points="580.66,-1117.3 571.01,-1112.93 575.83,-1122.37 580.66,-1117.3"/>
</g>
<!-- Bartlett\\CompatInfo\\Application\\DataCollector\\ErrorHandler -->
<g id="node12" class="node">
<title>Bartlett\\CompatInfo\\Application\\DataCollector\\ErrorHandler</title>
<polygon fill="#fefece" stroke="transparent" points="1227.5,-1006 1086.5,-1006 1086.5,-933 1227.5,-933 1227.5,-1006"/>
<polygon fill="#eeeeee" stroke="transparent" points="1087,-983.5 1087,-1005.5 1228,-1005.5 1228,-983.5 1087,-983.5"/>
<polygon fill="none" stroke="black" points="1087,-983.5 1087,-1005.5 1228,-1005.5 1228,-983.5 1087,-983.5"/>
<text text-anchor="start" x="1131.5" y="-997.1" font-family="Verdana" font-weight="bold" font-size="8.00">«interface»</text>
<text text-anchor="start" x="1128.5" y="-989.1" font-family="Verdana" font-weight="bold" font-size="8.00">ErrorHandler</text>
<polygon fill="none" stroke="black" points="1087,-977.5 1087,-983.5 1228,-983.5 1228,-977.5 1087,-977.5"/>
<polygon fill="none" stroke="black" points="1087,-932.5 1087,-977.5 1228,-977.5 1228,-932.5 1087,-932.5"/>
<text text-anchor="start" x="1092" y="-966.1" font-family="Verdana" font-size="8.00">+ «abstract» getErrors() : array</text>
<text text-anchor="start" x="1092" y="-953.1" font-family="Verdana" font-size="8.00">+ «abstract» hasErrors() : bool</text>
<text text-anchor="start" x="1092" y="-940.1" font-family="Verdana" font-size="8.00">+ «abstract» clearErrors() : void</text>
</g>
<!-- Bartlett\\CompatInfo\\Application\\DataCollector\\ErrorHandler\\Collecting&#45;&gt;Bartlett\\CompatInfo\\Application\\DataCollector\\ErrorHandler -->
<g id="edge11" class="edge">
<title>Bartlett\\CompatInfo\\Application\\DataCollector\\ErrorHandler\\Collecting&#45;&gt;Bartlett\\CompatInfo\\Application\\DataCollector\\ErrorHandler</title>
<path fill="none" stroke="black" stroke-dasharray="5,2" d="M1035.06,-1254.63C1055.83,-1245.06 1073.36,-1236.19 1077,-1232 1130.63,-1170.24 1148.31,-1073.18 1154.13,-1016.3"/>
<polygon fill="none" stroke="black" points="1157.64,-1016.45 1155.09,-1006.16 1150.67,-1015.79 1157.64,-1016.45"/>
</g>
<!-- Bartlett\\CompatInfo\\Application\\DataCollector\\ErrorHandler\\Throwing -->
<g id="node2" class="node">
<title>Bartlett\\CompatInfo\\Application\\DataCollector\\ErrorHandler\\Throwing</title>
<polygon fill="#fefece" stroke="transparent" points="1239,-1334 1075,-1334 1075,-1248 1239,-1248 1239,-1334"/>
<polygon fill="#eeeeee" stroke="transparent" points="1075,-1312 1075,-1334 1239,-1334 1239,-1312 1075,-1312"/>
<polygon fill="none" stroke="black" points="1075,-1312 1075,-1334 1239,-1334 1239,-1312 1075,-1312"/>
<text text-anchor="start" x="1135.5" y="-1317.6" font-family="Verdana" font-weight="bold" font-size="8.00">Throwing</text>
<polygon fill="none" stroke="black" points="1075,-1306 1075,-1312 1239,-1312 1239,-1306 1075,-1306"/>
<polygon fill="none" stroke="black" points="1075,-1248 1075,-1306 1239,-1306 1239,-1248 1075,-1248"/>
<text text-anchor="start" x="1080" y="-1294.6" font-family="Verdana" font-size="8.00">+ handleError(error : PhpParser\Error)</text>
<text text-anchor="start" x="1080" y="-1281.6" font-family="Verdana" font-size="8.00">+ hasErrors() : bool</text>
<text text-anchor="start" x="1080" y="-1268.6" font-family="Verdana" font-size="8.00">+ getErrors() : array</text>
<text text-anchor="start" x="1080" y="-1255.6" font-family="Verdana" font-size="8.00">+ clearErrors() : void</text>
</g>
<!-- Bartlett\\CompatInfo\\Application\\DataCollector\\ErrorHandler\\Throwing&#45;&gt;Bartlett\\CompatInfo\\Application\\DataCollector\\ErrorHandler -->
<g id="edge12" class="edge">
<title>Bartlett\\CompatInfo\\Application\\DataCollector\\ErrorHandler\\Throwing&#45;&gt;Bartlett\\CompatInfo\\Application\\DataCollector\\ErrorHandler</title>
<path fill="none" stroke="black" stroke-dasharray="5,2" d="M1157,-1247.9C1157,-1187.99 1157,-1078.55 1157,-1016.55"/>
<polygon fill="none" stroke="black" points="1160.5,-1016.28 1157,-1006.28 1153.5,-1016.28 1160.5,-1016.28"/>
</g>
<!-- Doctrine\\Common\\Collections\\Collection -->
<g id="node4" class="node">
<title>Doctrine\\Common\\Collections\\Collection</title>
<polygon fill="#fefece" stroke="transparent" points="397.5,-682.5 194.5,-682.5 194.5,-557.5 397.5,-557.5 397.5,-682.5"/>
<polygon fill="#eeeeee" stroke="transparent" points="195,-660 195,-682 398,-682 398,-660 195,-660"/>
<polygon fill="none" stroke="black" points="195,-660 195,-682 398,-682 398,-660 195,-660"/>
<text text-anchor="start" x="270.5" y="-673.6" font-family="Verdana" font-weight="bold" font-size="8.00">«interface»</text>
<text text-anchor="start" x="273.5" y="-665.6" font-family="Verdana" font-weight="bold" font-size="8.00">Collection</text>
<polygon fill="none" stroke="black" points="195,-654 195,-660 398,-660 398,-654 195,-654"/>
<polygon fill="none" stroke="black" points="195,-557 195,-654 398,-654 398,-557 195,-557"/>
<text text-anchor="start" x="200" y="-642.6" font-family="Verdana" font-size="8.00">+ «abstract» add(element : mixed)</text>
<text text-anchor="start" x="200" y="-629.6" font-family="Verdana" font-size="8.00">+ «abstract» clear()</text>
<text text-anchor="start" x="200" y="-616.6" font-family="Verdana" font-size="8.00">+ «abstract» remove(key : mixed)</text>
<text text-anchor="start" x="200" y="-603.6" font-family="Verdana" font-size="8.00">+ «abstract» removeElement(element : mixed)</text>
<text text-anchor="start" x="200" y="-590.6" font-family="Verdana" font-size="8.00">+ «abstract» set(key : mixed, value : mixed)</text>
<text text-anchor="start" x="200" y="-577.6" font-family="Verdana" font-size="8.00">+ «abstract» filter(p : Closure)</text>
<text text-anchor="start" x="200" y="-564.6" font-family="Verdana" font-size="8.00">+ «abstract» partition(p : Closure)</text>
</g>
<!-- Doctrine\\Common\\Collections\\ArrayCollection&#45;&gt;Doctrine\\Common\\Collections\\Collection -->
<g id="edge6" class="edge">
<title>Doctrine\\Common\\Collections\\ArrayCollection&#45;&gt;Doctrine\\Common\\Collections\\Collection</title>
<path fill="none" stroke="black" stroke-dasharray="5,2" d="M345.69,-737.68C338.84,-721.59 332.3,-706.23 326.34,-692.25"/>
<polygon fill="none" stroke="black" points="329.46,-690.63 322.32,-682.8 323.02,-693.37 329.46,-690.63"/>
</g>
<!-- Doctrine\\Common\\Collections\\Selectable -->
<g id="node6" class="node">
<title>Doctrine\\Common\\Collections\\Selectable</title>
<polygon fill="#fefece" stroke="transparent" points="715,-643.5 415,-643.5 415,-596.5 715,-596.5 715,-643.5"/>
<polygon fill="#eeeeee" stroke="transparent" points="415,-621 415,-643 715,-643 715,-621 415,-621"/>
<polygon fill="none" stroke="black" points="415,-621 415,-643 715,-643 715,-621 415,-621"/>
<text text-anchor="start" x="539" y="-634.6" font-family="Verdana" font-weight="bold" font-size="8.00">«interface»</text>
<text text-anchor="start" x="541" y="-626.6" font-family="Verdana" font-weight="bold" font-size="8.00">Selectable</text>
<polygon fill="none" stroke="black" points="415,-615 415,-621 715,-621 715,-615 415,-615"/>
<polygon fill="none" stroke="black" points="415,-596 415,-615 715,-615 715,-596 415,-596"/>
<text text-anchor="start" x="420" y="-603.6" font-family="Verdana" font-size="8.00">+ «abstract» matching(criteria : Doctrine\Common\Collections\Criteria)</text>
</g>
<!-- Doctrine\\Common\\Collections\\ArrayCollection&#45;&gt;Doctrine\\Common\\Collections\\Selectable -->
<g id="edge7" class="edge">
<title>Doctrine\\Common\\Collections\\ArrayCollection&#45;&gt;Doctrine\\Common\\Collections\\Selectable</title>
<path fill="none" stroke="black" stroke-dasharray="5,2" d="M524.37,-737.68C535.85,-704.71 546.26,-674.83 553.66,-653.56"/>
<polygon fill="none" stroke="black" points="557.07,-654.43 557.05,-643.84 550.45,-652.13 557.07,-654.43"/>
</g>
<!-- Stringable -->
<g id="node11" class="node">
<title>Stringable</title>
<polygon fill="#fefece" stroke="transparent" points="159.5,-154.5 16.5,-154.5 16.5,-107.5 159.5,-107.5 159.5,-154.5"/>
<polygon fill="#eeeeee" stroke="transparent" points="17,-132 17,-154 160,-154 160,-132 17,-132"/>
<polygon fill="none" stroke="black" points="17,-132 17,-154 160,-154 160,-132 17,-132"/>
<text text-anchor="start" x="62.5" y="-145.6" font-family="Verdana" font-weight="bold" font-size="8.00">«interface»</text>
<text text-anchor="start" x="64" y="-137.6" font-family="Verdana" font-weight="bold" font-size="8.00">Stringable</text>
<polygon fill="none" stroke="black" points="17,-126 17,-132 160,-132 160,-126 17,-126"/>
<polygon fill="none" stroke="black" points="17,-107 17,-126 160,-126 160,-107 17,-107"/>
<text text-anchor="start" x="22" y="-114.6" font-family="Verdana" font-size="8.00">+ «abstract» __toString() : string</text>
</g>
<!-- Doctrine\\Common\\Collections\\ArrayCollection&#45;&gt;Stringable -->
<g id="edge8" class="edge">
<title>Doctrine\\Common\\Collections\\ArrayCollection&#45;&gt;Stringable</title>
<path fill="none" stroke="black" stroke-dasharray="5,2" d="M316.91,-866.77C268.55,-821.4 217.55,-764.16 186,-702 91.44,-515.73 85.85,-255.77 87.07,-164.9"/>
<polygon fill="none" stroke="black" points="90.58,-164.74 87.25,-154.68 83.58,-164.62 90.58,-164.74"/>
</g>
<!-- Doctrine\\Common\\Collections\\ReadableCollection -->
<g id="node5" class="node">
<title>Doctrine\\Common\\Collections\\ReadableCollection</title>
<polygon fill="#fefece" stroke="transparent" points="449,-502 195,-502 195,-221 449,-221 449,-502"/>
<polygon fill="#eeeeee" stroke="transparent" points="195,-479.5 195,-501.5 449,-501.5 449,-479.5 195,-479.5"/>
<polygon fill="none" stroke="black" points="195,-479.5 195,-501.5 449,-501.5 449,-479.5 195,-479.5"/>
<text text-anchor="start" x="296" y="-493.1" font-family="Verdana" font-weight="bold" font-size="8.00">«interface»</text>
<text text-anchor="start" x="278" y="-485.1" font-family="Verdana" font-weight="bold" font-size="8.00">ReadableCollection</text>
<polygon fill="none" stroke="black" points="195,-473.5 195,-479.5 449,-479.5 449,-473.5 195,-473.5"/>
<polygon fill="none" stroke="black" points="195,-220.5 195,-473.5 449,-473.5 449,-220.5 195,-220.5"/>
<text text-anchor="start" x="200" y="-462.1" font-family="Verdana" font-size="8.00">+ «abstract» contains(element : mixed)</text>
<text text-anchor="start" x="200" y="-449.1" font-family="Verdana" font-size="8.00">+ «abstract» isEmpty()</text>
<text text-anchor="start" x="200" y="-436.1" font-family="Verdana" font-size="8.00">+ «abstract» containsKey(key : mixed)</text>
<text text-anchor="start" x="200" y="-423.1" font-family="Verdana" font-size="8.00">+ «abstract» get(key : mixed)</text>
<text text-anchor="start" x="200" y="-410.1" font-family="Verdana" font-size="8.00">+ «abstract» getKeys()</text>
<text text-anchor="start" x="200" y="-397.1" font-family="Verdana" font-size="8.00">+ «abstract» getValues()</text>
<text text-anchor="start" x="200" y="-384.1" font-family="Verdana" font-size="8.00">+ «abstract» toArray()</text>
<text text-anchor="start" x="200" y="-371.1" font-family="Verdana" font-size="8.00">+ «abstract» first()</text>
<text text-anchor="start" x="200" y="-358.1" font-family="Verdana" font-size="8.00">+ «abstract» last()</text>
<text text-anchor="start" x="200" y="-345.1" font-family="Verdana" font-size="8.00">+ «abstract» key()</text>
<text text-anchor="start" x="200" y="-332.1" font-family="Verdana" font-size="8.00">+ «abstract» current()</text>
<text text-anchor="start" x="200" y="-319.1" font-family="Verdana" font-size="8.00">+ «abstract» next()</text>
<text text-anchor="start" x="200" y="-306.1" font-family="Verdana" font-size="8.00">+ «abstract» slice(offset : int, length : mixed = «unknown»)</text>
<text text-anchor="start" x="200" y="-293.1" font-family="Verdana" font-size="8.00">+ «abstract» exists(p : Closure)</text>
<text text-anchor="start" x="200" y="-280.1" font-family="Verdana" font-size="8.00">+ «abstract» filter(p : Closure)</text>
<text text-anchor="start" x="200" y="-267.1" font-family="Verdana" font-size="8.00">+ «abstract» map(func : Closure)</text>
<text text-anchor="start" x="200" y="-254.1" font-family="Verdana" font-size="8.00">+ «abstract» partition(p : Closure)</text>
<text text-anchor="start" x="200" y="-241.1" font-family="Verdana" font-size="8.00">+ «abstract» forAll(p : Closure)</text>
<text text-anchor="start" x="200" y="-228.1" font-family="Verdana" font-size="8.00">+ «abstract» indexOf(element : mixed)</text>
</g>
<!-- Doctrine\\Common\\Collections\\Collection&#45;&gt;Doctrine\\Common\\Collections\\ReadableCollection -->
<g id="edge4" class="edge">
<title>Doctrine\\Common\\Collections\\Collection&#45;&gt;Doctrine\\Common\\Collections\\ReadableCollection</title>
<path fill="none" stroke="black" stroke-dasharray="5,2" d="M302.26,-557.24C303.66,-543.43 305.2,-528.21 306.79,-512.54"/>
<polygon fill="none" stroke="black" points="310.31,-512.49 307.84,-502.19 303.35,-511.79 310.31,-512.49"/>
</g>
<!-- ArrayAccess -->
<g id="node10" class="node">
<title>ArrayAccess</title>
<polygon fill="#fefece" stroke="transparent" points="649,-174 425,-174 425,-88 649,-88 649,-174"/>
<polygon fill="#eeeeee" stroke="transparent" points="425,-152 425,-174 649,-174 649,-152 425,-152"/>
<polygon fill="none" stroke="black" points="425,-152 425,-174 649,-174 649,-152 425,-152"/>
<text text-anchor="start" x="511" y="-165.6" font-family="Verdana" font-weight="bold" font-size="8.00">«interface»</text>
<text text-anchor="start" x="510" y="-157.6" font-family="Verdana" font-weight="bold" font-size="8.00">ArrayAccess</text>
<polygon fill="none" stroke="black" points="425,-146 425,-152 649,-152 649,-146 425,-146"/>
<polygon fill="none" stroke="black" points="425,-88 425,-146 649,-146 649,-88 425,-88"/>
<text text-anchor="start" x="430" y="-134.6" font-family="Verdana" font-size="8.00">+ «abstract» offsetExists(offset : mixed)</text>
<text text-anchor="start" x="430" y="-121.6" font-family="Verdana" font-size="8.00">+ «abstract» offsetGet(offset : mixed)</text>
<text text-anchor="start" x="430" y="-108.6" font-family="Verdana" font-size="8.00">+ «abstract» offsetSet(offset : mixed, value : mixed)</text>
<text text-anchor="start" x="430" y="-95.6" font-family="Verdana" font-size="8.00">+ «abstract» offsetUnset(offset : mixed)</text>
</g>
<!-- Doctrine\\Common\\Collections\\Collection&#45;&gt;ArrayAccess -->
<g id="edge5" class="edge">
<title>Doctrine\\Common\\Collections\\Collection&#45;&gt;ArrayAccess</title>
<path fill="none" stroke="black" stroke-dasharray="5,2" d="M379,-557.49C388.08,-550.87 397.22,-544.27 406,-538 428.88,-521.66 442.41,-525.39 458,-502 523.57,-403.6 535.99,-260.61 537.58,-184.41"/>
<polygon fill="none" stroke="black" points="541.09,-184.17 537.74,-174.12 534.09,-184.06 541.09,-184.17"/>
</g>
<!-- Countable -->
<g id="node7" class="node">
<title>Countable</title>
<polygon fill="#fefece" stroke="transparent" points="272.5,-154.5 177.5,-154.5 177.5,-107.5 272.5,-107.5 272.5,-154.5"/>
<polygon fill="#eeeeee" stroke="transparent" points="178,-132 178,-154 273,-154 273,-132 178,-132"/>
<polygon fill="none" stroke="black" points="178,-132 178,-154 273,-154 273,-132 178,-132"/>
<text text-anchor="start" x="199.5" y="-145.6" font-family="Verdana" font-weight="bold" font-size="8.00">«interface»</text>
<text text-anchor="start" x="202" y="-137.6" font-family="Verdana" font-weight="bold" font-size="8.00">Countable</text>
<polygon fill="none" stroke="black" points="178,-126 178,-132 273,-132 273,-126 178,-126"/>
<polygon fill="none" stroke="black" points="178,-107 178,-126 273,-126 273,-107 178,-107"/>
<text text-anchor="start" x="183" y="-114.6" font-family="Verdana" font-size="8.00">+ «abstract» count()</text>
</g>
<!-- Doctrine\\Common\\Collections\\ReadableCollection&#45;&gt;Countable -->
<g id="edge1" class="edge">
<title>Doctrine\\Common\\Collections\\ReadableCollection&#45;&gt;Countable</title>
<path fill="none" stroke="black" stroke-dasharray="5,2" d="M262.78,-221C253.79,-199.81 245.31,-179.84 238.67,-164.21"/>
<polygon fill="none" stroke="black" points="241.72,-162.43 234.59,-154.59 235.28,-165.16 241.72,-162.43"/>
</g>
<!-- IteratorAggregate -->
<g id="node8" class="node">
<title>IteratorAggregate</title>
<polygon fill="#fefece" stroke="transparent" points="407,-154.5 291,-154.5 291,-107.5 407,-107.5 407,-154.5"/>
<polygon fill="#eeeeee" stroke="transparent" points="291,-132 291,-154 407,-154 407,-132 291,-132"/>
<polygon fill="none" stroke="black" points="291,-132 291,-154 407,-154 407,-132 291,-132"/>
<text text-anchor="start" x="323" y="-145.6" font-family="Verdana" font-weight="bold" font-size="8.00">«interface»</text>
<text text-anchor="start" x="308" y="-137.6" font-family="Verdana" font-weight="bold" font-size="8.00">IteratorAggregate</text>
<polygon fill="none" stroke="black" points="291,-126 291,-132 407,-132 407,-126 291,-126"/>
<polygon fill="none" stroke="black" points="291,-107 291,-126 407,-126 407,-107 291,-107"/>
<text text-anchor="start" x="296" y="-114.6" font-family="Verdana" font-size="8.00">+ «abstract» getIterator()</text>
</g>
<!-- Doctrine\\Common\\Collections\\ReadableCollection&#45;&gt;IteratorAggregate -->
<g id="edge3" class="edge">
<title>Doctrine\\Common\\Collections\\ReadableCollection&#45;&gt;IteratorAggregate</title>
<path fill="none" stroke="black" stroke-dasharray="5,2" d="M338.48,-221C340.96,-200.01 343.3,-180.22 345.14,-164.65"/>
<polygon fill="none" stroke="black" points="348.63,-164.93 346.33,-154.59 341.68,-164.11 348.63,-164.93"/>
</g>
<!-- Traversable -->
<g id="node9" class="node">
<title>Traversable</title>
<polygon fill="#fefece" stroke="transparent" points="378,-52 320,-52 320,-16 378,-16 378,-52"/>
<polygon fill="#eeeeee" stroke="transparent" points="320,-29 320,-51 378,-51 378,-29 320,-29"/>
<polygon fill="none" stroke="black" points="320,-29 320,-51 378,-51 378,-29 320,-29"/>
<text text-anchor="start" x="323" y="-42.6" font-family="Verdana" font-weight="bold" font-size="8.00">«interface»</text>
<text text-anchor="start" x="323" y="-34.6" font-family="Verdana" font-weight="bold" font-size="8.00">Traversable</text>
<polygon fill="none" stroke="black" points="320,-23 320,-29 378,-29 378,-23 320,-23"/>
<polygon fill="none" stroke="black" points="320,-17 320,-23 378,-23 378,-17 320,-17"/>
</g>
<!-- IteratorAggregate&#45;&gt;Traversable -->
<g id="edge2" class="edge">
<title>IteratorAggregate&#45;&gt;Traversable</title>
<path fill="none" stroke="black" stroke-dasharray="5,2" d="M349,-107.49C349,-93.93 349,-76.58 349,-62.26"/>
<polygon fill="none" stroke="black" points="352.5,-62 349,-52 345.5,-62 352.5,-62"/>
</g>
<!-- PhpParser\\ErrorHandler -->
<g id="node18" class="node">
<title>PhpParser\\ErrorHandler</title>
<polygon fill="#fefece" stroke="transparent" points="1462,-643.5 1252,-643.5 1252,-596.5 1462,-596.5 1462,-643.5"/>
<polygon fill="#eeeeee" stroke="transparent" points="1252,-621 1252,-643 1462,-643 1462,-621 1252,-621"/>
<polygon fill="none" stroke="black" points="1252,-621 1252,-643 1462,-643 1462,-621 1252,-621"/>
<text text-anchor="start" x="1331" y="-634.6" font-family="Verdana" font-weight="bold" font-size="8.00">«interface»</text>
<text text-anchor="start" x="1328" y="-626.6" font-family="Verdana" font-weight="bold" font-size="8.00">ErrorHandler</text>
<polygon fill="none" stroke="black" points="1252,-615 1252,-621 1462,-621 1462,-615 1252,-615"/>
<polygon fill="none" stroke="black" points="1252,-596 1252,-615 1462,-615 1462,-596 1252,-596"/>
<text text-anchor="start" x="1257" y="-603.6" font-family="Verdana" font-size="8.00">+ «abstract» handleError(error : PhpParser\Error)</text>
</g>
<!-- Bartlett\\CompatInfo\\Application\\DataCollector\\ErrorHandler&#45;&gt;PhpParser\\ErrorHandler -->
<g id="edge10" class="edge">
<title>Bartlett\\CompatInfo\\Application\\DataCollector\\ErrorHandler&#45;&gt;PhpParser\\ErrorHandler</title>
<path fill="none" stroke="black" stroke-dasharray="5,2" d="M1171.45,-932.99C1190.86,-886.71 1227.63,-803.9 1268,-738 1286.88,-707.18 1312.1,-674.66 1330.88,-651.74"/>
<polygon fill="none" stroke="black" points="1333.8,-653.7 1337.48,-643.76 1328.41,-649.24 1333.8,-653.7"/>
</g>
<!-- Bartlett\\CompatInfo\\Application\\DataCollector\\DataCollector -->
<g id="node13" class="node">
<title>Bartlett\\CompatInfo\\Application\\DataCollector\\DataCollector</title>
<polygon fill="#fefece" stroke="transparent" points="1157.5,-702 750.5,-702 750.5,-538 1157.5,-538 1157.5,-702"/>
<polygon fill="#eeeeee" stroke="transparent" points="751,-680 751,-702 1158,-702 1158,-680 751,-680"/>
<polygon fill="none" stroke="black" points="751,-680 751,-702 1158,-702 1158,-680 751,-680"/>
<text text-anchor="start" x="930.5" y="-693.6" font-family="Verdana" font-weight="bold" font-size="8.00">«abstract»</text>
<text text-anchor="start" x="924" y="-685.6" font-family="Verdana" font-weight="bold" font-size="8.00">DataCollector</text>
<polygon fill="none" stroke="black" points="751,-674 751,-680 1158,-680 1158,-674 751,-674"/>
<polygon fill="none" stroke="black" points="751,-538 751,-674 1158,-674 1158,-538 751,-538"/>
<text text-anchor="start" x="756" y="-662.6" font-family="Verdana" font-size="8.00">+ __construct(visitor : Bartlett\CompatInfo\Application\PhpParser\NodeVisitor\NodeVisitor)</text>
<text text-anchor="start" x="756" y="-649.6" font-family="Verdana" font-size="8.00">+ reset() : void</text>
<text text-anchor="start" x="756" y="-636.6" font-family="Verdana" font-size="8.00">+ getData() : array</text>
<text text-anchor="start" x="756" y="-623.6" font-family="Verdana" font-size="8.00">+ collect(nodes : array) : array</text>
<text text-anchor="start" x="756" y="-610.6" font-family="Verdana" font-size="8.00">+ setName(name : string) : Bartlett\CompatInfo\Application\DataCollector\DataCollectorInterface</text>
<text text-anchor="start" x="756" y="-597.6" font-family="Verdana" font-size="8.00">+ getName() : string</text>
<text text-anchor="start" x="756" y="-584.6" font-family="Verdana" font-size="8.00">+ addFile(file : Symfony\Component\Finder\SplFileInfo) : void</text>
<text text-anchor="start" x="756" y="-571.6" font-family="Verdana" font-size="8.00">+ getFiles() : array</text>
<text text-anchor="start" x="756" y="-558.6" font-family="Verdana" font-size="8.00">+ addErrors(errors : array) : void</text>
<text text-anchor="start" x="756" y="-545.6" font-family="Verdana" font-size="8.00">+ getErrors() : array</text>
</g>
<!-- Bartlett\\CompatInfo\\Application\\DataCollector\\DataCollectorInterface -->
<g id="node14" class="node">
<title>Bartlett\\CompatInfo\\Application\\DataCollector\\DataCollectorInterface</title>
<polygon fill="#fefece" stroke="transparent" points="1191.5,-437 738.5,-437 738.5,-286 1191.5,-286 1191.5,-437"/>
<polygon fill="#eeeeee" stroke="transparent" points="739,-414.5 739,-436.5 1192,-436.5 1192,-414.5 739,-414.5"/>
<polygon fill="none" stroke="black" points="739,-414.5 739,-436.5 1192,-436.5 1192,-414.5 739,-414.5"/>
<text text-anchor="start" x="939.5" y="-428.1" font-family="Verdana" font-weight="bold" font-size="8.00">«interface»</text>
<text text-anchor="start" x="914.5" y="-420.1" font-family="Verdana" font-weight="bold" font-size="8.00">DataCollectorInterface</text>
<polygon fill="none" stroke="black" points="739,-408.5 739,-414.5 1192,-414.5 1192,-408.5 739,-408.5"/>
<polygon fill="none" stroke="black" points="739,-285.5 739,-408.5 1192,-408.5 1192,-285.5 739,-285.5"/>
<text text-anchor="start" x="744" y="-397.1" font-family="Verdana" font-size="8.00">+ «abstract» reset() : void</text>
<text text-anchor="start" x="744" y="-384.1" font-family="Verdana" font-size="8.00">+ «abstract» getData() : array</text>
<text text-anchor="start" x="744" y="-371.1" font-family="Verdana" font-size="8.00">+ «abstract» collect(nodes : array) : array</text>
<text text-anchor="start" x="744" y="-358.1" font-family="Verdana" font-size="8.00">+ «abstract» setName(name : string) : Bartlett\CompatInfo\Application\DataCollector\DataCollectorInterface</text>
<text text-anchor="start" x="744" y="-345.1" font-family="Verdana" font-size="8.00">+ «abstract» getName() : string</text>
<text text-anchor="start" x="744" y="-332.1" font-family="Verdana" font-size="8.00">+ «abstract» addFile(file : Symfony\Component\Finder\SplFileInfo) : void</text>
<text text-anchor="start" x="744" y="-319.1" font-family="Verdana" font-size="8.00">+ «abstract» getFiles() : array</text>
<text text-anchor="start" x="744" y="-306.1" font-family="Verdana" font-size="8.00">+ «abstract» addErrors(errors : array) : void</text>
<text text-anchor="start" x="744" y="-293.1" font-family="Verdana" font-size="8.00">+ «abstract» getErrors() : array</text>
</g>
<!-- Bartlett\\CompatInfo\\Application\\DataCollector\\DataCollector&#45;&gt;Bartlett\\CompatInfo\\Application\\DataCollector\\DataCollectorInterface -->
<g id="edge14" class="edge">
<title>Bartlett\\CompatInfo\\Application\\DataCollector\\DataCollector&#45;&gt;Bartlett\\CompatInfo\\Application\\DataCollector\\DataCollectorInterface</title>
<path fill="none" stroke="black" stroke-dasharray="5,2" d="M957.48,-537.84C958.72,-508.96 960.12,-476.37 961.37,-447.2"/>
<polygon fill="none" stroke="black" points="964.87,-447.18 961.8,-437.03 957.88,-446.88 964.87,-447.18"/>
</g>
<!-- Bartlett\\CompatInfo\\Application\\DataCollector\\RuleUpdater -->
<g id="node15" class="node">
<title>Bartlett\\CompatInfo\\Application\\DataCollector\\RuleUpdater</title>
<polygon fill="#fefece" stroke="transparent" points="1068,-987.5 1004,-987.5 1004,-951.5 1068,-951.5 1068,-987.5"/>
<polygon fill="#eeeeee" stroke="transparent" points="1004,-964.5 1004,-986.5 1068,-986.5 1068,-964.5 1004,-964.5"/>
<polygon fill="none" stroke="black" points="1004,-964.5 1004,-986.5 1068,-986.5 1068,-964.5 1004,-964.5"/>
<text text-anchor="start" x="1007" y="-970.1" font-family="Verdana" font-weight="bold" font-size="8.00">RuleUpdater</text>
<polygon fill="none" stroke="black" points="1004,-958.5 1004,-964.5 1068,-964.5 1068,-958.5 1004,-958.5"/>
<polygon fill="none" stroke="black" points="1004,-952.5 1004,-958.5 1068,-958.5 1068,-952.5 1004,-952.5"/>
</g>
<!-- Bartlett\\CompatInfo\\Application\\DataCollector\\VersionDataCollector -->
<g id="node16" class="node">
<title>Bartlett\\CompatInfo\\Application\\DataCollector\\VersionDataCollector</title>
<polygon fill="#fefece" stroke="transparent" points="985.5,-1090.5 834.5,-1090.5 834.5,-848.5 985.5,-848.5 985.5,-1090.5"/>
<polygon fill="#eeeeee" stroke="transparent" points="835,-1068.5 835,-1090.5 986,-1090.5 986,-1068.5 835,-1068.5"/>
<polygon fill="none" stroke="black" points="835,-1068.5 835,-1090.5 986,-1090.5 986,-1068.5 835,-1068.5"/>
<text text-anchor="start" x="863" y="-1074.1" font-family="Verdana" font-weight="bold" font-size="8.00">VersionDataCollector</text>
<polygon fill="none" stroke="black" points="835,-1062.5 835,-1068.5 986,-1068.5 986,-1062.5 835,-1062.5"/>
<polygon fill="none" stroke="black" points="835,-848.5 835,-1062.5 986,-1062.5 986,-848.5 835,-848.5"/>
<text text-anchor="start" x="840" y="-1051.1" font-family="Verdana" font-size="8.00">+ __construct(keysAllowed : array)</text>
<text text-anchor="start" x="840" y="-1038.1" font-family="Verdana" font-size="8.00">+ collect(nodes : array) : array</text>
<text text-anchor="start" x="840" y="-1025.1" font-family="Verdana" font-size="8.00">+ reset() : void</text>
<text text-anchor="start" x="840" y="-1012.1" font-family="Verdana" font-size="8.00">+ getData() : array</text>
<text text-anchor="start" x="840" y="-999.1" font-family="Verdana" font-size="8.00">+ getVersions() : array</text>
<text text-anchor="start" x="840" y="-986.1" font-family="Verdana" font-size="8.00">+ getExtensions() : array</text>
<text text-anchor="start" x="840" y="-973.1" font-family="Verdana" font-size="8.00">+ getNamespaces() : array</text>
<text text-anchor="start" x="840" y="-960.1" font-family="Verdana" font-size="8.00">+ getClasses() : array</text>
<text text-anchor="start" x="840" y="-947.1" font-family="Verdana" font-size="8.00">+ getInterfaces() : array</text>
<text text-anchor="start" x="840" y="-934.1" font-family="Verdana" font-size="8.00">+ getTraits() : array</text>
<text text-anchor="start" x="840" y="-921.1" font-family="Verdana" font-size="8.00">+ getMethods() : array</text>
<text text-anchor="start" x="840" y="-908.1" font-family="Verdana" font-size="8.00">+ getGenerators() : array</text>
<text text-anchor="start" x="840" y="-895.1" font-family="Verdana" font-size="8.00">+ getFunctions() : array</text>
<text text-anchor="start" x="840" y="-882.1" font-family="Verdana" font-size="8.00">+ getConstants() : array</text>
<text text-anchor="start" x="840" y="-869.1" font-family="Verdana" font-size="8.00">+ getDirectives() : array</text>
<text text-anchor="start" x="840" y="-856.1" font-family="Verdana" font-size="8.00">+ getConditions() : array</text>
</g>
<!-- Bartlett\\CompatInfo\\Application\\DataCollector\\VersionDataCollector&#45;&gt;Bartlett\\CompatInfo\\Application\\DataCollector\\DataCollector -->
<g id="edge15" class="edge">
<title>Bartlett\\CompatInfo\\Application\\DataCollector\\VersionDataCollector&#45;&gt;Bartlett\\CompatInfo\\Application\\DataCollector\\DataCollector</title>
<path fill="none" stroke="black" d="M925.2,-848.42C930.86,-803.75 937.18,-753.83 942.46,-712.16"/>
<polygon fill="none" stroke="black" points="945.96,-712.39 943.74,-702.03 939.01,-711.51 945.96,-712.39"/>
</g>
<!-- Bartlett\\CompatInfo\\Application\\DataCollector\\VersionUpdater -->
<g id="node17" class="node">
<title>Bartlett\\CompatInfo\\Application\\DataCollector\\VersionUpdater</title>
<polygon fill="#fefece" stroke="transparent" points="816.5,-987.5 739.5,-987.5 739.5,-951.5 816.5,-951.5 816.5,-987.5"/>
<polygon fill="#eeeeee" stroke="transparent" points="740,-964.5 740,-986.5 817,-986.5 817,-964.5 740,-964.5"/>
<polygon fill="none" stroke="black" points="740,-964.5 740,-986.5 817,-986.5 817,-964.5 740,-964.5"/>
<text text-anchor="start" x="743" y="-970.1" font-family="Verdana" font-weight="bold" font-size="8.00">VersionUpdater</text>
<polygon fill="none" stroke="black" points="740,-958.5 740,-964.5 817,-964.5 817,-958.5 740,-958.5"/>
<polygon fill="none" stroke="black" points="740,-952.5 740,-958.5 817,-958.5 817,-952.5 740,-952.5"/>
</g>
<!-- Bartlett\\CompatInfo\\Application\\DataCollector\\Normalizer\\NodeNormalizer -->
<g id="node19" class="node">
<title>Bartlett\\CompatInfo\\Application\\DataCollector\\Normalizer\\NodeNormalizer</title>
<polygon fill="#fefece" stroke="transparent" points="1597.5,-1321 1334.5,-1321 1334.5,-1261 1597.5,-1261 1597.5,-1321"/>
<polygon fill="#eeeeee" stroke="transparent" points="1335,-1299 1335,-1321 1598,-1321 1598,-1299 1335,-1299"/>
<polygon fill="none" stroke="black" points="1335,-1299 1335,-1321 1598,-1321 1598,-1299 1335,-1299"/>
<text text-anchor="start" x="1430" y="-1304.6" font-family="Verdana" font-weight="bold" font-size="8.00">NodeNormalizer</text>
<polygon fill="none" stroke="black" points="1335,-1293 1335,-1299 1598,-1299 1598,-1293 1335,-1293"/>
<polygon fill="none" stroke="black" points="1335,-1261 1335,-1293 1598,-1293 1598,-1261 1335,-1261"/>
<text text-anchor="start" x="1340" y="-1281.6" font-family="Verdana" font-size="8.00">+ normalize(object, format = «unknown», context : array = [])</text>
<text text-anchor="start" x="1340" y="-1268.6" font-family="Verdana" font-size="8.00">+ supportsNormalization(data, format = «unknown»)</text>
</g>
<!-- Symfony\\Component\\Serializer\\Normalizer\\NormalizerInterface -->
<g id="node20" class="node">
<title>Symfony\\Component\\Serializer\\Normalizer\\NormalizerInterface</title>
<polygon fill="#fefece" stroke="transparent" points="1652,-999.5 1280,-999.5 1280,-939.5 1652,-939.5 1652,-999.5"/>
<polygon fill="#eeeeee" stroke="transparent" points="1280,-977.5 1280,-999.5 1652,-999.5 1652,-977.5 1280,-977.5"/>
<polygon fill="none" stroke="black" points="1280,-977.5 1280,-999.5 1652,-999.5 1652,-977.5 1280,-977.5"/>
<text text-anchor="start" x="1440" y="-991.1" font-family="Verdana" font-weight="bold" font-size="8.00">«interface»</text>
<text text-anchor="start" x="1421" y="-983.1" font-family="Verdana" font-weight="bold" font-size="8.00">NormalizerInterface</text>
<polygon fill="none" stroke="black" points="1280,-971.5 1280,-977.5 1652,-977.5 1652,-971.5 1280,-971.5"/>
<polygon fill="none" stroke="black" points="1280,-939.5 1280,-971.5 1652,-971.5 1652,-939.5 1280,-939.5"/>
<text text-anchor="start" x="1285" y="-960.1" font-family="Verdana" font-size="8.00">+ «abstract» normalize(object : mixed, format : string = «unknown», context : array = [])</text>
<text text-anchor="start" x="1285" y="-947.1" font-family="Verdana" font-size="8.00">+ «abstract» supportsNormalization(data : mixed, format : string = «unknown»)</text>
</g>
<!-- Bartlett\\CompatInfo\\Application\\DataCollector\\Normalizer\\NodeNormalizer&#45;&gt;Symfony\\Component\\Serializer\\Normalizer\\NormalizerInterface -->
<g id="edge13" class="edge">
<title>Bartlett\\CompatInfo\\Application\\DataCollector\\Normalizer\\NodeNormalizer&#45;&gt;Symfony\\Component\\Serializer\\Normalizer\\NormalizerInterface</title>
<path fill="none" stroke="black" stroke-dasharray="5,2" d="M1466,-1260.8C1466,-1203.16 1466,-1074.73 1466,-1009.75"/>
<polygon fill="none" stroke="black" points="1469.5,-1009.52 1466,-999.52 1462.5,-1009.52 1469.5,-1009.52"/>
</g>
</g>
</svg>
