<?xml version="1.0" encoding="UTF-8" standalone="no"?>
<!DOCTYPE svg PUBLIC "-//W3C//DTD SVG 1.1//EN"
 "http://www.w3.org/Graphics/SVG/1.1/DTD/svg11.dtd">
<!-- Generated by graphviz version 2.43.0 (0)
 -->
<!-- Title: %3 Pages: 1 -->
<svg width="2092pt" height="893pt"
 viewBox="0.00 0.00 2092.00 893.00" xmlns="http://www.w3.org/2000/svg" xmlns:xlink="http://www.w3.org/1999/xlink">
<g id="graph0" class="graph" transform="scale(1 1) rotate(0) translate(4 889)">
<title>%3</title>
<g id="clust1" class="cluster">
<title>cluster_0</title>
<polygon fill="BurlyWood" stroke="black" points="8,-8 8,-877 1842,-877 1842,-8 8,-8"/>
<text text-anchor="middle" x="925" y="-861.8" font-family="Times,serif" font-size="14.00">Bartlett\CompatInfo\Application\Analyser</text>
</g>
<g id="clust2" class="cluster">
<title>cluster_1</title>
<polygon fill="transparent" stroke="black" points="1850,-169 1850,-294 2076,-294 2076,-169 1850,-169"/>
<text text-anchor="middle" x="1963" y="-278.8" font-family="Times,serif" font-size="14.00">PhpParser</text>
</g>
<!-- Bartlett\\CompatInfo\\Application\\Analyser\\AbstractSniffAnalyser -->
<g id="node1" class="node">
<title>Bartlett\\CompatInfo\\Application\\Analyser\\AbstractSniffAnalyser</title>
<polygon fill="#fefece" stroke="transparent" points="1668,-549 512,-549 512,-398 1668,-398 1668,-549"/>
<polygon fill="#eeeeee" stroke="transparent" points="512,-526.5 512,-548.5 1668,-548.5 1668,-526.5 512,-526.5"/>
<polygon fill="none" stroke="black" points="512,-526.5 512,-548.5 1668,-548.5 1668,-526.5 512,-526.5"/>
<text text-anchor="start" x="1066" y="-540.1" font-family="Verdana" font-weight="bold" font-size="8.00">«abstract»</text>
<text text-anchor="start" x="1040.5" y="-532.1" font-family="Verdana" font-weight="bold" font-size="8.00">AbstractSniffAnalyser</text>
<polygon fill="none" stroke="black" points="512,-520.5 512,-526.5 1668,-526.5 1668,-520.5 512,-520.5"/>
<polygon fill="none" stroke="black" points="512,-397.5 512,-520.5 1668,-520.5 1668,-397.5 512,-397.5"/>
<text text-anchor="start" x="517" y="-509.1" font-family="Verdana" font-size="8.00">+ __construct(profiler : Bartlett\CompatInfo\Application\Profiler\ProfilerInterface, dispatcher : Symfony\Component\EventDispatcher\EventDispatcherInterface, sniffs : Bartlett\CompatInfo\Application\Collection\SniffCollectionInterface, attributeParentKey : string, attributeKey : string)</text>
<text text-anchor="start" x="517" y="-496.1" font-family="Verdana" font-size="8.00">+ getProfiler() : Bartlett\CompatInfo\Application\Profiler\ProfilerInterface</text>
<text text-anchor="start" x="517" y="-483.1" font-family="Verdana" font-size="8.00">+ setErrorHandler(errorHandler : Bartlett\CompatInfo\Application\DataCollector\ErrorHandler) : void</text>
<text text-anchor="start" x="517" y="-470.1" font-family="Verdana" font-size="8.00">+ setUpBeforeVisitor() : void</text>
<text text-anchor="start" x="517" y="-457.1" font-family="Verdana" font-size="8.00">+ tearDownAfterVisitor() : void</text>
<text text-anchor="start" x="517" y="-444.1" font-family="Verdana" font-size="8.00">+ beforeTraverse(nodes : array) : ?array</text>
<text text-anchor="start" x="517" y="-431.1" font-family="Verdana" font-size="8.00">+ enterNode(node : PhpParser\Node)</text>
<text text-anchor="start" x="517" y="-418.1" font-family="Verdana" font-size="8.00">+ leaveNode(node : PhpParser\Node)</text>
<text text-anchor="start" x="517" y="-405.1" font-family="Verdana" font-size="8.00">+ afterTraverse(nodes : array) : ?array</text>
</g>
<!-- Bartlett\\CompatInfo\\Application\\Analyser\\SniffAnalyserInterface -->
<g id="node2" class="node">
<title>Bartlett\\CompatInfo\\Application\\Analyser\\SniffAnalyserInterface</title>
<polygon fill="#fefece" stroke="transparent" points="1659.5,-362 1196.5,-362 1196.5,-302 1659.5,-302 1659.5,-362"/>
<polygon fill="#eeeeee" stroke="transparent" points="1197,-340 1197,-362 1660,-362 1660,-340 1197,-340"/>
<polygon fill="none" stroke="black" points="1197,-340 1197,-362 1660,-362 1660,-340 1197,-340"/>
<text text-anchor="start" x="1402.5" y="-353.6" font-family="Verdana" font-weight="bold" font-size="8.00">«interface»</text>
<text text-anchor="start" x="1377.5" y="-345.6" font-family="Verdana" font-weight="bold" font-size="8.00">SniffAnalyserInterface</text>
<polygon fill="none" stroke="black" points="1197,-334 1197,-340 1660,-340 1660,-334 1197,-334"/>
<polygon fill="none" stroke="black" points="1197,-302 1197,-334 1660,-334 1660,-302 1197,-302"/>
<text text-anchor="start" x="1202" y="-322.6" font-family="Verdana" font-size="8.00">+ «abstract» getProfiler() : Bartlett\CompatInfo\Application\Profiler\ProfilerInterface</text>
<text text-anchor="start" x="1202" y="-309.6" font-family="Verdana" font-size="8.00">+ «abstract» setErrorHandler(errorHandler : Bartlett\CompatInfo\Application\DataCollector\ErrorHandler) : void</text>
</g>
<!-- Bartlett\\CompatInfo\\Application\\Analyser\\AbstractSniffAnalyser&#45;&gt;Bartlett\\CompatInfo\\Application\\Analyser\\SniffAnalyserInterface -->
<g id="edge4" class="edge">
<title>Bartlett\\CompatInfo\\Application\\Analyser\\AbstractSniffAnalyser&#45;&gt;Bartlett\\CompatInfo\\Application\\Analyser\\SniffAnalyserInterface</title>
<path fill="none" stroke="black" stroke-dasharray="5,2" d="M1270.87,-397.85C1297.91,-386.69 1324.54,-375.7 1347.98,-366.03"/>
<polygon fill="none" stroke="black" points="1349.57,-369.16 1357.48,-362.11 1346.9,-362.69 1349.57,-369.16"/>
</g>
<!-- Bartlett\\CompatInfo\\Application\\Analyser\\SniffVisitorInterface -->
<g id="node3" class="node">
<title>Bartlett\\CompatInfo\\Application\\Analyser\\SniffVisitorInterface</title>
<polygon fill="#fefece" stroke="transparent" points="1519,-250 1337,-250 1337,-190 1519,-190 1519,-250"/>
<polygon fill="#eeeeee" stroke="transparent" points="1337,-228 1337,-250 1519,-250 1519,-228 1337,-228"/>
<polygon fill="none" stroke="black" points="1337,-228 1337,-250 1519,-250 1519,-228 1337,-228"/>
<text text-anchor="start" x="1402" y="-241.6" font-family="Verdana" font-weight="bold" font-size="8.00">«interface»</text>
<text text-anchor="start" x="1382" y="-233.6" font-family="Verdana" font-weight="bold" font-size="8.00">SniffVisitorInterface</text>
<polygon fill="none" stroke="black" points="1337,-222 1337,-228 1519,-228 1519,-222 1337,-222"/>
<polygon fill="none" stroke="black" points="1337,-190 1337,-222 1519,-222 1519,-190 1337,-190"/>
<text text-anchor="start" x="1342" y="-210.6" font-family="Verdana" font-size="8.00">+ «abstract» setUpBeforeVisitor() : void</text>
<text text-anchor="start" x="1342" y="-197.6" font-family="Verdana" font-size="8.00">+ «abstract» tearDownAfterVisitor() : void</text>
</g>
<!-- Bartlett\\CompatInfo\\Application\\Analyser\\SniffAnalyserInterface&#45;&gt;Bartlett\\CompatInfo\\Application\\Analyser\\SniffVisitorInterface -->
<g id="edge2" class="edge">
<title>Bartlett\\CompatInfo\\Application\\Analyser\\SniffAnalyserInterface&#45;&gt;Bartlett\\CompatInfo\\Application\\Analyser\\SniffVisitorInterface</title>
<path fill="none" stroke="black" stroke-dasharray="5,2" d="M1428,-301.81C1428,-289.13 1428,-274.08 1428,-260.43"/>
<polygon fill="none" stroke="black" points="1431.5,-260.33 1428,-250.33 1424.5,-260.33 1431.5,-260.33"/>
</g>
<!-- PhpParser\\NodeVisitor -->
<g id="node6" class="node">
<title>PhpParser\\NodeVisitor</title>
<polygon fill="#fefece" stroke="transparent" points="2068,-263 1858,-263 1858,-177 2068,-177 2068,-263"/>
<polygon fill="#eeeeee" stroke="transparent" points="1858,-241 1858,-263 2068,-263 2068,-241 1858,-241"/>
<polygon fill="none" stroke="black" points="1858,-241 1858,-263 2068,-263 2068,-241 1858,-241"/>
<text text-anchor="start" x="1937" y="-254.6" font-family="Verdana" font-weight="bold" font-size="8.00">«interface»</text>
<text text-anchor="start" x="1936.5" y="-246.6" font-family="Verdana" font-weight="bold" font-size="8.00">NodeVisitor</text>
<polygon fill="none" stroke="black" points="1858,-235 1858,-241 2068,-241 2068,-235 1858,-235"/>
<polygon fill="none" stroke="black" points="1858,-177 1858,-235 2068,-235 2068,-177 1858,-177"/>
<text text-anchor="start" x="1863" y="-223.6" font-family="Verdana" font-size="8.00">+ «abstract» beforeTraverse(nodes : array)</text>
<text text-anchor="start" x="1863" y="-210.6" font-family="Verdana" font-size="8.00">+ «abstract» enterNode(node : PhpParser\Node)</text>
<text text-anchor="start" x="1863" y="-197.6" font-family="Verdana" font-size="8.00">+ «abstract» leaveNode(node : PhpParser\Node)</text>
<text text-anchor="start" x="1863" y="-184.6" font-family="Verdana" font-size="8.00">+ «abstract» afterTraverse(nodes : array)</text>
</g>
<!-- Bartlett\\CompatInfo\\Application\\Analyser\\SniffAnalyserInterface&#45;&gt;PhpParser\\NodeVisitor -->
<g id="edge3" class="edge">
<title>Bartlett\\CompatInfo\\Application\\Analyser\\SniffAnalyserInterface&#45;&gt;PhpParser\\NodeVisitor</title>
<path fill="none" stroke="black" stroke-dasharray="5,2" d="M1659.61,-319.89C1735.99,-314.21 1810.46,-305.9 1846,-294 1864.01,-287.97 1882.09,-278.67 1898.46,-268.71"/>
<polygon fill="none" stroke="black" points="1900.76,-271.4 1907.38,-263.12 1897.05,-265.46 1900.76,-271.4"/>
</g>
<!-- Bartlett\\CompatInfo\\Application\\Analyser\\AnalyserInterface -->
<g id="node4" class="node">
<title>Bartlett\\CompatInfo\\Application\\Analyser\\AnalyserInterface</title>
<polygon fill="#fefece" stroke="transparent" points="1594,-141 1262,-141 1262,-16 1594,-16 1594,-141"/>
<polygon fill="#eeeeee" stroke="transparent" points="1262,-118.5 1262,-140.5 1594,-140.5 1594,-118.5 1262,-118.5"/>
<polygon fill="none" stroke="black" points="1262,-118.5 1262,-140.5 1594,-140.5 1594,-118.5 1262,-118.5"/>
<text text-anchor="start" x="1402" y="-132.1" font-family="Verdana" font-weight="bold" font-size="8.00">«interface»</text>
<text text-anchor="start" x="1388" y="-124.1" font-family="Verdana" font-weight="bold" font-size="8.00">AnalyserInterface</text>
<polygon fill="none" stroke="black" points="1262,-112.5 1262,-118.5 1594,-118.5 1594,-112.5 1262,-112.5"/>
<polygon fill="none" stroke="black" points="1262,-15.5 1262,-112.5 1594,-112.5 1594,-15.5 1262,-15.5"/>
<text text-anchor="start" x="1267" y="-101.1" font-family="Verdana" font-size="8.00">+ «abstract» getCurrentFile() : Symfony\Component\Finder\SplFileInfo</text>
<text text-anchor="start" x="1267" y="-88.1" font-family="Verdana" font-size="8.00">+ «abstract» getTokens() : array</text>
<text text-anchor="start" x="1267" y="-75.1" font-family="Verdana" font-size="8.00">+ «abstract» setTokens(tokens : array) : void</text>
<text text-anchor="start" x="1267" y="-62.1" font-family="Verdana" font-size="8.00">+ «abstract» setCurrentFile(file : Symfony\Component\Finder\SplFileInfo) : void</text>
<text text-anchor="start" x="1267" y="-49.1" font-family="Verdana" font-size="8.00">+ «abstract» getName() : string</text>
<text text-anchor="start" x="1267" y="-36.1" font-family="Verdana" font-size="8.00">+ «abstract» getNamespace() : string</text>
<text text-anchor="start" x="1267" y="-23.1" font-family="Verdana" font-size="8.00">+ «abstract» getShortName() : string</text>
</g>
<!-- Bartlett\\CompatInfo\\Application\\Analyser\\SniffVisitorInterface&#45;&gt;Bartlett\\CompatInfo\\Application\\Analyser\\AnalyserInterface -->
<g id="edge1" class="edge">
<title>Bartlett\\CompatInfo\\Application\\Analyser\\SniffVisitorInterface&#45;&gt;Bartlett\\CompatInfo\\Application\\Analyser\\AnalyserInterface</title>
<path fill="none" stroke="black" stroke-dasharray="5,2" d="M1428,-189.76C1428,-178.49 1428,-165.06 1428,-151.52"/>
<polygon fill="none" stroke="black" points="1431.5,-151.17 1428,-141.17 1424.5,-151.17 1431.5,-151.17"/>
</g>
<!-- Bartlett\\CompatInfo\\Application\\Analyser\\CompatibilityAnalyser -->
<g id="node5" class="node">
<title>Bartlett\\CompatInfo\\Application\\Analyser\\CompatibilityAnalyser</title>
<polygon fill="#fefece" stroke="transparent" points="1834,-846 16,-846 16,-585 1834,-585 1834,-846"/>
<polygon fill="#eeeeee" stroke="transparent" points="16,-823.5 16,-845.5 1834,-845.5 1834,-823.5 16,-823.5"/>
<polygon fill="none" stroke="black" points="16,-823.5 16,-845.5 1834,-845.5 1834,-823.5 16,-823.5"/>
<text text-anchor="start" x="874.5" y="-829.1" font-family="Verdana" font-weight="bold" font-size="8.00">CompatibilityAnalyser</text>
<polygon fill="none" stroke="black" points="16,-765.5 16,-823.5 1834,-823.5 1834,-765.5 16,-765.5"/>
<text text-anchor="start" x="21" y="-812.1" font-family="Verdana" font-size="8.00">+ «static» ANALYSER_NODE_ATTRIBUTE : string = &quot;bartlett\.data_collector&quot; {readOnly}</text>
<text text-anchor="start" x="21" y="-799.1" font-family="Verdana" font-size="8.00">+ «static» PARENT_NODE_ATTRIBUTE : string = &quot;bartlett\.parent&quot; {readOnly}</text>
<text text-anchor="start" x="21" y="-786.1" font-family="Verdana" font-size="8.00">+ «static» NAMESPACED_NAME_NODE_ATTRIBUTE : string = &quot;bartlett\.name&quot; {readOnly}</text>
<text text-anchor="start" x="21" y="-773.1" font-family="Verdana" font-size="8.00">+ «static» COLLECTOR_NAME : string = &quot;Bartlett\CompatInfo\Application\Analyser\CompatibilityAnalyser&quot; {readOnly}</text>
<polygon fill="none" stroke="black" points="16,-759.5 16,-765.5 1834,-765.5 1834,-759.5 16,-759.5"/>
<polygon fill="none" stroke="black" points="16,-584.5 16,-759.5 1834,-759.5 1834,-584.5 16,-584.5"/>
<text text-anchor="start" x="21" y="-748.1" font-family="Verdana" font-size="8.00">+ __construct(profiler : Bartlett\CompatInfo\Application\Profiler\ProfilerInterface, sniffCollection : Bartlett\CompatInfo\Application\Collection\SniffCollectionInterface, referenceCollection : Bartlett\CompatInfo\Application\Collection\ReferenceCollectionInterface, polyfillCollection : Bartlett\CompatInfo\Application\Collection\PolyfillCollectionInterface, compatibilityEventDispatcher : Symfony\Component\EventDispatcher\EventDispatcherInterface)</text>
<text text-anchor="start" x="21" y="-735.1" font-family="Verdana" font-size="8.00">+ getCurrentFile() : Symfony\Component\Finder\SplFileInfo</text>
<text text-anchor="start" x="21" y="-722.1" font-family="Verdana" font-size="8.00">+ getTokens() : array</text>
<text text-anchor="start" x="21" y="-709.1" font-family="Verdana" font-size="8.00">+ setTokens(tokens : array) : void</text>
<text text-anchor="start" x="21" y="-696.1" font-family="Verdana" font-size="8.00">+ setCurrentFile(file : Symfony\Component\Finder\SplFileInfo) : void</text>
<text text-anchor="start" x="21" y="-683.1" font-family="Verdana" font-size="8.00">+ getName() : string</text>
<text text-anchor="start" x="21" y="-670.1" font-family="Verdana" font-size="8.00">+ getNamespace() : string</text>
<text text-anchor="start" x="21" y="-657.1" font-family="Verdana" font-size="8.00">+ getShortName() : string</text>
<text text-anchor="start" x="21" y="-644.1" font-family="Verdana" font-size="8.00">+ beforeTraverse(nodes : array) : ?array</text>
<text text-anchor="start" x="21" y="-631.1" font-family="Verdana" font-size="8.00">+ afterTraverse(nodes : array) : ?array</text>
<text text-anchor="start" x="21" y="-618.1" font-family="Verdana" font-size="8.00">+ getData() : array</text>
<text text-anchor="start" x="21" y="-605.1" font-family="Verdana" font-size="8.00">+ enterNode(node : PhpParser\Node)</text>
<text text-anchor="start" x="21" y="-592.1" font-family="Verdana" font-size="8.00">+ leaveNode(node : PhpParser\Node)</text>
</g>
<!-- Bartlett\\CompatInfo\\Application\\Analyser\\CompatibilityAnalyser&#45;&gt;Bartlett\\CompatInfo\\Application\\Analyser\\AbstractSniffAnalyser -->
<g id="edge5" class="edge">
<title>Bartlett\\CompatInfo\\Application\\Analyser\\CompatibilityAnalyser&#45;&gt;Bartlett\\CompatInfo\\Application\\Analyser\\AbstractSniffAnalyser</title>
<path fill="none" stroke="black" d="M1014.26,-584.67C1020.59,-575.46 1026.87,-566.33 1032.94,-557.5"/>
<polygon fill="none" stroke="black" points="1035.91,-559.35 1038.69,-549.13 1030.14,-555.38 1035.91,-559.35"/>
</g>
</g>
</svg>
