<?xml version="1.0" encoding="UTF-8" standalone="no"?>
<!DOCTYPE svg PUBLIC "-//W3C//DTD SVG 1.1//EN"
 "http://www.w3.org/Graphics/SVG/1.1/DTD/svg11.dtd">
<!-- Generated by graphviz version 2.43.0 (0)
 -->
<!-- Title: %3 Pages: 1 -->
<svg width="386pt" height="217pt"
 viewBox="0.00 0.00 386.00 217.00" xmlns="http://www.w3.org/2000/svg" xmlns:xlink="http://www.w3.org/1999/xlink">
<g id="graph0" class="graph" transform="scale(1 1) rotate(0) translate(4 213)">
<title>%3</title>
<g id="clust1" class="cluster">
<title>cluster_0</title>
<polygon fill="BurlyWood" stroke="black" points="10,-102 10,-201 368,-201 368,-102 10,-102"/>
<text text-anchor="middle" x="189" y="-185.8" font-family="Times,serif" font-size="14.00">Bartlett\CompatInfo\Infrastructure\Bus\Query</text>
</g>
<g id="clust2" class="cluster">
<title>cluster_1</title>
<polygon fill="transparent" stroke="black" points="8,-8 8,-94 370,-94 370,-8 8,-8"/>
<text text-anchor="middle" x="189" y="-78.8" font-family="Times,serif" font-size="14.00">Bartlett\CompatInfo\Application\Query</text>
</g>
<!-- Bartlett\\CompatInfo\\Infrastructure\\Bus\\Query\\MessengerQueryBus -->
<g id="node1" class="node">
<title>Bartlett\\CompatInfo\\Infrastructure\\Bus\\Query\\MessengerQueryBus</title>
<polygon fill="#fefece" stroke="transparent" points="360,-170 18,-170 18,-110 360,-110 360,-170"/>
<polygon fill="#eeeeee" stroke="transparent" points="18,-148 18,-170 360,-170 360,-148 18,-148"/>
<polygon fill="none" stroke="black" points="18,-148 18,-170 360,-170 360,-148 18,-148"/>
<text text-anchor="start" x="142.5" y="-153.6" font-family="Verdana" font-weight="bold" font-size="8.00">MessengerQueryBus</text>
<polygon fill="none" stroke="black" points="18,-142 18,-148 360,-148 360,-142 18,-142"/>
<polygon fill="none" stroke="black" points="18,-110 18,-142 360,-142 360,-110 18,-110"/>
<text text-anchor="start" x="23" y="-130.6" font-family="Verdana" font-size="8.00">+ __construct(queryBus : Symfony\Component\Messenger\MessageBusInterface)</text>
<text text-anchor="start" x="23" y="-117.6" font-family="Verdana" font-size="8.00">+ query(query : Bartlett\CompatInfo\Application\Query\QueryInterface)</text>
</g>
<!-- Bartlett\\CompatInfo\\Application\\Query\\QueryBusInterface -->
<g id="node2" class="node">
<title>Bartlett\\CompatInfo\\Application\\Query\\QueryBusInterface</title>
<polygon fill="#fefece" stroke="transparent" points="362,-63 16,-63 16,-16 362,-16 362,-63"/>
<polygon fill="#eeeeee" stroke="transparent" points="16,-40.5 16,-62.5 362,-62.5 362,-40.5 16,-40.5"/>
<polygon fill="none" stroke="black" points="16,-40.5 16,-62.5 362,-62.5 362,-40.5 16,-40.5"/>
<text text-anchor="start" x="163" y="-54.1" font-family="Verdana" font-weight="bold" font-size="8.00">«interface»</text>
<text text-anchor="start" x="146.5" y="-46.1" font-family="Verdana" font-weight="bold" font-size="8.00">QueryBusInterface</text>
<polygon fill="none" stroke="black" points="16,-34.5 16,-40.5 362,-40.5 362,-34.5 16,-34.5"/>
<polygon fill="none" stroke="black" points="16,-15.5 16,-34.5 362,-34.5 362,-15.5 16,-15.5"/>
<text text-anchor="start" x="21" y="-23.1" font-family="Verdana" font-size="8.00">+ «abstract» query(query : Bartlett\CompatInfo\Application\Query\QueryInterface)</text>
</g>
<!-- Bartlett\\CompatInfo\\Infrastructure\\Bus\\Query\\MessengerQueryBus&#45;&gt;Bartlett\\CompatInfo\\Application\\Query\\QueryBusInterface -->
<g id="edge1" class="edge">
<title>Bartlett\\CompatInfo\\Infrastructure\\Bus\\Query\\MessengerQueryBus&#45;&gt;Bartlett\\CompatInfo\\Application\\Query\\QueryBusInterface</title>
<path fill="none" stroke="black" stroke-dasharray="5,2" d="M189,-109.98C189,-98.39 189,-85 189,-73.08"/>
<polygon fill="none" stroke="black" points="192.5,-73.07 189,-63.07 185.5,-73.07 192.5,-73.07"/>
</g>
</g>
</svg>
