<?xml version="1.0" encoding="UTF-8" standalone="no"?>
<!DOCTYPE svg PUBLIC "-//W3C//DTD SVG 1.1//EN"
 "http://www.w3.org/Graphics/SVG/1.1/DTD/svg11.dtd">
<!-- Generated by graphviz version 2.43.0 (0)
 -->
<!-- Title: %3 Pages: 1 -->
<svg width="1829pt" height="571pt"
 viewBox="0.00 0.00 1829.00 571.00" xmlns="http://www.w3.org/2000/svg" xmlns:xlink="http://www.w3.org/1999/xlink">
<g id="graph0" class="graph" transform="scale(1 1) rotate(0) translate(4 567)">
<title>%3</title>
<g id="clust1" class="cluster">
<title>cluster_0</title>
<polygon fill="#cdaa7d" stroke="black" points="8,-257 8,-555 1158,-555 1158,-257 8,-257"/>
<text text-anchor="middle" x="583" y="-539.8" font-family="Times,serif" font-size="14.00">Bartlett\CompatInfo\Application\Query\Analyser\Compatibility</text>
</g>
<g id="clust2" class="cluster">
<title>cluster_1</title>
<polygon fill="#cdaa7d" stroke="black" points="1178,-101 1178,-358 1813,-358 1813,-101 1178,-101"/>
<text text-anchor="middle" x="1495.5" y="-342.8" font-family="Times,serif" font-size="14.00">Bartlett\CompatInfo\Application\Query</text>
</g>
<g id="clust3" class="cluster">
<title>cluster_2</title>
<polygon fill="#cdaa7d" stroke="black" points="33.5,-8 33.5,-249 1132.5,-249 1132.5,-8 33.5,-8"/>
<text text-anchor="middle" x="583" y="-233.8" font-family="Times,serif" font-size="14.00">Bartlett\CompatInfo\Application\Query\Diagnose</text>
</g>
<!-- Bartlett\\CompatInfo\\Application\\Query\\Analyser\\Compatibility\\GetCompatibilityHandler -->
<g id="node1" class="node">
<title>Bartlett\\CompatInfo\\Application\\Query\\Analyser\\Compatibility\\GetCompatibilityHandler</title>
<polygon fill="#fefece" stroke="transparent" points="1150,-524 16,-524 16,-432 1150,-432 1150,-524"/>
<polygon fill="#eeeeee" stroke="transparent" points="24,-486 24,-520 1142,-520 1142,-486 24,-486"/>
<polygon fill="none" stroke="black" points="24,-486 24,-520 1142,-520 1142,-486 24,-486"/>
<text text-anchor="start" x="483.5" y="-492.8" font-family="Times,serif" font-weight="bold" font-size="14.00">GetCompatibilityHandler</text>
<polygon fill="none" stroke="black" points="24,-480 24,-486 1142,-486 1142,-480 24,-480"/>
<polygon fill="none" stroke="black" points="24,-436 24,-480 1142,-480 1142,-436 24,-436"/>
<text text-anchor="start" x="29" y="-463.8" font-family="Times,serif" font-size="14.00">+ __construct(parser : Bartlett\CompatInfo\Application\PhpParser\Parser)</text>
<text text-anchor="start" x="29" y="-444.8" font-family="Times,serif" font-size="14.00">+ __invoke(query : Bartlett\CompatInfo\Application\Query\Analyser\Compatibility\GetCompatibilityQuery) : Bartlett\CompatInfo\Application\Profiler\Profile</text>
</g>
<!-- Bartlett\\CompatInfo\\Application\\Query\\QueryHandlerInterface -->
<g id="node3" class="node">
<title>Bartlett\\CompatInfo\\Application\\Query\\QueryHandlerInterface</title>
<polygon fill="#fefece" stroke="transparent" points="1599,-327 1392,-327 1392,-273 1599,-273 1599,-327"/>
<polygon fill="#eeeeee" stroke="transparent" points="1400.5,-289 1400.5,-323 1591.5,-323 1591.5,-289 1400.5,-289"/>
<polygon fill="none" stroke="black" points="1400.5,-289 1400.5,-323 1591.5,-323 1591.5,-289 1400.5,-289"/>
<text text-anchor="start" x="1451" y="-309.8" font-family="Times,serif" font-weight="bold" font-size="14.00">«interface»</text>
<text text-anchor="start" x="1403.5" y="-295.8" font-family="Times,serif" font-weight="bold" font-size="14.00">QueryHandlerInterface</text>
<polygon fill="none" stroke="black" points="1400.5,-283 1400.5,-289 1591.5,-289 1591.5,-283 1400.5,-283"/>
<polygon fill="none" stroke="black" points="1400.5,-277 1400.5,-283 1591.5,-283 1591.5,-277 1400.5,-277"/>
</g>
<!-- Bartlett\\CompatInfo\\Application\\Query\\Analyser\\Compatibility\\GetCompatibilityHandler&#45;&gt;Bartlett\\CompatInfo\\Application\\Query\\QueryHandlerInterface -->
<g id="edge1" class="edge">
<title>Bartlett\\CompatInfo\\Application\\Query\\Analyser\\Compatibility\\GetCompatibilityHandler&#45;&gt;Bartlett\\CompatInfo\\Application\\Query\\QueryHandlerInterface</title>
<path fill="none" stroke="black" stroke-dasharray="5,2" d="M1115.64,-431.93C1129.95,-429.13 1144.09,-426.15 1158,-423 1253.45,-401.36 1358.69,-359.85 1425.63,-331.08"/>
<polygon fill="none" stroke="black" points="1427.02,-334.29 1434.81,-327.1 1424.24,-327.86 1427.02,-334.29"/>
</g>
<!-- Bartlett\\CompatInfo\\Application\\Query\\Analyser\\Compatibility\\GetCompatibilityQuery -->
<g id="node2" class="node">
<title>Bartlett\\CompatInfo\\Application\\Query\\Analyser\\Compatibility\\GetCompatibilityQuery</title>
<polygon fill="#fefece" stroke="transparent" points="894.5,-413.5 271.5,-413.5 271.5,-264.5 894.5,-264.5 894.5,-413.5"/>
<polygon fill="#eeeeee" stroke="transparent" points="280,-375 280,-409 887,-409 887,-375 280,-375"/>
<polygon fill="none" stroke="black" points="280,-375 280,-409 887,-409 887,-375 280,-375"/>
<text text-anchor="start" x="492.5" y="-381.8" font-family="Times,serif" font-weight="bold" font-size="14.00">GetCompatibilityQuery</text>
<polygon fill="none" stroke="black" points="280,-369 280,-375 887,-375 887,-369 280,-369"/>
<polygon fill="none" stroke="black" points="280,-268 280,-369 887,-369 887,-268 280,-268"/>
<text text-anchor="start" x="285" y="-352.8" font-family="Times,serif" font-size="14.00">+ __construct(source : string, exclude : array, stopOnFailure : bool, version : string)</text>
<text text-anchor="start" x="285" y="-333.8" font-family="Times,serif" font-size="14.00">+ getSource() : string</text>
<text text-anchor="start" x="285" y="-314.8" font-family="Times,serif" font-size="14.00">+ getExclude() : array</text>
<text text-anchor="start" x="285" y="-295.8" font-family="Times,serif" font-size="14.00">+ isStopOnFailure() : bool</text>
<text text-anchor="start" x="285" y="-276.8" font-family="Times,serif" font-size="14.00">+ getVersion() : string</text>
</g>
<!-- Bartlett\\CompatInfo\\Application\\Query\\QueryInterface -->
<g id="node4" class="node">
<title>Bartlett\\CompatInfo\\Application\\Query\\QueryInterface</title>
<polygon fill="#fefece" stroke="transparent" points="1567,-255 1424,-255 1424,-201 1567,-201 1567,-255"/>
<polygon fill="#eeeeee" stroke="transparent" points="1432.5,-217 1432.5,-251 1559.5,-251 1559.5,-217 1432.5,-217"/>
<polygon fill="none" stroke="black" points="1432.5,-217 1432.5,-251 1559.5,-251 1559.5,-217 1432.5,-217"/>
<text text-anchor="start" x="1451" y="-237.8" font-family="Times,serif" font-weight="bold" font-size="14.00">«interface»</text>
<text text-anchor="start" x="1435.5" y="-223.8" font-family="Times,serif" font-weight="bold" font-size="14.00">QueryInterface</text>
<polygon fill="none" stroke="black" points="1432.5,-211 1432.5,-217 1559.5,-217 1559.5,-211 1432.5,-211"/>
<polygon fill="none" stroke="black" points="1432.5,-205 1432.5,-211 1559.5,-211 1559.5,-205 1432.5,-205"/>
</g>
<!-- Bartlett\\CompatInfo\\Application\\Query\\Analyser\\Compatibility\\GetCompatibilityQuery&#45;&gt;Bartlett\\CompatInfo\\Application\\Query\\QueryInterface -->
<g id="edge2" class="edge">
<title>Bartlett\\CompatInfo\\Application\\Query\\Analyser\\Compatibility\\GetCompatibilityQuery&#45;&gt;Bartlett\\CompatInfo\\Application\\Query\\QueryInterface</title>
<path fill="none" stroke="black" stroke-dasharray="5,2" d="M894.51,-299.06C985.81,-287.51 1085.89,-275.05 1178,-264 1258.13,-254.38 1349.76,-244.03 1413.74,-236.91"/>
<polygon fill="none" stroke="black" points="1414.21,-240.38 1423.76,-235.79 1413.44,-233.42 1414.21,-240.38"/>
</g>
<!-- Bartlett\\CompatInfo\\Application\\Query\\QueryBusInterface -->
<g id="node5" class="node">
<title>Bartlett\\CompatInfo\\Application\\Query\\QueryBusInterface</title>
<polygon fill="#fefece" stroke="transparent" points="1805,-182.5 1186,-182.5 1186,-109.5 1805,-109.5 1805,-182.5"/>
<polygon fill="#eeeeee" stroke="transparent" points="1194.5,-144 1194.5,-178 1797.5,-178 1797.5,-144 1194.5,-144"/>
<polygon fill="none" stroke="black" points="1194.5,-144 1194.5,-178 1797.5,-178 1797.5,-144 1194.5,-144"/>
<text text-anchor="start" x="1451" y="-164.8" font-family="Times,serif" font-weight="bold" font-size="14.00">«interface»</text>
<text text-anchor="start" x="1420.5" y="-150.8" font-family="Times,serif" font-weight="bold" font-size="14.00">QueryBusInterface</text>
<polygon fill="none" stroke="black" points="1194.5,-138 1194.5,-144 1797.5,-144 1797.5,-138 1194.5,-138"/>
<polygon fill="none" stroke="black" points="1194.5,-113 1194.5,-138 1797.5,-138 1797.5,-113 1194.5,-113"/>
<text text-anchor="start" x="1199.5" y="-121.8" font-family="Times,serif" font-size="14.00">+ «abstract» query(query : Bartlett\CompatInfo\Application\Query\QueryInterface)</text>
</g>
<!-- Bartlett\\CompatInfo\\Application\\Query\\Diagnose\\DiagnoseHandler -->
<g id="node6" class="node">
<title>Bartlett\\CompatInfo\\Application\\Query\\Diagnose\\DiagnoseHandler</title>
<polygon fill="#fefece" stroke="transparent" points="1124.5,-218 41.5,-218 41.5,-126 1124.5,-126 1124.5,-218"/>
<polygon fill="#eeeeee" stroke="transparent" points="50,-180 50,-214 1117,-214 1117,-180 50,-180"/>
<polygon fill="none" stroke="black" points="50,-180 50,-214 1117,-214 1117,-180 50,-180"/>
<text text-anchor="start" x="514.5" y="-186.8" font-family="Times,serif" font-weight="bold" font-size="14.00">DiagnoseHandler</text>
<polygon fill="none" stroke="black" points="50,-174 50,-180 1117,-180 1117,-174 50,-174"/>
<polygon fill="none" stroke="black" points="50,-130 50,-174 1117,-174 1117,-130 50,-130"/>
<text text-anchor="start" x="55" y="-157.8" font-family="Times,serif" font-size="14.00">+ __construct(handler : Bartlett\CompatInfoDb\Application\Query\Diagnose\DiagnoseHandler)</text>
<text text-anchor="start" x="55" y="-138.8" font-family="Times,serif" font-size="14.00">+ __invoke(query : Bartlett\CompatInfo\Application\Query\Diagnose\DiagnoseQuery) : Bartlett\CompatInfoDb\Infrastructure\RequirementsInterface</text>
</g>
<!-- Bartlett\\CompatInfo\\Application\\Query\\Diagnose\\DiagnoseHandler&#45;&gt;Bartlett\\CompatInfo\\Application\\Query\\QueryHandlerInterface -->
<g id="edge3" class="edge">
<title>Bartlett\\CompatInfo\\Application\\Query\\Diagnose\\DiagnoseHandler&#45;&gt;Bartlett\\CompatInfo\\Application\\Query\\QueryHandlerInterface</title>
<path fill="none" stroke="black" stroke-dasharray="5,2" d="M1027.29,-218.02C1071.97,-227.56 1116.23,-239.09 1158,-253 1167.62,-256.21 1168.33,-260.92 1178,-264 1243.64,-284.89 1320.34,-293.97 1381.79,-297.79"/>
<polygon fill="none" stroke="black" points="1381.72,-301.29 1391.91,-298.38 1382.13,-294.31 1381.72,-301.29"/>
</g>
<!-- Bartlett\\CompatInfo\\Application\\Query\\Diagnose\\DiagnoseQuery -->
<g id="node7" class="node">
<title>Bartlett\\CompatInfo\\Application\\Query\\Diagnose\\DiagnoseQuery</title>
<polygon fill="#fefece" stroke="transparent" points="849.5,-108 316.5,-108 316.5,-16 849.5,-16 849.5,-108"/>
<polygon fill="#eeeeee" stroke="transparent" points="325,-70 325,-104 842,-104 842,-70 325,-70"/>
<polygon fill="none" stroke="black" points="325,-70 325,-104 842,-104 842,-70 325,-70"/>
<text text-anchor="start" x="523" y="-76.8" font-family="Times,serif" font-weight="bold" font-size="14.00">DiagnoseQuery</text>
<polygon fill="none" stroke="black" points="325,-64 325,-70 842,-70 842,-64 325,-64"/>
<polygon fill="none" stroke="black" points="325,-20 325,-64 842,-64 842,-20 325,-20"/>
<text text-anchor="start" x="330" y="-47.8" font-family="Times,serif" font-size="14.00">+ __construct(entityManager : Doctrine\ORM\EntityManagerInterface)</text>
<text text-anchor="start" x="330" y="-28.8" font-family="Times,serif" font-size="14.00">+ getDatabaseConnection() : Doctrine\DBAL\Connection</text>
</g>
<!-- Bartlett\\CompatInfo\\Application\\Query\\Diagnose\\DiagnoseQuery&#45;&gt;Bartlett\\CompatInfo\\Application\\Query\\QueryInterface -->
<g id="edge4" class="edge">
<title>Bartlett\\CompatInfo\\Application\\Query\\Diagnose\\DiagnoseQuery&#45;&gt;Bartlett\\CompatInfo\\Application\\Query\\QueryInterface</title>
<path fill="none" stroke="black" stroke-dasharray="5,2" d="M849.52,-25.8C956.45,-25.7 1074.07,-45.9 1158,-117 1184.32,-139.3 1151.88,-169.47 1178,-192 1242.26,-247.43 1343.2,-249.34 1413.76,-241.98"/>
<polygon fill="none" stroke="black" points="1414.4,-245.43 1423.95,-240.83 1413.62,-238.47 1414.4,-245.43"/>
</g>
</g>
</svg>
