<?xml version="1.0" encoding="UTF-8" standalone="no"?>
<!DOCTYPE svg PUBLIC "-//W3C//DTD SVG 1.1//EN"
 "http://www.w3.org/Graphics/SVG/1.1/DTD/svg11.dtd">
<!-- Generated by graphviz version 2.43.0 (0)
 -->
<!-- Title: %3 Pages: 1 -->
<svg width="4659pt" height="1634pt"
 viewBox="0.00 0.00 4659.00 1634.00" xmlns="http://www.w3.org/2000/svg" xmlns:xlink="http://www.w3.org/1999/xlink">
<g id="graph0" class="graph" transform="scale(1 1) rotate(0) translate(4 1630)">
<title>%3</title>
<g id="clust1" class="cluster">
<title>cluster_0</title>
<polygon fill="#cdaa7d" stroke="black" points="0,-1283 0,-1487 413,-1487 413,-1283 0,-1283"/>
<text text-anchor="middle" x="206.5" y="-1471.8" font-family="Times,serif" font-size="14.00">Bartlett\CompatInfo\Application\PhpParser\Node\Name</text>
</g>
<g id="clust2" class="cluster">
<title>cluster_1</title>
<polygon fill="transparent" stroke="black" points="803,-1282 803,-1489 1028,-1489 1028,-1282 803,-1282"/>
<text text-anchor="middle" x="915.5" y="-1473.8" font-family="Times,serif" font-size="14.00">PhpParser\Node\Name</text>
</g>
<g id="clust3" class="cluster">
<title>cluster_2</title>
<polygon fill="transparent" stroke="black" points="2217,-1177 2217,-1594 2776,-1594 2776,-1177 2217,-1177"/>
<text text-anchor="middle" x="2496.5" y="-1578.8" font-family="Times,serif" font-size="14.00">PhpParser\Node</text>
</g>
<g id="clust4" class="cluster">
<title>cluster_3</title>
<polygon fill="transparent" stroke="black" points="3595,-822 3595,-1497 4643,-1497 4643,-822 3595,-822"/>
<text text-anchor="middle" x="4119" y="-1481.8" font-family="Times,serif" font-size="14.00">PhpParser</text>
</g>
<g id="clust5" class="cluster">
<title>cluster_4</title>
<polygon fill="transparent" stroke="black" points="4245.5,-1505 4245.5,-1618 4486.5,-1618 4486.5,-1505 4245.5,-1505"/>
<text text-anchor="middle" x="4366" y="-1602.8" font-family="Times,serif" font-size="14.00">0</text>
</g>
<g id="clust6" class="cluster">
<title>cluster_5</title>
<polygon fill="#cdaa7d" stroke="black" points="433,-8 433,-507 2789.5,-507 2789.5,-8 433,-8"/>
<text text-anchor="middle" x="1611.25" y="-491.8" font-family="Times,serif" font-size="14.00">Bartlett\CompatInfo\Application\PhpParser\NodeVisitor</text>
</g>
<g id="clust7" class="cluster">
<title>cluster_6</title>
<polygon fill="transparent" stroke="black" points="2156,-784 2156,-1101 2837,-1101 2837,-784 2156,-784"/>
<text text-anchor="middle" x="2496.5" y="-1085.8" font-family="Times,serif" font-size="14.00">PhpParser\NodeVisitor</text>
</g>
<g id="clust8" class="cluster">
<title>cluster_7</title>
<polygon fill="#cdaa7d" stroke="black" points="1418,-515 1418,-776 3575,-776 3575,-515 1418,-515"/>
<text text-anchor="middle" x="2496.5" y="-760.8" font-family="Times,serif" font-size="14.00">Bartlett\CompatInfo\Application\PhpParser</text>
</g>
<!-- Bartlett\\CompatInfo\\Application\\PhpParser\\Node\\Name\\ClassFullyQualified -->
<g id="node1" class="node">
<title>Bartlett\\CompatInfo\\Application\\PhpParser\\Node\\Name\\ClassFullyQualified</title>
<polygon fill="#fefece" stroke="transparent" points="293.5,-1455.5 118.5,-1455.5 118.5,-1382.5 293.5,-1382.5 293.5,-1455.5"/>
<polygon fill="#eeeeee" stroke="transparent" points="127,-1417 127,-1451 286,-1451 286,-1417 127,-1417"/>
<polygon fill="none" stroke="black" points="127,-1417 127,-1451 286,-1451 286,-1417 127,-1417"/>
<text text-anchor="start" x="130" y="-1423.8" font-family="Times,serif" font-weight="bold" font-size="14.00">ClassFullyQualified</text>
<polygon fill="none" stroke="black" points="127,-1411 127,-1417 286,-1417 286,-1411 127,-1411"/>
<polygon fill="none" stroke="black" points="127,-1386 127,-1411 286,-1411 286,-1386 127,-1386"/>
<text text-anchor="start" x="132" y="-1394.8" font-family="Times,serif" font-size="14.00">+ getType() : string</text>
</g>
<!-- PhpParser\\Node\\Name\\FullyQualified -->
<g id="node3" class="node">
<title>PhpParser\\Node\\Name\\FullyQualified</title>
<polygon fill="#fefece" stroke="transparent" points="1020,-1458 811,-1458 811,-1290 1020,-1290 1020,-1458"/>
<polygon fill="#eeeeee" stroke="transparent" points="819.5,-1420 819.5,-1454 1012.5,-1454 1012.5,-1420 819.5,-1420"/>
<polygon fill="none" stroke="black" points="819.5,-1420 819.5,-1454 1012.5,-1454 1012.5,-1420 819.5,-1420"/>
<text text-anchor="start" x="860.5" y="-1426.8" font-family="Times,serif" font-weight="bold" font-size="14.00">FullyQualified</text>
<polygon fill="none" stroke="black" points="819.5,-1414 819.5,-1420 1012.5,-1420 1012.5,-1414 819.5,-1414"/>
<polygon fill="none" stroke="black" points="819.5,-1294 819.5,-1414 1012.5,-1414 1012.5,-1294 819.5,-1294"/>
<text text-anchor="start" x="824.5" y="-1397.8" font-family="Times,serif" font-size="14.00">+ isUnqualified() : bool</text>
<text text-anchor="start" x="824.5" y="-1378.8" font-family="Times,serif" font-size="14.00">+ isQualified() : bool</text>
<text text-anchor="start" x="824.5" y="-1359.8" font-family="Times,serif" font-size="14.00">+ isFullyQualified() : bool</text>
<text text-anchor="start" x="824.5" y="-1340.8" font-family="Times,serif" font-size="14.00">+ isRelative() : bool</text>
<text text-anchor="start" x="824.5" y="-1321.8" font-family="Times,serif" font-size="14.00">+ toCodeString() : string</text>
<text text-anchor="start" x="824.5" y="-1302.8" font-family="Times,serif" font-size="14.00">+ getType() : string</text>
</g>
<!-- Bartlett\\CompatInfo\\Application\\PhpParser\\Node\\Name\\ClassFullyQualified&#45;&gt;PhpParser\\Node\\Name\\FullyQualified -->
<g id="edge5" class="edge">
<title>Bartlett\\CompatInfo\\Application\\PhpParser\\Node\\Name\\ClassFullyQualified&#45;&gt;PhpParser\\Node\\Name\\FullyQualified</title>
<path fill="none" stroke="black" d="M293.75,-1413.48C421.31,-1405.37 659.61,-1390.21 800.95,-1381.22"/>
<polygon fill="none" stroke="black" points="801.2,-1384.71 810.96,-1380.59 800.76,-1377.73 801.2,-1384.71"/>
</g>
<!-- Bartlett\\CompatInfo\\Application\\PhpParser\\Node\\Name\\InterfaceFullyQualified -->
<g id="node2" class="node">
<title>Bartlett\\CompatInfo\\Application\\PhpParser\\Node\\Name\\InterfaceFullyQualified</title>
<polygon fill="#fefece" stroke="transparent" points="309,-1364.5 103,-1364.5 103,-1291.5 309,-1291.5 309,-1364.5"/>
<polygon fill="#eeeeee" stroke="transparent" points="111,-1326 111,-1360 301,-1360 301,-1326 111,-1326"/>
<polygon fill="none" stroke="black" points="111,-1326 111,-1360 301,-1360 301,-1326 111,-1326"/>
<text text-anchor="start" x="114" y="-1332.8" font-family="Times,serif" font-weight="bold" font-size="14.00">InterfaceFullyQualified</text>
<polygon fill="none" stroke="black" points="111,-1320 111,-1326 301,-1326 301,-1320 111,-1320"/>
<polygon fill="none" stroke="black" points="111,-1295 111,-1320 301,-1320 301,-1295 111,-1295"/>
<text text-anchor="start" x="116" y="-1303.8" font-family="Times,serif" font-size="14.00">+ getType() : string</text>
</g>
<!-- Bartlett\\CompatInfo\\Application\\PhpParser\\Node\\Name\\InterfaceFullyQualified&#45;&gt;PhpParser\\Node\\Name\\FullyQualified -->
<g id="edge6" class="edge">
<title>Bartlett\\CompatInfo\\Application\\PhpParser\\Node\\Name\\InterfaceFullyQualified&#45;&gt;PhpParser\\Node\\Name\\FullyQualified</title>
<path fill="none" stroke="black" d="M309.12,-1334.64C439.69,-1343.13 665.1,-1357.78 800.94,-1366.62"/>
<polygon fill="none" stroke="black" points="800.77,-1370.11 810.97,-1367.27 801.22,-1363.13 800.77,-1370.11"/>
</g>
<!-- PhpParser\\Node\\Name -->
<g id="node4" class="node">
<title>PhpParser\\Node\\Name</title>
<polygon fill="#fefece" stroke="transparent" points="2768,-1562.5 2225,-1562.5 2225,-1185.5 2768,-1185.5 2768,-1562.5"/>
<polygon fill="#eeeeee" stroke="transparent" points="2233.5,-1524 2233.5,-1558 2760.5,-1558 2760.5,-1524 2233.5,-1524"/>
<polygon fill="none" stroke="black" points="2233.5,-1524 2233.5,-1558 2760.5,-1558 2760.5,-1524 2233.5,-1524"/>
<text text-anchor="start" x="2474" y="-1530.8" font-family="Times,serif" font-weight="bold" font-size="14.00">Name</text>
<polygon fill="none" stroke="black" points="2233.5,-1499 2233.5,-1524 2760.5,-1524 2760.5,-1499 2233.5,-1499"/>
<text text-anchor="start" x="2238.5" y="-1507.8" font-family="Times,serif" font-size="14.00">+ parts : mixed</text>
<polygon fill="none" stroke="black" points="2233.5,-1189 2233.5,-1499 2760.5,-1499 2760.5,-1189 2233.5,-1189"/>
<text text-anchor="start" x="2238.5" y="-1482.8" font-family="Times,serif" font-size="14.00">+ __construct(name : mixed, attributes : array = [])</text>
<text text-anchor="start" x="2238.5" y="-1463.8" font-family="Times,serif" font-size="14.00">+ getSubNodeNames() : array</text>
<text text-anchor="start" x="2238.5" y="-1444.8" font-family="Times,serif" font-size="14.00">+ getFirst() : string</text>
<text text-anchor="start" x="2238.5" y="-1425.8" font-family="Times,serif" font-size="14.00">+ getLast() : string</text>
<text text-anchor="start" x="2238.5" y="-1406.8" font-family="Times,serif" font-size="14.00">+ isUnqualified() : bool</text>
<text text-anchor="start" x="2238.5" y="-1387.8" font-family="Times,serif" font-size="14.00">+ isQualified() : bool</text>
<text text-anchor="start" x="2238.5" y="-1368.8" font-family="Times,serif" font-size="14.00">+ isFullyQualified() : bool</text>
<text text-anchor="start" x="2238.5" y="-1349.8" font-family="Times,serif" font-size="14.00">+ isRelative() : bool</text>
<text text-anchor="start" x="2238.5" y="-1330.8" font-family="Times,serif" font-size="14.00">+ toString() : string</text>
<text text-anchor="start" x="2238.5" y="-1311.8" font-family="Times,serif" font-size="14.00">+ toCodeString() : string</text>
<text text-anchor="start" x="2238.5" y="-1292.8" font-family="Times,serif" font-size="14.00">+ toLowerString() : string</text>
<text text-anchor="start" x="2238.5" y="-1273.8" font-family="Times,serif" font-size="14.00">+ isSpecialClassName() : bool</text>
<text text-anchor="start" x="2238.5" y="-1254.8" font-family="Times,serif" font-size="14.00">+ __toString() : string</text>
<text text-anchor="start" x="2238.5" y="-1235.8" font-family="Times,serif" font-size="14.00">+ slice(offset : int, length : int = «unknown»)</text>
<text text-anchor="start" x="2238.5" y="-1216.8" font-family="Times,serif" font-size="14.00">+ «static» concat(name1 : mixed, name2 : mixed, attributes : array = [])</text>
<text text-anchor="start" x="2238.5" y="-1197.8" font-family="Times,serif" font-size="14.00">+ getType() : string</text>
</g>
<!-- PhpParser\\Node\\Name\\FullyQualified&#45;&gt;PhpParser\\Node\\Name -->
<g id="edge4" class="edge">
<title>PhpParser\\Node\\Name\\FullyQualified&#45;&gt;PhpParser\\Node\\Name</title>
<path fill="none" stroke="black" d="M1020.1,-1374C1259.48,-1374 1857.73,-1374 2214.59,-1374"/>
<polygon fill="none" stroke="black" points="2214.82,-1377.5 2224.82,-1374 2214.82,-1370.5 2214.82,-1377.5"/>
</g>
<!-- PhpParser\\NodeAbstract -->
<g id="node5" class="node">
<title>PhpParser\\NodeAbstract</title>
<polygon fill="#fefece" stroke="transparent" points="4061,-1465.5 3603,-1465.5 3603,-1088.5 4061,-1088.5 4061,-1465.5"/>
<polygon fill="#eeeeee" stroke="transparent" points="3611,-1427 3611,-1461 4053,-1461 4053,-1427 3611,-1427"/>
<polygon fill="none" stroke="black" points="3611,-1427 3611,-1461 4053,-1461 4053,-1427 3611,-1427"/>
<text text-anchor="start" x="3790" y="-1447.8" font-family="Times,serif" font-weight="bold" font-size="14.00">«abstract»</text>
<text text-anchor="start" x="3778" y="-1433.8" font-family="Times,serif" font-weight="bold" font-size="14.00">NodeAbstract</text>
<polygon fill="none" stroke="black" points="3611,-1421 3611,-1427 4053,-1427 4053,-1421 3611,-1421"/>
<polygon fill="none" stroke="black" points="3611,-1092 3611,-1421 4053,-1421 4053,-1092 3611,-1092"/>
<text text-anchor="start" x="3616" y="-1404.8" font-family="Times,serif" font-size="14.00">+ __construct(attributes : array = [])</text>
<text text-anchor="start" x="3616" y="-1385.8" font-family="Times,serif" font-size="14.00">+ getLine() : int</text>
<text text-anchor="start" x="3616" y="-1366.8" font-family="Times,serif" font-size="14.00">+ getStartLine() : int</text>
<text text-anchor="start" x="3616" y="-1347.8" font-family="Times,serif" font-size="14.00">+ getEndLine() : int</text>
<text text-anchor="start" x="3616" y="-1328.8" font-family="Times,serif" font-size="14.00">+ getStartTokenPos() : int</text>
<text text-anchor="start" x="3616" y="-1309.8" font-family="Times,serif" font-size="14.00">+ getEndTokenPos() : int</text>
<text text-anchor="start" x="3616" y="-1290.8" font-family="Times,serif" font-size="14.00">+ getStartFilePos() : int</text>
<text text-anchor="start" x="3616" y="-1271.8" font-family="Times,serif" font-size="14.00">+ getEndFilePos() : int</text>
<text text-anchor="start" x="3616" y="-1252.8" font-family="Times,serif" font-size="14.00">+ getComments() : array</text>
<text text-anchor="start" x="3616" y="-1233.8" font-family="Times,serif" font-size="14.00">+ getDocComment()</text>
<text text-anchor="start" x="3616" y="-1214.8" font-family="Times,serif" font-size="14.00">+ setDocComment(docComment : PhpParser\Comment\Doc)</text>
<text text-anchor="start" x="3616" y="-1195.8" font-family="Times,serif" font-size="14.00">+ setAttribute(key : string, value)</text>
<text text-anchor="start" x="3616" y="-1176.8" font-family="Times,serif" font-size="14.00">+ hasAttribute(key : string) : bool</text>
<text text-anchor="start" x="3616" y="-1157.8" font-family="Times,serif" font-size="14.00">+ getAttribute(key : string, default = «unknown»)</text>
<text text-anchor="start" x="3616" y="-1138.8" font-family="Times,serif" font-size="14.00">+ getAttributes() : array</text>
<text text-anchor="start" x="3616" y="-1119.8" font-family="Times,serif" font-size="14.00">+ setAttributes(attributes : array)</text>
<text text-anchor="start" x="3616" y="-1100.8" font-family="Times,serif" font-size="14.00">+ jsonSerialize() : array</text>
</g>
<!-- PhpParser\\Node\\Name&#45;&gt;PhpParser\\NodeAbstract -->
<g id="edge3" class="edge">
<title>PhpParser\\Node\\Name&#45;&gt;PhpParser\\NodeAbstract</title>
<path fill="none" stroke="black" d="M2768.16,-1354.31C3010.07,-1336.71 3361.12,-1311.18 3592.64,-1294.34"/>
<polygon fill="none" stroke="black" points="3593.16,-1297.81 3602.88,-1293.59 3592.66,-1290.83 3593.16,-1297.81"/>
</g>
<!-- PhpParser\\Node -->
<g id="node6" class="node">
<title>PhpParser\\Node</title>
<polygon fill="#fefece" stroke="transparent" points="4635,-1465.5 4097,-1465.5 4097,-1088.5 4635,-1088.5 4635,-1465.5"/>
<polygon fill="#eeeeee" stroke="transparent" points="4105,-1427 4105,-1461 4627,-1461 4627,-1427 4105,-1427"/>
<polygon fill="none" stroke="black" points="4105,-1427 4105,-1461 4627,-1461 4627,-1427 4105,-1427"/>
<text text-anchor="start" x="4321" y="-1447.8" font-family="Times,serif" font-weight="bold" font-size="14.00">«interface»</text>
<text text-anchor="start" x="4345.5" y="-1433.8" font-family="Times,serif" font-weight="bold" font-size="14.00">Node</text>
<polygon fill="none" stroke="black" points="4105,-1421 4105,-1427 4627,-1427 4627,-1421 4105,-1421"/>
<polygon fill="none" stroke="black" points="4105,-1092 4105,-1421 4627,-1421 4627,-1092 4105,-1092"/>
<text text-anchor="start" x="4110" y="-1404.8" font-family="Times,serif" font-size="14.00">+ «abstract» getType() : string</text>
<text text-anchor="start" x="4110" y="-1385.8" font-family="Times,serif" font-size="14.00">+ «abstract» getSubNodeNames() : array</text>
<text text-anchor="start" x="4110" y="-1366.8" font-family="Times,serif" font-size="14.00">+ «abstract» getLine() : int</text>
<text text-anchor="start" x="4110" y="-1347.8" font-family="Times,serif" font-size="14.00">+ «abstract» getStartLine() : int</text>
<text text-anchor="start" x="4110" y="-1328.8" font-family="Times,serif" font-size="14.00">+ «abstract» getEndLine() : int</text>
<text text-anchor="start" x="4110" y="-1309.8" font-family="Times,serif" font-size="14.00">+ «abstract» getStartTokenPos() : int</text>
<text text-anchor="start" x="4110" y="-1290.8" font-family="Times,serif" font-size="14.00">+ «abstract» getEndTokenPos() : int</text>
<text text-anchor="start" x="4110" y="-1271.8" font-family="Times,serif" font-size="14.00">+ «abstract» getStartFilePos() : int</text>
<text text-anchor="start" x="4110" y="-1252.8" font-family="Times,serif" font-size="14.00">+ «abstract» getEndFilePos() : int</text>
<text text-anchor="start" x="4110" y="-1233.8" font-family="Times,serif" font-size="14.00">+ «abstract» getComments() : array</text>
<text text-anchor="start" x="4110" y="-1214.8" font-family="Times,serif" font-size="14.00">+ «abstract» getDocComment()</text>
<text text-anchor="start" x="4110" y="-1195.8" font-family="Times,serif" font-size="14.00">+ «abstract» setDocComment(docComment : PhpParser\Comment\Doc)</text>
<text text-anchor="start" x="4110" y="-1176.8" font-family="Times,serif" font-size="14.00">+ «abstract» setAttribute(key : string, value : mixed)</text>
<text text-anchor="start" x="4110" y="-1157.8" font-family="Times,serif" font-size="14.00">+ «abstract» hasAttribute(key : string) : bool</text>
<text text-anchor="start" x="4110" y="-1138.8" font-family="Times,serif" font-size="14.00">+ «abstract» getAttribute(key : string, default : mixed = «unknown»)</text>
<text text-anchor="start" x="4110" y="-1119.8" font-family="Times,serif" font-size="14.00">+ «abstract» getAttributes() : array</text>
<text text-anchor="start" x="4110" y="-1100.8" font-family="Times,serif" font-size="14.00">+ «abstract» setAttributes(attributes : array)</text>
</g>
<!-- PhpParser\\NodeAbstract&#45;&gt;PhpParser\\Node -->
<g id="edge1" class="edge">
<title>PhpParser\\NodeAbstract&#45;&gt;PhpParser\\Node</title>
<path fill="none" stroke="black" stroke-dasharray="5,2" d="M4061.32,-1277C4069.63,-1277 4078,-1277 4086.38,-1277"/>
<polygon fill="none" stroke="black" points="4086.61,-1280.5 4096.61,-1277 4086.61,-1273.5 4086.61,-1280.5"/>
</g>
<!-- JsonSerializable -->
<g id="node10" class="node">
<title>JsonSerializable</title>
<polygon fill="#fefece" stroke="transparent" points="4478.5,-1586.5 4253.5,-1586.5 4253.5,-1513.5 4478.5,-1513.5 4478.5,-1586.5"/>
<polygon fill="#eeeeee" stroke="transparent" points="4262,-1548 4262,-1582 4471,-1582 4471,-1548 4262,-1548"/>
<polygon fill="none" stroke="black" points="4262,-1548 4262,-1582 4471,-1582 4471,-1548 4262,-1548"/>
<text text-anchor="start" x="4321.5" y="-1568.8" font-family="Times,serif" font-weight="bold" font-size="14.00">«interface»</text>
<text text-anchor="start" x="4303" y="-1554.8" font-family="Times,serif" font-weight="bold" font-size="14.00">JsonSerializable</text>
<polygon fill="none" stroke="black" points="4262,-1542 4262,-1548 4471,-1548 4471,-1542 4262,-1542"/>
<polygon fill="none" stroke="black" points="4262,-1517 4262,-1542 4471,-1542 4471,-1517 4262,-1517"/>
<text text-anchor="start" x="4267" y="-1525.8" font-family="Times,serif" font-size="14.00">+ «abstract» jsonSerialize()</text>
</g>
<!-- PhpParser\\NodeAbstract&#45;&gt;JsonSerializable -->
<g id="edge2" class="edge">
<title>PhpParser\\NodeAbstract&#45;&gt;JsonSerializable</title>
<path fill="none" stroke="black" stroke-dasharray="5,2" d="M4035.2,-1465.62C4055.22,-1478.95 4075.95,-1491.03 4097,-1501 4142.3,-1522.45 4196.01,-1534.54 4243.42,-1541.34"/>
<polygon fill="none" stroke="black" points="4243.05,-1544.82 4253.43,-1542.71 4244,-1537.88 4243.05,-1544.82"/>
</g>
<!-- PhpParser\\NodeVisitorAbstract -->
<g id="node7" class="node">
<title>PhpParser\\NodeVisitorAbstract</title>
<polygon fill="#fefece" stroke="transparent" points="3979,-1070 3685,-1070 3685,-940 3979,-940 3979,-1070"/>
<polygon fill="#eeeeee" stroke="transparent" points="3693,-1032 3693,-1066 3971,-1066 3971,-1032 3693,-1032"/>
<polygon fill="none" stroke="black" points="3693,-1032 3693,-1066 3971,-1066 3971,-1032 3693,-1032"/>
<text text-anchor="start" x="3752" y="-1038.8" font-family="Times,serif" font-weight="bold" font-size="14.00">NodeVisitorAbstract</text>
<polygon fill="none" stroke="black" points="3693,-1026 3693,-1032 3971,-1032 3971,-1026 3693,-1026"/>
<polygon fill="none" stroke="black" points="3693,-944 3693,-1026 3971,-1026 3971,-944 3693,-944"/>
<text text-anchor="start" x="3698" y="-1009.8" font-family="Times,serif" font-size="14.00">+ beforeTraverse(nodes : array)</text>
<text text-anchor="start" x="3698" y="-990.8" font-family="Times,serif" font-size="14.00">+ enterNode(node : PhpParser\Node)</text>
<text text-anchor="start" x="3698" y="-971.8" font-family="Times,serif" font-size="14.00">+ leaveNode(node : PhpParser\Node)</text>
<text text-anchor="start" x="3698" y="-952.8" font-family="Times,serif" font-size="14.00">+ afterTraverse(nodes : array)</text>
</g>
<!-- PhpParser\\NodeVisitor -->
<g id="node8" class="node">
<title>PhpParser\\NodeVisitor</title>
<polygon fill="#fefece" stroke="transparent" points="4553,-1015 4179,-1015 4179,-885 4553,-885 4553,-1015"/>
<polygon fill="#eeeeee" stroke="transparent" points="4187,-977 4187,-1011 4545,-1011 4545,-977 4187,-977"/>
<polygon fill="none" stroke="black" points="4187,-977 4187,-1011 4545,-1011 4545,-977 4187,-977"/>
<text text-anchor="start" x="4321" y="-997.8" font-family="Times,serif" font-weight="bold" font-size="14.00">«interface»</text>
<text text-anchor="start" x="4319" y="-983.8" font-family="Times,serif" font-weight="bold" font-size="14.00">NodeVisitor</text>
<polygon fill="none" stroke="black" points="4187,-971 4187,-977 4545,-977 4545,-971 4187,-971"/>
<polygon fill="none" stroke="black" points="4187,-889 4187,-971 4545,-971 4545,-889 4187,-889"/>
<text text-anchor="start" x="4192" y="-954.8" font-family="Times,serif" font-size="14.00">+ «abstract» beforeTraverse(nodes : array)</text>
<text text-anchor="start" x="4192" y="-935.8" font-family="Times,serif" font-size="14.00">+ «abstract» enterNode(node : PhpParser\Node)</text>
<text text-anchor="start" x="4192" y="-916.8" font-family="Times,serif" font-size="14.00">+ «abstract» leaveNode(node : PhpParser\Node)</text>
<text text-anchor="start" x="4192" y="-897.8" font-family="Times,serif" font-size="14.00">+ «abstract» afterTraverse(nodes : array)</text>
</g>
<!-- PhpParser\\NodeVisitorAbstract&#45;&gt;PhpParser\\NodeVisitor -->
<g id="edge7" class="edge">
<title>PhpParser\\NodeVisitorAbstract&#45;&gt;PhpParser\\NodeVisitor</title>
<path fill="none" stroke="black" stroke-dasharray="5,2" d="M3979.08,-989.9C4037.62,-983.85 4105.96,-976.78 4168.73,-970.29"/>
<polygon fill="none" stroke="black" points="4169.17,-973.76 4178.76,-969.25 4168.45,-966.8 4169.17,-973.76"/>
</g>
<!-- PhpParser\\NodeDumper -->
<g id="node9" class="node">
<title>PhpParser\\NodeDumper</title>
<polygon fill="#fefece" stroke="transparent" points="4053,-922 3611,-922 3611,-830 4053,-830 4053,-922"/>
<polygon fill="#eeeeee" stroke="transparent" points="3619,-884 3619,-918 4045,-918 4045,-884 3619,-884"/>
<polygon fill="none" stroke="black" points="3619,-884 3619,-918 4045,-918 4045,-884 3619,-884"/>
<text text-anchor="start" x="3779.5" y="-890.8" font-family="Times,serif" font-weight="bold" font-size="14.00">NodeDumper</text>
<polygon fill="none" stroke="black" points="3619,-878 3619,-884 4045,-884 4045,-878 3619,-878"/>
<polygon fill="none" stroke="black" points="3619,-834 3619,-878 4045,-878 4045,-834 3619,-834"/>
<text text-anchor="start" x="3624" y="-861.8" font-family="Times,serif" font-size="14.00">+ __construct(options : array = [])</text>
<text text-anchor="start" x="3624" y="-842.8" font-family="Times,serif" font-size="14.00">+ dump(node : mixed, code : string = «unknown») : string</text>
</g>
<!-- Bartlett\\CompatInfo\\Application\\PhpParser\\NodeVisitor\\FilterVisitor -->
<g id="node11" class="node">
<title>Bartlett\\CompatInfo\\Application\\PhpParser\\NodeVisitor\\FilterVisitor</title>
<polygon fill="#fefece" stroke="transparent" points="1329,-108 502,-108 502,-16 1329,-16 1329,-108"/>
<polygon fill="#eeeeee" stroke="transparent" points="510.5,-70 510.5,-104 1321.5,-104 1321.5,-70 510.5,-70"/>
<polygon fill="none" stroke="black" points="510.5,-70 510.5,-104 1321.5,-104 1321.5,-70 510.5,-70"/>
<text text-anchor="start" x="867.5" y="-76.8" font-family="Times,serif" font-weight="bold" font-size="14.00">FilterVisitor</text>
<polygon fill="none" stroke="black" points="510.5,-64 510.5,-70 1321.5,-70 1321.5,-64 510.5,-64"/>
<polygon fill="none" stroke="black" points="510.5,-20 510.5,-64 1321.5,-64 1321.5,-20 510.5,-20"/>
<text text-anchor="start" x="515.5" y="-47.8" font-family="Times,serif" font-size="14.00">+ __construct(normalizer : Symfony\Component\Serializer\Normalizer\NormalizerInterface, context : array = [])</text>
<text text-anchor="start" x="515.5" y="-28.8" font-family="Times,serif" font-size="14.00">+ getCollection() : Doctrine\Common\Collections\ArrayCollection</text>
</g>
<!-- Bartlett\\CompatInfo\\Application\\PhpParser\\NodeVisitor\\NodeVisitor -->
<g id="node12" class="node">
<title>Bartlett\\CompatInfo\\Application\\PhpParser\\NodeVisitor\\NodeVisitor</title>
<polygon fill="#fefece" stroke="transparent" points="2781.5,-283.5 2211.5,-283.5 2211.5,-210.5 2781.5,-210.5 2781.5,-283.5"/>
<polygon fill="#eeeeee" stroke="transparent" points="2219.5,-245 2219.5,-279 2773.5,-279 2773.5,-245 2219.5,-245"/>
<polygon fill="none" stroke="black" points="2219.5,-245 2219.5,-279 2773.5,-279 2773.5,-245 2219.5,-245"/>
<text text-anchor="start" x="2451.5" y="-265.8" font-family="Times,serif" font-weight="bold" font-size="14.00">«interface»</text>
<text text-anchor="start" x="2449.5" y="-251.8" font-family="Times,serif" font-weight="bold" font-size="14.00">NodeVisitor</text>
<polygon fill="none" stroke="black" points="2219.5,-239 2219.5,-245 2773.5,-245 2773.5,-239 2219.5,-239"/>
<polygon fill="none" stroke="black" points="2219.5,-214 2219.5,-239 2773.5,-239 2773.5,-214 2219.5,-214"/>
<text text-anchor="start" x="2224.5" y="-222.8" font-family="Times,serif" font-size="14.00">+ «abstract» getCollection() : Doctrine\Common\Collections\ArrayCollection</text>
</g>
<!-- Bartlett\\CompatInfo\\Application\\PhpParser\\NodeVisitor\\FilterVisitor&#45;&gt;Bartlett\\CompatInfo\\Application\\PhpParser\\NodeVisitor\\NodeVisitor -->
<g id="edge11" class="edge">
<title>Bartlett\\CompatInfo\\Application\\PhpParser\\NodeVisitor\\FilterVisitor&#45;&gt;Bartlett\\CompatInfo\\Application\\PhpParser\\NodeVisitor\\NodeVisitor</title>
<path fill="none" stroke="black" stroke-dasharray="5,2" d="M1313.08,-108.02C1339.11,-111.06 1364.93,-114.07 1390,-117 1664.93,-149.13 1978.29,-186.01 2201.01,-212.25"/>
<polygon fill="none" stroke="black" points="2200.87,-215.76 2211.21,-213.46 2201.69,-208.81 2200.87,-215.76"/>
</g>
<!-- PhpParser\\NodeVisitor\\FindingVisitor -->
<g id="node16" class="node">
<title>PhpParser\\NodeVisitor\\FindingVisitor</title>
<polygon fill="#fefece" stroke="transparent" points="2645.5,-922 2347.5,-922 2347.5,-792 2645.5,-792 2645.5,-922"/>
<polygon fill="#eeeeee" stroke="transparent" points="2355.5,-884 2355.5,-918 2637.5,-918 2637.5,-884 2355.5,-884"/>
<polygon fill="none" stroke="black" points="2355.5,-884 2355.5,-918 2637.5,-918 2637.5,-884 2355.5,-884"/>
<text text-anchor="start" x="2439.5" y="-890.8" font-family="Times,serif" font-weight="bold" font-size="14.00">FindingVisitor</text>
<polygon fill="none" stroke="black" points="2355.5,-878 2355.5,-884 2637.5,-884 2637.5,-878 2355.5,-878"/>
<polygon fill="none" stroke="black" points="2355.5,-796 2355.5,-878 2637.5,-878 2637.5,-796 2355.5,-796"/>
<text text-anchor="start" x="2360.5" y="-861.8" font-family="Times,serif" font-size="14.00">+ __construct(filterCallback : callable)</text>
<text text-anchor="start" x="2360.5" y="-842.8" font-family="Times,serif" font-size="14.00">+ getFoundNodes() : array</text>
<text text-anchor="start" x="2360.5" y="-823.8" font-family="Times,serif" font-size="14.00">+ beforeTraverse(nodes : array)</text>
<text text-anchor="start" x="2360.5" y="-804.8" font-family="Times,serif" font-size="14.00">+ enterNode(node : PhpParser\Node)</text>
</g>
<!-- Bartlett\\CompatInfo\\Application\\PhpParser\\NodeVisitor\\FilterVisitor&#45;&gt;PhpParser\\NodeVisitor\\FindingVisitor -->
<g id="edge9" class="edge">
<title>Bartlett\\CompatInfo\\Application\\PhpParser\\NodeVisitor\\FilterVisitor&#45;&gt;PhpParser\\NodeVisitor\\FindingVisitor</title>
<path fill="none" stroke="black" d="M1329.05,-70.5C1351.55,-82.55 1372.19,-97.83 1390,-117 1440.19,-171.02 1366.63,-727.11 1418,-780 1541.32,-906.97 2068.6,-888.56 2337.07,-870.13"/>
<polygon fill="none" stroke="black" points="2337.56,-873.61 2347.3,-869.42 2337.08,-866.62 2337.56,-873.61"/>
</g>
<!-- Bartlett\\CompatInfo\\Application\\PhpParser\\NodeVisitor\\NodeVisitor&#45;&gt;PhpParser\\NodeVisitor -->
<g id="edge10" class="edge">
<title>Bartlett\\CompatInfo\\Application\\PhpParser\\NodeVisitor\\NodeVisitor&#45;&gt;PhpParser\\NodeVisitor</title>
<path fill="none" stroke="black" stroke-dasharray="5,2" d="M2720,-283.54C2941.66,-324.08 3289.24,-398.93 3575,-511 3833.52,-612.38 4112.15,-783.39 4259.54,-879.31"/>
<polygon fill="none" stroke="black" points="4257.9,-882.42 4268.19,-884.95 4261.73,-876.56 4257.9,-882.42"/>
</g>
<!-- Bartlett\\CompatInfo\\Application\\PhpParser\\NodeVisitor\\NameResolverVisitor -->
<g id="node13" class="node">
<title>Bartlett\\CompatInfo\\Application\\PhpParser\\NodeVisitor\\NameResolverVisitor</title>
<polygon fill="#fefece" stroke="transparent" points="1248,-218 583,-218 583,-126 1248,-126 1248,-218"/>
<polygon fill="#eeeeee" stroke="transparent" points="591.5,-180 591.5,-214 1240.5,-214 1240.5,-180 591.5,-180"/>
<polygon fill="none" stroke="black" points="591.5,-180 591.5,-214 1240.5,-214 1240.5,-180 591.5,-180"/>
<text text-anchor="start" x="832.5" y="-186.8" font-family="Times,serif" font-weight="bold" font-size="14.00">NameResolverVisitor</text>
<polygon fill="none" stroke="black" points="591.5,-174 591.5,-180 1240.5,-180 1240.5,-174 591.5,-174"/>
<polygon fill="none" stroke="black" points="591.5,-130 591.5,-174 1240.5,-174 1240.5,-130 591.5,-130"/>
<text text-anchor="start" x="596.5" y="-157.8" font-family="Times,serif" font-size="14.00">+ __construct(errorHandler : PhpParser\ErrorHandler = «unknown», options : array = [])</text>
<text text-anchor="start" x="596.5" y="-138.8" font-family="Times,serif" font-size="14.00">+ enterNode(node : PhpParser\Node)</text>
</g>
<!-- PhpParser\\NodeVisitor\\NameResolver -->
<g id="node17" class="node">
<title>PhpParser\\NodeVisitor\\NameResolver</title>
<polygon fill="#fefece" stroke="transparent" points="2829,-1070 2164,-1070 2164,-940 2829,-940 2829,-1070"/>
<polygon fill="#eeeeee" stroke="transparent" points="2172.5,-1032 2172.5,-1066 2821.5,-1066 2821.5,-1032 2172.5,-1032"/>
<polygon fill="none" stroke="black" points="2172.5,-1032 2172.5,-1066 2821.5,-1066 2821.5,-1032 2172.5,-1032"/>
<text text-anchor="start" x="2439.5" y="-1038.8" font-family="Times,serif" font-weight="bold" font-size="14.00">NameResolver</text>
<polygon fill="none" stroke="black" points="2172.5,-1026 2172.5,-1032 2821.5,-1032 2821.5,-1026 2172.5,-1026"/>
<polygon fill="none" stroke="black" points="2172.5,-944 2172.5,-1026 2821.5,-1026 2821.5,-944 2172.5,-944"/>
<text text-anchor="start" x="2177.5" y="-1009.8" font-family="Times,serif" font-size="14.00">+ __construct(errorHandler : PhpParser\ErrorHandler = «unknown», options : array = [])</text>
<text text-anchor="start" x="2177.5" y="-990.8" font-family="Times,serif" font-size="14.00">+ getNameContext() : PhpParser\NameContext</text>
<text text-anchor="start" x="2177.5" y="-971.8" font-family="Times,serif" font-size="14.00">+ beforeTraverse(nodes : array)</text>
<text text-anchor="start" x="2177.5" y="-952.8" font-family="Times,serif" font-size="14.00">+ enterNode(node : PhpParser\Node)</text>
</g>
<!-- Bartlett\\CompatInfo\\Application\\PhpParser\\NodeVisitor\\NameResolverVisitor&#45;&gt;PhpParser\\NodeVisitor\\NameResolver -->
<g id="edge13" class="edge">
<title>Bartlett\\CompatInfo\\Application\\PhpParser\\NodeVisitor\\NameResolverVisitor&#45;&gt;PhpParser\\NodeVisitor\\NameResolver</title>
<path fill="none" stroke="black" d="M1248.04,-151.17C1301.91,-163.19 1352.31,-186.33 1390,-227 1443.22,-284.42 1363.45,-874.85 1418,-931 1517.06,-1032.96 1876.77,-1040.1 2153.62,-1028.97"/>
<polygon fill="none" stroke="black" points="2154,-1032.46 2163.84,-1028.55 2153.71,-1025.47 2154,-1032.46"/>
</g>
<!-- Bartlett\\CompatInfo\\Application\\PhpParser\\NodeVisitor\\ParentContextVisitor -->
<g id="node14" class="node">
<title>Bartlett\\CompatInfo\\Application\\PhpParser\\NodeVisitor\\ParentContextVisitor</title>
<polygon fill="#fefece" stroke="transparent" points="1062.5,-476 768.5,-476 768.5,-346 1062.5,-346 1062.5,-476"/>
<polygon fill="#eeeeee" stroke="transparent" points="776.5,-438 776.5,-472 1054.5,-472 1054.5,-438 776.5,-438"/>
<polygon fill="none" stroke="black" points="776.5,-438 776.5,-472 1054.5,-472 1054.5,-438 776.5,-438"/>
<text text-anchor="start" x="831.5" y="-444.8" font-family="Times,serif" font-weight="bold" font-size="14.00">ParentContextVisitor</text>
<polygon fill="none" stroke="black" points="776.5,-432 776.5,-438 1054.5,-438 1054.5,-432 776.5,-432"/>
<polygon fill="none" stroke="black" points="776.5,-350 776.5,-432 1054.5,-432 1054.5,-350 776.5,-350"/>
<text text-anchor="start" x="781.5" y="-415.8" font-family="Times,serif" font-size="14.00">+ __construct(options : array = [])</text>
<text text-anchor="start" x="781.5" y="-396.8" font-family="Times,serif" font-size="14.00">+ beforeTraverse(nodes : array)</text>
<text text-anchor="start" x="781.5" y="-377.8" font-family="Times,serif" font-size="14.00">+ enterNode(node : PhpParser\Node)</text>
<text text-anchor="start" x="781.5" y="-358.8" font-family="Times,serif" font-size="14.00">+ leaveNode(node : PhpParser\Node)</text>
</g>
<!-- Bartlett\\CompatInfo\\Application\\PhpParser\\NodeVisitor\\ParentContextVisitor&#45;&gt;PhpParser\\NodeVisitorAbstract -->
<g id="edge14" class="edge">
<title>Bartlett\\CompatInfo\\Application\\PhpParser\\NodeVisitor\\ParentContextVisitor&#45;&gt;PhpParser\\NodeVisitorAbstract</title>
<path fill="none" stroke="black" d="M938.06,-476.14C991.46,-625.46 1145.66,-990.57 1418,-1133 1471.09,-1160.77 3525.72,-1167.08 3575,-1133 3595.71,-1118.68 3576.73,-1097.32 3595,-1080 3617.45,-1058.71 3645.93,-1043.47 3675.27,-1032.55"/>
<polygon fill="none" stroke="black" points="3676.57,-1035.8 3684.82,-1029.15 3674.22,-1029.2 3676.57,-1035.8"/>
</g>
<!-- Bartlett\\CompatInfo\\Application\\PhpParser\\NodeVisitor\\VersionResolverVisitor -->
<g id="node15" class="node">
<title>Bartlett\\CompatInfo\\Application\\PhpParser\\NodeVisitor\\VersionResolverVisitor</title>
<polygon fill="#fefece" stroke="transparent" points="1390,-328 441,-328 441,-236 1390,-236 1390,-328"/>
<polygon fill="#eeeeee" stroke="transparent" points="449.5,-290 449.5,-324 1382.5,-324 1382.5,-290 449.5,-290"/>
<polygon fill="none" stroke="black" points="449.5,-290 449.5,-324 1382.5,-324 1382.5,-290 449.5,-290"/>
<text text-anchor="start" x="825.5" y="-296.8" font-family="Times,serif" font-weight="bold" font-size="14.00">VersionResolverVisitor</text>
<polygon fill="none" stroke="black" points="449.5,-284 449.5,-290 1382.5,-290 1382.5,-284 449.5,-284"/>
<polygon fill="none" stroke="black" points="449.5,-240 449.5,-284 1382.5,-284 1382.5,-240 449.5,-240"/>
<text text-anchor="start" x="454.5" y="-267.8" font-family="Times,serif" font-size="14.00">+ __construct(referenceCollection : Bartlett\CompatInfo\Application\Collection\ReferenceCollectionInterface, options : array = [])</text>
<text text-anchor="start" x="454.5" y="-248.8" font-family="Times,serif" font-size="14.00">+ enterNode(node : PhpParser\Node)</text>
</g>
<!-- Bartlett\\CompatInfo\\Application\\PhpParser\\NodeVisitor\\VersionResolverVisitor&#45;&gt;PhpParser\\NodeVisitorAbstract -->
<g id="edge15" class="edge">
<title>Bartlett\\CompatInfo\\Application\\PhpParser\\NodeVisitor\\VersionResolverVisitor&#45;&gt;PhpParser\\NodeVisitorAbstract</title>
<path fill="none" stroke="black" d="M1381.37,-328.17C1384.31,-331.02 1387.19,-333.96 1390,-337 1447.94,-399.72 1356.53,-1045.73 1418,-1105 1461.13,-1146.59 3521,-1130.96 3575,-1105 3587.82,-1098.84 3583.27,-1088.06 3595,-1080 3619.2,-1063.38 3647.28,-1050.29 3675.44,-1040.03"/>
<polygon fill="none" stroke="black" points="3676.73,-1043.29 3684.99,-1036.66 3674.4,-1036.69 3676.73,-1043.29"/>
</g>
<!-- PhpParser\\NodeVisitor\\FindingVisitor&#45;&gt;PhpParser\\NodeVisitorAbstract -->
<g id="edge8" class="edge">
<title>PhpParser\\NodeVisitor\\FindingVisitor&#45;&gt;PhpParser\\NodeVisitorAbstract</title>
<path fill="none" stroke="black" d="M2645.54,-857.25C2854.34,-859.83 3246.57,-872.94 3575,-931 3607.76,-936.79 3642.31,-945.17 3675.06,-954.22"/>
<polygon fill="none" stroke="black" points="3674.13,-957.59 3684.71,-956.92 3676.02,-950.85 3674.13,-957.59"/>
</g>
<!-- PhpParser\\NodeVisitor\\NameResolver&#45;&gt;PhpParser\\NodeVisitorAbstract -->
<g id="edge12" class="edge">
<title>PhpParser\\NodeVisitor\\NameResolver&#45;&gt;PhpParser\\NodeVisitorAbstract</title>
<path fill="none" stroke="black" d="M2829.27,-1005C3099.27,-1005 3468.26,-1005 3674.72,-1005"/>
<polygon fill="none" stroke="black" points="3674.73,-1008.5 3684.73,-1005 3674.73,-1001.5 3674.73,-1008.5"/>
</g>
<!-- Bartlett\\CompatInfo\\Application\\PhpParser\\NodeDumper -->
<g id="node18" class="node">
<title>Bartlett\\CompatInfo\\Application\\PhpParser\\NodeDumper</title>
<polygon fill="#fefece" stroke="transparent" points="2717.5,-744.5 2275.5,-744.5 2275.5,-633.5 2717.5,-633.5 2717.5,-744.5"/>
<polygon fill="#eeeeee" stroke="transparent" points="2283.5,-706 2283.5,-740 2709.5,-740 2709.5,-706 2283.5,-706"/>
<polygon fill="none" stroke="black" points="2283.5,-706 2283.5,-740 2709.5,-740 2709.5,-706 2283.5,-706"/>
<text text-anchor="start" x="2444" y="-712.8" font-family="Times,serif" font-weight="bold" font-size="14.00">NodeDumper</text>
<polygon fill="none" stroke="black" points="2283.5,-700 2283.5,-706 2709.5,-706 2709.5,-700 2283.5,-700"/>
<polygon fill="none" stroke="black" points="2283.5,-637 2283.5,-700 2709.5,-700 2709.5,-637 2283.5,-637"/>
<text text-anchor="start" x="2288.5" y="-683.8" font-family="Times,serif" font-size="14.00">+ __construct(options : array = [])</text>
<text text-anchor="start" x="2288.5" y="-664.8" font-family="Times,serif" font-size="14.00">+ dump(node : mixed, code : string = «unknown») : string</text>
<text text-anchor="start" x="2288.5" y="-645.8" font-family="Times,serif" font-size="14.00">+ dumpPosition(node : PhpParser\Node)</text>
</g>
<!-- Bartlett\\CompatInfo\\Application\\PhpParser\\NodeDumper&#45;&gt;PhpParser\\NodeDumper -->
<g id="edge16" class="edge">
<title>Bartlett\\CompatInfo\\Application\\PhpParser\\NodeDumper&#45;&gt;PhpParser\\NodeDumper</title>
<path fill="none" stroke="black" d="M2717.64,-690.02C2937.31,-695.12 3283.23,-714.29 3575,-780 3623.1,-790.83 3674.32,-808.68 3718.2,-826.07"/>
<polygon fill="none" stroke="black" points="3717.15,-829.42 3727.74,-829.88 3719.75,-822.92 3717.15,-829.42"/>
</g>
<!-- Bartlett\\CompatInfo\\Application\\PhpParser\\Parser -->
<g id="node19" class="node">
<title>Bartlett\\CompatInfo\\Application\\PhpParser\\Parser</title>
<polygon fill="#fefece" stroke="transparent" points="3567,-615 1426,-615 1426,-523 3567,-523 3567,-615"/>
<polygon fill="#eeeeee" stroke="transparent" points="1434.5,-577 1434.5,-611 3559.5,-611 3559.5,-577 1434.5,-577"/>
<polygon fill="none" stroke="black" points="1434.5,-577 1434.5,-611 3559.5,-611 3559.5,-577 1434.5,-577"/>
<text text-anchor="start" x="2471" y="-583.8" font-family="Times,serif" font-weight="bold" font-size="14.00">Parser</text>
<polygon fill="none" stroke="black" points="1434.5,-571 1434.5,-577 3559.5,-577 3559.5,-571 1434.5,-571"/>
<polygon fill="none" stroke="black" points="1434.5,-527 1434.5,-571 3559.5,-571 3559.5,-527 1434.5,-527"/>
<text text-anchor="start" x="1439.5" y="-554.8" font-family="Times,serif" font-size="14.00">+ __construct(compatibilityEventDispatcher : Symfony\Component\EventDispatcher\EventDispatcherInterface, compatibilityAnalyser : Bartlett\CompatInfo\Application\Analyser\SniffAnalyserInterface, referenceCollection : Bartlett\CompatInfo\Application\Collection\ReferenceCollectionInterface)</text>
<text text-anchor="start" x="1439.5" y="-535.8" font-family="Times,serif" font-size="14.00">+ parse(source : string, finder : Symfony\Component\Finder\Finder, errorHandler : Bartlett\CompatInfo\Application\DataCollector\ErrorHandler, version : string) : Bartlett\CompatInfo\Application\Profiler\Profile</text>
</g>
</g>
</svg>
