<?xml version="1.0" encoding="UTF-8" standalone="no"?>
<!DOCTYPE svg PUBLIC "-//W3C//DTD SVG 1.1//EN"
 "http://www.w3.org/Graphics/SVG/1.1/DTD/svg11.dtd">
<!-- Generated by graphviz version 2.43.0 (0)
 -->
<!-- Title: %3 Pages: 1 -->
<svg width="710pt" height="136pt"
 viewBox="0.00 0.00 710.00 136.00" xmlns="http://www.w3.org/2000/svg" xmlns:xlink="http://www.w3.org/1999/xlink">
<g id="graph0" class="graph" transform="scale(1 1) rotate(0) translate(4 132)">
<title>%3</title>
<g id="clust1" class="cluster">
<title>cluster_0</title>
<polygon fill="#cdaa7d" stroke="black" points="8,-8 8,-120 694,-120 694,-8 8,-8"/>
<text text-anchor="middle" x="351" y="-104.8" font-family="Times,serif" font-size="14.00">Bartlett\CompatInfo\Application\Service</text>
</g>
<!-- Bartlett\\CompatInfo\\Application\\Service\\SourceProvider -->
<g id="node1" class="node">
<title>Bartlett\\CompatInfo\\Application\\Service\\SourceProvider</title>
<polygon fill="#fefece" stroke="transparent" points="685.5,-89 16.5,-89 16.5,-16 685.5,-16 685.5,-89"/>
<polygon fill="#eeeeee" stroke="transparent" points="25,-50.5 25,-84.5 678,-84.5 678,-50.5 25,-50.5"/>
<polygon fill="none" stroke="black" points="25,-50.5 25,-84.5 678,-84.5 678,-50.5 25,-50.5"/>
<text text-anchor="start" x="291" y="-57.3" font-family="Times,serif" font-weight="bold" font-size="14.00">SourceProvider</text>
<polygon fill="none" stroke="black" points="25,-44.5 25,-50.5 678,-50.5 678,-44.5 25,-44.5"/>
<polygon fill="none" stroke="black" points="25,-19.5 25,-44.5 678,-44.5 678,-19.5 25,-19.5"/>
<text text-anchor="start" x="30" y="-28.3" font-family="Times,serif" font-size="14.00">+ «static» getFinder(source : string, exclude : array) : Symfony\Component\Finder\Finder</text>
</g>
</g>
</svg>
