<?xml version="1.0" encoding="UTF-8" standalone="no"?>
<!DOCTYPE svg PUBLIC "-//W3C//DTD SVG 1.1//EN"
 "http://www.w3.org/Graphics/SVG/1.1/DTD/svg11.dtd">
<!-- Generated by graphviz version 2.43.0 (0)
 -->
<!-- Title: %3 Pages: 1 -->
<svg width="2618pt" height="1919pt"
 viewBox="0.00 0.00 2618.00 1919.00" xmlns="http://www.w3.org/2000/svg" xmlns:xlink="http://www.w3.org/1999/xlink">
<g id="graph0" class="graph" transform="scale(1 1) rotate(0) translate(4 1915)">
<title>%3</title>
<g id="clust1" class="cluster">
<title>cluster_0</title>
<polygon fill="#cdaa7d" stroke="black" points="1285,-1734 1285,-1903 1936,-1903 1936,-1734 1285,-1734"/>
<text text-anchor="middle" x="1610.5" y="-1887.8" font-family="Times,serif" font-size="14.00">Bartlett\CompatInfo\Application\DataCollector\ErrorHandler</text>
</g>
<g id="clust2" class="cluster">
<title>cluster_1</title>
<polygon fill="transparent" stroke="black" points="94,-275 94,-1726 1030,-1726 1030,-275 94,-275"/>
<text text-anchor="middle" x="562" y="-1710.8" font-family="Times,serif" font-size="14.00">Doctrine\Common\Collections</text>
</g>
<g id="clust3" class="cluster">
<title>cluster_2</title>
<polygon fill="transparent" stroke="black" points="8,-8 8,-267 733,-267 733,-8 8,-8"/>
<text text-anchor="middle" x="370.5" y="-251.8" font-family="Times,serif" font-size="14.00">0</text>
</g>
<g id="clust4" class="cluster">
<title>cluster_3</title>
<polygon fill="#cdaa7d" stroke="black" points="1038,-370 1038,-1564.5 1912,-1564.5 1912,-370 1038,-370"/>
<text text-anchor="middle" x="1475" y="-1549.3" font-family="Times,serif" font-size="14.00">Bartlett\CompatInfo\Application\DataCollector</text>
</g>
<g id="clust5" class="cluster">
<title>cluster_4</title>
<polygon fill="transparent" stroke="black" points="1920,-811.5 1920,-923.5 2326,-923.5 2326,-811.5 1920,-811.5"/>
<text text-anchor="middle" x="2123" y="-908.3" font-family="Times,serif" font-size="14.00">PhpParser</text>
</g>
<g id="clust6" class="cluster">
<title>cluster_5</title>
<polygon fill="#cdaa7d" stroke="black" points="2017,-1753 2017,-1884 2505,-1884 2505,-1753 2017,-1753"/>
<text text-anchor="middle" x="2261" y="-1868.8" font-family="Times,serif" font-size="14.00">Bartlett\CompatInfo\Application\DataCollector\Normalizer</text>
</g>
<g id="clust7" class="cluster">
<title>cluster_6</title>
<polygon fill="transparent" stroke="black" points="1920,-1300.5 1920,-1431.5 2602,-1431.5 2602,-1300.5 1920,-1300.5"/>
<text text-anchor="middle" x="2261" y="-1416.3" font-family="Times,serif" font-size="14.00">Symfony\Component\Serializer\Normalizer</text>
</g>
<!-- Bartlett\\CompatInfo\\Application\\DataCollector\\ErrorHandler\\Collecting -->
<g id="node1" class="node">
<title>Bartlett\\CompatInfo\\Application\\DataCollector\\ErrorHandler\\Collecting</title>
<polygon fill="#fefece" stroke="transparent" points="1601.5,-1872 1292.5,-1872 1292.5,-1742 1601.5,-1742 1601.5,-1872"/>
<polygon fill="#eeeeee" stroke="transparent" points="1301,-1834 1301,-1868 1594,-1868 1594,-1834 1301,-1834"/>
<polygon fill="none" stroke="black" points="1301,-1834 1301,-1868 1594,-1868 1594,-1834 1301,-1834"/>
<text text-anchor="start" x="1407" y="-1840.8" font-family="Times,serif" font-weight="bold" font-size="14.00">Collecting</text>
<polygon fill="none" stroke="black" points="1301,-1828 1301,-1834 1594,-1834 1594,-1828 1301,-1828"/>
<polygon fill="none" stroke="black" points="1301,-1746 1301,-1828 1594,-1828 1594,-1746 1301,-1746"/>
<text text-anchor="start" x="1306" y="-1811.8" font-family="Times,serif" font-size="14.00">+ handleError(error : PhpParser\Error)</text>
<text text-anchor="start" x="1306" y="-1792.8" font-family="Times,serif" font-size="14.00">+ getErrors() : array</text>
<text text-anchor="start" x="1306" y="-1773.8" font-family="Times,serif" font-size="14.00">+ hasErrors() : bool</text>
<text text-anchor="start" x="1306" y="-1754.8" font-family="Times,serif" font-size="14.00">+ clearErrors() : void</text>
</g>
<!-- Doctrine\\Common\\Collections\\ArrayCollection -->
<g id="node3" class="node">
<title>Doctrine\\Common\\Collections\\ArrayCollection</title>
<polygon fill="#fefece" stroke="transparent" points="981.5,-1695 522.5,-1695 522.5,-1014 981.5,-1014 981.5,-1695"/>
<polygon fill="#eeeeee" stroke="transparent" points="531,-1656.5 531,-1690.5 974,-1690.5 974,-1656.5 531,-1656.5"/>
<polygon fill="none" stroke="black" points="531,-1656.5 531,-1690.5 974,-1690.5 974,-1656.5 531,-1656.5"/>
<text text-anchor="start" x="691" y="-1663.3" font-family="Times,serif" font-weight="bold" font-size="14.00">ArrayCollection</text>
<polygon fill="none" stroke="black" points="531,-1650.5 531,-1656.5 974,-1656.5 974,-1650.5 531,-1650.5"/>
<polygon fill="none" stroke="black" points="531,-1017.5 531,-1650.5 974,-1650.5 974,-1017.5 531,-1017.5"/>
<text text-anchor="start" x="536" y="-1634.3" font-family="Times,serif" font-size="14.00">+ __construct(elements : array = [])</text>
<text text-anchor="start" x="536" y="-1615.3" font-family="Times,serif" font-size="14.00">+ toArray()</text>
<text text-anchor="start" x="536" y="-1596.3" font-family="Times,serif" font-size="14.00">+ first()</text>
<text text-anchor="start" x="536" y="-1577.3" font-family="Times,serif" font-size="14.00">+ last()</text>
<text text-anchor="start" x="536" y="-1558.3" font-family="Times,serif" font-size="14.00">+ key()</text>
<text text-anchor="start" x="536" y="-1539.3" font-family="Times,serif" font-size="14.00">+ next()</text>
<text text-anchor="start" x="536" y="-1520.3" font-family="Times,serif" font-size="14.00">+ current()</text>
<text text-anchor="start" x="536" y="-1501.3" font-family="Times,serif" font-size="14.00">+ remove(key)</text>
<text text-anchor="start" x="536" y="-1482.3" font-family="Times,serif" font-size="14.00">+ removeElement(element)</text>
<text text-anchor="start" x="536" y="-1463.3" font-family="Times,serif" font-size="14.00">+ offsetExists(offset : TKey)</text>
<text text-anchor="start" x="536" y="-1444.3" font-family="Times,serif" font-size="14.00">+ offsetGet(offset : TKey)</text>
<text text-anchor="start" x="536" y="-1425.3" font-family="Times,serif" font-size="14.00">+ offsetSet(offset : mixed, value : T)</text>
<text text-anchor="start" x="536" y="-1406.3" font-family="Times,serif" font-size="14.00">+ offsetUnset(offset : TKey)</text>
<text text-anchor="start" x="536" y="-1387.3" font-family="Times,serif" font-size="14.00">+ containsKey(key)</text>
<text text-anchor="start" x="536" y="-1368.3" font-family="Times,serif" font-size="14.00">+ contains(element)</text>
<text text-anchor="start" x="536" y="-1349.3" font-family="Times,serif" font-size="14.00">+ exists(p : Closure)</text>
<text text-anchor="start" x="536" y="-1330.3" font-family="Times,serif" font-size="14.00">+ indexOf(element)</text>
<text text-anchor="start" x="536" y="-1311.3" font-family="Times,serif" font-size="14.00">+ get(key)</text>
<text text-anchor="start" x="536" y="-1292.3" font-family="Times,serif" font-size="14.00">+ getKeys()</text>
<text text-anchor="start" x="536" y="-1273.3" font-family="Times,serif" font-size="14.00">+ getValues()</text>
<text text-anchor="start" x="536" y="-1254.3" font-family="Times,serif" font-size="14.00">+ count()</text>
<text text-anchor="start" x="536" y="-1235.3" font-family="Times,serif" font-size="14.00">+ set(key, value)</text>
<text text-anchor="start" x="536" y="-1216.3" font-family="Times,serif" font-size="14.00">+ add(element)</text>
<text text-anchor="start" x="536" y="-1197.3" font-family="Times,serif" font-size="14.00">+ isEmpty()</text>
<text text-anchor="start" x="536" y="-1178.3" font-family="Times,serif" font-size="14.00">+ getIterator()</text>
<text text-anchor="start" x="536" y="-1159.3" font-family="Times,serif" font-size="14.00">+ map(func : Closure)</text>
<text text-anchor="start" x="536" y="-1140.3" font-family="Times,serif" font-size="14.00">+ filter(p : Closure)</text>
<text text-anchor="start" x="536" y="-1121.3" font-family="Times,serif" font-size="14.00">+ forAll(p : Closure)</text>
<text text-anchor="start" x="536" y="-1102.3" font-family="Times,serif" font-size="14.00">+ partition(p : Closure)</text>
<text text-anchor="start" x="536" y="-1083.3" font-family="Times,serif" font-size="14.00">+ __toString()</text>
<text text-anchor="start" x="536" y="-1064.3" font-family="Times,serif" font-size="14.00">+ clear()</text>
<text text-anchor="start" x="536" y="-1045.3" font-family="Times,serif" font-size="14.00">+ slice(offset, length = «unknown»)</text>
<text text-anchor="start" x="536" y="-1026.3" font-family="Times,serif" font-size="14.00">+ matching(criteria : Doctrine\Common\Collections\Criteria)</text>
</g>
<!-- Bartlett\\CompatInfo\\Application\\DataCollector\\ErrorHandler\\Collecting&#45;&gt;Doctrine\\Common\\Collections\\ArrayCollection -->
<g id="edge8" class="edge">
<title>Bartlett\\CompatInfo\\Application\\DataCollector\\ErrorHandler\\Collecting&#45;&gt;Doctrine\\Common\\Collections\\ArrayCollection</title>
<path fill="none" stroke="black" d="M1292.47,-1787.7C1193.9,-1773.83 1076.89,-1752.64 1034,-1726 1018.65,-1716.46 1003.82,-1705.77 989.55,-1694.19"/>
<polygon fill="none" stroke="black" points="991.62,-1691.35 981.69,-1687.66 987.15,-1696.74 991.62,-1691.35"/>
</g>
<!-- Bartlett\\CompatInfo\\Application\\DataCollector\\ErrorHandler -->
<g id="node11" class="node">
<title>Bartlett\\CompatInfo\\Application\\DataCollector\\ErrorHandler</title>
<polygon fill="#fefece" stroke="transparent" points="1903.5,-1410 1644.5,-1410 1644.5,-1299 1903.5,-1299 1903.5,-1410"/>
<polygon fill="#eeeeee" stroke="transparent" points="1653,-1371.5 1653,-1405.5 1896,-1405.5 1896,-1371.5 1653,-1371.5"/>
<polygon fill="none" stroke="black" points="1653,-1371.5 1653,-1405.5 1896,-1405.5 1896,-1371.5 1653,-1371.5"/>
<text text-anchor="start" x="1729.5" y="-1392.3" font-family="Times,serif" font-weight="bold" font-size="14.00">«interface»</text>
<text text-anchor="start" x="1721" y="-1378.3" font-family="Times,serif" font-weight="bold" font-size="14.00">ErrorHandler</text>
<polygon fill="none" stroke="black" points="1653,-1365.5 1653,-1371.5 1896,-1371.5 1896,-1365.5 1653,-1365.5"/>
<polygon fill="none" stroke="black" points="1653,-1302.5 1653,-1365.5 1896,-1365.5 1896,-1302.5 1653,-1302.5"/>
<text text-anchor="start" x="1658" y="-1349.3" font-family="Times,serif" font-size="14.00">+ «abstract» getErrors() : array</text>
<text text-anchor="start" x="1658" y="-1330.3" font-family="Times,serif" font-size="14.00">+ «abstract» hasErrors() : bool</text>
<text text-anchor="start" x="1658" y="-1311.3" font-family="Times,serif" font-size="14.00">+ «abstract» clearErrors() : void</text>
</g>
<!-- Bartlett\\CompatInfo\\Application\\DataCollector\\ErrorHandler\\Collecting&#45;&gt;Bartlett\\CompatInfo\\Application\\DataCollector\\ErrorHandler -->
<g id="edge10" class="edge">
<title>Bartlett\\CompatInfo\\Application\\DataCollector\\ErrorHandler\\Collecting&#45;&gt;Bartlett\\CompatInfo\\Application\\DataCollector\\ErrorHandler</title>
<path fill="none" stroke="black" stroke-dasharray="5,2" d="M1590.64,-1741.93C1597.5,-1739.19 1604.31,-1736.53 1611,-1734 1621.91,-1729.87 1627.56,-1734.05 1636,-1726 1722.28,-1643.67 1755.01,-1502.42 1767.14,-1420.16"/>
<polygon fill="none" stroke="black" points="1770.61,-1420.58 1768.55,-1410.18 1763.68,-1419.59 1770.61,-1420.58"/>
</g>
<!-- Bartlett\\CompatInfo\\Application\\DataCollector\\ErrorHandler\\Throwing -->
<g id="node2" class="node">
<title>Bartlett\\CompatInfo\\Application\\DataCollector\\ErrorHandler\\Throwing</title>
<polygon fill="#fefece" stroke="transparent" points="1928.5,-1872 1619.5,-1872 1619.5,-1742 1928.5,-1742 1928.5,-1872"/>
<polygon fill="#eeeeee" stroke="transparent" points="1628,-1834 1628,-1868 1921,-1868 1921,-1834 1628,-1834"/>
<polygon fill="none" stroke="black" points="1628,-1834 1628,-1868 1921,-1868 1921,-1834 1628,-1834"/>
<text text-anchor="start" x="1736.5" y="-1840.8" font-family="Times,serif" font-weight="bold" font-size="14.00">Throwing</text>
<polygon fill="none" stroke="black" points="1628,-1828 1628,-1834 1921,-1834 1921,-1828 1628,-1828"/>
<polygon fill="none" stroke="black" points="1628,-1746 1628,-1828 1921,-1828 1921,-1746 1628,-1746"/>
<text text-anchor="start" x="1633" y="-1811.8" font-family="Times,serif" font-size="14.00">+ handleError(error : PhpParser\Error)</text>
<text text-anchor="start" x="1633" y="-1792.8" font-family="Times,serif" font-size="14.00">+ hasErrors() : bool</text>
<text text-anchor="start" x="1633" y="-1773.8" font-family="Times,serif" font-size="14.00">+ getErrors() : array</text>
<text text-anchor="start" x="1633" y="-1754.8" font-family="Times,serif" font-size="14.00">+ clearErrors() : void</text>
</g>
<!-- Bartlett\\CompatInfo\\Application\\DataCollector\\ErrorHandler\\Throwing&#45;&gt;Bartlett\\CompatInfo\\Application\\DataCollector\\ErrorHandler -->
<g id="edge11" class="edge">
<title>Bartlett\\CompatInfo\\Application\\DataCollector\\ErrorHandler\\Throwing&#45;&gt;Bartlett\\CompatInfo\\Application\\DataCollector\\ErrorHandler</title>
<path fill="none" stroke="black" stroke-dasharray="5,2" d="M1774,-1741.93C1774,-1656.5 1774,-1506.09 1774,-1420.29"/>
<polygon fill="none" stroke="black" points="1777.5,-1420.16 1774,-1410.16 1770.5,-1420.16 1777.5,-1420.16"/>
</g>
<!-- Doctrine\\Common\\Collections\\Collection -->
<g id="node4" class="node">
<title>Doctrine\\Common\\Collections\\Collection</title>
<polygon fill="#fefece" stroke="transparent" points="464,-949.5 102,-949.5 102,-762.5 464,-762.5 464,-949.5"/>
<polygon fill="#eeeeee" stroke="transparent" points="110,-911 110,-945 456,-945 456,-911 110,-911"/>
<polygon fill="none" stroke="black" points="110,-911 110,-945 456,-945 456,-911 110,-911"/>
<text text-anchor="start" x="238" y="-931.8" font-family="Times,serif" font-weight="bold" font-size="14.00">«interface»</text>
<text text-anchor="start" x="243" y="-917.8" font-family="Times,serif" font-weight="bold" font-size="14.00">Collection</text>
<polygon fill="none" stroke="black" points="110,-905 110,-911 456,-911 456,-905 110,-905"/>
<polygon fill="none" stroke="black" points="110,-766 110,-905 456,-905 456,-766 110,-766"/>
<text text-anchor="start" x="115" y="-888.8" font-family="Times,serif" font-size="14.00">+ «abstract» add(element : mixed)</text>
<text text-anchor="start" x="115" y="-869.8" font-family="Times,serif" font-size="14.00">+ «abstract» clear()</text>
<text text-anchor="start" x="115" y="-850.8" font-family="Times,serif" font-size="14.00">+ «abstract» remove(key : mixed)</text>
<text text-anchor="start" x="115" y="-831.8" font-family="Times,serif" font-size="14.00">+ «abstract» removeElement(element : mixed)</text>
<text text-anchor="start" x="115" y="-812.8" font-family="Times,serif" font-size="14.00">+ «abstract» set(key : mixed, value : mixed)</text>
<text text-anchor="start" x="115" y="-793.8" font-family="Times,serif" font-size="14.00">+ «abstract» filter(p : Closure)</text>
<text text-anchor="start" x="115" y="-774.8" font-family="Times,serif" font-size="14.00">+ «abstract» partition(p : Closure)</text>
</g>
<!-- Doctrine\\Common\\Collections\\ArrayCollection&#45;&gt;Doctrine\\Common\\Collections\\Collection -->
<g id="edge6" class="edge">
<title>Doctrine\\Common\\Collections\\ArrayCollection&#45;&gt;Doctrine\\Common\\Collections\\Collection</title>
<path fill="none" stroke="black" stroke-dasharray="5,2" d="M522.31,-1110.34C471.08,-1056.11 419.55,-1001.56 377.5,-957.04"/>
<polygon fill="none" stroke="black" points="379.97,-954.56 370.56,-949.7 374.89,-959.37 379.97,-954.56"/>
</g>
<!-- Doctrine\\Common\\Collections\\Selectable -->
<g id="node6" class="node">
<title>Doctrine\\Common\\Collections\\Selectable</title>
<polygon fill="#fefece" stroke="transparent" points="1021.5,-892.5 482.5,-892.5 482.5,-819.5 1021.5,-819.5 1021.5,-892.5"/>
<polygon fill="#eeeeee" stroke="transparent" points="491,-854 491,-888 1014,-888 1014,-854 491,-854"/>
<polygon fill="none" stroke="black" points="491,-854 491,-888 1014,-888 1014,-854 491,-854"/>
<text text-anchor="start" x="707.5" y="-874.8" font-family="Times,serif" font-weight="bold" font-size="14.00">«interface»</text>
<text text-anchor="start" x="711.5" y="-860.8" font-family="Times,serif" font-weight="bold" font-size="14.00">Selectable</text>
<polygon fill="none" stroke="black" points="491,-848 491,-854 1014,-854 1014,-848 491,-848"/>
<polygon fill="none" stroke="black" points="491,-823 491,-848 1014,-848 1014,-823 491,-823"/>
<text text-anchor="start" x="496" y="-831.8" font-family="Times,serif" font-size="14.00">+ «abstract» matching(criteria : Doctrine\Common\Collections\Criteria)</text>
</g>
<!-- Doctrine\\Common\\Collections\\ArrayCollection&#45;&gt;Doctrine\\Common\\Collections\\Selectable -->
<g id="edge7" class="edge">
<title>Doctrine\\Common\\Collections\\ArrayCollection&#45;&gt;Doctrine\\Common\\Collections\\Selectable</title>
<path fill="none" stroke="black" stroke-dasharray="5,2" d="M752,-1013.75C752,-970.3 752,-931.2 752,-902.92"/>
<polygon fill="none" stroke="black" points="755.5,-902.62 752,-892.62 748.5,-902.62 755.5,-902.62"/>
</g>
<!-- Doctrine\\Common\\Collections\\ReadableCollection -->
<g id="node5" class="node">
<title>Doctrine\\Common\\Collections\\ReadableCollection</title>
<polygon fill="#fefece" stroke="transparent" points="554.5,-698 101.5,-698 101.5,-283 554.5,-283 554.5,-698"/>
<polygon fill="#eeeeee" stroke="transparent" points="110,-659.5 110,-693.5 547,-693.5 547,-659.5 110,-659.5"/>
<polygon fill="none" stroke="black" points="110,-659.5 110,-693.5 547,-693.5 547,-659.5 110,-659.5"/>
<text text-anchor="start" x="283.5" y="-680.3" font-family="Times,serif" font-weight="bold" font-size="14.00">«interface»</text>
<text text-anchor="start" x="252" y="-666.3" font-family="Times,serif" font-weight="bold" font-size="14.00">ReadableCollection</text>
<polygon fill="none" stroke="black" points="110,-653.5 110,-659.5 547,-659.5 547,-653.5 110,-653.5"/>
<polygon fill="none" stroke="black" points="110,-286.5 110,-653.5 547,-653.5 547,-286.5 110,-286.5"/>
<text text-anchor="start" x="115" y="-637.3" font-family="Times,serif" font-size="14.00">+ «abstract» contains(element : mixed)</text>
<text text-anchor="start" x="115" y="-618.3" font-family="Times,serif" font-size="14.00">+ «abstract» isEmpty()</text>
<text text-anchor="start" x="115" y="-599.3" font-family="Times,serif" font-size="14.00">+ «abstract» containsKey(key : mixed)</text>
<text text-anchor="start" x="115" y="-580.3" font-family="Times,serif" font-size="14.00">+ «abstract» get(key : mixed)</text>
<text text-anchor="start" x="115" y="-561.3" font-family="Times,serif" font-size="14.00">+ «abstract» getKeys()</text>
<text text-anchor="start" x="115" y="-542.3" font-family="Times,serif" font-size="14.00">+ «abstract» getValues()</text>
<text text-anchor="start" x="115" y="-523.3" font-family="Times,serif" font-size="14.00">+ «abstract» toArray()</text>
<text text-anchor="start" x="115" y="-504.3" font-family="Times,serif" font-size="14.00">+ «abstract» first()</text>
<text text-anchor="start" x="115" y="-485.3" font-family="Times,serif" font-size="14.00">+ «abstract» last()</text>
<text text-anchor="start" x="115" y="-466.3" font-family="Times,serif" font-size="14.00">+ «abstract» key()</text>
<text text-anchor="start" x="115" y="-447.3" font-family="Times,serif" font-size="14.00">+ «abstract» current()</text>
<text text-anchor="start" x="115" y="-428.3" font-family="Times,serif" font-size="14.00">+ «abstract» next()</text>
<text text-anchor="start" x="115" y="-409.3" font-family="Times,serif" font-size="14.00">+ «abstract» slice(offset : int, length : mixed = «unknown»)</text>
<text text-anchor="start" x="115" y="-390.3" font-family="Times,serif" font-size="14.00">+ «abstract» exists(p : Closure)</text>
<text text-anchor="start" x="115" y="-371.3" font-family="Times,serif" font-size="14.00">+ «abstract» filter(p : Closure)</text>
<text text-anchor="start" x="115" y="-352.3" font-family="Times,serif" font-size="14.00">+ «abstract» map(func : Closure)</text>
<text text-anchor="start" x="115" y="-333.3" font-family="Times,serif" font-size="14.00">+ «abstract» partition(p : Closure)</text>
<text text-anchor="start" x="115" y="-314.3" font-family="Times,serif" font-size="14.00">+ «abstract» forAll(p : Closure)</text>
<text text-anchor="start" x="115" y="-295.3" font-family="Times,serif" font-size="14.00">+ «abstract» indexOf(element : mixed)</text>
</g>
<!-- Doctrine\\Common\\Collections\\Collection&#45;&gt;Doctrine\\Common\\Collections\\ReadableCollection -->
<g id="edge4" class="edge">
<title>Doctrine\\Common\\Collections\\Collection&#45;&gt;Doctrine\\Common\\Collections\\ReadableCollection</title>
<path fill="none" stroke="black" stroke-dasharray="5,2" d="M294.47,-762.33C296.58,-745.32 298.86,-726.92 301.2,-707.99"/>
<polygon fill="none" stroke="black" points="304.67,-708.41 302.43,-698.06 297.73,-707.55 304.67,-708.41"/>
</g>
<!-- ArrayAccess -->
<g id="node10" class="node">
<title>ArrayAccess</title>
<polygon fill="#fefece" stroke="transparent" points="724.5,-236 439.5,-236 439.5,-106 724.5,-106 724.5,-236"/>
<polygon fill="#eeeeee" stroke="transparent" points="448,-198 448,-232 717,-232 717,-198 448,-198"/>
<polygon fill="none" stroke="black" points="448,-198 448,-232 717,-232 717,-198 448,-198"/>
<text text-anchor="start" x="537.5" y="-218.8" font-family="Times,serif" font-weight="bold" font-size="14.00">«interface»</text>
<text text-anchor="start" x="534.5" y="-204.8" font-family="Times,serif" font-weight="bold" font-size="14.00">ArrayAccess</text>
<polygon fill="none" stroke="black" points="448,-192 448,-198 717,-198 717,-192 448,-192"/>
<polygon fill="none" stroke="black" points="448,-110 448,-192 717,-192 717,-110 448,-110"/>
<text text-anchor="start" x="453" y="-175.8" font-family="Times,serif" font-size="14.00">+ «abstract» offsetExists(offset)</text>
<text text-anchor="start" x="453" y="-156.8" font-family="Times,serif" font-size="14.00">+ «abstract» offsetGet(offset)</text>
<text text-anchor="start" x="453" y="-137.8" font-family="Times,serif" font-size="14.00">+ «abstract» offsetSet(offset, value)</text>
<text text-anchor="start" x="453" y="-118.8" font-family="Times,serif" font-size="14.00">+ «abstract» offsetUnset(offset)</text>
</g>
<!-- Doctrine\\Common\\Collections\\Collection&#45;&gt;ArrayAccess -->
<g id="edge5" class="edge">
<title>Doctrine\\Common\\Collections\\Collection&#45;&gt;ArrayAccess</title>
<path fill="none" stroke="black" stroke-dasharray="5,2" d="M421.86,-762.44C438.82,-752.37 456.12,-742.65 473,-734 511.34,-714.34 538.21,-733.23 563,-698 658.23,-562.67 628.24,-355.58 602.53,-245.98"/>
<polygon fill="none" stroke="black" points="605.87,-244.92 600.14,-236.01 599.07,-246.55 605.87,-244.92"/>
</g>
<!-- Countable -->
<g id="node7" class="node">
<title>Countable</title>
<polygon fill="#fefece" stroke="transparent" points="421,-207.5 247,-207.5 247,-134.5 421,-134.5 421,-207.5"/>
<polygon fill="#eeeeee" stroke="transparent" points="255,-169 255,-203 413,-203 413,-169 255,-169"/>
<polygon fill="none" stroke="black" points="255,-169 255,-203 413,-203 413,-169 255,-169"/>
<text text-anchor="start" x="289" y="-189.8" font-family="Times,serif" font-weight="bold" font-size="14.00">«interface»</text>
<text text-anchor="start" x="293" y="-175.8" font-family="Times,serif" font-weight="bold" font-size="14.00">Countable</text>
<polygon fill="none" stroke="black" points="255,-163 255,-169 413,-169 413,-163 255,-163"/>
<polygon fill="none" stroke="black" points="255,-138 255,-163 413,-163 413,-138 255,-138"/>
<text text-anchor="start" x="260" y="-146.8" font-family="Times,serif" font-size="14.00">+ «abstract» count()</text>
</g>
<!-- Doctrine\\Common\\Collections\\ReadableCollection&#45;&gt;Countable -->
<g id="edge1" class="edge">
<title>Doctrine\\Common\\Collections\\ReadableCollection&#45;&gt;Countable</title>
<path fill="none" stroke="black" stroke-dasharray="5,2" d="M331.91,-282.6C332.37,-258.41 332.79,-235.86 333.14,-217.52"/>
<polygon fill="none" stroke="black" points="336.64,-217.57 333.33,-207.51 329.64,-217.44 336.64,-217.57"/>
</g>
<!-- IteratorAggregate -->
<g id="node8" class="node">
<title>IteratorAggregate</title>
<polygon fill="#fefece" stroke="transparent" points="228.5,-207.5 15.5,-207.5 15.5,-134.5 228.5,-134.5 228.5,-207.5"/>
<polygon fill="#eeeeee" stroke="transparent" points="24,-169 24,-203 221,-203 221,-169 24,-169"/>
<polygon fill="none" stroke="black" points="24,-169 24,-203 221,-203 221,-169 24,-169"/>
<text text-anchor="start" x="77.5" y="-189.8" font-family="Times,serif" font-weight="bold" font-size="14.00">«interface»</text>
<text text-anchor="start" x="50.5" y="-175.8" font-family="Times,serif" font-weight="bold" font-size="14.00">IteratorAggregate</text>
<polygon fill="none" stroke="black" points="24,-163 24,-169 221,-169 221,-163 24,-163"/>
<polygon fill="none" stroke="black" points="24,-138 24,-163 221,-163 221,-138 24,-138"/>
<text text-anchor="start" x="29" y="-146.8" font-family="Times,serif" font-size="14.00">+ «abstract» getIterator()</text>
</g>
<!-- Doctrine\\Common\\Collections\\ReadableCollection&#45;&gt;IteratorAggregate -->
<g id="edge3" class="edge">
<title>Doctrine\\Common\\Collections\\ReadableCollection&#45;&gt;IteratorAggregate</title>
<path fill="none" stroke="black" stroke-dasharray="5,2" d="M193.76,-282.6C177.63,-257.73 162.62,-234.61 150.55,-216"/>
<polygon fill="none" stroke="black" points="153.42,-213.99 145.04,-207.51 147.55,-217.8 153.42,-213.99"/>
</g>
<!-- Traversable -->
<g id="node9" class="node">
<title>Traversable</title>
<polygon fill="#fefece" stroke="transparent" points="179.5,-70 64.5,-70 64.5,-16 179.5,-16 179.5,-70"/>
<polygon fill="#eeeeee" stroke="transparent" points="73,-32 73,-66 172,-66 172,-32 73,-32"/>
<polygon fill="none" stroke="black" points="73,-32 73,-66 172,-66 172,-32 73,-32"/>
<text text-anchor="start" x="77.5" y="-52.8" font-family="Times,serif" font-weight="bold" font-size="14.00">«interface»</text>
<text text-anchor="start" x="76" y="-38.8" font-family="Times,serif" font-weight="bold" font-size="14.00">Traversable</text>
<polygon fill="none" stroke="black" points="73,-26 73,-32 172,-32 172,-26 73,-26"/>
<polygon fill="none" stroke="black" points="73,-20 73,-26 172,-26 172,-20 73,-20"/>
</g>
<!-- IteratorAggregate&#45;&gt;Traversable -->
<g id="edge2" class="edge">
<title>IteratorAggregate&#45;&gt;Traversable</title>
<path fill="none" stroke="black" stroke-dasharray="5,2" d="M122,-134.23C122,-117.36 122,-97.26 122,-80.32"/>
<polygon fill="none" stroke="black" points="125.5,-80.24 122,-70.24 118.5,-80.24 125.5,-80.24"/>
</g>
<!-- PhpParser\\ErrorHandler -->
<g id="node17" class="node">
<title>PhpParser\\ErrorHandler</title>
<polygon fill="#fefece" stroke="transparent" points="2317.5,-892.5 1928.5,-892.5 1928.5,-819.5 2317.5,-819.5 2317.5,-892.5"/>
<polygon fill="#eeeeee" stroke="transparent" points="1937,-854 1937,-888 2310,-888 2310,-854 1937,-854"/>
<polygon fill="none" stroke="black" points="1937,-854 1937,-888 2310,-888 2310,-854 1937,-854"/>
<text text-anchor="start" x="2078.5" y="-874.8" font-family="Times,serif" font-weight="bold" font-size="14.00">«interface»</text>
<text text-anchor="start" x="2070" y="-860.8" font-family="Times,serif" font-weight="bold" font-size="14.00">ErrorHandler</text>
<polygon fill="none" stroke="black" points="1937,-848 1937,-854 2310,-854 2310,-848 1937,-848"/>
<polygon fill="none" stroke="black" points="1937,-823 1937,-848 2310,-848 2310,-823 1937,-823"/>
<text text-anchor="start" x="1942" y="-831.8" font-family="Times,serif" font-size="14.00">+ «abstract» handleError(error : PhpParser\Error)</text>
</g>
<!-- Bartlett\\CompatInfo\\Application\\DataCollector\\ErrorHandler&#45;&gt;PhpParser\\ErrorHandler -->
<g id="edge9" class="edge">
<title>Bartlett\\CompatInfo\\Application\\DataCollector\\ErrorHandler&#45;&gt;PhpParser\\ErrorHandler</title>
<path fill="none" stroke="black" stroke-dasharray="5,2" d="M1787.25,-1298.98C1806.55,-1227.86 1847.73,-1102.14 1916,-1014 1952.77,-966.53 2007.27,-925.97 2051.13,-897.98"/>
<polygon fill="none" stroke="black" points="2053.15,-900.84 2059.75,-892.55 2049.42,-894.92 2053.15,-900.84"/>
</g>
<!-- Bartlett\\CompatInfo\\Application\\DataCollector\\DataCollector -->
<g id="node12" class="node">
<title>Bartlett\\CompatInfo\\Application\\DataCollector\\DataCollector</title>
<polygon fill="#fefece" stroke="transparent" points="1791.5,-978 1066.5,-978 1066.5,-734 1791.5,-734 1791.5,-978"/>
<polygon fill="#eeeeee" stroke="transparent" points="1075,-940 1075,-974 1784,-974 1784,-940 1075,-940"/>
<polygon fill="none" stroke="black" points="1075,-940 1075,-974 1784,-974 1784,-940 1075,-940"/>
<text text-anchor="start" x="1387.5" y="-960.8" font-family="Times,serif" font-weight="bold" font-size="14.00">«abstract»</text>
<text text-anchor="start" x="1375" y="-946.8" font-family="Times,serif" font-weight="bold" font-size="14.00">DataCollector</text>
<polygon fill="none" stroke="black" points="1075,-934 1075,-940 1784,-940 1784,-934 1075,-934"/>
<polygon fill="none" stroke="black" points="1075,-738 1075,-934 1784,-934 1784,-738 1075,-738"/>
<text text-anchor="start" x="1080" y="-917.8" font-family="Times,serif" font-size="14.00">+ __construct(visitor : Bartlett\CompatInfo\Application\PhpParser\NodeVisitor\NodeVisitor)</text>
<text text-anchor="start" x="1080" y="-898.8" font-family="Times,serif" font-size="14.00">+ reset() : void</text>
<text text-anchor="start" x="1080" y="-879.8" font-family="Times,serif" font-size="14.00">+ getData() : array</text>
<text text-anchor="start" x="1080" y="-860.8" font-family="Times,serif" font-size="14.00">+ collect(nodes : array) : array</text>
<text text-anchor="start" x="1080" y="-841.8" font-family="Times,serif" font-size="14.00">+ setName(name : string) : Bartlett\CompatInfo\Application\DataCollector\DataCollectorInterface</text>
<text text-anchor="start" x="1080" y="-822.8" font-family="Times,serif" font-size="14.00">+ getName() : string</text>
<text text-anchor="start" x="1080" y="-803.8" font-family="Times,serif" font-size="14.00">+ addFile(file : Symfony\Component\Finder\SplFileInfo) : void</text>
<text text-anchor="start" x="1080" y="-784.8" font-family="Times,serif" font-size="14.00">+ getFiles() : array</text>
<text text-anchor="start" x="1080" y="-765.8" font-family="Times,serif" font-size="14.00">+ addErrors(errors : array) : void</text>
<text text-anchor="start" x="1080" y="-746.8" font-family="Times,serif" font-size="14.00">+ getErrors() : array</text>
</g>
<!-- Bartlett\\CompatInfo\\Application\\DataCollector\\DataCollectorInterface -->
<g id="node13" class="node">
<title>Bartlett\\CompatInfo\\Application\\DataCollector\\DataCollectorInterface</title>
<polygon fill="#fefece" stroke="transparent" points="1851.5,-603 1046.5,-603 1046.5,-378 1851.5,-378 1851.5,-603"/>
<polygon fill="#eeeeee" stroke="transparent" points="1055,-564.5 1055,-598.5 1844,-598.5 1844,-564.5 1055,-564.5"/>
<polygon fill="none" stroke="black" points="1055,-564.5 1055,-598.5 1844,-598.5 1844,-564.5 1055,-564.5"/>
<text text-anchor="start" x="1404.5" y="-585.3" font-family="Times,serif" font-weight="bold" font-size="14.00">«interface»</text>
<text text-anchor="start" x="1359" y="-571.3" font-family="Times,serif" font-weight="bold" font-size="14.00">DataCollectorInterface</text>
<polygon fill="none" stroke="black" points="1055,-558.5 1055,-564.5 1844,-564.5 1844,-558.5 1055,-558.5"/>
<polygon fill="none" stroke="black" points="1055,-381.5 1055,-558.5 1844,-558.5 1844,-381.5 1055,-381.5"/>
<text text-anchor="start" x="1060" y="-542.3" font-family="Times,serif" font-size="14.00">+ «abstract» reset() : void</text>
<text text-anchor="start" x="1060" y="-523.3" font-family="Times,serif" font-size="14.00">+ «abstract» getData() : array</text>
<text text-anchor="start" x="1060" y="-504.3" font-family="Times,serif" font-size="14.00">+ «abstract» collect(nodes : array) : array</text>
<text text-anchor="start" x="1060" y="-485.3" font-family="Times,serif" font-size="14.00">+ «abstract» setName(name : string) : Bartlett\CompatInfo\Application\DataCollector\DataCollectorInterface</text>
<text text-anchor="start" x="1060" y="-466.3" font-family="Times,serif" font-size="14.00">+ «abstract» getName() : string</text>
<text text-anchor="start" x="1060" y="-447.3" font-family="Times,serif" font-size="14.00">+ «abstract» addFile(file : Symfony\Component\Finder\SplFileInfo) : void</text>
<text text-anchor="start" x="1060" y="-428.3" font-family="Times,serif" font-size="14.00">+ «abstract» getFiles() : array</text>
<text text-anchor="start" x="1060" y="-409.3" font-family="Times,serif" font-size="14.00">+ «abstract» addErrors(errors : array) : void</text>
<text text-anchor="start" x="1060" y="-390.3" font-family="Times,serif" font-size="14.00">+ «abstract» getErrors() : array</text>
</g>
<!-- Bartlett\\CompatInfo\\Application\\DataCollector\\DataCollector&#45;&gt;Bartlett\\CompatInfo\\Application\\DataCollector\\DataCollectorInterface -->
<g id="edge13" class="edge">
<title>Bartlett\\CompatInfo\\Application\\DataCollector\\DataCollector&#45;&gt;Bartlett\\CompatInfo\\Application\\DataCollector\\DataCollectorInterface</title>
<path fill="none" stroke="black" stroke-dasharray="5,2" d="M1435.66,-733.96C1437.79,-695.19 1440.16,-652.25 1442.29,-613.42"/>
<polygon fill="none" stroke="black" points="1445.8,-613.29 1442.86,-603.12 1438.81,-612.91 1445.8,-613.29"/>
</g>
<!-- Bartlett\\CompatInfo\\Application\\DataCollector\\RuleUpdater -->
<g id="node14" class="node">
<title>Bartlett\\CompatInfo\\Application\\DataCollector\\RuleUpdater</title>
<polygon fill="#fefece" stroke="transparent" points="1626.5,-1381.5 1503.5,-1381.5 1503.5,-1327.5 1626.5,-1327.5 1626.5,-1381.5"/>
<polygon fill="#eeeeee" stroke="transparent" points="1512,-1343.5 1512,-1377.5 1619,-1377.5 1619,-1343.5 1512,-1343.5"/>
<polygon fill="none" stroke="black" points="1512,-1343.5 1512,-1377.5 1619,-1377.5 1619,-1343.5 1512,-1343.5"/>
<text text-anchor="start" x="1515" y="-1350.3" font-family="Times,serif" font-weight="bold" font-size="14.00">RuleUpdater</text>
<polygon fill="none" stroke="black" points="1512,-1337.5 1512,-1343.5 1619,-1343.5 1619,-1337.5 1512,-1337.5"/>
<polygon fill="none" stroke="black" points="1512,-1331.5 1512,-1337.5 1619,-1337.5 1619,-1331.5 1512,-1331.5"/>
</g>
<!-- Bartlett\\CompatInfo\\Application\\DataCollector\\VersionDataCollector -->
<g id="node15" class="node">
<title>Bartlett\\CompatInfo\\Application\\DataCollector\\VersionDataCollector</title>
<polygon fill="#fefece" stroke="transparent" points="1485.5,-1533.5 1210.5,-1533.5 1210.5,-1175.5 1485.5,-1175.5 1485.5,-1533.5"/>
<polygon fill="#eeeeee" stroke="transparent" points="1219,-1495.5 1219,-1529.5 1478,-1529.5 1478,-1495.5 1219,-1495.5"/>
<polygon fill="none" stroke="black" points="1219,-1495.5 1219,-1529.5 1478,-1529.5 1478,-1495.5 1219,-1495.5"/>
<text text-anchor="start" x="1264.5" y="-1502.3" font-family="Times,serif" font-weight="bold" font-size="14.00">VersionDataCollector</text>
<polygon fill="none" stroke="black" points="1219,-1489.5 1219,-1495.5 1478,-1495.5 1478,-1489.5 1219,-1489.5"/>
<polygon fill="none" stroke="black" points="1219,-1179.5 1219,-1489.5 1478,-1489.5 1478,-1179.5 1219,-1179.5"/>
<text text-anchor="start" x="1224" y="-1473.3" font-family="Times,serif" font-size="14.00">+ __construct(keysAllowed : array)</text>
<text text-anchor="start" x="1224" y="-1454.3" font-family="Times,serif" font-size="14.00">+ collect(nodes : array) : array</text>
<text text-anchor="start" x="1224" y="-1435.3" font-family="Times,serif" font-size="14.00">+ reset() : void</text>
<text text-anchor="start" x="1224" y="-1416.3" font-family="Times,serif" font-size="14.00">+ getData() : array</text>
<text text-anchor="start" x="1224" y="-1397.3" font-family="Times,serif" font-size="14.00">+ getVersions() : array</text>
<text text-anchor="start" x="1224" y="-1378.3" font-family="Times,serif" font-size="14.00">+ getExtensions() : array</text>
<text text-anchor="start" x="1224" y="-1359.3" font-family="Times,serif" font-size="14.00">+ getNamespaces() : array</text>
<text text-anchor="start" x="1224" y="-1340.3" font-family="Times,serif" font-size="14.00">+ getClasses() : array</text>
<text text-anchor="start" x="1224" y="-1321.3" font-family="Times,serif" font-size="14.00">+ getInterfaces() : array</text>
<text text-anchor="start" x="1224" y="-1302.3" font-family="Times,serif" font-size="14.00">+ getTraits() : array</text>
<text text-anchor="start" x="1224" y="-1283.3" font-family="Times,serif" font-size="14.00">+ getMethods() : array</text>
<text text-anchor="start" x="1224" y="-1264.3" font-family="Times,serif" font-size="14.00">+ getGenerators() : array</text>
<text text-anchor="start" x="1224" y="-1245.3" font-family="Times,serif" font-size="14.00">+ getFunctions() : array</text>
<text text-anchor="start" x="1224" y="-1226.3" font-family="Times,serif" font-size="14.00">+ getConstants() : array</text>
<text text-anchor="start" x="1224" y="-1207.3" font-family="Times,serif" font-size="14.00">+ getDirectives() : array</text>
<text text-anchor="start" x="1224" y="-1188.3" font-family="Times,serif" font-size="14.00">+ getConditions() : array</text>
</g>
<!-- Bartlett\\CompatInfo\\Application\\DataCollector\\VersionDataCollector&#45;&gt;Bartlett\\CompatInfo\\Application\\DataCollector\\DataCollector -->
<g id="edge14" class="edge">
<title>Bartlett\\CompatInfo\\Application\\DataCollector\\VersionDataCollector&#45;&gt;Bartlett\\CompatInfo\\Application\\DataCollector\\DataCollector</title>
<path fill="none" stroke="black" d="M1377.07,-1175.3C1387.13,-1113.65 1398.21,-1045.71 1407.55,-988.49"/>
<polygon fill="none" stroke="black" points="1411.06,-988.73 1409.21,-978.3 1404.15,-987.6 1411.06,-988.73"/>
</g>
<!-- Bartlett\\CompatInfo\\Application\\DataCollector\\VersionUpdater -->
<g id="node16" class="node">
<title>Bartlett\\CompatInfo\\Application\\DataCollector\\VersionUpdater</title>
<polygon fill="#fefece" stroke="transparent" points="1192,-1381.5 1046,-1381.5 1046,-1327.5 1192,-1327.5 1192,-1381.5"/>
<polygon fill="#eeeeee" stroke="transparent" points="1054,-1343.5 1054,-1377.5 1184,-1377.5 1184,-1343.5 1054,-1343.5"/>
<polygon fill="none" stroke="black" points="1054,-1343.5 1054,-1377.5 1184,-1377.5 1184,-1343.5 1054,-1343.5"/>
<text text-anchor="start" x="1057" y="-1350.3" font-family="Times,serif" font-weight="bold" font-size="14.00">VersionUpdater</text>
<polygon fill="none" stroke="black" points="1054,-1337.5 1054,-1343.5 1184,-1343.5 1184,-1337.5 1054,-1337.5"/>
<polygon fill="none" stroke="black" points="1054,-1331.5 1054,-1337.5 1184,-1337.5 1184,-1331.5 1054,-1331.5"/>
</g>
<!-- Bartlett\\CompatInfo\\Application\\DataCollector\\Normalizer\\NodeNormalizer -->
<g id="node18" class="node">
<title>Bartlett\\CompatInfo\\Application\\DataCollector\\Normalizer\\NodeNormalizer</title>
<polygon fill="#fefece" stroke="transparent" points="2497,-1853 2025,-1853 2025,-1761 2497,-1761 2497,-1853"/>
<polygon fill="#eeeeee" stroke="transparent" points="2033,-1815 2033,-1849 2489,-1849 2489,-1815 2033,-1815"/>
<polygon fill="none" stroke="black" points="2033,-1815 2033,-1849 2489,-1849 2489,-1815 2033,-1815"/>
<text text-anchor="start" x="2196" y="-1821.8" font-family="Times,serif" font-weight="bold" font-size="14.00">NodeNormalizer</text>
<polygon fill="none" stroke="black" points="2033,-1809 2033,-1815 2489,-1815 2489,-1809 2033,-1809"/>
<polygon fill="none" stroke="black" points="2033,-1765 2033,-1809 2489,-1809 2489,-1765 2033,-1765"/>
<text text-anchor="start" x="2038" y="-1792.8" font-family="Times,serif" font-size="14.00">+ normalize(object, format = «unknown», context : array = [])</text>
<text text-anchor="start" x="2038" y="-1773.8" font-family="Times,serif" font-size="14.00">+ supportsNormalization(data, format = «unknown»)</text>
</g>
<!-- Symfony\\Component\\Serializer\\Normalizer\\NormalizerInterface -->
<g id="node19" class="node">
<title>Symfony\\Component\\Serializer\\Normalizer\\NormalizerInterface</title>
<polygon fill="#fefece" stroke="transparent" points="2594,-1400.5 1928,-1400.5 1928,-1308.5 2594,-1308.5 2594,-1400.5"/>
<polygon fill="#eeeeee" stroke="transparent" points="1936,-1362.5 1936,-1396.5 2586,-1396.5 2586,-1362.5 1936,-1362.5"/>
<polygon fill="none" stroke="black" points="1936,-1362.5 1936,-1396.5 2586,-1396.5 2586,-1362.5 1936,-1362.5"/>
<text text-anchor="start" x="2216" y="-1383.3" font-family="Times,serif" font-weight="bold" font-size="14.00">«interface»</text>
<text text-anchor="start" x="2180" y="-1369.3" font-family="Times,serif" font-weight="bold" font-size="14.00">NormalizerInterface</text>
<polygon fill="none" stroke="black" points="1936,-1356.5 1936,-1362.5 2586,-1362.5 2586,-1356.5 1936,-1356.5"/>
<polygon fill="none" stroke="black" points="1936,-1312.5 1936,-1356.5 2586,-1356.5 2586,-1312.5 1936,-1312.5"/>
<text text-anchor="start" x="1941" y="-1340.3" font-family="Times,serif" font-size="14.00">+ «abstract» normalize(object : mixed, format : string = «unknown», context : array = [])</text>
<text text-anchor="start" x="1941" y="-1321.3" font-family="Times,serif" font-size="14.00">+ «abstract» supportsNormalization(data : mixed, format : string = «unknown»)</text>
</g>
<!-- Bartlett\\CompatInfo\\Application\\DataCollector\\Normalizer\\NodeNormalizer&#45;&gt;Symfony\\Component\\Serializer\\Normalizer\\NormalizerInterface -->
<g id="edge12" class="edge">
<title>Bartlett\\CompatInfo\\Application\\DataCollector\\Normalizer\\NodeNormalizer&#45;&gt;Symfony\\Component\\Serializer\\Normalizer\\NormalizerInterface</title>
<path fill="none" stroke="black" stroke-dasharray="5,2" d="M2261,-1760.74C2261,-1677.6 2261,-1500.82 2261,-1410.75"/>
<polygon fill="none" stroke="black" points="2264.5,-1410.73 2261,-1400.73 2257.5,-1410.73 2264.5,-1410.73"/>
</g>
</g>
</svg>
