<?xml version="1.0" encoding="UTF-8" standalone="no"?>
<!DOCTYPE svg PUBLIC "-//W3C//DTD SVG 1.1//EN"
 "http://www.w3.org/Graphics/SVG/1.1/DTD/svg11.dtd">
<!-- Generated by graphviz version 2.43.0 (0)
 -->
<!-- Title: %3 Pages: 1 -->
<svg width="1266pt" height="726pt"
 viewBox="0.00 0.00 1266.00 726.00" xmlns="http://www.w3.org/2000/svg" xmlns:xlink="http://www.w3.org/1999/xlink">
<g id="graph0" class="graph" transform="scale(1 1) rotate(0) translate(4 722)">
<title>%3</title>
<g id="clust1" class="cluster">
<title>cluster_0</title>
<polygon fill="#cdaa7d" stroke="black" points="8,-522 8,-710 1250,-710 1250,-522 8,-522"/>
<text text-anchor="middle" x="629" y="-694.8" font-family="Times,serif" font-size="14.00">Bartlett\CompatInfo\Application\Logger</text>
</g>
<g id="clust2" class="cluster">
<title>cluster_1</title>
<polygon fill="transparent" stroke="black" points="361,-8 361,-514 897,-514 897,-8 361,-8"/>
<text text-anchor="middle" x="629" y="-498.8" font-family="Times,serif" font-size="14.00">Psr\Log</text>
</g>
<!-- Bartlett\\CompatInfo\\Application\\Logger\\DefaultLogger -->
<g id="node1" class="node">
<title>Bartlett\\CompatInfo\\Application\\Logger\\DefaultLogger</title>
<polygon fill="#fefece" stroke="transparent" points="1242,-679 16,-679 16,-530 1242,-530 1242,-679"/>
<polygon fill="#eeeeee" stroke="transparent" points="24,-640.5 24,-674.5 1234,-674.5 1234,-640.5 24,-640.5"/>
<polygon fill="none" stroke="black" points="24,-640.5 24,-674.5 1234,-674.5 1234,-640.5 24,-640.5"/>
<text text-anchor="start" x="572" y="-647.3" font-family="Times,serif" font-weight="bold" font-size="14.00">DefaultLogger</text>
<polygon fill="none" stroke="black" points="24,-634.5 24,-640.5 1234,-640.5 1234,-634.5 24,-634.5"/>
<polygon fill="none" stroke="black" points="24,-533.5 24,-634.5 1234,-634.5 1234,-533.5 24,-533.5"/>
<text text-anchor="start" x="29" y="-618.3" font-family="Times,serif" font-size="14.00">+ __construct(stream : string, name : string = &#39;DefaultLoggerChannel&#39;, level : string = Psr\Log\LogLevel\:\:INFO, handler : mixed = «unknown», processors : array = [])</text>
<text text-anchor="start" x="29" y="-599.3" font-family="Times,serif" font-size="14.00">+ isHandling(record : array) : bool</text>
<text text-anchor="start" x="29" y="-580.3" font-family="Times,serif" font-size="14.00">+ log(level : mixed, message : string, context : array = [])</text>
<text text-anchor="start" x="29" y="-561.3" font-family="Times,serif" font-size="14.00">+ handle(record : array) : void</text>
<text text-anchor="start" x="29" y="-542.3" font-family="Times,serif" font-size="14.00">+ interpolate(record : array) : array</text>
</g>
<!-- Psr\\Log\\AbstractLogger -->
<g id="node2" class="node">
<title>Psr\\Log\\AbstractLogger</title>
<polygon fill="#fefece" stroke="transparent" points="827,-483 431,-483 431,-277 827,-277 827,-483"/>
<polygon fill="#eeeeee" stroke="transparent" points="439,-445 439,-479 819,-479 819,-445 439,-445"/>
<polygon fill="none" stroke="black" points="439,-445 439,-479 819,-479 819,-445 439,-445"/>
<text text-anchor="start" x="587" y="-465.8" font-family="Times,serif" font-weight="bold" font-size="14.00">«abstract»</text>
<text text-anchor="start" x="568" y="-451.8" font-family="Times,serif" font-weight="bold" font-size="14.00">AbstractLogger</text>
<polygon fill="none" stroke="black" points="439,-439 439,-445 819,-445 819,-439 439,-439"/>
<polygon fill="none" stroke="black" points="439,-281 439,-439 819,-439 819,-281 439,-281"/>
<text text-anchor="start" x="444" y="-422.8" font-family="Times,serif" font-size="14.00">+ emergency(message : string, context : array = [])</text>
<text text-anchor="start" x="444" y="-403.8" font-family="Times,serif" font-size="14.00">+ alert(message : string, context : array = [])</text>
<text text-anchor="start" x="444" y="-384.8" font-family="Times,serif" font-size="14.00">+ critical(message : string, context : array = [])</text>
<text text-anchor="start" x="444" y="-365.8" font-family="Times,serif" font-size="14.00">+ error(message : string, context : array = [])</text>
<text text-anchor="start" x="444" y="-346.8" font-family="Times,serif" font-size="14.00">+ warning(message : string, context : array = [])</text>
<text text-anchor="start" x="444" y="-327.8" font-family="Times,serif" font-size="14.00">+ notice(message : string, context : array = [])</text>
<text text-anchor="start" x="444" y="-308.8" font-family="Times,serif" font-size="14.00">+ info(message : string, context : array = [])</text>
<text text-anchor="start" x="444" y="-289.8" font-family="Times,serif" font-size="14.00">+ debug(message : string, context : array = [])</text>
</g>
<!-- Bartlett\\CompatInfo\\Application\\Logger\\DefaultLogger&#45;&gt;Psr\\Log\\AbstractLogger -->
<g id="edge2" class="edge">
<title>Bartlett\\CompatInfo\\Application\\Logger\\DefaultLogger&#45;&gt;Psr\\Log\\AbstractLogger</title>
<path fill="none" stroke="black" d="M629,-529.72C629,-518.06 629,-505.77 629,-493.47"/>
<polygon fill="none" stroke="black" points="632.5,-493.14 629,-483.14 625.5,-493.14 632.5,-493.14"/>
</g>
<!-- Psr\\Log\\LoggerInterface -->
<g id="node3" class="node">
<title>Psr\\Log\\LoggerInterface</title>
<polygon fill="#fefece" stroke="transparent" points="888.5,-241 369.5,-241 369.5,-16 888.5,-16 888.5,-241"/>
<polygon fill="#eeeeee" stroke="transparent" points="378,-202.5 378,-236.5 881,-236.5 881,-202.5 378,-202.5"/>
<polygon fill="none" stroke="black" points="378,-202.5 378,-236.5 881,-236.5 881,-202.5 378,-202.5"/>
<text text-anchor="start" x="584.5" y="-223.3" font-family="Times,serif" font-weight="bold" font-size="14.00">«interface»</text>
<text text-anchor="start" x="565.5" y="-209.3" font-family="Times,serif" font-weight="bold" font-size="14.00">LoggerInterface</text>
<polygon fill="none" stroke="black" points="378,-196.5 378,-202.5 881,-202.5 881,-196.5 378,-196.5"/>
<polygon fill="none" stroke="black" points="378,-19.5 378,-196.5 881,-196.5 881,-19.5 378,-19.5"/>
<text text-anchor="start" x="383" y="-180.3" font-family="Times,serif" font-size="14.00">+ «abstract» emergency(message : string, context : array = [])</text>
<text text-anchor="start" x="383" y="-161.3" font-family="Times,serif" font-size="14.00">+ «abstract» alert(message : string, context : array = [])</text>
<text text-anchor="start" x="383" y="-142.3" font-family="Times,serif" font-size="14.00">+ «abstract» critical(message : string, context : array = [])</text>
<text text-anchor="start" x="383" y="-123.3" font-family="Times,serif" font-size="14.00">+ «abstract» error(message : string, context : array = [])</text>
<text text-anchor="start" x="383" y="-104.3" font-family="Times,serif" font-size="14.00">+ «abstract» warning(message : string, context : array = [])</text>
<text text-anchor="start" x="383" y="-85.3" font-family="Times,serif" font-size="14.00">+ «abstract» notice(message : string, context : array = [])</text>
<text text-anchor="start" x="383" y="-66.3" font-family="Times,serif" font-size="14.00">+ «abstract» info(message : string, context : array = [])</text>
<text text-anchor="start" x="383" y="-47.3" font-family="Times,serif" font-size="14.00">+ «abstract» debug(message : string, context : array = [])</text>
<text text-anchor="start" x="383" y="-28.3" font-family="Times,serif" font-size="14.00">+ «abstract» log(level : mixed, message : string, context : array = [])</text>
</g>
<!-- Psr\\Log\\AbstractLogger&#45;&gt;Psr\\Log\\LoggerInterface -->
<g id="edge1" class="edge">
<title>Psr\\Log\\AbstractLogger&#45;&gt;Psr\\Log\\LoggerInterface</title>
<path fill="none" stroke="black" stroke-dasharray="5,2" d="M629,-276.8C629,-268.38 629,-259.83 629,-251.29"/>
<polygon fill="none" stroke="black" points="632.5,-251.28 629,-241.28 625.5,-251.28 632.5,-251.28"/>
</g>
</g>
</svg>
