<?xml version="1.0" encoding="UTF-8" standalone="no"?>
<!DOCTYPE svg PUBLIC "-//W3C//DTD SVG 1.1//EN"
 "http://www.w3.org/Graphics/SVG/1.1/DTD/svg11.dtd">
<!-- Generated by graphviz version 2.43.0 (0)
 -->
<!-- Title: %3 Pages: 1 -->
<svg width="1302pt" height="155pt"
 viewBox="0.00 0.00 1302.00 155.00" xmlns="http://www.w3.org/2000/svg" xmlns:xlink="http://www.w3.org/1999/xlink">
<g id="graph0" class="graph" transform="scale(1 1) rotate(0) translate(4 151)">
<title>%3</title>
<g id="clust1" class="cluster">
<title>cluster_0</title>
<polygon fill="#cdaa7d" stroke="black" points="8,-8 8,-139 631,-139 631,-8 8,-8"/>
<text text-anchor="middle" x="319.5" y="-123.8" font-family="Times,serif" font-size="14.00">Bartlett\CompatInfo\Infrastructure\Bus\Query</text>
</g>
<g id="clust2" class="cluster">
<title>cluster_1</title>
<polygon fill="transparent" stroke="black" points="651,-17 651,-130 1286,-130 1286,-17 651,-17"/>
<text text-anchor="middle" x="968.5" y="-114.8" font-family="Times,serif" font-size="14.00">Bartlett\CompatInfo\Application\Query</text>
</g>
<!-- Bartlett\\CompatInfo\\Infrastructure\\Bus\\Query\\MessengerQueryBus -->
<g id="node1" class="node">
<title>Bartlett\\CompatInfo\\Infrastructure\\Bus\\Query\\MessengerQueryBus</title>
<polygon fill="#fefece" stroke="transparent" points="623,-108 16,-108 16,-16 623,-16 623,-108"/>
<polygon fill="#eeeeee" stroke="transparent" points="24.5,-70 24.5,-104 615.5,-104 615.5,-70 24.5,-70"/>
<polygon fill="none" stroke="black" points="24.5,-70 24.5,-104 615.5,-104 615.5,-70 24.5,-70"/>
<text text-anchor="start" x="237" y="-76.8" font-family="Times,serif" font-weight="bold" font-size="14.00">MessengerQueryBus</text>
<polygon fill="none" stroke="black" points="24.5,-64 24.5,-70 615.5,-70 615.5,-64 24.5,-64"/>
<polygon fill="none" stroke="black" points="24.5,-20 24.5,-64 615.5,-64 615.5,-20 24.5,-20"/>
<text text-anchor="start" x="29.5" y="-47.8" font-family="Times,serif" font-size="14.00">+ __construct(queryBus : Symfony\Component\Messenger\MessageBusInterface)</text>
<text text-anchor="start" x="29.5" y="-28.8" font-family="Times,serif" font-size="14.00">+ query(query : Bartlett\CompatInfo\Application\Query\QueryInterface)</text>
</g>
<!-- Bartlett\\CompatInfo\\Application\\Query\\QueryBusInterface -->
<g id="node2" class="node">
<title>Bartlett\\CompatInfo\\Application\\Query\\QueryBusInterface</title>
<polygon fill="#fefece" stroke="transparent" points="1278,-98.5 659,-98.5 659,-25.5 1278,-25.5 1278,-98.5"/>
<polygon fill="#eeeeee" stroke="transparent" points="667.5,-60 667.5,-94 1270.5,-94 1270.5,-60 667.5,-60"/>
<polygon fill="none" stroke="black" points="667.5,-60 667.5,-94 1270.5,-94 1270.5,-60 667.5,-60"/>
<text text-anchor="start" x="924" y="-80.8" font-family="Times,serif" font-weight="bold" font-size="14.00">«interface»</text>
<text text-anchor="start" x="893.5" y="-66.8" font-family="Times,serif" font-weight="bold" font-size="14.00">QueryBusInterface</text>
<polygon fill="none" stroke="black" points="667.5,-54 667.5,-60 1270.5,-60 1270.5,-54 667.5,-54"/>
<polygon fill="none" stroke="black" points="667.5,-29 667.5,-54 1270.5,-54 1270.5,-29 667.5,-29"/>
<text text-anchor="start" x="672.5" y="-37.8" font-family="Times,serif" font-size="14.00">+ «abstract» query(query : Bartlett\CompatInfo\Application\Query\QueryInterface)</text>
</g>
<!-- Bartlett\\CompatInfo\\Infrastructure\\Bus\\Query\\MessengerQueryBus&#45;&gt;Bartlett\\CompatInfo\\Application\\Query\\QueryBusInterface -->
<g id="edge1" class="edge">
<title>Bartlett\\CompatInfo\\Infrastructure\\Bus\\Query\\MessengerQueryBus&#45;&gt;Bartlett\\CompatInfo\\Application\\Query\\QueryBusInterface</title>
<path fill="none" stroke="black" stroke-dasharray="5,2" d="M623.16,-62C631.67,-62 640.2,-62 648.73,-62"/>
<polygon fill="none" stroke="black" points="648.73,-65.5 658.73,-62 648.73,-58.5 648.73,-65.5"/>
</g>
</g>
</svg>
