<?xml version="1.0" encoding="UTF-8" standalone="no"?>
<!DOCTYPE svg PUBLIC "-//W3C//DTD SVG 1.1//EN"
 "http://www.w3.org/Graphics/SVG/1.1/DTD/svg11.dtd">
<!-- Generated by graphviz version 2.43.0 (0)
 -->
<!-- Title: %3 Pages: 1 -->
<svg width="960pt" height="137pt"
 viewBox="0.00 0.00 960.00 137.00" xmlns="http://www.w3.org/2000/svg" xmlns:xlink="http://www.w3.org/1999/xlink">
<g id="graph0" class="graph" transform="scale(1 1) rotate(0) translate(4 133)">
<title>%3</title>
<g id="clust1" class="cluster">
<title>cluster_0</title>
<polygon fill="#cdaa7d" stroke="black" points="8,-8 8,-121 944,-121 944,-8 8,-8"/>
<text text-anchor="middle" x="476" y="-105.8" font-family="Times,serif" font-size="14.00">Bartlett\CompatInfo\Infrastructure\Framework\Symfony</text>
</g>
<!-- Bartlett\\CompatInfo\\Infrastructure\\Framework\\Symfony\\Polyfill -->
<g id="node1" class="node">
<title>Bartlett\\CompatInfo\\Infrastructure\\Framework\\Symfony\\Polyfill</title>
<polygon fill="#fefece" stroke="transparent" points="936,-89.5 16,-89.5 16,-16.5 936,-16.5 936,-89.5"/>
<polygon fill="#eeeeee" stroke="transparent" points="24,-51 24,-85 928,-85 928,-51 24,-51"/>
<polygon fill="none" stroke="black" points="24,-51 24,-85 928,-85 928,-51 24,-51"/>
<text text-anchor="start" x="448.5" y="-57.8" font-family="Times,serif" font-weight="bold" font-size="14.00">Polyfill</text>
<polygon fill="none" stroke="black" points="24,-45 24,-51 928,-51 928,-45 24,-45"/>
<polygon fill="none" stroke="black" points="24,-20 24,-45 928,-45 928,-20 24,-20"/>
<text text-anchor="start" x="29" y="-28.8" font-family="Times,serif" font-size="14.00">+ «static» service(serviceId : string) : Symfony\Component\DependencyInjection\Loader\Configurator\ReferenceConfigurator</text>
</g>
</g>
</svg>
