<?xml version="1.0" encoding="UTF-8" standalone="no"?>
<!DOCTYPE svg PUBLIC "-//W3C//DTD SVG 1.1//EN"
 "http://www.w3.org/Graphics/SVG/1.1/DTD/svg11.dtd">
<!-- Generated by graphviz version 2.43.0 (0)
 -->
<!-- Title: %3 Pages: 1 -->
<svg width="2936pt" height="1089pt"
 viewBox="0.00 0.00 2936.00 1089.00" xmlns="http://www.w3.org/2000/svg" xmlns:xlink="http://www.w3.org/1999/xlink">
<g id="graph0" class="graph" transform="scale(1 1) rotate(0) translate(4 1085)">
<title>%3</title>
<g id="clust1" class="cluster">
<title>cluster_0</title>
<polygon fill="Bisque" stroke="black" points="414,-779 414,-931 827,-931 827,-779 414,-779"/>
<text text-anchor="middle" x="620.5" y="-915.8" font-family="Times,serif" font-size="14.00">Bartlett\CompatInfo\Application\PhpParser\Node\Name</text>
</g>
<g id="clust2" class="cluster">
<title>cluster_1</title>
<polygon fill="transparent" stroke="black" points="1439,-801 1439,-952 1618,-952 1618,-801 1439,-801"/>
<text text-anchor="middle" x="1528.5" y="-936.8" font-family="Times,serif" font-size="14.00">PhpParser\Node\Name</text>
</g>
<g id="clust3" class="cluster">
<title>cluster_2</title>
<polygon fill="transparent" stroke="black" points="1854.5,-723 1854.5,-1030 2175.5,-1030 2175.5,-723 1854.5,-723"/>
<text text-anchor="middle" x="2015" y="-1014.8" font-family="Times,serif" font-size="14.00">PhpParser\Node</text>
</g>
<g id="clust4" class="cluster">
<title>cluster_3</title>
<polygon fill="transparent" stroke="black" points="2226,-443 2226,-913 2920,-913 2920,-443 2226,-443"/>
<text text-anchor="middle" x="2573" y="-897.8" font-family="Times,serif" font-size="14.00">PhpParser</text>
</g>
<g id="clust5" class="cluster">
<title>cluster_4</title>
<polygon fill="transparent" stroke="black" points="2669,-921 2669,-1073 2828,-1073 2828,-921 2669,-921"/>
<text text-anchor="middle" x="2748.5" y="-1057.8" font-family="Times,serif" font-size="14.00">0</text>
</g>
<g id="clust6" class="cluster">
<title>cluster_5</title>
<polygon fill="Bisque" stroke="black" points="1253,-8 1253,-367 2183,-367 2183,-8 1253,-8"/>
<text text-anchor="middle" x="1718" y="-351.8" font-family="Times,serif" font-size="14.00">Bartlett\CompatInfo\Application\PhpParser\NodeVisitor</text>
</g>
<g id="clust7" class="cluster">
<title>cluster_6</title>
<polygon fill="transparent" stroke="black" points="1824,-375 1824,-604 2206,-604 2206,-375 1824,-375"/>
<text text-anchor="middle" x="2015" y="-588.8" font-family="Times,serif" font-size="14.00">PhpParser\NodeVisitor</text>
</g>
<g id="clust8" class="cluster">
<title>cluster_7</title>
<polygon fill="BurlyWood" stroke="black" points="8,-962 8,-1061 1233,-1061 1233,-962 8,-962"/>
<text text-anchor="middle" x="620.5" y="-1045.8" font-family="Times,serif" font-size="14.00">Bartlett\CompatInfo\Application\PhpParser</text>
</g>
<!-- Bartlett\\CompatInfo\\Application\\PhpParser\\Node\\Name\\ClassFullyQualified -->
<g id="node1" class="node">
<title>Bartlett\\CompatInfo\\Application\\PhpParser\\Node\\Name\\ClassFullyQualified</title>
<polygon fill="#fefece" stroke="transparent" points="667.5,-899.5 573.5,-899.5 573.5,-852.5 667.5,-852.5 667.5,-899.5"/>
<polygon fill="#eeeeee" stroke="transparent" points="573.5,-877 573.5,-899 667.5,-899 667.5,-877 573.5,-877"/>
<polygon fill="none" stroke="black" points="573.5,-877 573.5,-899 667.5,-899 667.5,-877 573.5,-877"/>
<text text-anchor="start" x="576.5" y="-882.6" font-family="Verdana" font-weight="bold" font-size="8.00">ClassFullyQualified</text>
<polygon fill="none" stroke="black" points="573.5,-871 573.5,-877 667.5,-877 667.5,-871 573.5,-871"/>
<polygon fill="none" stroke="black" points="573.5,-852 573.5,-871 667.5,-871 667.5,-852 573.5,-852"/>
<text text-anchor="start" x="578.5" y="-859.6" font-family="Verdana" font-size="8.00">+ getType() : string</text>
</g>
<!-- PhpParser\\Node\\Name\\FullyQualified -->
<g id="node3" class="node">
<title>PhpParser\\Node\\Name\\FullyQualified</title>
<polygon fill="#fefece" stroke="transparent" points="1585,-921 1472,-921 1472,-809 1585,-809 1585,-921"/>
<polygon fill="#eeeeee" stroke="transparent" points="1472.5,-899 1472.5,-921 1585.5,-921 1585.5,-899 1472.5,-899"/>
<polygon fill="none" stroke="black" points="1472.5,-899 1472.5,-921 1585.5,-921 1585.5,-899 1472.5,-899"/>
<text text-anchor="start" x="1497" y="-904.6" font-family="Verdana" font-weight="bold" font-size="8.00">FullyQualified</text>
<polygon fill="none" stroke="black" points="1472.5,-893 1472.5,-899 1585.5,-899 1585.5,-893 1472.5,-893"/>
<polygon fill="none" stroke="black" points="1472.5,-809 1472.5,-893 1585.5,-893 1585.5,-809 1472.5,-809"/>
<text text-anchor="start" x="1477.5" y="-881.6" font-family="Verdana" font-size="8.00">+ isUnqualified() : bool</text>
<text text-anchor="start" x="1477.5" y="-868.6" font-family="Verdana" font-size="8.00">+ isQualified() : bool</text>
<text text-anchor="start" x="1477.5" y="-855.6" font-family="Verdana" font-size="8.00">+ isFullyQualified() : bool</text>
<text text-anchor="start" x="1477.5" y="-842.6" font-family="Verdana" font-size="8.00">+ isRelative() : bool</text>
<text text-anchor="start" x="1477.5" y="-829.6" font-family="Verdana" font-size="8.00">+ toCodeString() : string</text>
<text text-anchor="start" x="1477.5" y="-816.6" font-family="Verdana" font-size="8.00">+ getType() : string</text>
</g>
<!-- Bartlett\\CompatInfo\\Application\\PhpParser\\Node\\Name\\ClassFullyQualified&#45;&gt;PhpParser\\Node\\Name\\FullyQualified -->
<g id="edge6" class="edge">
<title>Bartlett\\CompatInfo\\Application\\PhpParser\\Node\\Name\\ClassFullyQualified&#45;&gt;PhpParser\\Node\\Name\\FullyQualified</title>
<path fill="none" stroke="black" d="M667.67,-875.44C817.05,-873.63 1287.56,-867.91 1461.78,-865.8"/>
<polygon fill="none" stroke="black" points="1461.87,-869.3 1471.83,-865.68 1461.79,-862.3 1461.87,-869.3"/>
</g>
<!-- Bartlett\\CompatInfo\\Application\\PhpParser\\Node\\Name\\InterfaceFullyQualified -->
<g id="node2" class="node">
<title>Bartlett\\CompatInfo\\Application\\PhpParser\\Node\\Name\\InterfaceFullyQualified</title>
<polygon fill="#fefece" stroke="transparent" points="676,-834.5 565,-834.5 565,-787.5 676,-787.5 676,-834.5"/>
<polygon fill="#eeeeee" stroke="transparent" points="565.5,-812 565.5,-834 676.5,-834 676.5,-812 565.5,-812"/>
<polygon fill="none" stroke="black" points="565.5,-812 565.5,-834 676.5,-834 676.5,-812 565.5,-812"/>
<text text-anchor="start" x="568.5" y="-817.6" font-family="Verdana" font-weight="bold" font-size="8.00">InterfaceFullyQualified</text>
<polygon fill="none" stroke="black" points="565.5,-806 565.5,-812 676.5,-812 676.5,-806 565.5,-806"/>
<polygon fill="none" stroke="black" points="565.5,-787 565.5,-806 676.5,-806 676.5,-787 565.5,-787"/>
<text text-anchor="start" x="570.5" y="-794.6" font-family="Verdana" font-size="8.00">+ getType() : string</text>
</g>
<!-- Bartlett\\CompatInfo\\Application\\PhpParser\\Node\\Name\\InterfaceFullyQualified&#45;&gt;PhpParser\\Node\\Name\\FullyQualified -->
<g id="edge7" class="edge">
<title>Bartlett\\CompatInfo\\Application\\PhpParser\\Node\\Name\\InterfaceFullyQualified&#45;&gt;PhpParser\\Node\\Name\\FullyQualified</title>
<path fill="none" stroke="black" d="M676.33,-813.64C783.38,-818.87 1027.68,-831.14 1233,-844 1311.71,-848.93 1402.18,-855.52 1461.84,-859.99"/>
<polygon fill="none" stroke="black" points="1461.65,-863.49 1471.88,-860.75 1462.17,-856.51 1461.65,-863.49"/>
</g>
<!-- PhpParser\\Node\\Name -->
<g id="node4" class="node">
<title>PhpParser\\Node\\Name</title>
<polygon fill="#fefece" stroke="transparent" points="2167.5,-999 1862.5,-999 1862.5,-731 2167.5,-731 2167.5,-999"/>
<polygon fill="#eeeeee" stroke="transparent" points="1863,-977 1863,-999 2168,-999 2168,-977 1863,-977"/>
<polygon fill="none" stroke="black" points="1863,-977 1863,-999 2168,-999 2168,-977 1863,-977"/>
<text text-anchor="start" x="2002.5" y="-982.6" font-family="Verdana" font-weight="bold" font-size="8.00">Name</text>
<polygon fill="none" stroke="black" points="1863,-958 1863,-977 2168,-977 2168,-958 1863,-958"/>
<text text-anchor="start" x="1868" y="-965.6" font-family="Verdana" font-size="8.00">+ name : string</text>
<polygon fill="none" stroke="black" points="1863,-731 1863,-958 2168,-958 2168,-731 1863,-731"/>
<text text-anchor="start" x="1868" y="-946.6" font-family="Verdana" font-size="8.00">+ __construct(name : mixed, attributes : array = [])</text>
<text text-anchor="start" x="1868" y="-933.6" font-family="Verdana" font-size="8.00">+ getSubNodeNames() : array</text>
<text text-anchor="start" x="1868" y="-920.6" font-family="Verdana" font-size="8.00">+ getParts() : array</text>
<text text-anchor="start" x="1868" y="-907.6" font-family="Verdana" font-size="8.00">+ getFirst() : string</text>
<text text-anchor="start" x="1868" y="-894.6" font-family="Verdana" font-size="8.00">+ getLast() : string</text>
<text text-anchor="start" x="1868" y="-881.6" font-family="Verdana" font-size="8.00">+ isUnqualified() : bool</text>
<text text-anchor="start" x="1868" y="-868.6" font-family="Verdana" font-size="8.00">+ isQualified() : bool</text>
<text text-anchor="start" x="1868" y="-855.6" font-family="Verdana" font-size="8.00">+ isFullyQualified() : bool</text>
<text text-anchor="start" x="1868" y="-842.6" font-family="Verdana" font-size="8.00">+ isRelative() : bool</text>
<text text-anchor="start" x="1868" y="-829.6" font-family="Verdana" font-size="8.00">+ toString() : string</text>
<text text-anchor="start" x="1868" y="-816.6" font-family="Verdana" font-size="8.00">+ toCodeString() : string</text>
<text text-anchor="start" x="1868" y="-803.6" font-family="Verdana" font-size="8.00">+ toLowerString() : string</text>
<text text-anchor="start" x="1868" y="-790.6" font-family="Verdana" font-size="8.00">+ isSpecialClassName() : bool</text>
<text text-anchor="start" x="1868" y="-777.6" font-family="Verdana" font-size="8.00">+ __toString() : string</text>
<text text-anchor="start" x="1868" y="-764.6" font-family="Verdana" font-size="8.00">+ slice(offset : int, length : int = «unknown»)</text>
<text text-anchor="start" x="1868" y="-751.6" font-family="Verdana" font-size="8.00">+ «static» concat(name1 : mixed, name2 : mixed, attributes : array = [])</text>
<text text-anchor="start" x="1868" y="-738.6" font-family="Verdana" font-size="8.00">+ getType() : string</text>
</g>
<!-- PhpParser\\Node\\Name\\FullyQualified&#45;&gt;PhpParser\\Node\\Name -->
<g id="edge5" class="edge">
<title>PhpParser\\Node\\Name\\FullyQualified&#45;&gt;PhpParser\\Node\\Name</title>
<path fill="none" stroke="black" d="M1585.08,-865C1649.89,-865 1759.93,-865 1852.33,-865"/>
<polygon fill="none" stroke="black" points="1852.35,-868.5 1862.35,-865 1852.35,-861.5 1852.35,-868.5"/>
</g>
<!-- PhpParser\\NodeAbstract -->
<g id="node5" class="node">
<title>PhpParser\\NodeAbstract</title>
<polygon fill="#fefece" stroke="transparent" points="2532,-881.5 2251,-881.5 2251,-626.5 2532,-626.5 2532,-881.5"/>
<polygon fill="#eeeeee" stroke="transparent" points="2251.5,-859 2251.5,-881 2532.5,-881 2532.5,-859 2251.5,-859"/>
<polygon fill="none" stroke="black" points="2251.5,-859 2251.5,-881 2532.5,-881 2532.5,-859 2251.5,-859"/>
<text text-anchor="start" x="2368" y="-872.6" font-family="Verdana" font-weight="bold" font-size="8.00">«abstract»</text>
<text text-anchor="start" x="2361.5" y="-864.6" font-family="Verdana" font-weight="bold" font-size="8.00">NodeAbstract</text>
<polygon fill="none" stroke="black" points="2251.5,-853 2251.5,-859 2532.5,-859 2532.5,-853 2251.5,-853"/>
<polygon fill="none" stroke="black" points="2251.5,-626 2251.5,-853 2532.5,-853 2532.5,-626 2251.5,-626"/>
<text text-anchor="start" x="2256.5" y="-841.6" font-family="Verdana" font-size="8.00">+ __construct(attributes : array = [])</text>
<text text-anchor="start" x="2256.5" y="-828.6" font-family="Verdana" font-size="8.00">+ getLine() : int</text>
<text text-anchor="start" x="2256.5" y="-815.6" font-family="Verdana" font-size="8.00">+ getStartLine() : int</text>
<text text-anchor="start" x="2256.5" y="-802.6" font-family="Verdana" font-size="8.00">+ getEndLine() : int</text>
<text text-anchor="start" x="2256.5" y="-789.6" font-family="Verdana" font-size="8.00">+ getStartTokenPos() : int</text>
<text text-anchor="start" x="2256.5" y="-776.6" font-family="Verdana" font-size="8.00">+ getEndTokenPos() : int</text>
<text text-anchor="start" x="2256.5" y="-763.6" font-family="Verdana" font-size="8.00">+ getStartFilePos() : int</text>
<text text-anchor="start" x="2256.5" y="-750.6" font-family="Verdana" font-size="8.00">+ getEndFilePos() : int</text>
<text text-anchor="start" x="2256.5" y="-737.6" font-family="Verdana" font-size="8.00">+ getComments() : array</text>
<text text-anchor="start" x="2256.5" y="-724.6" font-family="Verdana" font-size="8.00">+ getDocComment() : ?PhpParser\Comment\Doc</text>
<text text-anchor="start" x="2256.5" y="-711.6" font-family="Verdana" font-size="8.00">+ setDocComment(docComment : PhpParser\Comment\Doc) : void</text>
<text text-anchor="start" x="2256.5" y="-698.6" font-family="Verdana" font-size="8.00">+ setAttribute(key : string, value) : void</text>
<text text-anchor="start" x="2256.5" y="-685.6" font-family="Verdana" font-size="8.00">+ hasAttribute(key : string) : bool</text>
<text text-anchor="start" x="2256.5" y="-672.6" font-family="Verdana" font-size="8.00">+ getAttribute(key : string, default = «unknown»)</text>
<text text-anchor="start" x="2256.5" y="-659.6" font-family="Verdana" font-size="8.00">+ getAttributes() : array</text>
<text text-anchor="start" x="2256.5" y="-646.6" font-family="Verdana" font-size="8.00">+ setAttributes(attributes : array) : void</text>
<text text-anchor="start" x="2256.5" y="-633.6" font-family="Verdana" font-size="8.00">+ jsonSerialize() : array</text>
</g>
<!-- PhpParser\\Node\\Name&#45;&gt;PhpParser\\NodeAbstract -->
<g id="edge3" class="edge">
<title>PhpParser\\Node\\Name&#45;&gt;PhpParser\\NodeAbstract</title>
<path fill="none" stroke="black" d="M2167.51,-820.09C2191.87,-812.87 2217.07,-805.4 2241.37,-798.2"/>
<polygon fill="none" stroke="black" points="2242.4,-801.55 2251,-795.35 2240.41,-794.83 2242.4,-801.55"/>
</g>
<!-- Stringable -->
<g id="node10" class="node">
<title>Stringable</title>
<polygon fill="#fefece" stroke="transparent" points="2820,-1041.5 2677,-1041.5 2677,-994.5 2820,-994.5 2820,-1041.5"/>
<polygon fill="#eeeeee" stroke="transparent" points="2677.5,-1019 2677.5,-1041 2820.5,-1041 2820.5,-1019 2677.5,-1019"/>
<polygon fill="none" stroke="black" points="2677.5,-1019 2677.5,-1041 2820.5,-1041 2820.5,-1019 2677.5,-1019"/>
<text text-anchor="start" x="2723" y="-1032.6" font-family="Verdana" font-weight="bold" font-size="8.00">«interface»</text>
<text text-anchor="start" x="2724.5" y="-1024.6" font-family="Verdana" font-weight="bold" font-size="8.00">Stringable</text>
<polygon fill="none" stroke="black" points="2677.5,-1013 2677.5,-1019 2820.5,-1019 2820.5,-1013 2677.5,-1013"/>
<polygon fill="none" stroke="black" points="2677.5,-994 2677.5,-1013 2820.5,-1013 2820.5,-994 2677.5,-994"/>
<text text-anchor="start" x="2682.5" y="-1001.6" font-family="Verdana" font-size="8.00">+ «abstract» __toString() : string</text>
</g>
<!-- PhpParser\\Node\\Name&#45;&gt;Stringable -->
<g id="edge4" class="edge">
<title>PhpParser\\Node\\Name&#45;&gt;Stringable</title>
<path fill="none" stroke="black" stroke-dasharray="5,2" d="M2167.76,-903.56C2187.32,-908.24 2207.11,-912.84 2226,-917 2381.35,-951.25 2564.14,-985.21 2666.84,-1003.71"/>
<polygon fill="none" stroke="black" points="2666.37,-1007.18 2676.83,-1005.5 2667.61,-1000.29 2666.37,-1007.18"/>
</g>
<!-- PhpParser\\Node -->
<g id="node6" class="node">
<title>PhpParser\\Node</title>
<polygon fill="#fefece" stroke="transparent" points="2912,-881.5 2585,-881.5 2585,-626.5 2912,-626.5 2912,-881.5"/>
<polygon fill="#eeeeee" stroke="transparent" points="2585.5,-859 2585.5,-881 2912.5,-881 2912.5,-859 2585.5,-859"/>
<polygon fill="none" stroke="black" points="2585.5,-859 2585.5,-881 2912.5,-881 2912.5,-859 2585.5,-859"/>
<text text-anchor="start" x="2723" y="-872.6" font-family="Verdana" font-weight="bold" font-size="8.00">«interface»</text>
<text text-anchor="start" x="2737" y="-864.6" font-family="Verdana" font-weight="bold" font-size="8.00">Node</text>
<polygon fill="none" stroke="black" points="2585.5,-853 2585.5,-859 2912.5,-859 2912.5,-853 2585.5,-853"/>
<polygon fill="none" stroke="black" points="2585.5,-626 2585.5,-853 2912.5,-853 2912.5,-626 2585.5,-626"/>
<text text-anchor="start" x="2590.5" y="-841.6" font-family="Verdana" font-size="8.00">+ «abstract» getType() : string</text>
<text text-anchor="start" x="2590.5" y="-828.6" font-family="Verdana" font-size="8.00">+ «abstract» getSubNodeNames() : array</text>
<text text-anchor="start" x="2590.5" y="-815.6" font-family="Verdana" font-size="8.00">+ «abstract» getLine() : int</text>
<text text-anchor="start" x="2590.5" y="-802.6" font-family="Verdana" font-size="8.00">+ «abstract» getStartLine() : int</text>
<text text-anchor="start" x="2590.5" y="-789.6" font-family="Verdana" font-size="8.00">+ «abstract» getEndLine() : int</text>
<text text-anchor="start" x="2590.5" y="-776.6" font-family="Verdana" font-size="8.00">+ «abstract» getStartTokenPos() : int</text>
<text text-anchor="start" x="2590.5" y="-763.6" font-family="Verdana" font-size="8.00">+ «abstract» getEndTokenPos() : int</text>
<text text-anchor="start" x="2590.5" y="-750.6" font-family="Verdana" font-size="8.00">+ «abstract» getStartFilePos() : int</text>
<text text-anchor="start" x="2590.5" y="-737.6" font-family="Verdana" font-size="8.00">+ «abstract» getEndFilePos() : int</text>
<text text-anchor="start" x="2590.5" y="-724.6" font-family="Verdana" font-size="8.00">+ «abstract» getComments() : array</text>
<text text-anchor="start" x="2590.5" y="-711.6" font-family="Verdana" font-size="8.00">+ «abstract» getDocComment() : ?PhpParser\Comment\Doc</text>
<text text-anchor="start" x="2590.5" y="-698.6" font-family="Verdana" font-size="8.00">+ «abstract» setDocComment(docComment : PhpParser\Comment\Doc) : void</text>
<text text-anchor="start" x="2590.5" y="-685.6" font-family="Verdana" font-size="8.00">+ «abstract» setAttribute(key : string, value) : void</text>
<text text-anchor="start" x="2590.5" y="-672.6" font-family="Verdana" font-size="8.00">+ «abstract» hasAttribute(key : string) : bool</text>
<text text-anchor="start" x="2590.5" y="-659.6" font-family="Verdana" font-size="8.00">+ «abstract» getAttribute(key : string, default = «unknown»)</text>
<text text-anchor="start" x="2590.5" y="-646.6" font-family="Verdana" font-size="8.00">+ «abstract» getAttributes() : array</text>
<text text-anchor="start" x="2590.5" y="-633.6" font-family="Verdana" font-size="8.00">+ «abstract» setAttributes(attributes : array) : void</text>
</g>
<!-- PhpParser\\NodeAbstract&#45;&gt;PhpParser\\Node -->
<g id="edge1" class="edge">
<title>PhpParser\\NodeAbstract&#45;&gt;PhpParser\\Node</title>
<path fill="none" stroke="black" stroke-dasharray="5,2" d="M2532.04,-754C2546.02,-754 2560.33,-754 2574.61,-754"/>
<polygon fill="none" stroke="black" points="2574.99,-757.5 2584.99,-754 2574.99,-750.5 2574.99,-757.5"/>
</g>
<!-- JsonSerializable -->
<g id="node9" class="node">
<title>JsonSerializable</title>
<polygon fill="#fefece" stroke="transparent" points="2811,-976.5 2686,-976.5 2686,-929.5 2811,-929.5 2811,-976.5"/>
<polygon fill="#eeeeee" stroke="transparent" points="2686.5,-954 2686.5,-976 2811.5,-976 2811.5,-954 2686.5,-954"/>
<polygon fill="none" stroke="black" points="2686.5,-954 2686.5,-976 2811.5,-976 2811.5,-954 2686.5,-954"/>
<text text-anchor="start" x="2723" y="-967.6" font-family="Verdana" font-weight="bold" font-size="8.00">«interface»</text>
<text text-anchor="start" x="2712.5" y="-959.6" font-family="Verdana" font-weight="bold" font-size="8.00">JsonSerializable</text>
<polygon fill="none" stroke="black" points="2686.5,-948 2686.5,-954 2811.5,-954 2811.5,-948 2686.5,-948"/>
<polygon fill="none" stroke="black" points="2686.5,-929 2686.5,-948 2811.5,-948 2811.5,-929 2686.5,-929"/>
<text text-anchor="start" x="2691.5" y="-936.6" font-family="Verdana" font-size="8.00">+ «abstract» jsonSerialize()</text>
</g>
<!-- PhpParser\\NodeAbstract&#45;&gt;JsonSerializable -->
<g id="edge2" class="edge">
<title>PhpParser\\NodeAbstract&#45;&gt;JsonSerializable</title>
<path fill="none" stroke="black" stroke-dasharray="5,2" d="M2527.46,-881.68C2545.89,-895.01 2565.29,-907.22 2585,-917 2613.02,-930.89 2646.4,-939.47 2675.59,-944.75"/>
<polygon fill="none" stroke="black" points="2675.28,-948.25 2685.72,-946.48 2676.46,-941.35 2675.28,-948.25"/>
</g>
<!-- PhpParser\\NodeVisitorAbstract -->
<g id="node7" class="node">
<title>PhpParser\\NodeVisitorAbstract</title>
<polygon fill="#fefece" stroke="transparent" points="2549,-608.5 2234,-608.5 2234,-451.5 2549,-451.5 2549,-608.5"/>
<polygon fill="#eeeeee" stroke="transparent" points="2234.5,-586 2234.5,-608 2549.5,-608 2549.5,-586 2234.5,-586"/>
<polygon fill="none" stroke="black" points="2234.5,-586 2234.5,-608 2549.5,-608 2549.5,-586 2234.5,-586"/>
<text text-anchor="start" x="2368" y="-599.6" font-family="Verdana" font-weight="bold" font-size="8.00">«abstract»</text>
<text text-anchor="start" x="2346.5" y="-591.6" font-family="Verdana" font-weight="bold" font-size="8.00">NodeVisitorAbstract</text>
<polygon fill="none" stroke="black" points="2234.5,-515 2234.5,-586 2549.5,-586 2549.5,-515 2234.5,-515"/>
<text text-anchor="start" x="2239.5" y="-574.6" font-family="Verdana" font-size="8.00">+ «static» DONT_TRAVERSE_CHILDREN : int = 1 {readOnly}</text>
<text text-anchor="start" x="2239.5" y="-561.6" font-family="Verdana" font-size="8.00">+ «static» STOP_TRAVERSAL : int = 2 {readOnly}</text>
<text text-anchor="start" x="2239.5" y="-548.6" font-family="Verdana" font-size="8.00">+ «static» REMOVE_NODE : int = 3 {readOnly}</text>
<text text-anchor="start" x="2239.5" y="-535.6" font-family="Verdana" font-size="8.00">+ «static» DONT_TRAVERSE_CURRENT_AND_CHILDREN : int = 4 {readOnly}</text>
<text text-anchor="start" x="2239.5" y="-522.6" font-family="Verdana" font-size="8.00">+ «static» REPLACE_WITH_NULL : int = 5 {readOnly}</text>
<polygon fill="none" stroke="black" points="2234.5,-509 2234.5,-515 2549.5,-515 2549.5,-509 2234.5,-509"/>
<polygon fill="none" stroke="black" points="2234.5,-451 2234.5,-509 2549.5,-509 2549.5,-451 2234.5,-451"/>
<text text-anchor="start" x="2239.5" y="-497.6" font-family="Verdana" font-size="8.00">+ beforeTraverse(nodes : array)</text>
<text text-anchor="start" x="2239.5" y="-484.6" font-family="Verdana" font-size="8.00">+ enterNode(node : PhpParser\Node)</text>
<text text-anchor="start" x="2239.5" y="-471.6" font-family="Verdana" font-size="8.00">+ leaveNode(node : PhpParser\Node)</text>
<text text-anchor="start" x="2239.5" y="-458.6" font-family="Verdana" font-size="8.00">+ afterTraverse(nodes : array)</text>
</g>
<!-- PhpParser\\NodeVisitor -->
<g id="node8" class="node">
<title>PhpParser\\NodeVisitor</title>
<polygon fill="#fefece" stroke="transparent" points="2906,-608.5 2591,-608.5 2591,-451.5 2906,-451.5 2906,-608.5"/>
<polygon fill="#eeeeee" stroke="transparent" points="2591.5,-586 2591.5,-608 2906.5,-608 2906.5,-586 2591.5,-586"/>
<polygon fill="none" stroke="black" points="2591.5,-586 2591.5,-608 2906.5,-608 2906.5,-586 2591.5,-586"/>
<text text-anchor="start" x="2723" y="-599.6" font-family="Verdana" font-weight="bold" font-size="8.00">«interface»</text>
<text text-anchor="start" x="2722.5" y="-591.6" font-family="Verdana" font-weight="bold" font-size="8.00">NodeVisitor</text>
<polygon fill="none" stroke="black" points="2591.5,-515 2591.5,-586 2906.5,-586 2906.5,-515 2591.5,-515"/>
<text text-anchor="start" x="2596.5" y="-574.6" font-family="Verdana" font-size="8.00">+ «static» DONT_TRAVERSE_CHILDREN : int = 1 {readOnly}</text>
<text text-anchor="start" x="2596.5" y="-561.6" font-family="Verdana" font-size="8.00">+ «static» STOP_TRAVERSAL : int = 2 {readOnly}</text>
<text text-anchor="start" x="2596.5" y="-548.6" font-family="Verdana" font-size="8.00">+ «static» REMOVE_NODE : int = 3 {readOnly}</text>
<text text-anchor="start" x="2596.5" y="-535.6" font-family="Verdana" font-size="8.00">+ «static» DONT_TRAVERSE_CURRENT_AND_CHILDREN : int = 4 {readOnly}</text>
<text text-anchor="start" x="2596.5" y="-522.6" font-family="Verdana" font-size="8.00">+ «static» REPLACE_WITH_NULL : int = 5 {readOnly}</text>
<polygon fill="none" stroke="black" points="2591.5,-509 2591.5,-515 2906.5,-515 2906.5,-509 2591.5,-509"/>
<polygon fill="none" stroke="black" points="2591.5,-451 2591.5,-509 2906.5,-509 2906.5,-451 2591.5,-451"/>
<text text-anchor="start" x="2596.5" y="-497.6" font-family="Verdana" font-size="8.00">+ «abstract» beforeTraverse(nodes : array)</text>
<text text-anchor="start" x="2596.5" y="-484.6" font-family="Verdana" font-size="8.00">+ «abstract» enterNode(node : PhpParser\Node)</text>
<text text-anchor="start" x="2596.5" y="-471.6" font-family="Verdana" font-size="8.00">+ «abstract» leaveNode(node : PhpParser\Node)</text>
<text text-anchor="start" x="2596.5" y="-458.6" font-family="Verdana" font-size="8.00">+ «abstract» afterTraverse(nodes : array)</text>
</g>
<!-- PhpParser\\NodeVisitorAbstract&#45;&gt;PhpParser\\NodeVisitor -->
<g id="edge8" class="edge">
<title>PhpParser\\NodeVisitorAbstract&#45;&gt;PhpParser\\NodeVisitor</title>
<path fill="none" stroke="black" stroke-dasharray="5,2" d="M2549.24,-530C2559.73,-530 2570.31,-530 2580.85,-530"/>
<polygon fill="none" stroke="black" points="2580.92,-533.5 2590.92,-530 2580.92,-526.5 2580.92,-533.5"/>
</g>
<!-- Bartlett\\CompatInfo\\Application\\PhpParser\\NodeVisitor\\FilterVisitor -->
<g id="node11" class="node">
<title>Bartlett\\CompatInfo\\Application\\PhpParser\\NodeVisitor\\FilterVisitor</title>
<polygon fill="#fefece" stroke="transparent" points="1759,-76 1298,-76 1298,-16 1759,-16 1759,-76"/>
<polygon fill="#eeeeee" stroke="transparent" points="1298.5,-54 1298.5,-76 1759.5,-76 1759.5,-54 1298.5,-54"/>
<polygon fill="none" stroke="black" points="1298.5,-54 1298.5,-76 1759.5,-76 1759.5,-54 1298.5,-54"/>
<text text-anchor="start" x="1502" y="-59.6" font-family="Verdana" font-weight="bold" font-size="8.00">FilterVisitor</text>
<polygon fill="none" stroke="black" points="1298.5,-48 1298.5,-54 1759.5,-54 1759.5,-48 1298.5,-48"/>
<polygon fill="none" stroke="black" points="1298.5,-16 1298.5,-48 1759.5,-48 1759.5,-16 1298.5,-16"/>
<text text-anchor="start" x="1303.5" y="-36.6" font-family="Verdana" font-size="8.00">+ __construct(normalizer : Symfony\Component\Serializer\Normalizer\NormalizerInterface, context : array = [])</text>
<text text-anchor="start" x="1303.5" y="-23.6" font-family="Verdana" font-size="8.00">+ getCollection() : Doctrine\Common\Collections\ArrayCollection</text>
</g>
<!-- Bartlett\\CompatInfo\\Application\\PhpParser\\NodeVisitor\\NodeVisitor -->
<g id="node12" class="node">
<title>Bartlett\\CompatInfo\\Application\\PhpParser\\NodeVisitor\\NodeVisitor</title>
<polygon fill="#fefece" stroke="transparent" points="2175,-235 1855,-235 1855,-117 2175,-117 2175,-235"/>
<polygon fill="#eeeeee" stroke="transparent" points="1855,-213 1855,-235 2175,-235 2175,-213 1855,-213"/>
<polygon fill="none" stroke="black" points="1855,-213 1855,-235 2175,-235 2175,-213 1855,-213"/>
<text text-anchor="start" x="1989" y="-226.6" font-family="Verdana" font-weight="bold" font-size="8.00">«interface»</text>
<text text-anchor="start" x="1988.5" y="-218.6" font-family="Verdana" font-weight="bold" font-size="8.00">NodeVisitor</text>
<polygon fill="none" stroke="black" points="1855,-142 1855,-213 2175,-213 2175,-142 1855,-142"/>
<text text-anchor="start" x="1860" y="-201.6" font-family="Verdana" font-size="8.00">+ «static» DONT_TRAVERSE_CHILDREN : int = 1 {readOnly}</text>
<text text-anchor="start" x="1860" y="-188.6" font-family="Verdana" font-size="8.00">+ «static» STOP_TRAVERSAL : int = 2 {readOnly}</text>
<text text-anchor="start" x="1860" y="-175.6" font-family="Verdana" font-size="8.00">+ «static» REMOVE_NODE : int = 3 {readOnly}</text>
<text text-anchor="start" x="1860" y="-162.6" font-family="Verdana" font-size="8.00">+ «static» DONT_TRAVERSE_CURRENT_AND_CHILDREN : int = 4 {readOnly}</text>
<text text-anchor="start" x="1860" y="-149.6" font-family="Verdana" font-size="8.00">+ «static» REPLACE_WITH_NULL : int = 5 {readOnly}</text>
<polygon fill="none" stroke="black" points="1855,-136 1855,-142 2175,-142 2175,-136 1855,-136"/>
<polygon fill="none" stroke="black" points="1855,-117 1855,-136 2175,-136 2175,-117 1855,-117"/>
<text text-anchor="start" x="1860" y="-124.6" font-family="Verdana" font-size="8.00">+ «abstract» getCollection() : Doctrine\Common\Collections\ArrayCollection</text>
</g>
<!-- Bartlett\\CompatInfo\\Application\\PhpParser\\NodeVisitor\\FilterVisitor&#45;&gt;Bartlett\\CompatInfo\\Application\\PhpParser\\NodeVisitor\\NodeVisitor -->
<g id="edge12" class="edge">
<title>Bartlett\\CompatInfo\\Application\\PhpParser\\NodeVisitor\\FilterVisitor&#45;&gt;Bartlett\\CompatInfo\\Application\\PhpParser\\NodeVisitor\\NodeVisitor</title>
<path fill="none" stroke="black" stroke-dasharray="5,2" d="M1759.23,-75.85C1771.73,-78.65 1784.06,-81.69 1796,-85 1823.13,-92.52 1851.39,-102.55 1878.22,-113.21"/>
<polygon fill="none" stroke="black" points="1877.07,-116.51 1887.65,-117 1879.68,-110.02 1877.07,-116.51"/>
</g>
<!-- PhpParser\\NodeVisitor\\FindingVisitor -->
<g id="node16" class="node">
<title>PhpParser\\NodeVisitor\\FindingVisitor</title>
<polygon fill="#fefece" stroke="transparent" points="2102,-469 1928,-469 1928,-383 2102,-383 2102,-469"/>
<polygon fill="#eeeeee" stroke="transparent" points="1928,-447 1928,-469 2102,-469 2102,-447 1928,-447"/>
<polygon fill="none" stroke="black" points="1928,-447 1928,-469 2102,-469 2102,-447 1928,-447"/>
<text text-anchor="start" x="1982.5" y="-452.6" font-family="Verdana" font-weight="bold" font-size="8.00">FindingVisitor</text>
<polygon fill="none" stroke="black" points="1928,-441 1928,-447 2102,-447 2102,-441 1928,-441"/>
<polygon fill="none" stroke="black" points="1928,-383 1928,-441 2102,-441 2102,-383 1928,-383"/>
<text text-anchor="start" x="1933" y="-429.6" font-family="Verdana" font-size="8.00">+ __construct(filterCallback : callable)</text>
<text text-anchor="start" x="1933" y="-416.6" font-family="Verdana" font-size="8.00">+ getFoundNodes() : array</text>
<text text-anchor="start" x="1933" y="-403.6" font-family="Verdana" font-size="8.00">+ beforeTraverse(nodes : array) : ?array</text>
<text text-anchor="start" x="1933" y="-390.6" font-family="Verdana" font-size="8.00">+ enterNode(node : PhpParser\Node)</text>
</g>
<!-- Bartlett\\CompatInfo\\Application\\PhpParser\\NodeVisitor\\FilterVisitor&#45;&gt;PhpParser\\NodeVisitor\\FindingVisitor -->
<g id="edge10" class="edge">
<title>Bartlett\\CompatInfo\\Application\\PhpParser\\NodeVisitor\\FilterVisitor&#45;&gt;PhpParser\\NodeVisitor\\FindingVisitor</title>
<path fill="none" stroke="black" d="M1759.01,-57.48C1772.65,-64.62 1785.19,-73.66 1796,-85 1840.07,-131.22 1783.19,-321.88 1824,-371 1846.97,-398.65 1882.92,-412.88 1917.39,-420.05"/>
<polygon fill="none" stroke="black" points="1917.07,-423.55 1927.55,-421.97 1918.37,-416.67 1917.07,-423.55"/>
</g>
<!-- Bartlett\\CompatInfo\\Application\\PhpParser\\NodeVisitor\\NodeVisitor&#45;&gt;PhpParser\\NodeVisitor -->
<g id="edge11" class="edge">
<title>Bartlett\\CompatInfo\\Application\\PhpParser\\NodeVisitor\\NodeVisitor&#45;&gt;PhpParser\\NodeVisitor</title>
<path fill="none" stroke="black" stroke-dasharray="5,2" d="M2138.02,-235.05C2259.52,-293.85 2446.86,-384.51 2581.77,-449.8"/>
<polygon fill="none" stroke="black" points="2580.45,-453.05 2590.98,-454.25 2583.5,-446.75 2580.45,-453.05"/>
</g>
<!-- Bartlett\\CompatInfo\\Application\\PhpParser\\NodeVisitor\\NameResolverVisitor -->
<g id="node13" class="node">
<title>Bartlett\\CompatInfo\\Application\\PhpParser\\NodeVisitor\\NameResolverVisitor</title>
<polygon fill="#fefece" stroke="transparent" points="1711.5,-154 1345.5,-154 1345.5,-94 1711.5,-94 1711.5,-154"/>
<polygon fill="#eeeeee" stroke="transparent" points="1345.5,-132 1345.5,-154 1711.5,-154 1711.5,-132 1345.5,-132"/>
<polygon fill="none" stroke="black" points="1345.5,-132 1345.5,-154 1711.5,-154 1711.5,-132 1345.5,-132"/>
<text text-anchor="start" x="1481.5" y="-137.6" font-family="Verdana" font-weight="bold" font-size="8.00">NameResolverVisitor</text>
<polygon fill="none" stroke="black" points="1345.5,-126 1345.5,-132 1711.5,-132 1711.5,-126 1345.5,-126"/>
<polygon fill="none" stroke="black" points="1345.5,-94 1345.5,-126 1711.5,-126 1711.5,-94 1345.5,-94"/>
<text text-anchor="start" x="1350.5" y="-114.6" font-family="Verdana" font-size="8.00">+ __construct(errorHandler : PhpParser\ErrorHandler = «unknown», options : array = [])</text>
<text text-anchor="start" x="1350.5" y="-101.6" font-family="Verdana" font-size="8.00">+ enterNode(node : PhpParser\Node)</text>
</g>
<!-- PhpParser\\NodeVisitor\\NameResolver -->
<g id="node17" class="node">
<title>PhpParser\\NodeVisitor\\NameResolver</title>
<polygon fill="#fefece" stroke="transparent" points="2198,-573 1832,-573 1832,-487 2198,-487 2198,-573"/>
<polygon fill="#eeeeee" stroke="transparent" points="1832,-551 1832,-573 2198,-573 2198,-551 1832,-551"/>
<polygon fill="none" stroke="black" points="1832,-551 1832,-573 2198,-573 2198,-551 1832,-551"/>
<text text-anchor="start" x="1983" y="-556.6" font-family="Verdana" font-weight="bold" font-size="8.00">NameResolver</text>
<polygon fill="none" stroke="black" points="1832,-545 1832,-551 2198,-551 2198,-545 1832,-545"/>
<polygon fill="none" stroke="black" points="1832,-487 1832,-545 2198,-545 2198,-487 1832,-487"/>
<text text-anchor="start" x="1837" y="-533.6" font-family="Verdana" font-size="8.00">+ __construct(errorHandler : PhpParser\ErrorHandler = «unknown», options : array = [])</text>
<text text-anchor="start" x="1837" y="-520.6" font-family="Verdana" font-size="8.00">+ getNameContext() : PhpParser\NameContext</text>
<text text-anchor="start" x="1837" y="-507.6" font-family="Verdana" font-size="8.00">+ beforeTraverse(nodes : array) : ?array</text>
<text text-anchor="start" x="1837" y="-494.6" font-family="Verdana" font-size="8.00">+ enterNode(node : PhpParser\Node)</text>
</g>
<!-- Bartlett\\CompatInfo\\Application\\PhpParser\\NodeVisitor\\NameResolverVisitor&#45;&gt;PhpParser\\NodeVisitor\\NameResolver -->
<g id="edge14" class="edge">
<title>Bartlett\\CompatInfo\\Application\\PhpParser\\NodeVisitor\\NameResolverVisitor&#45;&gt;PhpParser\\NodeVisitor\\NameResolver</title>
<path fill="none" stroke="black" d="M1711.52,-118.17C1743.41,-125.51 1773.52,-139.21 1796,-163 1844.27,-214.08 1778.93,-424.08 1824,-478 1824.41,-478.49 1824.83,-478.98 1825.25,-479.46"/>
<polygon fill="none" stroke="black" points="1822.94,-482.12 1832.39,-486.91 1827.99,-477.27 1822.94,-482.12"/>
</g>
<!-- Bartlett\\CompatInfo\\Application\\PhpParser\\NodeVisitor\\ParentContextVisitor -->
<g id="node14" class="node">
<title>Bartlett\\CompatInfo\\Application\\PhpParser\\NodeVisitor\\ParentContextVisitor</title>
<polygon fill="#fefece" stroke="transparent" points="1615.5,-336 1441.5,-336 1441.5,-250 1615.5,-250 1615.5,-336"/>
<polygon fill="#eeeeee" stroke="transparent" points="1441.5,-314 1441.5,-336 1615.5,-336 1615.5,-314 1441.5,-314"/>
<polygon fill="none" stroke="black" points="1441.5,-314 1441.5,-336 1615.5,-336 1615.5,-314 1441.5,-314"/>
<text text-anchor="start" x="1481" y="-319.6" font-family="Verdana" font-weight="bold" font-size="8.00">ParentContextVisitor</text>
<polygon fill="none" stroke="black" points="1441.5,-308 1441.5,-314 1615.5,-314 1615.5,-308 1441.5,-308"/>
<polygon fill="none" stroke="black" points="1441.5,-250 1441.5,-308 1615.5,-308 1615.5,-250 1441.5,-250"/>
<text text-anchor="start" x="1446.5" y="-296.6" font-family="Verdana" font-size="8.00">+ __construct(options : array = [])</text>
<text text-anchor="start" x="1446.5" y="-283.6" font-family="Verdana" font-size="8.00">+ beforeTraverse(nodes : array) : ?array</text>
<text text-anchor="start" x="1446.5" y="-270.6" font-family="Verdana" font-size="8.00">+ enterNode(node : PhpParser\Node)</text>
<text text-anchor="start" x="1446.5" y="-257.6" font-family="Verdana" font-size="8.00">+ leaveNode(node : PhpParser\Node)</text>
</g>
<!-- Bartlett\\CompatInfo\\Application\\PhpParser\\NodeVisitor\\ParentContextVisitor&#45;&gt;PhpParser\\NodeVisitorAbstract -->
<g id="edge15" class="edge">
<title>Bartlett\\CompatInfo\\Application\\PhpParser\\NodeVisitor\\ParentContextVisitor&#45;&gt;PhpParser\\NodeVisitorAbstract</title>
<path fill="none" stroke="black" d="M1550.47,-336C1590.89,-413.29 1687.78,-573.42 1824,-636 1978.28,-706.88 2047.49,-696.83 2206,-636 2217.16,-631.72 2216.21,-624.87 2226,-618 2227.69,-616.81 2229.4,-615.63 2231.12,-614.46"/>
<polygon fill="none" stroke="black" points="2233.49,-617.08 2239.86,-608.62 2229.6,-611.26 2233.49,-617.08"/>
</g>
<!-- Bartlett\\CompatInfo\\Application\\PhpParser\\NodeVisitor\\VersionResolverVisitor -->
<g id="node15" class="node">
<title>Bartlett\\CompatInfo\\Application\\PhpParser\\NodeVisitor\\VersionResolverVisitor</title>
<polygon fill="#fefece" stroke="transparent" points="1796,-232 1261,-232 1261,-172 1796,-172 1796,-232"/>
<polygon fill="#eeeeee" stroke="transparent" points="1261.5,-210 1261.5,-232 1796.5,-232 1796.5,-210 1261.5,-210"/>
<polygon fill="none" stroke="black" points="1261.5,-210 1261.5,-232 1796.5,-232 1796.5,-210 1261.5,-210"/>
<text text-anchor="start" x="1478" y="-215.6" font-family="Verdana" font-weight="bold" font-size="8.00">VersionResolverVisitor</text>
<polygon fill="none" stroke="black" points="1261.5,-204 1261.5,-210 1796.5,-210 1796.5,-204 1261.5,-204"/>
<polygon fill="none" stroke="black" points="1261.5,-172 1261.5,-204 1796.5,-204 1796.5,-172 1261.5,-172"/>
<text text-anchor="start" x="1266.5" y="-192.6" font-family="Verdana" font-size="8.00">+ __construct(referenceCollection : Bartlett\CompatInfo\Application\Collection\ReferenceCollectionInterface, options : array = [])</text>
<text text-anchor="start" x="1266.5" y="-179.6" font-family="Verdana" font-size="8.00">+ enterNode(node : PhpParser\Node)</text>
</g>
<!-- Bartlett\\CompatInfo\\Application\\PhpParser\\NodeVisitor\\VersionResolverVisitor&#45;&gt;PhpParser\\NodeVisitorAbstract -->
<g id="edge16" class="edge">
<title>Bartlett\\CompatInfo\\Application\\PhpParser\\NodeVisitor\\VersionResolverVisitor&#45;&gt;PhpParser\\NodeVisitorAbstract</title>
<path fill="none" stroke="black" d="M1786.76,-232.04C1789.96,-234.85 1793.05,-237.84 1796,-241 1851.8,-300.8 1764,-552.41 1824,-608 1855.13,-636.85 2164.4,-616.43 2206,-608 2211.9,-606.81 2217.84,-605.42 2223.79,-603.86"/>
<polygon fill="none" stroke="black" points="2225.1,-607.13 2233.81,-601.1 2223.24,-600.38 2225.1,-607.13"/>
</g>
<!-- PhpParser\\NodeVisitor\\FindingVisitor&#45;&gt;PhpParser\\NodeVisitorAbstract -->
<g id="edge9" class="edge">
<title>PhpParser\\NodeVisitor\\FindingVisitor&#45;&gt;PhpParser\\NodeVisitorAbstract</title>
<path fill="none" stroke="black" d="M2102.11,-449.42C2134.67,-458.31 2172.06,-468.57 2206,-478 2211.75,-479.6 2217.6,-481.23 2223.51,-482.87"/>
<polygon fill="none" stroke="black" points="2222.93,-486.35 2233.5,-485.66 2224.81,-479.6 2222.93,-486.35"/>
</g>
<!-- PhpParser\\NodeVisitor\\NameResolver&#45;&gt;PhpParser\\NodeVisitorAbstract -->
<g id="edge13" class="edge">
<title>PhpParser\\NodeVisitor\\NameResolver&#45;&gt;PhpParser\\NodeVisitorAbstract</title>
<path fill="none" stroke="black" d="M2198.04,-530C2206.67,-530 2215.32,-530 2223.9,-530"/>
<polygon fill="none" stroke="black" points="2223.95,-533.5 2233.95,-530 2223.95,-526.5 2223.95,-533.5"/>
</g>
<!-- Bartlett\\CompatInfo\\Application\\PhpParser\\Parser -->
<g id="node18" class="node">
<title>Bartlett\\CompatInfo\\Application\\PhpParser\\Parser</title>
<polygon fill="#fefece" stroke="transparent" points="1225,-1030 16,-1030 16,-970 1225,-970 1225,-1030"/>
<polygon fill="#eeeeee" stroke="transparent" points="16.5,-1008 16.5,-1030 1225.5,-1030 1225.5,-1008 16.5,-1008"/>
<polygon fill="none" stroke="black" points="16.5,-1008 16.5,-1030 1225.5,-1030 1225.5,-1008 16.5,-1008"/>
<text text-anchor="start" x="606.5" y="-1013.6" font-family="Verdana" font-weight="bold" font-size="8.00">Parser</text>
<polygon fill="none" stroke="black" points="16.5,-1002 16.5,-1008 1225.5,-1008 1225.5,-1002 16.5,-1002"/>
<polygon fill="none" stroke="black" points="16.5,-970 16.5,-1002 1225.5,-1002 1225.5,-970 16.5,-970"/>
<text text-anchor="start" x="21.5" y="-990.6" font-family="Verdana" font-size="8.00">+ __construct(compatibilityEventDispatcher : Symfony\Component\EventDispatcher\EventDispatcherInterface, compatibilityAnalyser : Bartlett\CompatInfo\Application\Analyser\SniffAnalyserInterface, referenceCollection : Bartlett\CompatInfo\Application\Collection\ReferenceCollectionInterface)</text>
<text text-anchor="start" x="21.5" y="-977.6" font-family="Verdana" font-size="8.00">+ parse(source : string, finder : Symfony\Component\Finder\Finder, errorHandler : Bartlett\CompatInfo\Application\DataCollector\ErrorHandler, version : string) : Bartlett\CompatInfo\Application\Profiler\Profile</text>
</g>
</g>
</svg>
