<?xml version="1.0" encoding="UTF-8" standalone="no"?>
<!DOCTYPE svg PUBLIC "-//W3C//DTD SVG 1.1//EN"
 "http://www.w3.org/Graphics/SVG/1.1/DTD/svg11.dtd">
<!-- Generated by graphviz version 2.43.0 (0)
 -->
<!-- Title: %3 Pages: 1 -->
<svg width="1566pt" height="1347pt"
 viewBox="0.00 0.00 1566.00 1347.00" xmlns="http://www.w3.org/2000/svg" xmlns:xlink="http://www.w3.org/1999/xlink">
<g id="graph0" class="graph" transform="scale(1 1) rotate(0) translate(4 1343)">
<title>%3</title>
<g id="clust1" class="cluster">
<title>cluster_0</title>
<polygon fill="BurlyWood" stroke="black" points="308,-938 308,-1331 1550,-1331 1550,-938 308,-938"/>
<text text-anchor="middle" x="929" y="-1315.8" font-family="Times,serif" font-size="14.00">Bartlett\CompatInfo\Application\Collection</text>
</g>
<g id="clust2" class="cluster">
<title>cluster_1</title>
<polygon fill="transparent" stroke="black" points="8,-213 8,-1232 300,-1232 300,-213 8,-213"/>
<text text-anchor="middle" x="154" y="-1216.8" font-family="Times,serif" font-size="14.00">Doctrine\Common\Collections</text>
</g>
<g id="clust3" class="cluster">
<title>cluster_2</title>
<polygon fill="transparent" stroke="black" points="95,-8 95,-205 583,-205 583,-8 95,-8"/>
<text text-anchor="middle" x="339" y="-189.8" font-family="Times,serif" font-size="14.00">0</text>
</g>
<!-- Bartlett\\CompatInfo\\Application\\Collection\\ReferenceCollection -->
<g id="node1" class="node">
<title>Bartlett\\CompatInfo\\Application\\Collection\\ReferenceCollection</title>
<polygon fill="#fefece" stroke="transparent" points="1391.5,-1300 316.5,-1300 316.5,-1240 1391.5,-1240 1391.5,-1300"/>
<polygon fill="#eeeeee" stroke="transparent" points="317,-1278 317,-1300 1392,-1300 1392,-1278 317,-1278"/>
<polygon fill="none" stroke="black" points="317,-1278 317,-1300 1392,-1300 1392,-1278 317,-1278"/>
<text text-anchor="start" x="809" y="-1283.6" font-family="Verdana" font-weight="bold" font-size="8.00">ReferenceCollection</text>
<polygon fill="none" stroke="black" points="317,-1272 317,-1278 1392,-1278 1392,-1272 317,-1272"/>
<polygon fill="none" stroke="black" points="317,-1240 317,-1272 1392,-1272 1392,-1240 317,-1240"/>
<text text-anchor="start" x="322" y="-1260.6" font-family="Verdana" font-size="8.00">+ __construct(classRepository : Bartlett\CompatInfoDb\Domain\Repository\ClassRepository, constantRepository : Bartlett\CompatInfoDb\Domain\Repository\ConstantRepository, functionRepository : Bartlett\CompatInfoDb\Domain\Repository\FunctionRepository)</text>
<text text-anchor="start" x="322" y="-1247.6" font-family="Verdana" font-size="8.00">+ find(group : string, key : string, argc : int = 0, extra : string = «unknown») : array</text>
</g>
<!-- Bartlett\\CompatInfo\\Application\\Collection\\ReferenceCollectionInterface -->
<g id="node2" class="node">
<title>Bartlett\\CompatInfo\\Application\\Collection\\ReferenceCollectionInterface</title>
<polygon fill="#fefece" stroke="transparent" points="879,-993 487,-993 487,-946 879,-946 879,-993"/>
<polygon fill="#eeeeee" stroke="transparent" points="487,-970.5 487,-992.5 879,-992.5 879,-970.5 487,-970.5"/>
<polygon fill="none" stroke="black" points="487,-970.5 487,-992.5 879,-992.5 879,-970.5 487,-970.5"/>
<text text-anchor="start" x="657" y="-984.1" font-family="Verdana" font-weight="bold" font-size="8.00">«interface»</text>
<text text-anchor="start" x="617.5" y="-976.1" font-family="Verdana" font-weight="bold" font-size="8.00">ReferenceCollectionInterface</text>
<polygon fill="none" stroke="black" points="487,-964.5 487,-970.5 879,-970.5 879,-964.5 487,-964.5"/>
<polygon fill="none" stroke="black" points="487,-945.5 487,-964.5 879,-964.5 879,-945.5 487,-945.5"/>
<text text-anchor="start" x="492" y="-953.1" font-family="Verdana" font-size="8.00">+ «abstract» find(group : string, key : string, argc : int = 0, extra : string = «unknown») : array</text>
</g>
<!-- Bartlett\\CompatInfo\\Application\\Collection\\ReferenceCollection&#45;&gt;Bartlett\\CompatInfo\\Application\\Collection\\ReferenceCollectionInterface -->
<g id="edge9" class="edge">
<title>Bartlett\\CompatInfo\\Application\\Collection\\ReferenceCollection&#45;&gt;Bartlett\\CompatInfo\\Application\\Collection\\ReferenceCollectionInterface</title>
<path fill="none" stroke="black" stroke-dasharray="5,2" d="M837.29,-1239.84C804.98,-1183.44 734.21,-1059.89 700.94,-1001.82"/>
<polygon fill="none" stroke="black" points="703.95,-1000.03 695.94,-993.09 697.87,-1003.5 703.95,-1000.03"/>
</g>
<!-- Doctrine\\Common\\Collections\\AbstractLazyCollection -->
<g id="node5" class="node">
<title>Doctrine\\Common\\Collections\\AbstractLazyCollection</title>
<polygon fill="#fefece" stroke="transparent" points="291.5,-1201 62.5,-1201 62.5,-738 291.5,-738 291.5,-1201"/>
<polygon fill="#eeeeee" stroke="transparent" points="63,-1178.5 63,-1200.5 292,-1200.5 292,-1178.5 63,-1178.5"/>
<polygon fill="none" stroke="black" points="63,-1178.5 63,-1200.5 292,-1200.5 292,-1178.5 63,-1178.5"/>
<text text-anchor="start" x="153.5" y="-1192.1" font-family="Verdana" font-weight="bold" font-size="8.00">«abstract»</text>
<text text-anchor="start" x="126" y="-1184.1" font-family="Verdana" font-weight="bold" font-size="8.00">AbstractLazyCollection</text>
<polygon fill="none" stroke="black" points="63,-1172.5 63,-1178.5 292,-1178.5 292,-1172.5 63,-1172.5"/>
<polygon fill="none" stroke="black" points="63,-737.5 63,-1172.5 292,-1172.5 292,-737.5 63,-737.5"/>
<text text-anchor="start" x="68" y="-1161.1" font-family="Verdana" font-size="8.00">+ count()</text>
<text text-anchor="start" x="68" y="-1148.1" font-family="Verdana" font-size="8.00">+ add(element : mixed)</text>
<text text-anchor="start" x="68" y="-1135.1" font-family="Verdana" font-size="8.00">+ clear()</text>
<text text-anchor="start" x="68" y="-1122.1" font-family="Verdana" font-size="8.00">+ contains(element : mixed)</text>
<text text-anchor="start" x="68" y="-1109.1" font-family="Verdana" font-size="8.00">+ isEmpty()</text>
<text text-anchor="start" x="68" y="-1096.1" font-family="Verdana" font-size="8.00">+ remove(key)</text>
<text text-anchor="start" x="68" y="-1083.1" font-family="Verdana" font-size="8.00">+ removeElement(element : mixed)</text>
<text text-anchor="start" x="68" y="-1070.1" font-family="Verdana" font-size="8.00">+ containsKey(key)</text>
<text text-anchor="start" x="68" y="-1057.1" font-family="Verdana" font-size="8.00">+ get(key)</text>
<text text-anchor="start" x="68" y="-1044.1" font-family="Verdana" font-size="8.00">+ getKeys()</text>
<text text-anchor="start" x="68" y="-1031.1" font-family="Verdana" font-size="8.00">+ getValues()</text>
<text text-anchor="start" x="68" y="-1018.1" font-family="Verdana" font-size="8.00">+ set(key, value : mixed)</text>
<text text-anchor="start" x="68" y="-1005.1" font-family="Verdana" font-size="8.00">+ toArray()</text>
<text text-anchor="start" x="68" y="-992.1" font-family="Verdana" font-size="8.00">+ first()</text>
<text text-anchor="start" x="68" y="-979.1" font-family="Verdana" font-size="8.00">+ last()</text>
<text text-anchor="start" x="68" y="-966.1" font-family="Verdana" font-size="8.00">+ key()</text>
<text text-anchor="start" x="68" y="-953.1" font-family="Verdana" font-size="8.00">+ current()</text>
<text text-anchor="start" x="68" y="-940.1" font-family="Verdana" font-size="8.00">+ next()</text>
<text text-anchor="start" x="68" y="-927.1" font-family="Verdana" font-size="8.00">+ exists(p : Closure)</text>
<text text-anchor="start" x="68" y="-914.1" font-family="Verdana" font-size="8.00">+ findFirst(p : Closure)</text>
<text text-anchor="start" x="68" y="-901.1" font-family="Verdana" font-size="8.00">+ filter(p : Closure)</text>
<text text-anchor="start" x="68" y="-888.1" font-family="Verdana" font-size="8.00">+ forAll(p : Closure)</text>
<text text-anchor="start" x="68" y="-875.1" font-family="Verdana" font-size="8.00">+ map(func : Closure)</text>
<text text-anchor="start" x="68" y="-862.1" font-family="Verdana" font-size="8.00">+ reduce(func : Closure, initial : mixed = «unknown»)</text>
<text text-anchor="start" x="68" y="-849.1" font-family="Verdana" font-size="8.00">+ partition(p : Closure)</text>
<text text-anchor="start" x="68" y="-836.1" font-family="Verdana" font-size="8.00">+ indexOf(element : mixed)</text>
<text text-anchor="start" x="68" y="-823.1" font-family="Verdana" font-size="8.00">+ slice(offset : int, length : int = «unknown»)</text>
<text text-anchor="start" x="68" y="-810.1" font-family="Verdana" font-size="8.00">+ getIterator()</text>
<text text-anchor="start" x="68" y="-797.1" font-family="Verdana" font-size="8.00">+ offsetExists(offset : mixed)</text>
<text text-anchor="start" x="68" y="-784.1" font-family="Verdana" font-size="8.00">+ offsetGet(offset : mixed)</text>
<text text-anchor="start" x="68" y="-771.1" font-family="Verdana" font-size="8.00">+ offsetSet(offset : mixed, value : mixed)</text>
<text text-anchor="start" x="68" y="-758.1" font-family="Verdana" font-size="8.00">+ offsetUnset(offset : mixed)</text>
<text text-anchor="start" x="68" y="-745.1" font-family="Verdana" font-size="8.00">+ isInitialized()</text>
</g>
<!-- Bartlett\\CompatInfo\\Application\\Collection\\ReferenceCollection&#45;&gt;Doctrine\\Common\\Collections\\AbstractLazyCollection -->
<g id="edge7" class="edge">
<title>Bartlett\\CompatInfo\\Application\\Collection\\ReferenceCollection&#45;&gt;Doctrine\\Common\\Collections\\AbstractLazyCollection</title>
<path fill="none" stroke="black" d="M325.72,-1239.97C315.69,-1237.53 308.27,-1234.87 304,-1232 293.86,-1225.17 284.51,-1217.29 275.88,-1208.62"/>
<polygon fill="none" stroke="black" points="278.22,-1206.01 268.8,-1201.16 273.14,-1210.83 278.22,-1206.01"/>
</g>
<!-- Doctrine\\Common\\Collections\\Collection -->
<g id="node6" class="node">
<title>Doctrine\\Common\\Collections\\Collection</title>
<polygon fill="#fefece" stroke="transparent" points="285.5,-702 82.5,-702 82.5,-564 285.5,-564 285.5,-702"/>
<polygon fill="#eeeeee" stroke="transparent" points="83,-680 83,-702 286,-702 286,-680 83,-680"/>
<polygon fill="none" stroke="black" points="83,-680 83,-702 286,-702 286,-680 83,-680"/>
<text text-anchor="start" x="158.5" y="-693.6" font-family="Verdana" font-weight="bold" font-size="8.00">«interface»</text>
<text text-anchor="start" x="161.5" y="-685.6" font-family="Verdana" font-weight="bold" font-size="8.00">Collection</text>
<polygon fill="none" stroke="black" points="83,-674 83,-680 286,-680 286,-674 83,-674"/>
<polygon fill="none" stroke="black" points="83,-564 83,-674 286,-674 286,-564 83,-564"/>
<text text-anchor="start" x="88" y="-662.6" font-family="Verdana" font-size="8.00">+ «abstract» add(element : mixed)</text>
<text text-anchor="start" x="88" y="-649.6" font-family="Verdana" font-size="8.00">+ «abstract» clear()</text>
<text text-anchor="start" x="88" y="-636.6" font-family="Verdana" font-size="8.00">+ «abstract» remove(key : mixed)</text>
<text text-anchor="start" x="88" y="-623.6" font-family="Verdana" font-size="8.00">+ «abstract» removeElement(element : mixed)</text>
<text text-anchor="start" x="88" y="-610.6" font-family="Verdana" font-size="8.00">+ «abstract» set(key : mixed, value : mixed)</text>
<text text-anchor="start" x="88" y="-597.6" font-family="Verdana" font-size="8.00">+ «abstract» map(func : Closure)</text>
<text text-anchor="start" x="88" y="-584.6" font-family="Verdana" font-size="8.00">+ «abstract» filter(p : Closure)</text>
<text text-anchor="start" x="88" y="-571.6" font-family="Verdana" font-size="8.00">+ «abstract» partition(p : Closure)</text>
</g>
<!-- Bartlett\\CompatInfo\\Application\\Collection\\ReferenceCollectionInterface&#45;&gt;Doctrine\\Common\\Collections\\Collection -->
<g id="edge8" class="edge">
<title>Bartlett\\CompatInfo\\Application\\Collection\\ReferenceCollectionInterface&#45;&gt;Doctrine\\Common\\Collections\\Collection</title>
<path fill="none" stroke="black" stroke-dasharray="5,2" d="M649.09,-945.77C577.3,-897.64 407.22,-783.64 293.87,-707.65"/>
<polygon fill="none" stroke="black" points="295.72,-704.68 285.47,-702.02 291.82,-710.49 295.72,-704.68"/>
</g>
<!-- Bartlett\\CompatInfo\\Application\\Collection\\SniffCollection -->
<g id="node3" class="node">
<title>Bartlett\\CompatInfo\\Application\\Collection\\SniffCollection</title>
<polygon fill="#fefece" stroke="transparent" points="1542,-1300 1410,-1300 1410,-1240 1542,-1240 1542,-1300"/>
<polygon fill="#eeeeee" stroke="transparent" points="1410,-1278 1410,-1300 1542,-1300 1542,-1278 1410,-1278"/>
<polygon fill="none" stroke="black" points="1410,-1278 1410,-1300 1542,-1300 1542,-1278 1410,-1278"/>
<text text-anchor="start" x="1442.5" y="-1283.6" font-family="Verdana" font-weight="bold" font-size="8.00">SniffCollection</text>
<polygon fill="none" stroke="black" points="1410,-1272 1410,-1278 1542,-1278 1542,-1272 1410,-1272"/>
<polygon fill="none" stroke="black" points="1410,-1240 1410,-1272 1542,-1272 1542,-1240 1410,-1240"/>
<text text-anchor="start" x="1415" y="-1260.6" font-family="Verdana" font-size="8.00">+ __construct(sniffs : iterable)</text>
<text text-anchor="start" x="1415" y="-1247.6" font-family="Verdana" font-size="8.00">+ getIterator() : Traversable</text>
</g>
<!-- Bartlett\\CompatInfo\\Application\\Collection\\SniffCollectionInterface -->
<g id="node4" class="node">
<title>Bartlett\\CompatInfo\\Application\\Collection\\SniffCollectionInterface</title>
<polygon fill="#fefece" stroke="transparent" points="1272,-987.5 1158,-987.5 1158,-951.5 1272,-951.5 1272,-987.5"/>
<polygon fill="#eeeeee" stroke="transparent" points="1158,-964.5 1158,-986.5 1272,-986.5 1272,-964.5 1158,-964.5"/>
<polygon fill="none" stroke="black" points="1158,-964.5 1158,-986.5 1272,-986.5 1272,-964.5 1158,-964.5"/>
<text text-anchor="start" x="1189" y="-978.1" font-family="Verdana" font-weight="bold" font-size="8.00">«interface»</text>
<text text-anchor="start" x="1161" y="-970.1" font-family="Verdana" font-weight="bold" font-size="8.00">SniffCollectionInterface</text>
<polygon fill="none" stroke="black" points="1158,-958.5 1158,-964.5 1272,-964.5 1272,-958.5 1158,-958.5"/>
<polygon fill="none" stroke="black" points="1158,-952.5 1158,-958.5 1272,-958.5 1272,-952.5 1158,-952.5"/>
</g>
<!-- Bartlett\\CompatInfo\\Application\\Collection\\SniffCollection&#45;&gt;Bartlett\\CompatInfo\\Application\\Collection\\SniffCollectionInterface -->
<g id="edge11" class="edge">
<title>Bartlett\\CompatInfo\\Application\\Collection\\SniffCollection&#45;&gt;Bartlett\\CompatInfo\\Application\\Collection\\SniffCollectionInterface</title>
<path fill="none" stroke="black" stroke-dasharray="5,2" d="M1450.5,-1239.84C1399.38,-1181.37 1285.15,-1050.73 1237.04,-995.7"/>
<polygon fill="none" stroke="black" points="1239.38,-993.07 1230.17,-987.85 1234.11,-997.68 1239.38,-993.07"/>
</g>
<!-- IteratorAggregate -->
<g id="node9" class="node">
<title>IteratorAggregate</title>
<polygon fill="#fefece" stroke="transparent" points="575,-154.5 459,-154.5 459,-107.5 575,-107.5 575,-154.5"/>
<polygon fill="#eeeeee" stroke="transparent" points="459,-132 459,-154 575,-154 575,-132 459,-132"/>
<polygon fill="none" stroke="black" points="459,-132 459,-154 575,-154 575,-132 459,-132"/>
<text text-anchor="start" x="491" y="-145.6" font-family="Verdana" font-weight="bold" font-size="8.00">«interface»</text>
<text text-anchor="start" x="476" y="-137.6" font-family="Verdana" font-weight="bold" font-size="8.00">IteratorAggregate</text>
<polygon fill="none" stroke="black" points="459,-126 459,-132 575,-132 575,-126 459,-126"/>
<polygon fill="none" stroke="black" points="459,-107 459,-126 575,-126 575,-107 459,-107"/>
<text text-anchor="start" x="464" y="-114.6" font-family="Verdana" font-size="8.00">+ «abstract» getIterator()</text>
</g>
<!-- Bartlett\\CompatInfo\\Application\\Collection\\SniffCollectionInterface&#45;&gt;IteratorAggregate -->
<g id="edge10" class="edge">
<title>Bartlett\\CompatInfo\\Application\\Collection\\SniffCollectionInterface&#45;&gt;IteratorAggregate</title>
<path fill="none" stroke="black" stroke-dasharray="5,2" d="M1200.74,-951.41C1113.92,-847.36 656.29,-298.93 542.59,-162.67"/>
<polygon fill="none" stroke="black" points="545,-160.09 535.91,-154.66 539.63,-164.58 545,-160.09"/>
</g>
<!-- Doctrine\\Common\\Collections\\AbstractLazyCollection&#45;&gt;Doctrine\\Common\\Collections\\Collection -->
<g id="edge6" class="edge">
<title>Doctrine\\Common\\Collections\\AbstractLazyCollection&#45;&gt;Doctrine\\Common\\Collections\\Collection</title>
<path fill="none" stroke="black" stroke-dasharray="5,2" d="M181.83,-737.55C182.02,-728.75 182.2,-720.23 182.37,-712.1"/>
<polygon fill="none" stroke="black" points="185.87,-712.1 182.58,-702.03 178.87,-711.95 185.87,-712.1"/>
</g>
<!-- Doctrine\\Common\\Collections\\ReadableCollection -->
<g id="node7" class="node">
<title>Doctrine\\Common\\Collections\\ReadableCollection</title>
<polygon fill="#fefece" stroke="transparent" points="291.5,-528 16.5,-528 16.5,-221 291.5,-221 291.5,-528"/>
<polygon fill="#eeeeee" stroke="transparent" points="17,-505.5 17,-527.5 292,-527.5 292,-505.5 17,-505.5"/>
<polygon fill="none" stroke="black" points="17,-505.5 17,-527.5 292,-527.5 292,-505.5 17,-505.5"/>
<text text-anchor="start" x="128.5" y="-519.1" font-family="Verdana" font-weight="bold" font-size="8.00">«interface»</text>
<text text-anchor="start" x="110.5" y="-511.1" font-family="Verdana" font-weight="bold" font-size="8.00">ReadableCollection</text>
<polygon fill="none" stroke="black" points="17,-499.5 17,-505.5 292,-505.5 292,-499.5 17,-499.5"/>
<polygon fill="none" stroke="black" points="17,-220.5 17,-499.5 292,-499.5 292,-220.5 17,-220.5"/>
<text text-anchor="start" x="22" y="-488.1" font-family="Verdana" font-size="8.00">+ «abstract» contains(element : mixed)</text>
<text text-anchor="start" x="22" y="-475.1" font-family="Verdana" font-size="8.00">+ «abstract» isEmpty()</text>
<text text-anchor="start" x="22" y="-462.1" font-family="Verdana" font-size="8.00">+ «abstract» containsKey(key : mixed)</text>
<text text-anchor="start" x="22" y="-449.1" font-family="Verdana" font-size="8.00">+ «abstract» get(key : mixed)</text>
<text text-anchor="start" x="22" y="-436.1" font-family="Verdana" font-size="8.00">+ «abstract» getKeys()</text>
<text text-anchor="start" x="22" y="-423.1" font-family="Verdana" font-size="8.00">+ «abstract» getValues()</text>
<text text-anchor="start" x="22" y="-410.1" font-family="Verdana" font-size="8.00">+ «abstract» toArray()</text>
<text text-anchor="start" x="22" y="-397.1" font-family="Verdana" font-size="8.00">+ «abstract» first()</text>
<text text-anchor="start" x="22" y="-384.1" font-family="Verdana" font-size="8.00">+ «abstract» last()</text>
<text text-anchor="start" x="22" y="-371.1" font-family="Verdana" font-size="8.00">+ «abstract» key()</text>
<text text-anchor="start" x="22" y="-358.1" font-family="Verdana" font-size="8.00">+ «abstract» current()</text>
<text text-anchor="start" x="22" y="-345.1" font-family="Verdana" font-size="8.00">+ «abstract» next()</text>
<text text-anchor="start" x="22" y="-332.1" font-family="Verdana" font-size="8.00">+ «abstract» slice(offset : int, length : int = «unknown»)</text>
<text text-anchor="start" x="22" y="-319.1" font-family="Verdana" font-size="8.00">+ «abstract» exists(p : Closure)</text>
<text text-anchor="start" x="22" y="-306.1" font-family="Verdana" font-size="8.00">+ «abstract» filter(p : Closure)</text>
<text text-anchor="start" x="22" y="-293.1" font-family="Verdana" font-size="8.00">+ «abstract» map(func : Closure)</text>
<text text-anchor="start" x="22" y="-280.1" font-family="Verdana" font-size="8.00">+ «abstract» partition(p : Closure)</text>
<text text-anchor="start" x="22" y="-267.1" font-family="Verdana" font-size="8.00">+ «abstract» forAll(p : Closure)</text>
<text text-anchor="start" x="22" y="-254.1" font-family="Verdana" font-size="8.00">+ «abstract» indexOf(element : mixed)</text>
<text text-anchor="start" x="22" y="-241.1" font-family="Verdana" font-size="8.00">+ «abstract» findFirst(p : Closure)</text>
<text text-anchor="start" x="22" y="-228.1" font-family="Verdana" font-size="8.00">+ «abstract» reduce(func : Closure, initial : mixed = «unknown»)</text>
</g>
<!-- Doctrine\\Common\\Collections\\Collection&#45;&gt;Doctrine\\Common\\Collections\\ReadableCollection -->
<g id="edge4" class="edge">
<title>Doctrine\\Common\\Collections\\Collection&#45;&gt;Doctrine\\Common\\Collections\\ReadableCollection</title>
<path fill="none" stroke="black" stroke-dasharray="5,2" d="M176.04,-563.94C175.08,-555.74 174.07,-547.12 173.04,-538.26"/>
<polygon fill="none" stroke="black" points="176.49,-537.7 171.86,-528.17 169.54,-538.51 176.49,-537.7"/>
</g>
<!-- ArrayAccess -->
<g id="node11" class="node">
<title>ArrayAccess</title>
<polygon fill="#fefece" stroke="transparent" points="441,-174 217,-174 217,-88 441,-88 441,-174"/>
<polygon fill="#eeeeee" stroke="transparent" points="217,-152 217,-174 441,-174 441,-152 217,-152"/>
<polygon fill="none" stroke="black" points="217,-152 217,-174 441,-174 441,-152 217,-152"/>
<text text-anchor="start" x="303" y="-165.6" font-family="Verdana" font-weight="bold" font-size="8.00">«interface»</text>
<text text-anchor="start" x="302" y="-157.6" font-family="Verdana" font-weight="bold" font-size="8.00">ArrayAccess</text>
<polygon fill="none" stroke="black" points="217,-146 217,-152 441,-152 441,-146 217,-146"/>
<polygon fill="none" stroke="black" points="217,-88 217,-146 441,-146 441,-88 217,-88"/>
<text text-anchor="start" x="222" y="-134.6" font-family="Verdana" font-size="8.00">+ «abstract» offsetExists(offset : mixed)</text>
<text text-anchor="start" x="222" y="-121.6" font-family="Verdana" font-size="8.00">+ «abstract» offsetGet(offset : mixed)</text>
<text text-anchor="start" x="222" y="-108.6" font-family="Verdana" font-size="8.00">+ «abstract» offsetSet(offset : mixed, value : mixed)</text>
<text text-anchor="start" x="222" y="-95.6" font-family="Verdana" font-size="8.00">+ «abstract» offsetUnset(offset : mixed)</text>
</g>
<!-- Doctrine\\Common\\Collections\\Collection&#45;&gt;ArrayAccess -->
<g id="edge5" class="edge">
<title>Doctrine\\Common\\Collections\\Collection&#45;&gt;ArrayAccess</title>
<path fill="none" stroke="black" stroke-dasharray="5,2" d="M276.03,-563.91C285.9,-552.95 294.64,-540.92 301,-528 356.27,-415.7 347.22,-263.46 337.29,-184.45"/>
<polygon fill="none" stroke="black" points="340.72,-183.72 335.95,-174.26 333.78,-184.63 340.72,-183.72"/>
</g>
<!-- Countable -->
<g id="node8" class="node">
<title>Countable</title>
<polygon fill="#fefece" stroke="transparent" points="198.5,-154.5 103.5,-154.5 103.5,-107.5 198.5,-107.5 198.5,-154.5"/>
<polygon fill="#eeeeee" stroke="transparent" points="104,-132 104,-154 199,-154 199,-132 104,-132"/>
<polygon fill="none" stroke="black" points="104,-132 104,-154 199,-154 199,-132 104,-132"/>
<text text-anchor="start" x="125.5" y="-145.6" font-family="Verdana" font-weight="bold" font-size="8.00">«interface»</text>
<text text-anchor="start" x="128" y="-137.6" font-family="Verdana" font-weight="bold" font-size="8.00">Countable</text>
<polygon fill="none" stroke="black" points="104,-126 104,-132 199,-132 199,-126 104,-126"/>
<polygon fill="none" stroke="black" points="104,-107 104,-126 199,-126 199,-107 104,-107"/>
<text text-anchor="start" x="109" y="-114.6" font-family="Verdana" font-size="8.00">+ «abstract» count()</text>
</g>
<!-- Doctrine\\Common\\Collections\\ReadableCollection&#45;&gt;Countable -->
<g id="edge1" class="edge">
<title>Doctrine\\Common\\Collections\\ReadableCollection&#45;&gt;Countable</title>
<path fill="none" stroke="black" stroke-dasharray="5,2" d="M152.1,-220.9C151.85,-200.04 151.6,-180.55 151.41,-165.17"/>
<polygon fill="none" stroke="black" points="154.91,-164.69 151.28,-154.73 147.91,-164.77 154.91,-164.69"/>
</g>
<!-- Doctrine\\Common\\Collections\\ReadableCollection&#45;&gt;IteratorAggregate -->
<g id="edge3" class="edge">
<title>Doctrine\\Common\\Collections\\ReadableCollection&#45;&gt;IteratorAggregate</title>
<path fill="none" stroke="black" stroke-dasharray="5,2" d="M291.53,-306.77C343.48,-278.66 401.68,-243.51 450,-205 465.52,-192.63 480.66,-176.59 492.61,-162.69"/>
<polygon fill="none" stroke="black" points="495.49,-164.7 499.25,-154.8 490.13,-160.19 495.49,-164.7"/>
</g>
<!-- Traversable -->
<g id="node10" class="node">
<title>Traversable</title>
<polygon fill="#fefece" stroke="transparent" points="546,-52 488,-52 488,-16 546,-16 546,-52"/>
<polygon fill="#eeeeee" stroke="transparent" points="488,-29 488,-51 546,-51 546,-29 488,-29"/>
<polygon fill="none" stroke="black" points="488,-29 488,-51 546,-51 546,-29 488,-29"/>
<text text-anchor="start" x="491" y="-42.6" font-family="Verdana" font-weight="bold" font-size="8.00">«interface»</text>
<text text-anchor="start" x="491" y="-34.6" font-family="Verdana" font-weight="bold" font-size="8.00">Traversable</text>
<polygon fill="none" stroke="black" points="488,-23 488,-29 546,-29 546,-23 488,-23"/>
<polygon fill="none" stroke="black" points="488,-17 488,-23 546,-23 546,-17 488,-17"/>
</g>
<!-- IteratorAggregate&#45;&gt;Traversable -->
<g id="edge2" class="edge">
<title>IteratorAggregate&#45;&gt;Traversable</title>
<path fill="none" stroke="black" stroke-dasharray="5,2" d="M517,-107.49C517,-93.93 517,-76.58 517,-62.26"/>
<polygon fill="none" stroke="black" points="520.5,-62 517,-52 513.5,-62 520.5,-62"/>
</g>
</g>
</svg>
