<?xml version="1.0" encoding="UTF-8" standalone="no"?>
<!DOCTYPE svg PUBLIC "-//W3C//DTD SVG 1.1//EN"
 "http://www.w3.org/Graphics/SVG/1.1/DTD/svg11.dtd">
<!-- Generated by graphviz version 2.43.0 (0)
 -->
<!-- Title: %3 Pages: 1 -->
<svg width="1718pt" height="1433pt"
 viewBox="0.00 0.00 1718.00 1433.00" xmlns="http://www.w3.org/2000/svg" xmlns:xlink="http://www.w3.org/1999/xlink">
<g id="graph0" class="graph" transform="scale(1 1) rotate(0) translate(4 1429)">
<title>%3</title>
<g id="clust1" class="cluster">
<title>cluster_0</title>
<polygon fill="transparent" stroke="black" points="812,-1292 812,-1417 1261,-1417 1261,-1292 812,-1292"/>
<text text-anchor="middle" x="1036.5" y="-1401.8" font-family="Times,serif" font-size="14.00">Bartlett\CompatInfo\Application\DataCollector\ErrorHandler</text>
</g>
<g id="clust2" class="cluster">
<title>cluster_1</title>
<polygon fill="transparent" stroke="black" points="179,-213 179,-1284 715,-1284 715,-213 179,-213"/>
<text text-anchor="middle" x="447" y="-1268.8" font-family="Times,serif" font-size="14.00">Doctrine\Common\Collections</text>
</g>
<g id="clust3" class="cluster">
<title>cluster_2</title>
<polygon fill="transparent" stroke="black" points="8,-8 8,-205 657,-205 657,-8 8,-8"/>
<text text-anchor="middle" x="332.5" y="-189.8" font-family="Times,serif" font-size="14.00">0</text>
</g>
<g id="clust4" class="cluster">
<title>cluster_3</title>
<polygon fill="BurlyWood" stroke="black" points="723,-291 723,-1167 1228,-1167 1228,-291 723,-291"/>
<text text-anchor="middle" x="975.5" y="-1151.8" font-family="Times,serif" font-size="14.00">Bartlett\CompatInfo\Application\DataCollector</text>
</g>
<g id="clust5" class="cluster">
<title>cluster_4</title>
<polygon fill="transparent" stroke="black" points="1236,-614.5 1236,-700.5 1462,-700.5 1462,-614.5 1236,-614.5"/>
<text text-anchor="middle" x="1349" y="-685.3" font-family="Times,serif" font-size="14.00">PhpParser</text>
</g>
<g id="clust6" class="cluster">
<title>cluster_5</title>
<polygon fill="transparent" stroke="black" points="1269,-1298.5 1269,-1410.5 1702,-1410.5 1702,-1298.5 1269,-1298.5"/>
<text text-anchor="middle" x="1485.5" y="-1395.3" font-family="Times,serif" font-size="14.00">Bartlett\CompatInfo\Application\DataCollector\Normalizer</text>
</g>
<g id="clust7" class="cluster">
<title>cluster_6</title>
<polygon fill="transparent" stroke="black" points="1278,-970.5 1278,-1069.5 1666,-1069.5 1666,-970.5 1278,-970.5"/>
<text text-anchor="middle" x="1472" y="-1054.3" font-family="Times,serif" font-size="14.00">Symfony\Component\Serializer\Normalizer</text>
</g>
<!-- Bartlett\\CompatInfo\\Application\\DataCollector\\ErrorHandler\\Collecting -->
<g id="node1" class="node">
<title>Bartlett\\CompatInfo\\Application\\DataCollector\\ErrorHandler\\Collecting</title>
<polygon fill="#fefece" stroke="transparent" points="1027,-1386 839,-1386 839,-1300 1027,-1300 1027,-1386"/>
<polygon fill="#eeeeee" stroke="transparent" points="839,-1364 839,-1386 1027,-1386 1027,-1364 839,-1364"/>
<polygon fill="none" stroke="black" points="839,-1364 839,-1386 1027,-1386 1027,-1364 839,-1364"/>
<text text-anchor="start" x="910" y="-1369.6" font-family="Verdana" font-weight="bold" font-size="8.00">Collecting</text>
<polygon fill="none" stroke="black" points="839,-1358 839,-1364 1027,-1364 1027,-1358 839,-1358"/>
<polygon fill="none" stroke="black" points="839,-1300 839,-1358 1027,-1358 1027,-1300 839,-1300"/>
<text text-anchor="start" x="844" y="-1346.6" font-family="Verdana" font-size="8.00">+ handleError(error : PhpParser\Error) : void</text>
<text text-anchor="start" x="844" y="-1333.6" font-family="Verdana" font-size="8.00">+ getErrors() : array</text>
<text text-anchor="start" x="844" y="-1320.6" font-family="Verdana" font-size="8.00">+ hasErrors() : bool</text>
<text text-anchor="start" x="844" y="-1307.6" font-family="Verdana" font-size="8.00">+ clearErrors() : void</text>
</g>
<!-- Doctrine\\Common\\Collections\\ArrayCollection -->
<g id="node3" class="node">
<title>Doctrine\\Common\\Collections\\ArrayCollection</title>
<polygon fill="#fefece" stroke="transparent" points="563,-1253 309,-1253 309,-764 563,-764 563,-1253"/>
<polygon fill="#eeeeee" stroke="transparent" points="309,-1230.5 309,-1252.5 563,-1252.5 563,-1230.5 309,-1230.5"/>
<polygon fill="none" stroke="black" points="309,-1230.5 309,-1252.5 563,-1252.5 563,-1230.5 309,-1230.5"/>
<text text-anchor="start" x="401" y="-1236.1" font-family="Verdana" font-weight="bold" font-size="8.00">ArrayCollection</text>
<polygon fill="none" stroke="black" points="309,-1224.5 309,-1230.5 563,-1230.5 563,-1224.5 309,-1224.5"/>
<polygon fill="none" stroke="black" points="309,-763.5 309,-1224.5 563,-1224.5 563,-763.5 309,-763.5"/>
<text text-anchor="start" x="314" y="-1213.1" font-family="Verdana" font-size="8.00">+ __construct(elements : array = [])</text>
<text text-anchor="start" x="314" y="-1200.1" font-family="Verdana" font-size="8.00">+ toArray()</text>
<text text-anchor="start" x="314" y="-1187.1" font-family="Verdana" font-size="8.00">+ first()</text>
<text text-anchor="start" x="314" y="-1174.1" font-family="Verdana" font-size="8.00">+ last()</text>
<text text-anchor="start" x="314" y="-1161.1" font-family="Verdana" font-size="8.00">+ key()</text>
<text text-anchor="start" x="314" y="-1148.1" font-family="Verdana" font-size="8.00">+ next()</text>
<text text-anchor="start" x="314" y="-1135.1" font-family="Verdana" font-size="8.00">+ current()</text>
<text text-anchor="start" x="314" y="-1122.1" font-family="Verdana" font-size="8.00">+ remove(key)</text>
<text text-anchor="start" x="314" y="-1109.1" font-family="Verdana" font-size="8.00">+ removeElement(element : mixed)</text>
<text text-anchor="start" x="314" y="-1096.1" font-family="Verdana" font-size="8.00">+ offsetExists(offset : mixed)</text>
<text text-anchor="start" x="314" y="-1083.1" font-family="Verdana" font-size="8.00">+ offsetGet(offset : mixed)</text>
<text text-anchor="start" x="314" y="-1070.1" font-family="Verdana" font-size="8.00">+ offsetSet(offset : mixed, value : mixed)</text>
<text text-anchor="start" x="314" y="-1057.1" font-family="Verdana" font-size="8.00">+ offsetUnset(offset : mixed)</text>
<text text-anchor="start" x="314" y="-1044.1" font-family="Verdana" font-size="8.00">+ containsKey(key)</text>
<text text-anchor="start" x="314" y="-1031.1" font-family="Verdana" font-size="8.00">+ contains(element : mixed)</text>
<text text-anchor="start" x="314" y="-1018.1" font-family="Verdana" font-size="8.00">+ exists(p : Closure)</text>
<text text-anchor="start" x="314" y="-1005.1" font-family="Verdana" font-size="8.00">+ indexOf(element)</text>
<text text-anchor="start" x="314" y="-992.1" font-family="Verdana" font-size="8.00">+ get(key)</text>
<text text-anchor="start" x="314" y="-979.1" font-family="Verdana" font-size="8.00">+ getKeys()</text>
<text text-anchor="start" x="314" y="-966.1" font-family="Verdana" font-size="8.00">+ getValues()</text>
<text text-anchor="start" x="314" y="-953.1" font-family="Verdana" font-size="8.00">+ count()</text>
<text text-anchor="start" x="314" y="-940.1" font-family="Verdana" font-size="8.00">+ set(key, value : mixed)</text>
<text text-anchor="start" x="314" y="-927.1" font-family="Verdana" font-size="8.00">+ add(element : mixed)</text>
<text text-anchor="start" x="314" y="-914.1" font-family="Verdana" font-size="8.00">+ isEmpty()</text>
<text text-anchor="start" x="314" y="-901.1" font-family="Verdana" font-size="8.00">+ getIterator()</text>
<text text-anchor="start" x="314" y="-888.1" font-family="Verdana" font-size="8.00">+ map(func : Closure)</text>
<text text-anchor="start" x="314" y="-875.1" font-family="Verdana" font-size="8.00">+ reduce(func : Closure, initial = «unknown»)</text>
<text text-anchor="start" x="314" y="-862.1" font-family="Verdana" font-size="8.00">+ filter(p : Closure)</text>
<text text-anchor="start" x="314" y="-849.1" font-family="Verdana" font-size="8.00">+ findFirst(p : Closure)</text>
<text text-anchor="start" x="314" y="-836.1" font-family="Verdana" font-size="8.00">+ forAll(p : Closure)</text>
<text text-anchor="start" x="314" y="-823.1" font-family="Verdana" font-size="8.00">+ partition(p : Closure)</text>
<text text-anchor="start" x="314" y="-810.1" font-family="Verdana" font-size="8.00">+ __toString() : string</text>
<text text-anchor="start" x="314" y="-797.1" font-family="Verdana" font-size="8.00">+ clear()</text>
<text text-anchor="start" x="314" y="-784.1" font-family="Verdana" font-size="8.00">+ slice(offset : int, length : int = «unknown»)</text>
<text text-anchor="start" x="314" y="-771.1" font-family="Verdana" font-size="8.00">+ matching(criteria : Doctrine\Common\Collections\Criteria)</text>
</g>
<!-- Bartlett\\CompatInfo\\Application\\DataCollector\\ErrorHandler\\Collecting&#45;&gt;Doctrine\\Common\\Collections\\ArrayCollection -->
<g id="edge9" class="edge">
<title>Bartlett\\CompatInfo\\Application\\DataCollector\\ErrorHandler\\Collecting&#45;&gt;Doctrine\\Common\\Collections\\ArrayCollection</title>
<path fill="none" stroke="black" d="M838.95,-1327.24C800.08,-1318.47 755.63,-1304.85 719,-1284 665.18,-1253.37 614.06,-1210.11 570.45,-1166.97"/>
<polygon fill="none" stroke="black" points="572.79,-1164.36 563.24,-1159.77 567.85,-1169.31 572.79,-1164.36"/>
</g>
<!-- Bartlett\\CompatInfo\\Application\\DataCollector\\ErrorHandler -->
<g id="node12" class="node">
<title>Bartlett\\CompatInfo\\Application\\DataCollector\\ErrorHandler</title>
<polygon fill="#fefece" stroke="transparent" points="1219.5,-1045 1078.5,-1045 1078.5,-972 1219.5,-972 1219.5,-1045"/>
<polygon fill="#eeeeee" stroke="transparent" points="1079,-1022.5 1079,-1044.5 1220,-1044.5 1220,-1022.5 1079,-1022.5"/>
<polygon fill="none" stroke="black" points="1079,-1022.5 1079,-1044.5 1220,-1044.5 1220,-1022.5 1079,-1022.5"/>
<text text-anchor="start" x="1123.5" y="-1036.1" font-family="Verdana" font-weight="bold" font-size="8.00">«interface»</text>
<text text-anchor="start" x="1120.5" y="-1028.1" font-family="Verdana" font-weight="bold" font-size="8.00">ErrorHandler</text>
<polygon fill="none" stroke="black" points="1079,-1016.5 1079,-1022.5 1220,-1022.5 1220,-1016.5 1079,-1016.5"/>
<polygon fill="none" stroke="black" points="1079,-971.5 1079,-1016.5 1220,-1016.5 1220,-971.5 1079,-971.5"/>
<text text-anchor="start" x="1084" y="-1005.1" font-family="Verdana" font-size="8.00">+ «abstract» getErrors() : array</text>
<text text-anchor="start" x="1084" y="-992.1" font-family="Verdana" font-size="8.00">+ «abstract» hasErrors() : bool</text>
<text text-anchor="start" x="1084" y="-979.1" font-family="Verdana" font-size="8.00">+ «abstract» clearErrors() : void</text>
</g>
<!-- Bartlett\\CompatInfo\\Application\\DataCollector\\ErrorHandler\\Collecting&#45;&gt;Bartlett\\CompatInfo\\Application\\DataCollector\\ErrorHandler -->
<g id="edge11" class="edge">
<title>Bartlett\\CompatInfo\\Application\\DataCollector\\ErrorHandler\\Collecting&#45;&gt;Bartlett\\CompatInfo\\Application\\DataCollector\\ErrorHandler</title>
<path fill="none" stroke="black" stroke-dasharray="5,2" d="M1026.48,-1299.93C1033.06,-1297.19 1039.61,-1294.52 1046,-1292 1056.07,-1288.03 1061.55,-1291.85 1069,-1284 1128.83,-1221.03 1144.25,-1115.88 1148.01,-1055.65"/>
<polygon fill="none" stroke="black" points="1151.53,-1055.47 1148.57,-1045.3 1144.54,-1055.1 1151.53,-1055.47"/>
</g>
<!-- Bartlett\\CompatInfo\\Application\\DataCollector\\ErrorHandler\\Throwing -->
<g id="node2" class="node">
<title>Bartlett\\CompatInfo\\Application\\DataCollector\\ErrorHandler\\Throwing</title>
<polygon fill="#fefece" stroke="transparent" points="1243,-1386 1055,-1386 1055,-1300 1243,-1300 1243,-1386"/>
<polygon fill="#eeeeee" stroke="transparent" points="1055,-1364 1055,-1386 1243,-1386 1243,-1364 1055,-1364"/>
<polygon fill="none" stroke="black" points="1055,-1364 1055,-1386 1243,-1386 1243,-1364 1055,-1364"/>
<text text-anchor="start" x="1127.5" y="-1369.6" font-family="Verdana" font-weight="bold" font-size="8.00">Throwing</text>
<polygon fill="none" stroke="black" points="1055,-1358 1055,-1364 1243,-1364 1243,-1358 1055,-1358"/>
<polygon fill="none" stroke="black" points="1055,-1300 1055,-1358 1243,-1358 1243,-1300 1055,-1300"/>
<text text-anchor="start" x="1060" y="-1346.6" font-family="Verdana" font-size="8.00">+ handleError(error : PhpParser\Error) : void</text>
<text text-anchor="start" x="1060" y="-1333.6" font-family="Verdana" font-size="8.00">+ hasErrors() : bool</text>
<text text-anchor="start" x="1060" y="-1320.6" font-family="Verdana" font-size="8.00">+ getErrors() : array</text>
<text text-anchor="start" x="1060" y="-1307.6" font-family="Verdana" font-size="8.00">+ clearErrors() : void</text>
</g>
<!-- Bartlett\\CompatInfo\\Application\\DataCollector\\ErrorHandler\\Throwing&#45;&gt;Bartlett\\CompatInfo\\Application\\DataCollector\\ErrorHandler -->
<g id="edge12" class="edge">
<title>Bartlett\\CompatInfo\\Application\\DataCollector\\ErrorHandler\\Throwing&#45;&gt;Bartlett\\CompatInfo\\Application\\DataCollector\\ErrorHandler</title>
<path fill="none" stroke="black" stroke-dasharray="5,2" d="M1149,-1299.89C1149,-1237.32 1149,-1120.24 1149,-1055.49"/>
<polygon fill="none" stroke="black" points="1152.5,-1055.19 1149,-1045.19 1145.5,-1055.19 1152.5,-1055.19"/>
</g>
<!-- Doctrine\\Common\\Collections\\Collection -->
<g id="node4" class="node">
<title>Doctrine\\Common\\Collections\\Collection</title>
<polygon fill="#fefece" stroke="transparent" points="389.5,-715 186.5,-715 186.5,-577 389.5,-577 389.5,-715"/>
<polygon fill="#eeeeee" stroke="transparent" points="187,-693 187,-715 390,-715 390,-693 187,-693"/>
<polygon fill="none" stroke="black" points="187,-693 187,-715 390,-715 390,-693 187,-693"/>
<text text-anchor="start" x="262.5" y="-706.6" font-family="Verdana" font-weight="bold" font-size="8.00">«interface»</text>
<text text-anchor="start" x="265.5" y="-698.6" font-family="Verdana" font-weight="bold" font-size="8.00">Collection</text>
<polygon fill="none" stroke="black" points="187,-687 187,-693 390,-693 390,-687 187,-687"/>
<polygon fill="none" stroke="black" points="187,-577 187,-687 390,-687 390,-577 187,-577"/>
<text text-anchor="start" x="192" y="-675.6" font-family="Verdana" font-size="8.00">+ «abstract» add(element : mixed)</text>
<text text-anchor="start" x="192" y="-662.6" font-family="Verdana" font-size="8.00">+ «abstract» clear()</text>
<text text-anchor="start" x="192" y="-649.6" font-family="Verdana" font-size="8.00">+ «abstract» remove(key : mixed)</text>
<text text-anchor="start" x="192" y="-636.6" font-family="Verdana" font-size="8.00">+ «abstract» removeElement(element : mixed)</text>
<text text-anchor="start" x="192" y="-623.6" font-family="Verdana" font-size="8.00">+ «abstract» set(key : mixed, value : mixed)</text>
<text text-anchor="start" x="192" y="-610.6" font-family="Verdana" font-size="8.00">+ «abstract» map(func : Closure)</text>
<text text-anchor="start" x="192" y="-597.6" font-family="Verdana" font-size="8.00">+ «abstract» filter(p : Closure)</text>
<text text-anchor="start" x="192" y="-584.6" font-family="Verdana" font-size="8.00">+ «abstract» partition(p : Closure)</text>
</g>
<!-- Doctrine\\Common\\Collections\\ArrayCollection&#45;&gt;Doctrine\\Common\\Collections\\Collection -->
<g id="edge6" class="edge">
<title>Doctrine\\Common\\Collections\\ArrayCollection&#45;&gt;Doctrine\\Common\\Collections\\Collection</title>
<path fill="none" stroke="black" stroke-dasharray="5,2" d="M335.85,-763.55C330.25,-749.92 324.89,-736.86 319.91,-724.72"/>
<polygon fill="none" stroke="black" points="323.03,-723.12 316,-715.19 316.56,-725.77 323.03,-723.12"/>
</g>
<!-- Doctrine\\Common\\Collections\\Selectable -->
<g id="node6" class="node">
<title>Doctrine\\Common\\Collections\\Selectable</title>
<polygon fill="#fefece" stroke="transparent" points="707,-669.5 407,-669.5 407,-622.5 707,-622.5 707,-669.5"/>
<polygon fill="#eeeeee" stroke="transparent" points="407,-647 407,-669 707,-669 707,-647 407,-647"/>
<polygon fill="none" stroke="black" points="407,-647 407,-669 707,-669 707,-647 407,-647"/>
<text text-anchor="start" x="531" y="-660.6" font-family="Verdana" font-weight="bold" font-size="8.00">«interface»</text>
<text text-anchor="start" x="533" y="-652.6" font-family="Verdana" font-weight="bold" font-size="8.00">Selectable</text>
<polygon fill="none" stroke="black" points="407,-641 407,-647 707,-647 707,-641 407,-641"/>
<polygon fill="none" stroke="black" points="407,-622 407,-641 707,-641 707,-622 407,-622"/>
<text text-anchor="start" x="412" y="-629.6" font-family="Verdana" font-size="8.00">+ «abstract» matching(criteria : Doctrine\Common\Collections\Criteria)</text>
</g>
<!-- Doctrine\\Common\\Collections\\ArrayCollection&#45;&gt;Doctrine\\Common\\Collections\\Selectable -->
<g id="edge7" class="edge">
<title>Doctrine\\Common\\Collections\\ArrayCollection&#45;&gt;Doctrine\\Common\\Collections\\Selectable</title>
<path fill="none" stroke="black" stroke-dasharray="5,2" d="M517.88,-763.55C529,-730.41 539.02,-700.56 546.13,-679.37"/>
<polygon fill="none" stroke="black" points="549.52,-680.28 549.38,-669.69 542.88,-678.06 549.52,-680.28"/>
</g>
<!-- Stringable -->
<g id="node11" class="node">
<title>Stringable</title>
<polygon fill="#fefece" stroke="transparent" points="159.5,-154.5 16.5,-154.5 16.5,-107.5 159.5,-107.5 159.5,-154.5"/>
<polygon fill="#eeeeee" stroke="transparent" points="17,-132 17,-154 160,-154 160,-132 17,-132"/>
<polygon fill="none" stroke="black" points="17,-132 17,-154 160,-154 160,-132 17,-132"/>
<text text-anchor="start" x="62.5" y="-145.6" font-family="Verdana" font-weight="bold" font-size="8.00">«interface»</text>
<text text-anchor="start" x="64" y="-137.6" font-family="Verdana" font-weight="bold" font-size="8.00">Stringable</text>
<polygon fill="none" stroke="black" points="17,-126 17,-132 160,-132 160,-126 17,-126"/>
<polygon fill="none" stroke="black" points="17,-107 17,-126 160,-126 160,-107 17,-107"/>
<text text-anchor="start" x="22" y="-114.6" font-family="Verdana" font-size="8.00">+ «abstract» __toString() : string</text>
</g>
<!-- Doctrine\\Common\\Collections\\ArrayCollection&#45;&gt;Stringable -->
<g id="edge8" class="edge">
<title>Doctrine\\Common\\Collections\\ArrayCollection&#45;&gt;Stringable</title>
<path fill="none" stroke="black" stroke-dasharray="5,2" d="M308.97,-900.72C260.32,-852.91 209.08,-792.74 178,-728 83.34,-530.86 83.25,-258.42 86.41,-164.99"/>
<polygon fill="none" stroke="black" points="89.92,-164.87 86.8,-154.75 82.92,-164.61 89.92,-164.87"/>
</g>
<!-- Doctrine\\Common\\Collections\\ReadableCollection -->
<g id="node5" class="node">
<title>Doctrine\\Common\\Collections\\ReadableCollection</title>
<polygon fill="#fefece" stroke="transparent" points="462.5,-528 187.5,-528 187.5,-221 462.5,-221 462.5,-528"/>
<polygon fill="#eeeeee" stroke="transparent" points="188,-505.5 188,-527.5 463,-527.5 463,-505.5 188,-505.5"/>
<polygon fill="none" stroke="black" points="188,-505.5 188,-527.5 463,-527.5 463,-505.5 188,-505.5"/>
<text text-anchor="start" x="299.5" y="-519.1" font-family="Verdana" font-weight="bold" font-size="8.00">«interface»</text>
<text text-anchor="start" x="281.5" y="-511.1" font-family="Verdana" font-weight="bold" font-size="8.00">ReadableCollection</text>
<polygon fill="none" stroke="black" points="188,-499.5 188,-505.5 463,-505.5 463,-499.5 188,-499.5"/>
<polygon fill="none" stroke="black" points="188,-220.5 188,-499.5 463,-499.5 463,-220.5 188,-220.5"/>
<text text-anchor="start" x="193" y="-488.1" font-family="Verdana" font-size="8.00">+ «abstract» contains(element : mixed)</text>
<text text-anchor="start" x="193" y="-475.1" font-family="Verdana" font-size="8.00">+ «abstract» isEmpty()</text>
<text text-anchor="start" x="193" y="-462.1" font-family="Verdana" font-size="8.00">+ «abstract» containsKey(key : mixed)</text>
<text text-anchor="start" x="193" y="-449.1" font-family="Verdana" font-size="8.00">+ «abstract» get(key : mixed)</text>
<text text-anchor="start" x="193" y="-436.1" font-family="Verdana" font-size="8.00">+ «abstract» getKeys()</text>
<text text-anchor="start" x="193" y="-423.1" font-family="Verdana" font-size="8.00">+ «abstract» getValues()</text>
<text text-anchor="start" x="193" y="-410.1" font-family="Verdana" font-size="8.00">+ «abstract» toArray()</text>
<text text-anchor="start" x="193" y="-397.1" font-family="Verdana" font-size="8.00">+ «abstract» first()</text>
<text text-anchor="start" x="193" y="-384.1" font-family="Verdana" font-size="8.00">+ «abstract» last()</text>
<text text-anchor="start" x="193" y="-371.1" font-family="Verdana" font-size="8.00">+ «abstract» key()</text>
<text text-anchor="start" x="193" y="-358.1" font-family="Verdana" font-size="8.00">+ «abstract» current()</text>
<text text-anchor="start" x="193" y="-345.1" font-family="Verdana" font-size="8.00">+ «abstract» next()</text>
<text text-anchor="start" x="193" y="-332.1" font-family="Verdana" font-size="8.00">+ «abstract» slice(offset : int, length : int = «unknown»)</text>
<text text-anchor="start" x="193" y="-319.1" font-family="Verdana" font-size="8.00">+ «abstract» exists(p : Closure)</text>
<text text-anchor="start" x="193" y="-306.1" font-family="Verdana" font-size="8.00">+ «abstract» filter(p : Closure)</text>
<text text-anchor="start" x="193" y="-293.1" font-family="Verdana" font-size="8.00">+ «abstract» map(func : Closure)</text>
<text text-anchor="start" x="193" y="-280.1" font-family="Verdana" font-size="8.00">+ «abstract» partition(p : Closure)</text>
<text text-anchor="start" x="193" y="-267.1" font-family="Verdana" font-size="8.00">+ «abstract» forAll(p : Closure)</text>
<text text-anchor="start" x="193" y="-254.1" font-family="Verdana" font-size="8.00">+ «abstract» indexOf(element : mixed)</text>
<text text-anchor="start" x="193" y="-241.1" font-family="Verdana" font-size="8.00">+ «abstract» findFirst(p : Closure)</text>
<text text-anchor="start" x="193" y="-228.1" font-family="Verdana" font-size="8.00">+ «abstract» reduce(func : Closure, initial : mixed = «unknown»)</text>
</g>
<!-- Doctrine\\Common\\Collections\\Collection&#45;&gt;Doctrine\\Common\\Collections\\ReadableCollection -->
<g id="edge4" class="edge">
<title>Doctrine\\Common\\Collections\\Collection&#45;&gt;Doctrine\\Common\\Collections\\ReadableCollection</title>
<path fill="none" stroke="black" stroke-dasharray="5,2" d="M297.34,-576.99C299.01,-564.82 300.81,-551.68 302.67,-538.14"/>
<polygon fill="none" stroke="black" points="306.14,-538.61 304.03,-528.23 299.2,-537.66 306.14,-538.61"/>
</g>
<!-- ArrayAccess -->
<g id="node10" class="node">
<title>ArrayAccess</title>
<polygon fill="#fefece" stroke="transparent" points="649,-174 425,-174 425,-88 649,-88 649,-174"/>
<polygon fill="#eeeeee" stroke="transparent" points="425,-152 425,-174 649,-174 649,-152 425,-152"/>
<polygon fill="none" stroke="black" points="425,-152 425,-174 649,-174 649,-152 425,-152"/>
<text text-anchor="start" x="511" y="-165.6" font-family="Verdana" font-weight="bold" font-size="8.00">«interface»</text>
<text text-anchor="start" x="510" y="-157.6" font-family="Verdana" font-weight="bold" font-size="8.00">ArrayAccess</text>
<polygon fill="none" stroke="black" points="425,-146 425,-152 649,-152 649,-146 425,-146"/>
<polygon fill="none" stroke="black" points="425,-88 425,-146 649,-146 649,-88 425,-88"/>
<text text-anchor="start" x="430" y="-134.6" font-family="Verdana" font-size="8.00">+ «abstract» offsetExists(offset : mixed)</text>
<text text-anchor="start" x="430" y="-121.6" font-family="Verdana" font-size="8.00">+ «abstract» offsetGet(offset : mixed)</text>
<text text-anchor="start" x="430" y="-108.6" font-family="Verdana" font-size="8.00">+ «abstract» offsetSet(offset : mixed, value : mixed)</text>
<text text-anchor="start" x="430" y="-95.6" font-family="Verdana" font-size="8.00">+ «abstract» offsetUnset(offset : mixed)</text>
</g>
<!-- Doctrine\\Common\\Collections\\Collection&#45;&gt;ArrayAccess -->
<g id="edge5" class="edge">
<title>Doctrine\\Common\\Collections\\Collection&#45;&gt;ArrayAccess</title>
<path fill="none" stroke="black" stroke-dasharray="5,2" d="M377.74,-576.91C384.5,-572.4 391.3,-568.05 398,-564 429.3,-545.08 450.15,-557.33 472,-528 548.54,-425.27 548.66,-265.8 542.65,-184.11"/>
<polygon fill="none" stroke="black" points="546.14,-183.76 541.86,-174.07 539.16,-184.31 546.14,-183.76"/>
</g>
<!-- Countable -->
<g id="node7" class="node">
<title>Countable</title>
<polygon fill="#fefece" stroke="transparent" points="272.5,-154.5 177.5,-154.5 177.5,-107.5 272.5,-107.5 272.5,-154.5"/>
<polygon fill="#eeeeee" stroke="transparent" points="178,-132 178,-154 273,-154 273,-132 178,-132"/>
<polygon fill="none" stroke="black" points="178,-132 178,-154 273,-154 273,-132 178,-132"/>
<text text-anchor="start" x="199.5" y="-145.6" font-family="Verdana" font-weight="bold" font-size="8.00">«interface»</text>
<text text-anchor="start" x="202" y="-137.6" font-family="Verdana" font-weight="bold" font-size="8.00">Countable</text>
<polygon fill="none" stroke="black" points="178,-126 178,-132 273,-132 273,-126 178,-126"/>
<polygon fill="none" stroke="black" points="178,-107 178,-126 273,-126 273,-107 178,-107"/>
<text text-anchor="start" x="183" y="-114.6" font-family="Verdana" font-size="8.00">+ «abstract» count()</text>
</g>
<!-- Doctrine\\Common\\Collections\\ReadableCollection&#45;&gt;Countable -->
<g id="edge1" class="edge">
<title>Doctrine\\Common\\Collections\\ReadableCollection&#45;&gt;Countable</title>
<path fill="none" stroke="black" stroke-dasharray="5,2" d="M261.81,-220.9C253.01,-199.64 244.79,-179.8 238.37,-164.28"/>
<polygon fill="none" stroke="black" points="241.47,-162.63 234.41,-154.73 235,-165.31 241.47,-162.63"/>
</g>
<!-- IteratorAggregate -->
<g id="node8" class="node">
<title>IteratorAggregate</title>
<polygon fill="#fefece" stroke="transparent" points="407,-154.5 291,-154.5 291,-107.5 407,-107.5 407,-154.5"/>
<polygon fill="#eeeeee" stroke="transparent" points="291,-132 291,-154 407,-154 407,-132 291,-132"/>
<polygon fill="none" stroke="black" points="291,-132 291,-154 407,-154 407,-132 291,-132"/>
<text text-anchor="start" x="323" y="-145.6" font-family="Verdana" font-weight="bold" font-size="8.00">«interface»</text>
<text text-anchor="start" x="308" y="-137.6" font-family="Verdana" font-weight="bold" font-size="8.00">IteratorAggregate</text>
<polygon fill="none" stroke="black" points="291,-126 291,-132 407,-132 407,-126 291,-126"/>
<polygon fill="none" stroke="black" points="291,-107 291,-126 407,-126 407,-107 291,-107"/>
<text text-anchor="start" x="296" y="-114.6" font-family="Verdana" font-size="8.00">+ «abstract» getIterator()</text>
</g>
<!-- Doctrine\\Common\\Collections\\ReadableCollection&#45;&gt;IteratorAggregate -->
<g id="edge3" class="edge">
<title>Doctrine\\Common\\Collections\\ReadableCollection&#45;&gt;IteratorAggregate</title>
<path fill="none" stroke="black" stroke-dasharray="5,2" d="M340.17,-220.9C342.26,-199.84 344.21,-180.18 345.75,-164.72"/>
<polygon fill="none" stroke="black" points="349.23,-165.03 346.74,-154.73 342.27,-164.34 349.23,-165.03"/>
</g>
<!-- Traversable -->
<g id="node9" class="node">
<title>Traversable</title>
<polygon fill="#fefece" stroke="transparent" points="378,-52 320,-52 320,-16 378,-16 378,-52"/>
<polygon fill="#eeeeee" stroke="transparent" points="320,-29 320,-51 378,-51 378,-29 320,-29"/>
<polygon fill="none" stroke="black" points="320,-29 320,-51 378,-51 378,-29 320,-29"/>
<text text-anchor="start" x="323" y="-42.6" font-family="Verdana" font-weight="bold" font-size="8.00">«interface»</text>
<text text-anchor="start" x="323" y="-34.6" font-family="Verdana" font-weight="bold" font-size="8.00">Traversable</text>
<polygon fill="none" stroke="black" points="320,-23 320,-29 378,-29 378,-23 320,-23"/>
<polygon fill="none" stroke="black" points="320,-17 320,-23 378,-23 378,-17 320,-17"/>
</g>
<!-- IteratorAggregate&#45;&gt;Traversable -->
<g id="edge2" class="edge">
<title>IteratorAggregate&#45;&gt;Traversable</title>
<path fill="none" stroke="black" stroke-dasharray="5,2" d="M349,-107.49C349,-93.93 349,-76.58 349,-62.26"/>
<polygon fill="none" stroke="black" points="352.5,-62 349,-52 345.5,-62 352.5,-62"/>
</g>
<!-- PhpParser\\ErrorHandler -->
<g id="node18" class="node">
<title>PhpParser\\ErrorHandler</title>
<polygon fill="#fefece" stroke="transparent" points="1454,-669.5 1244,-669.5 1244,-622.5 1454,-622.5 1454,-669.5"/>
<polygon fill="#eeeeee" stroke="transparent" points="1244,-647 1244,-669 1454,-669 1454,-647 1244,-647"/>
<polygon fill="none" stroke="black" points="1244,-647 1244,-669 1454,-669 1454,-647 1244,-647"/>
<text text-anchor="start" x="1323" y="-660.6" font-family="Verdana" font-weight="bold" font-size="8.00">«interface»</text>
<text text-anchor="start" x="1320" y="-652.6" font-family="Verdana" font-weight="bold" font-size="8.00">ErrorHandler</text>
<polygon fill="none" stroke="black" points="1244,-641 1244,-647 1454,-647 1454,-641 1244,-641"/>
<polygon fill="none" stroke="black" points="1244,-622 1244,-641 1454,-641 1454,-622 1244,-622"/>
<text text-anchor="start" x="1249" y="-629.6" font-family="Verdana" font-size="8.00">+ «abstract» handleError(error : PhpParser\Error)</text>
</g>
<!-- Bartlett\\CompatInfo\\Application\\DataCollector\\ErrorHandler&#45;&gt;PhpParser\\ErrorHandler -->
<g id="edge10" class="edge">
<title>Bartlett\\CompatInfo\\Application\\DataCollector\\ErrorHandler&#45;&gt;PhpParser\\ErrorHandler</title>
<path fill="none" stroke="black" stroke-dasharray="5,2" d="M1165.97,-971.85C1189.09,-923.9 1232.41,-836.28 1274,-764 1291.07,-734.33 1312.26,-701.61 1327.75,-678.34"/>
<polygon fill="none" stroke="black" points="1330.74,-680.16 1333.39,-669.9 1324.92,-676.27 1330.74,-680.16"/>
</g>
<!-- Bartlett\\CompatInfo\\Application\\DataCollector\\DataCollector -->
<g id="node13" class="node">
<title>Bartlett\\CompatInfo\\Application\\DataCollector\\DataCollector</title>
<polygon fill="#fefece" stroke="transparent" points="1149.5,-728 742.5,-728 742.5,-564 1149.5,-564 1149.5,-728"/>
<polygon fill="#eeeeee" stroke="transparent" points="743,-706 743,-728 1150,-728 1150,-706 743,-706"/>
<polygon fill="none" stroke="black" points="743,-706 743,-728 1150,-728 1150,-706 743,-706"/>
<text text-anchor="start" x="922.5" y="-719.6" font-family="Verdana" font-weight="bold" font-size="8.00">«abstract»</text>
<text text-anchor="start" x="916" y="-711.6" font-family="Verdana" font-weight="bold" font-size="8.00">DataCollector</text>
<polygon fill="none" stroke="black" points="743,-700 743,-706 1150,-706 1150,-700 743,-700"/>
<polygon fill="none" stroke="black" points="743,-564 743,-700 1150,-700 1150,-564 743,-564"/>
<text text-anchor="start" x="748" y="-688.6" font-family="Verdana" font-size="8.00">+ __construct(visitor : Bartlett\CompatInfo\Application\PhpParser\NodeVisitor\NodeVisitor)</text>
<text text-anchor="start" x="748" y="-675.6" font-family="Verdana" font-size="8.00">+ reset() : void</text>
<text text-anchor="start" x="748" y="-662.6" font-family="Verdana" font-size="8.00">+ getData() : array</text>
<text text-anchor="start" x="748" y="-649.6" font-family="Verdana" font-size="8.00">+ collect(nodes : array) : array</text>
<text text-anchor="start" x="748" y="-636.6" font-family="Verdana" font-size="8.00">+ setName(name : string) : Bartlett\CompatInfo\Application\DataCollector\DataCollectorInterface</text>
<text text-anchor="start" x="748" y="-623.6" font-family="Verdana" font-size="8.00">+ getName() : string</text>
<text text-anchor="start" x="748" y="-610.6" font-family="Verdana" font-size="8.00">+ addFile(file : Symfony\Component\Finder\SplFileInfo) : void</text>
<text text-anchor="start" x="748" y="-597.6" font-family="Verdana" font-size="8.00">+ getFiles() : array</text>
<text text-anchor="start" x="748" y="-584.6" font-family="Verdana" font-size="8.00">+ addErrors(errors : array) : void</text>
<text text-anchor="start" x="748" y="-571.6" font-family="Verdana" font-size="8.00">+ getErrors() : array</text>
</g>
<!-- Bartlett\\CompatInfo\\Application\\DataCollector\\DataCollectorInterface -->
<g id="node14" class="node">
<title>Bartlett\\CompatInfo\\Application\\DataCollector\\DataCollectorInterface</title>
<polygon fill="#fefece" stroke="transparent" points="1183.5,-450 730.5,-450 730.5,-299 1183.5,-299 1183.5,-450"/>
<polygon fill="#eeeeee" stroke="transparent" points="731,-427.5 731,-449.5 1184,-449.5 1184,-427.5 731,-427.5"/>
<polygon fill="none" stroke="black" points="731,-427.5 731,-449.5 1184,-449.5 1184,-427.5 731,-427.5"/>
<text text-anchor="start" x="931.5" y="-441.1" font-family="Verdana" font-weight="bold" font-size="8.00">«interface»</text>
<text text-anchor="start" x="906.5" y="-433.1" font-family="Verdana" font-weight="bold" font-size="8.00">DataCollectorInterface</text>
<polygon fill="none" stroke="black" points="731,-421.5 731,-427.5 1184,-427.5 1184,-421.5 731,-421.5"/>
<polygon fill="none" stroke="black" points="731,-298.5 731,-421.5 1184,-421.5 1184,-298.5 731,-298.5"/>
<text text-anchor="start" x="736" y="-410.1" font-family="Verdana" font-size="8.00">+ «abstract» reset() : void</text>
<text text-anchor="start" x="736" y="-397.1" font-family="Verdana" font-size="8.00">+ «abstract» getData() : array</text>
<text text-anchor="start" x="736" y="-384.1" font-family="Verdana" font-size="8.00">+ «abstract» collect(nodes : array) : array</text>
<text text-anchor="start" x="736" y="-371.1" font-family="Verdana" font-size="8.00">+ «abstract» setName(name : string) : Bartlett\CompatInfo\Application\DataCollector\DataCollectorInterface</text>
<text text-anchor="start" x="736" y="-358.1" font-family="Verdana" font-size="8.00">+ «abstract» getName() : string</text>
<text text-anchor="start" x="736" y="-345.1" font-family="Verdana" font-size="8.00">+ «abstract» addFile(file : Symfony\Component\Finder\SplFileInfo) : void</text>
<text text-anchor="start" x="736" y="-332.1" font-family="Verdana" font-size="8.00">+ «abstract» getFiles() : array</text>
<text text-anchor="start" x="736" y="-319.1" font-family="Verdana" font-size="8.00">+ «abstract» addErrors(errors : array) : void</text>
<text text-anchor="start" x="736" y="-306.1" font-family="Verdana" font-size="8.00">+ «abstract» getErrors() : array</text>
</g>
<!-- Bartlett\\CompatInfo\\Application\\DataCollector\\DataCollector&#45;&gt;Bartlett\\CompatInfo\\Application\\DataCollector\\DataCollectorInterface -->
<g id="edge14" class="edge">
<title>Bartlett\\CompatInfo\\Application\\DataCollector\\DataCollector&#45;&gt;Bartlett\\CompatInfo\\Application\\DataCollector\\DataCollectorInterface</title>
<path fill="none" stroke="black" stroke-dasharray="5,2" d="M949.32,-563.78C950.65,-531.05 952.19,-493.29 953.54,-460.22"/>
<polygon fill="none" stroke="black" points="957.04,-460.26 953.95,-450.12 950.05,-459.97 957.04,-460.26"/>
</g>
<!-- Bartlett\\CompatInfo\\Application\\DataCollector\\RuleUpdater -->
<g id="node15" class="node">
<title>Bartlett\\CompatInfo\\Application\\DataCollector\\RuleUpdater</title>
<polygon fill="#fefece" stroke="transparent" points="1060,-1026.5 996,-1026.5 996,-990.5 1060,-990.5 1060,-1026.5"/>
<polygon fill="#eeeeee" stroke="transparent" points="996,-1003.5 996,-1025.5 1060,-1025.5 1060,-1003.5 996,-1003.5"/>
<polygon fill="none" stroke="black" points="996,-1003.5 996,-1025.5 1060,-1025.5 1060,-1003.5 996,-1003.5"/>
<text text-anchor="start" x="999" y="-1009.1" font-family="Verdana" font-weight="bold" font-size="8.00">RuleUpdater</text>
<polygon fill="none" stroke="black" points="996,-997.5 996,-1003.5 1060,-1003.5 1060,-997.5 996,-997.5"/>
<polygon fill="none" stroke="black" points="996,-991.5 996,-997.5 1060,-997.5 1060,-991.5 996,-991.5"/>
</g>
<!-- Bartlett\\CompatInfo\\Application\\DataCollector\\VersionDataCollector -->
<g id="node16" class="node">
<title>Bartlett\\CompatInfo\\Application\\DataCollector\\VersionDataCollector</title>
<polygon fill="#fefece" stroke="transparent" points="977.5,-1136 826.5,-1136 826.5,-881 977.5,-881 977.5,-1136"/>
<polygon fill="#eeeeee" stroke="transparent" points="827,-1113.5 827,-1135.5 978,-1135.5 978,-1113.5 827,-1113.5"/>
<polygon fill="none" stroke="black" points="827,-1113.5 827,-1135.5 978,-1135.5 978,-1113.5 827,-1113.5"/>
<text text-anchor="start" x="855" y="-1119.1" font-family="Verdana" font-weight="bold" font-size="8.00">VersionDataCollector</text>
<polygon fill="none" stroke="black" points="827,-1107.5 827,-1113.5 978,-1113.5 978,-1107.5 827,-1107.5"/>
<polygon fill="none" stroke="black" points="827,-880.5 827,-1107.5 978,-1107.5 978,-880.5 827,-880.5"/>
<text text-anchor="start" x="832" y="-1096.1" font-family="Verdana" font-size="8.00">+ __construct(keysAllowed : array)</text>
<text text-anchor="start" x="832" y="-1083.1" font-family="Verdana" font-size="8.00">+ collect(nodes : array) : array</text>
<text text-anchor="start" x="832" y="-1070.1" font-family="Verdana" font-size="8.00">+ reset() : void</text>
<text text-anchor="start" x="832" y="-1057.1" font-family="Verdana" font-size="8.00">+ getData() : array</text>
<text text-anchor="start" x="832" y="-1044.1" font-family="Verdana" font-size="8.00">+ getVersions() : array</text>
<text text-anchor="start" x="832" y="-1031.1" font-family="Verdana" font-size="8.00">+ getExtensions() : array</text>
<text text-anchor="start" x="832" y="-1018.1" font-family="Verdana" font-size="8.00">+ getNamespaces() : array</text>
<text text-anchor="start" x="832" y="-1005.1" font-family="Verdana" font-size="8.00">+ getClasses() : array</text>
<text text-anchor="start" x="832" y="-992.1" font-family="Verdana" font-size="8.00">+ getInterfaces() : array</text>
<text text-anchor="start" x="832" y="-979.1" font-family="Verdana" font-size="8.00">+ getTraits() : array</text>
<text text-anchor="start" x="832" y="-966.1" font-family="Verdana" font-size="8.00">+ getMethods() : array</text>
<text text-anchor="start" x="832" y="-953.1" font-family="Verdana" font-size="8.00">+ getGenerators() : array</text>
<text text-anchor="start" x="832" y="-940.1" font-family="Verdana" font-size="8.00">+ getFunctions() : array</text>
<text text-anchor="start" x="832" y="-927.1" font-family="Verdana" font-size="8.00">+ getConstants() : array</text>
<text text-anchor="start" x="832" y="-914.1" font-family="Verdana" font-size="8.00">+ getDirectives() : array</text>
<text text-anchor="start" x="832" y="-901.1" font-family="Verdana" font-size="8.00">+ getConditions() : array</text>
<text text-anchor="start" x="832" y="-888.1" font-family="Verdana" font-size="8.00">+ getHooks() : array</text>
</g>
<!-- Bartlett\\CompatInfo\\Application\\DataCollector\\VersionDataCollector&#45;&gt;Bartlett\\CompatInfo\\Application\\DataCollector\\DataCollector -->
<g id="edge15" class="edge">
<title>Bartlett\\CompatInfo\\Application\\DataCollector\\VersionDataCollector&#45;&gt;Bartlett\\CompatInfo\\Application\\DataCollector\\DataCollector</title>
<path fill="none" stroke="black" d="M917.45,-880.91C923.19,-833.85 929.59,-781.43 934.87,-738.16"/>
<polygon fill="none" stroke="black" points="938.35,-738.57 936.09,-728.22 931.4,-737.72 938.35,-738.57"/>
</g>
<!-- Bartlett\\CompatInfo\\Application\\DataCollector\\VersionUpdater -->
<g id="node17" class="node">
<title>Bartlett\\CompatInfo\\Application\\DataCollector\\VersionUpdater</title>
<polygon fill="#fefece" stroke="transparent" points="808.5,-1026.5 731.5,-1026.5 731.5,-990.5 808.5,-990.5 808.5,-1026.5"/>
<polygon fill="#eeeeee" stroke="transparent" points="732,-1003.5 732,-1025.5 809,-1025.5 809,-1003.5 732,-1003.5"/>
<polygon fill="none" stroke="black" points="732,-1003.5 732,-1025.5 809,-1025.5 809,-1003.5 732,-1003.5"/>
<text text-anchor="start" x="735" y="-1009.1" font-family="Verdana" font-weight="bold" font-size="8.00">VersionUpdater</text>
<polygon fill="none" stroke="black" points="732,-997.5 732,-1003.5 809,-1003.5 809,-997.5 732,-997.5"/>
<polygon fill="none" stroke="black" points="732,-991.5 732,-997.5 809,-997.5 809,-991.5 732,-991.5"/>
</g>
<!-- Bartlett\\CompatInfo\\Application\\DataCollector\\Normalizer\\NodeNormalizer -->
<g id="node19" class="node">
<title>Bartlett\\CompatInfo\\Application\\DataCollector\\Normalizer\\NodeNormalizer</title>
<polygon fill="#fefece" stroke="transparent" points="1630.5,-1379.5 1313.5,-1379.5 1313.5,-1306.5 1630.5,-1306.5 1630.5,-1379.5"/>
<polygon fill="#eeeeee" stroke="transparent" points="1314,-1357 1314,-1379 1631,-1379 1631,-1357 1314,-1357"/>
<polygon fill="none" stroke="black" points="1314,-1357 1314,-1379 1631,-1379 1631,-1357 1314,-1357"/>
<text text-anchor="start" x="1436" y="-1362.6" font-family="Verdana" font-weight="bold" font-size="8.00">NodeNormalizer</text>
<polygon fill="none" stroke="black" points="1314,-1351 1314,-1357 1631,-1357 1631,-1351 1314,-1351"/>
<polygon fill="none" stroke="black" points="1314,-1306 1314,-1351 1631,-1351 1631,-1306 1314,-1306"/>
<text text-anchor="start" x="1319" y="-1339.6" font-family="Verdana" font-size="8.00">+ normalize(object, format = «unknown», context : array = []) : ?array</text>
<text text-anchor="start" x="1319" y="-1326.6" font-family="Verdana" font-size="8.00">+ supportsNormalization(data : mixed, format : string = «unknown») : bool</text>
<text text-anchor="start" x="1319" y="-1313.6" font-family="Verdana" font-size="8.00">+ getSupportedTypes(format : string) : array</text>
</g>
<!-- Symfony\\Component\\Serializer\\Normalizer\\NormalizerInterface -->
<g id="node20" class="node">
<title>Symfony\\Component\\Serializer\\Normalizer\\NormalizerInterface</title>
<polygon fill="#fefece" stroke="transparent" points="1658,-1038.5 1286,-1038.5 1286,-978.5 1658,-978.5 1658,-1038.5"/>
<polygon fill="#eeeeee" stroke="transparent" points="1286,-1016.5 1286,-1038.5 1658,-1038.5 1658,-1016.5 1286,-1016.5"/>
<polygon fill="none" stroke="black" points="1286,-1016.5 1286,-1038.5 1658,-1038.5 1658,-1016.5 1286,-1016.5"/>
<text text-anchor="start" x="1446" y="-1030.1" font-family="Verdana" font-weight="bold" font-size="8.00">«interface»</text>
<text text-anchor="start" x="1427" y="-1022.1" font-family="Verdana" font-weight="bold" font-size="8.00">NormalizerInterface</text>
<polygon fill="none" stroke="black" points="1286,-1010.5 1286,-1016.5 1658,-1016.5 1658,-1010.5 1286,-1010.5"/>
<polygon fill="none" stroke="black" points="1286,-978.5 1286,-1010.5 1658,-1010.5 1658,-978.5 1286,-978.5"/>
<text text-anchor="start" x="1291" y="-999.1" font-family="Verdana" font-size="8.00">+ «abstract» normalize(object : mixed, format : string = «unknown», context : array = [])</text>
<text text-anchor="start" x="1291" y="-986.1" font-family="Verdana" font-size="8.00">+ «abstract» supportsNormalization(data : mixed, format : string = «unknown»)</text>
</g>
<!-- Bartlett\\CompatInfo\\Application\\DataCollector\\Normalizer\\NodeNormalizer&#45;&gt;Symfony\\Component\\Serializer\\Normalizer\\NormalizerInterface -->
<g id="edge13" class="edge">
<title>Bartlett\\CompatInfo\\Application\\DataCollector\\Normalizer\\NodeNormalizer&#45;&gt;Symfony\\Component\\Serializer\\Normalizer\\NormalizerInterface</title>
<path fill="none" stroke="black" stroke-dasharray="5,2" d="M1472,-1306.42C1472,-1243.73 1472,-1114.09 1472,-1048.84"/>
<polygon fill="none" stroke="black" points="1475.5,-1048.56 1472,-1038.56 1468.5,-1048.56 1475.5,-1048.56"/>
</g>
</g>
</svg>
