<?xml version="1.0" encoding="UTF-8" standalone="no"?>
<!DOCTYPE svg PUBLIC "-//W3C//DTD SVG 1.1//EN"
 "http://www.w3.org/Graphics/SVG/1.1/DTD/svg11.dtd">
<!-- Generated by graphviz version 2.43.0 (0)
 -->
<!-- Title: %3 Pages: 1 -->
<svg width="2852pt" height="1087pt"
 viewBox="0.00 0.00 2852.00 1087.00" xmlns="http://www.w3.org/2000/svg" xmlns:xlink="http://www.w3.org/1999/xlink">
<g id="graph0" class="graph" transform="scale(1 1) rotate(0) translate(4 1083)">
<title>%3</title>
<g id="clust1" class="cluster">
<title>cluster_0</title>
<polygon fill="Bisque" stroke="black" points="414,-810 414,-962 827,-962 827,-810 414,-810"/>
<text text-anchor="middle" x="620.5" y="-946.8" font-family="Times,serif" font-size="14.00">Bartlett\CompatInfo\Application\PhpParser\Node\Name</text>
</g>
<g id="clust2" class="cluster">
<title>cluster_1</title>
<polygon fill="transparent" stroke="black" points="1439,-842 1439,-993 1618,-993 1618,-842 1439,-842"/>
<text text-anchor="middle" x="1528.5" y="-977.8" font-family="Times,serif" font-size="14.00">PhpParser\Node\Name</text>
</g>
<g id="clust3" class="cluster">
<title>cluster_2</title>
<polygon fill="transparent" stroke="black" points="1854.5,-764 1854.5,-1071 2175.5,-1071 2175.5,-764 1854.5,-764"/>
<text text-anchor="middle" x="2015" y="-1055.8" font-family="Times,serif" font-size="14.00">PhpParser\Node</text>
</g>
<g id="clust4" class="cluster">
<title>cluster_3</title>
<polygon fill="transparent" stroke="black" points="2226,-479 2226,-878 2836,-878 2836,-479 2226,-479"/>
<text text-anchor="middle" x="2531" y="-862.8" font-family="Times,serif" font-size="14.00">PhpParser</text>
</g>
<g id="clust5" class="cluster">
<title>cluster_4</title>
<polygon fill="transparent" stroke="black" points="2597.5,-886 2597.5,-1038 2756.5,-1038 2756.5,-886 2597.5,-886"/>
<text text-anchor="middle" x="2677" y="-1022.8" font-family="Times,serif" font-size="14.00">0</text>
</g>
<g id="clust6" class="cluster">
<title>cluster_5</title>
<polygon fill="Bisque" stroke="black" points="1253,-8 1253,-367 2183,-367 2183,-8 1253,-8"/>
<text text-anchor="middle" x="1718" y="-351.8" font-family="Times,serif" font-size="14.00">Bartlett\CompatInfo\Application\PhpParser\NodeVisitor</text>
</g>
<g id="clust7" class="cluster">
<title>cluster_6</title>
<polygon fill="transparent" stroke="black" points="1824,-375 1824,-604 2206,-604 2206,-375 1824,-375"/>
<text text-anchor="middle" x="2015" y="-588.8" font-family="Times,serif" font-size="14.00">PhpParser\NodeVisitor</text>
</g>
<g id="clust8" class="cluster">
<title>cluster_7</title>
<polygon fill="BurlyWood" stroke="black" points="8,-971 8,-1070 1233,-1070 1233,-971 8,-971"/>
<text text-anchor="middle" x="620.5" y="-1054.8" font-family="Times,serif" font-size="14.00">Bartlett\CompatInfo\Application\PhpParser</text>
</g>
<!-- Bartlett\\CompatInfo\\Application\\PhpParser\\Node\\Name\\ClassFullyQualified -->
<g id="node1" class="node">
<title>Bartlett\\CompatInfo\\Application\\PhpParser\\Node\\Name\\ClassFullyQualified</title>
<polygon fill="#fefece" stroke="transparent" points="667.5,-930.5 573.5,-930.5 573.5,-883.5 667.5,-883.5 667.5,-930.5"/>
<polygon fill="#eeeeee" stroke="transparent" points="573.5,-908 573.5,-930 667.5,-930 667.5,-908 573.5,-908"/>
<polygon fill="none" stroke="black" points="573.5,-908 573.5,-930 667.5,-930 667.5,-908 573.5,-908"/>
<text text-anchor="start" x="576.5" y="-913.6" font-family="Verdana" font-weight="bold" font-size="8.00">ClassFullyQualified</text>
<polygon fill="none" stroke="black" points="573.5,-902 573.5,-908 667.5,-908 667.5,-902 573.5,-902"/>
<polygon fill="none" stroke="black" points="573.5,-883 573.5,-902 667.5,-902 667.5,-883 573.5,-883"/>
<text text-anchor="start" x="578.5" y="-890.6" font-family="Verdana" font-size="8.00">+ getType() : string</text>
</g>
<!-- PhpParser\\Node\\Name\\FullyQualified -->
<g id="node3" class="node">
<title>PhpParser\\Node\\Name\\FullyQualified</title>
<polygon fill="#fefece" stroke="transparent" points="1585,-962 1472,-962 1472,-850 1585,-850 1585,-962"/>
<polygon fill="#eeeeee" stroke="transparent" points="1472.5,-940 1472.5,-962 1585.5,-962 1585.5,-940 1472.5,-940"/>
<polygon fill="none" stroke="black" points="1472.5,-940 1472.5,-962 1585.5,-962 1585.5,-940 1472.5,-940"/>
<text text-anchor="start" x="1497" y="-945.6" font-family="Verdana" font-weight="bold" font-size="8.00">FullyQualified</text>
<polygon fill="none" stroke="black" points="1472.5,-934 1472.5,-940 1585.5,-940 1585.5,-934 1472.5,-934"/>
<polygon fill="none" stroke="black" points="1472.5,-850 1472.5,-934 1585.5,-934 1585.5,-850 1472.5,-850"/>
<text text-anchor="start" x="1477.5" y="-922.6" font-family="Verdana" font-size="8.00">+ isUnqualified() : bool</text>
<text text-anchor="start" x="1477.5" y="-909.6" font-family="Verdana" font-size="8.00">+ isQualified() : bool</text>
<text text-anchor="start" x="1477.5" y="-896.6" font-family="Verdana" font-size="8.00">+ isFullyQualified() : bool</text>
<text text-anchor="start" x="1477.5" y="-883.6" font-family="Verdana" font-size="8.00">+ isRelative() : bool</text>
<text text-anchor="start" x="1477.5" y="-870.6" font-family="Verdana" font-size="8.00">+ toCodeString() : string</text>
<text text-anchor="start" x="1477.5" y="-857.6" font-family="Verdana" font-size="8.00">+ getType() : string</text>
</g>
<!-- Bartlett\\CompatInfo\\Application\\PhpParser\\Node\\Name\\ClassFullyQualified&#45;&gt;PhpParser\\Node\\Name\\FullyQualified -->
<g id="edge6" class="edge">
<title>Bartlett\\CompatInfo\\Application\\PhpParser\\Node\\Name\\ClassFullyQualified&#45;&gt;PhpParser\\Node\\Name\\FullyQualified</title>
<path fill="none" stroke="black" d="M667.67,-906.95C817.05,-906.78 1287.56,-906.26 1461.78,-906.07"/>
<polygon fill="none" stroke="black" points="1461.84,-909.57 1471.83,-906.06 1461.83,-902.57 1461.84,-909.57"/>
</g>
<!-- Bartlett\\CompatInfo\\Application\\PhpParser\\Node\\Name\\InterfaceFullyQualified -->
<g id="node2" class="node">
<title>Bartlett\\CompatInfo\\Application\\PhpParser\\Node\\Name\\InterfaceFullyQualified</title>
<polygon fill="#fefece" stroke="transparent" points="676,-865.5 565,-865.5 565,-818.5 676,-818.5 676,-865.5"/>
<polygon fill="#eeeeee" stroke="transparent" points="565.5,-843 565.5,-865 676.5,-865 676.5,-843 565.5,-843"/>
<polygon fill="none" stroke="black" points="565.5,-843 565.5,-865 676.5,-865 676.5,-843 565.5,-843"/>
<text text-anchor="start" x="568.5" y="-848.6" font-family="Verdana" font-weight="bold" font-size="8.00">InterfaceFullyQualified</text>
<polygon fill="none" stroke="black" points="565.5,-837 565.5,-843 676.5,-843 676.5,-837 565.5,-837"/>
<polygon fill="none" stroke="black" points="565.5,-818 565.5,-837 676.5,-837 676.5,-818 565.5,-818"/>
<text text-anchor="start" x="570.5" y="-825.6" font-family="Verdana" font-size="8.00">+ getType() : string</text>
</g>
<!-- Bartlett\\CompatInfo\\Application\\PhpParser\\Node\\Name\\InterfaceFullyQualified&#45;&gt;PhpParser\\Node\\Name\\FullyQualified -->
<g id="edge7" class="edge">
<title>Bartlett\\CompatInfo\\Application\\PhpParser\\Node\\Name\\InterfaceFullyQualified&#45;&gt;PhpParser\\Node\\Name\\FullyQualified</title>
<path fill="none" stroke="black" d="M676.38,-844.02C783.5,-848.18 1027.92,-858.68 1233,-875 1311.85,-881.27 1402.29,-891.2 1461.91,-898.13"/>
<polygon fill="none" stroke="black" points="1461.6,-901.62 1471.94,-899.3 1462.41,-894.66 1461.6,-901.62"/>
</g>
<!-- PhpParser\\Node\\Name -->
<g id="node4" class="node">
<title>PhpParser\\Node\\Name</title>
<polygon fill="#fefece" stroke="transparent" points="2167.5,-1040 1862.5,-1040 1862.5,-772 2167.5,-772 2167.5,-1040"/>
<polygon fill="#eeeeee" stroke="transparent" points="1863,-1018 1863,-1040 2168,-1040 2168,-1018 1863,-1018"/>
<polygon fill="none" stroke="black" points="1863,-1018 1863,-1040 2168,-1040 2168,-1018 1863,-1018"/>
<text text-anchor="start" x="2002.5" y="-1023.6" font-family="Verdana" font-weight="bold" font-size="8.00">Name</text>
<polygon fill="none" stroke="black" points="1863,-999 1863,-1018 2168,-1018 2168,-999 1863,-999"/>
<text text-anchor="start" x="1868" y="-1006.6" font-family="Verdana" font-size="8.00">+ parts : mixed</text>
<polygon fill="none" stroke="black" points="1863,-772 1863,-999 2168,-999 2168,-772 1863,-772"/>
<text text-anchor="start" x="1868" y="-987.6" font-family="Verdana" font-size="8.00">+ __construct(name : mixed, attributes : array = [])</text>
<text text-anchor="start" x="1868" y="-974.6" font-family="Verdana" font-size="8.00">+ getSubNodeNames() : array</text>
<text text-anchor="start" x="1868" y="-961.6" font-family="Verdana" font-size="8.00">+ getParts() : array</text>
<text text-anchor="start" x="1868" y="-948.6" font-family="Verdana" font-size="8.00">+ getFirst() : string</text>
<text text-anchor="start" x="1868" y="-935.6" font-family="Verdana" font-size="8.00">+ getLast() : string</text>
<text text-anchor="start" x="1868" y="-922.6" font-family="Verdana" font-size="8.00">+ isUnqualified() : bool</text>
<text text-anchor="start" x="1868" y="-909.6" font-family="Verdana" font-size="8.00">+ isQualified() : bool</text>
<text text-anchor="start" x="1868" y="-896.6" font-family="Verdana" font-size="8.00">+ isFullyQualified() : bool</text>
<text text-anchor="start" x="1868" y="-883.6" font-family="Verdana" font-size="8.00">+ isRelative() : bool</text>
<text text-anchor="start" x="1868" y="-870.6" font-family="Verdana" font-size="8.00">+ toString() : string</text>
<text text-anchor="start" x="1868" y="-857.6" font-family="Verdana" font-size="8.00">+ toCodeString() : string</text>
<text text-anchor="start" x="1868" y="-844.6" font-family="Verdana" font-size="8.00">+ toLowerString() : string</text>
<text text-anchor="start" x="1868" y="-831.6" font-family="Verdana" font-size="8.00">+ isSpecialClassName() : bool</text>
<text text-anchor="start" x="1868" y="-818.6" font-family="Verdana" font-size="8.00">+ __toString() : string</text>
<text text-anchor="start" x="1868" y="-805.6" font-family="Verdana" font-size="8.00">+ slice(offset : int, length : int = «unknown»)</text>
<text text-anchor="start" x="1868" y="-792.6" font-family="Verdana" font-size="8.00">+ «static» concat(name1 : mixed, name2 : mixed, attributes : array = [])</text>
<text text-anchor="start" x="1868" y="-779.6" font-family="Verdana" font-size="8.00">+ getType() : string</text>
</g>
<!-- PhpParser\\Node\\Name\\FullyQualified&#45;&gt;PhpParser\\Node\\Name -->
<g id="edge5" class="edge">
<title>PhpParser\\Node\\Name\\FullyQualified&#45;&gt;PhpParser\\Node\\Name</title>
<path fill="none" stroke="black" d="M1585.08,-906C1649.89,-906 1759.93,-906 1852.33,-906"/>
<polygon fill="none" stroke="black" points="1852.35,-909.5 1862.35,-906 1852.35,-902.5 1852.35,-909.5"/>
</g>
<!-- PhpParser\\NodeAbstract -->
<g id="node5" class="node">
<title>PhpParser\\NodeAbstract</title>
<polygon fill="#fefece" stroke="transparent" points="2490,-846.5 2234,-846.5 2234,-591.5 2490,-591.5 2490,-846.5"/>
<polygon fill="#eeeeee" stroke="transparent" points="2234,-824 2234,-846 2490,-846 2490,-824 2234,-824"/>
<polygon fill="none" stroke="black" points="2234,-824 2234,-846 2490,-846 2490,-824 2234,-824"/>
<text text-anchor="start" x="2338" y="-837.6" font-family="Verdana" font-weight="bold" font-size="8.00">«abstract»</text>
<text text-anchor="start" x="2331.5" y="-829.6" font-family="Verdana" font-weight="bold" font-size="8.00">NodeAbstract</text>
<polygon fill="none" stroke="black" points="2234,-818 2234,-824 2490,-824 2490,-818 2234,-818"/>
<polygon fill="none" stroke="black" points="2234,-591 2234,-818 2490,-818 2490,-591 2234,-591"/>
<text text-anchor="start" x="2239" y="-806.6" font-family="Verdana" font-size="8.00">+ __construct(attributes : array = [])</text>
<text text-anchor="start" x="2239" y="-793.6" font-family="Verdana" font-size="8.00">+ getLine() : int</text>
<text text-anchor="start" x="2239" y="-780.6" font-family="Verdana" font-size="8.00">+ getStartLine() : int</text>
<text text-anchor="start" x="2239" y="-767.6" font-family="Verdana" font-size="8.00">+ getEndLine() : int</text>
<text text-anchor="start" x="2239" y="-754.6" font-family="Verdana" font-size="8.00">+ getStartTokenPos() : int</text>
<text text-anchor="start" x="2239" y="-741.6" font-family="Verdana" font-size="8.00">+ getEndTokenPos() : int</text>
<text text-anchor="start" x="2239" y="-728.6" font-family="Verdana" font-size="8.00">+ getStartFilePos() : int</text>
<text text-anchor="start" x="2239" y="-715.6" font-family="Verdana" font-size="8.00">+ getEndFilePos() : int</text>
<text text-anchor="start" x="2239" y="-702.6" font-family="Verdana" font-size="8.00">+ getComments() : array</text>
<text text-anchor="start" x="2239" y="-689.6" font-family="Verdana" font-size="8.00">+ getDocComment()</text>
<text text-anchor="start" x="2239" y="-676.6" font-family="Verdana" font-size="8.00">+ setDocComment(docComment : PhpParser\Comment\Doc)</text>
<text text-anchor="start" x="2239" y="-663.6" font-family="Verdana" font-size="8.00">+ setAttribute(key : string, value)</text>
<text text-anchor="start" x="2239" y="-650.6" font-family="Verdana" font-size="8.00">+ hasAttribute(key : string) : bool</text>
<text text-anchor="start" x="2239" y="-637.6" font-family="Verdana" font-size="8.00">+ getAttribute(key : string, default = «unknown»)</text>
<text text-anchor="start" x="2239" y="-624.6" font-family="Verdana" font-size="8.00">+ getAttributes() : array</text>
<text text-anchor="start" x="2239" y="-611.6" font-family="Verdana" font-size="8.00">+ setAttributes(attributes : array)</text>
<text text-anchor="start" x="2239" y="-598.6" font-family="Verdana" font-size="8.00">+ jsonSerialize() : array</text>
</g>
<!-- PhpParser\\Node\\Name&#45;&gt;PhpParser\\NodeAbstract -->
<g id="edge3" class="edge">
<title>PhpParser\\Node\\Name&#45;&gt;PhpParser\\NodeAbstract</title>
<path fill="none" stroke="black" d="M2167.57,-823.84C2186.71,-813.47 2206.19,-802.91 2225.05,-792.69"/>
<polygon fill="none" stroke="black" points="2226.85,-795.7 2233.97,-787.85 2223.51,-789.54 2226.85,-795.7"/>
</g>
<!-- Stringable -->
<g id="node10" class="node">
<title>Stringable</title>
<polygon fill="#fefece" stroke="transparent" points="2748.5,-1006.5 2605.5,-1006.5 2605.5,-959.5 2748.5,-959.5 2748.5,-1006.5"/>
<polygon fill="#eeeeee" stroke="transparent" points="2606,-984 2606,-1006 2749,-1006 2749,-984 2606,-984"/>
<polygon fill="none" stroke="black" points="2606,-984 2606,-1006 2749,-1006 2749,-984 2606,-984"/>
<text text-anchor="start" x="2651.5" y="-997.6" font-family="Verdana" font-weight="bold" font-size="8.00">«interface»</text>
<text text-anchor="start" x="2653" y="-989.6" font-family="Verdana" font-weight="bold" font-size="8.00">Stringable</text>
<polygon fill="none" stroke="black" points="2606,-978 2606,-984 2749,-984 2749,-978 2606,-978"/>
<polygon fill="none" stroke="black" points="2606,-959 2606,-978 2749,-978 2749,-959 2606,-959"/>
<text text-anchor="start" x="2611" y="-966.6" font-family="Verdana" font-size="8.00">+ «abstract» __toString() : string</text>
</g>
<!-- PhpParser\\Node\\Name&#45;&gt;Stringable -->
<g id="edge4" class="edge">
<title>PhpParser\\Node\\Name&#45;&gt;Stringable</title>
<path fill="none" stroke="black" stroke-dasharray="5,2" d="M2167.83,-923.71C2300.95,-939.24 2489.3,-961.22 2595.33,-973.59"/>
<polygon fill="none" stroke="black" points="2594.99,-977.07 2605.33,-974.75 2595.8,-970.12 2594.99,-977.07"/>
</g>
<!-- PhpParser\\Node -->
<g id="node6" class="node">
<title>PhpParser\\Node</title>
<polygon fill="#fefece" stroke="transparent" points="2828,-846.5 2526,-846.5 2526,-591.5 2828,-591.5 2828,-846.5"/>
<polygon fill="#eeeeee" stroke="transparent" points="2526,-824 2526,-846 2828,-846 2828,-824 2526,-824"/>
<polygon fill="none" stroke="black" points="2526,-824 2526,-846 2828,-846 2828,-824 2526,-824"/>
<text text-anchor="start" x="2651" y="-837.6" font-family="Verdana" font-weight="bold" font-size="8.00">«interface»</text>
<text text-anchor="start" x="2665" y="-829.6" font-family="Verdana" font-weight="bold" font-size="8.00">Node</text>
<polygon fill="none" stroke="black" points="2526,-818 2526,-824 2828,-824 2828,-818 2526,-818"/>
<polygon fill="none" stroke="black" points="2526,-591 2526,-818 2828,-818 2828,-591 2526,-591"/>
<text text-anchor="start" x="2531" y="-806.6" font-family="Verdana" font-size="8.00">+ «abstract» getType() : string</text>
<text text-anchor="start" x="2531" y="-793.6" font-family="Verdana" font-size="8.00">+ «abstract» getSubNodeNames() : array</text>
<text text-anchor="start" x="2531" y="-780.6" font-family="Verdana" font-size="8.00">+ «abstract» getLine() : int</text>
<text text-anchor="start" x="2531" y="-767.6" font-family="Verdana" font-size="8.00">+ «abstract» getStartLine() : int</text>
<text text-anchor="start" x="2531" y="-754.6" font-family="Verdana" font-size="8.00">+ «abstract» getEndLine() : int</text>
<text text-anchor="start" x="2531" y="-741.6" font-family="Verdana" font-size="8.00">+ «abstract» getStartTokenPos() : int</text>
<text text-anchor="start" x="2531" y="-728.6" font-family="Verdana" font-size="8.00">+ «abstract» getEndTokenPos() : int</text>
<text text-anchor="start" x="2531" y="-715.6" font-family="Verdana" font-size="8.00">+ «abstract» getStartFilePos() : int</text>
<text text-anchor="start" x="2531" y="-702.6" font-family="Verdana" font-size="8.00">+ «abstract» getEndFilePos() : int</text>
<text text-anchor="start" x="2531" y="-689.6" font-family="Verdana" font-size="8.00">+ «abstract» getComments() : array</text>
<text text-anchor="start" x="2531" y="-676.6" font-family="Verdana" font-size="8.00">+ «abstract» getDocComment()</text>
<text text-anchor="start" x="2531" y="-663.6" font-family="Verdana" font-size="8.00">+ «abstract» setDocComment(docComment : PhpParser\Comment\Doc)</text>
<text text-anchor="start" x="2531" y="-650.6" font-family="Verdana" font-size="8.00">+ «abstract» setAttribute(key : string, value : mixed)</text>
<text text-anchor="start" x="2531" y="-637.6" font-family="Verdana" font-size="8.00">+ «abstract» hasAttribute(key : string) : bool</text>
<text text-anchor="start" x="2531" y="-624.6" font-family="Verdana" font-size="8.00">+ «abstract» getAttribute(key : string, default : mixed = «unknown»)</text>
<text text-anchor="start" x="2531" y="-611.6" font-family="Verdana" font-size="8.00">+ «abstract» getAttributes() : array</text>
<text text-anchor="start" x="2531" y="-598.6" font-family="Verdana" font-size="8.00">+ «abstract» setAttributes(attributes : array)</text>
</g>
<!-- PhpParser\\NodeAbstract&#45;&gt;PhpParser\\Node -->
<g id="edge1" class="edge">
<title>PhpParser\\NodeAbstract&#45;&gt;PhpParser\\Node</title>
<path fill="none" stroke="black" stroke-dasharray="5,2" d="M2490.31,-719C2498.7,-719 2507.21,-719 2515.74,-719"/>
<polygon fill="none" stroke="black" points="2515.75,-722.5 2525.75,-719 2515.75,-715.5 2515.75,-722.5"/>
</g>
<!-- JsonSerializable -->
<g id="node9" class="node">
<title>JsonSerializable</title>
<polygon fill="#fefece" stroke="transparent" points="2739.5,-941.5 2614.5,-941.5 2614.5,-894.5 2739.5,-894.5 2739.5,-941.5"/>
<polygon fill="#eeeeee" stroke="transparent" points="2615,-919 2615,-941 2740,-941 2740,-919 2615,-919"/>
<polygon fill="none" stroke="black" points="2615,-919 2615,-941 2740,-941 2740,-919 2615,-919"/>
<text text-anchor="start" x="2651.5" y="-932.6" font-family="Verdana" font-weight="bold" font-size="8.00">«interface»</text>
<text text-anchor="start" x="2641" y="-924.6" font-family="Verdana" font-weight="bold" font-size="8.00">JsonSerializable</text>
<polygon fill="none" stroke="black" points="2615,-913 2615,-919 2740,-919 2740,-913 2615,-913"/>
<polygon fill="none" stroke="black" points="2615,-894 2615,-913 2740,-913 2740,-894 2615,-894"/>
<text text-anchor="start" x="2620" y="-901.6" font-family="Verdana" font-size="8.00">+ «abstract» jsonSerialize()</text>
</g>
<!-- PhpParser\\NodeAbstract&#45;&gt;JsonSerializable -->
<g id="edge2" class="edge">
<title>PhpParser\\NodeAbstract&#45;&gt;JsonSerializable</title>
<path fill="none" stroke="black" stroke-dasharray="5,2" d="M2475.86,-846.78C2491.68,-860.05 2508.54,-872.22 2526,-882 2549.83,-895.34 2578.47,-903.77 2604.31,-909.08"/>
<polygon fill="none" stroke="black" points="2603.95,-912.57 2614.44,-911.03 2605.28,-905.7 2603.95,-912.57"/>
</g>
<!-- PhpParser\\NodeVisitorAbstract -->
<g id="node7" class="node">
<title>PhpParser\\NodeVisitorAbstract</title>
<polygon fill="#fefece" stroke="transparent" points="2444,-573 2280,-573 2280,-487 2444,-487 2444,-573"/>
<polygon fill="#eeeeee" stroke="transparent" points="2280,-551 2280,-573 2444,-573 2444,-551 2280,-551"/>
<polygon fill="none" stroke="black" points="2280,-551 2280,-573 2444,-573 2444,-551 2280,-551"/>
<text text-anchor="start" x="2316.5" y="-556.6" font-family="Verdana" font-weight="bold" font-size="8.00">NodeVisitorAbstract</text>
<polygon fill="none" stroke="black" points="2280,-545 2280,-551 2444,-551 2444,-545 2280,-545"/>
<polygon fill="none" stroke="black" points="2280,-487 2280,-545 2444,-545 2444,-487 2280,-487"/>
<text text-anchor="start" x="2285" y="-533.6" font-family="Verdana" font-size="8.00">+ beforeTraverse(nodes : array)</text>
<text text-anchor="start" x="2285" y="-520.6" font-family="Verdana" font-size="8.00">+ enterNode(node : PhpParser\Node)</text>
<text text-anchor="start" x="2285" y="-507.6" font-family="Verdana" font-size="8.00">+ leaveNode(node : PhpParser\Node)</text>
<text text-anchor="start" x="2285" y="-494.6" font-family="Verdana" font-size="8.00">+ afterTraverse(nodes : array)</text>
</g>
<!-- PhpParser\\NodeVisitor -->
<g id="node8" class="node">
<title>PhpParser\\NodeVisitor</title>
<polygon fill="#fefece" stroke="transparent" points="2782,-573 2572,-573 2572,-487 2782,-487 2782,-573"/>
<polygon fill="#eeeeee" stroke="transparent" points="2572,-551 2572,-573 2782,-573 2782,-551 2572,-551"/>
<polygon fill="none" stroke="black" points="2572,-551 2572,-573 2782,-573 2782,-551 2572,-551"/>
<text text-anchor="start" x="2651" y="-564.6" font-family="Verdana" font-weight="bold" font-size="8.00">«interface»</text>
<text text-anchor="start" x="2650.5" y="-556.6" font-family="Verdana" font-weight="bold" font-size="8.00">NodeVisitor</text>
<polygon fill="none" stroke="black" points="2572,-545 2572,-551 2782,-551 2782,-545 2572,-545"/>
<polygon fill="none" stroke="black" points="2572,-487 2572,-545 2782,-545 2782,-487 2572,-487"/>
<text text-anchor="start" x="2577" y="-533.6" font-family="Verdana" font-size="8.00">+ «abstract» beforeTraverse(nodes : array)</text>
<text text-anchor="start" x="2577" y="-520.6" font-family="Verdana" font-size="8.00">+ «abstract» enterNode(node : PhpParser\Node)</text>
<text text-anchor="start" x="2577" y="-507.6" font-family="Verdana" font-size="8.00">+ «abstract» leaveNode(node : PhpParser\Node)</text>
<text text-anchor="start" x="2577" y="-494.6" font-family="Verdana" font-size="8.00">+ «abstract» afterTraverse(nodes : array)</text>
</g>
<!-- PhpParser\\NodeVisitorAbstract&#45;&gt;PhpParser\\NodeVisitor -->
<g id="edge8" class="edge">
<title>PhpParser\\NodeVisitorAbstract&#45;&gt;PhpParser\\NodeVisitor</title>
<path fill="none" stroke="black" stroke-dasharray="5,2" d="M2444.01,-530C2479.84,-530 2522.62,-530 2561.62,-530"/>
<polygon fill="none" stroke="black" points="2561.98,-533.5 2571.98,-530 2561.98,-526.5 2561.98,-533.5"/>
</g>
<!-- Bartlett\\CompatInfo\\Application\\PhpParser\\NodeVisitor\\FilterVisitor -->
<g id="node11" class="node">
<title>Bartlett\\CompatInfo\\Application\\PhpParser\\NodeVisitor\\FilterVisitor</title>
<polygon fill="#fefece" stroke="transparent" points="1759,-76 1298,-76 1298,-16 1759,-16 1759,-76"/>
<polygon fill="#eeeeee" stroke="transparent" points="1298.5,-54 1298.5,-76 1759.5,-76 1759.5,-54 1298.5,-54"/>
<polygon fill="none" stroke="black" points="1298.5,-54 1298.5,-76 1759.5,-76 1759.5,-54 1298.5,-54"/>
<text text-anchor="start" x="1502" y="-59.6" font-family="Verdana" font-weight="bold" font-size="8.00">FilterVisitor</text>
<polygon fill="none" stroke="black" points="1298.5,-48 1298.5,-54 1759.5,-54 1759.5,-48 1298.5,-48"/>
<polygon fill="none" stroke="black" points="1298.5,-16 1298.5,-48 1759.5,-48 1759.5,-16 1298.5,-16"/>
<text text-anchor="start" x="1303.5" y="-36.6" font-family="Verdana" font-size="8.00">+ __construct(normalizer : Symfony\Component\Serializer\Normalizer\NormalizerInterface, context : array = [])</text>
<text text-anchor="start" x="1303.5" y="-23.6" font-family="Verdana" font-size="8.00">+ getCollection() : Doctrine\Common\Collections\ArrayCollection</text>
</g>
<!-- Bartlett\\CompatInfo\\Application\\PhpParser\\NodeVisitor\\NodeVisitor -->
<g id="node12" class="node">
<title>Bartlett\\CompatInfo\\Application\\PhpParser\\NodeVisitor\\NodeVisitor</title>
<polygon fill="#fefece" stroke="transparent" points="2175,-172.5 1855,-172.5 1855,-125.5 2175,-125.5 2175,-172.5"/>
<polygon fill="#eeeeee" stroke="transparent" points="1855,-150 1855,-172 2175,-172 2175,-150 1855,-150"/>
<polygon fill="none" stroke="black" points="1855,-150 1855,-172 2175,-172 2175,-150 1855,-150"/>
<text text-anchor="start" x="1989" y="-163.6" font-family="Verdana" font-weight="bold" font-size="8.00">«interface»</text>
<text text-anchor="start" x="1988.5" y="-155.6" font-family="Verdana" font-weight="bold" font-size="8.00">NodeVisitor</text>
<polygon fill="none" stroke="black" points="1855,-144 1855,-150 2175,-150 2175,-144 1855,-144"/>
<polygon fill="none" stroke="black" points="1855,-125 1855,-144 2175,-144 2175,-125 1855,-125"/>
<text text-anchor="start" x="1860" y="-132.6" font-family="Verdana" font-size="8.00">+ «abstract» getCollection() : Doctrine\Common\Collections\ArrayCollection</text>
</g>
<!-- Bartlett\\CompatInfo\\Application\\PhpParser\\NodeVisitor\\FilterVisitor&#45;&gt;Bartlett\\CompatInfo\\Application\\PhpParser\\NodeVisitor\\NodeVisitor -->
<g id="edge12" class="edge">
<title>Bartlett\\CompatInfo\\Application\\PhpParser\\NodeVisitor\\FilterVisitor&#45;&gt;Bartlett\\CompatInfo\\Application\\PhpParser\\NodeVisitor\\NodeVisitor</title>
<path fill="none" stroke="black" stroke-dasharray="5,2" d="M1751.33,-76.04C1766.49,-78.84 1781.5,-81.83 1796,-85 1842.02,-95.07 1892.54,-109.67 1933.36,-122.39"/>
<polygon fill="none" stroke="black" points="1932.39,-125.75 1942.98,-125.41 1934.48,-119.07 1932.39,-125.75"/>
</g>
<!-- PhpParser\\NodeVisitor\\FindingVisitor -->
<g id="node16" class="node">
<title>PhpParser\\NodeVisitor\\FindingVisitor</title>
<polygon fill="#fefece" stroke="transparent" points="2097,-469 1933,-469 1933,-383 2097,-383 2097,-469"/>
<polygon fill="#eeeeee" stroke="transparent" points="1933,-447 1933,-469 2097,-469 2097,-447 1933,-447"/>
<polygon fill="none" stroke="black" points="1933,-447 1933,-469 2097,-469 2097,-447 1933,-447"/>
<text text-anchor="start" x="1982.5" y="-452.6" font-family="Verdana" font-weight="bold" font-size="8.00">FindingVisitor</text>
<polygon fill="none" stroke="black" points="1933,-441 1933,-447 2097,-447 2097,-441 1933,-441"/>
<polygon fill="none" stroke="black" points="1933,-383 1933,-441 2097,-441 2097,-383 1933,-383"/>
<text text-anchor="start" x="1938" y="-429.6" font-family="Verdana" font-size="8.00">+ __construct(filterCallback : callable)</text>
<text text-anchor="start" x="1938" y="-416.6" font-family="Verdana" font-size="8.00">+ getFoundNodes() : array</text>
<text text-anchor="start" x="1938" y="-403.6" font-family="Verdana" font-size="8.00">+ beforeTraverse(nodes : array)</text>
<text text-anchor="start" x="1938" y="-390.6" font-family="Verdana" font-size="8.00">+ enterNode(node : PhpParser\Node)</text>
</g>
<!-- Bartlett\\CompatInfo\\Application\\PhpParser\\NodeVisitor\\FilterVisitor&#45;&gt;PhpParser\\NodeVisitor\\FindingVisitor -->
<g id="edge10" class="edge">
<title>Bartlett\\CompatInfo\\Application\\PhpParser\\NodeVisitor\\FilterVisitor&#45;&gt;PhpParser\\NodeVisitor\\FindingVisitor</title>
<path fill="none" stroke="black" d="M1759.01,-57.48C1772.65,-64.62 1785.19,-73.66 1796,-85 1840.07,-131.22 1783.19,-321.88 1824,-371 1848.17,-400.09 1886.72,-414.33 1922.79,-421.11"/>
<polygon fill="none" stroke="black" points="1922.44,-424.6 1932.89,-422.84 1923.62,-417.7 1922.44,-424.6"/>
</g>
<!-- Bartlett\\CompatInfo\\Application\\PhpParser\\NodeVisitor\\NodeVisitor&#45;&gt;PhpParser\\NodeVisitor -->
<g id="edge11" class="edge">
<title>Bartlett\\CompatInfo\\Application\\PhpParser\\NodeVisitor\\NodeVisitor&#45;&gt;PhpParser\\NodeVisitor</title>
<path fill="none" stroke="black" stroke-dasharray="5,2" d="M2056.79,-172.55C2162.98,-233.85 2449.66,-399.34 2592.61,-481.86"/>
<polygon fill="none" stroke="black" points="2590.98,-484.96 2601.39,-486.93 2594.48,-478.9 2590.98,-484.96"/>
</g>
<!-- Bartlett\\CompatInfo\\Application\\PhpParser\\NodeVisitor\\NameResolverVisitor -->
<g id="node13" class="node">
<title>Bartlett\\CompatInfo\\Application\\PhpParser\\NodeVisitor\\NameResolverVisitor</title>
<polygon fill="#fefece" stroke="transparent" points="1711.5,-154 1345.5,-154 1345.5,-94 1711.5,-94 1711.5,-154"/>
<polygon fill="#eeeeee" stroke="transparent" points="1345.5,-132 1345.5,-154 1711.5,-154 1711.5,-132 1345.5,-132"/>
<polygon fill="none" stroke="black" points="1345.5,-132 1345.5,-154 1711.5,-154 1711.5,-132 1345.5,-132"/>
<text text-anchor="start" x="1481.5" y="-137.6" font-family="Verdana" font-weight="bold" font-size="8.00">NameResolverVisitor</text>
<polygon fill="none" stroke="black" points="1345.5,-126 1345.5,-132 1711.5,-132 1711.5,-126 1345.5,-126"/>
<polygon fill="none" stroke="black" points="1345.5,-94 1345.5,-126 1711.5,-126 1711.5,-94 1345.5,-94"/>
<text text-anchor="start" x="1350.5" y="-114.6" font-family="Verdana" font-size="8.00">+ __construct(errorHandler : PhpParser\ErrorHandler = «unknown», options : array = [])</text>
<text text-anchor="start" x="1350.5" y="-101.6" font-family="Verdana" font-size="8.00">+ enterNode(node : PhpParser\Node)</text>
</g>
<!-- PhpParser\\NodeVisitor\\NameResolver -->
<g id="node17" class="node">
<title>PhpParser\\NodeVisitor\\NameResolver</title>
<polygon fill="#fefece" stroke="transparent" points="2198,-573 1832,-573 1832,-487 2198,-487 2198,-573"/>
<polygon fill="#eeeeee" stroke="transparent" points="1832,-551 1832,-573 2198,-573 2198,-551 1832,-551"/>
<polygon fill="none" stroke="black" points="1832,-551 1832,-573 2198,-573 2198,-551 1832,-551"/>
<text text-anchor="start" x="1983" y="-556.6" font-family="Verdana" font-weight="bold" font-size="8.00">NameResolver</text>
<polygon fill="none" stroke="black" points="1832,-545 1832,-551 2198,-551 2198,-545 1832,-545"/>
<polygon fill="none" stroke="black" points="1832,-487 1832,-545 2198,-545 2198,-487 1832,-487"/>
<text text-anchor="start" x="1837" y="-533.6" font-family="Verdana" font-size="8.00">+ __construct(errorHandler : PhpParser\ErrorHandler = «unknown», options : array = [])</text>
<text text-anchor="start" x="1837" y="-520.6" font-family="Verdana" font-size="8.00">+ getNameContext() : PhpParser\NameContext</text>
<text text-anchor="start" x="1837" y="-507.6" font-family="Verdana" font-size="8.00">+ beforeTraverse(nodes : array)</text>
<text text-anchor="start" x="1837" y="-494.6" font-family="Verdana" font-size="8.00">+ enterNode(node : PhpParser\Node)</text>
</g>
<!-- Bartlett\\CompatInfo\\Application\\PhpParser\\NodeVisitor\\NameResolverVisitor&#45;&gt;PhpParser\\NodeVisitor\\NameResolver -->
<g id="edge14" class="edge">
<title>Bartlett\\CompatInfo\\Application\\PhpParser\\NodeVisitor\\NameResolverVisitor&#45;&gt;PhpParser\\NodeVisitor\\NameResolver</title>
<path fill="none" stroke="black" d="M1711.52,-118.17C1743.41,-125.51 1773.52,-139.21 1796,-163 1844.27,-214.08 1778.93,-424.08 1824,-478 1824.41,-478.49 1824.83,-478.98 1825.25,-479.46"/>
<polygon fill="none" stroke="black" points="1822.94,-482.12 1832.39,-486.91 1827.99,-477.27 1822.94,-482.12"/>
</g>
<!-- Bartlett\\CompatInfo\\Application\\PhpParser\\NodeVisitor\\ParentContextVisitor -->
<g id="node14" class="node">
<title>Bartlett\\CompatInfo\\Application\\PhpParser\\NodeVisitor\\ParentContextVisitor</title>
<polygon fill="#fefece" stroke="transparent" points="1615.5,-336 1441.5,-336 1441.5,-250 1615.5,-250 1615.5,-336"/>
<polygon fill="#eeeeee" stroke="transparent" points="1441.5,-314 1441.5,-336 1615.5,-336 1615.5,-314 1441.5,-314"/>
<polygon fill="none" stroke="black" points="1441.5,-314 1441.5,-336 1615.5,-336 1615.5,-314 1441.5,-314"/>
<text text-anchor="start" x="1481" y="-319.6" font-family="Verdana" font-weight="bold" font-size="8.00">ParentContextVisitor</text>
<polygon fill="none" stroke="black" points="1441.5,-308 1441.5,-314 1615.5,-314 1615.5,-308 1441.5,-308"/>
<polygon fill="none" stroke="black" points="1441.5,-250 1441.5,-308 1615.5,-308 1615.5,-250 1441.5,-250"/>
<text text-anchor="start" x="1446.5" y="-296.6" font-family="Verdana" font-size="8.00">+ __construct(options : array = [])</text>
<text text-anchor="start" x="1446.5" y="-283.6" font-family="Verdana" font-size="8.00">+ beforeTraverse(nodes : array) : ?array</text>
<text text-anchor="start" x="1446.5" y="-270.6" font-family="Verdana" font-size="8.00">+ enterNode(node : PhpParser\Node)</text>
<text text-anchor="start" x="1446.5" y="-257.6" font-family="Verdana" font-size="8.00">+ leaveNode(node : PhpParser\Node)</text>
</g>
<!-- Bartlett\\CompatInfo\\Application\\PhpParser\\NodeVisitor\\ParentContextVisitor&#45;&gt;PhpParser\\NodeVisitorAbstract -->
<g id="edge15" class="edge">
<title>Bartlett\\CompatInfo\\Application\\PhpParser\\NodeVisitor\\ParentContextVisitor&#45;&gt;PhpParser\\NodeVisitorAbstract</title>
<path fill="none" stroke="black" d="M1550.47,-336C1590.89,-413.29 1687.78,-573.42 1824,-636 1978.28,-706.88 2066.36,-732.56 2206,-636 2226.71,-621.68 2208.32,-600.92 2226,-583 2238.34,-570.49 2253.99,-560.86 2270.23,-553.47"/>
<polygon fill="none" stroke="black" points="2272.01,-556.52 2279.83,-549.38 2269.26,-550.08 2272.01,-556.52"/>
</g>
<!-- Bartlett\\CompatInfo\\Application\\PhpParser\\NodeVisitor\\VersionResolverVisitor -->
<g id="node15" class="node">
<title>Bartlett\\CompatInfo\\Application\\PhpParser\\NodeVisitor\\VersionResolverVisitor</title>
<polygon fill="#fefece" stroke="transparent" points="1796,-232 1261,-232 1261,-172 1796,-172 1796,-232"/>
<polygon fill="#eeeeee" stroke="transparent" points="1261.5,-210 1261.5,-232 1796.5,-232 1796.5,-210 1261.5,-210"/>
<polygon fill="none" stroke="black" points="1261.5,-210 1261.5,-232 1796.5,-232 1796.5,-210 1261.5,-210"/>
<text text-anchor="start" x="1478" y="-215.6" font-family="Verdana" font-weight="bold" font-size="8.00">VersionResolverVisitor</text>
<polygon fill="none" stroke="black" points="1261.5,-204 1261.5,-210 1796.5,-210 1796.5,-204 1261.5,-204"/>
<polygon fill="none" stroke="black" points="1261.5,-172 1261.5,-204 1796.5,-204 1796.5,-172 1261.5,-172"/>
<text text-anchor="start" x="1266.5" y="-192.6" font-family="Verdana" font-size="8.00">+ __construct(referenceCollection : Bartlett\CompatInfo\Application\Collection\ReferenceCollectionInterface, options : array = [])</text>
<text text-anchor="start" x="1266.5" y="-179.6" font-family="Verdana" font-size="8.00">+ enterNode(node : PhpParser\Node)</text>
</g>
<!-- Bartlett\\CompatInfo\\Application\\PhpParser\\NodeVisitor\\VersionResolverVisitor&#45;&gt;PhpParser\\NodeVisitorAbstract -->
<g id="edge16" class="edge">
<title>Bartlett\\CompatInfo\\Application\\PhpParser\\NodeVisitor\\VersionResolverVisitor&#45;&gt;PhpParser\\NodeVisitorAbstract</title>
<path fill="none" stroke="black" d="M1786.76,-232.04C1789.96,-234.85 1793.05,-237.84 1796,-241 1851.8,-300.8 1764,-552.41 1824,-608 1855.13,-636.85 2167.74,-626.39 2206,-608 2218.82,-601.84 2214.55,-591.44 2226,-583 2239.47,-573.07 2255.05,-564.73 2270.72,-557.81"/>
<polygon fill="none" stroke="black" points="2272.11,-561.03 2279.95,-553.91 2269.38,-554.58 2272.11,-561.03"/>
</g>
<!-- PhpParser\\NodeVisitor\\FindingVisitor&#45;&gt;PhpParser\\NodeVisitorAbstract -->
<g id="edge9" class="edge">
<title>PhpParser\\NodeVisitor\\FindingVisitor&#45;&gt;PhpParser\\NodeVisitorAbstract</title>
<path fill="none" stroke="black" d="M2097.19,-447.14C2130.96,-456.21 2170.5,-467.2 2206,-478 2226.84,-484.34 2249.11,-491.55 2270.09,-498.55"/>
<polygon fill="none" stroke="black" points="2269.03,-501.88 2279.63,-501.74 2271.26,-495.25 2269.03,-501.88"/>
</g>
<!-- PhpParser\\NodeVisitor\\NameResolver&#45;&gt;PhpParser\\NodeVisitorAbstract -->
<g id="edge13" class="edge">
<title>PhpParser\\NodeVisitor\\NameResolver&#45;&gt;PhpParser\\NodeVisitorAbstract</title>
<path fill="none" stroke="black" d="M2198.1,-530C2222.96,-530 2247.56,-530 2269.81,-530"/>
<polygon fill="none" stroke="black" points="2269.87,-533.5 2279.87,-530 2269.86,-526.5 2269.87,-533.5"/>
</g>
<!-- Bartlett\\CompatInfo\\Application\\PhpParser\\Parser -->
<g id="node18" class="node">
<title>Bartlett\\CompatInfo\\Application\\PhpParser\\Parser</title>
<polygon fill="#fefece" stroke="transparent" points="1225,-1039 16,-1039 16,-979 1225,-979 1225,-1039"/>
<polygon fill="#eeeeee" stroke="transparent" points="16.5,-1017 16.5,-1039 1225.5,-1039 1225.5,-1017 16.5,-1017"/>
<polygon fill="none" stroke="black" points="16.5,-1017 16.5,-1039 1225.5,-1039 1225.5,-1017 16.5,-1017"/>
<text text-anchor="start" x="606.5" y="-1022.6" font-family="Verdana" font-weight="bold" font-size="8.00">Parser</text>
<polygon fill="none" stroke="black" points="16.5,-1011 16.5,-1017 1225.5,-1017 1225.5,-1011 16.5,-1011"/>
<polygon fill="none" stroke="black" points="16.5,-979 16.5,-1011 1225.5,-1011 1225.5,-979 16.5,-979"/>
<text text-anchor="start" x="21.5" y="-999.6" font-family="Verdana" font-size="8.00">+ __construct(compatibilityEventDispatcher : Symfony\Component\EventDispatcher\EventDispatcherInterface, compatibilityAnalyser : Bartlett\CompatInfo\Application\Analyser\SniffAnalyserInterface, referenceCollection : Bartlett\CompatInfo\Application\Collection\ReferenceCollectionInterface)</text>
<text text-anchor="start" x="21.5" y="-986.6" font-family="Verdana" font-size="8.00">+ parse(source : string, finder : Symfony\Component\Finder\Finder, errorHandler : Bartlett\CompatInfo\Application\DataCollector\ErrorHandler, version : string) : Bartlett\CompatInfo\Application\Profiler\Profile</text>
</g>
</g>
</svg>
