<?xml version="1.0" encoding="UTF-8" standalone="no"?>
<!DOCTYPE svg PUBLIC "-//W3C//DTD SVG 1.1//EN"
 "http://www.w3.org/Graphics/SVG/1.1/DTD/svg11.dtd">
<!-- Generated by graphviz version 2.43.0 (0)
 -->
<!-- Title: %3 Pages: 1 -->
<svg width="2100pt" height="1379pt"
 viewBox="0.00 0.00 2100.00 1379.00" xmlns="http://www.w3.org/2000/svg" xmlns:xlink="http://www.w3.org/1999/xlink">
<g id="graph0" class="graph" transform="scale(1 1) rotate(0) translate(4 1375)">
<title>%3</title>
<g id="clust1" class="cluster">
<title>cluster_0</title>
<polygon fill="BurlyWood" stroke="black" points="552,-941.5 552,-1363 2084,-1363 2084,-941.5 552,-941.5"/>
<text text-anchor="middle" x="1318" y="-1347.8" font-family="Times,serif" font-size="14.00">Bartlett\CompatInfo\Application\Collection</text>
</g>
<g id="clust2" class="cluster">
<title>cluster_1</title>
<polygon fill="transparent" stroke="black" points="8,-213 8,-1245 544,-1245 544,-213 8,-213"/>
<text text-anchor="middle" x="276" y="-1229.8" font-family="Times,serif" font-size="14.00">Doctrine\Common\Collections</text>
</g>
<g id="clust3" class="cluster">
<title>cluster_2</title>
<polygon fill="transparent" stroke="black" points="339,-8 339,-205 827,-205 827,-8 339,-8"/>
<text text-anchor="middle" x="583" y="-189.8" font-family="Times,serif" font-size="14.00">0</text>
</g>
<!-- Bartlett\\CompatInfo\\Application\\Collection\\ReferenceCollection -->
<g id="node1" class="node">
<title>Bartlett\\CompatInfo\\Application\\Collection\\ReferenceCollection</title>
<polygon fill="#fefece" stroke="transparent" points="1635.5,-1322.5 560.5,-1322.5 560.5,-1262.5 1635.5,-1262.5 1635.5,-1322.5"/>
<polygon fill="#eeeeee" stroke="transparent" points="561,-1300.5 561,-1322.5 1636,-1322.5 1636,-1300.5 561,-1300.5"/>
<polygon fill="none" stroke="black" points="561,-1300.5 561,-1322.5 1636,-1322.5 1636,-1300.5 561,-1300.5"/>
<text text-anchor="start" x="1053" y="-1306.1" font-family="Verdana" font-weight="bold" font-size="8.00">ReferenceCollection</text>
<polygon fill="none" stroke="black" points="561,-1294.5 561,-1300.5 1636,-1300.5 1636,-1294.5 561,-1294.5"/>
<polygon fill="none" stroke="black" points="561,-1262.5 561,-1294.5 1636,-1294.5 1636,-1262.5 561,-1262.5"/>
<text text-anchor="start" x="566" y="-1283.1" font-family="Verdana" font-size="8.00">+ __construct(classRepository : Bartlett\CompatInfoDb\Domain\Repository\ClassRepository, constantRepository : Bartlett\CompatInfoDb\Domain\Repository\ConstantRepository, functionRepository : Bartlett\CompatInfoDb\Domain\Repository\FunctionRepository)</text>
<text text-anchor="start" x="566" y="-1270.1" font-family="Verdana" font-size="8.00">+ find(group : string, key : string, argc : int = 0, extra : string = «unknown») : array</text>
</g>
<!-- Bartlett\\CompatInfo\\Application\\Collection\\ReferenceCollectionInterface -->
<g id="node2" class="node">
<title>Bartlett\\CompatInfo\\Application\\Collection\\ReferenceCollectionInterface</title>
<polygon fill="#fefece" stroke="transparent" points="1123,-999.5 731,-999.5 731,-952.5 1123,-952.5 1123,-999.5"/>
<polygon fill="#eeeeee" stroke="transparent" points="731,-977 731,-999 1123,-999 1123,-977 731,-977"/>
<polygon fill="none" stroke="black" points="731,-977 731,-999 1123,-999 1123,-977 731,-977"/>
<text text-anchor="start" x="901" y="-990.6" font-family="Verdana" font-weight="bold" font-size="8.00">«interface»</text>
<text text-anchor="start" x="861.5" y="-982.6" font-family="Verdana" font-weight="bold" font-size="8.00">ReferenceCollectionInterface</text>
<polygon fill="none" stroke="black" points="731,-971 731,-977 1123,-977 1123,-971 731,-971"/>
<polygon fill="none" stroke="black" points="731,-952 731,-971 1123,-971 1123,-952 731,-952"/>
<text text-anchor="start" x="736" y="-959.6" font-family="Verdana" font-size="8.00">+ «abstract» find(group : string, key : string, argc : int = 0, extra : string = «unknown») : array</text>
</g>
<!-- Bartlett\\CompatInfo\\Application\\Collection\\ReferenceCollection&#45;&gt;Bartlett\\CompatInfo\\Application\\Collection\\ReferenceCollectionInterface -->
<g id="edge10" class="edge">
<title>Bartlett\\CompatInfo\\Application\\Collection\\ReferenceCollection&#45;&gt;Bartlett\\CompatInfo\\Application\\Collection\\ReferenceCollectionInterface</title>
<path fill="none" stroke="black" stroke-dasharray="5,2" d="M1082.22,-1262.48C1050.13,-1203.46 977.51,-1069.9 944.24,-1008.7"/>
<polygon fill="none" stroke="black" points="947.29,-1006.98 939.44,-999.87 941.14,-1010.33 947.29,-1006.98"/>
</g>
<!-- Doctrine\\Common\\Collections\\AbstractLazyCollection -->
<g id="node5" class="node">
<title>Doctrine\\Common\\Collections\\AbstractLazyCollection</title>
<polygon fill="#fefece" stroke="transparent" points="536,-1214 282,-1214 282,-738 536,-738 536,-1214"/>
<polygon fill="#eeeeee" stroke="transparent" points="282,-1192 282,-1214 536,-1214 536,-1192 282,-1192"/>
<polygon fill="none" stroke="black" points="282,-1192 282,-1214 536,-1214 536,-1192 282,-1192"/>
<text text-anchor="start" x="385" y="-1205.6" font-family="Verdana" font-weight="bold" font-size="8.00">«abstract»</text>
<text text-anchor="start" x="357.5" y="-1197.6" font-family="Verdana" font-weight="bold" font-size="8.00">AbstractLazyCollection</text>
<polygon fill="none" stroke="black" points="282,-1186 282,-1192 536,-1192 536,-1186 282,-1186"/>
<polygon fill="none" stroke="black" points="282,-738 282,-1186 536,-1186 536,-738 282,-738"/>
<text text-anchor="start" x="287" y="-1174.6" font-family="Verdana" font-size="8.00">+ count()</text>
<text text-anchor="start" x="287" y="-1161.6" font-family="Verdana" font-size="8.00">+ add(element : mixed)</text>
<text text-anchor="start" x="287" y="-1148.6" font-family="Verdana" font-size="8.00">+ clear()</text>
<text text-anchor="start" x="287" y="-1135.6" font-family="Verdana" font-size="8.00">+ contains(element : mixed)</text>
<text text-anchor="start" x="287" y="-1122.6" font-family="Verdana" font-size="8.00">+ isEmpty()</text>
<text text-anchor="start" x="287" y="-1109.6" font-family="Verdana" font-size="8.00">+ remove(key)</text>
<text text-anchor="start" x="287" y="-1096.6" font-family="Verdana" font-size="8.00">+ removeElement(element : mixed)</text>
<text text-anchor="start" x="287" y="-1083.6" font-family="Verdana" font-size="8.00">+ containsKey(key)</text>
<text text-anchor="start" x="287" y="-1070.6" font-family="Verdana" font-size="8.00">+ get(key)</text>
<text text-anchor="start" x="287" y="-1057.6" font-family="Verdana" font-size="8.00">+ getKeys()</text>
<text text-anchor="start" x="287" y="-1044.6" font-family="Verdana" font-size="8.00">+ getValues()</text>
<text text-anchor="start" x="287" y="-1031.6" font-family="Verdana" font-size="8.00">+ set(key, value : mixed)</text>
<text text-anchor="start" x="287" y="-1018.6" font-family="Verdana" font-size="8.00">+ toArray()</text>
<text text-anchor="start" x="287" y="-1005.6" font-family="Verdana" font-size="8.00">+ first()</text>
<text text-anchor="start" x="287" y="-992.6" font-family="Verdana" font-size="8.00">+ last()</text>
<text text-anchor="start" x="287" y="-979.6" font-family="Verdana" font-size="8.00">+ key()</text>
<text text-anchor="start" x="287" y="-966.6" font-family="Verdana" font-size="8.00">+ current()</text>
<text text-anchor="start" x="287" y="-953.6" font-family="Verdana" font-size="8.00">+ next()</text>
<text text-anchor="start" x="287" y="-940.6" font-family="Verdana" font-size="8.00">+ exists(p : Closure)</text>
<text text-anchor="start" x="287" y="-927.6" font-family="Verdana" font-size="8.00">+ findFirst(p : Closure)</text>
<text text-anchor="start" x="287" y="-914.6" font-family="Verdana" font-size="8.00">+ filter(p : Closure)</text>
<text text-anchor="start" x="287" y="-901.6" font-family="Verdana" font-size="8.00">+ forAll(p : Closure)</text>
<text text-anchor="start" x="287" y="-888.6" font-family="Verdana" font-size="8.00">+ map(func : Closure)</text>
<text text-anchor="start" x="287" y="-875.6" font-family="Verdana" font-size="8.00">+ reduce(func : Closure, initial : mixed = «unknown»)</text>
<text text-anchor="start" x="287" y="-862.6" font-family="Verdana" font-size="8.00">+ partition(p : Closure)</text>
<text text-anchor="start" x="287" y="-849.6" font-family="Verdana" font-size="8.00">+ indexOf(element : mixed)</text>
<text text-anchor="start" x="287" y="-836.6" font-family="Verdana" font-size="8.00">+ slice(offset : int, length : int = «unknown»)</text>
<text text-anchor="start" x="287" y="-823.6" font-family="Verdana" font-size="8.00">+ getIterator()</text>
<text text-anchor="start" x="287" y="-810.6" font-family="Verdana" font-size="8.00">+ offsetExists(offset : mixed)</text>
<text text-anchor="start" x="287" y="-797.6" font-family="Verdana" font-size="8.00">+ offsetGet(offset : mixed)</text>
<text text-anchor="start" x="287" y="-784.6" font-family="Verdana" font-size="8.00">+ offsetSet(offset : mixed, value : mixed)</text>
<text text-anchor="start" x="287" y="-771.6" font-family="Verdana" font-size="8.00">+ offsetUnset(offset : mixed)</text>
<text text-anchor="start" x="287" y="-758.6" font-family="Verdana" font-size="8.00">+ isInitialized()</text>
<text text-anchor="start" x="287" y="-745.6" font-family="Verdana" font-size="8.00">+ matching(criteria : Doctrine\Common\Collections\Criteria)</text>
</g>
<!-- Bartlett\\CompatInfo\\Application\\Collection\\ReferenceCollection&#45;&gt;Doctrine\\Common\\Collections\\AbstractLazyCollection -->
<g id="edge8" class="edge">
<title>Bartlett\\CompatInfo\\Application\\Collection\\ReferenceCollection&#45;&gt;Doctrine\\Common\\Collections\\AbstractLazyCollection</title>
<path fill="none" stroke="black" d="M621.55,-1262.47C584.75,-1257.41 557.91,-1251.61 548,-1245 537.59,-1238.06 527.92,-1230.08 518.93,-1221.32"/>
<polygon fill="none" stroke="black" points="521.37,-1218.81 511.87,-1214.13 516.38,-1223.72 521.37,-1218.81"/>
</g>
<!-- Doctrine\\Common\\Collections\\Collection -->
<g id="node6" class="node">
<title>Doctrine\\Common\\Collections\\Collection</title>
<polygon fill="#fefece" stroke="transparent" points="536.5,-702 333.5,-702 333.5,-564 536.5,-564 536.5,-702"/>
<polygon fill="#eeeeee" stroke="transparent" points="334,-680 334,-702 537,-702 537,-680 334,-680"/>
<polygon fill="none" stroke="black" points="334,-680 334,-702 537,-702 537,-680 334,-680"/>
<text text-anchor="start" x="409.5" y="-693.6" font-family="Verdana" font-weight="bold" font-size="8.00">«interface»</text>
<text text-anchor="start" x="412.5" y="-685.6" font-family="Verdana" font-weight="bold" font-size="8.00">Collection</text>
<polygon fill="none" stroke="black" points="334,-674 334,-680 537,-680 537,-674 334,-674"/>
<polygon fill="none" stroke="black" points="334,-564 334,-674 537,-674 537,-564 334,-564"/>
<text text-anchor="start" x="339" y="-662.6" font-family="Verdana" font-size="8.00">+ «abstract» add(element : mixed)</text>
<text text-anchor="start" x="339" y="-649.6" font-family="Verdana" font-size="8.00">+ «abstract» clear()</text>
<text text-anchor="start" x="339" y="-636.6" font-family="Verdana" font-size="8.00">+ «abstract» remove(key : mixed)</text>
<text text-anchor="start" x="339" y="-623.6" font-family="Verdana" font-size="8.00">+ «abstract» removeElement(element : mixed)</text>
<text text-anchor="start" x="339" y="-610.6" font-family="Verdana" font-size="8.00">+ «abstract» set(key : mixed, value : mixed)</text>
<text text-anchor="start" x="339" y="-597.6" font-family="Verdana" font-size="8.00">+ «abstract» map(func : Closure)</text>
<text text-anchor="start" x="339" y="-584.6" font-family="Verdana" font-size="8.00">+ «abstract» filter(p : Closure)</text>
<text text-anchor="start" x="339" y="-571.6" font-family="Verdana" font-size="8.00">+ «abstract» partition(p : Closure)</text>
</g>
<!-- Bartlett\\CompatInfo\\Application\\Collection\\ReferenceCollectionInterface&#45;&gt;Doctrine\\Common\\Collections\\Collection -->
<g id="edge9" class="edge">
<title>Bartlett\\CompatInfo\\Application\\Collection\\ReferenceCollectionInterface&#45;&gt;Doctrine\\Common\\Collections\\Collection</title>
<path fill="none" stroke="black" stroke-dasharray="5,2" d="M894.34,-952.36C823.67,-903.38 653.93,-785.74 541.77,-708"/>
<polygon fill="none" stroke="black" points="543.67,-705.06 533.46,-702.24 539.68,-710.81 543.67,-705.06"/>
</g>
<!-- Bartlett\\CompatInfo\\Application\\Collection\\SniffCollection -->
<g id="node3" class="node">
<title>Bartlett\\CompatInfo\\Application\\Collection\\SniffCollection</title>
<polygon fill="#fefece" stroke="transparent" points="2076,-1332 1654,-1332 1654,-1253 2076,-1253 2076,-1332"/>
<polygon fill="#eeeeee" stroke="transparent" points="1654,-1309.5 1654,-1331.5 2076,-1331.5 2076,-1309.5 1654,-1309.5"/>
<polygon fill="none" stroke="black" points="1654,-1309.5 1654,-1331.5 2076,-1331.5 2076,-1309.5 1654,-1309.5"/>
<text text-anchor="start" x="1831.5" y="-1315.1" font-family="Verdana" font-weight="bold" font-size="8.00">SniffCollection</text>
<polygon fill="none" stroke="black" points="1654,-1290.5 1654,-1309.5 2076,-1309.5 2076,-1290.5 1654,-1290.5"/>
<text text-anchor="start" x="1659" y="-1298.1" font-family="Verdana" font-size="8.00">+ «static» BASE_HELP_URI : string = &quot;https\:\/\/llaville\.github\.io\/php\&#45;compatinfo\/7\.2&quot; {readOnly}</text>
<polygon fill="none" stroke="black" points="1654,-1284.5 1654,-1290.5 2076,-1290.5 2076,-1284.5 1654,-1284.5"/>
<polygon fill="none" stroke="black" points="1654,-1252.5 1654,-1284.5 2076,-1284.5 2076,-1252.5 1654,-1252.5"/>
<text text-anchor="start" x="1659" y="-1273.1" font-family="Verdana" font-size="8.00">+ __construct(sniffs : iterable)</text>
<text text-anchor="start" x="1659" y="-1260.1" font-family="Verdana" font-size="8.00">+ getIterator() : Traversable</text>
</g>
<!-- Bartlett\\CompatInfo\\Application\\Collection\\SniffCollectionInterface -->
<g id="node4" class="node">
<title>Bartlett\\CompatInfo\\Application\\Collection\\SniffCollectionInterface</title>
<polygon fill="#fefece" stroke="transparent" points="1819,-1002.5 1397,-1002.5 1397,-949.5 1819,-949.5 1819,-1002.5"/>
<polygon fill="#eeeeee" stroke="transparent" points="1397,-980 1397,-1002 1819,-1002 1819,-980 1397,-980"/>
<polygon fill="none" stroke="black" points="1397,-980 1397,-1002 1819,-1002 1819,-980 1397,-980"/>
<text text-anchor="start" x="1582" y="-993.6" font-family="Verdana" font-weight="bold" font-size="8.00">«interface»</text>
<text text-anchor="start" x="1554" y="-985.6" font-family="Verdana" font-weight="bold" font-size="8.00">SniffCollectionInterface</text>
<polygon fill="none" stroke="black" points="1397,-961 1397,-980 1819,-980 1819,-961 1397,-961"/>
<text text-anchor="start" x="1402" y="-968.6" font-family="Verdana" font-size="8.00">+ «static» BASE_HELP_URI : string = &quot;https\:\/\/llaville\.github\.io\/php\&#45;compatinfo\/7\.2&quot; {readOnly}</text>
<polygon fill="none" stroke="black" points="1397,-955 1397,-961 1819,-961 1819,-955 1397,-955"/>
<polygon fill="none" stroke="black" points="1397,-949 1397,-955 1819,-955 1819,-949 1397,-949"/>
</g>
<!-- Bartlett\\CompatInfo\\Application\\Collection\\SniffCollection&#45;&gt;Bartlett\\CompatInfo\\Application\\Collection\\SniffCollectionInterface -->
<g id="edge12" class="edge">
<title>Bartlett\\CompatInfo\\Application\\Collection\\SniffCollection&#45;&gt;Bartlett\\CompatInfo\\Application\\Collection\\SniffCollectionInterface</title>
<path fill="none" stroke="black" stroke-dasharray="5,2" d="M1833.49,-1252.94C1782.66,-1190.74 1683.45,-1069.33 1635.39,-1010.52"/>
<polygon fill="none" stroke="black" points="1638,-1008.18 1628.96,-1002.65 1632.58,-1012.61 1638,-1008.18"/>
</g>
<!-- IteratorAggregate -->
<g id="node10" class="node">
<title>IteratorAggregate</title>
<polygon fill="#fefece" stroke="transparent" points="819,-154.5 703,-154.5 703,-107.5 819,-107.5 819,-154.5"/>
<polygon fill="#eeeeee" stroke="transparent" points="703,-132 703,-154 819,-154 819,-132 703,-132"/>
<polygon fill="none" stroke="black" points="703,-132 703,-154 819,-154 819,-132 703,-132"/>
<text text-anchor="start" x="735" y="-145.6" font-family="Verdana" font-weight="bold" font-size="8.00">«interface»</text>
<text text-anchor="start" x="720" y="-137.6" font-family="Verdana" font-weight="bold" font-size="8.00">IteratorAggregate</text>
<polygon fill="none" stroke="black" points="703,-126 703,-132 819,-132 819,-126 703,-126"/>
<polygon fill="none" stroke="black" points="703,-107 703,-126 819,-126 819,-107 703,-107"/>
<text text-anchor="start" x="708" y="-114.6" font-family="Verdana" font-size="8.00">+ «abstract» getIterator()</text>
</g>
<!-- Bartlett\\CompatInfo\\Application\\Collection\\SniffCollectionInterface&#45;&gt;IteratorAggregate -->
<g id="edge11" class="edge">
<title>Bartlett\\CompatInfo\\Application\\Collection\\SniffCollectionInterface&#45;&gt;IteratorAggregate</title>
<path fill="none" stroke="black" stroke-dasharray="5,2" d="M1582.19,-949.31C1458.23,-825.94 924.58,-294.81 791.27,-162.13"/>
<polygon fill="none" stroke="black" points="793.34,-159.25 783.79,-154.68 788.4,-164.21 793.34,-159.25"/>
</g>
<!-- Doctrine\\Common\\Collections\\AbstractLazyCollection&#45;&gt;Doctrine\\Common\\Collections\\Collection -->
<g id="edge6" class="edge">
<title>Doctrine\\Common\\Collections\\AbstractLazyCollection&#45;&gt;Doctrine\\Common\\Collections\\Collection</title>
<path fill="none" stroke="black" stroke-dasharray="5,2" d="M427.09,-737.7C427.77,-728.86 428.42,-720.31 429.04,-712.16"/>
<polygon fill="none" stroke="black" points="432.54,-712.3 429.81,-702.06 425.56,-711.77 432.54,-712.3"/>
</g>
<!-- Doctrine\\Common\\Collections\\Selectable -->
<g id="node8" class="node">
<title>Doctrine\\Common\\Collections\\Selectable</title>
<polygon fill="#fefece" stroke="transparent" points="316,-656.5 16,-656.5 16,-609.5 316,-609.5 316,-656.5"/>
<polygon fill="#eeeeee" stroke="transparent" points="16,-634 16,-656 316,-656 316,-634 16,-634"/>
<polygon fill="none" stroke="black" points="16,-634 16,-656 316,-656 316,-634 16,-634"/>
<text text-anchor="start" x="140" y="-647.6" font-family="Verdana" font-weight="bold" font-size="8.00">«interface»</text>
<text text-anchor="start" x="142" y="-639.6" font-family="Verdana" font-weight="bold" font-size="8.00">Selectable</text>
<polygon fill="none" stroke="black" points="16,-628 16,-634 316,-634 316,-628 16,-628"/>
<polygon fill="none" stroke="black" points="16,-609 16,-628 316,-628 316,-609 16,-609"/>
<text text-anchor="start" x="21" y="-616.6" font-family="Verdana" font-size="8.00">+ «abstract» matching(criteria : Doctrine\Common\Collections\Criteria)</text>
</g>
<!-- Doctrine\\Common\\Collections\\AbstractLazyCollection&#45;&gt;Doctrine\\Common\\Collections\\Selectable -->
<g id="edge7" class="edge">
<title>Doctrine\\Common\\Collections\\AbstractLazyCollection&#45;&gt;Doctrine\\Common\\Collections\\Selectable</title>
<path fill="none" stroke="black" stroke-dasharray="5,2" d="M281.81,-796.51C245.49,-745.55 209.85,-695.54 187.91,-664.75"/>
<polygon fill="none" stroke="black" points="190.75,-662.7 182.1,-656.59 185.05,-666.76 190.75,-662.7"/>
</g>
<!-- Doctrine\\Common\\Collections\\ReadableCollection -->
<g id="node7" class="node">
<title>Doctrine\\Common\\Collections\\ReadableCollection</title>
<polygon fill="#fefece" stroke="transparent" points="535.5,-528 260.5,-528 260.5,-221 535.5,-221 535.5,-528"/>
<polygon fill="#eeeeee" stroke="transparent" points="261,-505.5 261,-527.5 536,-527.5 536,-505.5 261,-505.5"/>
<polygon fill="none" stroke="black" points="261,-505.5 261,-527.5 536,-527.5 536,-505.5 261,-505.5"/>
<text text-anchor="start" x="372.5" y="-519.1" font-family="Verdana" font-weight="bold" font-size="8.00">«interface»</text>
<text text-anchor="start" x="354.5" y="-511.1" font-family="Verdana" font-weight="bold" font-size="8.00">ReadableCollection</text>
<polygon fill="none" stroke="black" points="261,-499.5 261,-505.5 536,-505.5 536,-499.5 261,-499.5"/>
<polygon fill="none" stroke="black" points="261,-220.5 261,-499.5 536,-499.5 536,-220.5 261,-220.5"/>
<text text-anchor="start" x="266" y="-488.1" font-family="Verdana" font-size="8.00">+ «abstract» contains(element : mixed)</text>
<text text-anchor="start" x="266" y="-475.1" font-family="Verdana" font-size="8.00">+ «abstract» isEmpty()</text>
<text text-anchor="start" x="266" y="-462.1" font-family="Verdana" font-size="8.00">+ «abstract» containsKey(key : mixed)</text>
<text text-anchor="start" x="266" y="-449.1" font-family="Verdana" font-size="8.00">+ «abstract» get(key : mixed)</text>
<text text-anchor="start" x="266" y="-436.1" font-family="Verdana" font-size="8.00">+ «abstract» getKeys()</text>
<text text-anchor="start" x="266" y="-423.1" font-family="Verdana" font-size="8.00">+ «abstract» getValues()</text>
<text text-anchor="start" x="266" y="-410.1" font-family="Verdana" font-size="8.00">+ «abstract» toArray()</text>
<text text-anchor="start" x="266" y="-397.1" font-family="Verdana" font-size="8.00">+ «abstract» first()</text>
<text text-anchor="start" x="266" y="-384.1" font-family="Verdana" font-size="8.00">+ «abstract» last()</text>
<text text-anchor="start" x="266" y="-371.1" font-family="Verdana" font-size="8.00">+ «abstract» key()</text>
<text text-anchor="start" x="266" y="-358.1" font-family="Verdana" font-size="8.00">+ «abstract» current()</text>
<text text-anchor="start" x="266" y="-345.1" font-family="Verdana" font-size="8.00">+ «abstract» next()</text>
<text text-anchor="start" x="266" y="-332.1" font-family="Verdana" font-size="8.00">+ «abstract» slice(offset : int, length : int = «unknown»)</text>
<text text-anchor="start" x="266" y="-319.1" font-family="Verdana" font-size="8.00">+ «abstract» exists(p : Closure)</text>
<text text-anchor="start" x="266" y="-306.1" font-family="Verdana" font-size="8.00">+ «abstract» filter(p : Closure)</text>
<text text-anchor="start" x="266" y="-293.1" font-family="Verdana" font-size="8.00">+ «abstract» map(func : Closure)</text>
<text text-anchor="start" x="266" y="-280.1" font-family="Verdana" font-size="8.00">+ «abstract» partition(p : Closure)</text>
<text text-anchor="start" x="266" y="-267.1" font-family="Verdana" font-size="8.00">+ «abstract» forAll(p : Closure)</text>
<text text-anchor="start" x="266" y="-254.1" font-family="Verdana" font-size="8.00">+ «abstract» indexOf(element : mixed)</text>
<text text-anchor="start" x="266" y="-241.1" font-family="Verdana" font-size="8.00">+ «abstract» findFirst(p : Closure)</text>
<text text-anchor="start" x="266" y="-228.1" font-family="Verdana" font-size="8.00">+ «abstract» reduce(func : Closure, initial : mixed = «unknown»)</text>
</g>
<!-- Doctrine\\Common\\Collections\\Collection&#45;&gt;Doctrine\\Common\\Collections\\ReadableCollection -->
<g id="edge4" class="edge">
<title>Doctrine\\Common\\Collections\\Collection&#45;&gt;Doctrine\\Common\\Collections\\ReadableCollection</title>
<path fill="none" stroke="black" stroke-dasharray="5,2" d="M425.18,-563.94C424,-555.74 422.76,-547.12 421.48,-538.26"/>
<polygon fill="none" stroke="black" points="424.92,-537.57 420.02,-528.17 417.99,-538.57 424.92,-537.57"/>
</g>
<!-- ArrayAccess -->
<g id="node12" class="node">
<title>ArrayAccess</title>
<polygon fill="#fefece" stroke="transparent" points="685,-174 461,-174 461,-88 685,-88 685,-174"/>
<polygon fill="#eeeeee" stroke="transparent" points="461,-152 461,-174 685,-174 685,-152 461,-152"/>
<polygon fill="none" stroke="black" points="461,-152 461,-174 685,-174 685,-152 461,-152"/>
<text text-anchor="start" x="547" y="-165.6" font-family="Verdana" font-weight="bold" font-size="8.00">«interface»</text>
<text text-anchor="start" x="546" y="-157.6" font-family="Verdana" font-weight="bold" font-size="8.00">ArrayAccess</text>
<polygon fill="none" stroke="black" points="461,-146 461,-152 685,-152 685,-146 461,-146"/>
<polygon fill="none" stroke="black" points="461,-88 461,-146 685,-146 685,-88 461,-88"/>
<text text-anchor="start" x="466" y="-134.6" font-family="Verdana" font-size="8.00">+ «abstract» offsetExists(offset : mixed)</text>
<text text-anchor="start" x="466" y="-121.6" font-family="Verdana" font-size="8.00">+ «abstract» offsetGet(offset : mixed)</text>
<text text-anchor="start" x="466" y="-108.6" font-family="Verdana" font-size="8.00">+ «abstract» offsetSet(offset : mixed, value : mixed)</text>
<text text-anchor="start" x="466" y="-95.6" font-family="Verdana" font-size="8.00">+ «abstract» offsetUnset(offset : mixed)</text>
</g>
<!-- Doctrine\\Common\\Collections\\Collection&#45;&gt;ArrayAccess -->
<g id="edge5" class="edge">
<title>Doctrine\\Common\\Collections\\Collection&#45;&gt;ArrayAccess</title>
<path fill="none" stroke="black" stroke-dasharray="5,2" d="M521.04,-563.89C530.53,-552.87 538.93,-540.83 545,-528 598.54,-414.87 590.21,-262.97 580.85,-184.24"/>
<polygon fill="none" stroke="black" points="584.29,-183.58 579.58,-174.09 577.34,-184.44 584.29,-183.58"/>
</g>
<!-- Countable -->
<g id="node9" class="node">
<title>Countable</title>
<polygon fill="#fefece" stroke="transparent" points="442.5,-154.5 347.5,-154.5 347.5,-107.5 442.5,-107.5 442.5,-154.5"/>
<polygon fill="#eeeeee" stroke="transparent" points="348,-132 348,-154 443,-154 443,-132 348,-132"/>
<polygon fill="none" stroke="black" points="348,-132 348,-154 443,-154 443,-132 348,-132"/>
<text text-anchor="start" x="369.5" y="-145.6" font-family="Verdana" font-weight="bold" font-size="8.00">«interface»</text>
<text text-anchor="start" x="372" y="-137.6" font-family="Verdana" font-weight="bold" font-size="8.00">Countable</text>
<polygon fill="none" stroke="black" points="348,-126 348,-132 443,-132 443,-126 348,-126"/>
<polygon fill="none" stroke="black" points="348,-107 348,-126 443,-126 443,-107 348,-107"/>
<text text-anchor="start" x="353" y="-114.6" font-family="Verdana" font-size="8.00">+ «abstract» count()</text>
</g>
<!-- Doctrine\\Common\\Collections\\ReadableCollection&#45;&gt;Countable -->
<g id="edge1" class="edge">
<title>Doctrine\\Common\\Collections\\ReadableCollection&#45;&gt;Countable</title>
<path fill="none" stroke="black" stroke-dasharray="5,2" d="M396.1,-220.9C395.85,-200.04 395.6,-180.55 395.41,-165.17"/>
<polygon fill="none" stroke="black" points="398.91,-164.69 395.28,-154.73 391.91,-164.77 398.91,-164.69"/>
</g>
<!-- Doctrine\\Common\\Collections\\ReadableCollection&#45;&gt;IteratorAggregate -->
<g id="edge3" class="edge">
<title>Doctrine\\Common\\Collections\\ReadableCollection&#45;&gt;IteratorAggregate</title>
<path fill="none" stroke="black" stroke-dasharray="5,2" d="M535.53,-306.77C587.48,-278.66 645.68,-243.51 694,-205 709.52,-192.63 724.66,-176.59 736.61,-162.69"/>
<polygon fill="none" stroke="black" points="739.49,-164.7 743.25,-154.8 734.13,-160.19 739.49,-164.7"/>
</g>
<!-- Traversable -->
<g id="node11" class="node">
<title>Traversable</title>
<polygon fill="#fefece" stroke="transparent" points="790,-52 732,-52 732,-16 790,-16 790,-52"/>
<polygon fill="#eeeeee" stroke="transparent" points="732,-29 732,-51 790,-51 790,-29 732,-29"/>
<polygon fill="none" stroke="black" points="732,-29 732,-51 790,-51 790,-29 732,-29"/>
<text text-anchor="start" x="735" y="-42.6" font-family="Verdana" font-weight="bold" font-size="8.00">«interface»</text>
<text text-anchor="start" x="735" y="-34.6" font-family="Verdana" font-weight="bold" font-size="8.00">Traversable</text>
<polygon fill="none" stroke="black" points="732,-23 732,-29 790,-29 790,-23 732,-23"/>
<polygon fill="none" stroke="black" points="732,-17 732,-23 790,-23 790,-17 732,-17"/>
</g>
<!-- IteratorAggregate&#45;&gt;Traversable -->
<g id="edge2" class="edge">
<title>IteratorAggregate&#45;&gt;Traversable</title>
<path fill="none" stroke="black" stroke-dasharray="5,2" d="M761,-107.49C761,-93.93 761,-76.58 761,-62.26"/>
<polygon fill="none" stroke="black" points="764.5,-62 761,-52 757.5,-62 764.5,-62"/>
</g>
</g>
</svg>
