<?xml version="1.0" encoding="UTF-8" standalone="no"?>
<!DOCTYPE svg PUBLIC "-//W3C//DTD SVG 1.1//EN"
 "http://www.w3.org/Graphics/SVG/1.1/DTD/svg11.dtd">
<!-- Generated by graphviz version 2.43.0 (0)
 -->
<!-- Title: %3 Pages: 1 -->
<svg width="1218pt" height="1843pt"
 viewBox="0.00 0.00 1218.08 1843.00" xmlns="http://www.w3.org/2000/svg" xmlns:xlink="http://www.w3.org/1999/xlink">
<g id="graph0" class="graph" transform="scale(1 1) rotate(0) translate(4 1839)">
<title>%3</title>
<polygon fill="white" stroke="transparent" points="-4,4 -4,-1839 1214.08,-1839 1214.08,4 -4,4"/>
<!-- bartlett/php&#45;compatinfo -->
<g id="node1" class="node">
<title>bartlett/php&#45;compatinfo</title>
<ellipse fill="lightgrey" stroke="black" stroke-width="2" cx="121.54" cy="-882" rx="121.58" ry="18"/>
<text text-anchor="middle" x="121.54" y="-878.3" font-family="Times,serif" font-size="14.00">bartlett/php&#45;compatinfo</text>
</g>
<!-- php -->
<g id="node2" class="node">
<title>php</title>
<path fill="#eeeeee" stroke="black" d="M1079.58,-328C1079.58,-328 1049.58,-328 1049.58,-328 1043.58,-328 1037.58,-322 1037.58,-316 1037.58,-316 1037.58,-304 1037.58,-304 1037.58,-298 1043.58,-292 1049.58,-292 1049.58,-292 1079.58,-292 1079.58,-292 1085.58,-292 1091.58,-298 1091.58,-304 1091.58,-304 1091.58,-316 1091.58,-316 1091.58,-322 1085.58,-328 1079.58,-328"/>
<text text-anchor="middle" x="1064.58" y="-306.3" font-family="Times,serif" font-size="14.00" fill="#314b5f">php</text>
</g>
<!-- bartlett/php&#45;compatinfo&#45;&gt;php -->
<g id="edge1" class="edge">
<title>bartlett/php&#45;compatinfo&#45;&gt;php</title>
<path fill="none" stroke="#1a2833" d="M123.86,-863.78C130.38,-788.15 166.27,-496.95 338.08,-369 448.37,-286.87 895.46,-301.74 1027.01,-308.04"/>
<polygon fill="#1a2833" stroke="#1a2833" points="1027.18,-311.56 1037.34,-308.55 1027.52,-304.56 1027.18,-311.56"/>
<text text-anchor="middle" x="473.58" y="-372" font-family="Times,serif" font-size="10.00" fill="#767676">^8.1</text>
</g>
<!-- ext&#45;json -->
<g id="node3" class="node">
<title>ext&#45;json</title>
<path fill="#eeeeee" stroke="black" d="M1089.08,-725C1089.08,-725 1040.08,-725 1040.08,-725 1034.08,-725 1028.08,-719 1028.08,-713 1028.08,-713 1028.08,-701 1028.08,-701 1028.08,-695 1034.08,-689 1040.08,-689 1040.08,-689 1089.08,-689 1089.08,-689 1095.08,-689 1101.08,-695 1101.08,-701 1101.08,-701 1101.08,-713 1101.08,-713 1101.08,-719 1095.08,-725 1089.08,-725"/>
<text text-anchor="middle" x="1064.58" y="-703.3" font-family="Times,serif" font-size="14.00" fill="#314b5f">ext&#45;json</text>
</g>
<!-- bartlett/php&#45;compatinfo&#45;&gt;ext&#45;json -->
<g id="edge2" class="edge">
<title>bartlett/php&#45;compatinfo&#45;&gt;ext&#45;json</title>
<path fill="none" stroke="#1a2833" d="M176.19,-865.88C219.57,-853.25 282.37,-835.89 338.08,-824 465.27,-796.84 498.11,-794.84 627.08,-778 748.46,-762.15 789.02,-799.27 901.08,-750 910.88,-745.69 909.47,-738.71 919.08,-734 950.03,-718.83 988.55,-712.15 1018.03,-709.23"/>
<polygon fill="#1a2833" stroke="#1a2833" points="1018.4,-712.71 1028.06,-708.34 1017.79,-705.74 1018.4,-712.71"/>
<text text-anchor="middle" x="473.58" y="-827" font-family="Times,serif" font-size="10.00" fill="#767676">*</text>
</g>
<!-- ext&#45;pcre -->
<g id="node4" class="node">
<title>ext&#45;pcre</title>
<path fill="#eeeeee" stroke="black" d="M1090.08,-1763C1090.08,-1763 1039.08,-1763 1039.08,-1763 1033.08,-1763 1027.08,-1757 1027.08,-1751 1027.08,-1751 1027.08,-1739 1027.08,-1739 1027.08,-1733 1033.08,-1727 1039.08,-1727 1039.08,-1727 1090.08,-1727 1090.08,-1727 1096.08,-1727 1102.08,-1733 1102.08,-1739 1102.08,-1739 1102.08,-1751 1102.08,-1751 1102.08,-1757 1096.08,-1763 1090.08,-1763"/>
<text text-anchor="middle" x="1064.58" y="-1741.3" font-family="Times,serif" font-size="14.00" fill="#314b5f">ext&#45;pcre</text>
</g>
<!-- bartlett/php&#45;compatinfo&#45;&gt;ext&#45;pcre -->
<g id="edge3" class="edge">
<title>bartlett/php&#45;compatinfo&#45;&gt;ext&#45;pcre</title>
<path fill="none" stroke="#1a2833" d="M124.18,-900.12C133.79,-1003.64 184.96,-1520.25 261.08,-1658 406.01,-1920.29 868.75,-1805.1 1017.24,-1760.04"/>
<polygon fill="#1a2833" stroke="#1a2833" points="1018.44,-1763.34 1026.97,-1757.05 1016.38,-1756.64 1018.44,-1763.34"/>
<text text-anchor="middle" x="473.58" y="-1827" font-family="Times,serif" font-size="10.00" fill="#767676">*</text>
</g>
<!-- ext&#45;spl -->
<g id="node5" class="node">
<title>ext&#45;spl</title>
<path fill="#eeeeee" stroke="black" d="M1085.08,-1697C1085.08,-1697 1044.08,-1697 1044.08,-1697 1038.08,-1697 1032.08,-1691 1032.08,-1685 1032.08,-1685 1032.08,-1673 1032.08,-1673 1032.08,-1667 1038.08,-1661 1044.08,-1661 1044.08,-1661 1085.08,-1661 1085.08,-1661 1091.08,-1661 1097.08,-1667 1097.08,-1673 1097.08,-1673 1097.08,-1685 1097.08,-1685 1097.08,-1691 1091.08,-1697 1085.08,-1697"/>
<text text-anchor="middle" x="1064.58" y="-1675.3" font-family="Times,serif" font-size="14.00" fill="#314b5f">ext&#45;spl</text>
</g>
<!-- bartlett/php&#45;compatinfo&#45;&gt;ext&#45;spl -->
<g id="edge4" class="edge">
<title>bartlett/php&#45;compatinfo&#45;&gt;ext&#45;spl</title>
<path fill="none" stroke="#1a2833" d="M122.07,-900.01C120.58,-985.46 122.69,-1356.5 261.08,-1612 283.68,-1653.74 294.43,-1667.36 338.08,-1686 453.17,-1735.14 776.15,-1705.28 901.08,-1698 942.27,-1695.6 989.04,-1689.8 1021.8,-1685.24"/>
<polygon fill="#1a2833" stroke="#1a2833" points="1022.5,-1688.68 1031.91,-1683.81 1021.52,-1681.75 1022.5,-1688.68"/>
<text text-anchor="middle" x="473.58" y="-1716" font-family="Times,serif" font-size="10.00" fill="#767676">*</text>
</g>
<!-- bartlett/php&#45;compatinfo&#45;db -->
<g id="node6" class="node">
<title>bartlett/php&#45;compatinfo&#45;db</title>
<path fill="#eeeeee" stroke="black" d="M593.08,-1120C593.08,-1120 354.08,-1120 354.08,-1120 348.08,-1120 342.08,-1114 342.08,-1108 342.08,-1108 342.08,-1096 342.08,-1096 342.08,-1090 348.08,-1084 354.08,-1084 354.08,-1084 593.08,-1084 593.08,-1084 599.08,-1084 605.08,-1090 605.08,-1096 605.08,-1096 605.08,-1108 605.08,-1108 605.08,-1114 599.08,-1120 593.08,-1120"/>
<text text-anchor="middle" x="473.58" y="-1098.3" font-family="Times,serif" font-size="14.00" fill="#314b5f">bartlett/php&#45;compatinfo&#45;db: 6.24.1</text>
</g>
<!-- bartlett/php&#45;compatinfo&#45;&gt;bartlett/php&#45;compatinfo&#45;db -->
<g id="edge28" class="edge">
<title>bartlett/php&#45;compatinfo&#45;&gt;bartlett/php&#45;compatinfo&#45;db</title>
<path fill="none" stroke="#1a2833" d="M150.59,-899.63C213.29,-939.04 364.79,-1034.26 435.31,-1078.58"/>
<polygon fill="#1a2833" stroke="#1a2833" points="433.57,-1081.62 443.9,-1083.98 437.3,-1075.69 433.57,-1081.62"/>
<text text-anchor="middle" x="290.58" y="-1008" font-family="Times,serif" font-size="10.00" fill="#767676">^6.4.2</text>
</g>
<!-- composer&#45;runtime&#45;api -->
<g id="node7" class="node">
<title>composer&#45;runtime&#45;api</title>
<path fill="#eeeeee" stroke="black" d="M1139.08,-671C1139.08,-671 990.08,-671 990.08,-671 984.08,-671 978.08,-665 978.08,-659 978.08,-659 978.08,-647 978.08,-647 978.08,-641 984.08,-635 990.08,-635 990.08,-635 1139.08,-635 1139.08,-635 1145.08,-635 1151.08,-641 1151.08,-647 1151.08,-647 1151.08,-659 1151.08,-659 1151.08,-665 1145.08,-671 1139.08,-671"/>
<text text-anchor="middle" x="1064.58" y="-649.3" font-family="Times,serif" font-size="14.00" fill="#314b5f">composer&#45;runtime&#45;api</text>
</g>
<!-- bartlett/php&#45;compatinfo&#45;&gt;composer&#45;runtime&#45;api -->
<g id="edge34" class="edge">
<title>bartlett/php&#45;compatinfo&#45;&gt;composer&#45;runtime&#45;api</title>
<path fill="none" stroke="#1a2833" d="M150.13,-864.36C190.19,-839.36 267.41,-793.53 338.08,-765 461.66,-715.11 495.76,-707.76 627.08,-685 743.32,-664.85 879.13,-657.37 968.01,-654.61"/>
<polygon fill="#1a2833" stroke="#1a2833" points="968.18,-658.1 978.07,-654.31 967.97,-651.11 968.18,-658.1"/>
<text text-anchor="middle" x="473.58" y="-768" font-family="Times,serif" font-size="10.00" fill="#767676">^2.1</text>
</g>
<!-- psr/log -->
<g id="node13" class="node">
<title>psr/log</title>
<path fill="#eeeeee" stroke="black" d="M1108.08,-1481C1108.08,-1481 1021.08,-1481 1021.08,-1481 1015.08,-1481 1009.08,-1475 1009.08,-1469 1009.08,-1469 1009.08,-1457 1009.08,-1457 1009.08,-1451 1015.08,-1445 1021.08,-1445 1021.08,-1445 1108.08,-1445 1108.08,-1445 1114.08,-1445 1120.08,-1451 1120.08,-1457 1120.08,-1457 1120.08,-1469 1120.08,-1469 1120.08,-1475 1114.08,-1481 1108.08,-1481"/>
<text text-anchor="middle" x="1064.58" y="-1459.3" font-family="Times,serif" font-size="14.00" fill="#314b5f">psr/log: 3.0.2</text>
</g>
<!-- bartlett/php&#45;compatinfo&#45;&gt;psr/log -->
<g id="edge44" class="edge">
<title>bartlett/php&#45;compatinfo&#45;&gt;psr/log</title>
<path fill="none" stroke="#1a2833" d="M125.77,-900.3C138.64,-967.31 192.77,-1201.03 338.08,-1309 442.77,-1386.79 497.89,-1342.03 627.08,-1360 687.7,-1368.44 852.61,-1350.62 901.08,-1388 919.12,-1401.91 901.63,-1421.35 919.08,-1436 941,-1454.41 971.46,-1461.87 998.76,-1464.44"/>
<polygon fill="#1a2833" stroke="#1a2833" points="998.81,-1467.95 1009.04,-1465.2 999.33,-1460.97 998.81,-1467.95"/>
<text text-anchor="middle" x="473.58" y="-1360" font-family="Times,serif" font-size="10.00" fill="#767676">^3.0</text>
</g>
<!-- symfony/config -->
<g id="node15" class="node">
<title>symfony/config</title>
<path fill="#eeeeee" stroke="black" d="M1141.08,-1427C1141.08,-1427 988.08,-1427 988.08,-1427 982.08,-1427 976.08,-1421 976.08,-1415 976.08,-1415 976.08,-1403 976.08,-1403 976.08,-1397 982.08,-1391 988.08,-1391 988.08,-1391 1141.08,-1391 1141.08,-1391 1147.08,-1391 1153.08,-1397 1153.08,-1403 1153.08,-1403 1153.08,-1415 1153.08,-1415 1153.08,-1421 1147.08,-1427 1141.08,-1427"/>
<text text-anchor="middle" x="1064.58" y="-1405.3" font-family="Times,serif" font-size="14.00" fill="#314b5f">symfony/config: v7.3.4</text>
</g>
<!-- bartlett/php&#45;compatinfo&#45;&gt;symfony/config -->
<g id="edge49" class="edge">
<title>bartlett/php&#45;compatinfo&#45;&gt;symfony/config</title>
<path fill="none" stroke="#1a2833" d="M135.25,-900.18C166.22,-943.6 249.57,-1055.19 338.08,-1129 452.87,-1224.73 485.16,-1254.07 627.08,-1301 685.19,-1320.22 853.2,-1290.87 901.08,-1329 920.54,-1344.5 900.28,-1365.71 919.08,-1382 932.3,-1393.46 948.8,-1400.71 965.88,-1405.2"/>
<polygon fill="#1a2833" stroke="#1a2833" points="965.45,-1408.69 975.98,-1407.53 967.02,-1401.87 965.45,-1408.69"/>
<text text-anchor="middle" x="473.58" y="-1297" font-family="Times,serif" font-size="10.00" fill="#767676">^6.4 || ^7.0</text>
</g>
<!-- symfony/console -->
<g id="node16" class="node">
<title>symfony/console</title>
<path fill="#eeeeee" stroke="black" d="M1146.58,-833C1146.58,-833 982.58,-833 982.58,-833 976.58,-833 970.58,-827 970.58,-821 970.58,-821 970.58,-809 970.58,-809 970.58,-803 976.58,-797 982.58,-797 982.58,-797 1146.58,-797 1146.58,-797 1152.58,-797 1158.58,-803 1158.58,-809 1158.58,-809 1158.58,-821 1158.58,-821 1158.58,-827 1152.58,-833 1146.58,-833"/>
<text text-anchor="middle" x="1064.58" y="-811.3" font-family="Times,serif" font-size="14.00" fill="#314b5f">symfony/console: v7.3.4</text>
</g>
<!-- bartlett/php&#45;compatinfo&#45;&gt;symfony/console -->
<g id="edge50" class="edge">
<title>bartlett/php&#45;compatinfo&#45;&gt;symfony/console</title>
<path fill="none" stroke="#1a2833" d="M240.61,-885.75C444.09,-891.36 844.54,-898.27 901.08,-868 913.47,-861.37 907.28,-849.64 919.08,-842 931.64,-833.86 946.03,-828.03 960.75,-823.88"/>
<polygon fill="#1a2833" stroke="#1a2833" points="961.64,-827.27 970.46,-821.39 959.9,-820.49 961.64,-827.27"/>
<text text-anchor="middle" x="473.58" y="-893" font-family="Times,serif" font-size="10.00" fill="#767676">^6.4 || ^7.0</text>
</g>
<!-- symfony/dependency&#45;injection -->
<g id="node17" class="node">
<title>symfony/dependency&#45;injection</title>
<path fill="#eeeeee" stroke="black" d="M1195.58,-779C1195.58,-779 933.58,-779 933.58,-779 927.58,-779 921.58,-773 921.58,-767 921.58,-767 921.58,-755 921.58,-755 921.58,-749 927.58,-743 933.58,-743 933.58,-743 1195.58,-743 1195.58,-743 1201.58,-743 1207.58,-749 1207.58,-755 1207.58,-755 1207.58,-767 1207.58,-767 1207.58,-773 1201.58,-779 1195.58,-779"/>
<text text-anchor="middle" x="1064.58" y="-757.3" font-family="Times,serif" font-size="14.00" fill="#314b5f">symfony/dependency&#45;injection: v7.3.4</text>
</g>
<!-- bartlett/php&#45;compatinfo&#45;&gt;symfony/dependency&#45;injection -->
<g id="edge53" class="edge">
<title>bartlett/php&#45;compatinfo&#45;&gt;symfony/dependency&#45;injection</title>
<path fill="none" stroke="#1a2833" d="M226.35,-872.77C436.62,-854 893.66,-812.84 901.08,-809 911.99,-803.35 908.43,-794.14 919.08,-788 922.01,-786.31 925.02,-784.72 928.1,-783.23"/>
<polygon fill="#1a2833" stroke="#1a2833" points="929.81,-786.3 937.53,-779.04 926.97,-779.9 929.81,-786.3"/>
<text text-anchor="middle" x="473.58" y="-865" font-family="Times,serif" font-size="10.00" fill="#767676">^6.4 || ^7.0</text>
</g>
<!-- symfony/event&#45;dispatcher -->
<g id="node18" class="node">
<title>symfony/event&#45;dispatcher</title>
<path fill="#eeeeee" stroke="black" d="M1179.58,-1643C1179.58,-1643 949.58,-1643 949.58,-1643 943.58,-1643 937.58,-1637 937.58,-1631 937.58,-1631 937.58,-1619 937.58,-1619 937.58,-1613 943.58,-1607 949.58,-1607 949.58,-1607 1179.58,-1607 1179.58,-1607 1185.58,-1607 1191.58,-1613 1191.58,-1619 1191.58,-1619 1191.58,-1631 1191.58,-1631 1191.58,-1637 1185.58,-1643 1179.58,-1643"/>
<text text-anchor="middle" x="1064.58" y="-1621.3" font-family="Times,serif" font-size="14.00" fill="#314b5f">symfony/event&#45;dispatcher: v7.3.3</text>
</g>
<!-- bartlett/php&#45;compatinfo&#45;&gt;symfony/event&#45;dispatcher -->
<g id="edge51" class="edge">
<title>bartlett/php&#45;compatinfo&#45;&gt;symfony/event&#45;dispatcher</title>
<path fill="none" stroke="#1a2833" d="M124.03,-900.23C132.38,-998.79 176.16,-1467.82 261.08,-1581 284.22,-1611.85 301.58,-1608.56 338.08,-1621 461.6,-1663.11 497.09,-1661.4 627.08,-1673 748.37,-1683.83 790.44,-1723.89 901.08,-1673 912.25,-1667.86 908.43,-1658.14 919.08,-1652 922.01,-1650.31 925.02,-1648.72 928.1,-1647.23"/>
<polygon fill="#1a2833" stroke="#1a2833" points="929.81,-1650.3 937.53,-1643.04 926.97,-1643.9 929.81,-1650.3"/>
<text text-anchor="middle" x="473.58" y="-1674" font-family="Times,serif" font-size="10.00" fill="#767676">^6.4 || ^7.0</text>
</g>
<!-- symfony/finder -->
<g id="node19" class="node">
<title>symfony/finder</title>
<path fill="#eeeeee" stroke="black" d="M1140.58,-1589C1140.58,-1589 988.58,-1589 988.58,-1589 982.58,-1589 976.58,-1583 976.58,-1577 976.58,-1577 976.58,-1565 976.58,-1565 976.58,-1559 982.58,-1553 988.58,-1553 988.58,-1553 1140.58,-1553 1140.58,-1553 1146.58,-1553 1152.58,-1559 1152.58,-1565 1152.58,-1565 1152.58,-1577 1152.58,-1577 1152.58,-1583 1146.58,-1589 1140.58,-1589"/>
<text text-anchor="middle" x="1064.58" y="-1567.3" font-family="Times,serif" font-size="14.00" fill="#314b5f">symfony/finder: v7.3.2</text>
</g>
<!-- bartlett/php&#45;compatinfo&#45;&gt;symfony/finder -->
<g id="edge52" class="edge">
<title>bartlett/php&#45;compatinfo&#45;&gt;symfony/finder</title>
<path fill="none" stroke="#1a2833" d="M123.65,-900.23C129.97,-997.72 164.57,-1456.59 261.08,-1552 362.32,-1652.08 758.77,-1583.94 901.08,-1580 922.17,-1579.42 944.78,-1578.41 966.24,-1577.27"/>
<polygon fill="#1a2833" stroke="#1a2833" points="966.53,-1580.76 976.33,-1576.72 966.15,-1573.77 966.53,-1580.76"/>
<text text-anchor="middle" x="473.58" y="-1609" font-family="Times,serif" font-size="10.00" fill="#767676">^6.4 || ^7.0</text>
</g>
<!-- symfony/stopwatch -->
<g id="node25" class="node">
<title>symfony/stopwatch</title>
<path fill="#eeeeee" stroke="black" d="M1156.58,-1535C1156.58,-1535 972.58,-1535 972.58,-1535 966.58,-1535 960.58,-1529 960.58,-1523 960.58,-1523 960.58,-1511 960.58,-1511 960.58,-1505 966.58,-1499 972.58,-1499 972.58,-1499 1156.58,-1499 1156.58,-1499 1162.58,-1499 1168.58,-1505 1168.58,-1511 1168.58,-1511 1168.58,-1523 1168.58,-1523 1168.58,-1529 1162.58,-1535 1156.58,-1535"/>
<text text-anchor="middle" x="1064.58" y="-1513.3" font-family="Times,serif" font-size="14.00" fill="#314b5f">symfony/stopwatch: v7.3.0</text>
</g>
<!-- bartlett/php&#45;compatinfo&#45;&gt;symfony/stopwatch -->
<g id="edge59" class="edge">
<title>bartlett/php&#45;compatinfo&#45;&gt;symfony/stopwatch</title>
<path fill="none" stroke="#1a2833" d="M124.26,-900.12C132.29,-973.43 172.94,-1249.88 338.08,-1372 449.23,-1454.2 492.28,-1456.34 627.08,-1487 686.33,-1500.48 842.04,-1508.83 950.47,-1513.19"/>
<polygon fill="#1a2833" stroke="#1a2833" points="950.36,-1516.69 960.49,-1513.59 950.63,-1509.7 950.36,-1516.69"/>
<text text-anchor="middle" x="473.58" y="-1485" font-family="Times,serif" font-size="10.00" fill="#767676">^6.4 || ^7.0</text>
</g>
<!-- bartlett/sarif&#45;php&#45;sdk -->
<g id="node26" class="node">
<title>bartlett/sarif&#45;php&#45;sdk</title>
<path fill="#eeeeee" stroke="black" d="M568.08,-1558C568.08,-1558 379.08,-1558 379.08,-1558 373.08,-1558 367.08,-1552 367.08,-1546 367.08,-1546 367.08,-1534 367.08,-1534 367.08,-1528 373.08,-1522 379.08,-1522 379.08,-1522 568.08,-1522 568.08,-1522 574.08,-1522 580.08,-1528 580.08,-1534 580.08,-1534 580.08,-1546 580.08,-1546 580.08,-1552 574.08,-1558 568.08,-1558"/>
<text text-anchor="middle" x="473.58" y="-1536.3" font-family="Times,serif" font-size="14.00" fill="#314b5f">bartlett/sarif&#45;php&#45;sdk: 2.2.1</text>
</g>
<!-- bartlett/php&#45;compatinfo&#45;&gt;bartlett/sarif&#45;php&#45;sdk -->
<g id="edge33" class="edge">
<title>bartlett/php&#45;compatinfo&#45;&gt;bartlett/sarif&#45;php&#45;sdk</title>
<path fill="none" stroke="#1a2833" d="M123.88,-900.3C131.14,-994.15 168.9,-1420.48 261.08,-1507 286.67,-1531.02 322.15,-1541.8 356.76,-1545.86"/>
<polygon fill="#1a2833" stroke="#1a2833" points="356.67,-1549.37 366.97,-1546.87 357.36,-1542.4 356.67,-1549.37"/>
<text text-anchor="middle" x="290.58" y="-1540" font-family="Times,serif" font-size="10.00" fill="#767676">^2.1</text>
</g>
<!-- doctrine/collections -->
<g id="node27" class="node">
<title>doctrine/collections</title>
<path fill="#eeeeee" stroke="black" d="M562.08,-578C562.08,-578 385.08,-578 385.08,-578 379.08,-578 373.08,-572 373.08,-566 373.08,-566 373.08,-554 373.08,-554 373.08,-548 379.08,-542 385.08,-542 385.08,-542 562.08,-542 562.08,-542 568.08,-542 574.08,-548 574.08,-554 574.08,-554 574.08,-566 574.08,-566 574.08,-572 568.08,-578 562.08,-578"/>
<text text-anchor="middle" x="473.58" y="-556.3" font-family="Times,serif" font-size="14.00" fill="#314b5f">doctrine/collections: 2.3.0</text>
</g>
<!-- bartlett/php&#45;compatinfo&#45;&gt;doctrine/collections -->
<g id="edge38" class="edge">
<title>bartlett/php&#45;compatinfo&#45;&gt;doctrine/collections</title>
<path fill="none" stroke="#1a2833" d="M128.51,-863.95C143.76,-820.52 188.13,-709.09 261.08,-646 296.67,-615.21 344.75,-594.48 386.07,-581.11"/>
<polygon fill="#1a2833" stroke="#1a2833" points="387.37,-584.37 395.86,-578.03 385.27,-577.69 387.37,-584.37"/>
<text text-anchor="middle" x="290.58" y="-649" font-family="Times,serif" font-size="10.00" fill="#767676">^2.1</text>
</g>
<!-- nikic/php&#45;parser -->
<g id="node29" class="node">
<title>nikic/php&#45;parser</title>
<path fill="#eeeeee" stroke="black" d="M554.58,-425C554.58,-425 392.58,-425 392.58,-425 386.58,-425 380.58,-419 380.58,-413 380.58,-413 380.58,-401 380.58,-401 380.58,-395 386.58,-389 392.58,-389 392.58,-389 554.58,-389 554.58,-389 560.58,-389 566.58,-395 566.58,-401 566.58,-401 566.58,-413 566.58,-413 566.58,-419 560.58,-425 554.58,-425"/>
<text text-anchor="middle" x="473.58" y="-403.3" font-family="Times,serif" font-size="14.00" fill="#314b5f">nikic/php&#45;parser: v5.6.1</text>
</g>
<!-- bartlett/php&#45;compatinfo&#45;&gt;nikic/php&#45;parser -->
<g id="edge43" class="edge">
<title>bartlett/php&#45;compatinfo&#45;&gt;nikic/php&#45;parser</title>
<path fill="none" stroke="#1a2833" d="M128.41,-863.69C144.34,-815.82 191.87,-684.37 261.08,-593 312.53,-525.07 391.94,-463.43 437.4,-431"/>
<polygon fill="#1a2833" stroke="#1a2833" points="439.61,-433.73 445.75,-425.1 435.57,-428.01 439.61,-433.73"/>
<text text-anchor="middle" x="290.58" y="-596" font-family="Times,serif" font-size="10.00" fill="#767676">^5.0</text>
</g>
<!-- ramsey/uuid -->
<g id="node32" class="node">
<title>ramsey/uuid</title>
<path fill="#eeeeee" stroke="black" d="M536.58,-199C536.58,-199 410.58,-199 410.58,-199 404.58,-199 398.58,-193 398.58,-187 398.58,-187 398.58,-175 398.58,-175 398.58,-169 404.58,-163 410.58,-163 410.58,-163 536.58,-163 536.58,-163 542.58,-163 548.58,-169 548.58,-175 548.58,-175 548.58,-187 548.58,-187 548.58,-193 542.58,-199 536.58,-199"/>
<text text-anchor="middle" x="473.58" y="-177.3" font-family="Times,serif" font-size="14.00" fill="#314b5f">ramsey/uuid: 4.9.1</text>
</g>
<!-- bartlett/php&#45;compatinfo&#45;&gt;ramsey/uuid -->
<g id="edge48" class="edge">
<title>bartlett/php&#45;compatinfo&#45;&gt;ramsey/uuid</title>
<path fill="none" stroke="#1a2833" d="M123.9,-863.9C131.4,-769.07 170.63,-330.44 261.08,-236 293.76,-201.87 344.71,-187.93 388.41,-182.62"/>
<polygon fill="#1a2833" stroke="#1a2833" points="388.91,-186.08 398.47,-181.53 388.15,-179.12 388.91,-186.08"/>
<text text-anchor="middle" x="290.58" y="-239" font-family="Times,serif" font-size="10.00" fill="#767676">^4.0</text>
</g>
<!-- symfony/serializer -->
<g id="node35" class="node">
<title>symfony/serializer</title>
<path fill="#eeeeee" stroke="black" d="M562.08,-270C562.08,-270 385.08,-270 385.08,-270 379.08,-270 373.08,-264 373.08,-258 373.08,-258 373.08,-246 373.08,-246 373.08,-240 379.08,-234 385.08,-234 385.08,-234 562.08,-234 562.08,-234 568.08,-234 574.08,-240 574.08,-246 574.08,-246 574.08,-258 574.08,-258 574.08,-264 568.08,-270 562.08,-270"/>
<text text-anchor="middle" x="473.58" y="-248.3" font-family="Times,serif" font-size="14.00" fill="#314b5f">symfony/serializer: v7.3.4</text>
</g>
<!-- bartlett/php&#45;compatinfo&#45;&gt;symfony/serializer -->
<g id="edge58" class="edge">
<title>bartlett/php&#45;compatinfo&#45;&gt;symfony/serializer</title>
<path fill="none" stroke="#1a2833" d="M124.02,-863.77C131.82,-772.12 171.35,-362.97 261.08,-281 288.34,-256.09 326.42,-246.18 362.76,-243.37"/>
<polygon fill="#1a2833" stroke="#1a2833" points="363.19,-246.85 372.96,-242.75 362.77,-239.86 363.19,-246.85"/>
<text text-anchor="middle" x="290.58" y="-284" font-family="Times,serif" font-size="10.00" fill="#767676">^6.4 || ^7.0</text>
</g>
<!-- bamarni/composer&#45;bin&#45;plugin -->
<g id="node38" class="node">
<title>bamarni/composer&#45;bin&#45;plugin</title>
<path fill="#eeeeee" stroke="black" d="M597.08,-127C597.08,-127 350.08,-127 350.08,-127 344.08,-127 338.08,-121 338.08,-115 338.08,-115 338.08,-103 338.08,-103 338.08,-97 344.08,-91 350.08,-91 350.08,-91 597.08,-91 597.08,-91 603.08,-91 609.08,-97 609.08,-103 609.08,-103 609.08,-115 609.08,-115 609.08,-121 603.08,-127 597.08,-127"/>
<text text-anchor="middle" x="473.58" y="-105.3" font-family="Times,serif" font-size="14.00" fill="#314b5f">bamarni/composer&#45;bin&#45;plugin: 1.8.2</text>
</g>
<!-- bartlett/php&#45;compatinfo&#45;&gt;bamarni/composer&#45;bin&#45;plugin -->
<g id="edge62" class="edge">
<title>bartlett/php&#45;compatinfo&#45;&gt;bamarni/composer&#45;bin&#45;plugin</title>
<path fill="none" stroke="#1a2833" stroke-dasharray="5,2" d="M123.78,-863.92C130.9,-765.12 169.48,-291.06 261.08,-183 282.39,-157.86 312.77,-141.25 343.87,-130.28"/>
<polygon fill="#1a2833" stroke="#1a2833" points="345.16,-133.54 353.54,-127.06 342.95,-126.9 345.16,-133.54"/>
<text text-anchor="middle" x="290.58" y="-186" font-family="Times,serif" font-size="10.00" fill="#767676">^1.8</text>
</g>
<!-- bartlett/php&#45;compatinfo&#45;db&#45;&gt;php -->
<g id="edge14" class="edge">
<title>bartlett/php&#45;compatinfo&#45;db&#45;&gt;php</title>
<path fill="none" stroke="#1a2833" d="M491.57,-1083.75C521.78,-1049.98 584.03,-974.12 609.08,-897 622.13,-856.8 598.13,-547.8 627.08,-517 669.03,-472.37 857.49,-530.03 901.08,-487 947.92,-440.76 874.5,-388.43 919.08,-340 946.16,-310.57 993.95,-305.88 1027.12,-306.7"/>
<polygon fill="#1a2833" stroke="#1a2833" points="1027.19,-310.2 1037.33,-307.13 1027.48,-303.21 1027.19,-310.2"/>
<text text-anchor="middle" x="764.08" y="-520" font-family="Times,serif" font-size="10.00" fill="#767676">^8.1</text>
</g>
<!-- bartlett/php&#45;compatinfo&#45;db&#45;&gt;ext&#45;json -->
<g id="edge9" class="edge">
<title>bartlett/php&#45;compatinfo&#45;db&#45;&gt;ext&#45;json</title>
<path fill="none" stroke="#1a2833" d="M489.79,-1083.79C517.68,-1049.49 577.06,-971.96 609.08,-897 623.06,-864.28 601.09,-843.29 627.08,-819 717.19,-734.78 803.5,-850.44 901.08,-775 916.82,-762.83 903.49,-746.37 919.08,-734 946.83,-711.98 986.97,-705.9 1017.9,-704.95"/>
<polygon fill="#1a2833" stroke="#1a2833" points="1018.06,-708.45 1028.01,-704.81 1017.96,-701.45 1018.06,-708.45"/>
<text text-anchor="middle" x="764.08" y="-822" font-family="Times,serif" font-size="10.00" fill="#767676">*</text>
</g>
<!-- bartlett/php&#45;compatinfo&#45;db&#45;&gt;ext&#45;pcre -->
<g id="edge10" class="edge">
<title>bartlett/php&#45;compatinfo&#45;db&#45;&gt;ext&#45;pcre</title>
<path fill="none" stroke="#1a2833" d="M492.69,-1120.03C523.2,-1151.75 583.97,-1221.01 609.08,-1293 620.51,-1325.79 602.76,-1580.22 627.08,-1605 669.85,-1648.59 854.89,-1586.06 901.08,-1626 928.65,-1649.84 893.86,-1679.69 919.08,-1706 944.23,-1732.24 985.03,-1741.45 1016.87,-1744.4"/>
<polygon fill="#1a2833" stroke="#1a2833" points="1016.63,-1747.89 1026.86,-1745.16 1017.16,-1740.91 1016.63,-1747.89"/>
<text text-anchor="middle" x="764.08" y="-1629" font-family="Times,serif" font-size="10.00" fill="#767676">*</text>
</g>
<!-- bartlett/php&#45;compatinfo&#45;db&#45;&gt;ext&#45;spl -->
<g id="edge13" class="edge">
<title>bartlett/php&#45;compatinfo&#45;db&#45;&gt;ext&#45;spl</title>
<path fill="none" stroke="#1a2833" d="M492.59,-1120.07C522.95,-1151.84 583.49,-1221.18 609.08,-1293 628,-1346.09 589.31,-1504.16 627.08,-1546 709.91,-1637.78 808.27,-1512.33 901.08,-1594 921.34,-1611.83 898.92,-1634.06 919.08,-1652 946.82,-1676.7 989.73,-1682.04 1021.59,-1682.05"/>
<polygon fill="#1a2833" stroke="#1a2833" points="1021.99,-1685.54 1031.93,-1681.87 1021.87,-1678.55 1021.99,-1685.54"/>
<text text-anchor="middle" x="764.08" y="-1597" font-family="Times,serif" font-size="10.00" fill="#767676">*</text>
</g>
<!-- bartlett/php&#45;compatinfo&#45;db&#45;&gt;composer&#45;runtime&#45;api -->
<g id="edge5" class="edge">
<title>bartlett/php&#45;compatinfo&#45;db&#45;&gt;composer&#45;runtime&#45;api</title>
<path fill="none" stroke="#1a2833" d="M490.99,-1083.9C520.55,-1050.08 582.19,-973.73 609.08,-897 623.25,-856.56 596.63,-735.15 627.08,-705 648.79,-683.5 870.79,-685.97 901.08,-682 922.76,-679.16 945.96,-675.44 967.84,-671.61"/>
<polygon fill="#1a2833" stroke="#1a2833" points="968.55,-675.04 977.79,-669.85 967.33,-668.15 968.55,-675.04"/>
<text text-anchor="middle" x="764.08" y="-708" font-family="Times,serif" font-size="10.00" fill="#767676">^2.0</text>
</g>
<!-- composer/semver -->
<g id="node8" class="node">
<title>composer/semver</title>
<path fill="#eeeeee" stroke="black" d="M1146.58,-1157C1146.58,-1157 982.58,-1157 982.58,-1157 976.58,-1157 970.58,-1151 970.58,-1145 970.58,-1145 970.58,-1133 970.58,-1133 970.58,-1127 976.58,-1121 982.58,-1121 982.58,-1121 1146.58,-1121 1146.58,-1121 1152.58,-1121 1158.58,-1127 1158.58,-1133 1158.58,-1133 1158.58,-1145 1158.58,-1145 1158.58,-1151 1152.58,-1157 1146.58,-1157"/>
<text text-anchor="middle" x="1064.58" y="-1135.3" font-family="Times,serif" font-size="14.00" fill="#314b5f">composer/semver: 3.4.4</text>
</g>
<!-- bartlett/php&#45;compatinfo&#45;db&#45;&gt;composer/semver -->
<g id="edge6" class="edge">
<title>bartlett/php&#45;compatinfo&#45;db&#45;&gt;composer/semver</title>
<path fill="none" stroke="#1a2833" d="M605.4,-1105.01C689.87,-1107.57 802.08,-1112.13 901.08,-1120 920.25,-1121.52 940.64,-1123.57 960.27,-1125.76"/>
<polygon fill="#1a2833" stroke="#1a2833" points="960.13,-1129.26 970.46,-1126.91 960.92,-1122.31 960.13,-1129.26"/>
<text text-anchor="middle" x="764.08" y="-1123" font-family="Times,serif" font-size="10.00" fill="#767676">^3.0</text>
</g>
<!-- doctrine/dbal -->
<g id="node9" class="node">
<title>doctrine/dbal</title>
<path fill="#eeeeee" stroke="black" d="M1130.58,-1103C1130.58,-1103 998.58,-1103 998.58,-1103 992.58,-1103 986.58,-1097 986.58,-1091 986.58,-1091 986.58,-1079 986.58,-1079 986.58,-1073 992.58,-1067 998.58,-1067 998.58,-1067 1130.58,-1067 1130.58,-1067 1136.58,-1067 1142.58,-1073 1142.58,-1079 1142.58,-1079 1142.58,-1091 1142.58,-1091 1142.58,-1097 1136.58,-1103 1130.58,-1103"/>
<text text-anchor="middle" x="1064.58" y="-1081.3" font-family="Times,serif" font-size="14.00" fill="#314b5f">doctrine/dbal: 4.3.4</text>
</g>
<!-- bartlett/php&#45;compatinfo&#45;db&#45;&gt;doctrine/dbal -->
<g id="edge7" class="edge">
<title>bartlett/php&#45;compatinfo&#45;db&#45;&gt;doctrine/dbal</title>
<path fill="none" stroke="#1a2833" d="M605.12,-1087.42C612.54,-1086.86 619.9,-1086.38 627.08,-1086 747.91,-1079.54 887.83,-1080.75 976.01,-1082.57"/>
<polygon fill="#1a2833" stroke="#1a2833" points="976.17,-1086.08 986.24,-1082.79 976.32,-1079.08 976.17,-1086.08"/>
<text text-anchor="middle" x="764.08" y="-1089" font-family="Times,serif" font-size="10.00" fill="#767676">^4.0</text>
</g>
<!-- doctrine/orm -->
<g id="node10" class="node">
<title>doctrine/orm</title>
<path fill="#eeeeee" stroke="black" d="M1129.58,-1049C1129.58,-1049 999.58,-1049 999.58,-1049 993.58,-1049 987.58,-1043 987.58,-1037 987.58,-1037 987.58,-1025 987.58,-1025 987.58,-1019 993.58,-1013 999.58,-1013 999.58,-1013 1129.58,-1013 1129.58,-1013 1135.58,-1013 1141.58,-1019 1141.58,-1025 1141.58,-1025 1141.58,-1037 1141.58,-1037 1141.58,-1043 1135.58,-1049 1129.58,-1049"/>
<text text-anchor="middle" x="1064.58" y="-1027.3" font-family="Times,serif" font-size="14.00" fill="#314b5f">doctrine/orm: 3.5.2</text>
</g>
<!-- bartlett/php&#45;compatinfo&#45;db&#45;&gt;doctrine/orm -->
<g id="edge8" class="edge">
<title>bartlett/php&#45;compatinfo&#45;db&#45;&gt;doctrine/orm</title>
<path fill="none" stroke="#1a2833" d="M541.33,-1083.92C567.84,-1077.35 598.73,-1070.46 627.08,-1066 747.72,-1047.04 888.83,-1038.09 977.22,-1034.06"/>
<polygon fill="#1a2833" stroke="#1a2833" points="977.63,-1037.54 987.47,-1033.6 977.32,-1030.55 977.63,-1037.54"/>
<text text-anchor="middle" x="764.08" y="-1069" font-family="Times,serif" font-size="10.00" fill="#767676">^3.3</text>
</g>
<!-- ext&#45;pdo -->
<g id="node11" class="node">
<title>ext&#45;pdo</title>
<path fill="#eeeeee" stroke="black" d="M1087.58,-995C1087.58,-995 1041.58,-995 1041.58,-995 1035.58,-995 1029.58,-989 1029.58,-983 1029.58,-983 1029.58,-971 1029.58,-971 1029.58,-965 1035.58,-959 1041.58,-959 1041.58,-959 1087.58,-959 1087.58,-959 1093.58,-959 1099.58,-965 1099.58,-971 1099.58,-971 1099.58,-983 1099.58,-983 1099.58,-989 1093.58,-995 1087.58,-995"/>
<text text-anchor="middle" x="1064.58" y="-973.3" font-family="Times,serif" font-size="14.00" fill="#314b5f">ext&#45;pdo</text>
</g>
<!-- bartlett/php&#45;compatinfo&#45;db&#45;&gt;ext&#45;pdo -->
<g id="edge11" class="edge">
<title>bartlett/php&#45;compatinfo&#45;db&#45;&gt;ext&#45;pdo</title>
<path fill="none" stroke="#1a2833" d="M501.62,-1083.97C531.11,-1065.3 580.36,-1036.94 627.08,-1023 744.38,-988.01 779.35,-1007.96 901.08,-995 941.06,-990.74 986.56,-985.68 1019.22,-982.02"/>
<polygon fill="#1a2833" stroke="#1a2833" points="1019.8,-985.47 1029.35,-980.88 1019.02,-978.52 1019.8,-985.47"/>
<text text-anchor="middle" x="764.08" y="-1026" font-family="Times,serif" font-size="10.00" fill="#767676">*</text>
</g>
<!-- ext&#45;phar -->
<g id="node12" class="node">
<title>ext&#45;phar</title>
<path fill="#eeeeee" stroke="black" d="M1091.08,-941C1091.08,-941 1038.08,-941 1038.08,-941 1032.08,-941 1026.08,-935 1026.08,-929 1026.08,-929 1026.08,-917 1026.08,-917 1026.08,-911 1032.08,-905 1038.08,-905 1038.08,-905 1091.08,-905 1091.08,-905 1097.08,-905 1103.08,-911 1103.08,-917 1103.08,-917 1103.08,-929 1103.08,-929 1103.08,-935 1097.08,-941 1091.08,-941"/>
<text text-anchor="middle" x="1064.58" y="-919.3" font-family="Times,serif" font-size="14.00" fill="#314b5f">ext&#45;phar</text>
</g>
<!-- bartlett/php&#45;compatinfo&#45;db&#45;&gt;ext&#45;phar -->
<g id="edge12" class="edge">
<title>bartlett/php&#45;compatinfo&#45;db&#45;&gt;ext&#45;phar</title>
<path fill="none" stroke="#1a2833" d="M490.69,-1083.75C516.39,-1056.09 569.63,-1004.39 627.08,-982 740.88,-937.65 784.86,-998.55 901.08,-961 910,-958.12 910.33,-953.36 919.08,-950 950.16,-938.06 987.1,-931.28 1015.85,-927.5"/>
<polygon fill="#1a2833" stroke="#1a2833" points="1016.55,-930.94 1026.04,-926.24 1015.69,-923.99 1016.55,-930.94"/>
<text text-anchor="middle" x="764.08" y="-985" font-family="Times,serif" font-size="10.00" fill="#767676">*</text>
</g>
<!-- bartlett/php&#45;compatinfo&#45;db&#45;&gt;psr/log -->
<g id="edge15" class="edge">
<title>bartlett/php&#45;compatinfo&#45;db&#45;&gt;psr/log</title>
<path fill="none" stroke="#1a2833" d="M482.3,-1120.05C500.72,-1160.68 551.4,-1259.34 627.08,-1305 732.68,-1368.72 811.93,-1263.76 901.08,-1349 929.62,-1376.29 890.89,-1408.35 919.08,-1436 939.85,-1456.37 970.78,-1463.96 998.69,-1466.1"/>
<polygon fill="#1a2833" stroke="#1a2833" points="998.64,-1469.6 1008.82,-1466.66 999.03,-1462.61 998.64,-1469.6"/>
<text text-anchor="middle" x="764.08" y="-1352" font-family="Times,serif" font-size="10.00" fill="#767676">^3.0</text>
</g>
<!-- symfony/cache -->
<g id="node14" class="node">
<title>symfony/cache</title>
<path fill="#eeeeee" stroke="black" d="M1140.08,-887C1140.08,-887 989.08,-887 989.08,-887 983.08,-887 977.08,-881 977.08,-875 977.08,-875 977.08,-863 977.08,-863 977.08,-857 983.08,-851 989.08,-851 989.08,-851 1140.08,-851 1140.08,-851 1146.08,-851 1152.08,-857 1152.08,-863 1152.08,-863 1152.08,-875 1152.08,-875 1152.08,-881 1146.08,-887 1140.08,-887"/>
<text text-anchor="middle" x="1064.58" y="-865.3" font-family="Times,serif" font-size="14.00" fill="#314b5f">symfony/cache: v7.3.4</text>
</g>
<!-- bartlett/php&#45;compatinfo&#45;db&#45;&gt;symfony/cache -->
<g id="edge16" class="edge">
<title>bartlett/php&#45;compatinfo&#45;db&#45;&gt;symfony/cache</title>
<path fill="none" stroke="#1a2833" d="M485.94,-1083.89C508.24,-1050.17 561.34,-978.42 627.08,-948 682.5,-922.35 849.36,-959.47 901.08,-927 914.57,-918.53 906.06,-905.19 919.08,-896 933.2,-886.03 949.95,-879.45 966.97,-875.16"/>
<polygon fill="#1a2833" stroke="#1a2833" points="968.02,-878.51 977,-872.89 966.47,-871.68 968.02,-878.51"/>
<text text-anchor="middle" x="764.08" y="-951" font-family="Times,serif" font-size="10.00" fill="#767676">^6.4 || ^7.0</text>
</g>
<!-- bartlett/php&#45;compatinfo&#45;db&#45;&gt;symfony/config -->
<g id="edge17" class="edge">
<title>bartlett/php&#45;compatinfo&#45;db&#45;&gt;symfony/config</title>
<path fill="none" stroke="#1a2833" d="M484.95,-1120.23C506.29,-1155.76 558.9,-1233.71 627.08,-1267 681.99,-1293.81 855.57,-1249.22 901.08,-1290 932.11,-1317.81 889.49,-1352.66 919.08,-1382 931.85,-1394.66 948.53,-1402.4 966.01,-1406.96"/>
<polygon fill="#1a2833" stroke="#1a2833" points="965.25,-1410.38 975.78,-1409.18 966.81,-1403.55 965.25,-1410.38"/>
<text text-anchor="middle" x="764.08" y="-1293" font-family="Times,serif" font-size="10.00" fill="#767676">^6.4 || ^7.0</text>
</g>
<!-- bartlett/php&#45;compatinfo&#45;db&#45;&gt;symfony/console -->
<g id="edge18" class="edge">
<title>bartlett/php&#45;compatinfo&#45;db&#45;&gt;symfony/console</title>
<path fill="none" stroke="#1a2833" d="M482.88,-1083.97C501.94,-1044.89 553.01,-952.83 627.08,-914 681.16,-885.64 852.61,-930.15 901.08,-893 920.16,-878.38 900.82,-857.63 919.08,-842 930.93,-831.86 945.35,-825.02 960.45,-820.48"/>
<polygon fill="#1a2833" stroke="#1a2833" points="961.68,-823.78 970.45,-817.82 959.88,-817.01 961.68,-823.78"/>
<text text-anchor="middle" x="764.08" y="-917" font-family="Times,serif" font-size="10.00" fill="#767676">^6.4 || ^7.0</text>
</g>
<!-- bartlett/php&#45;compatinfo&#45;db&#45;&gt;symfony/dependency&#45;injection -->
<g id="edge19" class="edge">
<title>bartlett/php&#45;compatinfo&#45;db&#45;&gt;symfony/dependency&#45;injection</title>
<path fill="none" stroke="#1a2833" d="M485.79,-1083.82C517.39,-1032.82 606.28,-891.22 627.08,-878 731.17,-811.84 805.06,-911.41 901.08,-834 918.17,-820.22 902.16,-802 919.08,-788 920.46,-786.85 921.88,-785.75 923.33,-784.69"/>
<polygon fill="#1a2833" stroke="#1a2833" points="925.5,-787.45 931.94,-779.04 921.66,-781.6 925.5,-787.45"/>
<text text-anchor="middle" x="764.08" y="-881" font-family="Times,serif" font-size="10.00" fill="#767676">^6.4 || ^7.0</text>
</g>
<!-- bartlett/php&#45;compatinfo&#45;db&#45;&gt;symfony/event&#45;dispatcher -->
<g id="edge20" class="edge">
<title>bartlett/php&#45;compatinfo&#45;db&#45;&gt;symfony/event&#45;dispatcher</title>
<path fill="none" stroke="#1a2833" d="M492.51,-1120.1C522.74,-1151.91 583.09,-1221.32 609.08,-1293 625.72,-1338.91 592.58,-1477.44 627.08,-1512 670.25,-1555.24 853.88,-1496.19 901.08,-1535 923.57,-1553.49 897.55,-1578.39 919.08,-1598 922.12,-1600.77 925.36,-1603.3 928.75,-1605.61"/>
<polygon fill="#1a2833" stroke="#1a2833" points="927.1,-1608.7 937.47,-1610.9 930.73,-1602.72 927.1,-1608.7"/>
<text text-anchor="middle" x="764.08" y="-1538" font-family="Times,serif" font-size="10.00" fill="#767676">^6.4 || ^7.0</text>
</g>
<!-- bartlett/php&#45;compatinfo&#45;db&#45;&gt;symfony/finder -->
<g id="edge21" class="edge">
<title>bartlett/php&#45;compatinfo&#45;db&#45;&gt;symfony/finder</title>
<path fill="none" stroke="#1a2833" d="M492.28,-1120.18C522.17,-1152.12 582.02,-1221.72 609.08,-1293 621.78,-1326.45 602.57,-1426.94 627.08,-1453 711.78,-1543.06 804.47,-1423.85 901.08,-1501 917.27,-1513.93 902.96,-1530.98 919.08,-1544 932.6,-1554.93 949.16,-1561.95 966.19,-1566.37"/>
<polygon fill="#1a2833" stroke="#1a2833" points="965.71,-1569.86 976.24,-1568.69 967.28,-1563.03 965.71,-1569.86"/>
<text text-anchor="middle" x="764.08" y="-1504" font-family="Times,serif" font-size="10.00" fill="#767676">^6.4 || ^7.0</text>
</g>
<!-- symfony/http&#45;client -->
<g id="node20" class="node">
<title>symfony/http&#45;client</title>
<path fill="#eeeeee" stroke="black" d="M1157.08,-1373C1157.08,-1373 972.08,-1373 972.08,-1373 966.08,-1373 960.08,-1367 960.08,-1361 960.08,-1361 960.08,-1349 960.08,-1349 960.08,-1343 966.08,-1337 972.08,-1337 972.08,-1337 1157.08,-1337 1157.08,-1337 1163.08,-1337 1169.08,-1343 1169.08,-1349 1169.08,-1349 1169.08,-1361 1169.08,-1361 1169.08,-1367 1163.08,-1373 1157.08,-1373"/>
<text text-anchor="middle" x="1064.58" y="-1351.3" font-family="Times,serif" font-size="14.00" fill="#314b5f">symfony/http&#45;client: v7.3.4</text>
</g>
<!-- bartlett/php&#45;compatinfo&#45;db&#45;&gt;symfony/http&#45;client -->
<g id="edge22" class="edge">
<title>bartlett/php&#45;compatinfo&#45;db&#45;&gt;symfony/http&#45;client</title>
<path fill="none" stroke="#1a2833" d="M489.12,-1120.4C513.83,-1150.13 567.2,-1207.92 627.08,-1233 683.44,-1256.61 854.53,-1216.41 901.08,-1256 926.2,-1277.37 895.06,-1305.39 919.08,-1328 928.01,-1336.41 938.67,-1342.61 950.11,-1347.14"/>
<polygon fill="#1a2833" stroke="#1a2833" points="949.28,-1350.55 959.88,-1350.56 951.6,-1343.95 949.28,-1350.55"/>
<text text-anchor="middle" x="764.08" y="-1259" font-family="Times,serif" font-size="10.00" fill="#767676">^6.4 || ^7.0</text>
</g>
<!-- symfony/messenger -->
<g id="node21" class="node">
<title>symfony/messenger</title>
<path fill="#eeeeee" stroke="black" d="M1158.58,-1319C1158.58,-1319 970.58,-1319 970.58,-1319 964.58,-1319 958.58,-1313 958.58,-1307 958.58,-1307 958.58,-1295 958.58,-1295 958.58,-1289 964.58,-1283 970.58,-1283 970.58,-1283 1158.58,-1283 1158.58,-1283 1164.58,-1283 1170.58,-1289 1170.58,-1295 1170.58,-1295 1170.58,-1307 1170.58,-1307 1170.58,-1313 1164.58,-1319 1158.58,-1319"/>
<text text-anchor="middle" x="1064.58" y="-1297.3" font-family="Times,serif" font-size="14.00" fill="#314b5f">symfony/messenger: v7.3.3</text>
</g>
<!-- bartlett/php&#45;compatinfo&#45;db&#45;&gt;symfony/messenger -->
<g id="edge23" class="edge">
<title>bartlett/php&#45;compatinfo&#45;db&#45;&gt;symfony/messenger</title>
<path fill="none" stroke="#1a2833" d="M495.57,-1120.11C523.48,-1143.02 575.34,-1181.56 627.08,-1199 684.98,-1218.52 852.83,-1184.51 901.08,-1222 920.39,-1237.01 900.55,-1258.04 919.08,-1274 927.83,-1281.54 938,-1287.25 948.81,-1291.56"/>
<polygon fill="#1a2833" stroke="#1a2833" points="947.87,-1294.94 958.46,-1294.98 950.21,-1288.34 947.87,-1294.94"/>
<text text-anchor="middle" x="764.08" y="-1225" font-family="Times,serif" font-size="10.00" fill="#767676">^6.4 || ^7.0</text>
</g>
<!-- symfony/polyfill&#45;php84 -->
<g id="node22" class="node">
<title>symfony/polyfill&#45;php84</title>
<path fill="#eeeeee" stroke="black" d="M1173.08,-541C1173.08,-541 956.08,-541 956.08,-541 950.08,-541 944.08,-535 944.08,-529 944.08,-529 944.08,-517 944.08,-517 944.08,-511 950.08,-505 956.08,-505 956.08,-505 1173.08,-505 1173.08,-505 1179.08,-505 1185.08,-511 1185.08,-517 1185.08,-517 1185.08,-529 1185.08,-529 1185.08,-535 1179.08,-541 1173.08,-541"/>
<text text-anchor="middle" x="1064.58" y="-519.3" font-family="Times,serif" font-size="14.00" fill="#314b5f">symfony/polyfill&#45;php84: v1.33.0</text>
</g>
<!-- bartlett/php&#45;compatinfo&#45;db&#45;&gt;symfony/polyfill&#45;php84 -->
<g id="edge24" class="edge">
<title>bartlett/php&#45;compatinfo&#45;db&#45;&gt;symfony/polyfill&#45;php84</title>
<path fill="none" stroke="#1a2833" d="M491.22,-1083.98C521.16,-1050.28 583.38,-974.13 609.08,-897 619.18,-866.69 604.77,-632.87 627.08,-610 669.76,-566.25 850.54,-620.37 901.08,-586 915.87,-575.94 904.79,-560.77 919.08,-550 923.91,-546.36 929.08,-543.16 934.5,-540.35"/>
<polygon fill="#1a2833" stroke="#1a2833" points="936.24,-543.4 943.82,-535.99 933.28,-537.06 936.24,-543.4"/>
<text text-anchor="middle" x="764.08" y="-613" font-family="Times,serif" font-size="10.00" fill="#767676">^1.0</text>
</g>
<!-- symfony/process -->
<g id="node23" class="node">
<title>symfony/process</title>
<path fill="#eeeeee" stroke="black" d="M1147.08,-1265C1147.08,-1265 982.08,-1265 982.08,-1265 976.08,-1265 970.08,-1259 970.08,-1253 970.08,-1253 970.08,-1241 970.08,-1241 970.08,-1235 976.08,-1229 982.08,-1229 982.08,-1229 1147.08,-1229 1147.08,-1229 1153.08,-1229 1159.08,-1235 1159.08,-1241 1159.08,-1241 1159.08,-1253 1159.08,-1253 1159.08,-1259 1153.08,-1265 1147.08,-1265"/>
<text text-anchor="middle" x="1064.58" y="-1243.3" font-family="Times,serif" font-size="14.00" fill="#314b5f">symfony/process: v7.3.4</text>
</g>
<!-- bartlett/php&#45;compatinfo&#45;db&#45;&gt;symfony/process -->
<g id="edge25" class="edge">
<title>bartlett/php&#45;compatinfo&#45;db&#45;&gt;symfony/process</title>
<path fill="none" stroke="#1a2833" d="M509.58,-1120.11C539.84,-1134.86 585.18,-1154.85 627.08,-1165 686.46,-1179.39 849.67,-1154.97 901.08,-1188 914.81,-1196.82 905.81,-1210.5 919.08,-1220 931.13,-1228.63 945.16,-1234.74 959.64,-1239.02"/>
<polygon fill="#1a2833" stroke="#1a2833" points="959.15,-1242.51 969.71,-1241.7 960.95,-1235.75 959.15,-1242.51"/>
<text text-anchor="middle" x="764.08" y="-1191" font-family="Times,serif" font-size="10.00" fill="#767676">^6.4 || ^7.0</text>
</g>
<!-- symfony/requirements&#45;checker -->
<g id="node24" class="node">
<title>symfony/requirements&#45;checker</title>
<path fill="#eeeeee" stroke="black" d="M1198.08,-1211C1198.08,-1211 931.08,-1211 931.08,-1211 925.08,-1211 919.08,-1205 919.08,-1199 919.08,-1199 919.08,-1187 919.08,-1187 919.08,-1181 925.08,-1175 931.08,-1175 931.08,-1175 1198.08,-1175 1198.08,-1175 1204.08,-1175 1210.08,-1181 1210.08,-1187 1210.08,-1187 1210.08,-1199 1210.08,-1199 1210.08,-1205 1204.08,-1211 1198.08,-1211"/>
<text text-anchor="middle" x="1064.58" y="-1189.3" font-family="Times,serif" font-size="14.00" fill="#314b5f">symfony/requirements&#45;checker: v2.0.3</text>
</g>
<!-- bartlett/php&#45;compatinfo&#45;db&#45;&gt;symfony/requirements&#45;checker -->
<g id="edge26" class="edge">
<title>bartlett/php&#45;compatinfo&#45;db&#45;&gt;symfony/requirements&#45;checker</title>
<path fill="none" stroke="#1a2833" d="M561.02,-1120.06C582.53,-1124.1 605.58,-1128.06 627.08,-1131 748.16,-1147.55 785.7,-1113.72 901.08,-1154 910.16,-1157.17 910.17,-1162.38 919.08,-1166 924.25,-1168.1 929.59,-1170.04 935.04,-1171.84"/>
<polygon fill="#1a2833" stroke="#1a2833" points="934.35,-1175.29 944.94,-1174.9 936.42,-1168.6 934.35,-1175.29"/>
<text text-anchor="middle" x="764.08" y="-1157" font-family="Times,serif" font-size="10.00" fill="#767676">^2.0</text>
</g>
<!-- bartlett/php&#45;compatinfo&#45;db&#45;&gt;symfony/stopwatch -->
<g id="edge27" class="edge">
<title>bartlett/php&#45;compatinfo&#45;db&#45;&gt;symfony/stopwatch</title>
<path fill="none" stroke="#1a2833" d="M490.82,-1120.09C519.01,-1152.44 577.06,-1223.36 609.08,-1293 622.68,-1322.58 603.06,-1342.03 627.08,-1364 718.09,-1447.24 811.42,-1323.3 901.08,-1408 928.2,-1433.62 892.28,-1464.03 919.08,-1490 928.12,-1498.76 939.03,-1505.15 950.77,-1509.75"/>
<polygon fill="#1a2833" stroke="#1a2833" points="949.75,-1513.1 960.34,-1513.07 952.04,-1506.48 949.75,-1513.1"/>
<text text-anchor="middle" x="764.08" y="-1411" font-family="Times,serif" font-size="10.00" fill="#767676">^6.4 || ^7.0</text>
</g>
<!-- bartlett/sarif&#45;php&#45;sdk&#45;&gt;php -->
<g id="edge32" class="edge">
<title>bartlett/sarif&#45;php&#45;sdk&#45;&gt;php</title>
<path fill="none" stroke="#1a2833" d="M580.37,-1529.61C591.4,-1524.51 601.38,-1517.51 609.08,-1508 635.24,-1475.69 599.74,-791.31 627.08,-760 708.2,-667.1 818.86,-807.93 901.08,-716 928.96,-684.82 891.91,-371.8 919.08,-340 945.21,-309.41 993.64,-305.06 1027.19,-306.27"/>
<polygon fill="#1a2833" stroke="#1a2833" points="1027.34,-309.78 1037.51,-306.83 1027.72,-302.79 1027.34,-309.78"/>
<text text-anchor="middle" x="764.08" y="-763" font-family="Times,serif" font-size="10.00" fill="#767676">^8.2</text>
</g>
<!-- bartlett/sarif&#45;php&#45;sdk&#45;&gt;ext&#45;json -->
<g id="edge29" class="edge">
<title>bartlett/sarif&#45;php&#45;sdk&#45;&gt;ext&#45;json</title>
<path fill="none" stroke="#1a2833" d="M580.33,-1526.88C590.95,-1522.2 600.83,-1516.04 609.08,-1508 631.46,-1486.17 603.05,-1460 627.08,-1440 674.01,-1400.93 859,-1463.25 901.08,-1419 927.31,-1391.41 894.37,-762.96 919.08,-734 942.69,-706.32 984.82,-701.09 1017.52,-701.9"/>
<polygon fill="#1a2833" stroke="#1a2833" points="1017.62,-705.41 1027.77,-702.35 1017.93,-698.41 1017.62,-705.41"/>
<text text-anchor="middle" x="764.08" y="-1443" font-family="Times,serif" font-size="10.00" fill="#767676">*</text>
</g>
<!-- bartlett/sarif&#45;php&#45;sdk&#45;&gt;ext&#45;pcre -->
<g id="edge30" class="edge">
<title>bartlett/sarif&#45;php&#45;sdk&#45;&gt;ext&#45;pcre</title>
<path fill="none" stroke="#1a2833" d="M580.3,-1551.75C591.12,-1556.65 601.07,-1563.23 609.08,-1572 646.93,-1613.44 586.73,-1657.98 627.08,-1697 654.72,-1723.74 909.97,-1738.15 1016.85,-1743.05"/>
<polygon fill="#1a2833" stroke="#1a2833" points="1016.88,-1746.55 1027.02,-1743.51 1017.19,-1739.56 1016.88,-1746.55"/>
<text text-anchor="middle" x="764.08" y="-1739" font-family="Times,serif" font-size="10.00" fill="#767676">*</text>
</g>
<!-- bartlett/sarif&#45;php&#45;sdk&#45;&gt;ext&#45;spl -->
<g id="edge31" class="edge">
<title>bartlett/sarif&#45;php&#45;sdk&#45;&gt;ext&#45;spl</title>
<path fill="none" stroke="#1a2833" d="M580.3,-1553.15C590.92,-1557.83 600.81,-1563.97 609.08,-1572 631.19,-1593.49 603.49,-1619.14 627.08,-1639 685.98,-1688.6 924.54,-1684.78 1021.9,-1681"/>
<polygon fill="#1a2833" stroke="#1a2833" points="1022.11,-1684.49 1031.96,-1680.59 1021.83,-1677.5 1022.11,-1684.49"/>
<text text-anchor="middle" x="764.08" y="-1685" font-family="Times,serif" font-size="10.00" fill="#767676">*</text>
</g>
<!-- doctrine/collections&#45;&gt;php -->
<g id="edge36" class="edge">
<title>doctrine/collections&#45;&gt;php</title>
<path fill="none" stroke="#1a2833" d="M499.54,-541.9C528.59,-521.9 578.76,-490.61 627.08,-476 685.57,-458.32 856.3,-494.57 901.08,-453 938.35,-418.4 883.97,-376.79 919.08,-340 946.69,-311.06 994.36,-306.26 1027.36,-306.92"/>
<polygon fill="#1a2833" stroke="#1a2833" points="1027.39,-310.42 1037.51,-307.3 1027.65,-303.43 1027.39,-310.42"/>
<text text-anchor="middle" x="764.08" y="-479" font-family="Times,serif" font-size="10.00" fill="#767676">^8.1</text>
</g>
<!-- doctrine/collections&#45;&gt;symfony/polyfill&#45;php84 -->
<g id="edge37" class="edge">
<title>doctrine/collections&#45;&gt;symfony/polyfill&#45;php84</title>
<path fill="none" stroke="#1a2833" d="M574.23,-552.63C591.84,-551.38 609.99,-550.12 627.08,-549 730.18,-542.21 847.04,-535.29 933.89,-530.3"/>
<polygon fill="#1a2833" stroke="#1a2833" points="934.27,-533.78 944.06,-529.72 933.87,-526.79 934.27,-533.78"/>
<text text-anchor="middle" x="764.08" y="-552" font-family="Times,serif" font-size="10.00" fill="#767676">^1.30</text>
</g>
<!-- doctrine/deprecations -->
<g id="node28" class="node">
<title>doctrine/deprecations</title>
<path fill="#eeeeee" stroke="black" d="M1161.58,-595C1161.58,-595 967.58,-595 967.58,-595 961.58,-595 955.58,-589 955.58,-583 955.58,-583 955.58,-571 955.58,-571 955.58,-565 961.58,-559 967.58,-559 967.58,-559 1161.58,-559 1161.58,-559 1167.58,-559 1173.58,-565 1173.58,-571 1173.58,-571 1173.58,-583 1173.58,-583 1173.58,-589 1167.58,-595 1161.58,-595"/>
<text text-anchor="middle" x="1064.58" y="-573.3" font-family="Times,serif" font-size="14.00" fill="#314b5f">doctrine/deprecations: 1.1.5</text>
</g>
<!-- doctrine/collections&#45;&gt;doctrine/deprecations -->
<g id="edge35" class="edge">
<title>doctrine/collections&#45;&gt;doctrine/deprecations</title>
<path fill="none" stroke="#1a2833" d="M574.16,-562.87C676.75,-565.84 836.61,-570.45 945.5,-573.59"/>
<polygon fill="#1a2833" stroke="#1a2833" points="945.45,-577.09 955.55,-573.88 945.66,-570.09 945.45,-577.09"/>
<text text-anchor="middle" x="764.08" y="-574" font-family="Times,serif" font-size="10.00" fill="#767676">^1</text>
</g>
<!-- nikic/php&#45;parser&#45;&gt;php -->
<g id="edge42" class="edge">
<title>nikic/php&#45;parser&#45;&gt;php</title>
<path fill="none" stroke="#1a2833" d="M520.94,-388.99C550.81,-378.09 590.72,-364.83 627.08,-357 773.2,-325.54 951.6,-314.7 1027.07,-311.35"/>
<polygon fill="#1a2833" stroke="#1a2833" points="1027.61,-314.83 1037.45,-310.91 1027.31,-307.84 1027.61,-314.83"/>
<text text-anchor="middle" x="764.08" y="-360" font-family="Times,serif" font-size="10.00" fill="#767676">&gt;=7.4</text>
</g>
<!-- nikic/php&#45;parser&#45;&gt;ext&#45;json -->
<g id="edge40" class="edge">
<title>nikic/php&#45;parser&#45;&gt;ext&#45;json</title>
<path fill="none" stroke="#1a2833" d="M502.62,-425.17C533.78,-446.91 583.1,-486.31 609.08,-533 628.91,-568.65 597.89,-594.5 627.08,-623 715.54,-709.37 783.67,-632.28 901.08,-671 909.57,-673.8 910.6,-677.15 919.08,-680 951.18,-690.79 988.83,-697.65 1017.65,-701.75"/>
<polygon fill="#1a2833" stroke="#1a2833" points="1017.46,-705.26 1027.84,-703.14 1018.4,-698.32 1017.46,-705.26"/>
<text text-anchor="middle" x="764.08" y="-674" font-family="Times,serif" font-size="10.00" fill="#767676">*</text>
</g>
<!-- ext&#45;ctype -->
<g id="node30" class="node">
<title>ext&#45;ctype</title>
<path fill="#eeeeee" stroke="black" d="M1094.08,-385C1094.08,-385 1035.08,-385 1035.08,-385 1029.08,-385 1023.08,-379 1023.08,-373 1023.08,-373 1023.08,-361 1023.08,-361 1023.08,-355 1029.08,-349 1035.08,-349 1035.08,-349 1094.08,-349 1094.08,-349 1100.08,-349 1106.08,-355 1106.08,-361 1106.08,-361 1106.08,-373 1106.08,-373 1106.08,-379 1100.08,-385 1094.08,-385"/>
<text text-anchor="middle" x="1064.58" y="-363.3" font-family="Times,serif" font-size="14.00" fill="#314b5f">ext&#45;ctype</text>
</g>
<!-- nikic/php&#45;parser&#45;&gt;ext&#45;ctype -->
<g id="edge39" class="edge">
<title>nikic/php&#45;parser&#45;&gt;ext&#45;ctype</title>
<path fill="none" stroke="#1a2833" d="M566.81,-395.1C586.67,-392.83 607.55,-390.64 627.08,-389 766.19,-377.3 930.81,-371.05 1012.42,-368.47"/>
<polygon fill="#1a2833" stroke="#1a2833" points="1013.01,-371.95 1022.9,-368.14 1012.79,-364.95 1013.01,-371.95"/>
<text text-anchor="middle" x="764.08" y="-392" font-family="Times,serif" font-size="10.00" fill="#767676">*</text>
</g>
<!-- ext&#45;tokenizer -->
<g id="node31" class="node">
<title>ext&#45;tokenizer</title>
<path fill="#eeeeee" stroke="black" d="M1107.58,-439C1107.58,-439 1021.58,-439 1021.58,-439 1015.58,-439 1009.58,-433 1009.58,-427 1009.58,-427 1009.58,-415 1009.58,-415 1009.58,-409 1015.58,-403 1021.58,-403 1021.58,-403 1107.58,-403 1107.58,-403 1113.58,-403 1119.58,-409 1119.58,-415 1119.58,-415 1119.58,-427 1119.58,-427 1119.58,-433 1113.58,-439 1107.58,-439"/>
<text text-anchor="middle" x="1064.58" y="-417.3" font-family="Times,serif" font-size="14.00" fill="#314b5f">ext&#45;tokenizer</text>
</g>
<!-- nikic/php&#45;parser&#45;&gt;ext&#45;tokenizer -->
<g id="edge41" class="edge">
<title>nikic/php&#45;parser&#45;&gt;ext&#45;tokenizer</title>
<path fill="none" stroke="#1a2833" d="M566.97,-405.15C653.39,-403.92 786.04,-403.27 901.08,-408 933.46,-409.33 969.38,-412.07 999.2,-414.7"/>
<polygon fill="#1a2833" stroke="#1a2833" points="999.2,-418.21 1009.48,-415.62 999.83,-411.24 999.2,-418.21"/>
<text text-anchor="middle" x="764.08" y="-411" font-family="Times,serif" font-size="10.00" fill="#767676">*</text>
</g>
<!-- ramsey/uuid&#45;&gt;php -->
<g id="edge46" class="edge">
<title>ramsey/uuid&#45;&gt;php</title>
<path fill="none" stroke="#1a2833" d="M528.67,-199.08C557.55,-208.01 593.9,-218.11 627.08,-224 687.21,-234.67 844.87,-221.13 901.08,-245 910.93,-249.18 909.83,-255.62 919.08,-261 953.54,-281.04 997.42,-294.45 1027.73,-302.1"/>
<polygon fill="#1a2833" stroke="#1a2833" points="1026.92,-305.51 1037.46,-304.48 1028.58,-298.71 1026.92,-305.51"/>
<text text-anchor="middle" x="764.08" y="-248" font-family="Times,serif" font-size="10.00" fill="#767676">^8.0</text>
</g>
<!-- brick/math -->
<g id="node33" class="node">
<title>brick/math</title>
<path fill="#eeeeee" stroke="black" d="M1126.58,-144C1126.58,-144 1002.58,-144 1002.58,-144 996.58,-144 990.58,-138 990.58,-132 990.58,-132 990.58,-120 990.58,-120 990.58,-114 996.58,-108 1002.58,-108 1002.58,-108 1126.58,-108 1126.58,-108 1132.58,-108 1138.58,-114 1138.58,-120 1138.58,-120 1138.58,-132 1138.58,-132 1138.58,-138 1132.58,-144 1126.58,-144"/>
<text text-anchor="middle" x="1064.58" y="-122.3" font-family="Times,serif" font-size="14.00" fill="#314b5f">brick/math: 0.14.0</text>
</g>
<!-- ramsey/uuid&#45;&gt;brick/math -->
<g id="edge45" class="edge">
<title>ramsey/uuid&#45;&gt;brick/math</title>
<path fill="none" stroke="#1a2833" d="M539,-162.95C565.99,-156.13 597.84,-149.05 627.08,-145 749.04,-128.1 891.83,-125 980,-124.98"/>
<polygon fill="#1a2833" stroke="#1a2833" points="980.21,-128.48 990.21,-125 980.22,-121.48 980.21,-128.48"/>
<text text-anchor="middle" x="764.08" y="-148" font-family="Times,serif" font-size="10.00" fill="#767676">^0.8.8 || ^0.9 || ^0.10 || ^0.11 || ^0.12 || ^0.13 || ^0.14</text>
</g>
<!-- ramsey/collection -->
<g id="node34" class="node">
<title>ramsey/collection</title>
<path fill="#eeeeee" stroke="black" d="M1146.08,-90C1146.08,-90 983.08,-90 983.08,-90 977.08,-90 971.08,-84 971.08,-78 971.08,-78 971.08,-66 971.08,-66 971.08,-60 977.08,-54 983.08,-54 983.08,-54 1146.08,-54 1146.08,-54 1152.08,-54 1158.08,-60 1158.08,-66 1158.08,-66 1158.08,-78 1158.08,-78 1158.08,-84 1152.08,-90 1146.08,-90"/>
<text text-anchor="middle" x="1064.58" y="-68.3" font-family="Times,serif" font-size="14.00" fill="#314b5f">ramsey/collection: 2.1.1</text>
</g>
<!-- ramsey/uuid&#45;&gt;ramsey/collection -->
<g id="edge47" class="edge">
<title>ramsey/uuid&#45;&gt;ramsey/collection</title>
<path fill="none" stroke="#1a2833" d="M548.64,-169.71C570.56,-163.1 592.97,-152.62 609.08,-136 628.45,-116.01 604.82,-92.72 627.08,-76 653.07,-56.48 840.24,-61.32 960.9,-66.65"/>
<polygon fill="#1a2833" stroke="#1a2833" points="960.77,-70.14 970.92,-67.1 961.08,-63.15 960.77,-70.14"/>
<text text-anchor="middle" x="764.08" y="-79" font-family="Times,serif" font-size="10.00" fill="#767676">^1.2 || ^2.0</text>
</g>
<!-- symfony/serializer&#45;&gt;php -->
<g id="edge54" class="edge">
<title>symfony/serializer&#45;&gt;php</title>
<path fill="none" stroke="#1a2833" d="M574.4,-255.72C661.02,-259.68 789.66,-267.31 901.08,-281 944.84,-286.38 994.69,-295.76 1027.51,-302.4"/>
<polygon fill="#1a2833" stroke="#1a2833" points="1027.04,-305.88 1037.54,-304.45 1028.44,-299.02 1027.04,-305.88"/>
<text text-anchor="middle" x="764.08" y="-284" font-family="Times,serif" font-size="10.00" fill="#767676">&gt;=8.2</text>
</g>
<!-- symfony/serializer&#45;&gt;symfony/polyfill&#45;php84 -->
<g id="edge57" class="edge">
<title>symfony/serializer&#45;&gt;symfony/polyfill&#45;php84</title>
<path fill="none" stroke="#1a2833" d="M574.41,-261.15C587.53,-266.26 599.66,-273.58 609.08,-284 649.66,-328.91 583.09,-377.41 627.08,-419 671.45,-460.95 842.29,-423.45 901.08,-440 907.42,-441.79 974.18,-476.32 1020.13,-500.27"/>
<polygon fill="#1a2833" stroke="#1a2833" points="1018.53,-503.39 1029.02,-504.91 1021.77,-497.18 1018.53,-503.39"/>
<text text-anchor="middle" x="764.08" y="-443" font-family="Times,serif" font-size="10.00" fill="#767676">^1.30</text>
</g>
<!-- symfony/deprecation&#45;contracts -->
<g id="node36" class="node">
<title>symfony/deprecation&#45;contracts</title>
<path fill="#eeeeee" stroke="black" d="M1197.58,-252C1197.58,-252 931.58,-252 931.58,-252 925.58,-252 919.58,-246 919.58,-240 919.58,-240 919.58,-228 919.58,-228 919.58,-222 925.58,-216 931.58,-216 931.58,-216 1197.58,-216 1197.58,-216 1203.58,-216 1209.58,-222 1209.58,-228 1209.58,-228 1209.58,-240 1209.58,-240 1209.58,-246 1203.58,-252 1197.58,-252"/>
<text text-anchor="middle" x="1064.58" y="-230.3" font-family="Times,serif" font-size="14.00" fill="#314b5f">symfony/deprecation&#45;contracts: v3.6.0</text>
</g>
<!-- symfony/serializer&#45;&gt;symfony/deprecation&#45;contracts -->
<g id="edge55" class="edge">
<title>symfony/serializer&#45;&gt;symfony/deprecation&#45;contracts</title>
<path fill="none" stroke="#1a2833" d="M531.14,-233.94C559.59,-225.77 594.81,-217.06 627.08,-213 725.55,-200.61 837.37,-206.36 923.18,-214.96"/>
<polygon fill="#1a2833" stroke="#1a2833" points="922.94,-218.45 933.25,-215.99 923.66,-211.49 922.94,-218.45"/>
<text text-anchor="middle" x="764.08" y="-216" font-family="Times,serif" font-size="10.00" fill="#767676">^2.5|^3</text>
</g>
<!-- symfony/polyfill&#45;ctype -->
<g id="node37" class="node">
<title>symfony/polyfill&#45;ctype</title>
<path fill="#eeeeee" stroke="black" d="M1170.08,-198C1170.08,-198 959.08,-198 959.08,-198 953.08,-198 947.08,-192 947.08,-186 947.08,-186 947.08,-174 947.08,-174 947.08,-168 953.08,-162 959.08,-162 959.08,-162 1170.08,-162 1170.08,-162 1176.08,-162 1182.08,-168 1182.08,-174 1182.08,-174 1182.08,-186 1182.08,-186 1182.08,-192 1176.08,-198 1170.08,-198"/>
<text text-anchor="middle" x="1064.58" y="-176.3" font-family="Times,serif" font-size="14.00" fill="#314b5f">symfony/polyfill&#45;ctype: v1.33.0</text>
</g>
<!-- symfony/serializer&#45;&gt;symfony/polyfill&#45;ctype -->
<g id="edge56" class="edge">
<title>symfony/serializer&#45;&gt;symfony/polyfill&#45;ctype</title>
<path fill="none" stroke="#1a2833" d="M550.62,-233.96C570.48,-227.45 591.28,-218.93 609.08,-208 618.72,-202.08 616.68,-194.45 627.08,-190 680.81,-167.02 828.16,-168.09 936.86,-172.58"/>
<polygon fill="#1a2833" stroke="#1a2833" points="936.79,-176.08 946.93,-173.01 937.09,-169.09 936.79,-176.08"/>
<text text-anchor="middle" x="764.08" y="-193" font-family="Times,serif" font-size="10.00" fill="#767676">~1.8</text>
</g>
<!-- bamarni/composer&#45;bin&#45;plugin&#45;&gt;php -->
<g id="edge61" class="edge">
<title>bamarni/composer&#45;bin&#45;plugin&#45;&gt;php</title>
<path fill="none" stroke="#1a2833" d="M609.1,-100.55C725.85,-94.63 879.51,-90.8 901.08,-110 926.32,-132.47 897.8,-234.75 919.08,-261 945.27,-293.31 993.69,-304.42 1027.22,-308.18"/>
<polygon fill="#1a2833" stroke="#1a2833" points="1027.25,-311.7 1037.53,-309.16 1027.91,-304.73 1027.25,-311.7"/>
<text text-anchor="middle" x="764.08" y="-113" font-family="Times,serif" font-size="10.00" fill="#767676">^7.2.5 || ^8.0</text>
</g>
<!-- composer&#45;plugin&#45;api -->
<g id="node39" class="node">
<title>composer&#45;plugin&#45;api</title>
<path fill="#eeeeee" stroke="black" d="M1133.08,-36C1133.08,-36 996.08,-36 996.08,-36 990.08,-36 984.08,-30 984.08,-24 984.08,-24 984.08,-12 984.08,-12 984.08,-6 990.08,0 996.08,0 996.08,0 1133.08,0 1133.08,0 1139.08,0 1145.08,-6 1145.08,-12 1145.08,-12 1145.08,-24 1145.08,-24 1145.08,-30 1139.08,-36 1133.08,-36"/>
<text text-anchor="middle" x="1064.58" y="-14.3" font-family="Times,serif" font-size="14.00" fill="#314b5f">composer&#45;plugin&#45;api</text>
</g>
<!-- bamarni/composer&#45;bin&#45;plugin&#45;&gt;composer&#45;plugin&#45;api -->
<g id="edge60" class="edge">
<title>bamarni/composer&#45;bin&#45;plugin&#45;&gt;composer&#45;plugin&#45;api</title>
<path fill="none" stroke="#1a2833" d="M504.85,-90.87C534.75,-74.01 582.36,-49.91 627.08,-39 744.36,-10.4 884.48,-9.24 973.74,-12.46"/>
<polygon fill="#1a2833" stroke="#1a2833" points="973.7,-15.96 983.83,-12.85 973.97,-8.96 973.7,-15.96"/>
<text text-anchor="middle" x="764.08" y="-42" font-family="Times,serif" font-size="10.00" fill="#767676">^2.0</text>
</g>
</g>
</svg>
