<?xml version="1.0" encoding="UTF-8" standalone="no"?>
<!DOCTYPE svg PUBLIC "-//W3C//DTD SVG 1.1//EN"
 "http://www.w3.org/Graphics/SVG/1.1/DTD/svg11.dtd">
<!-- Generated by graphviz version 2.43.0 (0)
 -->
<!-- Title: %3 Pages: 1 -->
<svg width="1143pt" height="2370pt"
 viewBox="0.00 0.00 1143.08 2369.92" xmlns="http://www.w3.org/2000/svg" xmlns:xlink="http://www.w3.org/1999/xlink">
<g id="graph0" class="graph" transform="scale(1 1) rotate(0) translate(4 2365.92)">
<title>%3</title>
<polygon fill="white" stroke="transparent" points="-4,4 -4,-2365.92 1139.08,-2365.92 1139.08,4 -4,4"/>
<!-- bartlett/php&#45;compatinfo -->
<g id="node1" class="node">
<title>bartlett/php&#45;compatinfo</title>
<ellipse fill="lightgrey" stroke="black" stroke-width="2" cx="121.54" cy="-1125.92" rx="121.58" ry="18"/>
<text text-anchor="middle" x="121.54" y="-1122.22" font-family="Times,serif" font-size="14.00">bartlett/php&#45;compatinfo</text>
</g>
<!-- php -->
<g id="node2" class="node">
<title>php</title>
<path fill="#eeeeee" stroke="black" d="M1002.58,-819.92C1002.58,-819.92 972.58,-819.92 972.58,-819.92 966.58,-819.92 960.58,-813.92 960.58,-807.92 960.58,-807.92 960.58,-795.92 960.58,-795.92 960.58,-789.92 966.58,-783.92 972.58,-783.92 972.58,-783.92 1002.58,-783.92 1002.58,-783.92 1008.58,-783.92 1014.58,-789.92 1014.58,-795.92 1014.58,-795.92 1014.58,-807.92 1014.58,-807.92 1014.58,-813.92 1008.58,-819.92 1002.58,-819.92"/>
<text text-anchor="middle" x="987.58" y="-798.22" font-family="Times,serif" font-size="14.00" fill="#314b5f">php</text>
</g>
<!-- bartlett/php&#45;compatinfo&#45;&gt;php -->
<g id="edge1" class="edge">
<title>bartlett/php&#45;compatinfo&#45;&gt;php</title>
<path fill="none" stroke="#1a2833" d="M132.23,-1107.76C158.37,-1060.77 235.31,-934.91 338.08,-877.92 444.66,-818.83 829.66,-805.39 950.22,-802.6"/>
<polygon fill="#1a2833" stroke="#1a2833" points="950.48,-806.09 960.4,-802.37 950.33,-799.1 950.48,-806.09"/>
<text text-anchor="middle" x="475.08" y="-880.92" font-family="Times,serif" font-size="10.00" fill="#767676">^8.1</text>
</g>
<!-- ext&#45;json -->
<g id="node3" class="node">
<title>ext&#45;json</title>
<path fill="#eeeeee" stroke="black" d="M1012.08,-1529.92C1012.08,-1529.92 963.08,-1529.92 963.08,-1529.92 957.08,-1529.92 951.08,-1523.92 951.08,-1517.92 951.08,-1517.92 951.08,-1505.92 951.08,-1505.92 951.08,-1499.92 957.08,-1493.92 963.08,-1493.92 963.08,-1493.92 1012.08,-1493.92 1012.08,-1493.92 1018.08,-1493.92 1024.08,-1499.92 1024.08,-1505.92 1024.08,-1505.92 1024.08,-1517.92 1024.08,-1517.92 1024.08,-1523.92 1018.08,-1529.92 1012.08,-1529.92"/>
<text text-anchor="middle" x="987.58" y="-1508.22" font-family="Times,serif" font-size="14.00" fill="#314b5f">ext&#45;json</text>
</g>
<!-- bartlett/php&#45;compatinfo&#45;&gt;ext&#45;json -->
<g id="edge2" class="edge">
<title>bartlett/php&#45;compatinfo&#45;&gt;ext&#45;json</title>
<path fill="none" stroke="#1a2833" d="M127.21,-1143.94C143.83,-1203.91 206.26,-1397.42 338.08,-1475.92 439.72,-1536.45 810.38,-1521.94 940.8,-1514.74"/>
<polygon fill="#1a2833" stroke="#1a2833" points="941.07,-1518.23 950.86,-1514.17 940.68,-1511.24 941.07,-1518.23"/>
<text text-anchor="middle" x="475.08" y="-1522.92" font-family="Times,serif" font-size="10.00" fill="#767676">*</text>
</g>
<!-- ext&#45;pcre -->
<g id="node4" class="node">
<title>ext&#45;pcre</title>
<path fill="#eeeeee" stroke="black" d="M1013.08,-2314.92C1013.08,-2314.92 962.08,-2314.92 962.08,-2314.92 956.08,-2314.92 950.08,-2308.92 950.08,-2302.92 950.08,-2302.92 950.08,-2290.92 950.08,-2290.92 950.08,-2284.92 956.08,-2278.92 962.08,-2278.92 962.08,-2278.92 1013.08,-2278.92 1013.08,-2278.92 1019.08,-2278.92 1025.08,-2284.92 1025.08,-2290.92 1025.08,-2290.92 1025.08,-2302.92 1025.08,-2302.92 1025.08,-2308.92 1019.08,-2314.92 1013.08,-2314.92"/>
<text text-anchor="middle" x="987.58" y="-2293.22" font-family="Times,serif" font-size="14.00" fill="#314b5f">ext&#45;pcre</text>
</g>
<!-- bartlett/php&#45;compatinfo&#45;&gt;ext&#45;pcre -->
<g id="edge3" class="edge">
<title>bartlett/php&#45;compatinfo&#45;&gt;ext&#45;pcre</title>
<path fill="none" stroke="#1a2833" d="M122.31,-1144C121.08,-1271.98 119.67,-2041.15 261.08,-2213.92 429.33,-2419.49 808.21,-2344.14 940.19,-2310.03"/>
<polygon fill="#1a2833" stroke="#1a2833" points="941.21,-2313.38 950,-2307.45 939.44,-2306.61 941.21,-2313.38"/>
<text text-anchor="middle" x="475.08" y="-2353.92" font-family="Times,serif" font-size="10.00" fill="#767676">*</text>
</g>
<!-- ext&#45;spl -->
<g id="node5" class="node">
<title>ext&#45;spl</title>
<path fill="#eeeeee" stroke="black" d="M1008.08,-2234.92C1008.08,-2234.92 967.08,-2234.92 967.08,-2234.92 961.08,-2234.92 955.08,-2228.92 955.08,-2222.92 955.08,-2222.92 955.08,-2210.92 955.08,-2210.92 955.08,-2204.92 961.08,-2198.92 967.08,-2198.92 967.08,-2198.92 1008.08,-2198.92 1008.08,-2198.92 1014.08,-2198.92 1020.08,-2204.92 1020.08,-2210.92 1020.08,-2210.92 1020.08,-2222.92 1020.08,-2222.92 1020.08,-2228.92 1014.08,-2234.92 1008.08,-2234.92"/>
<text text-anchor="middle" x="987.58" y="-2213.22" font-family="Times,serif" font-size="14.00" fill="#314b5f">ext&#45;spl</text>
</g>
<!-- bartlett/php&#45;compatinfo&#45;&gt;ext&#45;spl -->
<g id="edge4" class="edge">
<title>bartlett/php&#45;compatinfo&#45;&gt;ext&#45;spl</title>
<path fill="none" stroke="#1a2833" d="M123.61,-1144.23C131.68,-1278.84 184.52,-2112.41 261.08,-2190.92 308.83,-2239.89 797.21,-2224.51 944.66,-2218.7"/>
<polygon fill="#1a2833" stroke="#1a2833" points="945.22,-2222.18 955.07,-2218.28 944.94,-2215.19 945.22,-2222.18"/>
<text text-anchor="middle" x="475.08" y="-2227.92" font-family="Times,serif" font-size="10.00" fill="#767676">*</text>
</g>
<!-- bartlett/php&#45;compatinfo&#45;db -->
<g id="node6" class="node">
<title>bartlett/php&#45;compatinfo&#45;db</title>
<path fill="#eeeeee" stroke="black" d="M594.58,-1754.92C594.58,-1754.92 355.58,-1754.92 355.58,-1754.92 349.58,-1754.92 343.58,-1748.92 343.58,-1742.92 343.58,-1742.92 343.58,-1730.92 343.58,-1730.92 343.58,-1724.92 349.58,-1718.92 355.58,-1718.92 355.58,-1718.92 594.58,-1718.92 594.58,-1718.92 600.58,-1718.92 606.58,-1724.92 606.58,-1730.92 606.58,-1730.92 606.58,-1742.92 606.58,-1742.92 606.58,-1748.92 600.58,-1754.92 594.58,-1754.92"/>
<text text-anchor="middle" x="475.08" y="-1733.22" font-family="Times,serif" font-size="14.00" fill="#314b5f">bartlett/php&#45;compatinfo&#45;db: 6.16.0</text>
</g>
<!-- bartlett/php&#45;compatinfo&#45;&gt;bartlett/php&#45;compatinfo&#45;db -->
<g id="edge27" class="edge">
<title>bartlett/php&#45;compatinfo&#45;&gt;bartlett/php&#45;compatinfo&#45;db</title>
<path fill="none" stroke="#1a2833" d="M121.89,-1144.36C120.32,-1217.94 124.15,-1494.04 261.08,-1649.92 289.57,-1682.36 331.98,-1702.92 371.46,-1715.84"/>
<polygon fill="#1a2833" stroke="#1a2833" points="370.57,-1719.23 381.16,-1718.88 372.67,-1712.55 370.57,-1719.23"/>
<text text-anchor="middle" x="290.58" y="-1696.92" font-family="Times,serif" font-size="10.00" fill="#767676">^6.4.2</text>
</g>
<!-- composer&#45;runtime&#45;api -->
<g id="node7" class="node">
<title>composer&#45;runtime&#45;api</title>
<path fill="#eeeeee" stroke="black" d="M1062.08,-1475.92C1062.08,-1475.92 913.08,-1475.92 913.08,-1475.92 907.08,-1475.92 901.08,-1469.92 901.08,-1463.92 901.08,-1463.92 901.08,-1451.92 901.08,-1451.92 901.08,-1445.92 907.08,-1439.92 913.08,-1439.92 913.08,-1439.92 1062.08,-1439.92 1062.08,-1439.92 1068.08,-1439.92 1074.08,-1445.92 1074.08,-1451.92 1074.08,-1451.92 1074.08,-1463.92 1074.08,-1463.92 1074.08,-1469.92 1068.08,-1475.92 1062.08,-1475.92"/>
<text text-anchor="middle" x="987.58" y="-1454.22" font-family="Times,serif" font-size="14.00" fill="#314b5f">composer&#45;runtime&#45;api</text>
</g>
<!-- bartlett/php&#45;compatinfo&#45;&gt;composer&#45;runtime&#45;api -->
<g id="edge33" class="edge">
<title>bartlett/php&#45;compatinfo&#45;&gt;composer&#45;runtime&#45;api</title>
<path fill="none" stroke="#1a2833" d="M140.16,-1143.97C201.04,-1204.86 410.78,-1402.61 630.08,-1469.92 716.02,-1496.3 819.13,-1488.91 892.31,-1477.56"/>
<polygon fill="#1a2833" stroke="#1a2833" points="893.11,-1480.97 902.43,-1475.93 892,-1474.06 893.11,-1480.97"/>
<text text-anchor="middle" x="475.08" y="-1463.92" font-family="Times,serif" font-size="10.00" fill="#767676">^2.1</text>
</g>
<!-- symfony/config -->
<g id="node14" class="node">
<title>symfony/config</title>
<path fill="#eeeeee" stroke="black" d="M1068.58,-1240.92C1068.58,-1240.92 906.58,-1240.92 906.58,-1240.92 900.58,-1240.92 894.58,-1234.92 894.58,-1228.92 894.58,-1228.92 894.58,-1216.92 894.58,-1216.92 894.58,-1210.92 900.58,-1204.92 906.58,-1204.92 906.58,-1204.92 1068.58,-1204.92 1068.58,-1204.92 1074.58,-1204.92 1080.58,-1210.92 1080.58,-1216.92 1080.58,-1216.92 1080.58,-1228.92 1080.58,-1228.92 1080.58,-1234.92 1074.58,-1240.92 1068.58,-1240.92"/>
<text text-anchor="middle" x="987.58" y="-1219.22" font-family="Times,serif" font-size="14.00" fill="#314b5f">symfony/config: v6.4.14</text>
</g>
<!-- bartlett/php&#45;compatinfo&#45;&gt;symfony/config -->
<g id="edge50" class="edge">
<title>bartlett/php&#45;compatinfo&#45;&gt;symfony/config</title>
<path fill="none" stroke="#1a2833" d="M204.05,-1139.16C222.74,-1141.78 242.56,-1144.24 261.08,-1145.92 276.61,-1147.33 808.59,-1159.09 822.08,-1166.92 835.19,-1174.54 827.55,-1187.37 840.08,-1195.92 853.35,-1204.98 868.8,-1211.23 884.6,-1215.5"/>
<polygon fill="#1a2833" stroke="#1a2833" points="883.92,-1218.94 894.46,-1217.91 885.58,-1212.14 883.92,-1218.94"/>
<text text-anchor="middle" x="475.08" y="-1158.92" font-family="Times,serif" font-size="10.00" fill="#767676">^6.4 || ^7.0</text>
</g>
<!-- symfony/console -->
<g id="node15" class="node">
<title>symfony/console</title>
<path fill="#eeeeee" stroke="black" d="M1074.08,-1640.92C1074.08,-1640.92 901.08,-1640.92 901.08,-1640.92 895.08,-1640.92 889.08,-1634.92 889.08,-1628.92 889.08,-1628.92 889.08,-1616.92 889.08,-1616.92 889.08,-1610.92 895.08,-1604.92 901.08,-1604.92 901.08,-1604.92 1074.08,-1604.92 1074.08,-1604.92 1080.08,-1604.92 1086.08,-1610.92 1086.08,-1616.92 1086.08,-1616.92 1086.08,-1628.92 1086.08,-1628.92 1086.08,-1634.92 1080.08,-1640.92 1074.08,-1640.92"/>
<text text-anchor="middle" x="987.58" y="-1619.22" font-family="Times,serif" font-size="14.00" fill="#314b5f">symfony/console: v6.4.20</text>
</g>
<!-- bartlett/php&#45;compatinfo&#45;&gt;symfony/console -->
<g id="edge51" class="edge">
<title>bartlett/php&#45;compatinfo&#45;&gt;symfony/console</title>
<path fill="none" stroke="#1a2833" d="M125.57,-1144.15C137.75,-1210.77 189.76,-1442.1 338.08,-1534.92 504.74,-1639.23 742.4,-1642.73 878.92,-1634.05"/>
<polygon fill="#1a2833" stroke="#1a2833" points="879.24,-1637.53 888.98,-1633.37 878.77,-1630.55 879.24,-1637.53"/>
<text text-anchor="middle" x="475.08" y="-1627.92" font-family="Times,serif" font-size="10.00" fill="#767676">^6.4 || ^7.0</text>
</g>
<!-- symfony/dependency&#45;injection -->
<g id="node16" class="node">
<title>symfony/dependency&#45;injection</title>
<path fill="#eeeeee" stroke="black" d="M1123.08,-1186.92C1123.08,-1186.92 852.08,-1186.92 852.08,-1186.92 846.08,-1186.92 840.08,-1180.92 840.08,-1174.92 840.08,-1174.92 840.08,-1162.92 840.08,-1162.92 840.08,-1156.92 846.08,-1150.92 852.08,-1150.92 852.08,-1150.92 1123.08,-1150.92 1123.08,-1150.92 1129.08,-1150.92 1135.08,-1156.92 1135.08,-1162.92 1135.08,-1162.92 1135.08,-1174.92 1135.08,-1174.92 1135.08,-1180.92 1129.08,-1186.92 1123.08,-1186.92"/>
<text text-anchor="middle" x="987.58" y="-1165.22" font-family="Times,serif" font-size="14.00" fill="#314b5f">symfony/dependency&#45;injection: v6.4.20</text>
</g>
<!-- bartlett/php&#45;compatinfo&#45;&gt;symfony/dependency&#45;injection -->
<g id="edge54" class="edge">
<title>bartlett/php&#45;compatinfo&#45;&gt;symfony/dependency&#45;injection</title>
<path fill="none" stroke="#1a2833" d="M238.19,-1131.15C245.93,-1131.43 253.62,-1131.69 261.08,-1131.92 510.33,-1139.54 573.72,-1119.45 822.08,-1141.92 841.22,-1143.66 861.51,-1146.31 881.05,-1149.28"/>
<polygon fill="#1a2833" stroke="#1a2833" points="880.77,-1152.78 891.19,-1150.87 881.85,-1145.87 880.77,-1152.78"/>
<text text-anchor="middle" x="475.08" y="-1135.92" font-family="Times,serif" font-size="10.00" fill="#767676">^6.4 || ^7.0</text>
</g>
<!-- symfony/event&#45;dispatcher -->
<g id="node17" class="node">
<title>symfony/event&#45;dispatcher</title>
<path fill="#eeeeee" stroke="black" d="M1107.08,-1132.92C1107.08,-1132.92 868.08,-1132.92 868.08,-1132.92 862.08,-1132.92 856.08,-1126.92 856.08,-1120.92 856.08,-1120.92 856.08,-1108.92 856.08,-1108.92 856.08,-1102.92 862.08,-1096.92 868.08,-1096.92 868.08,-1096.92 1107.08,-1096.92 1107.08,-1096.92 1113.08,-1096.92 1119.08,-1102.92 1119.08,-1108.92 1119.08,-1108.92 1119.08,-1120.92 1119.08,-1120.92 1119.08,-1126.92 1113.08,-1132.92 1107.08,-1132.92"/>
<text text-anchor="middle" x="987.58" y="-1111.22" font-family="Times,serif" font-size="14.00" fill="#314b5f">symfony/event&#45;dispatcher: v6.4.13</text>
</g>
<!-- bartlett/php&#45;compatinfo&#45;&gt;symfony/event&#45;dispatcher -->
<g id="edge52" class="edge">
<title>bartlett/php&#45;compatinfo&#45;&gt;symfony/event&#45;dispatcher</title>
<path fill="none" stroke="#1a2833" d="M237.17,-1120.31C269.77,-1118.94 305.32,-1117.66 338.08,-1116.92 512.91,-1113 714.33,-1113.1 845.71,-1113.79"/>
<polygon fill="#1a2833" stroke="#1a2833" points="845.81,-1117.29 855.83,-1113.84 845.85,-1110.29 845.81,-1117.29"/>
<text text-anchor="middle" x="475.08" y="-1119.92" font-family="Times,serif" font-size="10.00" fill="#767676">^6.4 || ^7.0</text>
</g>
<!-- symfony/finder -->
<g id="node18" class="node">
<title>symfony/finder</title>
<path fill="#eeeeee" stroke="black" d="M1068.08,-1078.92C1068.08,-1078.92 907.08,-1078.92 907.08,-1078.92 901.08,-1078.92 895.08,-1072.92 895.08,-1066.92 895.08,-1066.92 895.08,-1054.92 895.08,-1054.92 895.08,-1048.92 901.08,-1042.92 907.08,-1042.92 907.08,-1042.92 1068.08,-1042.92 1068.08,-1042.92 1074.08,-1042.92 1080.08,-1048.92 1080.08,-1054.92 1080.08,-1054.92 1080.08,-1066.92 1080.08,-1066.92 1080.08,-1072.92 1074.08,-1078.92 1068.08,-1078.92"/>
<text text-anchor="middle" x="987.58" y="-1057.22" font-family="Times,serif" font-size="14.00" fill="#314b5f">symfony/finder: v6.4.17</text>
</g>
<!-- bartlett/php&#45;compatinfo&#45;&gt;symfony/finder -->
<g id="edge53" class="edge">
<title>bartlett/php&#45;compatinfo&#45;&gt;symfony/finder</title>
<path fill="none" stroke="#1a2833" d="M208.38,-1113.33C247.82,-1107.91 295.25,-1101.92 338.08,-1097.92 530.89,-1079.92 756.83,-1069.42 884.7,-1064.46"/>
<polygon fill="#1a2833" stroke="#1a2833" points="885.01,-1067.95 894.87,-1064.07 884.74,-1060.96 885.01,-1067.95"/>
<text text-anchor="middle" x="475.08" y="-1100.92" font-family="Times,serif" font-size="10.00" fill="#767676">^6.4 || ^7.0</text>
</g>
<!-- symfony/stopwatch -->
<g id="node24" class="node">
<title>symfony/stopwatch</title>
<path fill="#eeeeee" stroke="black" d="M1084.08,-2180.92C1084.08,-2180.92 891.08,-2180.92 891.08,-2180.92 885.08,-2180.92 879.08,-2174.92 879.08,-2168.92 879.08,-2168.92 879.08,-2156.92 879.08,-2156.92 879.08,-2150.92 885.08,-2144.92 891.08,-2144.92 891.08,-2144.92 1084.08,-2144.92 1084.08,-2144.92 1090.08,-2144.92 1096.08,-2150.92 1096.08,-2156.92 1096.08,-2156.92 1096.08,-2168.92 1096.08,-2168.92 1096.08,-2174.92 1090.08,-2180.92 1084.08,-2180.92"/>
<text text-anchor="middle" x="987.58" y="-2159.22" font-family="Times,serif" font-size="14.00" fill="#314b5f">symfony/stopwatch: v6.4.19</text>
</g>
<!-- bartlett/php&#45;compatinfo&#45;&gt;symfony/stopwatch -->
<g id="edge59" class="edge">
<title>bartlett/php&#45;compatinfo&#45;&gt;symfony/stopwatch</title>
<path fill="none" stroke="#1a2833" d="M123.86,-1144.09C129.86,-1218.14 158.77,-1503.02 261.08,-1708.92 264.67,-1716.14 622.82,-2153.42 630.08,-2156.92 670.84,-2176.58 781.33,-2175.74 868.6,-2171.4"/>
<polygon fill="#1a2833" stroke="#1a2833" points="869.05,-2174.89 878.85,-2170.87 868.69,-2167.89 869.05,-2174.89"/>
<text text-anchor="middle" x="475.08" y="-2136.92" font-family="Times,serif" font-size="10.00" fill="#767676">^6.4 || ^7.0</text>
</g>
<!-- bartlett/sarif&#45;php&#45;sdk -->
<g id="node25" class="node">
<title>bartlett/sarif&#45;php&#45;sdk</title>
<path fill="#eeeeee" stroke="black" d="M569.58,-2193.92C569.58,-2193.92 380.58,-2193.92 380.58,-2193.92 374.58,-2193.92 368.58,-2187.92 368.58,-2181.92 368.58,-2181.92 368.58,-2169.92 368.58,-2169.92 368.58,-2163.92 374.58,-2157.92 380.58,-2157.92 380.58,-2157.92 569.58,-2157.92 569.58,-2157.92 575.58,-2157.92 581.58,-2163.92 581.58,-2169.92 581.58,-2169.92 581.58,-2181.92 581.58,-2181.92 581.58,-2187.92 575.58,-2193.92 569.58,-2193.92"/>
<text text-anchor="middle" x="475.08" y="-2172.22" font-family="Times,serif" font-size="14.00" fill="#314b5f">bartlett/sarif&#45;php&#45;sdk: 2.1.1</text>
</g>
<!-- bartlett/php&#45;compatinfo&#45;&gt;bartlett/sarif&#45;php&#45;sdk -->
<g id="edge32" class="edge">
<title>bartlett/php&#45;compatinfo&#45;&gt;bartlett/sarif&#45;php&#45;sdk</title>
<path fill="none" stroke="#1a2833" d="M122.19,-1144.27C120.21,-1269.19 115.17,-1994.32 261.08,-2142.92 286.36,-2168.67 322.82,-2179.7 358.45,-2183.45"/>
<polygon fill="#1a2833" stroke="#1a2833" points="358.2,-2186.95 368.46,-2184.32 358.81,-2179.97 358.2,-2186.95"/>
<text text-anchor="middle" x="290.58" y="-2178.92" font-family="Times,serif" font-size="10.00" fill="#767676">^2.1</text>
</g>
<!-- doctrine/collections -->
<g id="node26" class="node">
<title>doctrine/collections</title>
<path fill="#eeeeee" stroke="black" d="M563.58,-1019.92C563.58,-1019.92 386.58,-1019.92 386.58,-1019.92 380.58,-1019.92 374.58,-1013.92 374.58,-1007.92 374.58,-1007.92 374.58,-995.92 374.58,-995.92 374.58,-989.92 380.58,-983.92 386.58,-983.92 386.58,-983.92 563.58,-983.92 563.58,-983.92 569.58,-983.92 575.58,-989.92 575.58,-995.92 575.58,-995.92 575.58,-1007.92 575.58,-1007.92 575.58,-1013.92 569.58,-1019.92 563.58,-1019.92"/>
<text text-anchor="middle" x="475.08" y="-998.22" font-family="Times,serif" font-size="14.00" fill="#314b5f">doctrine/collections: 2.3.0</text>
</g>
<!-- bartlett/php&#45;compatinfo&#45;&gt;doctrine/collections -->
<g id="edge37" class="edge">
<title>bartlett/php&#45;compatinfo&#45;&gt;doctrine/collections</title>
<path fill="none" stroke="#1a2833" d="M141.94,-1108.17C167.29,-1086.08 214.01,-1049.08 261.08,-1030.92 293.48,-1018.42 330.48,-1011.18 364.44,-1007.02"/>
<polygon fill="#1a2833" stroke="#1a2833" points="364.86,-1010.49 374.4,-1005.88 364.07,-1003.54 364.86,-1010.49"/>
<text text-anchor="middle" x="290.58" y="-1033.92" font-family="Times,serif" font-size="10.00" fill="#767676">^2.1</text>
</g>
<!-- nikic/php&#45;parser -->
<g id="node28" class="node">
<title>nikic/php&#45;parser</title>
<path fill="#eeeeee" stroke="black" d="M556.08,-933.92C556.08,-933.92 394.08,-933.92 394.08,-933.92 388.08,-933.92 382.08,-927.92 382.08,-921.92 382.08,-921.92 382.08,-909.92 382.08,-909.92 382.08,-903.92 388.08,-897.92 394.08,-897.92 394.08,-897.92 556.08,-897.92 556.08,-897.92 562.08,-897.92 568.08,-903.92 568.08,-909.92 568.08,-909.92 568.08,-921.92 568.08,-921.92 568.08,-927.92 562.08,-933.92 556.08,-933.92"/>
<text text-anchor="middle" x="475.08" y="-912.22" font-family="Times,serif" font-size="14.00" fill="#314b5f">nikic/php&#45;parser: v5.4.0</text>
</g>
<!-- bartlett/php&#45;compatinfo&#45;&gt;nikic/php&#45;parser -->
<g id="edge42" class="edge">
<title>bartlett/php&#45;compatinfo&#45;&gt;nikic/php&#45;parser</title>
<path fill="none" stroke="#1a2833" d="M138.33,-1107.64C162.45,-1080.7 210.94,-1030.13 261.08,-998.92 304.37,-971.97 357.86,-951.17 400.41,-937.13"/>
<polygon fill="#1a2833" stroke="#1a2833" points="401.71,-940.38 410.15,-933.97 399.55,-933.73 401.71,-940.38"/>
<text text-anchor="middle" x="290.58" y="-1001.92" font-family="Times,serif" font-size="10.00" fill="#767676">^5.0</text>
</g>
<!-- psr/log -->
<g id="node31" class="node">
<title>psr/log</title>
<path fill="#eeeeee" stroke="black" d="M518.58,-785.92C518.58,-785.92 431.58,-785.92 431.58,-785.92 425.58,-785.92 419.58,-779.92 419.58,-773.92 419.58,-773.92 419.58,-761.92 419.58,-761.92 419.58,-755.92 425.58,-749.92 431.58,-749.92 431.58,-749.92 518.58,-749.92 518.58,-749.92 524.58,-749.92 530.58,-755.92 530.58,-761.92 530.58,-761.92 530.58,-773.92 530.58,-773.92 530.58,-779.92 524.58,-785.92 518.58,-785.92"/>
<text text-anchor="middle" x="475.08" y="-764.22" font-family="Times,serif" font-size="14.00" fill="#314b5f">psr/log: 3.0.2</text>
</g>
<!-- bartlett/php&#45;compatinfo&#45;&gt;psr/log -->
<g id="edge44" class="edge">
<title>bartlett/php&#45;compatinfo&#45;&gt;psr/log</title>
<path fill="none" stroke="#1a2833" d="M124.12,-1107.59C130.09,-1050.83 156.54,-877.02 261.08,-796.92 302.94,-764.85 363.49,-759.35 409.34,-760.86"/>
<polygon fill="#1a2833" stroke="#1a2833" points="409.33,-764.36 419.48,-761.31 409.64,-757.37 409.33,-764.36"/>
<text text-anchor="middle" x="290.58" y="-799.92" font-family="Times,serif" font-size="10.00" fill="#767676">^3.0</text>
</g>
<!-- ramsey/uuid -->
<g id="node32" class="node">
<title>ramsey/uuid</title>
<path fill="#eeeeee" stroke="black" d="M538.08,-731.92C538.08,-731.92 412.08,-731.92 412.08,-731.92 406.08,-731.92 400.08,-725.92 400.08,-719.92 400.08,-719.92 400.08,-707.92 400.08,-707.92 400.08,-701.92 406.08,-695.92 412.08,-695.92 412.08,-695.92 538.08,-695.92 538.08,-695.92 544.08,-695.92 550.08,-701.92 550.08,-707.92 550.08,-707.92 550.08,-719.92 550.08,-719.92 550.08,-725.92 544.08,-731.92 538.08,-731.92"/>
<text text-anchor="middle" x="475.08" y="-710.22" font-family="Times,serif" font-size="14.00" fill="#314b5f">ramsey/uuid: 4.7.6</text>
</g>
<!-- bartlett/php&#45;compatinfo&#45;&gt;ramsey/uuid -->
<g id="edge49" class="edge">
<title>bartlett/php&#45;compatinfo&#45;&gt;ramsey/uuid</title>
<path fill="none" stroke="#1a2833" d="M123.37,-1107.77C127.2,-1047.17 148.19,-850.35 261.08,-754.92 296.42,-725.04 346.92,-714.4 389.88,-711.42"/>
<polygon fill="#1a2833" stroke="#1a2833" points="390.27,-714.9 400.05,-710.84 389.87,-707.91 390.27,-714.9"/>
<text text-anchor="middle" x="290.58" y="-757.92" font-family="Times,serif" font-size="10.00" fill="#767676">^4.0</text>
</g>
<!-- symfony/serializer -->
<g id="node35" class="node">
<title>symfony/serializer</title>
<path fill="#eeeeee" stroke="black" d="M568.08,-619.92C568.08,-619.92 382.08,-619.92 382.08,-619.92 376.08,-619.92 370.08,-613.92 370.08,-607.92 370.08,-607.92 370.08,-595.92 370.08,-595.92 370.08,-589.92 376.08,-583.92 382.08,-583.92 382.08,-583.92 568.08,-583.92 568.08,-583.92 574.08,-583.92 580.08,-589.92 580.08,-595.92 580.08,-595.92 580.08,-607.92 580.08,-607.92 580.08,-613.92 574.08,-619.92 568.08,-619.92"/>
<text text-anchor="middle" x="475.08" y="-598.22" font-family="Times,serif" font-size="14.00" fill="#314b5f">symfony/serializer: v6.4.19</text>
</g>
<!-- bartlett/php&#45;compatinfo&#45;&gt;symfony/serializer -->
<g id="edge58" class="edge">
<title>bartlett/php&#45;compatinfo&#45;&gt;symfony/serializer</title>
<path fill="none" stroke="#1a2833" d="M123.73,-1107.69C128.77,-1044.74 153.29,-833.56 261.08,-708.92 297.09,-667.28 353.2,-640.02 398.79,-623.44"/>
<polygon fill="#1a2833" stroke="#1a2833" points="400.08,-626.7 408.34,-620.07 397.75,-620.1 400.08,-626.7"/>
<text text-anchor="middle" x="290.58" y="-711.92" font-family="Times,serif" font-size="10.00" fill="#767676">^6.4 || ^7.0</text>
</g>
<!-- symfony/framework&#45;bundle -->
<g id="node38" class="node">
<title>symfony/framework&#45;bundle</title>
<path fill="#eeeeee" stroke="black" d="M600.08,-449.92C600.08,-449.92 350.08,-449.92 350.08,-449.92 344.08,-449.92 338.08,-443.92 338.08,-437.92 338.08,-437.92 338.08,-425.92 338.08,-425.92 338.08,-419.92 344.08,-413.92 350.08,-413.92 350.08,-413.92 600.08,-413.92 600.08,-413.92 606.08,-413.92 612.08,-419.92 612.08,-425.92 612.08,-425.92 612.08,-437.92 612.08,-437.92 612.08,-443.92 606.08,-449.92 600.08,-449.92"/>
<text text-anchor="middle" x="475.08" y="-428.22" font-family="Times,serif" font-size="14.00" fill="#314b5f">symfony/framework&#45;bundle: v6.4.20</text>
</g>
<!-- bartlett/php&#45;compatinfo&#45;&gt;symfony/framework&#45;bundle -->
<g id="edge75" class="edge">
<title>bartlett/php&#45;compatinfo&#45;&gt;symfony/framework&#45;bundle</title>
<path fill="none" stroke="#1a2833" stroke-dasharray="5,2" d="M124.55,-1107.74C132.49,-1041.72 166.04,-810.04 261.08,-647.92 308.95,-566.27 394.57,-492.82 441.36,-456.28"/>
<polygon fill="#1a2833" stroke="#1a2833" points="443.57,-458.99 449.35,-450.11 439.29,-453.45 443.57,-458.99"/>
<text text-anchor="middle" x="290.58" y="-650.92" font-family="Times,serif" font-size="10.00" fill="#767676">^6.4 || ^7.0</text>
</g>
<!-- bamarni/composer&#45;bin&#45;plugin -->
<g id="node46" class="node">
<title>bamarni/composer&#45;bin&#45;plugin</title>
<path fill="#eeeeee" stroke="black" d="M598.58,-330.92C598.58,-330.92 351.58,-330.92 351.58,-330.92 345.58,-330.92 339.58,-324.92 339.58,-318.92 339.58,-318.92 339.58,-306.92 339.58,-306.92 339.58,-300.92 345.58,-294.92 351.58,-294.92 351.58,-294.92 598.58,-294.92 598.58,-294.92 604.58,-294.92 610.58,-300.92 610.58,-306.92 610.58,-306.92 610.58,-318.92 610.58,-318.92 610.58,-324.92 604.58,-330.92 598.58,-330.92"/>
<text text-anchor="middle" x="475.08" y="-309.22" font-family="Times,serif" font-size="14.00" fill="#314b5f">bamarni/composer&#45;bin&#45;plugin: 1.8.2</text>
</g>
<!-- bartlett/php&#45;compatinfo&#45;&gt;bamarni/composer&#45;bin&#45;plugin -->
<g id="edge78" class="edge">
<title>bartlett/php&#45;compatinfo&#45;&gt;bamarni/composer&#45;bin&#45;plugin</title>
<path fill="none" stroke="#1a2833" stroke-dasharray="5,2" d="M122.71,-1107.69C124.47,-1018.87 143.42,-626.93 338.08,-404.92 363.35,-376.1 399.58,-352.18 428.3,-335.96"/>
<polygon fill="#1a2833" stroke="#1a2833" points="430.28,-338.87 437.34,-330.97 426.89,-332.74 430.28,-338.87"/>
<text text-anchor="middle" x="290.58" y="-505.92" font-family="Times,serif" font-size="10.00" fill="#767676">^1.8</text>
</g>
<!-- bartlett/php&#45;compatinfo&#45;db&#45;&gt;php -->
<g id="edge14" class="edge">
<title>bartlett/php&#45;compatinfo&#45;db&#45;&gt;php</title>
<path fill="none" stroke="#1a2833" d="M526.73,-1718.79C557.03,-1705.09 593.2,-1683.09 612.08,-1650.92 630.66,-1619.25 604.83,-1347.59 630.08,-1320.92 689.1,-1258.59 763.52,-1362.69 822.08,-1299.92 856.59,-1262.93 808.96,-884.82 840.08,-844.92 865.93,-811.77 915.98,-803.19 950.32,-801.46"/>
<polygon fill="#1a2833" stroke="#1a2833" points="950.55,-804.96 960.43,-801.13 950.32,-797.96 950.55,-804.96"/>
<text text-anchor="middle" x="726.08" y="-1323.92" font-family="Times,serif" font-size="10.00" fill="#767676">^8.1</text>
</g>
<!-- bartlett/php&#45;compatinfo&#45;db&#45;&gt;ext&#45;json -->
<g id="edge9" class="edge">
<title>bartlett/php&#45;compatinfo&#45;db&#45;&gt;ext&#45;json</title>
<path fill="none" stroke="#1a2833" d="M517.58,-1718.84C547.2,-1704.17 586.21,-1681 612.08,-1650.92 625.06,-1635.83 614.06,-1621.74 630.08,-1609.92 699.2,-1558.93 754.01,-1640.31 822.08,-1587.92 839.48,-1574.53 823.29,-1556.06 840.08,-1541.92 867.82,-1518.56 908.92,-1511.76 940.53,-1510.41"/>
<polygon fill="#1a2833" stroke="#1a2833" points="940.94,-1513.9 950.85,-1510.14 940.76,-1506.9 940.94,-1513.9"/>
<text text-anchor="middle" x="726.08" y="-1612.92" font-family="Times,serif" font-size="10.00" fill="#767676">*</text>
</g>
<!-- bartlett/php&#45;compatinfo&#45;db&#45;&gt;ext&#45;pcre -->
<g id="edge10" class="edge">
<title>bartlett/php&#45;compatinfo&#45;db&#45;&gt;ext&#45;pcre</title>
<path fill="none" stroke="#1a2833" d="M484.14,-1755C507.46,-1807.99 575.62,-1967.9 612.08,-2106.92 624.76,-2155.27 595.77,-2181.58 630.08,-2217.92 632.77,-2220.77 843.6,-2266.27 939.73,-2286.89"/>
<polygon fill="#1a2833" stroke="#1a2833" points="939.26,-2290.37 949.77,-2289.05 940.73,-2283.53 939.26,-2290.37"/>
<text text-anchor="middle" x="726.08" y="-2263.92" font-family="Times,serif" font-size="10.00" fill="#767676">*</text>
</g>
<!-- bartlett/php&#45;compatinfo&#45;db&#45;&gt;ext&#45;spl -->
<g id="edge13" class="edge">
<title>bartlett/php&#45;compatinfo&#45;db&#45;&gt;ext&#45;spl</title>
<path fill="none" stroke="#1a2833" d="M477.69,-1755.1C484.14,-1816.76 513.74,-2019.77 630.08,-2122.92 696.14,-2181.5 744.31,-2132.13 822.08,-2173.92 831.51,-2178.99 830.46,-2185.22 840.08,-2189.92 873.03,-2206.02 914.41,-2212.57 944.79,-2215.21"/>
<polygon fill="#1a2833" stroke="#1a2833" points="944.8,-2218.72 955.04,-2215.99 945.34,-2211.74 944.8,-2218.72"/>
<text text-anchor="middle" x="726.08" y="-2176.92" font-family="Times,serif" font-size="10.00" fill="#767676">*</text>
</g>
<!-- bartlett/php&#45;compatinfo&#45;db&#45;&gt;composer&#45;runtime&#45;api -->
<g id="edge5" class="edge">
<title>bartlett/php&#45;compatinfo&#45;db&#45;&gt;composer&#45;runtime&#45;api</title>
<path fill="none" stroke="#1a2833" d="M523.86,-1718.81C554,-1704.87 591.07,-1682.58 612.08,-1650.92 638.99,-1610.38 596.81,-1578.43 630.08,-1542.92 690,-1478.96 742.33,-1534.29 822.08,-1497.92 831.06,-1493.83 831,-1488.8 840.08,-1484.92 855.98,-1478.13 873.57,-1473.04 890.89,-1469.23"/>
<polygon fill="#1a2833" stroke="#1a2833" points="891.95,-1472.58 901.03,-1467.13 890.53,-1465.73 891.95,-1472.58"/>
<text text-anchor="middle" x="726.08" y="-1545.92" font-family="Times,serif" font-size="10.00" fill="#767676">^2.0</text>
</g>
<!-- composer/semver -->
<g id="node8" class="node">
<title>composer/semver</title>
<path fill="#eeeeee" stroke="black" d="M1069.58,-2018.92C1069.58,-2018.92 905.58,-2018.92 905.58,-2018.92 899.58,-2018.92 893.58,-2012.92 893.58,-2006.92 893.58,-2006.92 893.58,-1994.92 893.58,-1994.92 893.58,-1988.92 899.58,-1982.92 905.58,-1982.92 905.58,-1982.92 1069.58,-1982.92 1069.58,-1982.92 1075.58,-1982.92 1081.58,-1988.92 1081.58,-1994.92 1081.58,-1994.92 1081.58,-2006.92 1081.58,-2006.92 1081.58,-2012.92 1075.58,-2018.92 1069.58,-2018.92"/>
<text text-anchor="middle" x="987.58" y="-1997.22" font-family="Times,serif" font-size="14.00" fill="#314b5f">composer/semver: 3.4.3</text>
</g>
<!-- bartlett/php&#45;compatinfo&#45;db&#45;&gt;composer/semver -->
<g id="edge6" class="edge">
<title>bartlett/php&#45;compatinfo&#45;db&#45;&gt;composer/semver</title>
<path fill="none" stroke="#1a2833" d="M485.25,-1755.02C505.52,-1792.89 558.1,-1880.17 630.08,-1918.92 705.75,-1959.66 750.61,-1894.19 822.08,-1941.92 835.65,-1950.99 826.8,-1964.44 840.08,-1973.92 852.97,-1983.14 868.09,-1989.48 883.63,-1993.81"/>
<polygon fill="#1a2833" stroke="#1a2833" points="882.79,-1997.21 893.34,-1996.26 884.49,-1990.42 882.79,-1997.21"/>
<text text-anchor="middle" x="726.08" y="-1944.92" font-family="Times,serif" font-size="10.00" fill="#767676">^3.0</text>
</g>
<!-- doctrine/dbal -->
<g id="node9" class="node">
<title>doctrine/dbal</title>
<path fill="#eeeeee" stroke="black" d="M1053.58,-1964.92C1053.58,-1964.92 921.58,-1964.92 921.58,-1964.92 915.58,-1964.92 909.58,-1958.92 909.58,-1952.92 909.58,-1952.92 909.58,-1940.92 909.58,-1940.92 909.58,-1934.92 915.58,-1928.92 921.58,-1928.92 921.58,-1928.92 1053.58,-1928.92 1053.58,-1928.92 1059.58,-1928.92 1065.58,-1934.92 1065.58,-1940.92 1065.58,-1940.92 1065.58,-1952.92 1065.58,-1952.92 1065.58,-1958.92 1059.58,-1964.92 1053.58,-1964.92"/>
<text text-anchor="middle" x="987.58" y="-1943.22" font-family="Times,serif" font-size="14.00" fill="#314b5f">doctrine/dbal: 4.2.3</text>
</g>
<!-- bartlett/php&#45;compatinfo&#45;db&#45;&gt;doctrine/dbal -->
<g id="edge7" class="edge">
<title>bartlett/php&#45;compatinfo&#45;db&#45;&gt;doctrine/dbal</title>
<path fill="none" stroke="#1a2833" d="M488.63,-1755.09C512.13,-1787.49 566.24,-1854.68 630.08,-1884.92 707.75,-1921.71 741.45,-1878.16 822.08,-1907.92 831.1,-1911.25 831.17,-1916.31 840.08,-1919.92 858.63,-1927.44 879.37,-1932.89 899.26,-1936.82"/>
<polygon fill="#1a2833" stroke="#1a2833" points="898.78,-1940.29 909.26,-1938.68 900.07,-1933.41 898.78,-1940.29"/>
<text text-anchor="middle" x="726.08" y="-1910.92" font-family="Times,serif" font-size="10.00" fill="#767676">^4.0</text>
</g>
<!-- doctrine/orm -->
<g id="node10" class="node">
<title>doctrine/orm</title>
<path fill="#eeeeee" stroke="black" d="M1052.58,-1910.92C1052.58,-1910.92 922.58,-1910.92 922.58,-1910.92 916.58,-1910.92 910.58,-1904.92 910.58,-1898.92 910.58,-1898.92 910.58,-1886.92 910.58,-1886.92 910.58,-1880.92 916.58,-1874.92 922.58,-1874.92 922.58,-1874.92 1052.58,-1874.92 1052.58,-1874.92 1058.58,-1874.92 1064.58,-1880.92 1064.58,-1886.92 1064.58,-1886.92 1064.58,-1898.92 1064.58,-1898.92 1064.58,-1904.92 1058.58,-1910.92 1052.58,-1910.92"/>
<text text-anchor="middle" x="987.58" y="-1889.22" font-family="Times,serif" font-size="14.00" fill="#314b5f">doctrine/orm: 3.3.2</text>
</g>
<!-- bartlett/php&#45;compatinfo&#45;db&#45;&gt;doctrine/orm -->
<g id="edge8" class="edge">
<title>bartlett/php&#45;compatinfo&#45;db&#45;&gt;doctrine/orm</title>
<path fill="none" stroke="#1a2833" d="M496.28,-1755.04C524.2,-1778.95 577.13,-1820.42 630.08,-1840.92 654.76,-1850.48 802.65,-1870.13 900.03,-1882.35"/>
<polygon fill="#1a2833" stroke="#1a2833" points="899.82,-1885.85 910.17,-1883.62 900.68,-1878.9 899.82,-1885.85"/>
<text text-anchor="middle" x="726.08" y="-1873.92" font-family="Times,serif" font-size="10.00" fill="#767676">^3.3</text>
</g>
<!-- ext&#45;pdo -->
<g id="node11" class="node">
<title>ext&#45;pdo</title>
<path fill="#eeeeee" stroke="black" d="M1010.58,-1856.92C1010.58,-1856.92 964.58,-1856.92 964.58,-1856.92 958.58,-1856.92 952.58,-1850.92 952.58,-1844.92 952.58,-1844.92 952.58,-1832.92 952.58,-1832.92 952.58,-1826.92 958.58,-1820.92 964.58,-1820.92 964.58,-1820.92 1010.58,-1820.92 1010.58,-1820.92 1016.58,-1820.92 1022.58,-1826.92 1022.58,-1832.92 1022.58,-1832.92 1022.58,-1844.92 1022.58,-1844.92 1022.58,-1850.92 1016.58,-1856.92 1010.58,-1856.92"/>
<text text-anchor="middle" x="987.58" y="-1835.22" font-family="Times,serif" font-size="14.00" fill="#314b5f">ext&#45;pdo</text>
</g>
<!-- bartlett/php&#45;compatinfo&#45;db&#45;&gt;ext&#45;pdo -->
<g id="edge11" class="edge">
<title>bartlett/php&#45;compatinfo&#45;db&#45;&gt;ext&#45;pdo</title>
<path fill="none" stroke="#1a2833" d="M515.1,-1754.95C545.73,-1768.33 589.78,-1785.94 630.08,-1795.92 740.21,-1823.22 873.95,-1833.44 942.06,-1837.06"/>
<polygon fill="#1a2833" stroke="#1a2833" points="942.24,-1840.58 952.41,-1837.59 942.6,-1833.59 942.24,-1840.58"/>
<text text-anchor="middle" x="726.08" y="-1828.92" font-family="Times,serif" font-size="10.00" fill="#767676">*</text>
</g>
<!-- ext&#45;phar -->
<g id="node12" class="node">
<title>ext&#45;phar</title>
<path fill="#eeeeee" stroke="black" d="M1014.08,-1802.92C1014.08,-1802.92 961.08,-1802.92 961.08,-1802.92 955.08,-1802.92 949.08,-1796.92 949.08,-1790.92 949.08,-1790.92 949.08,-1778.92 949.08,-1778.92 949.08,-1772.92 955.08,-1766.92 961.08,-1766.92 961.08,-1766.92 1014.08,-1766.92 1014.08,-1766.92 1020.08,-1766.92 1026.08,-1772.92 1026.08,-1778.92 1026.08,-1778.92 1026.08,-1790.92 1026.08,-1790.92 1026.08,-1796.92 1020.08,-1802.92 1014.08,-1802.92"/>
<text text-anchor="middle" x="987.58" y="-1781.22" font-family="Times,serif" font-size="14.00" fill="#314b5f">ext&#45;phar</text>
</g>
<!-- bartlett/php&#45;compatinfo&#45;db&#45;&gt;ext&#45;phar -->
<g id="edge12" class="edge">
<title>bartlett/php&#45;compatinfo&#45;db&#45;&gt;ext&#45;phar</title>
<path fill="none" stroke="#1a2833" d="M557.26,-1754.97C580.65,-1759.57 606.28,-1764.02 630.08,-1766.92 740.08,-1780.35 870.35,-1783.8 938.9,-1784.66"/>
<polygon fill="#1a2833" stroke="#1a2833" points="938.92,-1788.16 948.96,-1784.77 939,-1781.16 938.92,-1788.16"/>
<text text-anchor="middle" x="726.08" y="-1783.92" font-family="Times,serif" font-size="10.00" fill="#767676">*</text>
</g>
<!-- symfony/cache -->
<g id="node13" class="node">
<title>symfony/cache</title>
<path fill="#eeeeee" stroke="black" d="M1067.58,-543.92C1067.58,-543.92 907.58,-543.92 907.58,-543.92 901.58,-543.92 895.58,-537.92 895.58,-531.92 895.58,-531.92 895.58,-519.92 895.58,-519.92 895.58,-513.92 901.58,-507.92 907.58,-507.92 907.58,-507.92 1067.58,-507.92 1067.58,-507.92 1073.58,-507.92 1079.58,-513.92 1079.58,-519.92 1079.58,-519.92 1079.58,-531.92 1079.58,-531.92 1079.58,-537.92 1073.58,-543.92 1067.58,-543.92"/>
<text text-anchor="middle" x="987.58" y="-522.22" font-family="Times,serif" font-size="14.00" fill="#314b5f">symfony/cache: v6.4.20</text>
</g>
<!-- bartlett/php&#45;compatinfo&#45;db&#45;&gt;symfony/cache -->
<g id="edge15" class="edge">
<title>bartlett/php&#45;compatinfo&#45;db&#45;&gt;symfony/cache</title>
<path fill="none" stroke="#1a2833" d="M526.79,-1718.82C557.11,-1705.14 593.28,-1683.13 612.08,-1650.92 632.49,-1615.95 602.31,-1316.4 630.08,-1286.92 659.51,-1255.68 793.02,-1297.51 822.08,-1265.92 848.71,-1236.96 815.02,-588.25 840.08,-557.92 851.76,-543.78 868.11,-535 885.67,-529.7"/>
<polygon fill="#1a2833" stroke="#1a2833" points="886.75,-533.04 895.53,-527.1 884.97,-526.27 886.75,-533.04"/>
<text text-anchor="middle" x="726.08" y="-1289.92" font-family="Times,serif" font-size="10.00" fill="#767676">^6.4 || ^7.0</text>
</g>
<!-- bartlett/php&#45;compatinfo&#45;db&#45;&gt;symfony/config -->
<g id="edge16" class="edge">
<title>bartlett/php&#45;compatinfo&#45;db&#45;&gt;symfony/config</title>
<path fill="none" stroke="#1a2833" d="M525.15,-1718.9C555.42,-1705.1 592.15,-1682.94 612.08,-1650.92 631.92,-1619.05 605.36,-1511.18 630.08,-1482.92 687.92,-1416.8 748.43,-1483.82 822.08,-1435.92 895.58,-1388.12 949.71,-1295.95 973.38,-1250.14"/>
<polygon fill="#1a2833" stroke="#1a2833" points="976.56,-1251.6 977.96,-1241.1 970.32,-1248.44 976.56,-1251.6"/>
<text text-anchor="middle" x="726.08" y="-1485.92" font-family="Times,serif" font-size="10.00" fill="#767676">^6.4 || ^7.0</text>
</g>
<!-- bartlett/php&#45;compatinfo&#45;db&#45;&gt;symfony/console -->
<g id="edge17" class="edge">
<title>bartlett/php&#45;compatinfo&#45;db&#45;&gt;symfony/console</title>
<path fill="none" stroke="#1a2833" d="M547.43,-1718.92C573.33,-1712.85 602.9,-1706.48 630.08,-1701.92 672.41,-1694.82 786.1,-1704.33 822.08,-1680.92 835.43,-1672.23 827.05,-1659.09 840.08,-1649.92 851.76,-1641.7 865.23,-1635.76 879.16,-1631.52"/>
<polygon fill="#1a2833" stroke="#1a2833" points="880.15,-1634.87 888.86,-1628.84 878.29,-1628.12 880.15,-1634.87"/>
<text text-anchor="middle" x="726.08" y="-1704.92" font-family="Times,serif" font-size="10.00" fill="#767676">^6.4 || ^7.0</text>
</g>
<!-- bartlett/php&#45;compatinfo&#45;db&#45;&gt;symfony/dependency&#45;injection -->
<g id="edge18" class="edge">
<title>bartlett/php&#45;compatinfo&#45;db&#45;&gt;symfony/dependency&#45;injection</title>
<path fill="none" stroke="#1a2833" d="M526.13,-1718.78C556.38,-1705.04 592.74,-1682.97 612.08,-1650.92 638.33,-1607.4 594.69,-1459.4 630.08,-1422.92 689.86,-1361.31 762.04,-1463.28 822.08,-1401.92 854.22,-1369.08 809.17,-1229.92 840.08,-1195.92 840.73,-1195.21 841.38,-1194.51 842.06,-1193.83"/>
<polygon fill="#1a2833" stroke="#1a2833" points="844.51,-1196.33 849.66,-1187.07 839.86,-1191.1 844.51,-1196.33"/>
<text text-anchor="middle" x="726.08" y="-1425.92" font-family="Times,serif" font-size="10.00" fill="#767676">^6.4 || ^7.0</text>
</g>
<!-- bartlett/php&#45;compatinfo&#45;db&#45;&gt;symfony/event&#45;dispatcher -->
<g id="edge19" class="edge">
<title>bartlett/php&#45;compatinfo&#45;db&#45;&gt;symfony/event&#45;dispatcher</title>
<path fill="none" stroke="#1a2833" d="M526.24,-1718.85C556.54,-1705.13 592.9,-1683.07 612.08,-1650.92 641.97,-1600.8 589.65,-1431.01 630.08,-1388.92 689.54,-1327.01 762.28,-1429.51 822.08,-1367.92 857.17,-1331.78 806.33,-1179.33 840.08,-1141.92 842.42,-1139.33 844.92,-1136.94 847.55,-1134.73"/>
<polygon fill="#1a2833" stroke="#1a2833" points="849.86,-1137.38 855.85,-1128.64 845.72,-1131.73 849.86,-1137.38"/>
<text text-anchor="middle" x="726.08" y="-1391.92" font-family="Times,serif" font-size="10.00" fill="#767676">^6.4 || ^7.0</text>
</g>
<!-- bartlett/php&#45;compatinfo&#45;db&#45;&gt;symfony/finder -->
<g id="edge20" class="edge">
<title>bartlett/php&#45;compatinfo&#45;db&#45;&gt;symfony/finder</title>
<path fill="none" stroke="#1a2833" d="M526.32,-1718.9C556.66,-1705.2 593.03,-1683.15 612.08,-1650.92 645.61,-1594.19 584.62,-1402.63 630.08,-1354.92 689.3,-1292.78 762.48,-1395.7 822.08,-1333.92 860.13,-1294.47 803.49,-1128.74 840.08,-1087.92 851.84,-1074.8 867.72,-1066.75 884.68,-1062"/>
<polygon fill="#1a2833" stroke="#1a2833" points="885.87,-1065.32 894.78,-1059.58 884.24,-1058.51 885.87,-1065.32"/>
<text text-anchor="middle" x="726.08" y="-1357.92" font-family="Times,serif" font-size="10.00" fill="#767676">^6.4 || ^7.0</text>
</g>
<!-- symfony/http&#45;client -->
<g id="node19" class="node">
<title>symfony/http&#45;client</title>
<path fill="#eeeeee" stroke="black" d="M1084.58,-1748.92C1084.58,-1748.92 890.58,-1748.92 890.58,-1748.92 884.58,-1748.92 878.58,-1742.92 878.58,-1736.92 878.58,-1736.92 878.58,-1724.92 878.58,-1724.92 878.58,-1718.92 884.58,-1712.92 890.58,-1712.92 890.58,-1712.92 1084.58,-1712.92 1084.58,-1712.92 1090.58,-1712.92 1096.58,-1718.92 1096.58,-1724.92 1096.58,-1724.92 1096.58,-1736.92 1096.58,-1736.92 1096.58,-1742.92 1090.58,-1748.92 1084.58,-1748.92"/>
<text text-anchor="middle" x="987.58" y="-1727.22" font-family="Times,serif" font-size="14.00" fill="#314b5f">symfony/http&#45;client: v6.4.19</text>
</g>
<!-- bartlett/php&#45;compatinfo&#45;db&#45;&gt;symfony/http&#45;client -->
<g id="edge21" class="edge">
<title>bartlett/php&#45;compatinfo&#45;db&#45;&gt;symfony/http&#45;client</title>
<path fill="none" stroke="#1a2833" d="M606.68,-1747.81C614.6,-1748.25 622.44,-1748.63 630.08,-1748.92 715.35,-1752.24 736.87,-1753.57 822.08,-1748.92 837.02,-1748.11 852.69,-1746.88 868.18,-1745.44"/>
<polygon fill="#1a2833" stroke="#1a2833" points="868.7,-1748.9 878.32,-1744.46 868.03,-1741.94 868.7,-1748.9"/>
<text text-anchor="middle" x="726.08" y="-1754.92" font-family="Times,serif" font-size="10.00" fill="#767676">^6.4 || ^7.0</text>
</g>
<!-- symfony/messenger -->
<g id="node20" class="node">
<title>symfony/messenger</title>
<path fill="#eeeeee" stroke="black" d="M1086.08,-1694.92C1086.08,-1694.92 889.08,-1694.92 889.08,-1694.92 883.08,-1694.92 877.08,-1688.92 877.08,-1682.92 877.08,-1682.92 877.08,-1670.92 877.08,-1670.92 877.08,-1664.92 883.08,-1658.92 889.08,-1658.92 889.08,-1658.92 1086.08,-1658.92 1086.08,-1658.92 1092.08,-1658.92 1098.08,-1664.92 1098.08,-1670.92 1098.08,-1670.92 1098.08,-1682.92 1098.08,-1682.92 1098.08,-1688.92 1092.08,-1694.92 1086.08,-1694.92"/>
<text text-anchor="middle" x="987.58" y="-1673.22" font-family="Times,serif" font-size="14.00" fill="#314b5f">symfony/messenger: v6.4.19</text>
</g>
<!-- bartlett/php&#45;compatinfo&#45;db&#45;&gt;symfony/messenger -->
<g id="edge22" class="edge">
<title>bartlett/php&#45;compatinfo&#45;db&#45;&gt;symfony/messenger</title>
<path fill="none" stroke="#1a2833" d="M606.71,-1735.09C687.49,-1732.71 782.98,-1727.28 822.08,-1714.92 831.02,-1712.1 831.32,-1707.27 840.08,-1703.92 848.77,-1700.6 857.92,-1697.67 867.22,-1695.1"/>
<polygon fill="#1a2833" stroke="#1a2833" points="868.17,-1698.47 876.95,-1692.55 866.39,-1691.7 868.17,-1698.47"/>
<text text-anchor="middle" x="726.08" y="-1736.92" font-family="Times,serif" font-size="10.00" fill="#767676">^6.4 || ^7.0</text>
</g>
<!-- symfony/polyfill&#45;php84 -->
<g id="node21" class="node">
<title>symfony/polyfill&#45;php84</title>
<path fill="#eeeeee" stroke="black" d="M1096.08,-1586.92C1096.08,-1586.92 879.08,-1586.92 879.08,-1586.92 873.08,-1586.92 867.08,-1580.92 867.08,-1574.92 867.08,-1574.92 867.08,-1562.92 867.08,-1562.92 867.08,-1556.92 873.08,-1550.92 879.08,-1550.92 879.08,-1550.92 1096.08,-1550.92 1096.08,-1550.92 1102.08,-1550.92 1108.08,-1556.92 1108.08,-1562.92 1108.08,-1562.92 1108.08,-1574.92 1108.08,-1574.92 1108.08,-1580.92 1102.08,-1586.92 1096.08,-1586.92"/>
<text text-anchor="middle" x="987.58" y="-1565.22" font-family="Times,serif" font-size="14.00" fill="#314b5f">symfony/polyfill&#45;php84: v1.31.0</text>
</g>
<!-- bartlett/php&#45;compatinfo&#45;db&#45;&gt;symfony/polyfill&#45;php84 -->
<g id="edge23" class="edge">
<title>bartlett/php&#45;compatinfo&#45;db&#45;&gt;symfony/polyfill&#45;php84</title>
<path fill="none" stroke="#1a2833" d="M511.06,-1718.81C541.76,-1703.51 587.96,-1681.92 630.08,-1667.92 713.06,-1640.35 750.8,-1675.58 822.08,-1624.92 834.44,-1616.14 827.55,-1604.47 840.08,-1595.92 845.48,-1592.24 851.23,-1589.02 857.23,-1586.21"/>
<polygon fill="#1a2833" stroke="#1a2833" points="859,-1589.26 866.83,-1582.12 856.26,-1582.82 859,-1589.26"/>
<text text-anchor="middle" x="726.08" y="-1670.92" font-family="Times,serif" font-size="10.00" fill="#767676">^1.0</text>
</g>
<!-- symfony/process -->
<g id="node22" class="node">
<title>symfony/process</title>
<path fill="#eeeeee" stroke="black" d="M1074.58,-2126.92C1074.58,-2126.92 900.58,-2126.92 900.58,-2126.92 894.58,-2126.92 888.58,-2120.92 888.58,-2114.92 888.58,-2114.92 888.58,-2102.92 888.58,-2102.92 888.58,-2096.92 894.58,-2090.92 900.58,-2090.92 900.58,-2090.92 1074.58,-2090.92 1074.58,-2090.92 1080.58,-2090.92 1086.58,-2096.92 1086.58,-2102.92 1086.58,-2102.92 1086.58,-2114.92 1086.58,-2114.92 1086.58,-2120.92 1080.58,-2126.92 1074.58,-2126.92"/>
<text text-anchor="middle" x="987.58" y="-2105.22" font-family="Times,serif" font-size="14.00" fill="#314b5f">symfony/process: v6.4.20</text>
</g>
<!-- bartlett/php&#45;compatinfo&#45;db&#45;&gt;symfony/process -->
<g id="edge24" class="edge">
<title>bartlett/php&#45;compatinfo&#45;db&#45;&gt;symfony/process</title>
<path fill="none" stroke="#1a2833" d="M481.18,-1754.99C495.58,-1802.32 541.4,-1930.21 630.08,-1986.92 702.48,-2033.23 757.61,-1953.09 822.08,-2009.92 846.82,-2031.73 816.03,-2059.34 840.08,-2081.92 850.88,-2092.06 864.18,-2099.02 878.32,-2103.71"/>
<polygon fill="#1a2833" stroke="#1a2833" points="877.65,-2107.15 888.23,-2106.6 879.61,-2100.44 877.65,-2107.15"/>
<text text-anchor="middle" x="726.08" y="-2012.92" font-family="Times,serif" font-size="10.00" fill="#767676">^6.4 || ^7.0</text>
</g>
<!-- symfony/requirements&#45;checker -->
<g id="node23" class="node">
<title>symfony/requirements&#45;checker</title>
<path fill="#eeeeee" stroke="black" d="M1121.08,-2072.92C1121.08,-2072.92 854.08,-2072.92 854.08,-2072.92 848.08,-2072.92 842.08,-2066.92 842.08,-2060.92 842.08,-2060.92 842.08,-2048.92 842.08,-2048.92 842.08,-2042.92 848.08,-2036.92 854.08,-2036.92 854.08,-2036.92 1121.08,-2036.92 1121.08,-2036.92 1127.08,-2036.92 1133.08,-2042.92 1133.08,-2048.92 1133.08,-2048.92 1133.08,-2060.92 1133.08,-2060.92 1133.08,-2066.92 1127.08,-2072.92 1121.08,-2072.92"/>
<text text-anchor="middle" x="987.58" y="-2051.22" font-family="Times,serif" font-size="14.00" fill="#314b5f">symfony/requirements&#45;checker: v2.0.3</text>
</g>
<!-- bartlett/php&#45;compatinfo&#45;db&#45;&gt;symfony/requirements&#45;checker -->
<g id="edge25" class="edge">
<title>bartlett/php&#45;compatinfo&#45;db&#45;&gt;symfony/requirements&#45;checker</title>
<path fill="none" stroke="#1a2833" d="M482.93,-1755.05C500.19,-1797.89 549.86,-1905.35 630.08,-1952.92 704,-1996.76 755.16,-1921.99 822.08,-1975.92 841.12,-1991.27 821.53,-2011.98 840.08,-2027.92 841.27,-2028.95 842.5,-2029.94 843.74,-2030.9"/>
<polygon fill="#1a2833" stroke="#1a2833" points="842.07,-2034 852.29,-2036.78 846.04,-2028.23 842.07,-2034"/>
<text text-anchor="middle" x="726.08" y="-1978.92" font-family="Times,serif" font-size="10.00" fill="#767676">^2.0</text>
</g>
<!-- bartlett/php&#45;compatinfo&#45;db&#45;&gt;symfony/stopwatch -->
<g id="edge26" class="edge">
<title>bartlett/php&#45;compatinfo&#45;db&#45;&gt;symfony/stopwatch</title>
<path fill="none" stroke="#1a2833" d="M477.85,-1754.95C484.72,-1814.14 515.21,-2003.61 630.08,-2088.92 699.07,-2140.17 747.63,-2068.98 822.08,-2111.92 833.63,-2118.59 828.74,-2128.9 840.08,-2135.92 849.17,-2141.55 859.14,-2146.07 869.48,-2149.69"/>
<polygon fill="#1a2833" stroke="#1a2833" points="868.47,-2153.04 879.06,-2152.76 870.6,-2146.37 868.47,-2153.04"/>
<text text-anchor="middle" x="726.08" y="-2114.92" font-family="Times,serif" font-size="10.00" fill="#767676">^6.4 || ^7.0</text>
</g>
<!-- bartlett/sarif&#45;php&#45;sdk&#45;&gt;php -->
<g id="edge31" class="edge">
<title>bartlett/sarif&#45;php&#45;sdk&#45;&gt;php</title>
<path fill="none" stroke="#1a2833" d="M581.69,-2164.52C593.07,-2159.59 603.58,-2152.91 612.08,-2143.92 643.7,-2110.47 596.48,-2073.39 630.08,-2041.92 661.41,-2012.59 793.18,-2052.66 822.08,-2020.92 866.07,-1972.61 800.52,-896.93 840.08,-844.92 865.53,-811.46 915.67,-802.96 950.14,-801.33"/>
<polygon fill="#1a2833" stroke="#1a2833" points="950.4,-804.82 960.29,-801.02 950.19,-797.83 950.4,-804.82"/>
<text text-anchor="middle" x="726.08" y="-2044.92" font-family="Times,serif" font-size="10.00" fill="#767676">^8.1</text>
</g>
<!-- bartlett/sarif&#45;php&#45;sdk&#45;&gt;ext&#45;json -->
<g id="edge28" class="edge">
<title>bartlett/sarif&#45;php&#45;sdk&#45;&gt;ext&#45;json</title>
<path fill="none" stroke="#1a2833" d="M581.65,-2163.53C592.9,-2158.75 603.38,-2152.38 612.08,-2143.92 634.49,-2122.12 606.38,-2096.31 630.08,-2075.92 662.61,-2047.93 792.87,-2086.37 822.08,-2054.92 860.89,-2013.13 803.25,-1585.47 840.08,-1541.92 864.13,-1513.48 907.24,-1507.5 940.49,-1507.73"/>
<polygon fill="#1a2833" stroke="#1a2833" points="940.81,-1511.24 950.9,-1508 940.99,-1504.24 940.81,-1511.24"/>
<text text-anchor="middle" x="726.08" y="-2078.92" font-family="Times,serif" font-size="10.00" fill="#767676">*</text>
</g>
<!-- bartlett/sarif&#45;php&#45;sdk&#45;&gt;ext&#45;pcre -->
<g id="edge29" class="edge">
<title>bartlett/sarif&#45;php&#45;sdk&#45;&gt;ext&#45;pcre</title>
<path fill="none" stroke="#1a2833" d="M581.62,-2188.34C592.87,-2193.12 603.37,-2199.48 612.08,-2207.92 634.22,-2229.38 606.2,-2255.42 630.08,-2274.92 653.52,-2294.07 848.53,-2296.81 939.81,-2297.03"/>
<polygon fill="#1a2833" stroke="#1a2833" points="939.88,-2300.53 949.88,-2297.04 939.89,-2293.53 939.88,-2300.53"/>
<text text-anchor="middle" x="726.08" y="-2297.92" font-family="Times,serif" font-size="10.00" fill="#767676">*</text>
</g>
<!-- bartlett/sarif&#45;php&#45;sdk&#45;&gt;ext&#45;spl -->
<g id="edge30" class="edge">
<title>bartlett/sarif&#45;php&#45;sdk&#45;&gt;ext&#45;spl</title>
<path fill="none" stroke="#1a2833" d="M581.85,-2184.42C694.21,-2193.44 866.23,-2207.26 944.81,-2213.57"/>
<polygon fill="#1a2833" stroke="#1a2833" points="944.57,-2217.06 954.82,-2214.37 945.13,-2210.08 944.57,-2217.06"/>
<text text-anchor="middle" x="726.08" y="-2205.92" font-family="Times,serif" font-size="10.00" fill="#767676">*</text>
</g>
<!-- doctrine/collections&#45;&gt;php -->
<g id="edge35" class="edge">
<title>doctrine/collections&#45;&gt;php</title>
<path fill="none" stroke="#1a2833" d="M575.83,-991.85C676.44,-981.48 817.61,-966.23 822.08,-961.92 859.97,-925.43 805.43,-884.51 840.08,-844.92 867.49,-813.61 916.38,-804.53 950.1,-802.19"/>
<polygon fill="#1a2833" stroke="#1a2833" points="950.66,-805.67 960.46,-801.65 950.3,-798.68 950.66,-805.67"/>
<text text-anchor="middle" x="726.08" y="-987.92" font-family="Times,serif" font-size="10.00" fill="#767676">^8.1</text>
</g>
<!-- doctrine/collections&#45;&gt;symfony/polyfill&#45;php84 -->
<g id="edge36" class="edge">
<title>doctrine/collections&#45;&gt;symfony/polyfill&#45;php84</title>
<path fill="none" stroke="#1a2833" d="M575.92,-1009.3C589.85,-1014.55 602.62,-1022.39 612.08,-1033.92 648.75,-1078.61 589.35,-1512.89 630.08,-1553.92 646.15,-1570.11 761.73,-1572.64 857.01,-1571.86"/>
<polygon fill="#1a2833" stroke="#1a2833" points="857.07,-1575.36 867.04,-1571.77 857.01,-1568.36 857.07,-1575.36"/>
<text text-anchor="middle" x="726.08" y="-1574.92" font-family="Times,serif" font-size="10.00" fill="#767676">^1.30</text>
</g>
<!-- doctrine/deprecations -->
<g id="node27" class="node">
<title>doctrine/deprecations</title>
<path fill="#eeeeee" stroke="black" d="M1084.58,-1024.92C1084.58,-1024.92 890.58,-1024.92 890.58,-1024.92 884.58,-1024.92 878.58,-1018.92 878.58,-1012.92 878.58,-1012.92 878.58,-1000.92 878.58,-1000.92 878.58,-994.92 884.58,-988.92 890.58,-988.92 890.58,-988.92 1084.58,-988.92 1084.58,-988.92 1090.58,-988.92 1096.58,-994.92 1096.58,-1000.92 1096.58,-1000.92 1096.58,-1012.92 1096.58,-1012.92 1096.58,-1018.92 1090.58,-1024.92 1084.58,-1024.92"/>
<text text-anchor="middle" x="987.58" y="-1003.22" font-family="Times,serif" font-size="14.00" fill="#314b5f">doctrine/deprecations: 1.1.5</text>
</g>
<!-- doctrine/collections&#45;&gt;doctrine/deprecations -->
<g id="edge34" class="edge">
<title>doctrine/collections&#45;&gt;doctrine/deprecations</title>
<path fill="none" stroke="#1a2833" d="M575.72,-1002.9C659.54,-1003.72 779.56,-1004.89 868.25,-1005.76"/>
<polygon fill="#1a2833" stroke="#1a2833" points="868.33,-1009.26 878.36,-1005.86 868.4,-1002.26 868.33,-1009.26"/>
<text text-anchor="middle" x="726.08" y="-1007.92" font-family="Times,serif" font-size="10.00" fill="#767676">^1</text>
</g>
<!-- nikic/php&#45;parser&#45;&gt;php -->
<g id="edge41" class="edge">
<title>nikic/php&#45;parser&#45;&gt;php</title>
<path fill="none" stroke="#1a2833" d="M528.38,-897.92C557.98,-888.16 595.83,-876.4 630.08,-867.92 745.84,-839.28 885.51,-816.88 950.3,-807.18"/>
<polygon fill="#1a2833" stroke="#1a2833" points="951.03,-810.61 960.41,-805.67 950,-803.68 951.03,-810.61"/>
<text text-anchor="middle" x="726.08" y="-870.92" font-family="Times,serif" font-size="10.00" fill="#767676">&gt;=7.4</text>
</g>
<!-- nikic/php&#45;parser&#45;&gt;ext&#45;json -->
<g id="edge39" class="edge">
<title>nikic/php&#45;parser&#45;&gt;ext&#45;json</title>
<path fill="none" stroke="#1a2833" d="M555.88,-934.03C577.46,-942.82 598.55,-955.8 612.08,-974.92 645.14,-1021.66 590.61,-1190.45 630.08,-1231.92 689.33,-1294.17 762.57,-1192.91 822.08,-1254.92 857.58,-1291.91 805.76,-1446.83 840.08,-1484.92 864.84,-1512.4 907.66,-1517.61 940.63,-1516.85"/>
<polygon fill="#1a2833" stroke="#1a2833" points="941.11,-1520.33 950.95,-1516.41 940.82,-1513.33 941.11,-1520.33"/>
<text text-anchor="middle" x="726.08" y="-1257.92" font-family="Times,serif" font-size="10.00" fill="#767676">*</text>
</g>
<!-- ext&#45;ctype -->
<g id="node29" class="node">
<title>ext&#45;ctype</title>
<path fill="#eeeeee" stroke="black" d="M1017.08,-943.92C1017.08,-943.92 958.08,-943.92 958.08,-943.92 952.08,-943.92 946.08,-937.92 946.08,-931.92 946.08,-931.92 946.08,-919.92 946.08,-919.92 946.08,-913.92 952.08,-907.92 958.08,-907.92 958.08,-907.92 1017.08,-907.92 1017.08,-907.92 1023.08,-907.92 1029.08,-913.92 1029.08,-919.92 1029.08,-919.92 1029.08,-931.92 1029.08,-931.92 1029.08,-937.92 1023.08,-943.92 1017.08,-943.92"/>
<text text-anchor="middle" x="987.58" y="-922.22" font-family="Times,serif" font-size="14.00" fill="#314b5f">ext&#45;ctype</text>
</g>
<!-- nikic/php&#45;parser&#45;&gt;ext&#45;ctype -->
<g id="edge38" class="edge">
<title>nikic/php&#45;parser&#45;&gt;ext&#45;ctype</title>
<path fill="none" stroke="#1a2833" d="M568.25,-914.89C637.97,-914.43 736.06,-914.45 822.08,-916.92 860.26,-918.02 903.37,-920.42 935.88,-922.47"/>
<polygon fill="#1a2833" stroke="#1a2833" points="935.84,-925.97 946.04,-923.12 936.29,-918.99 935.84,-925.97"/>
<text text-anchor="middle" x="726.08" y="-919.92" font-family="Times,serif" font-size="10.00" fill="#767676">*</text>
</g>
<!-- ext&#45;tokenizer -->
<g id="node30" class="node">
<title>ext&#45;tokenizer</title>
<path fill="#eeeeee" stroke="black" d="M1030.58,-889.92C1030.58,-889.92 944.58,-889.92 944.58,-889.92 938.58,-889.92 932.58,-883.92 932.58,-877.92 932.58,-877.92 932.58,-865.92 932.58,-865.92 932.58,-859.92 938.58,-853.92 944.58,-853.92 944.58,-853.92 1030.58,-853.92 1030.58,-853.92 1036.58,-853.92 1042.58,-859.92 1042.58,-865.92 1042.58,-865.92 1042.58,-877.92 1042.58,-877.92 1042.58,-883.92 1036.58,-889.92 1030.58,-889.92"/>
<text text-anchor="middle" x="987.58" y="-868.22" font-family="Times,serif" font-size="14.00" fill="#314b5f">ext&#45;tokenizer</text>
</g>
<!-- nikic/php&#45;parser&#45;&gt;ext&#45;tokenizer -->
<g id="edge40" class="edge">
<title>nikic/php&#45;parser&#45;&gt;ext&#45;tokenizer</title>
<path fill="none" stroke="#1a2833" d="M568.45,-905.2C588.74,-902.99 610.13,-900.78 630.08,-898.92 732.13,-889.43 850.86,-880.95 922.29,-876.12"/>
<polygon fill="#1a2833" stroke="#1a2833" points="922.73,-879.6 932.47,-875.44 922.26,-872.62 922.73,-879.6"/>
<text text-anchor="middle" x="726.08" y="-901.92" font-family="Times,serif" font-size="10.00" fill="#767676">*</text>
</g>
<!-- psr/log&#45;&gt;php -->
<g id="edge43" class="edge">
<title>psr/log&#45;&gt;php</title>
<path fill="none" stroke="#1a2833" d="M530.62,-771.23C598.81,-775.41 719.09,-782.89 822.08,-789.92 866.16,-792.93 916.86,-796.67 950.19,-799.17"/>
<polygon fill="#1a2833" stroke="#1a2833" points="950.14,-802.68 960.37,-799.94 950.66,-795.7 950.14,-802.68"/>
<text text-anchor="middle" x="726.08" y="-792.92" font-family="Times,serif" font-size="10.00" fill="#767676">&gt;=8.0.0</text>
</g>
<!-- ramsey/uuid&#45;&gt;php -->
<g id="edge47" class="edge">
<title>ramsey/uuid&#45;&gt;php</title>
<path fill="none" stroke="#1a2833" d="M550.16,-706.61C621.04,-701.72 730.4,-699.69 822.08,-721.92 869.75,-733.48 919.79,-760.22 951.98,-779.61"/>
<polygon fill="#1a2833" stroke="#1a2833" points="950.21,-782.63 960.57,-784.87 953.86,-776.66 950.21,-782.63"/>
<text text-anchor="middle" x="726.08" y="-724.92" font-family="Times,serif" font-size="10.00" fill="#767676">^8.0</text>
</g>
<!-- ramsey/uuid&#45;&gt;ext&#45;json -->
<g id="edge46" class="edge">
<title>ramsey/uuid&#45;&gt;ext&#45;json</title>
<path fill="none" stroke="#1a2833" d="M550.39,-711.64C573.47,-714.91 596.83,-723.08 612.08,-740.92 645.09,-779.56 595.42,-1160.76 630.08,-1197.92 659.35,-1229.31 792.36,-1187.95 822.08,-1218.92 863.1,-1261.67 800.65,-1440.7 840.08,-1484.92 864.69,-1512.53 907.53,-1517.72 940.54,-1516.92"/>
<polygon fill="#1a2833" stroke="#1a2833" points="941.05,-1520.4 950.88,-1516.47 940.74,-1513.41 941.05,-1520.4"/>
<text text-anchor="middle" x="726.08" y="-1221.92" font-family="Times,serif" font-size="10.00" fill="#767676">*</text>
</g>
<!-- brick/math -->
<g id="node33" class="node">
<title>brick/math</title>
<path fill="#eeeeee" stroke="black" d="M1049.58,-663.92C1049.58,-663.92 925.58,-663.92 925.58,-663.92 919.58,-663.92 913.58,-657.92 913.58,-651.92 913.58,-651.92 913.58,-639.92 913.58,-639.92 913.58,-633.92 919.58,-627.92 925.58,-627.92 925.58,-627.92 1049.58,-627.92 1049.58,-627.92 1055.58,-627.92 1061.58,-633.92 1061.58,-639.92 1061.58,-639.92 1061.58,-651.92 1061.58,-651.92 1061.58,-657.92 1055.58,-663.92 1049.58,-663.92"/>
<text text-anchor="middle" x="987.58" y="-642.22" font-family="Times,serif" font-size="14.00" fill="#314b5f">brick/math: 0.12.3</text>
</g>
<!-- ramsey/uuid&#45;&gt;brick/math -->
<g id="edge45" class="edge">
<title>ramsey/uuid&#45;&gt;brick/math</title>
<path fill="none" stroke="#1a2833" d="M527.44,-695.83C557.07,-686.18 595.24,-675.06 630.08,-668.92 722.69,-652.61 830.65,-647.55 903.29,-646.14"/>
<polygon fill="#1a2833" stroke="#1a2833" points="903.37,-649.64 913.3,-645.96 903.25,-642.64 903.37,-649.64"/>
<text text-anchor="middle" x="726.08" y="-671.92" font-family="Times,serif" font-size="10.00" fill="#767676">^0.8.8 || ^0.9 || ^0.10 || ^0.11 || ^0.12</text>
</g>
<!-- ramsey/collection -->
<g id="node34" class="node">
<title>ramsey/collection</title>
<path fill="#eeeeee" stroke="black" d="M1069.08,-717.92C1069.08,-717.92 906.08,-717.92 906.08,-717.92 900.08,-717.92 894.08,-711.92 894.08,-705.92 894.08,-705.92 894.08,-693.92 894.08,-693.92 894.08,-687.92 900.08,-681.92 906.08,-681.92 906.08,-681.92 1069.08,-681.92 1069.08,-681.92 1075.08,-681.92 1081.08,-687.92 1081.08,-693.92 1081.08,-693.92 1081.08,-705.92 1081.08,-705.92 1081.08,-711.92 1075.08,-717.92 1069.08,-717.92"/>
<text text-anchor="middle" x="987.58" y="-696.22" font-family="Times,serif" font-size="14.00" fill="#314b5f">ramsey/collection: 2.1.1</text>
</g>
<!-- ramsey/uuid&#45;&gt;ramsey/collection -->
<g id="edge48" class="edge">
<title>ramsey/uuid&#45;&gt;ramsey/collection</title>
<path fill="none" stroke="#1a2833" d="M550.17,-698.83C575.41,-694.38 603.87,-690.12 630.08,-687.92 715.22,-680.79 812.13,-684.83 883.4,-690.07"/>
<polygon fill="#1a2833" stroke="#1a2833" points="883.49,-693.59 893.73,-690.85 884.02,-686.61 883.49,-693.59"/>
<text text-anchor="middle" x="726.08" y="-690.92" font-family="Times,serif" font-size="10.00" fill="#767676">^1.2 || ^2.0</text>
</g>
<!-- symfony/serializer&#45;&gt;php -->
<g id="edge55" class="edge">
<title>symfony/serializer&#45;&gt;php</title>
<path fill="none" stroke="#1a2833" d="M580.26,-598.27C669.05,-597.48 787.59,-602.69 822.08,-633.92 853.28,-662.18 814.79,-693.27 840.08,-726.92 867.15,-762.94 916.45,-783.04 950.33,-793.17"/>
<polygon fill="#1a2833" stroke="#1a2833" points="949.73,-796.64 960.31,-796 951.64,-789.91 949.73,-796.64"/>
<text text-anchor="middle" x="726.08" y="-636.92" font-family="Times,serif" font-size="10.00" fill="#767676">&gt;=8.1</text>
</g>
<!-- symfony/deprecation&#45;contracts -->
<g id="node36" class="node">
<title>symfony/deprecation&#45;contracts</title>
<path fill="#eeeeee" stroke="black" d="M1120.58,-478.92C1120.58,-478.92 854.58,-478.92 854.58,-478.92 848.58,-478.92 842.58,-472.92 842.58,-466.92 842.58,-466.92 842.58,-454.92 842.58,-454.92 842.58,-448.92 848.58,-442.92 854.58,-442.92 854.58,-442.92 1120.58,-442.92 1120.58,-442.92 1126.58,-442.92 1132.58,-448.92 1132.58,-454.92 1132.58,-454.92 1132.58,-466.92 1132.58,-466.92 1132.58,-472.92 1126.58,-478.92 1120.58,-478.92"/>
<text text-anchor="middle" x="987.58" y="-457.22" font-family="Times,serif" font-size="14.00" fill="#314b5f">symfony/deprecation&#45;contracts: v3.5.1</text>
</g>
<!-- symfony/serializer&#45;&gt;symfony/deprecation&#45;contracts -->
<g id="edge56" class="edge">
<title>symfony/serializer&#45;&gt;symfony/deprecation&#45;contracts</title>
<path fill="none" stroke="#1a2833" d="M550.75,-583.84C575.91,-577.92 604.16,-571.45 630.08,-565.92 715.07,-547.81 750.87,-578.73 822.08,-528.92 834.82,-520.01 827.63,-508.23 840.08,-498.92 848.62,-492.54 858.13,-487.22 868.09,-482.8"/>
<polygon fill="#1a2833" stroke="#1a2833" points="869.44,-486.03 877.35,-478.98 866.78,-479.55 869.44,-486.03"/>
<text text-anchor="middle" x="726.08" y="-568.92" font-family="Times,serif" font-size="10.00" fill="#767676">^2.5|^3</text>
</g>
<!-- symfony/polyfill&#45;ctype -->
<g id="node37" class="node">
<title>symfony/polyfill&#45;ctype</title>
<path fill="#eeeeee" stroke="black" d="M1093.08,-602.92C1093.08,-602.92 882.08,-602.92 882.08,-602.92 876.08,-602.92 870.08,-596.92 870.08,-590.92 870.08,-590.92 870.08,-578.92 870.08,-578.92 870.08,-572.92 876.08,-566.92 882.08,-566.92 882.08,-566.92 1093.08,-566.92 1093.08,-566.92 1099.08,-566.92 1105.08,-572.92 1105.08,-578.92 1105.08,-578.92 1105.08,-590.92 1105.08,-590.92 1105.08,-596.92 1099.08,-602.92 1093.08,-602.92"/>
<text text-anchor="middle" x="987.58" y="-581.22" font-family="Times,serif" font-size="14.00" fill="#314b5f">symfony/polyfill&#45;ctype: v1.31.0</text>
</g>
<!-- symfony/serializer&#45;&gt;symfony/polyfill&#45;ctype -->
<g id="edge57" class="edge">
<title>symfony/serializer&#45;&gt;symfony/polyfill&#45;ctype</title>
<path fill="none" stroke="#1a2833" d="M580.34,-589.65C596.96,-588.11 613.97,-586.78 630.08,-585.92 706.06,-581.88 791.28,-581.49 859.34,-582.18"/>
<polygon fill="#1a2833" stroke="#1a2833" points="859.65,-585.68 869.69,-582.29 859.73,-578.68 859.65,-585.68"/>
<text text-anchor="middle" x="726.08" y="-588.92" font-family="Times,serif" font-size="10.00" fill="#767676">~1.8</text>
</g>
<!-- symfony/framework&#45;bundle&#45;&gt;php -->
<g id="edge62" class="edge">
<title>symfony/framework&#45;bundle&#45;&gt;php</title>
<path fill="none" stroke="#1a2833" d="M566.29,-449.96C587.19,-453.84 609.37,-457.74 630.08,-460.92 672.55,-467.46 792.39,-452.86 822.08,-483.92 859.49,-523.07 810.14,-681.8 840.08,-726.92 865.31,-764.95 916.09,-784.72 950.71,-794.22"/>
<polygon fill="#1a2833" stroke="#1a2833" points="949.9,-797.62 960.45,-796.73 951.65,-790.84 949.9,-797.62"/>
<text text-anchor="middle" x="726.08" y="-486.92" font-family="Times,serif" font-size="10.00" fill="#767676">&gt;=8.1</text>
</g>
<!-- symfony/framework&#45;bundle&#45;&gt;composer&#45;runtime&#45;api -->
<g id="edge60" class="edge">
<title>symfony/framework&#45;bundle&#45;&gt;composer&#45;runtime&#45;api</title>
<path fill="none" stroke="#1a2833" d="M502.49,-450.03C535.14,-474.16 589.22,-520.24 612.08,-574.92 636.43,-633.18 589.71,-1094.37 630.08,-1142.92 685.92,-1210.09 758.64,-1124.87 822.08,-1184.92 843.85,-1205.53 827.26,-1222.83 840.08,-1249.92 873.79,-1321.19 931.72,-1394.2 963.7,-1431.87"/>
<polygon fill="#1a2833" stroke="#1a2833" points="961.32,-1434.48 970.49,-1439.8 966.64,-1429.92 961.32,-1434.48"/>
<text text-anchor="middle" x="726.08" y="-1187.92" font-family="Times,serif" font-size="10.00" fill="#767676">&gt;=2.1</text>
</g>
<!-- symfony/framework&#45;bundle&#45;&gt;symfony/cache -->
<g id="edge63" class="edge">
<title>symfony/framework&#45;bundle&#45;&gt;symfony/cache</title>
<path fill="none" stroke="#1a2833" d="M612.15,-432.41C701.29,-433.86 804.46,-438.12 822.08,-449.92 837.6,-460.32 825.68,-476.01 840.08,-487.92 853.28,-498.84 869.26,-506.67 885.75,-512.26"/>
<polygon fill="#1a2833" stroke="#1a2833" points="884.91,-515.66 895.5,-515.3 886.99,-508.98 884.91,-515.66"/>
<text text-anchor="middle" x="726.08" y="-452.92" font-family="Times,serif" font-size="10.00" fill="#767676">^5.4|^6.0|^7.0</text>
</g>
<!-- symfony/framework&#45;bundle&#45;&gt;symfony/config -->
<g id="edge64" class="edge">
<title>symfony/framework&#45;bundle&#45;&gt;symfony/config</title>
<path fill="none" stroke="#1a2833" d="M502.41,-450.06C534.99,-474.22 588.98,-520.34 612.08,-574.92 631.37,-620.49 604.24,-977.72 630.08,-1019.92 681.2,-1103.42 762.16,-1050.49 822.08,-1127.92 841.21,-1152.65 817.14,-1174.68 840.08,-1195.92 852.53,-1207.46 868.22,-1214.85 884.68,-1219.47"/>
<polygon fill="#1a2833" stroke="#1a2833" points="883.89,-1222.88 894.44,-1221.88 885.57,-1216.08 883.89,-1222.88"/>
<text text-anchor="middle" x="726.08" y="-1130.92" font-family="Times,serif" font-size="10.00" fill="#767676">^6.1|^7.0</text>
</g>
<!-- symfony/framework&#45;bundle&#45;&gt;symfony/dependency&#45;injection -->
<g id="edge65" class="edge">
<title>symfony/framework&#45;bundle&#45;&gt;symfony/dependency&#45;injection</title>
<path fill="none" stroke="#1a2833" d="M502.32,-450.1C534.8,-474.3 588.69,-520.46 612.08,-574.92 627.58,-611.01 603.12,-899.36 630.08,-927.92 659.54,-959.14 791.97,-918.33 822.08,-948.92 852.29,-979.62 811.01,-1110.14 840.08,-1141.92 840.73,-1142.63 841.39,-1143.33 842.06,-1144.01"/>
<polygon fill="#1a2833" stroke="#1a2833" points="839.88,-1146.75 849.69,-1150.75 844.51,-1141.5 839.88,-1146.75"/>
<text text-anchor="middle" x="726.08" y="-951.92" font-family="Times,serif" font-size="10.00" fill="#767676">^6.4.12|^7.0</text>
</g>
<!-- symfony/framework&#45;bundle&#45;&gt;symfony/event&#45;dispatcher -->
<g id="edge68" class="edge">
<title>symfony/framework&#45;bundle&#45;&gt;symfony/event&#45;dispatcher</title>
<path fill="none" stroke="#1a2833" d="M501.51,-450.12C533.4,-474.52 586.93,-521.06 612.08,-574.92 627.03,-606.94 605.55,-707.48 630.08,-732.92 689.98,-795.05 764.01,-698.08 822.08,-761.92 870.9,-815.6 792.14,-1033.46 840.08,-1087.92 842.5,-1090.68 845.11,-1093.21 847.86,-1095.53"/>
<polygon fill="#1a2833" stroke="#1a2833" points="845.89,-1098.43 856.02,-1101.55 850.05,-1092.79 845.89,-1098.43"/>
<text text-anchor="middle" x="726.08" y="-764.92" font-family="Times,serif" font-size="10.00" fill="#767676">^5.4|^6.0|^7.0</text>
</g>
<!-- symfony/framework&#45;bundle&#45;&gt;symfony/finder -->
<g id="edge70" class="edge">
<title>symfony/framework&#45;bundle&#45;&gt;symfony/finder</title>
<path fill="none" stroke="#1a2833" d="M512.13,-450.04C542.73,-464.6 588.22,-484.3 630.08,-494.92 671.68,-505.48 792.88,-484.47 822.08,-515.92 861.26,-558.13 802.47,-990.31 840.08,-1033.92 851.66,-1047.35 867.54,-1055.52 884.59,-1060.29"/>
<polygon fill="#1a2833" stroke="#1a2833" points="884.2,-1063.79 894.74,-1062.72 885.83,-1056.99 884.2,-1063.79"/>
<text text-anchor="middle" x="726.08" y="-518.92" font-family="Times,serif" font-size="10.00" fill="#767676">^5.4|^6.0|^7.0</text>
</g>
<!-- symfony/framework&#45;bundle&#45;&gt;symfony/deprecation&#45;contracts -->
<g id="edge66" class="edge">
<title>symfony/framework&#45;bundle&#45;&gt;symfony/deprecation&#45;contracts</title>
<path fill="none" stroke="#1a2833" d="M612.47,-416.99C618.42,-416.58 624.31,-416.22 630.08,-415.92 715.3,-411.51 740.41,-391.19 822.08,-415.92 831.28,-418.71 831.24,-424.14 840.08,-427.92 850.84,-432.53 862.34,-436.54 873.98,-440.02"/>
<polygon fill="#1a2833" stroke="#1a2833" points="873.21,-443.44 883.78,-442.82 875.13,-436.71 873.21,-443.44"/>
<text text-anchor="middle" x="726.08" y="-418.92" font-family="Times,serif" font-size="10.00" fill="#767676">^2.5|^3</text>
</g>
<!-- ext&#45;xml -->
<g id="node39" class="node">
<title>ext&#45;xml</title>
<path fill="#eeeeee" stroke="black" d="M1010.58,-364.92C1010.58,-364.92 964.58,-364.92 964.58,-364.92 958.58,-364.92 952.58,-358.92 952.58,-352.92 952.58,-352.92 952.58,-340.92 952.58,-340.92 952.58,-334.92 958.58,-328.92 964.58,-328.92 964.58,-328.92 1010.58,-328.92 1010.58,-328.92 1016.58,-328.92 1022.58,-334.92 1022.58,-340.92 1022.58,-340.92 1022.58,-352.92 1022.58,-352.92 1022.58,-358.92 1016.58,-364.92 1010.58,-364.92"/>
<text text-anchor="middle" x="987.58" y="-343.22" font-family="Times,serif" font-size="14.00" fill="#314b5f">ext&#45;xml</text>
</g>
<!-- symfony/framework&#45;bundle&#45;&gt;ext&#45;xml -->
<g id="edge61" class="edge">
<title>symfony/framework&#45;bundle&#45;&gt;ext&#45;xml</title>
<path fill="none" stroke="#1a2833" d="M508.24,-413.84C538.6,-397.77 585.94,-375.28 630.08,-364.92 739.89,-339.16 873.77,-340.93 941.98,-344.11"/>
<polygon fill="#1a2833" stroke="#1a2833" points="942.18,-347.62 952.34,-344.63 942.53,-340.63 942.18,-347.62"/>
<text text-anchor="middle" x="726.08" y="-367.92" font-family="Times,serif" font-size="10.00" fill="#767676">*</text>
</g>
<!-- symfony/error&#45;handler -->
<g id="node40" class="node">
<title>symfony/error&#45;handler</title>
<path fill="#eeeeee" stroke="black" d="M1095.08,-310.92C1095.08,-310.92 880.08,-310.92 880.08,-310.92 874.08,-310.92 868.08,-304.92 868.08,-298.92 868.08,-298.92 868.08,-286.92 868.08,-286.92 868.08,-280.92 874.08,-274.92 880.08,-274.92 880.08,-274.92 1095.08,-274.92 1095.08,-274.92 1101.08,-274.92 1107.08,-280.92 1107.08,-286.92 1107.08,-286.92 1107.08,-298.92 1107.08,-298.92 1107.08,-304.92 1101.08,-310.92 1095.08,-310.92"/>
<text text-anchor="middle" x="987.58" y="-289.22" font-family="Times,serif" font-size="14.00" fill="#314b5f">symfony/error&#45;handler: v6.4.20</text>
</g>
<!-- symfony/framework&#45;bundle&#45;&gt;symfony/error&#45;handler -->
<g id="edge67" class="edge">
<title>symfony/framework&#45;bundle&#45;&gt;symfony/error&#45;handler</title>
<path fill="none" stroke="#1a2833" d="M516.81,-413.82C547.22,-398.32 587.6,-373.23 612.08,-339.92 628.56,-317.49 607.74,-296.54 630.08,-279.92 667.02,-252.44 781.29,-261.26 870.62,-273.49"/>
<polygon fill="#1a2833" stroke="#1a2833" points="870.17,-276.96 880.55,-274.88 871.13,-270.03 870.17,-276.96"/>
<text text-anchor="middle" x="726.08" y="-282.92" font-family="Times,serif" font-size="10.00" fill="#767676">^6.1|^7.0</text>
</g>
<!-- symfony/filesystem -->
<g id="node41" class="node">
<title>symfony/filesystem</title>
<path fill="#eeeeee" stroke="black" d="M1083.58,-256.92C1083.58,-256.92 891.58,-256.92 891.58,-256.92 885.58,-256.92 879.58,-250.92 879.58,-244.92 879.58,-244.92 879.58,-232.92 879.58,-232.92 879.58,-226.92 885.58,-220.92 891.58,-220.92 891.58,-220.92 1083.58,-220.92 1083.58,-220.92 1089.58,-220.92 1095.58,-226.92 1095.58,-232.92 1095.58,-232.92 1095.58,-244.92 1095.58,-244.92 1095.58,-250.92 1089.58,-256.92 1083.58,-256.92"/>
<text text-anchor="middle" x="987.58" y="-235.22" font-family="Times,serif" font-size="14.00" fill="#314b5f">symfony/filesystem: v6.4.13</text>
</g>
<!-- symfony/framework&#45;bundle&#45;&gt;symfony/filesystem -->
<g id="edge69" class="edge">
<title>symfony/framework&#45;bundle&#45;&gt;symfony/filesystem</title>
<path fill="none" stroke="#1a2833" d="M519.05,-413.85C549.81,-398.66 589.62,-373.94 612.08,-339.92 635.28,-304.79 597.91,-274.08 630.08,-246.92 665.19,-217.29 779.44,-219.33 869.25,-226.28"/>
<polygon fill="#1a2833" stroke="#1a2833" points="868.99,-229.77 879.24,-227.08 869.55,-222.79 868.99,-229.77"/>
<text text-anchor="middle" x="726.08" y="-249.92" font-family="Times,serif" font-size="10.00" fill="#767676">^5.4|^6.0|^7.0</text>
</g>
<!-- symfony/http&#45;foundation -->
<g id="node42" class="node">
<title>symfony/http&#45;foundation</title>
<path fill="#eeeeee" stroke="black" d="M1102.58,-202.92C1102.58,-202.92 872.58,-202.92 872.58,-202.92 866.58,-202.92 860.58,-196.92 860.58,-190.92 860.58,-190.92 860.58,-178.92 860.58,-178.92 860.58,-172.92 866.58,-166.92 872.58,-166.92 872.58,-166.92 1102.58,-166.92 1102.58,-166.92 1108.58,-166.92 1114.58,-172.92 1114.58,-178.92 1114.58,-178.92 1114.58,-190.92 1114.58,-190.92 1114.58,-196.92 1108.58,-202.92 1102.58,-202.92"/>
<text text-anchor="middle" x="987.58" y="-181.22" font-family="Times,serif" font-size="14.00" fill="#314b5f">symfony/http&#45;foundation: v6.4.18</text>
</g>
<!-- symfony/framework&#45;bundle&#45;&gt;symfony/http&#45;foundation -->
<g id="edge71" class="edge">
<title>symfony/framework&#45;bundle&#45;&gt;symfony/http&#45;foundation</title>
<path fill="none" stroke="#1a2833" d="M520.26,-413.9C551.21,-398.85 590.72,-374.31 612.08,-339.92 643.32,-289.62 586.75,-248.28 630.08,-207.92 661.51,-178.65 763.3,-174.32 850.11,-176.51"/>
<polygon fill="#1a2833" stroke="#1a2833" points="850.25,-180.02 860.34,-176.8 850.44,-173.02 850.25,-180.02"/>
<text text-anchor="middle" x="726.08" y="-210.92" font-family="Times,serif" font-size="10.00" fill="#767676">^6.4|^7.0</text>
</g>
<!-- symfony/http&#45;kernel -->
<g id="node43" class="node">
<title>symfony/http&#45;kernel</title>
<path fill="#eeeeee" stroke="black" d="M1087.08,-148.92C1087.08,-148.92 888.08,-148.92 888.08,-148.92 882.08,-148.92 876.08,-142.92 876.08,-136.92 876.08,-136.92 876.08,-124.92 876.08,-124.92 876.08,-118.92 882.08,-112.92 888.08,-112.92 888.08,-112.92 1087.08,-112.92 1087.08,-112.92 1093.08,-112.92 1099.08,-118.92 1099.08,-124.92 1099.08,-124.92 1099.08,-136.92 1099.08,-136.92 1099.08,-142.92 1093.08,-148.92 1087.08,-148.92"/>
<text text-anchor="middle" x="987.58" y="-127.22" font-family="Times,serif" font-size="14.00" fill="#314b5f">symfony/http&#45;kernel: v6.4.20</text>
</g>
<!-- symfony/framework&#45;bundle&#45;&gt;symfony/http&#45;kernel -->
<g id="edge72" class="edge">
<title>symfony/framework&#45;bundle&#45;&gt;symfony/http&#45;kernel</title>
<path fill="none" stroke="#1a2833" d="M521.28,-413.8C552.3,-398.83 591.47,-374.43 612.08,-339.92 632.46,-305.79 601.77,-189.84 630.08,-161.92 662.64,-129.81 775.67,-124.38 865.83,-125.57"/>
<polygon fill="#1a2833" stroke="#1a2833" points="865.82,-129.07 875.87,-125.73 865.93,-122.07 865.82,-129.07"/>
<text text-anchor="middle" x="726.08" y="-164.92" font-family="Times,serif" font-size="10.00" fill="#767676">^6.4</text>
</g>
<!-- symfony/polyfill&#45;mbstring -->
<g id="node44" class="node">
<title>symfony/polyfill&#45;mbstring</title>
<path fill="#eeeeee" stroke="black" d="M1106.08,-94.92C1106.08,-94.92 869.08,-94.92 869.08,-94.92 863.08,-94.92 857.08,-88.92 857.08,-82.92 857.08,-82.92 857.08,-70.92 857.08,-70.92 857.08,-64.92 863.08,-58.92 869.08,-58.92 869.08,-58.92 1106.08,-58.92 1106.08,-58.92 1112.08,-58.92 1118.08,-64.92 1118.08,-70.92 1118.08,-70.92 1118.08,-82.92 1118.08,-82.92 1118.08,-88.92 1112.08,-94.92 1106.08,-94.92"/>
<text text-anchor="middle" x="987.58" y="-73.22" font-family="Times,serif" font-size="14.00" fill="#314b5f">symfony/polyfill&#45;mbstring: v1.31.0</text>
</g>
<!-- symfony/framework&#45;bundle&#45;&gt;symfony/polyfill&#45;mbstring -->
<g id="edge73" class="edge">
<title>symfony/framework&#45;bundle&#45;&gt;symfony/polyfill&#45;mbstring</title>
<path fill="none" stroke="#1a2833" d="M521.84,-413.78C552.93,-398.87 591.93,-374.53 612.08,-339.92 637.76,-295.81 594.29,-147.32 630.08,-110.92 659.96,-80.54 760.05,-72.95 846.59,-72.45"/>
<polygon fill="#1a2833" stroke="#1a2833" points="846.81,-75.95 856.8,-72.42 846.8,-68.95 846.81,-75.95"/>
<text text-anchor="middle" x="726.08" y="-113.92" font-family="Times,serif" font-size="10.00" fill="#767676">~1.0</text>
</g>
<!-- symfony/routing -->
<g id="node45" class="node">
<title>symfony/routing</title>
<path fill="#eeeeee" stroke="black" d="M1073.58,-418.92C1073.58,-418.92 901.58,-418.92 901.58,-418.92 895.58,-418.92 889.58,-412.92 889.58,-406.92 889.58,-406.92 889.58,-394.92 889.58,-394.92 889.58,-388.92 895.58,-382.92 901.58,-382.92 901.58,-382.92 1073.58,-382.92 1073.58,-382.92 1079.58,-382.92 1085.58,-388.92 1085.58,-394.92 1085.58,-394.92 1085.58,-406.92 1085.58,-406.92 1085.58,-412.92 1079.58,-418.92 1073.58,-418.92"/>
<text text-anchor="middle" x="987.58" y="-397.22" font-family="Times,serif" font-size="14.00" fill="#314b5f">symfony/routing: v6.4.18</text>
</g>
<!-- symfony/framework&#45;bundle&#45;&gt;symfony/routing -->
<g id="edge74" class="edge">
<title>symfony/framework&#45;bundle&#45;&gt;symfony/routing</title>
<path fill="none" stroke="#1a2833" d="M525.95,-413.85C555.73,-404.03 594.56,-392.9 630.08,-387.92 713.09,-376.3 807.97,-380.6 878.97,-387.23"/>
<polygon fill="#1a2833" stroke="#1a2833" points="878.98,-390.75 889.27,-388.23 879.65,-383.78 878.98,-390.75"/>
<text text-anchor="middle" x="726.08" y="-390.92" font-family="Times,serif" font-size="10.00" fill="#767676">^6.4|^7.0</text>
</g>
<!-- bamarni/composer&#45;bin&#45;plugin&#45;&gt;php -->
<g id="edge77" class="edge">
<title>bamarni/composer&#45;bin&#45;plugin&#45;&gt;php</title>
<path fill="none" stroke="#1a2833" d="M610.59,-300.84C694.82,-296.55 792.77,-298.67 822.08,-327.92 853.49,-359.28 816.08,-689.59 840.08,-726.92 864.83,-765.42 915.97,-785.11 950.78,-794.45"/>
<polygon fill="#1a2833" stroke="#1a2833" points="950.01,-797.87 960.57,-796.92 951.73,-791.08 950.01,-797.87"/>
<text text-anchor="middle" x="726.08" y="-330.92" font-family="Times,serif" font-size="10.00" fill="#767676">^7.2.5 || ^8.0</text>
</g>
<!-- composer&#45;plugin&#45;api -->
<g id="node47" class="node">
<title>composer&#45;plugin&#45;api</title>
<path fill="#eeeeee" stroke="black" d="M1056.08,-40.92C1056.08,-40.92 919.08,-40.92 919.08,-40.92 913.08,-40.92 907.08,-34.92 907.08,-28.92 907.08,-28.92 907.08,-16.92 907.08,-16.92 907.08,-10.92 913.08,-4.92 919.08,-4.92 919.08,-4.92 1056.08,-4.92 1056.08,-4.92 1062.08,-4.92 1068.08,-10.92 1068.08,-16.92 1068.08,-16.92 1068.08,-28.92 1068.08,-28.92 1068.08,-34.92 1062.08,-40.92 1056.08,-40.92"/>
<text text-anchor="middle" x="987.58" y="-19.22" font-family="Times,serif" font-size="14.00" fill="#314b5f">composer&#45;plugin&#45;api</text>
</g>
<!-- bamarni/composer&#45;bin&#45;plugin&#45;&gt;composer&#45;plugin&#45;api -->
<g id="edge76" class="edge">
<title>bamarni/composer&#45;bin&#45;plugin&#45;&gt;composer&#45;plugin&#45;api</title>
<path fill="none" stroke="#1a2833" d="M480.17,-294.68C492.53,-244.29 534.71,-103.03 630.08,-43.92 709.89,5.54 820.04,3.83 896.7,-5.82"/>
<polygon fill="#1a2833" stroke="#1a2833" points="896.44,-9.31 906.82,-7.16 897.37,-2.38 896.44,-9.31"/>
<text text-anchor="middle" x="726.08" y="-46.92" font-family="Times,serif" font-size="10.00" fill="#767676">^2.0</text>
</g>
</g>
</svg>
