<?xml version="1.0" encoding="UTF-8" standalone="no"?>
<!DOCTYPE svg PUBLIC "-//W3C//DTD SVG 1.1//EN"
 "http://www.w3.org/Graphics/SVG/1.1/DTD/svg11.dtd">
<!-- Generated by graphviz version 2.43.0 (0)
 -->
<!-- Title: %3 Pages: 1 -->
<svg width="1143pt" height="2401pt"
 viewBox="0.00 0.00 1143.08 2401.37" xmlns="http://www.w3.org/2000/svg" xmlns:xlink="http://www.w3.org/1999/xlink">
<g id="graph0" class="graph" transform="scale(1 1) rotate(0) translate(4 2397.37)">
<title>%3</title>
<polygon fill="white" stroke="transparent" points="-4,4 -4,-2397.37 1139.08,-2397.37 1139.08,4 -4,4"/>
<!-- bartlett/php&#45;compatinfo -->
<g id="node1" class="node">
<title>bartlett/php&#45;compatinfo</title>
<ellipse fill="lightgrey" stroke="black" stroke-width="2" cx="121.54" cy="-1227.37" rx="121.58" ry="18"/>
<text text-anchor="middle" x="121.54" y="-1223.67" font-family="Times,serif" font-size="14.00">bartlett/php&#45;compatinfo</text>
</g>
<!-- php -->
<g id="node2" class="node">
<title>php</title>
<path fill="#eeeeee" stroke="black" d="M1002.58,-757.37C1002.58,-757.37 972.58,-757.37 972.58,-757.37 966.58,-757.37 960.58,-751.37 960.58,-745.37 960.58,-745.37 960.58,-733.37 960.58,-733.37 960.58,-727.37 966.58,-721.37 972.58,-721.37 972.58,-721.37 1002.58,-721.37 1002.58,-721.37 1008.58,-721.37 1014.58,-727.37 1014.58,-733.37 1014.58,-733.37 1014.58,-745.37 1014.58,-745.37 1014.58,-751.37 1008.58,-757.37 1002.58,-757.37"/>
<text text-anchor="middle" x="987.58" y="-735.67" font-family="Times,serif" font-size="14.00" fill="#314b5f">php</text>
</g>
<!-- bartlett/php&#45;compatinfo&#45;&gt;php -->
<g id="edge1" class="edge">
<title>bartlett/php&#45;compatinfo&#45;&gt;php</title>
<path fill="none" stroke="#1a2833" d="M124.21,-1209.05C131.94,-1136.33 171.37,-867.17 338.08,-766.37 441.74,-703.68 828.73,-727.25 950,-736.4"/>
<polygon fill="#1a2833" stroke="#1a2833" points="950,-739.91 960.24,-737.19 950.54,-732.93 950,-739.91"/>
<text text-anchor="middle" x="475.08" y="-769.37" font-family="Times,serif" font-size="10.00" fill="#767676">^8.1</text>
</g>
<!-- ext&#45;json -->
<g id="node3" class="node">
<title>ext&#45;json</title>
<path fill="#eeeeee" stroke="black" d="M1012.08,-1577.37C1012.08,-1577.37 963.08,-1577.37 963.08,-1577.37 957.08,-1577.37 951.08,-1571.37 951.08,-1565.37 951.08,-1565.37 951.08,-1553.37 951.08,-1553.37 951.08,-1547.37 957.08,-1541.37 963.08,-1541.37 963.08,-1541.37 1012.08,-1541.37 1012.08,-1541.37 1018.08,-1541.37 1024.08,-1547.37 1024.08,-1553.37 1024.08,-1553.37 1024.08,-1565.37 1024.08,-1565.37 1024.08,-1571.37 1018.08,-1577.37 1012.08,-1577.37"/>
<text text-anchor="middle" x="987.58" y="-1555.67" font-family="Times,serif" font-size="14.00" fill="#314b5f">ext&#45;json</text>
</g>
<!-- bartlett/php&#45;compatinfo&#45;&gt;ext&#45;json -->
<g id="edge2" class="edge">
<title>bartlett/php&#45;compatinfo&#45;&gt;ext&#45;json</title>
<path fill="none" stroke="#1a2833" d="M135.07,-1245.44C165.34,-1287.91 246.72,-1395.13 338.08,-1457.37 520.9,-1581.9 601.07,-1582.75 822.08,-1573.37 862.26,-1571.66 907.81,-1567.62 940.78,-1564.31"/>
<polygon fill="#1a2833" stroke="#1a2833" points="941.42,-1567.77 951.02,-1563.27 940.71,-1560.8 941.42,-1567.77"/>
<text text-anchor="middle" x="475.08" y="-1575.37" font-family="Times,serif" font-size="10.00" fill="#767676">*</text>
</g>
<!-- ext&#45;pcre -->
<g id="node4" class="node">
<title>ext&#45;pcre</title>
<path fill="#eeeeee" stroke="black" d="M1013.08,-2333.37C1013.08,-2333.37 962.08,-2333.37 962.08,-2333.37 956.08,-2333.37 950.08,-2327.37 950.08,-2321.37 950.08,-2321.37 950.08,-2309.37 950.08,-2309.37 950.08,-2303.37 956.08,-2297.37 962.08,-2297.37 962.08,-2297.37 1013.08,-2297.37 1013.08,-2297.37 1019.08,-2297.37 1025.08,-2303.37 1025.08,-2309.37 1025.08,-2309.37 1025.08,-2321.37 1025.08,-2321.37 1025.08,-2327.37 1019.08,-2333.37 1013.08,-2333.37"/>
<text text-anchor="middle" x="987.58" y="-2311.67" font-family="Times,serif" font-size="14.00" fill="#314b5f">ext&#45;pcre</text>
</g>
<!-- bartlett/php&#45;compatinfo&#45;&gt;ext&#45;pcre -->
<g id="edge3" class="edge">
<title>bartlett/php&#45;compatinfo&#45;&gt;ext&#45;pcre</title>
<path fill="none" stroke="#1a2833" d="M122.52,-1245.43C122.87,-1380.11 133.26,-2225.17 338.08,-2328.37 541.65,-2430.94 828.77,-2363.17 940.02,-2330.31"/>
<polygon fill="#1a2833" stroke="#1a2833" points="941.34,-2333.57 949.91,-2327.34 939.33,-2326.86 941.34,-2333.57"/>
<text text-anchor="middle" x="475.08" y="-2385.37" font-family="Times,serif" font-size="10.00" fill="#767676">*</text>
</g>
<!-- ext&#45;spl -->
<g id="node5" class="node">
<title>ext&#45;spl</title>
<path fill="#eeeeee" stroke="black" d="M1008.08,-2279.37C1008.08,-2279.37 967.08,-2279.37 967.08,-2279.37 961.08,-2279.37 955.08,-2273.37 955.08,-2267.37 955.08,-2267.37 955.08,-2255.37 955.08,-2255.37 955.08,-2249.37 961.08,-2243.37 967.08,-2243.37 967.08,-2243.37 1008.08,-2243.37 1008.08,-2243.37 1014.08,-2243.37 1020.08,-2249.37 1020.08,-2255.37 1020.08,-2255.37 1020.08,-2267.37 1020.08,-2267.37 1020.08,-2273.37 1014.08,-2279.37 1008.08,-2279.37"/>
<text text-anchor="middle" x="987.58" y="-2257.67" font-family="Times,serif" font-size="14.00" fill="#314b5f">ext&#45;spl</text>
</g>
<!-- bartlett/php&#45;compatinfo&#45;&gt;ext&#45;spl -->
<g id="edge4" class="edge">
<title>bartlett/php&#45;compatinfo&#45;&gt;ext&#45;spl</title>
<path fill="none" stroke="#1a2833" d="M122.69,-1245.57C124.03,-1365.05 137.09,-2036.82 261.08,-2189.37 341.35,-2288.12 703.13,-2349.59 822.08,-2304.37 832.08,-2300.56 830.46,-2293.06 840.08,-2288.37 873.03,-2272.27 914.41,-2265.72 944.79,-2263.08"/>
<polygon fill="#1a2833" stroke="#1a2833" points="945.34,-2266.55 955.04,-2262.3 944.8,-2259.57 945.34,-2266.55"/>
<text text-anchor="middle" x="475.08" y="-2316.37" font-family="Times,serif" font-size="10.00" fill="#767676">*</text>
</g>
<!-- bartlett/php&#45;compatinfo&#45;db -->
<g id="node6" class="node">
<title>bartlett/php&#45;compatinfo&#45;db</title>
<path fill="#eeeeee" stroke="black" d="M594.58,-1799.37C594.58,-1799.37 355.58,-1799.37 355.58,-1799.37 349.58,-1799.37 343.58,-1793.37 343.58,-1787.37 343.58,-1787.37 343.58,-1775.37 343.58,-1775.37 343.58,-1769.37 349.58,-1763.37 355.58,-1763.37 355.58,-1763.37 594.58,-1763.37 594.58,-1763.37 600.58,-1763.37 606.58,-1769.37 606.58,-1775.37 606.58,-1775.37 606.58,-1787.37 606.58,-1787.37 606.58,-1793.37 600.58,-1799.37 594.58,-1799.37"/>
<text text-anchor="middle" x="475.08" y="-1777.67" font-family="Times,serif" font-size="14.00" fill="#314b5f">bartlett/php&#45;compatinfo&#45;db: 6.13.1</text>
</g>
<!-- bartlett/php&#45;compatinfo&#45;&gt;bartlett/php&#45;compatinfo&#45;db -->
<g id="edge27" class="edge">
<title>bartlett/php&#45;compatinfo&#45;&gt;bartlett/php&#45;compatinfo&#45;db</title>
<path fill="none" stroke="#1a2833" d="M122.6,-1245.67C123.82,-1314.03 137.07,-1557.38 261.08,-1694.37 290.36,-1726.72 333.44,-1747.3 373.21,-1760.27"/>
<polygon fill="#1a2833" stroke="#1a2833" points="372.38,-1763.68 382.97,-1763.32 374.47,-1757 372.38,-1763.68"/>
<text text-anchor="middle" x="290.58" y="-1738.37" font-family="Times,serif" font-size="10.00" fill="#767676">^6.13.1</text>
</g>
<!-- composer&#45;runtime&#45;api -->
<g id="node7" class="node">
<title>composer&#45;runtime&#45;api</title>
<path fill="#eeeeee" stroke="black" d="M1062.08,-1478.37C1062.08,-1478.37 913.08,-1478.37 913.08,-1478.37 907.08,-1478.37 901.08,-1472.37 901.08,-1466.37 901.08,-1466.37 901.08,-1454.37 901.08,-1454.37 901.08,-1448.37 907.08,-1442.37 913.08,-1442.37 913.08,-1442.37 1062.08,-1442.37 1062.08,-1442.37 1068.08,-1442.37 1074.08,-1448.37 1074.08,-1454.37 1074.08,-1454.37 1074.08,-1466.37 1074.08,-1466.37 1074.08,-1472.37 1068.08,-1478.37 1062.08,-1478.37"/>
<text text-anchor="middle" x="987.58" y="-1456.67" font-family="Times,serif" font-size="14.00" fill="#314b5f">composer&#45;runtime&#45;api</text>
</g>
<!-- bartlett/php&#45;compatinfo&#45;&gt;composer&#45;runtime&#45;api -->
<g id="edge33" class="edge">
<title>bartlett/php&#45;compatinfo&#45;&gt;composer&#45;runtime&#45;api</title>
<path fill="none" stroke="#1a2833" d="M145.49,-1245.18C183.54,-1273.96 262.98,-1330.83 338.08,-1364.37 461.16,-1419.33 496.93,-1425.35 630.08,-1446.37 717.55,-1460.17 818.51,-1462.92 890.61,-1462.66"/>
<polygon fill="#1a2833" stroke="#1a2833" points="891.05,-1466.16 901.03,-1462.6 891.01,-1459.16 891.05,-1466.16"/>
<text text-anchor="middle" x="475.08" y="-1445.37" font-family="Times,serif" font-size="10.00" fill="#767676">^2.1</text>
</g>
<!-- symfony/config -->
<g id="node14" class="node">
<title>symfony/config</title>
<path fill="#eeeeee" stroke="black" d="M1068.58,-1385.37C1068.58,-1385.37 906.58,-1385.37 906.58,-1385.37 900.58,-1385.37 894.58,-1379.37 894.58,-1373.37 894.58,-1373.37 894.58,-1361.37 894.58,-1361.37 894.58,-1355.37 900.58,-1349.37 906.58,-1349.37 906.58,-1349.37 1068.58,-1349.37 1068.58,-1349.37 1074.58,-1349.37 1080.58,-1355.37 1080.58,-1361.37 1080.58,-1361.37 1080.58,-1373.37 1080.58,-1373.37 1080.58,-1379.37 1074.58,-1385.37 1068.58,-1385.37"/>
<text text-anchor="middle" x="987.58" y="-1363.67" font-family="Times,serif" font-size="14.00" fill="#314b5f">symfony/config: v6.4.14</text>
</g>
<!-- bartlett/php&#45;compatinfo&#45;&gt;symfony/config -->
<g id="edge49" class="edge">
<title>bartlett/php&#45;compatinfo&#45;&gt;symfony/config</title>
<path fill="none" stroke="#1a2833" d="M173.37,-1243.66C264,-1271.89 459.97,-1329.17 630.08,-1353.37 715.12,-1365.46 812.64,-1368.56 884.17,-1368.86"/>
<polygon fill="#1a2833" stroke="#1a2833" points="884.52,-1372.36 894.53,-1368.89 884.54,-1365.36 884.52,-1372.36"/>
<text text-anchor="middle" x="475.08" y="-1352.37" font-family="Times,serif" font-size="10.00" fill="#767676">^6.4 || ^7.0</text>
</g>
<!-- symfony/console -->
<g id="node15" class="node">
<title>symfony/console</title>
<path fill="#eeeeee" stroke="black" d="M1074.08,-1631.37C1074.08,-1631.37 901.08,-1631.37 901.08,-1631.37 895.08,-1631.37 889.08,-1625.37 889.08,-1619.37 889.08,-1619.37 889.08,-1607.37 889.08,-1607.37 889.08,-1601.37 895.08,-1595.37 901.08,-1595.37 901.08,-1595.37 1074.08,-1595.37 1074.08,-1595.37 1080.08,-1595.37 1086.08,-1601.37 1086.08,-1607.37 1086.08,-1607.37 1086.08,-1619.37 1086.08,-1619.37 1086.08,-1625.37 1080.08,-1631.37 1074.08,-1631.37"/>
<text text-anchor="middle" x="987.58" y="-1609.67" font-family="Times,serif" font-size="14.00" fill="#314b5f">symfony/console: v6.4.15</text>
</g>
<!-- bartlett/php&#45;compatinfo&#45;&gt;symfony/console -->
<g id="edge50" class="edge">
<title>bartlett/php&#45;compatinfo&#45;&gt;symfony/console</title>
<path fill="none" stroke="#1a2833" d="M128,-1245.66C146.67,-1304.94 213.77,-1493.3 338.08,-1587.37 424.98,-1653.13 725.55,-1716.94 822.08,-1666.37 834.53,-1659.84 828.27,-1647.99 840.08,-1640.37 851.79,-1632.8 865.06,-1627.22 878.73,-1623.13"/>
<polygon fill="#1a2833" stroke="#1a2833" points="880,-1626.41 888.73,-1620.41 878.16,-1619.66 880,-1626.41"/>
<text text-anchor="middle" x="475.08" y="-1678.37" font-family="Times,serif" font-size="10.00" fill="#767676">^6.4 || ^7.0</text>
</g>
<!-- symfony/dependency&#45;injection -->
<g id="node16" class="node">
<title>symfony/dependency&#45;injection</title>
<path fill="#eeeeee" stroke="black" d="M1123.08,-1292.37C1123.08,-1292.37 852.08,-1292.37 852.08,-1292.37 846.08,-1292.37 840.08,-1286.37 840.08,-1280.37 840.08,-1280.37 840.08,-1268.37 840.08,-1268.37 840.08,-1262.37 846.08,-1256.37 852.08,-1256.37 852.08,-1256.37 1123.08,-1256.37 1123.08,-1256.37 1129.08,-1256.37 1135.08,-1262.37 1135.08,-1268.37 1135.08,-1268.37 1135.08,-1280.37 1135.08,-1280.37 1135.08,-1286.37 1129.08,-1292.37 1123.08,-1292.37"/>
<text text-anchor="middle" x="987.58" y="-1270.67" font-family="Times,serif" font-size="14.00" fill="#314b5f">symfony/dependency&#45;injection: v6.4.16</text>
</g>
<!-- bartlett/php&#45;compatinfo&#45;&gt;symfony/dependency&#45;injection -->
<g id="edge53" class="edge">
<title>bartlett/php&#45;compatinfo&#45;&gt;symfony/dependency&#45;injection</title>
<path fill="none" stroke="#1a2833" d="M230.9,-1235.22C333.63,-1242.47 492.3,-1253.18 630.08,-1260.37 695.41,-1263.77 767.52,-1266.75 829.69,-1269.08"/>
<polygon fill="#1a2833" stroke="#1a2833" points="829.85,-1272.58 839.98,-1269.46 830.11,-1265.59 829.85,-1272.58"/>
<text text-anchor="middle" x="475.08" y="-1261.37" font-family="Times,serif" font-size="10.00" fill="#767676">^6.4 || ^7.0</text>
</g>
<!-- symfony/event&#45;dispatcher -->
<g id="node17" class="node">
<title>symfony/event&#45;dispatcher</title>
<path fill="#eeeeee" stroke="black" d="M1107.08,-1199.37C1107.08,-1199.37 868.08,-1199.37 868.08,-1199.37 862.08,-1199.37 856.08,-1193.37 856.08,-1187.37 856.08,-1187.37 856.08,-1175.37 856.08,-1175.37 856.08,-1169.37 862.08,-1163.37 868.08,-1163.37 868.08,-1163.37 1107.08,-1163.37 1107.08,-1163.37 1113.08,-1163.37 1119.08,-1169.37 1119.08,-1175.37 1119.08,-1175.37 1119.08,-1187.37 1119.08,-1187.37 1119.08,-1193.37 1113.08,-1199.37 1107.08,-1199.37"/>
<text text-anchor="middle" x="987.58" y="-1177.67" font-family="Times,serif" font-size="14.00" fill="#314b5f">symfony/event&#45;dispatcher: v6.4.13</text>
</g>
<!-- bartlett/php&#45;compatinfo&#45;&gt;symfony/event&#45;dispatcher -->
<g id="edge51" class="edge">
<title>bartlett/php&#45;compatinfo&#45;&gt;symfony/event&#45;dispatcher</title>
<path fill="none" stroke="#1a2833" d="M231.9,-1219.72C334.66,-1212.71 492.75,-1202.39 630.08,-1195.37 700.98,-1191.74 779.86,-1188.55 845.35,-1186.14"/>
<polygon fill="#1a2833" stroke="#1a2833" points="845.88,-1189.62 855.75,-1185.76 845.63,-1182.63 845.88,-1189.62"/>
<text text-anchor="middle" x="475.08" y="-1215.37" font-family="Times,serif" font-size="10.00" fill="#767676">^6.4 || ^7.0</text>
</g>
<!-- symfony/finder -->
<g id="node18" class="node">
<title>symfony/finder</title>
<path fill="#eeeeee" stroke="black" d="M1068.08,-1120.37C1068.08,-1120.37 907.08,-1120.37 907.08,-1120.37 901.08,-1120.37 895.08,-1114.37 895.08,-1108.37 895.08,-1108.37 895.08,-1096.37 895.08,-1096.37 895.08,-1090.37 901.08,-1084.37 907.08,-1084.37 907.08,-1084.37 1068.08,-1084.37 1068.08,-1084.37 1074.08,-1084.37 1080.08,-1090.37 1080.08,-1096.37 1080.08,-1096.37 1080.08,-1108.37 1080.08,-1108.37 1080.08,-1114.37 1074.08,-1120.37 1068.08,-1120.37"/>
<text text-anchor="middle" x="987.58" y="-1098.67" font-family="Times,serif" font-size="14.00" fill="#314b5f">symfony/finder: v6.4.13</text>
</g>
<!-- bartlett/php&#45;compatinfo&#45;&gt;symfony/finder -->
<g id="edge52" class="edge">
<title>bartlett/php&#45;compatinfo&#45;&gt;symfony/finder</title>
<path fill="none" stroke="#1a2833" d="M171.86,-1210.98C261.73,-1182.08 458.69,-1123.16 630.08,-1102.37 715.43,-1092.01 813.13,-1092.89 884.64,-1095.87"/>
<polygon fill="#1a2833" stroke="#1a2833" points="884.85,-1099.38 895,-1096.32 885.16,-1092.39 884.85,-1099.38"/>
<text text-anchor="middle" x="475.08" y="-1162.37" font-family="Times,serif" font-size="10.00" fill="#767676">^6.4 || ^7.0</text>
</g>
<!-- symfony/stopwatch -->
<g id="node24" class="node">
<title>symfony/stopwatch</title>
<path fill="#eeeeee" stroke="black" d="M1084.08,-2225.37C1084.08,-2225.37 891.08,-2225.37 891.08,-2225.37 885.08,-2225.37 879.08,-2219.37 879.08,-2213.37 879.08,-2213.37 879.08,-2201.37 879.08,-2201.37 879.08,-2195.37 885.08,-2189.37 891.08,-2189.37 891.08,-2189.37 1084.08,-2189.37 1084.08,-2189.37 1090.08,-2189.37 1096.08,-2195.37 1096.08,-2201.37 1096.08,-2201.37 1096.08,-2213.37 1096.08,-2213.37 1096.08,-2219.37 1090.08,-2225.37 1084.08,-2225.37"/>
<text text-anchor="middle" x="987.58" y="-2203.67" font-family="Times,serif" font-size="14.00" fill="#314b5f">symfony/stopwatch: v6.4.13</text>
</g>
<!-- bartlett/php&#45;compatinfo&#45;&gt;symfony/stopwatch -->
<g id="edge58" class="edge">
<title>bartlett/php&#45;compatinfo&#45;&gt;symfony/stopwatch</title>
<path fill="none" stroke="#1a2833" d="M123.84,-1245.38C129.56,-1315.12 157.02,-1572.38 261.08,-1750.37 376.56,-1947.9 424.87,-2008.15 630.08,-2109.37 707.42,-2147.51 753.93,-2084.52 822.08,-2137.37 838.45,-2150.06 823.95,-2167.37 840.08,-2180.37 848.88,-2187.46 858.94,-2192.91 869.58,-2197.09"/>
<polygon fill="#1a2833" stroke="#1a2833" points="868.47,-2200.41 879.07,-2200.44 870.8,-2193.81 868.47,-2200.41"/>
<text text-anchor="middle" x="475.08" y="-2102.37" font-family="Times,serif" font-size="10.00" fill="#767676">^6.4 || ^7.0</text>
</g>
<!-- bartlett/sarif&#45;php&#45;sdk -->
<g id="node25" class="node">
<title>bartlett/sarif&#45;php&#45;sdk</title>
<path fill="#eeeeee" stroke="black" d="M569.58,-2208.37C569.58,-2208.37 380.58,-2208.37 380.58,-2208.37 374.58,-2208.37 368.58,-2202.37 368.58,-2196.37 368.58,-2196.37 368.58,-2184.37 368.58,-2184.37 368.58,-2178.37 374.58,-2172.37 380.58,-2172.37 380.58,-2172.37 569.58,-2172.37 569.58,-2172.37 575.58,-2172.37 581.58,-2178.37 581.58,-2184.37 581.58,-2184.37 581.58,-2196.37 581.58,-2196.37 581.58,-2202.37 575.58,-2208.37 569.58,-2208.37"/>
<text text-anchor="middle" x="475.08" y="-2186.67" font-family="Times,serif" font-size="14.00" fill="#314b5f">bartlett/sarif&#45;php&#45;sdk: 2.1.0</text>
</g>
<!-- bartlett/php&#45;compatinfo&#45;&gt;bartlett/sarif&#45;php&#45;sdk -->
<g id="edge32" class="edge">
<title>bartlett/php&#45;compatinfo&#45;&gt;bartlett/sarif&#45;php&#45;sdk</title>
<path fill="none" stroke="#1a2833" d="M122.66,-1245.49C123.83,-1361.56 135.95,-2000.05 261.08,-2137.37 285.95,-2164.66 322.5,-2178.88 358.34,-2186.02"/>
<polygon fill="#1a2833" stroke="#1a2833" points="357.95,-2189.51 368.41,-2187.85 359.2,-2182.62 357.95,-2189.51"/>
<text text-anchor="middle" x="290.58" y="-2177.37" font-family="Times,serif" font-size="10.00" fill="#767676">^2.1</text>
</g>
<!-- doctrine/collections -->
<g id="node26" class="node">
<title>doctrine/collections</title>
<path fill="#eeeeee" stroke="black" d="M563.58,-910.37C563.58,-910.37 386.58,-910.37 386.58,-910.37 380.58,-910.37 374.58,-904.37 374.58,-898.37 374.58,-898.37 374.58,-886.37 374.58,-886.37 374.58,-880.37 380.58,-874.37 386.58,-874.37 386.58,-874.37 563.58,-874.37 563.58,-874.37 569.58,-874.37 575.58,-880.37 575.58,-886.37 575.58,-886.37 575.58,-898.37 575.58,-898.37 575.58,-904.37 569.58,-910.37 563.58,-910.37"/>
<text text-anchor="middle" x="475.08" y="-888.67" font-family="Times,serif" font-size="14.00" fill="#314b5f">doctrine/collections: 2.2.2</text>
</g>
<!-- bartlett/php&#45;compatinfo&#45;&gt;doctrine/collections -->
<g id="edge36" class="edge">
<title>bartlett/php&#45;compatinfo&#45;&gt;doctrine/collections</title>
<path fill="none" stroke="#1a2833" d="M131.77,-1209.18C151.51,-1171.58 200.97,-1084.01 261.08,-1026.37 311.08,-978.42 380.87,-938.45 426.74,-914.98"/>
<polygon fill="#1a2833" stroke="#1a2833" points="428.52,-918 435.86,-910.37 425.36,-911.76 428.52,-918"/>
<text text-anchor="middle" x="290.58" y="-1029.37" font-family="Times,serif" font-size="10.00" fill="#767676">^2.1</text>
</g>
<!-- nikic/php&#45;parser -->
<g id="node28" class="node">
<title>nikic/php&#45;parser</title>
<path fill="#eeeeee" stroke="black" d="M556.08,-1046.37C556.08,-1046.37 394.08,-1046.37 394.08,-1046.37 388.08,-1046.37 382.08,-1040.37 382.08,-1034.37 382.08,-1034.37 382.08,-1022.37 382.08,-1022.37 382.08,-1016.37 388.08,-1010.37 394.08,-1010.37 394.08,-1010.37 556.08,-1010.37 556.08,-1010.37 562.08,-1010.37 568.08,-1016.37 568.08,-1022.37 568.08,-1022.37 568.08,-1034.37 568.08,-1034.37 568.08,-1040.37 562.08,-1046.37 556.08,-1046.37"/>
<text text-anchor="middle" x="475.08" y="-1024.67" font-family="Times,serif" font-size="14.00" fill="#314b5f">nikic/php&#45;parser: v5.3.1</text>
</g>
<!-- bartlett/php&#45;compatinfo&#45;&gt;nikic/php&#45;parser -->
<g id="edge41" class="edge">
<title>bartlett/php&#45;compatinfo&#45;&gt;nikic/php&#45;parser</title>
<path fill="none" stroke="#1a2833" d="M132.06,-1209.18C151.3,-1174.44 198.35,-1098.96 261.08,-1063.37 294.3,-1044.52 334.83,-1035.13 371.58,-1030.66"/>
<polygon fill="#1a2833" stroke="#1a2833" points="372.28,-1034.1 381.84,-1029.52 371.51,-1027.14 372.28,-1034.1"/>
<text text-anchor="middle" x="290.58" y="-1066.37" font-family="Times,serif" font-size="10.00" fill="#767676">^5.0</text>
</g>
<!-- psr/log -->
<g id="node31" class="node">
<title>psr/log</title>
<path fill="#eeeeee" stroke="black" d="M518.58,-822.37C518.58,-822.37 431.58,-822.37 431.58,-822.37 425.58,-822.37 419.58,-816.37 419.58,-810.37 419.58,-810.37 419.58,-798.37 419.58,-798.37 419.58,-792.37 425.58,-786.37 431.58,-786.37 431.58,-786.37 518.58,-786.37 518.58,-786.37 524.58,-786.37 530.58,-792.37 530.58,-798.37 530.58,-798.37 530.58,-810.37 530.58,-810.37 530.58,-816.37 524.58,-822.37 518.58,-822.37"/>
<text text-anchor="middle" x="475.08" y="-800.67" font-family="Times,serif" font-size="14.00" fill="#314b5f">psr/log: 3.0.2</text>
</g>
<!-- bartlett/php&#45;compatinfo&#45;&gt;psr/log -->
<g id="edge43" class="edge">
<title>bartlett/php&#45;compatinfo&#45;&gt;psr/log</title>
<path fill="none" stroke="#1a2833" d="M128.08,-1209.11C146.99,-1149.95 214.73,-961.73 338.08,-865.37 359.41,-848.7 386.02,-835.47 410.03,-825.65"/>
<polygon fill="#1a2833" stroke="#1a2833" points="411.43,-828.86 419.44,-821.92 408.85,-822.35 411.43,-828.86"/>
<text text-anchor="middle" x="290.58" y="-940.37" font-family="Times,serif" font-size="10.00" fill="#767676">^3.0</text>
</g>
<!-- ramsey/uuid -->
<g id="node32" class="node">
<title>ramsey/uuid</title>
<path fill="#eeeeee" stroke="black" d="M538.08,-687.37C538.08,-687.37 412.08,-687.37 412.08,-687.37 406.08,-687.37 400.08,-681.37 400.08,-675.37 400.08,-675.37 400.08,-663.37 400.08,-663.37 400.08,-657.37 406.08,-651.37 412.08,-651.37 412.08,-651.37 538.08,-651.37 538.08,-651.37 544.08,-651.37 550.08,-657.37 550.08,-663.37 550.08,-663.37 550.08,-675.37 550.08,-675.37 550.08,-681.37 544.08,-687.37 538.08,-687.37"/>
<text text-anchor="middle" x="475.08" y="-665.67" font-family="Times,serif" font-size="14.00" fill="#314b5f">ramsey/uuid: 4.7.6</text>
</g>
<!-- bartlett/php&#45;compatinfo&#45;&gt;ramsey/uuid -->
<g id="edge48" class="edge">
<title>bartlett/php&#45;compatinfo&#45;&gt;ramsey/uuid</title>
<path fill="none" stroke="#1a2833" d="M124.59,-1209.37C134.6,-1124.95 181.05,-769.27 261.08,-698.37 295.6,-667.78 346.44,-659.97 389.79,-660.07"/>
<polygon fill="#1a2833" stroke="#1a2833" points="390,-663.57 400.06,-660.24 390.11,-656.57 390,-663.57"/>
<text text-anchor="middle" x="290.58" y="-701.37" font-family="Times,serif" font-size="10.00" fill="#767676">^4.0</text>
</g>
<!-- symfony/serializer -->
<g id="node35" class="node">
<title>symfony/serializer</title>
<path fill="#eeeeee" stroke="black" d="M568.08,-633.37C568.08,-633.37 382.08,-633.37 382.08,-633.37 376.08,-633.37 370.08,-627.37 370.08,-621.37 370.08,-621.37 370.08,-609.37 370.08,-609.37 370.08,-603.37 376.08,-597.37 382.08,-597.37 382.08,-597.37 568.08,-597.37 568.08,-597.37 574.08,-597.37 580.08,-603.37 580.08,-609.37 580.08,-609.37 580.08,-621.37 580.08,-621.37 580.08,-627.37 574.08,-633.37 568.08,-633.37"/>
<text text-anchor="middle" x="475.08" y="-611.67" font-family="Times,serif" font-size="14.00" fill="#314b5f">symfony/serializer: v6.4.15</text>
</g>
<!-- bartlett/php&#45;compatinfo&#45;&gt;symfony/serializer -->
<g id="edge57" class="edge">
<title>bartlett/php&#45;compatinfo&#45;&gt;symfony/serializer</title>
<path fill="none" stroke="#1a2833" d="M124.3,-1209.13C133.24,-1120.18 176.64,-732.86 261.08,-653.37 287.52,-628.48 324.36,-616.97 359.97,-612.28"/>
<polygon fill="#1a2833" stroke="#1a2833" points="360.44,-615.75 369.98,-611.13 359.64,-608.79 360.44,-615.75"/>
<text text-anchor="middle" x="290.58" y="-656.37" font-family="Times,serif" font-size="10.00" fill="#767676">^6.4 || ^7.0</text>
</g>
<!-- symfony/framework&#45;bundle -->
<g id="node38" class="node">
<title>symfony/framework&#45;bundle</title>
<path fill="#eeeeee" stroke="black" d="M600.08,-579.37C600.08,-579.37 350.08,-579.37 350.08,-579.37 344.08,-579.37 338.08,-573.37 338.08,-567.37 338.08,-567.37 338.08,-555.37 338.08,-555.37 338.08,-549.37 344.08,-543.37 350.08,-543.37 350.08,-543.37 600.08,-543.37 600.08,-543.37 606.08,-543.37 612.08,-549.37 612.08,-555.37 612.08,-555.37 612.08,-567.37 612.08,-567.37 612.08,-573.37 606.08,-579.37 600.08,-579.37"/>
<text text-anchor="middle" x="475.08" y="-557.67" font-family="Times,serif" font-size="14.00" fill="#314b5f">symfony/framework&#45;bundle: v6.4.13</text>
</g>
<!-- bartlett/php&#45;compatinfo&#45;&gt;symfony/framework&#45;bundle -->
<g id="edge74" class="edge">
<title>bartlett/php&#45;compatinfo&#45;&gt;symfony/framework&#45;bundle</title>
<path fill="none" stroke="#1a2833" stroke-dasharray="5,2" d="M124.02,-1209.31C131.99,-1116.68 172.68,-695.66 261.08,-606.37 279.35,-587.91 303.16,-576.12 328.22,-568.74"/>
<polygon fill="#1a2833" stroke="#1a2833" points="329.14,-572.12 337.88,-566.13 327.31,-565.36 329.14,-572.12"/>
<text text-anchor="middle" x="290.58" y="-609.37" font-family="Times,serif" font-size="10.00" fill="#767676">^6.4 || ^7.0</text>
</g>
<!-- bamarni/composer&#45;bin&#45;plugin -->
<g id="node46" class="node">
<title>bamarni/composer&#45;bin&#45;plugin</title>
<path fill="#eeeeee" stroke="black" d="M598.58,-525.37C598.58,-525.37 351.58,-525.37 351.58,-525.37 345.58,-525.37 339.58,-519.37 339.58,-513.37 339.58,-513.37 339.58,-501.37 339.58,-501.37 339.58,-495.37 345.58,-489.37 351.58,-489.37 351.58,-489.37 598.58,-489.37 598.58,-489.37 604.58,-489.37 610.58,-495.37 610.58,-501.37 610.58,-501.37 610.58,-513.37 610.58,-513.37 610.58,-519.37 604.58,-525.37 598.58,-525.37"/>
<text text-anchor="middle" x="475.08" y="-503.67" font-family="Times,serif" font-size="14.00" fill="#314b5f">bamarni/composer&#45;bin&#45;plugin: 1.8.2</text>
</g>
<!-- bartlett/php&#45;compatinfo&#45;&gt;bamarni/composer&#45;bin&#45;plugin -->
<g id="edge77" class="edge">
<title>bartlett/php&#45;compatinfo&#45;&gt;bamarni/composer&#45;bin&#45;plugin</title>
<path fill="none" stroke="#1a2833" stroke-dasharray="5,2" d="M123.82,-1209.3C131,-1112.64 169.35,-657.38 261.08,-557.37 279.23,-537.57 303.61,-524.9 329.39,-516.92"/>
<polygon fill="#1a2833" stroke="#1a2833" points="330.67,-520.19 339.33,-514.09 328.75,-513.46 330.67,-520.19"/>
<text text-anchor="middle" x="290.58" y="-560.37" font-family="Times,serif" font-size="10.00" fill="#767676">^1.8</text>
</g>
<!-- bartlett/php&#45;compatinfo&#45;db&#45;&gt;php -->
<g id="edge14" class="edge">
<title>bartlett/php&#45;compatinfo&#45;db&#45;&gt;php</title>
<path fill="none" stroke="#1a2833" d="M527.44,-1763.29C557.8,-1749.66 593.8,-1727.71 612.08,-1695.37 634.58,-1655.55 600.49,-907.24 630.08,-872.37 686.25,-806.17 740.8,-866.87 822.08,-836.37 870.88,-818.05 921.78,-785.65 953.8,-763.37"/>
<polygon fill="#1a2833" stroke="#1a2833" points="956.15,-765.99 962.31,-757.37 952.12,-760.27 956.15,-765.99"/>
<text text-anchor="middle" x="726.08" y="-875.37" font-family="Times,serif" font-size="10.00" fill="#767676">^8.1</text>
</g>
<!-- bartlett/php&#45;compatinfo&#45;db&#45;&gt;ext&#45;json -->
<g id="edge9" class="edge">
<title>bartlett/php&#45;compatinfo&#45;db&#45;&gt;ext&#45;json</title>
<path fill="none" stroke="#1a2833" d="M521.79,-1763.35C551.83,-1749.22 589.59,-1726.68 612.08,-1695.37 631.82,-1667.87 604.76,-1643.83 630.08,-1621.37 662.22,-1592.85 781.77,-1613.25 822.08,-1598.37 831.1,-1595.04 831.17,-1589.98 840.08,-1586.37 872.35,-1573.29 911.19,-1566.5 940.77,-1563"/>
<polygon fill="#1a2833" stroke="#1a2833" points="941.26,-1566.47 950.82,-1561.89 940.5,-1559.51 941.26,-1566.47"/>
<text text-anchor="middle" x="726.08" y="-1624.37" font-family="Times,serif" font-size="10.00" fill="#767676">*</text>
</g>
<!-- bartlett/php&#45;compatinfo&#45;db&#45;&gt;ext&#45;pcre -->
<g id="edge10" class="edge">
<title>bartlett/php&#45;compatinfo&#45;db&#45;&gt;ext&#45;pcre</title>
<path fill="none" stroke="#1a2833" d="M485.86,-1799.49C511.19,-1847.31 579.24,-1981.43 612.08,-2101.37 620.07,-2130.56 608.43,-2215.22 630.08,-2236.37 660.78,-2266.36 786.1,-2233.96 822.08,-2257.37 835.43,-2266.06 827.05,-2279.19 840.08,-2288.37 869.05,-2308.77 908.98,-2315.06 939.83,-2316.51"/>
<polygon fill="#1a2833" stroke="#1a2833" points="939.81,-2320.01 949.92,-2316.83 940.03,-2313.02 939.81,-2320.01"/>
<text text-anchor="middle" x="726.08" y="-2260.37" font-family="Times,serif" font-size="10.00" fill="#767676">*</text>
</g>
<!-- bartlett/php&#45;compatinfo&#45;db&#45;&gt;ext&#45;spl -->
<g id="edge13" class="edge">
<title>bartlett/php&#45;compatinfo&#45;db&#45;&gt;ext&#45;spl</title>
<path fill="none" stroke="#1a2833" d="M478.82,-1799.5C488.31,-1855.72 525.17,-2028.38 630.08,-2113.37 698.1,-2168.47 760.04,-2095.6 822.08,-2157.37 846.98,-2182.16 814.65,-2210.11 840.08,-2234.37 867.69,-2260.7 912.13,-2265.65 944.84,-2265.11"/>
<polygon fill="#1a2833" stroke="#1a2833" points="945.13,-2268.61 955.01,-2264.77 944.89,-2261.61 945.13,-2268.61"/>
<text text-anchor="middle" x="726.08" y="-2160.37" font-family="Times,serif" font-size="10.00" fill="#767676">*</text>
</g>
<!-- bartlett/php&#45;compatinfo&#45;db&#45;&gt;composer&#45;runtime&#45;api -->
<g id="edge5" class="edge">
<title>bartlett/php&#45;compatinfo&#45;db&#45;&gt;composer&#45;runtime&#45;api</title>
<path fill="none" stroke="#1a2833" d="M525.67,-1763.31C555.95,-1749.55 592.5,-1727.44 612.08,-1695.37 635.45,-1657.09 598.46,-1526.17 630.08,-1494.37 639.24,-1485.15 788.48,-1473.47 890.93,-1466.48"/>
<polygon fill="#1a2833" stroke="#1a2833" points="891.26,-1469.96 901,-1465.79 890.79,-1462.98 891.26,-1469.96"/>
<text text-anchor="middle" x="726.08" y="-1497.37" font-family="Times,serif" font-size="10.00" fill="#767676">^2.0</text>
</g>
<!-- composer/semver -->
<g id="node8" class="node">
<title>composer/semver</title>
<path fill="#eeeeee" stroke="black" d="M1069.58,-2171.37C1069.58,-2171.37 905.58,-2171.37 905.58,-2171.37 899.58,-2171.37 893.58,-2165.37 893.58,-2159.37 893.58,-2159.37 893.58,-2147.37 893.58,-2147.37 893.58,-2141.37 899.58,-2135.37 905.58,-2135.37 905.58,-2135.37 1069.58,-2135.37 1069.58,-2135.37 1075.58,-2135.37 1081.58,-2141.37 1081.58,-2147.37 1081.58,-2147.37 1081.58,-2159.37 1081.58,-2159.37 1081.58,-2165.37 1075.58,-2171.37 1069.58,-2171.37"/>
<text text-anchor="middle" x="987.58" y="-2149.67" font-family="Times,serif" font-size="14.00" fill="#314b5f">composer/semver: 3.4.3</text>
</g>
<!-- bartlett/php&#45;compatinfo&#45;db&#45;&gt;composer/semver -->
<g id="edge6" class="edge">
<title>bartlett/php&#45;compatinfo&#45;db&#45;&gt;composer/semver</title>
<path fill="none" stroke="#1a2833" d="M480.75,-1799.43C494.35,-1848.03 538.88,-1981.92 630.08,-2041.37 702.08,-2088.3 756.55,-2008.75 822.08,-2064.37 843.96,-2082.93 818.8,-2107.12 840.08,-2126.37 852.31,-2137.43 867.54,-2144.65 883.51,-2149.27"/>
<polygon fill="#1a2833" stroke="#1a2833" points="882.98,-2152.75 893.53,-2151.82 884.7,-2145.96 882.98,-2152.75"/>
<text text-anchor="middle" x="726.08" y="-2067.37" font-family="Times,serif" font-size="10.00" fill="#767676">^3.0</text>
</g>
<!-- doctrine/dbal -->
<g id="node9" class="node">
<title>doctrine/dbal</title>
<path fill="#eeeeee" stroke="black" d="M1053.58,-2117.37C1053.58,-2117.37 921.58,-2117.37 921.58,-2117.37 915.58,-2117.37 909.58,-2111.37 909.58,-2105.37 909.58,-2105.37 909.58,-2093.37 909.58,-2093.37 909.58,-2087.37 915.58,-2081.37 921.58,-2081.37 921.58,-2081.37 1053.58,-2081.37 1053.58,-2081.37 1059.58,-2081.37 1065.58,-2087.37 1065.58,-2093.37 1065.58,-2093.37 1065.58,-2105.37 1065.58,-2105.37 1065.58,-2111.37 1059.58,-2117.37 1053.58,-2117.37"/>
<text text-anchor="middle" x="987.58" y="-2095.67" font-family="Times,serif" font-size="14.00" fill="#314b5f">doctrine/dbal: 4.2.1</text>
</g>
<!-- bartlett/php&#45;compatinfo&#45;db&#45;&gt;doctrine/dbal -->
<g id="edge7" class="edge">
<title>bartlett/php&#45;compatinfo&#45;db&#45;&gt;doctrine/dbal</title>
<path fill="none" stroke="#1a2833" d="M482.43,-1799.65C498.9,-1843.98 547.5,-1957.2 630.08,-2007.37 703.53,-2051.99 753.28,-1978.86 822.08,-2030.37 838.34,-2042.54 824.21,-2059.69 840.08,-2072.37 856.91,-2085.81 878.3,-2093.37 899.5,-2097.44"/>
<polygon fill="#1a2833" stroke="#1a2833" points="899.1,-2100.92 909.54,-2099.12 900.26,-2094.02 899.1,-2100.92"/>
<text text-anchor="middle" x="726.08" y="-2033.37" font-family="Times,serif" font-size="10.00" fill="#767676">^4.0</text>
</g>
<!-- doctrine/orm -->
<g id="node10" class="node">
<title>doctrine/orm</title>
<path fill="#eeeeee" stroke="black" d="M1052.58,-2063.37C1052.58,-2063.37 922.58,-2063.37 922.58,-2063.37 916.58,-2063.37 910.58,-2057.37 910.58,-2051.37 910.58,-2051.37 910.58,-2039.37 910.58,-2039.37 910.58,-2033.37 916.58,-2027.37 922.58,-2027.37 922.58,-2027.37 1052.58,-2027.37 1052.58,-2027.37 1058.58,-2027.37 1064.58,-2033.37 1064.58,-2039.37 1064.58,-2039.37 1064.58,-2051.37 1064.58,-2051.37 1064.58,-2057.37 1058.58,-2063.37 1052.58,-2063.37"/>
<text text-anchor="middle" x="987.58" y="-2041.67" font-family="Times,serif" font-size="14.00" fill="#314b5f">doctrine/orm: 3.3.0</text>
</g>
<!-- bartlett/php&#45;compatinfo&#45;db&#45;&gt;doctrine/orm -->
<g id="edge8" class="edge">
<title>bartlett/php&#45;compatinfo&#45;db&#45;&gt;doctrine/orm</title>
<path fill="none" stroke="#1a2833" d="M484.53,-1799.54C503.92,-1838.96 555.74,-1932.08 630.08,-1973.37 705.21,-2015.1 746.74,-1955 822.08,-1996.37 833.15,-2002.45 829.2,-2011.94 840.08,-2018.37 858.16,-2029.05 879.51,-2035.67 900.24,-2039.74"/>
<polygon fill="#1a2833" stroke="#1a2833" points="899.89,-2043.23 910.35,-2041.53 901.12,-2036.34 899.89,-2043.23"/>
<text text-anchor="middle" x="726.08" y="-1999.37" font-family="Times,serif" font-size="10.00" fill="#767676">^3.3</text>
</g>
<!-- ext&#45;pdo -->
<g id="node11" class="node">
<title>ext&#45;pdo</title>
<path fill="#eeeeee" stroke="black" d="M1010.58,-2009.37C1010.58,-2009.37 964.58,-2009.37 964.58,-2009.37 958.58,-2009.37 952.58,-2003.37 952.58,-1997.37 952.58,-1997.37 952.58,-1985.37 952.58,-1985.37 952.58,-1979.37 958.58,-1973.37 964.58,-1973.37 964.58,-1973.37 1010.58,-1973.37 1010.58,-1973.37 1016.58,-1973.37 1022.58,-1979.37 1022.58,-1985.37 1022.58,-1985.37 1022.58,-1997.37 1022.58,-1997.37 1022.58,-2003.37 1016.58,-2009.37 1010.58,-2009.37"/>
<text text-anchor="middle" x="987.58" y="-1987.67" font-family="Times,serif" font-size="14.00" fill="#314b5f">ext&#45;pdo</text>
</g>
<!-- bartlett/php&#45;compatinfo&#45;db&#45;&gt;ext&#45;pdo -->
<g id="edge11" class="edge">
<title>bartlett/php&#45;compatinfo&#45;db&#45;&gt;ext&#45;pdo</title>
<path fill="none" stroke="#1a2833" d="M488.19,-1799.46C511.37,-1832.49 565.52,-1902.1 630.08,-1934.37 707.22,-1972.92 736.94,-1948.66 822.08,-1962.37 862.77,-1968.92 908.98,-1977.13 942.04,-1983.15"/>
<polygon fill="#1a2833" stroke="#1a2833" points="941.82,-1986.66 952.29,-1985.02 943.08,-1979.78 941.82,-1986.66"/>
<text text-anchor="middle" x="726.08" y="-1965.37" font-family="Times,serif" font-size="10.00" fill="#767676">*</text>
</g>
<!-- ext&#45;phar -->
<g id="node12" class="node">
<title>ext&#45;phar</title>
<path fill="#eeeeee" stroke="black" d="M1014.08,-1955.37C1014.08,-1955.37 961.08,-1955.37 961.08,-1955.37 955.08,-1955.37 949.08,-1949.37 949.08,-1943.37 949.08,-1943.37 949.08,-1931.37 949.08,-1931.37 949.08,-1925.37 955.08,-1919.37 961.08,-1919.37 961.08,-1919.37 1014.08,-1919.37 1014.08,-1919.37 1020.08,-1919.37 1026.08,-1925.37 1026.08,-1931.37 1026.08,-1931.37 1026.08,-1943.37 1026.08,-1943.37 1026.08,-1949.37 1020.08,-1955.37 1014.08,-1955.37"/>
<text text-anchor="middle" x="987.58" y="-1933.67" font-family="Times,serif" font-size="14.00" fill="#314b5f">ext&#45;phar</text>
</g>
<!-- bartlett/php&#45;compatinfo&#45;db&#45;&gt;ext&#45;phar -->
<g id="edge12" class="edge">
<title>bartlett/php&#45;compatinfo&#45;db&#45;&gt;ext&#45;phar</title>
<path fill="none" stroke="#1a2833" d="M496.28,-1799.48C524.2,-1823.4 577.13,-1864.86 630.08,-1885.37 685.51,-1906.83 855.15,-1925.09 938.85,-1933.07"/>
<polygon fill="#1a2833" stroke="#1a2833" points="938.58,-1936.56 948.86,-1934.01 939.24,-1929.59 938.58,-1936.56"/>
<text text-anchor="middle" x="726.08" y="-1922.37" font-family="Times,serif" font-size="10.00" fill="#767676">*</text>
</g>
<!-- symfony/cache -->
<g id="node13" class="node">
<title>symfony/cache</title>
<path fill="#eeeeee" stroke="black" d="M1067.58,-958.37C1067.58,-958.37 907.58,-958.37 907.58,-958.37 901.58,-958.37 895.58,-952.37 895.58,-946.37 895.58,-946.37 895.58,-934.37 895.58,-934.37 895.58,-928.37 901.58,-922.37 907.58,-922.37 907.58,-922.37 1067.58,-922.37 1067.58,-922.37 1073.58,-922.37 1079.58,-928.37 1079.58,-934.37 1079.58,-934.37 1079.58,-946.37 1079.58,-946.37 1079.58,-952.37 1073.58,-958.37 1067.58,-958.37"/>
<text text-anchor="middle" x="987.58" y="-936.67" font-family="Times,serif" font-size="14.00" fill="#314b5f">symfony/cache: v6.4.16</text>
</g>
<!-- bartlett/php&#45;compatinfo&#45;db&#45;&gt;symfony/cache -->
<g id="edge15" class="edge">
<title>bartlett/php&#45;compatinfo&#45;db&#45;&gt;symfony/cache</title>
<path fill="none" stroke="#1a2833" d="M527.4,-1763.26C557.75,-1749.63 593.74,-1727.68 612.08,-1695.37 631.61,-1660.95 603.46,-1012.64 630.08,-983.37 663.31,-946.82 792.02,-939.04 885.26,-938.42"/>
<polygon fill="#1a2833" stroke="#1a2833" points="885.31,-941.92 895.3,-938.38 885.29,-934.92 885.31,-941.92"/>
<text text-anchor="middle" x="726.08" y="-986.37" font-family="Times,serif" font-size="10.00" fill="#767676">^6.4 || ^7.0</text>
</g>
<!-- bartlett/php&#45;compatinfo&#45;db&#45;&gt;symfony/config -->
<g id="edge16" class="edge">
<title>bartlett/php&#45;compatinfo&#45;db&#45;&gt;symfony/config</title>
<path fill="none" stroke="#1a2833" d="M526.32,-1763.34C556.66,-1749.64 593.02,-1727.59 612.08,-1695.37 645.4,-1639.02 584.59,-1448.43 630.08,-1401.37 634.52,-1396.77 780.49,-1384.04 884.25,-1375.53"/>
<polygon fill="#1a2833" stroke="#1a2833" points="884.79,-1378.99 894.47,-1374.69 884.21,-1372.02 884.79,-1378.99"/>
<text text-anchor="middle" x="726.08" y="-1404.37" font-family="Times,serif" font-size="10.00" fill="#767676">^6.4 || ^7.0</text>
</g>
<!-- bartlett/php&#45;compatinfo&#45;db&#45;&gt;symfony/console -->
<g id="edge17" class="edge">
<title>bartlett/php&#45;compatinfo&#45;db&#45;&gt;symfony/console</title>
<path fill="none" stroke="#1a2833" d="M508.32,-1763.33C538.74,-1747.2 586.11,-1724.3 630.08,-1712.37 671.5,-1701.12 788.44,-1718.03 822.08,-1691.37 840.92,-1676.44 821.8,-1655.98 840.08,-1640.37 851.26,-1630.81 864.71,-1624.17 878.86,-1619.62"/>
<polygon fill="#1a2833" stroke="#1a2833" points="880.1,-1622.91 888.75,-1616.79 878.17,-1616.18 880.1,-1622.91"/>
<text text-anchor="middle" x="726.08" y="-1715.37" font-family="Times,serif" font-size="10.00" fill="#767676">^6.4 || ^7.0</text>
</g>
<!-- bartlett/php&#45;compatinfo&#45;db&#45;&gt;symfony/dependency&#45;injection -->
<g id="edge18" class="edge">
<title>bartlett/php&#45;compatinfo&#45;db&#45;&gt;symfony/dependency&#45;injection</title>
<path fill="none" stroke="#1a2833" d="M526.82,-1763.28C557.15,-1749.61 593.33,-1727.61 612.08,-1695.37 633.72,-1658.15 600.39,-1339.54 630.08,-1308.37 633.75,-1304.51 735.78,-1295.03 829.74,-1287.06"/>
<polygon fill="#1a2833" stroke="#1a2833" points="830.31,-1290.52 839.98,-1286.19 829.72,-1283.54 830.31,-1290.52"/>
<text text-anchor="middle" x="726.08" y="-1311.37" font-family="Times,serif" font-size="10.00" fill="#767676">^6.4 || ^7.0</text>
</g>
<!-- bartlett/php&#45;compatinfo&#45;db&#45;&gt;symfony/event&#45;dispatcher -->
<g id="edge19" class="edge">
<title>bartlett/php&#45;compatinfo&#45;db&#45;&gt;symfony/event&#45;dispatcher</title>
<path fill="none" stroke="#1a2833" d="M526.92,-1763.34C557.29,-1749.69 593.48,-1727.69 612.08,-1695.37 638.7,-1649.11 593.44,-1254.18 630.08,-1215.37 633.95,-1211.27 747.83,-1200.9 845.85,-1192.69"/>
<polygon fill="#1a2833" stroke="#1a2833" points="846.22,-1196.17 855.89,-1191.85 845.63,-1189.19 846.22,-1196.17"/>
<text text-anchor="middle" x="726.08" y="-1218.37" font-family="Times,serif" font-size="10.00" fill="#767676">^6.4 || ^7.0</text>
</g>
<!-- bartlett/php&#45;compatinfo&#45;db&#45;&gt;symfony/finder -->
<g id="edge20" class="edge">
<title>bartlett/php&#45;compatinfo&#45;db&#45;&gt;symfony/finder</title>
<path fill="none" stroke="#1a2833" d="M527.33,-1763.23C557.66,-1749.58 593.65,-1727.63 612.08,-1695.37 643.79,-1639.87 585.31,-1166 630.08,-1120.37 647.65,-1102.46 785.64,-1100 884.68,-1100.62"/>
<polygon fill="#1a2833" stroke="#1a2833" points="884.71,-1104.12 894.74,-1100.69 884.76,-1097.12 884.71,-1104.12"/>
<text text-anchor="middle" x="726.08" y="-1123.37" font-family="Times,serif" font-size="10.00" fill="#767676">^6.4 || ^7.0</text>
</g>
<!-- symfony/http&#45;client -->
<g id="node19" class="node">
<title>symfony/http&#45;client</title>
<path fill="#eeeeee" stroke="black" d="M1084.58,-1901.37C1084.58,-1901.37 890.58,-1901.37 890.58,-1901.37 884.58,-1901.37 878.58,-1895.37 878.58,-1889.37 878.58,-1889.37 878.58,-1877.37 878.58,-1877.37 878.58,-1871.37 884.58,-1865.37 890.58,-1865.37 890.58,-1865.37 1084.58,-1865.37 1084.58,-1865.37 1090.58,-1865.37 1096.58,-1871.37 1096.58,-1877.37 1096.58,-1877.37 1096.58,-1889.37 1096.58,-1889.37 1096.58,-1895.37 1090.58,-1901.37 1084.58,-1901.37"/>
<text text-anchor="middle" x="987.58" y="-1879.67" font-family="Times,serif" font-size="14.00" fill="#314b5f">symfony/http&#45;client: v6.4.16</text>
</g>
<!-- bartlett/php&#45;compatinfo&#45;db&#45;&gt;symfony/http&#45;client -->
<g id="edge21" class="edge">
<title>bartlett/php&#45;compatinfo&#45;db&#45;&gt;symfony/http&#45;client</title>
<path fill="none" stroke="#1a2833" d="M515.1,-1799.39C545.73,-1812.78 589.78,-1830.38 630.08,-1840.37 708.23,-1859.74 798.26,-1870.51 868.29,-1876.42"/>
<polygon fill="#1a2833" stroke="#1a2833" points="868.22,-1879.93 878.48,-1877.26 868.8,-1872.95 868.22,-1879.93"/>
<text text-anchor="middle" x="726.08" y="-1873.37" font-family="Times,serif" font-size="10.00" fill="#767676">^6.4 || ^7.0</text>
</g>
<!-- symfony/messenger -->
<g id="node20" class="node">
<title>symfony/messenger</title>
<path fill="#eeeeee" stroke="black" d="M1086.08,-1847.37C1086.08,-1847.37 889.08,-1847.37 889.08,-1847.37 883.08,-1847.37 877.08,-1841.37 877.08,-1835.37 877.08,-1835.37 877.08,-1823.37 877.08,-1823.37 877.08,-1817.37 883.08,-1811.37 889.08,-1811.37 889.08,-1811.37 1086.08,-1811.37 1086.08,-1811.37 1092.08,-1811.37 1098.08,-1817.37 1098.08,-1823.37 1098.08,-1823.37 1098.08,-1835.37 1098.08,-1835.37 1098.08,-1841.37 1092.08,-1847.37 1086.08,-1847.37"/>
<text text-anchor="middle" x="987.58" y="-1825.67" font-family="Times,serif" font-size="14.00" fill="#314b5f">symfony/messenger: v6.4.16</text>
</g>
<!-- bartlett/php&#45;compatinfo&#45;db&#45;&gt;symfony/messenger -->
<g id="edge22" class="edge">
<title>bartlett/php&#45;compatinfo&#45;db&#45;&gt;symfony/messenger</title>
<path fill="none" stroke="#1a2833" d="M557.26,-1799.42C580.65,-1804.01 606.28,-1808.46 630.08,-1811.37 708.64,-1820.95 797.55,-1825.45 866.92,-1827.56"/>
<polygon fill="#1a2833" stroke="#1a2833" points="866.92,-1831.06 877.01,-1827.85 867.12,-1824.06 866.92,-1831.06"/>
<text text-anchor="middle" x="726.08" y="-1828.37" font-family="Times,serif" font-size="10.00" fill="#767676">^6.4 || ^7.0</text>
</g>
<!-- symfony/polyfill&#45;php84 -->
<g id="node21" class="node">
<title>symfony/polyfill&#45;php84</title>
<path fill="#eeeeee" stroke="black" d="M1096.08,-1793.37C1096.08,-1793.37 879.08,-1793.37 879.08,-1793.37 873.08,-1793.37 867.08,-1787.37 867.08,-1781.37 867.08,-1781.37 867.08,-1769.37 867.08,-1769.37 867.08,-1763.37 873.08,-1757.37 879.08,-1757.37 879.08,-1757.37 1096.08,-1757.37 1096.08,-1757.37 1102.08,-1757.37 1108.08,-1763.37 1108.08,-1769.37 1108.08,-1769.37 1108.08,-1781.37 1108.08,-1781.37 1108.08,-1787.37 1102.08,-1793.37 1096.08,-1793.37"/>
<text text-anchor="middle" x="987.58" y="-1771.67" font-family="Times,serif" font-size="14.00" fill="#314b5f">symfony/polyfill&#45;php84: v1.31.0</text>
</g>
<!-- bartlett/php&#45;compatinfo&#45;db&#45;&gt;symfony/polyfill&#45;php84 -->
<g id="edge23" class="edge">
<title>bartlett/php&#45;compatinfo&#45;db&#45;&gt;symfony/polyfill&#45;php84</title>
<path fill="none" stroke="#1a2833" d="M606.68,-1792.25C614.6,-1792.69 622.44,-1793.07 630.08,-1793.37 715.35,-1796.68 736.87,-1798.01 822.08,-1793.37 833.28,-1792.76 844.9,-1791.91 856.54,-1790.92"/>
<polygon fill="#1a2833" stroke="#1a2833" points="857.11,-1794.38 866.76,-1790.01 856.49,-1787.41 857.11,-1794.38"/>
<text text-anchor="middle" x="726.08" y="-1799.37" font-family="Times,serif" font-size="10.00" fill="#767676">^1.0</text>
</g>
<!-- symfony/process -->
<g id="node22" class="node">
<title>symfony/process</title>
<path fill="#eeeeee" stroke="black" d="M1074.58,-1739.37C1074.58,-1739.37 900.58,-1739.37 900.58,-1739.37 894.58,-1739.37 888.58,-1733.37 888.58,-1727.37 888.58,-1727.37 888.58,-1715.37 888.58,-1715.37 888.58,-1709.37 894.58,-1703.37 900.58,-1703.37 900.58,-1703.37 1074.58,-1703.37 1074.58,-1703.37 1080.58,-1703.37 1086.58,-1709.37 1086.58,-1715.37 1086.58,-1715.37 1086.58,-1727.37 1086.58,-1727.37 1086.58,-1733.37 1080.58,-1739.37 1074.58,-1739.37"/>
<text text-anchor="middle" x="987.58" y="-1717.67" font-family="Times,serif" font-size="14.00" fill="#314b5f">symfony/process: v6.4.15</text>
</g>
<!-- bartlett/php&#45;compatinfo&#45;db&#45;&gt;symfony/process -->
<g id="edge24" class="edge">
<title>bartlett/php&#45;compatinfo&#45;db&#45;&gt;symfony/process</title>
<path fill="none" stroke="#1a2833" d="M606.71,-1779.54C687.49,-1777.16 782.98,-1771.72 822.08,-1759.37 831.02,-1756.54 831.32,-1751.72 840.08,-1748.37 852.2,-1743.73 865.21,-1739.87 878.28,-1736.66"/>
<polygon fill="#1a2833" stroke="#1a2833" points="879.33,-1740.01 888.28,-1734.34 877.74,-1733.2 879.33,-1740.01"/>
<text text-anchor="middle" x="726.08" y="-1781.37" font-family="Times,serif" font-size="10.00" fill="#767676">^6.4 || ^7.0</text>
</g>
<!-- symfony/requirements&#45;checker -->
<g id="node23" class="node">
<title>symfony/requirements&#45;checker</title>
<path fill="#eeeeee" stroke="black" d="M1121.08,-1685.37C1121.08,-1685.37 854.08,-1685.37 854.08,-1685.37 848.08,-1685.37 842.08,-1679.37 842.08,-1673.37 842.08,-1673.37 842.08,-1661.37 842.08,-1661.37 842.08,-1655.37 848.08,-1649.37 854.08,-1649.37 854.08,-1649.37 1121.08,-1649.37 1121.08,-1649.37 1127.08,-1649.37 1133.08,-1655.37 1133.08,-1661.37 1133.08,-1661.37 1133.08,-1673.37 1133.08,-1673.37 1133.08,-1679.37 1127.08,-1685.37 1121.08,-1685.37"/>
<text text-anchor="middle" x="987.58" y="-1663.67" font-family="Times,serif" font-size="14.00" fill="#314b5f">symfony/requirements&#45;checker: v2.0.3</text>
</g>
<!-- bartlett/php&#45;compatinfo&#45;db&#45;&gt;symfony/requirements&#45;checker -->
<g id="edge25" class="edge">
<title>bartlett/php&#45;compatinfo&#45;db&#45;&gt;symfony/requirements&#45;checker</title>
<path fill="none" stroke="#1a2833" d="M547.43,-1763.36C573.33,-1757.3 602.9,-1750.93 630.08,-1746.37 672.41,-1739.27 786.1,-1748.77 822.08,-1725.37 835.43,-1716.68 827.05,-1703.54 840.08,-1694.37 842.01,-1693.01 843.99,-1691.71 846.02,-1690.47"/>
<polygon fill="#1a2833" stroke="#1a2833" points="848.09,-1693.32 855.15,-1685.42 844.71,-1687.19 848.09,-1693.32"/>
<text text-anchor="middle" x="726.08" y="-1749.37" font-family="Times,serif" font-size="10.00" fill="#767676">^2.0</text>
</g>
<!-- bartlett/php&#45;compatinfo&#45;db&#45;&gt;symfony/stopwatch -->
<g id="edge26" class="edge">
<title>bartlett/php&#45;compatinfo&#45;db&#45;&gt;symfony/stopwatch</title>
<path fill="none" stroke="#1a2833" d="M479.48,-1799.4C490.46,-1852.11 530.23,-2006.51 630.08,-2075.37 700.83,-2124.16 758.44,-2040.61 822.08,-2098.37 849.71,-2123.44 813.25,-2154.43 840.08,-2180.37 848.49,-2188.5 858.51,-2194.6 869.3,-2199.14"/>
<polygon fill="#1a2833" stroke="#1a2833" points="868.36,-2202.52 878.96,-2202.73 870.8,-2195.96 868.36,-2202.52"/>
<text text-anchor="middle" x="726.08" y="-2101.37" font-family="Times,serif" font-size="10.00" fill="#767676">^6.4 || ^7.0</text>
</g>
<!-- bartlett/sarif&#45;php&#45;sdk&#45;&gt;php -->
<g id="edge31" class="edge">
<title>bartlett/sarif&#45;php&#45;sdk&#45;&gt;php</title>
<path fill="none" stroke="#1a2833" d="M567.33,-2172.24C584.78,-2164.61 601.03,-2153.77 612.08,-2138.37 642.02,-2096.62 597.29,-1715.91 630.08,-1676.37 685.95,-1608.97 766.73,-1700.2 822.08,-1632.37 849.24,-1599.08 821.24,-897.97 840.08,-859.37 863.43,-811.49 915.91,-776.15 951.29,-756.65"/>
<polygon fill="#1a2833" stroke="#1a2833" points="953.17,-759.62 960.33,-751.81 949.86,-753.45 953.17,-759.62"/>
<text text-anchor="middle" x="726.08" y="-1679.37" font-family="Times,serif" font-size="10.00" fill="#767676">^8.1</text>
</g>
<!-- bartlett/sarif&#45;php&#45;sdk&#45;&gt;ext&#45;json -->
<g id="edge28" class="edge">
<title>bartlett/sarif&#45;php&#45;sdk&#45;&gt;ext&#45;json</title>
<path fill="none" stroke="#1a2833" d="M582.02,-2187.05C680.64,-2183.45 813.71,-2177.02 822.08,-2168.37 867.08,-2121.88 797.92,-1635.44 840.08,-1586.37 864.26,-1558.22 907.35,-1553.14 940.56,-1554.12"/>
<polygon fill="#1a2833" stroke="#1a2833" points="940.8,-1557.63 950.96,-1554.62 941.14,-1550.64 940.8,-1557.63"/>
<text text-anchor="middle" x="726.08" y="-2187.37" font-family="Times,serif" font-size="10.00" fill="#767676">*</text>
</g>
<!-- bartlett/sarif&#45;php&#45;sdk&#45;&gt;ext&#45;pcre -->
<g id="edge29" class="edge">
<title>bartlett/sarif&#45;php&#45;sdk&#45;&gt;ext&#45;pcre</title>
<path fill="none" stroke="#1a2833" d="M503.45,-2208.41C533.28,-2227.13 583.05,-2255.7 630.08,-2270.37 737.56,-2303.89 870.69,-2312.51 939.88,-2314.68"/>
<polygon fill="#1a2833" stroke="#1a2833" points="939.92,-2318.18 950.01,-2314.97 940.12,-2311.19 939.92,-2318.18"/>
<text text-anchor="middle" x="726.08" y="-2309.37" font-family="Times,serif" font-size="10.00" fill="#767676">*</text>
</g>
<!-- bartlett/sarif&#45;php&#45;sdk&#45;&gt;ext&#45;spl -->
<g id="edge30" class="edge">
<title>bartlett/sarif&#45;php&#45;sdk&#45;&gt;ext&#45;spl</title>
<path fill="none" stroke="#1a2833" d="M581.97,-2199.14C675.13,-2207.17 799.39,-2218.79 822.08,-2225.37 830.67,-2227.86 831.6,-2231.53 840.08,-2234.37 874.52,-2245.89 915.27,-2252.9 945.03,-2256.87"/>
<polygon fill="#1a2833" stroke="#1a2833" points="944.71,-2260.36 955.07,-2258.16 945.6,-2253.42 944.71,-2260.36"/>
<text text-anchor="middle" x="726.08" y="-2228.37" font-family="Times,serif" font-size="10.00" fill="#767676">*</text>
</g>
<!-- doctrine/collections&#45;&gt;php -->
<g id="edge35" class="edge">
<title>doctrine/collections&#45;&gt;php</title>
<path fill="none" stroke="#1a2833" d="M540.75,-874.31C565.51,-864.8 592.49,-850.93 612.08,-831.37 625.87,-817.59 614.37,-802.91 630.08,-791.37 664.71,-765.93 779.57,-774.65 822.08,-768.37 866.34,-761.82 917.01,-752.63 950.28,-746.36"/>
<polygon fill="#1a2833" stroke="#1a2833" points="951.27,-749.74 960.44,-744.43 949.96,-742.86 951.27,-749.74"/>
<text text-anchor="middle" x="726.08" y="-794.37" font-family="Times,serif" font-size="10.00" fill="#767676">^8.1</text>
</g>
<!-- doctrine/deprecations -->
<g id="node27" class="node">
<title>doctrine/deprecations</title>
<path fill="#eeeeee" stroke="black" d="M1084.58,-904.37C1084.58,-904.37 890.58,-904.37 890.58,-904.37 884.58,-904.37 878.58,-898.37 878.58,-892.37 878.58,-892.37 878.58,-880.37 878.58,-880.37 878.58,-874.37 884.58,-868.37 890.58,-868.37 890.58,-868.37 1084.58,-868.37 1084.58,-868.37 1090.58,-868.37 1096.58,-874.37 1096.58,-880.37 1096.58,-880.37 1096.58,-892.37 1096.58,-892.37 1096.58,-898.37 1090.58,-904.37 1084.58,-904.37"/>
<text text-anchor="middle" x="987.58" y="-882.67" font-family="Times,serif" font-size="14.00" fill="#314b5f">doctrine/deprecations: 1.1.3</text>
</g>
<!-- doctrine/collections&#45;&gt;doctrine/deprecations -->
<g id="edge34" class="edge">
<title>doctrine/collections&#45;&gt;doctrine/deprecations</title>
<path fill="none" stroke="#1a2833" d="M575.72,-891.2C659.54,-890.21 779.56,-888.8 868.25,-887.76"/>
<polygon fill="#1a2833" stroke="#1a2833" points="868.41,-891.26 878.36,-887.64 868.32,-884.26 868.41,-891.26"/>
<text text-anchor="middle" x="726.08" y="-893.37" font-family="Times,serif" font-size="10.00" fill="#767676">^1</text>
</g>
<!-- nikic/php&#45;parser&#45;&gt;php -->
<g id="edge40" class="edge">
<title>nikic/php&#45;parser&#45;&gt;php</title>
<path fill="none" stroke="#1a2833" d="M510.37,-1010.33C541.97,-991.84 587.57,-960.06 612.08,-919.37 634.03,-882.93 598.97,-854.37 630.08,-825.37 661.51,-796.06 780.36,-812.68 822.08,-802.37 868.01,-791 918.51,-770.36 951.28,-755.81"/>
<polygon fill="#1a2833" stroke="#1a2833" points="952.76,-758.98 960.44,-751.69 949.89,-752.6 952.76,-758.98"/>
<text text-anchor="middle" x="726.08" y="-828.37" font-family="Times,serif" font-size="10.00" fill="#767676">&gt;=7.4</text>
</g>
<!-- nikic/php&#45;parser&#45;&gt;ext&#45;json -->
<g id="edge38" class="edge">
<title>nikic/php&#45;parser&#45;&gt;ext&#45;json</title>
<path fill="none" stroke="#1a2833" d="M568.21,-1037.32C585.17,-1043.19 600.99,-1052.32 612.08,-1066.37 644.66,-1107.65 593.23,-1501.84 630.08,-1539.37 651.38,-1561.06 849.41,-1561.25 940.78,-1560.15"/>
<polygon fill="#1a2833" stroke="#1a2833" points="940.9,-1563.65 950.85,-1560.02 940.81,-1556.65 940.9,-1563.65"/>
<text text-anchor="middle" x="726.08" y="-1562.37" font-family="Times,serif" font-size="10.00" fill="#767676">*</text>
</g>
<!-- ext&#45;ctype -->
<g id="node29" class="node">
<title>ext&#45;ctype</title>
<path fill="#eeeeee" stroke="black" d="M1017.08,-1066.37C1017.08,-1066.37 958.08,-1066.37 958.08,-1066.37 952.08,-1066.37 946.08,-1060.37 946.08,-1054.37 946.08,-1054.37 946.08,-1042.37 946.08,-1042.37 946.08,-1036.37 952.08,-1030.37 958.08,-1030.37 958.08,-1030.37 1017.08,-1030.37 1017.08,-1030.37 1023.08,-1030.37 1029.08,-1036.37 1029.08,-1042.37 1029.08,-1042.37 1029.08,-1054.37 1029.08,-1054.37 1029.08,-1060.37 1023.08,-1066.37 1017.08,-1066.37"/>
<text text-anchor="middle" x="987.58" y="-1044.67" font-family="Times,serif" font-size="14.00" fill="#314b5f">ext&#45;ctype</text>
</g>
<!-- nikic/php&#45;parser&#45;&gt;ext&#45;ctype -->
<g id="edge37" class="edge">
<title>nikic/php&#45;parser&#45;&gt;ext&#45;ctype</title>
<path fill="none" stroke="#1a2833" d="M568.32,-1025.83C638.07,-1024.59 736.18,-1024.3 822.08,-1029.37 860.28,-1031.62 903.22,-1036.67 935.65,-1040.99"/>
<polygon fill="#1a2833" stroke="#1a2833" points="935.41,-1044.49 945.79,-1042.37 936.35,-1037.55 935.41,-1044.49"/>
<text text-anchor="middle" x="726.08" y="-1032.37" font-family="Times,serif" font-size="10.00" fill="#767676">*</text>
</g>
<!-- ext&#45;tokenizer -->
<g id="node30" class="node">
<title>ext&#45;tokenizer</title>
<path fill="#eeeeee" stroke="black" d="M1030.58,-1012.37C1030.58,-1012.37 944.58,-1012.37 944.58,-1012.37 938.58,-1012.37 932.58,-1006.37 932.58,-1000.37 932.58,-1000.37 932.58,-988.37 932.58,-988.37 932.58,-982.37 938.58,-976.37 944.58,-976.37 944.58,-976.37 1030.58,-976.37 1030.58,-976.37 1036.58,-976.37 1042.58,-982.37 1042.58,-988.37 1042.58,-988.37 1042.58,-1000.37 1042.58,-1000.37 1042.58,-1006.37 1036.58,-1012.37 1030.58,-1012.37"/>
<text text-anchor="middle" x="987.58" y="-990.67" font-family="Times,serif" font-size="14.00" fill="#314b5f">ext&#45;tokenizer</text>
</g>
<!-- nikic/php&#45;parser&#45;&gt;ext&#45;tokenizer -->
<g id="edge39" class="edge">
<title>nikic/php&#45;parser&#45;&gt;ext&#45;tokenizer</title>
<path fill="none" stroke="#1a2833" d="M568.38,-1015.75C588.67,-1013.32 610.08,-1011.02 630.08,-1009.37 732.02,-1000.95 850.78,-997.15 922.25,-995.51"/>
<polygon fill="#1a2833" stroke="#1a2833" points="922.52,-999.01 932.44,-995.29 922.36,-992.01 922.52,-999.01"/>
<text text-anchor="middle" x="726.08" y="-1012.37" font-family="Times,serif" font-size="10.00" fill="#767676">*</text>
</g>
<!-- psr/log&#45;&gt;php -->
<g id="edge42" class="edge">
<title>psr/log&#45;&gt;php</title>
<path fill="none" stroke="#1a2833" d="M524.23,-786.33C554.23,-775.93 593.87,-763.71 630.08,-757.37 745.73,-737.12 885.45,-736.98 950.28,-738.28"/>
<polygon fill="#1a2833" stroke="#1a2833" points="950.31,-741.78 960.39,-738.5 950.47,-734.78 950.31,-741.78"/>
<text text-anchor="middle" x="726.08" y="-760.37" font-family="Times,serif" font-size="10.00" fill="#767676">&gt;=8.0.0</text>
</g>
<!-- ramsey/uuid&#45;&gt;php -->
<g id="edge46" class="edge">
<title>ramsey/uuid&#45;&gt;php</title>
<path fill="none" stroke="#1a2833" d="M550.41,-672.14C620.77,-675.58 729.15,-682.99 822.08,-698.37 866.95,-705.79 917.58,-719.19 950.67,-728.64"/>
<polygon fill="#1a2833" stroke="#1a2833" points="949.78,-732.03 960.36,-731.44 951.72,-725.3 949.78,-732.03"/>
<text text-anchor="middle" x="726.08" y="-701.37" font-family="Times,serif" font-size="10.00" fill="#767676">^8.0</text>
</g>
<!-- ramsey/uuid&#45;&gt;ext&#45;json -->
<g id="edge45" class="edge">
<title>ramsey/uuid&#45;&gt;ext&#45;json</title>
<path fill="none" stroke="#1a2833" d="M550.09,-669.72C573.43,-673.79 597.04,-682.8 612.08,-701.37 640.21,-736.08 599.88,-1472.44 630.08,-1505.37 659.09,-1537 779.66,-1519.81 822.08,-1526.37 862.51,-1532.62 908.1,-1541.95 941.01,-1549.09"/>
<polygon fill="#1a2833" stroke="#1a2833" points="940.28,-1552.51 950.8,-1551.23 941.78,-1545.68 940.28,-1552.51"/>
<text text-anchor="middle" x="726.08" y="-1529.37" font-family="Times,serif" font-size="10.00" fill="#767676">*</text>
</g>
<!-- brick/math -->
<g id="node33" class="node">
<title>brick/math</title>
<path fill="#eeeeee" stroke="black" d="M1049.58,-681.37C1049.58,-681.37 925.58,-681.37 925.58,-681.37 919.58,-681.37 913.58,-675.37 913.58,-669.37 913.58,-669.37 913.58,-657.37 913.58,-657.37 913.58,-651.37 919.58,-645.37 925.58,-645.37 925.58,-645.37 1049.58,-645.37 1049.58,-645.37 1055.58,-645.37 1061.58,-651.37 1061.58,-657.37 1061.58,-657.37 1061.58,-669.37 1061.58,-669.37 1061.58,-675.37 1055.58,-681.37 1049.58,-681.37"/>
<text text-anchor="middle" x="987.58" y="-659.67" font-family="Times,serif" font-size="14.00" fill="#314b5f">brick/math: 0.12.1</text>
</g>
<!-- ramsey/uuid&#45;&gt;brick/math -->
<g id="edge44" class="edge">
<title>ramsey/uuid&#45;&gt;brick/math</title>
<path fill="none" stroke="#1a2833" d="M550.09,-666.52C575.45,-665.66 604,-664.83 630.08,-664.37 723.57,-662.72 830.86,-662.67 903.12,-662.9"/>
<polygon fill="#1a2833" stroke="#1a2833" points="903.5,-666.4 913.52,-662.94 903.53,-659.4 903.5,-666.4"/>
<text text-anchor="middle" x="726.08" y="-667.37" font-family="Times,serif" font-size="10.00" fill="#767676">^0.8.8 || ^0.9 || ^0.10 || ^0.11 || ^0.12</text>
</g>
<!-- ramsey/collection -->
<g id="node34" class="node">
<title>ramsey/collection</title>
<path fill="#eeeeee" stroke="black" d="M1069.08,-585.37C1069.08,-585.37 906.08,-585.37 906.08,-585.37 900.08,-585.37 894.08,-579.37 894.08,-573.37 894.08,-573.37 894.08,-561.37 894.08,-561.37 894.08,-555.37 900.08,-549.37 906.08,-549.37 906.08,-549.37 1069.08,-549.37 1069.08,-549.37 1075.08,-549.37 1081.08,-555.37 1081.08,-561.37 1081.08,-561.37 1081.08,-573.37 1081.08,-573.37 1081.08,-579.37 1075.08,-585.37 1069.08,-585.37"/>
<text text-anchor="middle" x="987.58" y="-563.67" font-family="Times,serif" font-size="14.00" fill="#314b5f">ramsey/collection: 2.0.0</text>
</g>
<!-- ramsey/uuid&#45;&gt;ramsey/collection -->
<g id="edge47" class="edge">
<title>ramsey/uuid&#45;&gt;ramsey/collection</title>
<path fill="none" stroke="#1a2833" d="M550.28,-670.43C572.93,-666.99 596.06,-659.03 612.08,-642.37 647.63,-605.39 591.08,-561.69 630.08,-528.37 662.52,-500.65 781.24,-516 822.08,-528.37 831.28,-531.15 831.17,-536.75 840.08,-540.37 853.94,-545.99 869.01,-550.44 884.05,-553.98"/>
<polygon fill="#1a2833" stroke="#1a2833" points="883.39,-557.42 893.91,-556.17 884.91,-550.58 883.39,-557.42"/>
<text text-anchor="middle" x="726.08" y="-531.37" font-family="Times,serif" font-size="10.00" fill="#767676">^1.2 || ^2.0</text>
</g>
<!-- symfony/serializer&#45;&gt;php -->
<g id="edge54" class="edge">
<title>symfony/serializer&#45;&gt;php</title>
<path fill="none" stroke="#1a2833" d="M580.12,-613.47C667.79,-613.92 784.76,-619.97 822.08,-647.37 838.78,-659.63 824.9,-676.27 840.08,-690.37 870.57,-718.69 917.94,-730.68 950.51,-735.73"/>
<polygon fill="#1a2833" stroke="#1a2833" points="950.14,-739.22 960.53,-737.14 951.11,-732.28 950.14,-739.22"/>
<text text-anchor="middle" x="726.08" y="-650.37" font-family="Times,serif" font-size="10.00" fill="#767676">&gt;=8.1</text>
</g>
<!-- symfony/deprecation&#45;contracts -->
<g id="node36" class="node">
<title>symfony/deprecation&#45;contracts</title>
<path fill="#eeeeee" stroke="black" d="M1120.58,-477.37C1120.58,-477.37 854.58,-477.37 854.58,-477.37 848.58,-477.37 842.58,-471.37 842.58,-465.37 842.58,-465.37 842.58,-453.37 842.58,-453.37 842.58,-447.37 848.58,-441.37 854.58,-441.37 854.58,-441.37 1120.58,-441.37 1120.58,-441.37 1126.58,-441.37 1132.58,-447.37 1132.58,-453.37 1132.58,-453.37 1132.58,-465.37 1132.58,-465.37 1132.58,-471.37 1126.58,-477.37 1120.58,-477.37"/>
<text text-anchor="middle" x="987.58" y="-455.67" font-family="Times,serif" font-size="14.00" fill="#314b5f">symfony/deprecation&#45;contracts: v3.5.1</text>
</g>
<!-- symfony/serializer&#45;&gt;symfony/deprecation&#45;contracts -->
<g id="edge55" class="edge">
<title>symfony/serializer&#45;&gt;symfony/deprecation&#45;contracts</title>
<path fill="none" stroke="#1a2833" d="M580.1,-608.94C592.11,-604.32 603.21,-597.71 612.08,-588.37 650.42,-547.98 588.22,-501.1 630.08,-464.37 660.09,-438.03 750.38,-436.97 832.58,-442.39"/>
<polygon fill="#1a2833" stroke="#1a2833" points="832.34,-445.89 842.56,-443.09 832.83,-438.9 832.34,-445.89"/>
<text text-anchor="middle" x="726.08" y="-467.37" font-family="Times,serif" font-size="10.00" fill="#767676">^2.5|^3</text>
</g>
<!-- symfony/polyfill&#45;ctype -->
<g id="node37" class="node">
<title>symfony/polyfill&#45;ctype</title>
<path fill="#eeeeee" stroke="black" d="M1093.08,-531.37C1093.08,-531.37 882.08,-531.37 882.08,-531.37 876.08,-531.37 870.08,-525.37 870.08,-519.37 870.08,-519.37 870.08,-507.37 870.08,-507.37 870.08,-501.37 876.08,-495.37 882.08,-495.37 882.08,-495.37 1093.08,-495.37 1093.08,-495.37 1099.08,-495.37 1105.08,-501.37 1105.08,-507.37 1105.08,-507.37 1105.08,-519.37 1105.08,-519.37 1105.08,-525.37 1099.08,-531.37 1093.08,-531.37"/>
<text text-anchor="middle" x="987.58" y="-509.67" font-family="Times,serif" font-size="14.00" fill="#314b5f">symfony/polyfill&#45;ctype: v1.31.0</text>
</g>
<!-- symfony/serializer&#45;&gt;symfony/polyfill&#45;ctype -->
<g id="edge56" class="edge">
<title>symfony/serializer&#45;&gt;symfony/polyfill&#45;ctype</title>
<path fill="none" stroke="#1a2833" d="M580.33,-608.25C592.16,-603.71 603.15,-597.31 612.08,-588.37 641.22,-559.2 598.22,-523.54 630.08,-497.37 667.22,-466.85 790.33,-479.21 881.54,-493.68"/>
<polygon fill="#1a2833" stroke="#1a2833" points="881.22,-497.17 891.65,-495.31 882.34,-490.26 881.22,-497.17"/>
<text text-anchor="middle" x="726.08" y="-500.37" font-family="Times,serif" font-size="10.00" fill="#767676">~1.8</text>
</g>
<!-- symfony/framework&#45;bundle&#45;&gt;php -->
<g id="edge61" class="edge">
<title>symfony/framework&#45;bundle&#45;&gt;php</title>
<path fill="none" stroke="#1a2833" d="M612.21,-572.6C705.59,-580.91 814.06,-592.01 822.08,-599.37 852.46,-627.24 812.84,-659.42 840.08,-690.37 867.82,-721.89 916.42,-733.18 949.99,-737.2"/>
<polygon fill="#1a2833" stroke="#1a2833" points="950.01,-740.72 960.32,-738.26 950.73,-733.76 950.01,-740.72"/>
<text text-anchor="middle" x="726.08" y="-602.37" font-family="Times,serif" font-size="10.00" fill="#767676">&gt;=8.1</text>
</g>
<!-- symfony/framework&#45;bundle&#45;&gt;composer&#45;runtime&#45;api -->
<g id="edge59" class="edge">
<title>symfony/framework&#45;bundle&#45;&gt;composer&#45;runtime&#45;api</title>
<path fill="none" stroke="#1a2833" d="M602.93,-579.38C606.23,-582.06 609.29,-585.05 612.08,-588.37 641.52,-623.44 599.32,-1378.45 630.08,-1412.37 658.95,-1444.19 779.5,-1429.58 822.08,-1435.37 844.39,-1438.4 868.38,-1441.9 890.94,-1445.31"/>
<polygon fill="#1a2833" stroke="#1a2833" points="890.44,-1448.77 900.85,-1446.81 891.49,-1441.85 890.44,-1448.77"/>
<text text-anchor="middle" x="726.08" y="-1438.37" font-family="Times,serif" font-size="10.00" fill="#767676">&gt;=2.1</text>
</g>
<!-- symfony/framework&#45;bundle&#45;&gt;symfony/cache -->
<g id="edge62" class="edge">
<title>symfony/framework&#45;bundle&#45;&gt;symfony/cache</title>
<path fill="none" stroke="#1a2833" d="M602.78,-579.51C606.12,-582.15 609.23,-585.1 612.08,-588.37 658.24,-641.44 581.44,-853.56 630.08,-904.37 634.51,-909 781.34,-922.62 885.16,-931.71"/>
<polygon fill="#1a2833" stroke="#1a2833" points="885.11,-935.22 895.38,-932.6 885.72,-928.25 885.11,-935.22"/>
<text text-anchor="middle" x="726.08" y="-928.37" font-family="Times,serif" font-size="10.00" fill="#767676">^5.4|^6.0|^7.0</text>
</g>
<!-- symfony/framework&#45;bundle&#45;&gt;symfony/config -->
<g id="edge63" class="edge">
<title>symfony/framework&#45;bundle&#45;&gt;symfony/config</title>
<path fill="none" stroke="#1a2833" d="M602.92,-579.39C606.22,-582.07 609.29,-585.05 612.08,-588.37 638.24,-619.44 602.74,-1289.32 630.08,-1319.37 658.99,-1351.15 779.5,-1336.58 822.08,-1342.37 842.25,-1345.11 863.78,-1348.23 884.39,-1351.32"/>
<polygon fill="#1a2833" stroke="#1a2833" points="884.02,-1354.81 894.43,-1352.84 885.06,-1347.89 884.02,-1354.81"/>
<text text-anchor="middle" x="726.08" y="-1345.37" font-family="Times,serif" font-size="10.00" fill="#767676">^6.1|^7.0</text>
</g>
<!-- symfony/framework&#45;bundle&#45;&gt;symfony/dependency&#45;injection -->
<g id="edge64" class="edge">
<title>symfony/framework&#45;bundle&#45;&gt;symfony/dependency&#45;injection</title>
<path fill="none" stroke="#1a2833" d="M602.91,-579.4C606.21,-582.08 609.28,-585.06 612.08,-588.37 657.85,-642.54 582.27,-1173.99 630.08,-1226.37 659.05,-1258.1 779.5,-1243.58 822.08,-1249.37 834.74,-1251.09 847.93,-1252.96 861.1,-1254.88"/>
<polygon fill="#1a2833" stroke="#1a2833" points="860.75,-1258.36 871.16,-1256.35 861.77,-1251.44 860.75,-1258.36"/>
<text text-anchor="middle" x="726.08" y="-1252.37" font-family="Times,serif" font-size="10.00" fill="#767676">^6.4.12|^7.0</text>
</g>
<!-- symfony/framework&#45;bundle&#45;&gt;symfony/event&#45;dispatcher -->
<g id="edge67" class="edge">
<title>symfony/framework&#45;bundle&#45;&gt;symfony/event&#45;dispatcher</title>
<path fill="none" stroke="#1a2833" d="M602.88,-579.42C606.19,-582.09 609.27,-585.06 612.08,-588.37 651.29,-634.55 589.12,-1088.72 630.08,-1133.37 659.13,-1165.03 779.5,-1150.58 822.08,-1156.37 834.74,-1158.09 847.93,-1159.96 861.1,-1161.88"/>
<polygon fill="#1a2833" stroke="#1a2833" points="860.75,-1165.36 871.16,-1163.35 861.77,-1158.44 860.75,-1165.36"/>
<text text-anchor="middle" x="726.08" y="-1159.37" font-family="Times,serif" font-size="10.00" fill="#767676">^5.4|^6.0|^7.0</text>
</g>
<!-- symfony/framework&#45;bundle&#45;&gt;symfony/finder -->
<g id="edge69" class="edge">
<title>symfony/framework&#45;bundle&#45;&gt;symfony/finder</title>
<path fill="none" stroke="#1a2833" d="M602.86,-579.44C606.17,-582.11 609.26,-585.07 612.08,-588.37 644.74,-626.57 595.98,-1003.44 630.08,-1040.37 659.23,-1071.93 781.77,-1048.49 822.08,-1063.37 831.1,-1066.7 831.17,-1071.75 840.08,-1075.37 854.23,-1081.1 869.66,-1085.63 885.01,-1089.2"/>
<polygon fill="#1a2833" stroke="#1a2833" points="884.55,-1092.69 895.07,-1091.41 886.05,-1085.85 884.55,-1092.69"/>
<text text-anchor="middle" x="726.08" y="-1066.37" font-family="Times,serif" font-size="10.00" fill="#767676">^5.4|^6.0|^7.0</text>
</g>
<!-- symfony/framework&#45;bundle&#45;&gt;symfony/deprecation&#45;contracts -->
<g id="edge65" class="edge">
<title>symfony/framework&#45;bundle&#45;&gt;symfony/deprecation&#45;contracts</title>
<path fill="none" stroke="#1a2833" d="M601.76,-543.23C605.43,-540.59 608.89,-537.65 612.08,-534.37 645.95,-499.43 592.95,-457.82 630.08,-426.37 662.63,-398.79 779.96,-419.53 822.08,-426.37 830.4,-427.72 831.91,-430.26 840.08,-432.37 849.47,-434.78 859.25,-437.07 869.11,-439.22"/>
<polygon fill="#1a2833" stroke="#1a2833" points="868.48,-442.66 878.99,-441.32 869.93,-435.82 868.48,-442.66"/>
<text text-anchor="middle" x="726.08" y="-429.37" font-family="Times,serif" font-size="10.00" fill="#767676">^2.5|^3</text>
</g>
<!-- ext&#45;xml -->
<g id="node39" class="node">
<title>ext&#45;xml</title>
<path fill="#eeeeee" stroke="black" d="M1010.58,-423.37C1010.58,-423.37 964.58,-423.37 964.58,-423.37 958.58,-423.37 952.58,-417.37 952.58,-411.37 952.58,-411.37 952.58,-399.37 952.58,-399.37 952.58,-393.37 958.58,-387.37 964.58,-387.37 964.58,-387.37 1010.58,-387.37 1010.58,-387.37 1016.58,-387.37 1022.58,-393.37 1022.58,-399.37 1022.58,-399.37 1022.58,-411.37 1022.58,-411.37 1022.58,-417.37 1016.58,-423.37 1010.58,-423.37"/>
<text text-anchor="middle" x="987.58" y="-401.67" font-family="Times,serif" font-size="14.00" fill="#314b5f">ext&#45;xml</text>
</g>
<!-- symfony/framework&#45;bundle&#45;&gt;ext&#45;xml -->
<g id="edge60" class="edge">
<title>symfony/framework&#45;bundle&#45;&gt;ext&#45;xml</title>
<path fill="none" stroke="#1a2833" d="M602.19,-543.16C605.72,-540.54 609.03,-537.61 612.08,-534.37 653.78,-489.89 584.22,-438.55 630.08,-398.37 675.33,-358.71 857.42,-383.32 942.44,-397.46"/>
<polygon fill="#1a2833" stroke="#1a2833" points="942.11,-400.95 952.55,-399.16 943.28,-394.05 942.11,-400.95"/>
<text text-anchor="middle" x="726.08" y="-401.37" font-family="Times,serif" font-size="10.00" fill="#767676">*</text>
</g>
<!-- symfony/error&#45;handler -->
<g id="node40" class="node">
<title>symfony/error&#45;handler</title>
<path fill="#eeeeee" stroke="black" d="M1095.08,-369.37C1095.08,-369.37 880.08,-369.37 880.08,-369.37 874.08,-369.37 868.08,-363.37 868.08,-357.37 868.08,-357.37 868.08,-345.37 868.08,-345.37 868.08,-339.37 874.08,-333.37 880.08,-333.37 880.08,-333.37 1095.08,-333.37 1095.08,-333.37 1101.08,-333.37 1107.08,-339.37 1107.08,-345.37 1107.08,-345.37 1107.08,-357.37 1107.08,-357.37 1107.08,-363.37 1101.08,-369.37 1095.08,-369.37"/>
<text text-anchor="middle" x="987.58" y="-347.67" font-family="Times,serif" font-size="14.00" fill="#314b5f">symfony/error&#45;handler: v6.4.14</text>
</g>
<!-- symfony/framework&#45;bundle&#45;&gt;symfony/error&#45;handler -->
<g id="edge66" class="edge">
<title>symfony/framework&#45;bundle&#45;&gt;symfony/error&#45;handler</title>
<path fill="none" stroke="#1a2833" d="M602.3,-543.26C605.8,-540.61 609.08,-537.66 612.08,-534.37 637.98,-505.97 601.92,-388.53 630.08,-362.37 662.4,-332.33 769.21,-332.33 857.56,-338.23"/>
<polygon fill="#1a2833" stroke="#1a2833" points="857.47,-341.73 867.69,-338.93 857.96,-334.75 857.47,-341.73"/>
<text text-anchor="middle" x="726.08" y="-365.37" font-family="Times,serif" font-size="10.00" fill="#767676">^6.1|^7.0</text>
</g>
<!-- symfony/filesystem -->
<g id="node41" class="node">
<title>symfony/filesystem</title>
<path fill="#eeeeee" stroke="black" d="M1083.58,-315.37C1083.58,-315.37 891.58,-315.37 891.58,-315.37 885.58,-315.37 879.58,-309.37 879.58,-303.37 879.58,-303.37 879.58,-291.37 879.58,-291.37 879.58,-285.37 885.58,-279.37 891.58,-279.37 891.58,-279.37 1083.58,-279.37 1083.58,-279.37 1089.58,-279.37 1095.58,-285.37 1095.58,-291.37 1095.58,-291.37 1095.58,-303.37 1095.58,-303.37 1095.58,-309.37 1089.58,-315.37 1083.58,-315.37"/>
<text text-anchor="middle" x="987.58" y="-293.67" font-family="Times,serif" font-size="14.00" fill="#314b5f">symfony/filesystem: v6.4.13</text>
</g>
<!-- symfony/framework&#45;bundle&#45;&gt;symfony/filesystem -->
<g id="edge68" class="edge">
<title>symfony/framework&#45;bundle&#45;&gt;symfony/filesystem</title>
<path fill="none" stroke="#1a2833" d="M602.39,-543.34C605.86,-540.67 609.11,-537.69 612.08,-534.37 643.88,-498.78 596.01,-353.78 630.08,-320.37 663.1,-287.98 778.67,-285.52 869.38,-289.12"/>
<polygon fill="#1a2833" stroke="#1a2833" points="869.33,-292.62 879.47,-289.55 869.63,-285.62 869.33,-292.62"/>
<text text-anchor="middle" x="726.08" y="-323.37" font-family="Times,serif" font-size="10.00" fill="#767676">^5.4|^6.0|^7.0</text>
</g>
<!-- symfony/http&#45;foundation -->
<g id="node42" class="node">
<title>symfony/http&#45;foundation</title>
<path fill="#eeeeee" stroke="black" d="M1102.58,-261.37C1102.58,-261.37 872.58,-261.37 872.58,-261.37 866.58,-261.37 860.58,-255.37 860.58,-249.37 860.58,-249.37 860.58,-237.37 860.58,-237.37 860.58,-231.37 866.58,-225.37 872.58,-225.37 872.58,-225.37 1102.58,-225.37 1102.58,-225.37 1108.58,-225.37 1114.58,-231.37 1114.58,-237.37 1114.58,-237.37 1114.58,-249.37 1114.58,-249.37 1114.58,-255.37 1108.58,-261.37 1102.58,-261.37"/>
<text text-anchor="middle" x="987.58" y="-239.67" font-family="Times,serif" font-size="14.00" fill="#314b5f">symfony/http&#45;foundation: v6.4.16</text>
</g>
<!-- symfony/framework&#45;bundle&#45;&gt;symfony/http&#45;foundation -->
<g id="edge70" class="edge">
<title>symfony/framework&#45;bundle&#45;&gt;symfony/http&#45;foundation</title>
<path fill="none" stroke="#1a2833" d="M602.73,-543.18C606.08,-540.55 609.22,-537.62 612.08,-534.37 650.49,-490.73 589.28,-314.78 630.08,-273.37 660.4,-242.58 763.07,-236.4 850.49,-237.17"/>
<polygon fill="#1a2833" stroke="#1a2833" points="850.48,-240.67 860.53,-237.29 850.57,-233.67 850.48,-240.67"/>
<text text-anchor="middle" x="726.08" y="-276.37" font-family="Times,serif" font-size="10.00" fill="#767676">^6.4|^7.0</text>
</g>
<!-- symfony/http&#45;kernel -->
<g id="node43" class="node">
<title>symfony/http&#45;kernel</title>
<path fill="#eeeeee" stroke="black" d="M1087.08,-207.37C1087.08,-207.37 888.08,-207.37 888.08,-207.37 882.08,-207.37 876.08,-201.37 876.08,-195.37 876.08,-195.37 876.08,-183.37 876.08,-183.37 876.08,-177.37 882.08,-171.37 888.08,-171.37 888.08,-171.37 1087.08,-171.37 1087.08,-171.37 1093.08,-171.37 1099.08,-177.37 1099.08,-183.37 1099.08,-183.37 1099.08,-195.37 1099.08,-195.37 1099.08,-201.37 1093.08,-207.37 1087.08,-207.37"/>
<text text-anchor="middle" x="987.58" y="-185.67" font-family="Times,serif" font-size="14.00" fill="#314b5f">symfony/http&#45;kernel: v6.4.16</text>
</g>
<!-- symfony/framework&#45;bundle&#45;&gt;symfony/http&#45;kernel -->
<g id="edge71" class="edge">
<title>symfony/framework&#45;bundle&#45;&gt;symfony/http&#45;kernel</title>
<path fill="none" stroke="#1a2833" d="M602.78,-543.22C606.12,-540.58 609.23,-537.63 612.08,-534.37 657.67,-481.98 581.83,-272.32 630.08,-222.37 661.92,-189.4 775.38,-183.46 865.86,-184.36"/>
<polygon fill="#1a2833" stroke="#1a2833" points="865.89,-187.86 875.93,-184.48 865.97,-180.86 865.89,-187.86"/>
<text text-anchor="middle" x="726.08" y="-225.37" font-family="Times,serif" font-size="10.00" fill="#767676">^6.4</text>
</g>
<!-- symfony/polyfill&#45;mbstring -->
<g id="node44" class="node">
<title>symfony/polyfill&#45;mbstring</title>
<path fill="#eeeeee" stroke="black" d="M1106.08,-153.37C1106.08,-153.37 869.08,-153.37 869.08,-153.37 863.08,-153.37 857.08,-147.37 857.08,-141.37 857.08,-141.37 857.08,-129.37 857.08,-129.37 857.08,-123.37 863.08,-117.37 869.08,-117.37 869.08,-117.37 1106.08,-117.37 1106.08,-117.37 1112.08,-117.37 1118.08,-123.37 1118.08,-129.37 1118.08,-129.37 1118.08,-141.37 1118.08,-141.37 1118.08,-147.37 1112.08,-153.37 1106.08,-153.37"/>
<text text-anchor="middle" x="987.58" y="-131.67" font-family="Times,serif" font-size="14.00" fill="#314b5f">symfony/polyfill&#45;mbstring: v1.31.0</text>
</g>
<!-- symfony/framework&#45;bundle&#45;&gt;symfony/polyfill&#45;mbstring -->
<g id="edge72" class="edge">
<title>symfony/framework&#45;bundle&#45;&gt;symfony/polyfill&#45;mbstring</title>
<path fill="none" stroke="#1a2833" d="M602.81,-543.25C606.14,-540.6 609.25,-537.65 612.08,-534.37 638.54,-503.71 602.15,-199.68 630.08,-170.37 698.02,-99.05 818.37,-102.58 900.26,-115.65"/>
<polygon fill="#1a2833" stroke="#1a2833" points="899.85,-119.13 910.29,-117.33 901.01,-112.22 899.85,-119.13"/>
<text text-anchor="middle" x="726.08" y="-173.37" font-family="Times,serif" font-size="10.00" fill="#767676">~1.0</text>
</g>
<!-- symfony/routing -->
<g id="node45" class="node">
<title>symfony/routing</title>
<path fill="#eeeeee" stroke="black" d="M1073.58,-99.37C1073.58,-99.37 901.58,-99.37 901.58,-99.37 895.58,-99.37 889.58,-93.37 889.58,-87.37 889.58,-87.37 889.58,-75.37 889.58,-75.37 889.58,-69.37 895.58,-63.37 901.58,-63.37 901.58,-63.37 1073.58,-63.37 1073.58,-63.37 1079.58,-63.37 1085.58,-69.37 1085.58,-75.37 1085.58,-75.37 1085.58,-87.37 1085.58,-87.37 1085.58,-93.37 1079.58,-99.37 1073.58,-99.37"/>
<text text-anchor="middle" x="987.58" y="-77.67" font-family="Times,serif" font-size="14.00" fill="#314b5f">symfony/routing: v6.4.16</text>
</g>
<!-- symfony/framework&#45;bundle&#45;&gt;symfony/routing -->
<g id="edge73" class="edge">
<title>symfony/framework&#45;bundle&#45;&gt;symfony/routing</title>
<path fill="none" stroke="#1a2833" d="M602.85,-543.28C606.17,-540.62 609.26,-537.66 612.08,-534.37 643.96,-497.11 595.28,-127.92 630.08,-93.37 664.07,-59.62 787.17,-62.27 879.26,-69.66"/>
<polygon fill="#1a2833" stroke="#1a2833" points="879.23,-73.17 889.48,-70.51 879.81,-66.2 879.23,-73.17"/>
<text text-anchor="middle" x="726.08" y="-96.37" font-family="Times,serif" font-size="10.00" fill="#767676">^6.4|^7.0</text>
</g>
<!-- bamarni/composer&#45;bin&#45;plugin&#45;&gt;php -->
<g id="edge76" class="edge">
<title>bamarni/composer&#45;bin&#45;plugin&#45;&gt;php</title>
<path fill="none" stroke="#1a2833" d="M571.76,-525.42C585.33,-528.26 599.08,-531.28 612.08,-534.37 620.16,-536.29 621.92,-537.8 630.08,-539.37 672.23,-547.47 791.3,-530.45 822.08,-560.37 863.91,-601.02 802.82,-645.48 840.08,-690.37 867.17,-723 916.69,-734.01 950.6,-737.67"/>
<polygon fill="#1a2833" stroke="#1a2833" points="950.3,-741.15 960.58,-738.58 950.94,-734.18 950.3,-741.15"/>
<text text-anchor="middle" x="726.08" y="-563.37" font-family="Times,serif" font-size="10.00" fill="#767676">^7.2.5 || ^8.0</text>
</g>
<!-- composer&#45;plugin&#45;api -->
<g id="node47" class="node">
<title>composer&#45;plugin&#45;api</title>
<path fill="#eeeeee" stroke="black" d="M1056.08,-45.37C1056.08,-45.37 919.08,-45.37 919.08,-45.37 913.08,-45.37 907.08,-39.37 907.08,-33.37 907.08,-33.37 907.08,-21.37 907.08,-21.37 907.08,-15.37 913.08,-9.37 919.08,-9.37 919.08,-9.37 1056.08,-9.37 1056.08,-9.37 1062.08,-9.37 1068.08,-15.37 1068.08,-21.37 1068.08,-21.37 1068.08,-33.37 1068.08,-33.37 1068.08,-39.37 1062.08,-45.37 1056.08,-45.37"/>
<text text-anchor="middle" x="987.58" y="-23.67" font-family="Times,serif" font-size="14.00" fill="#314b5f">composer&#45;plugin&#45;api</text>
</g>
<!-- bamarni/composer&#45;bin&#45;plugin&#45;&gt;composer&#45;plugin&#45;api -->
<g id="edge75" class="edge">
<title>bamarni/composer&#45;bin&#45;plugin&#45;&gt;composer&#45;plugin&#45;api</title>
<path fill="none" stroke="#1a2833" d="M475.69,-488.97C475.31,-418.27 484.35,-162.33 630.08,-50.37 705.9,7.88 819.67,4.32 898.2,-7.73"/>
<polygon fill="#1a2833" stroke="#1a2833" points="897.65,-11.19 908.08,-9.32 898.76,-4.28 897.65,-11.19"/>
<text text-anchor="middle" x="726.08" y="-53.37" font-family="Times,serif" font-size="10.00" fill="#767676">^2.0</text>
</g>
</g>
</svg>
