<?xml version="1.0" encoding="UTF-8" standalone="no"?>
<!DOCTYPE svg PUBLIC "-//W3C//DTD SVG 1.1//EN"
 "http://www.w3.org/Graphics/SVG/1.1/DTD/svg11.dtd">
<!-- Generated by graphviz version 2.43.0 (0)
 -->
<!-- Title: %3 Pages: 1 -->
<svg width="1256pt" height="1728pt"
 viewBox="0.00 0.00 1256.08 1728.44" xmlns="http://www.w3.org/2000/svg" xmlns:xlink="http://www.w3.org/1999/xlink">
<g id="graph0" class="graph" transform="scale(1 1) rotate(0) translate(4 1724.44)">
<title>%3</title>
<polygon fill="white" stroke="transparent" points="-4,4 -4,-1724.44 1252.08,-1724.44 1252.08,4 -4,4"/>
<g id="clust1" class="cluster">
<title>cluster_0</title>
<polygon fill="none" stroke="black" points="8,-17.44 8,-1712.44 1240.08,-1712.44 1240.08,-17.44 8,-17.44"/>
<text text-anchor="middle" x="624.04" y="-1697.24" font-family="Times,serif" font-size="14.00">0</text>
</g>
<!-- bartlett/php&#45;compatinfo -->
<g id="node1" class="node">
<title>bartlett/php&#45;compatinfo</title>
<ellipse fill="lightgrey" stroke="black" stroke-width="2" cx="137.54" cy="-885.44" rx="121.58" ry="18"/>
<text text-anchor="middle" x="137.54" y="-881.74" font-family="Times,serif" font-size="14.00">bartlett/php&#45;compatinfo</text>
</g>
<!-- php -->
<g id="node2" class="node">
<title>php</title>
<path fill="#eeeeee" stroke="black" d="M1101.58,-1411.44C1101.58,-1411.44 1071.58,-1411.44 1071.58,-1411.44 1065.58,-1411.44 1059.58,-1405.44 1059.58,-1399.44 1059.58,-1399.44 1059.58,-1387.44 1059.58,-1387.44 1059.58,-1381.44 1065.58,-1375.44 1071.58,-1375.44 1071.58,-1375.44 1101.58,-1375.44 1101.58,-1375.44 1107.58,-1375.44 1113.58,-1381.44 1113.58,-1387.44 1113.58,-1387.44 1113.58,-1399.44 1113.58,-1399.44 1113.58,-1405.44 1107.58,-1411.44 1101.58,-1411.44"/>
<text text-anchor="middle" x="1086.58" y="-1389.74" font-family="Times,serif" font-size="14.00" fill="#314b5f">php</text>
</g>
<!-- bartlett/php&#45;compatinfo&#45;&gt;php -->
<g id="edge1" class="edge">
<title>bartlett/php&#45;compatinfo&#45;&gt;php</title>
<path fill="none" stroke="#1a2833" d="M141.88,-903.68C155.15,-970.52 210.47,-1204.01 354.08,-1316.44 459.7,-1399.13 510.37,-1383.9 643.08,-1403.44 766.2,-1421.57 798.69,-1407.26 923.08,-1403.44 966.54,-1402.1 1016.46,-1398.76 1049.37,-1396.31"/>
<polygon fill="#1a2833" stroke="#1a2833" points="1049.72,-1399.79 1059.43,-1395.55 1049.19,-1392.81 1049.72,-1399.79"/>
<text text-anchor="middle" x="489.58" y="-1403.44" font-family="Times,serif" font-size="10.00" fill="#767676">^8.1</text>
</g>
<!-- ext&#45;json -->
<g id="node3" class="node">
<title>ext&#45;json</title>
<path fill="#eeeeee" stroke="black" d="M1111.08,-1141.44C1111.08,-1141.44 1062.08,-1141.44 1062.08,-1141.44 1056.08,-1141.44 1050.08,-1135.44 1050.08,-1129.44 1050.08,-1129.44 1050.08,-1117.44 1050.08,-1117.44 1050.08,-1111.44 1056.08,-1105.44 1062.08,-1105.44 1062.08,-1105.44 1111.08,-1105.44 1111.08,-1105.44 1117.08,-1105.44 1123.08,-1111.44 1123.08,-1117.44 1123.08,-1117.44 1123.08,-1129.44 1123.08,-1129.44 1123.08,-1135.44 1117.08,-1141.44 1111.08,-1141.44"/>
<text text-anchor="middle" x="1086.58" y="-1119.74" font-family="Times,serif" font-size="14.00" fill="#314b5f">ext&#45;json</text>
</g>
<!-- bartlett/php&#45;compatinfo&#45;&gt;ext&#45;json -->
<g id="edge2" class="edge">
<title>bartlett/php&#45;compatinfo&#45;&gt;ext&#45;json</title>
<path fill="none" stroke="#1a2833" d="M162.97,-903.22C201.5,-930.3 279.66,-981.35 354.08,-1006.44 477.6,-1048.09 513.42,-1042.97 643.08,-1056.44 674.04,-1059.66 896.27,-1050.62 923.08,-1066.44 936.47,-1074.34 928.31,-1087.56 941.08,-1096.44 969.76,-1116.38 1009.07,-1122.72 1039.45,-1124.29"/>
<polygon fill="#1a2833" stroke="#1a2833" points="1039.68,-1127.8 1049.8,-1124.67 1039.93,-1120.81 1039.68,-1127.8"/>
<text text-anchor="middle" x="489.58" y="-1056.44" font-family="Times,serif" font-size="10.00" fill="#767676">*</text>
</g>
<!-- ext&#45;pcre -->
<g id="node4" class="node">
<title>ext&#45;pcre</title>
<path fill="#eeeeee" stroke="black" d="M1112.08,-1033.44C1112.08,-1033.44 1061.08,-1033.44 1061.08,-1033.44 1055.08,-1033.44 1049.08,-1027.44 1049.08,-1021.44 1049.08,-1021.44 1049.08,-1009.44 1049.08,-1009.44 1049.08,-1003.44 1055.08,-997.44 1061.08,-997.44 1061.08,-997.44 1112.08,-997.44 1112.08,-997.44 1118.08,-997.44 1124.08,-1003.44 1124.08,-1009.44 1124.08,-1009.44 1124.08,-1021.44 1124.08,-1021.44 1124.08,-1027.44 1118.08,-1033.44 1112.08,-1033.44"/>
<text text-anchor="middle" x="1086.58" y="-1011.74" font-family="Times,serif" font-size="14.00" fill="#314b5f">ext&#45;pcre</text>
</g>
<!-- bartlett/php&#45;compatinfo&#45;&gt;ext&#45;pcre -->
<g id="edge3" class="edge">
<title>bartlett/php&#45;compatinfo&#45;&gt;ext&#45;pcre</title>
<path fill="none" stroke="#1a2833" d="M258.36,-883C474.96,-878.86 910.58,-871.89 923.08,-882.44 959.59,-913.27 907.57,-954.37 941.08,-988.44 966.11,-1013.89 1006.92,-1019.59 1038.8,-1019.52"/>
<polygon fill="#1a2833" stroke="#1a2833" points="1038.88,-1023.02 1048.8,-1019.32 1038.73,-1016.02 1038.88,-1023.02"/>
<text text-anchor="middle" x="489.58" y="-883.44" font-family="Times,serif" font-size="10.00" fill="#767676">*</text>
</g>
<!-- ext&#45;spl -->
<g id="node5" class="node">
<title>ext&#45;spl</title>
<path fill="#eeeeee" stroke="black" d="M1107.08,-1087.44C1107.08,-1087.44 1066.08,-1087.44 1066.08,-1087.44 1060.08,-1087.44 1054.08,-1081.44 1054.08,-1075.44 1054.08,-1075.44 1054.08,-1063.44 1054.08,-1063.44 1054.08,-1057.44 1060.08,-1051.44 1066.08,-1051.44 1066.08,-1051.44 1107.08,-1051.44 1107.08,-1051.44 1113.08,-1051.44 1119.08,-1057.44 1119.08,-1063.44 1119.08,-1063.44 1119.08,-1075.44 1119.08,-1075.44 1119.08,-1081.44 1113.08,-1087.44 1107.08,-1087.44"/>
<text text-anchor="middle" x="1086.58" y="-1065.74" font-family="Times,serif" font-size="14.00" fill="#314b5f">ext&#45;spl</text>
</g>
<!-- bartlett/php&#45;compatinfo&#45;&gt;ext&#45;spl -->
<g id="edge4" class="edge">
<title>bartlett/php&#45;compatinfo&#45;&gt;ext&#45;spl</title>
<path fill="none" stroke="#1a2833" d="M250.23,-892.27C352.45,-898.37 507.9,-907.27 643.08,-913.44 658.63,-914.15 911.46,-913.08 923.08,-923.44 963,-959.04 903.91,-1003.97 941.08,-1042.44 967.24,-1069.52 1011.24,-1074.35 1043.83,-1073.59"/>
<polygon fill="#1a2833" stroke="#1a2833" points="1044.12,-1077.08 1053.97,-1073.17 1043.83,-1070.09 1044.12,-1077.08"/>
<text text-anchor="middle" x="489.58" y="-914.44" font-family="Times,serif" font-size="10.00" fill="#767676">*</text>
</g>
<!-- bartlett/php&#45;compatinfo&#45;db -->
<g id="node6" class="node">
<title>bartlett/php&#45;compatinfo&#45;db</title>
<path fill="#eeeeee" stroke="black" d="M609.08,-609.44C609.08,-609.44 370.08,-609.44 370.08,-609.44 364.08,-609.44 358.08,-603.44 358.08,-597.44 358.08,-597.44 358.08,-585.44 358.08,-585.44 358.08,-579.44 364.08,-573.44 370.08,-573.44 370.08,-573.44 609.08,-573.44 609.08,-573.44 615.08,-573.44 621.08,-579.44 621.08,-585.44 621.08,-585.44 621.08,-597.44 621.08,-597.44 621.08,-603.44 615.08,-609.44 609.08,-609.44"/>
<text text-anchor="middle" x="489.58" y="-587.74" font-family="Times,serif" font-size="14.00" fill="#314b5f">bartlett/php&#45;compatinfo&#45;db: 6.31.0</text>
</g>
<!-- bartlett/php&#45;compatinfo&#45;&gt;bartlett/php&#45;compatinfo&#45;db -->
<g id="edge28" class="edge">
<title>bartlett/php&#45;compatinfo&#45;&gt;bartlett/php&#45;compatinfo&#45;db</title>
<path fill="none" stroke="#1a2833" d="M159.65,-867.71C219.44,-817.49 390.11,-674.15 459.1,-616.2"/>
<polygon fill="#1a2833" stroke="#1a2833" points="461.59,-618.68 467,-609.57 457.09,-613.32 461.59,-618.68"/>
<text text-anchor="middle" x="306.58" y="-767.44" font-family="Times,serif" font-size="10.00" fill="#767676">^6.4.2</text>
</g>
<!-- composer&#45;runtime&#45;api -->
<g id="node7" class="node">
<title>composer&#45;runtime&#45;api</title>
<path fill="#eeeeee" stroke="black" d="M1161.08,-925.44C1161.08,-925.44 1012.08,-925.44 1012.08,-925.44 1006.08,-925.44 1000.08,-919.44 1000.08,-913.44 1000.08,-913.44 1000.08,-901.44 1000.08,-901.44 1000.08,-895.44 1006.08,-889.44 1012.08,-889.44 1012.08,-889.44 1161.08,-889.44 1161.08,-889.44 1167.08,-889.44 1173.08,-895.44 1173.08,-901.44 1173.08,-901.44 1173.08,-913.44 1173.08,-913.44 1173.08,-919.44 1167.08,-925.44 1161.08,-925.44"/>
<text text-anchor="middle" x="1086.58" y="-903.74" font-family="Times,serif" font-size="14.00" fill="#314b5f">composer&#45;runtime&#45;api</text>
</g>
<!-- bartlett/php&#45;compatinfo&#45;&gt;composer&#45;runtime&#45;api -->
<g id="edge34" class="edge">
<title>bartlett/php&#45;compatinfo&#45;&gt;composer&#45;runtime&#45;api</title>
<path fill="none" stroke="#1a2833" d="M173.69,-868.08C215.49,-848.47 287.95,-817.68 354.08,-805.44 385.16,-799.69 898.39,-780.69 923.08,-800.44 951.54,-823.21 914.84,-855.15 941.08,-880.44 954.47,-893.35 971.96,-901.1 990.11,-905.58"/>
<polygon fill="#1a2833" stroke="#1a2833" points="989.44,-909.01 999.95,-907.69 990.9,-902.17 989.44,-909.01"/>
<text text-anchor="middle" x="489.58" y="-808.44" font-family="Times,serif" font-size="10.00" fill="#767676">^2.1</text>
</g>
<!-- psr/log -->
<g id="node13" class="node">
<title>psr/log</title>
<path fill="#eeeeee" stroke="black" d="M1130.08,-61.44C1130.08,-61.44 1043.08,-61.44 1043.08,-61.44 1037.08,-61.44 1031.08,-55.44 1031.08,-49.44 1031.08,-49.44 1031.08,-37.44 1031.08,-37.44 1031.08,-31.44 1037.08,-25.44 1043.08,-25.44 1043.08,-25.44 1130.08,-25.44 1130.08,-25.44 1136.08,-25.44 1142.08,-31.44 1142.08,-37.44 1142.08,-37.44 1142.08,-49.44 1142.08,-49.44 1142.08,-55.44 1136.08,-61.44 1130.08,-61.44"/>
<text text-anchor="middle" x="1086.58" y="-39.74" font-family="Times,serif" font-size="14.00" fill="#314b5f">psr/log: 3.0.2</text>
</g>
<!-- bartlett/php&#45;compatinfo&#45;&gt;psr/log -->
<g id="edge44" class="edge">
<title>bartlett/php&#45;compatinfo&#45;&gt;psr/log</title>
<path fill="none" stroke="#1a2833" d="M138.26,-867.34C137.66,-781.46 143.21,-408.22 277.08,-146.44 299.69,-102.22 308.73,-85.71 354.08,-65.44 581.3,36.14 889.11,-4.86 1021.12,-29.71"/>
<polygon fill="#1a2833" stroke="#1a2833" points="1020.6,-33.17 1031.08,-31.62 1021.91,-26.3 1020.6,-33.17"/>
<text text-anchor="middle" x="489.58" y="-68.44" font-family="Times,serif" font-size="10.00" fill="#767676">^3.0</text>
</g>
<!-- symfony/config -->
<g id="node15" class="node">
<title>symfony/config</title>
<path fill="#eeeeee" stroke="black" d="M1163.08,-115.44C1163.08,-115.44 1010.08,-115.44 1010.08,-115.44 1004.08,-115.44 998.08,-109.44 998.08,-103.44 998.08,-103.44 998.08,-91.44 998.08,-91.44 998.08,-85.44 1004.08,-79.44 1010.08,-79.44 1010.08,-79.44 1163.08,-79.44 1163.08,-79.44 1169.08,-79.44 1175.08,-85.44 1175.08,-91.44 1175.08,-91.44 1175.08,-103.44 1175.08,-103.44 1175.08,-109.44 1169.08,-115.44 1163.08,-115.44"/>
<text text-anchor="middle" x="1086.58" y="-93.74" font-family="Times,serif" font-size="14.00" fill="#314b5f">symfony/config: v7.4.8</text>
</g>
<!-- bartlett/php&#45;compatinfo&#45;&gt;symfony/config -->
<g id="edge49" class="edge">
<title>bartlett/php&#45;compatinfo&#45;&gt;symfony/config</title>
<path fill="none" stroke="#1a2833" d="M140.47,-867.19C150.96,-770.55 203.33,-318.41 277.08,-201.44 299.93,-165.2 314.39,-159.59 354.08,-143.44 566.87,-56.85 843.35,-69.51 987.85,-84.5"/>
<polygon fill="#1a2833" stroke="#1a2833" points="987.7,-88.01 998.02,-85.59 988.44,-81.05 987.7,-88.01"/>
<text text-anchor="middle" x="489.58" y="-146.44" font-family="Times,serif" font-size="10.00" fill="#767676">^6.4 || ^7.0</text>
</g>
<!-- symfony/console -->
<g id="node16" class="node">
<title>symfony/console</title>
<path fill="#eeeeee" stroke="black" d="M1168.58,-169.44C1168.58,-169.44 1004.58,-169.44 1004.58,-169.44 998.58,-169.44 992.58,-163.44 992.58,-157.44 992.58,-157.44 992.58,-145.44 992.58,-145.44 992.58,-139.44 998.58,-133.44 1004.58,-133.44 1004.58,-133.44 1168.58,-133.44 1168.58,-133.44 1174.58,-133.44 1180.58,-139.44 1180.58,-145.44 1180.58,-145.44 1180.58,-157.44 1180.58,-157.44 1180.58,-163.44 1174.58,-169.44 1168.58,-169.44"/>
<text text-anchor="middle" x="1086.58" y="-147.74" font-family="Times,serif" font-size="14.00" fill="#314b5f">symfony/console: v7.4.8</text>
</g>
<!-- bartlett/php&#45;compatinfo&#45;&gt;symfony/console -->
<g id="edge50" class="edge">
<title>bartlett/php&#45;compatinfo&#45;&gt;symfony/console</title>
<path fill="none" stroke="#1a2833" d="M137.93,-867.28C136.11,-787.33 137.91,-461.5 277.08,-252.44 300.24,-217.64 315.15,-213.67 354.08,-198.44 465.56,-154.83 808.23,-149.93 982.1,-150.4"/>
<polygon fill="#1a2833" stroke="#1a2833" points="982.27,-153.9 992.28,-150.44 982.29,-146.9 982.27,-153.9"/>
<text text-anchor="middle" x="489.58" y="-201.44" font-family="Times,serif" font-size="10.00" fill="#767676">^6.4 || ^7.0</text>
</g>
<!-- symfony/dependency&#45;injection -->
<g id="node17" class="node">
<title>symfony/dependency&#45;injection</title>
<path fill="#eeeeee" stroke="black" d="M1217.58,-223.44C1217.58,-223.44 955.58,-223.44 955.58,-223.44 949.58,-223.44 943.58,-217.44 943.58,-211.44 943.58,-211.44 943.58,-199.44 943.58,-199.44 943.58,-193.44 949.58,-187.44 955.58,-187.44 955.58,-187.44 1217.58,-187.44 1217.58,-187.44 1223.58,-187.44 1229.58,-193.44 1229.58,-199.44 1229.58,-199.44 1229.58,-211.44 1229.58,-211.44 1229.58,-217.44 1223.58,-223.44 1217.58,-223.44"/>
<text text-anchor="middle" x="1086.58" y="-201.74" font-family="Times,serif" font-size="14.00" fill="#314b5f">symfony/dependency&#45;injection: v7.4.8</text>
</g>
<!-- bartlett/php&#45;compatinfo&#45;&gt;symfony/dependency&#45;injection -->
<g id="edge53" class="edge">
<title>bartlett/php&#45;compatinfo&#45;&gt;symfony/dependency&#45;injection</title>
<path fill="none" stroke="#1a2833" d="M139.48,-867.13C143.93,-793.81 167.59,-516.08 277.08,-323.44 300.84,-281.63 310.63,-268.04 354.08,-247.44 470.8,-192.08 514.18,-224.94 643.08,-216.44 739.52,-210.08 848,-207.31 933.42,-206.15"/>
<polygon fill="#1a2833" stroke="#1a2833" points="933.5,-209.64 943.46,-206.01 933.41,-202.65 933.5,-209.64"/>
<text text-anchor="middle" x="489.58" y="-250.44" font-family="Times,serif" font-size="10.00" fill="#767676">^6.4 || ^7.0</text>
</g>
<!-- symfony/event&#45;dispatcher -->
<g id="node18" class="node">
<title>symfony/event&#45;dispatcher</title>
<path fill="#eeeeee" stroke="black" d="M1201.58,-277.44C1201.58,-277.44 971.58,-277.44 971.58,-277.44 965.58,-277.44 959.58,-271.44 959.58,-265.44 959.58,-265.44 959.58,-253.44 959.58,-253.44 959.58,-247.44 965.58,-241.44 971.58,-241.44 971.58,-241.44 1201.58,-241.44 1201.58,-241.44 1207.58,-241.44 1213.58,-247.44 1213.58,-253.44 1213.58,-253.44 1213.58,-265.44 1213.58,-265.44 1213.58,-271.44 1207.58,-277.44 1201.58,-277.44"/>
<text text-anchor="middle" x="1086.58" y="-255.74" font-family="Times,serif" font-size="14.00" fill="#314b5f">symfony/event&#45;dispatcher: v7.4.8</text>
</g>
<!-- bartlett/php&#45;compatinfo&#45;&gt;symfony/event&#45;dispatcher -->
<g id="edge51" class="edge">
<title>bartlett/php&#45;compatinfo&#45;&gt;symfony/event&#45;dispatcher</title>
<path fill="none" stroke="#1a2833" d="M139.11,-867.22C142.68,-786.67 168.54,-459.94 354.08,-310.44 455.15,-229 513.72,-279.11 643.08,-268.44 745.57,-259.98 861.85,-257.91 949.48,-257.85"/>
<polygon fill="#1a2833" stroke="#1a2833" points="949.48,-261.35 959.48,-257.86 949.48,-254.35 949.48,-261.35"/>
<text text-anchor="middle" x="489.58" y="-313.44" font-family="Times,serif" font-size="10.00" fill="#767676">^6.4 || ^7.0</text>
</g>
<!-- symfony/finder -->
<g id="node19" class="node">
<title>symfony/finder</title>
<path fill="#eeeeee" stroke="black" d="M1162.58,-331.44C1162.58,-331.44 1010.58,-331.44 1010.58,-331.44 1004.58,-331.44 998.58,-325.44 998.58,-319.44 998.58,-319.44 998.58,-307.44 998.58,-307.44 998.58,-301.44 1004.58,-295.44 1010.58,-295.44 1010.58,-295.44 1162.58,-295.44 1162.58,-295.44 1168.58,-295.44 1174.58,-301.44 1174.58,-307.44 1174.58,-307.44 1174.58,-319.44 1174.58,-319.44 1174.58,-325.44 1168.58,-331.44 1162.58,-331.44"/>
<text text-anchor="middle" x="1086.58" y="-309.74" font-family="Times,serif" font-size="14.00" fill="#314b5f">symfony/finder: v7.4.8</text>
</g>
<!-- bartlett/php&#45;compatinfo&#45;&gt;symfony/finder -->
<g id="edge52" class="edge">
<title>bartlett/php&#45;compatinfo&#45;&gt;symfony/finder</title>
<path fill="none" stroke="#1a2833" d="M146.41,-867.48C184.95,-782.25 363.37,-418.56 643.08,-317.44 674.49,-306.08 867.48,-308.31 987.99,-310.91"/>
<polygon fill="#1a2833" stroke="#1a2833" points="988.26,-314.41 998.34,-311.13 988.42,-307.42 988.26,-314.41"/>
<text text-anchor="middle" x="489.58" y="-535.44" font-family="Times,serif" font-size="10.00" fill="#767676">^6.4 || ^7.0</text>
</g>
<!-- symfony/stopwatch -->
<g id="node25" class="node">
<title>symfony/stopwatch</title>
<path fill="#eeeeee" stroke="black" d="M1178.58,-979.44C1178.58,-979.44 994.58,-979.44 994.58,-979.44 988.58,-979.44 982.58,-973.44 982.58,-967.44 982.58,-967.44 982.58,-955.44 982.58,-955.44 982.58,-949.44 988.58,-943.44 994.58,-943.44 994.58,-943.44 1178.58,-943.44 1178.58,-943.44 1184.58,-943.44 1190.58,-949.44 1190.58,-955.44 1190.58,-955.44 1190.58,-967.44 1190.58,-967.44 1190.58,-973.44 1184.58,-979.44 1178.58,-979.44"/>
<text text-anchor="middle" x="1086.58" y="-957.74" font-family="Times,serif" font-size="14.00" fill="#314b5f">symfony/stopwatch: v7.4.8</text>
</g>
<!-- bartlett/php&#45;compatinfo&#45;&gt;symfony/stopwatch -->
<g id="edge59" class="edge">
<title>bartlett/php&#45;compatinfo&#45;&gt;symfony/stopwatch</title>
<path fill="none" stroke="#1a2833" d="M212.54,-871.27C253.98,-864.05 306.71,-856.04 354.08,-852.44 474.18,-843.3 510.48,-815.38 625.08,-852.44 634.47,-855.48 633.74,-862.24 643.08,-865.44 672.52,-875.54 898.39,-856.47 923.08,-875.44 944.82,-892.14 920.64,-916.16 941.08,-934.44 950.31,-942.7 961.23,-948.79 972.88,-953.25"/>
<polygon fill="#1a2833" stroke="#1a2833" points="971.75,-956.57 982.35,-956.48 974.02,-949.94 971.75,-956.57"/>
<text text-anchor="middle" x="489.58" y="-855.44" font-family="Times,serif" font-size="10.00" fill="#767676">^6.4 || ^7.0</text>
</g>
<!-- bartlett/sarif&#45;php&#45;sdk -->
<g id="node26" class="node">
<title>bartlett/sarif&#45;php&#45;sdk</title>
<path fill="#eeeeee" stroke="black" d="M584.08,-997.44C584.08,-997.44 395.08,-997.44 395.08,-997.44 389.08,-997.44 383.08,-991.44 383.08,-985.44 383.08,-985.44 383.08,-973.44 383.08,-973.44 383.08,-967.44 389.08,-961.44 395.08,-961.44 395.08,-961.44 584.08,-961.44 584.08,-961.44 590.08,-961.44 596.08,-967.44 596.08,-973.44 596.08,-973.44 596.08,-985.44 596.08,-985.44 596.08,-991.44 590.08,-997.44 584.08,-997.44"/>
<text text-anchor="middle" x="489.58" y="-975.74" font-family="Times,serif" font-size="14.00" fill="#314b5f">bartlett/sarif&#45;php&#45;sdk: 2.3.0</text>
</g>
<!-- bartlett/php&#45;compatinfo&#45;&gt;bartlett/sarif&#45;php&#45;sdk -->
<g id="edge33" class="edge">
<title>bartlett/php&#45;compatinfo&#45;&gt;bartlett/sarif&#45;php&#45;sdk</title>
<path fill="none" stroke="#1a2833" d="M178.57,-902.45C205.93,-913.58 243.23,-927.8 277.08,-937.44 307.78,-946.19 341.49,-953.77 372.81,-959.99"/>
<polygon fill="#1a2833" stroke="#1a2833" points="372.4,-963.47 382.88,-961.96 373.74,-956.6 372.4,-963.47"/>
<text text-anchor="middle" x="306.58" y="-954.44" font-family="Times,serif" font-size="10.00" fill="#767676">^2.1</text>
</g>
<!-- doctrine/collections -->
<g id="node27" class="node">
<title>doctrine/collections</title>
<path fill="#eeeeee" stroke="black" d="M578.08,-1154.44C578.08,-1154.44 401.08,-1154.44 401.08,-1154.44 395.08,-1154.44 389.08,-1148.44 389.08,-1142.44 389.08,-1142.44 389.08,-1130.44 389.08,-1130.44 389.08,-1124.44 395.08,-1118.44 401.08,-1118.44 401.08,-1118.44 578.08,-1118.44 578.08,-1118.44 584.08,-1118.44 590.08,-1124.44 590.08,-1130.44 590.08,-1130.44 590.08,-1142.44 590.08,-1142.44 590.08,-1148.44 584.08,-1154.44 578.08,-1154.44"/>
<text text-anchor="middle" x="489.58" y="-1132.74" font-family="Times,serif" font-size="14.00" fill="#314b5f">doctrine/collections: 2.6.0</text>
</g>
<!-- bartlett/php&#45;compatinfo&#45;&gt;doctrine/collections -->
<g id="edge38" class="edge">
<title>bartlett/php&#45;compatinfo&#45;&gt;doctrine/collections</title>
<path fill="none" stroke="#1a2833" d="M147.53,-903.47C166.49,-939.68 214.05,-1021.58 277.08,-1066.44 309.11,-1089.24 349.06,-1104.97 385.58,-1115.65"/>
<polygon fill="#1a2833" stroke="#1a2833" points="384.71,-1119.04 395.28,-1118.4 386.61,-1112.31 384.71,-1119.04"/>
<text text-anchor="middle" x="306.58" y="-1100.44" font-family="Times,serif" font-size="10.00" fill="#767676">^2.1</text>
</g>
<!-- nikic/php&#45;parser -->
<g id="node29" class="node">
<title>nikic/php&#45;parser</title>
<path fill="#eeeeee" stroke="black" d="M570.58,-1307.44C570.58,-1307.44 408.58,-1307.44 408.58,-1307.44 402.58,-1307.44 396.58,-1301.44 396.58,-1295.44 396.58,-1295.44 396.58,-1283.44 396.58,-1283.44 396.58,-1277.44 402.58,-1271.44 408.58,-1271.44 408.58,-1271.44 570.58,-1271.44 570.58,-1271.44 576.58,-1271.44 582.58,-1277.44 582.58,-1283.44 582.58,-1283.44 582.58,-1295.44 582.58,-1295.44 582.58,-1301.44 576.58,-1307.44 570.58,-1307.44"/>
<text text-anchor="middle" x="489.58" y="-1285.74" font-family="Times,serif" font-size="14.00" fill="#314b5f">nikic/php&#45;parser: v5.7.0</text>
</g>
<!-- bartlett/php&#45;compatinfo&#45;&gt;nikic/php&#45;parser -->
<g id="edge43" class="edge">
<title>bartlett/php&#45;compatinfo&#45;&gt;nikic/php&#45;parser</title>
<path fill="none" stroke="#1a2833" d="M147.02,-903.53C166.41,-943.77 216.97,-1042.65 277.08,-1112.44 331.24,-1175.32 409.01,-1234.19 453.6,-1265.66"/>
<polygon fill="#1a2833" stroke="#1a2833" points="451.59,-1268.53 461.79,-1271.4 455.61,-1262.79 451.59,-1268.53"/>
<text text-anchor="middle" x="306.58" y="-1174.44" font-family="Times,serif" font-size="10.00" fill="#767676">^5.0</text>
</g>
<!-- ramsey/uuid -->
<g id="node32" class="node">
<title>ramsey/uuid</title>
<path fill="#eeeeee" stroke="black" d="M552.58,-1473.44C552.58,-1473.44 426.58,-1473.44 426.58,-1473.44 420.58,-1473.44 414.58,-1467.44 414.58,-1461.44 414.58,-1461.44 414.58,-1449.44 414.58,-1449.44 414.58,-1443.44 420.58,-1437.44 426.58,-1437.44 426.58,-1437.44 552.58,-1437.44 552.58,-1437.44 558.58,-1437.44 564.58,-1443.44 564.58,-1449.44 564.58,-1449.44 564.58,-1461.44 564.58,-1461.44 564.58,-1467.44 558.58,-1473.44 552.58,-1473.44"/>
<text text-anchor="middle" x="489.58" y="-1451.74" font-family="Times,serif" font-size="14.00" fill="#314b5f">ramsey/uuid: 4.9.2</text>
</g>
<!-- bartlett/php&#45;compatinfo&#45;&gt;ramsey/uuid -->
<g id="edge48" class="edge">
<title>bartlett/php&#45;compatinfo&#45;&gt;ramsey/uuid</title>
<path fill="none" stroke="#1a2833" d="M140.73,-903.58C151.26,-987.87 199.44,-1340.37 277.08,-1413.44 310.71,-1445.09 361.04,-1455.99 404.16,-1458.79"/>
<polygon fill="#1a2833" stroke="#1a2833" points="404.22,-1462.3 414.39,-1459.31 404.58,-1455.3 404.22,-1462.3"/>
<text text-anchor="middle" x="306.58" y="-1447.44" font-family="Times,serif" font-size="10.00" fill="#767676">^4.0</text>
</g>
<!-- symfony/serializer -->
<g id="node35" class="node">
<title>symfony/serializer</title>
<path fill="#eeeeee" stroke="black" d="M578.08,-1527.44C578.08,-1527.44 401.08,-1527.44 401.08,-1527.44 395.08,-1527.44 389.08,-1521.44 389.08,-1515.44 389.08,-1515.44 389.08,-1503.44 389.08,-1503.44 389.08,-1497.44 395.08,-1491.44 401.08,-1491.44 401.08,-1491.44 578.08,-1491.44 578.08,-1491.44 584.08,-1491.44 590.08,-1497.44 590.08,-1503.44 590.08,-1503.44 590.08,-1515.44 590.08,-1515.44 590.08,-1521.44 584.08,-1527.44 578.08,-1527.44"/>
<text text-anchor="middle" x="489.58" y="-1505.74" font-family="Times,serif" font-size="14.00" fill="#314b5f">symfony/serializer: v7.4.8</text>
</g>
<!-- bartlett/php&#45;compatinfo&#45;&gt;symfony/serializer -->
<g id="edge58" class="edge">
<title>bartlett/php&#45;compatinfo&#45;&gt;symfony/serializer</title>
<path fill="none" stroke="#1a2833" d="M140.48,-903.48C150.32,-991.54 197.3,-1375.28 277.08,-1459.44 303.41,-1487.22 342.08,-1500.83 379.18,-1507.14"/>
<polygon fill="#1a2833" stroke="#1a2833" points="378.66,-1510.61 389.07,-1508.67 379.72,-1503.69 378.66,-1510.61"/>
<text text-anchor="middle" x="306.58" y="-1498.44" font-family="Times,serif" font-size="10.00" fill="#767676">^6.4 || ^7.0</text>
</g>
<!-- bamarni/composer&#45;bin&#45;plugin -->
<g id="node38" class="node">
<title>bamarni/composer&#45;bin&#45;plugin</title>
<path fill="#eeeeee" stroke="black" d="M613.08,-1586.44C613.08,-1586.44 366.08,-1586.44 366.08,-1586.44 360.08,-1586.44 354.08,-1580.44 354.08,-1574.44 354.08,-1574.44 354.08,-1562.44 354.08,-1562.44 354.08,-1556.44 360.08,-1550.44 366.08,-1550.44 366.08,-1550.44 613.08,-1550.44 613.08,-1550.44 619.08,-1550.44 625.08,-1556.44 625.08,-1562.44 625.08,-1562.44 625.08,-1574.44 625.08,-1574.44 625.08,-1580.44 619.08,-1586.44 613.08,-1586.44"/>
<text text-anchor="middle" x="489.58" y="-1564.74" font-family="Times,serif" font-size="14.00" fill="#314b5f">bamarni/composer&#45;bin&#45;plugin: 1.9.1</text>
</g>
<!-- bartlett/php&#45;compatinfo&#45;&gt;bamarni/composer&#45;bin&#45;plugin -->
<g id="edge62" class="edge">
<title>bartlett/php&#45;compatinfo&#45;&gt;bamarni/composer&#45;bin&#45;plugin</title>
<path fill="none" stroke="#1a2833" stroke-dasharray="5,2" d="M140.17,-903.46C148.86,-995.91 192.62,-1416.37 277.08,-1510.44 294.9,-1530.28 318.8,-1543.61 344.13,-1552.5"/>
<polygon fill="#1a2833" stroke="#1a2833" points="343.3,-1555.91 353.89,-1555.7 345.47,-1549.26 343.3,-1555.91"/>
<text text-anchor="middle" x="306.58" y="-1551.44" font-family="Times,serif" font-size="10.00" fill="#767676">^1.8</text>
</g>
<!-- bartlett/php&#45;compatinfo&#45;db&#45;&gt;php -->
<g id="edge14" class="edge">
<title>bartlett/php&#45;compatinfo&#45;db&#45;&gt;php</title>
<path fill="none" stroke="#1a2833" d="M510.52,-609.61C541.67,-639.43 600.83,-702.22 625.08,-769.44 640.03,-810.87 612.4,-1133.84 643.08,-1165.44 686.55,-1210.21 878.41,-1142.87 923.08,-1186.44 951.85,-1214.51 913.89,-1336.83 941.08,-1366.44 968.1,-1395.87 1016.12,-1399.4 1049.34,-1397.7"/>
<polygon fill="#1a2833" stroke="#1a2833" points="1049.83,-1401.18 1059.56,-1397 1049.34,-1394.2 1049.83,-1401.18"/>
<text text-anchor="middle" x="783.08" y="-1189.44" font-family="Times,serif" font-size="10.00" fill="#767676">8.1 &#45; 8.5</text>
</g>
<!-- bartlett/php&#45;compatinfo&#45;db&#45;&gt;ext&#45;json -->
<g id="edge9" class="edge">
<title>bartlett/php&#45;compatinfo&#45;db&#45;&gt;ext&#45;json</title>
<path fill="none" stroke="#1a2833" d="M509.37,-609.72C539.19,-639.95 596.87,-703.57 625.08,-769.44 644.58,-814.98 607.15,-845.33 643.08,-879.44 733.88,-965.64 835.16,-821.3 923.08,-910.44 952.24,-940 913.04,-1065.81 941.08,-1096.44 965.57,-1123.19 1007.4,-1128.56 1039.77,-1128.05"/>
<polygon fill="#1a2833" stroke="#1a2833" points="1040.05,-1131.54 1049.92,-1127.69 1039.8,-1124.54 1040.05,-1131.54"/>
<text text-anchor="middle" x="783.08" y="-913.44" font-family="Times,serif" font-size="10.00" fill="#767676">*</text>
</g>
<!-- bartlett/php&#45;compatinfo&#45;db&#45;&gt;ext&#45;pcre -->
<g id="edge10" class="edge">
<title>bartlett/php&#45;compatinfo&#45;db&#45;&gt;ext&#45;pcre</title>
<path fill="none" stroke="#1a2833" d="M504.99,-609.55C530.12,-641.36 583.3,-709.56 625.08,-769.44 633.54,-781.57 630.39,-789.82 643.08,-797.44 696.6,-829.58 878.39,-776.84 923.08,-820.44 949.96,-846.66 915.58,-960.87 941.08,-988.44 965.47,-1014.81 1006.73,-1020.35 1038.93,-1019.98"/>
<polygon fill="#1a2833" stroke="#1a2833" points="1039.14,-1023.48 1049.03,-1019.68 1038.93,-1016.48 1039.14,-1023.48"/>
<text text-anchor="middle" x="783.08" y="-823.44" font-family="Times,serif" font-size="10.00" fill="#767676">*</text>
</g>
<!-- bartlett/php&#45;compatinfo&#45;db&#45;&gt;ext&#45;spl -->
<g id="edge13" class="edge">
<title>bartlett/php&#45;compatinfo&#45;db&#45;&gt;ext&#45;spl</title>
<path fill="none" stroke="#1a2833" d="M508,-609.64C536.42,-640.26 592.78,-705.04 625.08,-769.44 637.94,-795.09 621.31,-812.74 643.08,-831.44 738.29,-913.24 835.58,-778.43 923.08,-868.44 950.17,-896.31 914.74,-1013.85 941.08,-1042.44 966.67,-1070.21 1010.96,-1074.9 1043.78,-1073.91"/>
<polygon fill="#1a2833" stroke="#1a2833" points="1044.18,-1077.39 1053.99,-1073.41 1043.84,-1070.4 1044.18,-1077.39"/>
<text text-anchor="middle" x="783.08" y="-871.44" font-family="Times,serif" font-size="10.00" fill="#767676">*</text>
</g>
<!-- bartlett/php&#45;compatinfo&#45;db&#45;&gt;composer&#45;runtime&#45;api -->
<g id="edge5" class="edge">
<title>bartlett/php&#45;compatinfo&#45;db&#45;&gt;composer&#45;runtime&#45;api</title>
<path fill="none" stroke="#1a2833" d="M505.11,-609.85C529.82,-639.6 583.18,-697.41 643.08,-722.44 700.68,-746.51 877.83,-702.42 923.08,-745.44 966.95,-787.14 899.41,-836.54 941.08,-880.44 954.04,-894.09 971.52,-902.12 989.84,-906.63"/>
<polygon fill="#1a2833" stroke="#1a2833" points="989.28,-910.08 999.79,-908.73 990.73,-903.24 989.28,-910.08"/>
<text text-anchor="middle" x="783.08" y="-748.44" font-family="Times,serif" font-size="10.00" fill="#767676">^2.0</text>
</g>
<!-- composer/semver -->
<g id="node8" class="node">
<title>composer/semver</title>
<path fill="#eeeeee" stroke="black" d="M1168.58,-817.44C1168.58,-817.44 1004.58,-817.44 1004.58,-817.44 998.58,-817.44 992.58,-811.44 992.58,-805.44 992.58,-805.44 992.58,-793.44 992.58,-793.44 992.58,-787.44 998.58,-781.44 1004.58,-781.44 1004.58,-781.44 1168.58,-781.44 1168.58,-781.44 1174.58,-781.44 1180.58,-787.44 1180.58,-793.44 1180.58,-793.44 1180.58,-805.44 1180.58,-805.44 1180.58,-811.44 1174.58,-817.44 1168.58,-817.44"/>
<text text-anchor="middle" x="1086.58" y="-795.74" font-family="Times,serif" font-size="14.00" fill="#314b5f">composer/semver: 3.4.4</text>
</g>
<!-- bartlett/php&#45;compatinfo&#45;db&#45;&gt;composer/semver -->
<g id="edge6" class="edge">
<title>bartlett/php&#45;compatinfo&#45;db&#45;&gt;composer/semver</title>
<path fill="none" stroke="#1a2833" d="M525.58,-609.56C555.83,-624.33 601.17,-644.32 643.08,-654.44 703.77,-669.09 876.67,-635.68 923.08,-677.44 955.02,-706.18 910.65,-742.09 941.08,-772.44 952.53,-783.86 967.16,-791.28 982.69,-795.98"/>
<polygon fill="#1a2833" stroke="#1a2833" points="981.9,-799.39 992.46,-798.57 983.69,-792.62 981.9,-799.39"/>
<text text-anchor="middle" x="783.08" y="-680.44" font-family="Times,serif" font-size="10.00" fill="#767676">^3.0</text>
</g>
<!-- doctrine/dbal -->
<g id="node9" class="node">
<title>doctrine/dbal</title>
<path fill="#eeeeee" stroke="black" d="M1152.58,-871.44C1152.58,-871.44 1020.58,-871.44 1020.58,-871.44 1014.58,-871.44 1008.58,-865.44 1008.58,-859.44 1008.58,-859.44 1008.58,-847.44 1008.58,-847.44 1008.58,-841.44 1014.58,-835.44 1020.58,-835.44 1020.58,-835.44 1152.58,-835.44 1152.58,-835.44 1158.58,-835.44 1164.58,-841.44 1164.58,-847.44 1164.58,-847.44 1164.58,-859.44 1164.58,-859.44 1164.58,-865.44 1158.58,-871.44 1152.58,-871.44"/>
<text text-anchor="middle" x="1086.58" y="-849.74" font-family="Times,serif" font-size="14.00" fill="#314b5f">doctrine/dbal: 4.4.3</text>
</g>
<!-- bartlett/php&#45;compatinfo&#45;db&#45;&gt;doctrine/dbal -->
<g id="edge7" class="edge">
<title>bartlett/php&#45;compatinfo&#45;db&#45;&gt;doctrine/dbal</title>
<path fill="none" stroke="#1a2833" d="M511.57,-609.57C539.47,-632.48 591.33,-671.05 643.08,-688.44 702.26,-708.33 877.34,-668.94 923.08,-711.44 960.98,-746.66 905.04,-789.32 941.08,-826.44 956.12,-841.93 977,-850.13 998.22,-854.17"/>
<polygon fill="#1a2833" stroke="#1a2833" points="997.88,-857.66 1008.3,-855.79 998.98,-850.75 997.88,-857.66"/>
<text text-anchor="middle" x="783.08" y="-714.44" font-family="Times,serif" font-size="10.00" fill="#767676">^4.0</text>
</g>
<!-- doctrine/orm -->
<g id="node10" class="node">
<title>doctrine/orm</title>
<path fill="#eeeeee" stroke="black" d="M1151.58,-385.44C1151.58,-385.44 1021.58,-385.44 1021.58,-385.44 1015.58,-385.44 1009.58,-379.44 1009.58,-373.44 1009.58,-373.44 1009.58,-361.44 1009.58,-361.44 1009.58,-355.44 1015.58,-349.44 1021.58,-349.44 1021.58,-349.44 1151.58,-349.44 1151.58,-349.44 1157.58,-349.44 1163.58,-355.44 1163.58,-361.44 1163.58,-361.44 1163.58,-373.44 1163.58,-373.44 1163.58,-379.44 1157.58,-385.44 1151.58,-385.44"/>
<text text-anchor="middle" x="1086.58" y="-363.74" font-family="Times,serif" font-size="14.00" fill="#314b5f">doctrine/orm: 3.6.3</text>
</g>
<!-- bartlett/php&#45;compatinfo&#45;db&#45;&gt;doctrine/orm -->
<g id="edge8" class="edge">
<title>bartlett/php&#45;compatinfo&#45;db&#45;&gt;doctrine/orm</title>
<path fill="none" stroke="#1a2833" d="M499.28,-573.15C518.79,-534.47 570.11,-444.75 643.08,-406.44 698.37,-377.41 860.87,-387.98 923.08,-382.44 947.88,-380.23 974.81,-377.77 999.48,-375.49"/>
<polygon fill="#1a2833" stroke="#1a2833" points="999.9,-378.97 1009.53,-374.56 999.25,-372 999.9,-378.97"/>
<text text-anchor="middle" x="783.08" y="-409.44" font-family="Times,serif" font-size="10.00" fill="#767676">^3.5</text>
</g>
<!-- ext&#45;pdo -->
<g id="node11" class="node">
<title>ext&#45;pdo</title>
<path fill="#eeeeee" stroke="black" d="M1109.58,-439.44C1109.58,-439.44 1063.58,-439.44 1063.58,-439.44 1057.58,-439.44 1051.58,-433.44 1051.58,-427.44 1051.58,-427.44 1051.58,-415.44 1051.58,-415.44 1051.58,-409.44 1057.58,-403.44 1063.58,-403.44 1063.58,-403.44 1109.58,-403.44 1109.58,-403.44 1115.58,-403.44 1121.58,-409.44 1121.58,-415.44 1121.58,-415.44 1121.58,-427.44 1121.58,-427.44 1121.58,-433.44 1115.58,-439.44 1109.58,-439.44"/>
<text text-anchor="middle" x="1086.58" y="-417.74" font-family="Times,serif" font-size="14.00" fill="#314b5f">ext&#45;pdo</text>
</g>
<!-- bartlett/php&#45;compatinfo&#45;db&#45;&gt;ext&#45;pdo -->
<g id="edge11" class="edge">
<title>bartlett/php&#45;compatinfo&#45;db&#45;&gt;ext&#45;pdo</title>
<path fill="none" stroke="#1a2833" d="M501.66,-573.35C523.67,-539.32 576.57,-466.6 643.08,-437.44 678.81,-421.77 936.19,-420.89 1041.17,-421.2"/>
<polygon fill="#1a2833" stroke="#1a2833" points="1041.42,-424.7 1051.43,-421.23 1041.44,-417.7 1041.42,-424.7"/>
<text text-anchor="middle" x="783.08" y="-440.44" font-family="Times,serif" font-size="10.00" fill="#767676">*</text>
</g>
<!-- ext&#45;phar -->
<g id="node12" class="node">
<title>ext&#45;phar</title>
<path fill="#eeeeee" stroke="black" d="M1113.08,-493.44C1113.08,-493.44 1060.08,-493.44 1060.08,-493.44 1054.08,-493.44 1048.08,-487.44 1048.08,-481.44 1048.08,-481.44 1048.08,-469.44 1048.08,-469.44 1048.08,-463.44 1054.08,-457.44 1060.08,-457.44 1060.08,-457.44 1113.08,-457.44 1113.08,-457.44 1119.08,-457.44 1125.08,-463.44 1125.08,-469.44 1125.08,-469.44 1125.08,-481.44 1125.08,-481.44 1125.08,-487.44 1119.08,-493.44 1113.08,-493.44"/>
<text text-anchor="middle" x="1086.58" y="-471.74" font-family="Times,serif" font-size="14.00" fill="#314b5f">ext&#45;phar</text>
</g>
<!-- bartlett/php&#45;compatinfo&#45;db&#45;&gt;ext&#45;phar -->
<g id="edge12" class="edge">
<title>bartlett/php&#45;compatinfo&#45;db&#45;&gt;ext&#45;phar</title>
<path fill="none" stroke="#1a2833" d="M508.21,-573.17C534.65,-547.21 587.44,-500.77 643.08,-482.44 780.42,-437.2 954.98,-454.69 1037.81,-467.13"/>
<polygon fill="#1a2833" stroke="#1a2833" points="1037.5,-470.63 1047.92,-468.7 1038.57,-463.71 1037.5,-470.63"/>
<text text-anchor="middle" x="783.08" y="-485.44" font-family="Times,serif" font-size="10.00" fill="#767676">*</text>
</g>
<!-- bartlett/php&#45;compatinfo&#45;db&#45;&gt;psr/log -->
<g id="edge15" class="edge">
<title>bartlett/php&#45;compatinfo&#45;db&#45;&gt;psr/log</title>
<path fill="none" stroke="#1a2833" d="M502.98,-573.26C530.51,-531.82 596.56,-426.28 625.08,-327.44 637.33,-284.99 613.52,-162.27 643.08,-129.44 668.18,-101.56 903.85,-67.21 1020.63,-51.71"/>
<polygon fill="#1a2833" stroke="#1a2833" points="1021.41,-55.14 1030.87,-50.36 1020.5,-48.2 1021.41,-55.14"/>
<text text-anchor="middle" x="783.08" y="-132.44" font-family="Times,serif" font-size="10.00" fill="#767676">^3.0</text>
</g>
<!-- symfony/cache -->
<g id="node14" class="node">
<title>symfony/cache</title>
<path fill="#eeeeee" stroke="black" d="M1162.08,-547.44C1162.08,-547.44 1011.08,-547.44 1011.08,-547.44 1005.08,-547.44 999.08,-541.44 999.08,-535.44 999.08,-535.44 999.08,-523.44 999.08,-523.44 999.08,-517.44 1005.08,-511.44 1011.08,-511.44 1011.08,-511.44 1162.08,-511.44 1162.08,-511.44 1168.08,-511.44 1174.08,-517.44 1174.08,-523.44 1174.08,-523.44 1174.08,-535.44 1174.08,-535.44 1174.08,-541.44 1168.08,-547.44 1162.08,-547.44"/>
<text text-anchor="middle" x="1086.58" y="-525.74" font-family="Times,serif" font-size="14.00" fill="#314b5f">symfony/cache: v7.4.8</text>
</g>
<!-- bartlett/php&#45;compatinfo&#45;db&#45;&gt;symfony/cache -->
<g id="edge16" class="edge">
<title>bartlett/php&#45;compatinfo&#45;db&#45;&gt;symfony/cache</title>
<path fill="none" stroke="#1a2833" d="M516.91,-573.29C546.18,-554.31 595.62,-525.74 643.08,-514.44 759.66,-486.68 898.36,-498.29 989,-511.62"/>
<polygon fill="#1a2833" stroke="#1a2833" points="988.58,-515.1 998.99,-513.12 989.62,-508.17 988.58,-515.1"/>
<text text-anchor="middle" x="783.08" y="-517.44" font-family="Times,serif" font-size="10.00" fill="#767676">^6.4 || ^7.4 || ^8.0</text>
</g>
<!-- bartlett/php&#45;compatinfo&#45;db&#45;&gt;symfony/config -->
<g id="edge17" class="edge">
<title>bartlett/php&#45;compatinfo&#45;db&#45;&gt;symfony/config</title>
<path fill="none" stroke="#1a2833" d="M502.72,-573.18C529.72,-531.58 594.77,-425.75 625.08,-327.44 634.39,-297.25 620.99,-209.02 643.08,-186.44 731.08,-96.49 812.25,-204.04 923.08,-144.44 933.61,-138.78 930.65,-130.29 941.08,-124.44 955.36,-116.42 971.57,-110.73 987.83,-106.7"/>
<polygon fill="#1a2833" stroke="#1a2833" points="988.97,-110.03 997.95,-104.4 987.42,-103.2 988.97,-110.03"/>
<text text-anchor="middle" x="783.08" y="-189.44" font-family="Times,serif" font-size="10.00" fill="#767676">^6.4 || ^7.4 || ^8.0</text>
</g>
<!-- bartlett/php&#45;compatinfo&#45;db&#45;&gt;symfony/console -->
<g id="edge18" class="edge">
<title>bartlett/php&#45;compatinfo&#45;db&#45;&gt;symfony/console</title>
<path fill="none" stroke="#1a2833" d="M501.97,-573.31C527.71,-531.56 590.8,-424.71 625.08,-327.44 638.06,-290.61 614.59,-268.15 643.08,-241.44 734.78,-155.46 814.26,-264.37 923.08,-201.44 934.32,-194.94 929.98,-185.18 941.08,-178.44 953.66,-170.8 967.91,-165.23 982.44,-161.19"/>
<polygon fill="#1a2833" stroke="#1a2833" points="983.69,-164.48 992.52,-158.63 981.97,-157.7 983.69,-164.48"/>
<text text-anchor="middle" x="783.08" y="-244.44" font-family="Times,serif" font-size="10.00" fill="#767676">^6.4 || ^7.4 || ^8.0</text>
</g>
<!-- bartlett/php&#45;compatinfo&#45;db&#45;&gt;symfony/dependency&#45;injection -->
<g id="edge19" class="edge">
<title>bartlett/php&#45;compatinfo&#45;db&#45;&gt;symfony/dependency&#45;injection</title>
<path fill="none" stroke="#1a2833" d="M499.92,-573.22C521.86,-530.4 578.38,-419.97 625.08,-327.44 633.14,-311.47 628.48,-301.77 643.08,-291.44 745.46,-219 814.61,-319.39 923.08,-256.44 934.61,-249.75 929.75,-239.48 941.08,-232.44 943.7,-230.81 946.4,-229.27 949.17,-227.82"/>
<polygon fill="#1a2833" stroke="#1a2833" points="950.68,-230.98 958.18,-223.49 947.65,-224.67 950.68,-230.98"/>
<text text-anchor="middle" x="783.08" y="-294.44" font-family="Times,serif" font-size="10.00" fill="#767676">^6.4 || ^7.4 || ^8.0</text>
</g>
<!-- bartlett/php&#45;compatinfo&#45;db&#45;&gt;symfony/event&#45;dispatcher -->
<g id="edge20" class="edge">
<title>bartlett/php&#45;compatinfo&#45;db&#45;&gt;symfony/event&#45;dispatcher</title>
<path fill="none" stroke="#1a2833" d="M495.28,-573.23C508.82,-524.88 552.83,-393.08 643.08,-335.44 748.52,-268.1 811.57,-363.17 923.08,-306.44 933.74,-301.02 930.65,-292.29 941.08,-286.44 944.18,-284.7 947.37,-283.07 950.63,-281.54"/>
<polygon fill="#1a2833" stroke="#1a2833" points="952.19,-284.68 959.99,-277.51 949.42,-278.25 952.19,-284.68"/>
<text text-anchor="middle" x="783.08" y="-338.44" font-family="Times,serif" font-size="10.00" fill="#767676">^6.4 || ^7.4 || ^8.0</text>
</g>
<!-- bartlett/php&#45;compatinfo&#45;db&#45;&gt;symfony/finder -->
<g id="edge21" class="edge">
<title>bartlett/php&#45;compatinfo&#45;db&#45;&gt;symfony/finder</title>
<path fill="none" stroke="#1a2833" d="M496.78,-573.24C512.88,-529.18 560.59,-416.87 643.08,-369.44 697.17,-338.33 862.57,-363.67 923.08,-348.44 931.57,-346.3 932.72,-343.04 941.08,-340.44 956.21,-335.73 972.51,-331.72 988.52,-328.34"/>
<polygon fill="#1a2833" stroke="#1a2833" points="989.33,-331.75 998.43,-326.32 987.93,-324.89 989.33,-331.75"/>
<text text-anchor="middle" x="783.08" y="-372.44" font-family="Times,serif" font-size="10.00" fill="#767676">^6.4 || ^7.4 || ^8.0</text>
</g>
<!-- symfony/http&#45;client -->
<g id="node20" class="node">
<title>symfony/http&#45;client</title>
<path fill="#eeeeee" stroke="black" d="M1179.08,-601.44C1179.08,-601.44 994.08,-601.44 994.08,-601.44 988.08,-601.44 982.08,-595.44 982.08,-589.44 982.08,-589.44 982.08,-577.44 982.08,-577.44 982.08,-571.44 988.08,-565.44 994.08,-565.44 994.08,-565.44 1179.08,-565.44 1179.08,-565.44 1185.08,-565.44 1191.08,-571.44 1191.08,-577.44 1191.08,-577.44 1191.08,-589.44 1191.08,-589.44 1191.08,-595.44 1185.08,-601.44 1179.08,-601.44"/>
<text text-anchor="middle" x="1086.58" y="-579.74" font-family="Times,serif" font-size="14.00" fill="#314b5f">symfony/http&#45;client: v7.4.8</text>
</g>
<!-- bartlett/php&#45;compatinfo&#45;db&#45;&gt;symfony/http&#45;client -->
<g id="edge22" class="edge">
<title>bartlett/php&#45;compatinfo&#45;db&#45;&gt;symfony/http&#45;client</title>
<path fill="none" stroke="#1a2833" d="M533.38,-573.36C563.46,-561.66 604.97,-547.53 643.08,-541.44 704.52,-531.62 864.57,-520.26 923.08,-541.44 932.87,-544.98 931.66,-552.01 941.08,-556.44 950.8,-561.01 961.24,-564.81 971.89,-567.97"/>
<polygon fill="#1a2833" stroke="#1a2833" points="971.14,-571.4 981.71,-570.69 973.01,-564.65 971.14,-571.4"/>
<text text-anchor="middle" x="783.08" y="-544.44" font-family="Times,serif" font-size="10.00" fill="#767676">^6.4 || ^7.4 || ^8.0</text>
</g>
<!-- symfony/messenger -->
<g id="node21" class="node">
<title>symfony/messenger</title>
<path fill="#eeeeee" stroke="black" d="M1180.58,-655.44C1180.58,-655.44 992.58,-655.44 992.58,-655.44 986.58,-655.44 980.58,-649.44 980.58,-643.44 980.58,-643.44 980.58,-631.44 980.58,-631.44 980.58,-625.44 986.58,-619.44 992.58,-619.44 992.58,-619.44 1180.58,-619.44 1180.58,-619.44 1186.58,-619.44 1192.58,-625.44 1192.58,-631.44 1192.58,-631.44 1192.58,-643.44 1192.58,-643.44 1192.58,-649.44 1186.58,-655.44 1180.58,-655.44"/>
<text text-anchor="middle" x="1086.58" y="-633.74" font-family="Times,serif" font-size="14.00" fill="#314b5f">symfony/messenger: v7.4.8</text>
</g>
<!-- bartlett/php&#45;compatinfo&#45;db&#45;&gt;symfony/messenger -->
<g id="edge23" class="edge">
<title>bartlett/php&#45;compatinfo&#45;db&#45;&gt;symfony/messenger</title>
<path fill="none" stroke="#1a2833" d="M621.12,-576.84C628.54,-576.29 635.9,-575.81 643.08,-575.44 705.22,-572.19 869.96,-543.03 923.08,-575.44 938.01,-584.55 927.05,-599.99 941.08,-610.44 950.1,-617.16 960.3,-622.37 971.01,-626.38"/>
<polygon fill="#1a2833" stroke="#1a2833" points="969.93,-629.71 980.53,-629.61 972.18,-623.09 969.93,-629.71"/>
<text text-anchor="middle" x="783.08" y="-578.44" font-family="Times,serif" font-size="10.00" fill="#767676">^6.4 || ^7.4 || ^8.0</text>
</g>
<!-- symfony/polyfill&#45;php84 -->
<g id="node22" class="node">
<title>symfony/polyfill&#45;php84</title>
<path fill="#eeeeee" stroke="black" d="M1195.08,-1249.44C1195.08,-1249.44 978.08,-1249.44 978.08,-1249.44 972.08,-1249.44 966.08,-1243.44 966.08,-1237.44 966.08,-1237.44 966.08,-1225.44 966.08,-1225.44 966.08,-1219.44 972.08,-1213.44 978.08,-1213.44 978.08,-1213.44 1195.08,-1213.44 1195.08,-1213.44 1201.08,-1213.44 1207.08,-1219.44 1207.08,-1225.44 1207.08,-1225.44 1207.08,-1237.44 1207.08,-1237.44 1207.08,-1243.44 1201.08,-1249.44 1195.08,-1249.44"/>
<text text-anchor="middle" x="1086.58" y="-1227.74" font-family="Times,serif" font-size="14.00" fill="#314b5f">symfony/polyfill&#45;php84: v1.36.0</text>
</g>
<!-- bartlett/php&#45;compatinfo&#45;db&#45;&gt;symfony/polyfill&#45;php84 -->
<g id="edge24" class="edge">
<title>bartlett/php&#45;compatinfo&#45;db&#45;&gt;symfony/polyfill&#45;php84</title>
<path fill="none" stroke="#1a2833" d="M510.57,-609.93C541.51,-639.95 600.04,-702.72 625.08,-769.44 644.88,-822.21 604.16,-981.67 643.08,-1022.44 729.61,-1113.07 834.35,-966.96 923.08,-1055.44 970.31,-1102.54 895.46,-1155.78 941.08,-1204.44 945.83,-1209.51 951.2,-1213.8 957.01,-1217.43"/>
<polygon fill="#1a2833" stroke="#1a2833" points="955.37,-1220.52 965.81,-1222.28 958.75,-1214.39 955.37,-1220.52"/>
<text text-anchor="middle" x="783.08" y="-1058.44" font-family="Times,serif" font-size="10.00" fill="#767676">^1.0</text>
</g>
<!-- symfony/process -->
<g id="node23" class="node">
<title>symfony/process</title>
<path fill="#eeeeee" stroke="black" d="M1169.08,-709.44C1169.08,-709.44 1004.08,-709.44 1004.08,-709.44 998.08,-709.44 992.08,-703.44 992.08,-697.44 992.08,-697.44 992.08,-685.44 992.08,-685.44 992.08,-679.44 998.08,-673.44 1004.08,-673.44 1004.08,-673.44 1169.08,-673.44 1169.08,-673.44 1175.08,-673.44 1181.08,-679.44 1181.08,-685.44 1181.08,-685.44 1181.08,-697.44 1181.08,-697.44 1181.08,-703.44 1175.08,-709.44 1169.08,-709.44"/>
<text text-anchor="middle" x="1086.58" y="-687.74" font-family="Times,serif" font-size="14.00" fill="#314b5f">symfony/process: v7.4.8</text>
</g>
<!-- bartlett/php&#45;compatinfo&#45;db&#45;&gt;symfony/process -->
<g id="edge25" class="edge">
<title>bartlett/php&#45;compatinfo&#45;db&#45;&gt;symfony/process</title>
<path fill="none" stroke="#1a2833" d="M621.23,-589.46C739.71,-588.86 899.37,-591.49 923.08,-609.44 943.58,-624.96 921.74,-647.49 941.08,-664.44 952.73,-674.65 966.98,-681.54 981.94,-686.1"/>
<polygon fill="#1a2833" stroke="#1a2833" points="981.29,-689.55 991.86,-688.78 983.11,-682.79 981.29,-689.55"/>
<text text-anchor="middle" x="783.08" y="-612.44" font-family="Times,serif" font-size="10.00" fill="#767676">^6.4 || ^7.4 || ^8.0</text>
</g>
<!-- symfony/requirements&#45;checker -->
<g id="node24" class="node">
<title>symfony/requirements&#45;checker</title>
<path fill="#eeeeee" stroke="black" d="M1220.08,-763.44C1220.08,-763.44 953.08,-763.44 953.08,-763.44 947.08,-763.44 941.08,-757.44 941.08,-751.44 941.08,-751.44 941.08,-739.44 941.08,-739.44 941.08,-733.44 947.08,-727.44 953.08,-727.44 953.08,-727.44 1220.08,-727.44 1220.08,-727.44 1226.08,-727.44 1232.08,-733.44 1232.08,-739.44 1232.08,-739.44 1232.08,-751.44 1232.08,-751.44 1232.08,-757.44 1226.08,-763.44 1220.08,-763.44"/>
<text text-anchor="middle" x="1086.58" y="-741.74" font-family="Times,serif" font-size="14.00" fill="#314b5f">symfony/requirements&#45;checker: v2.0.3</text>
</g>
<!-- bartlett/php&#45;compatinfo&#45;db&#45;&gt;symfony/requirements&#45;checker -->
<g id="edge26" class="edge">
<title>bartlett/php&#45;compatinfo&#45;db&#45;&gt;symfony/requirements&#45;checker</title>
<path fill="none" stroke="#1a2833" d="M576.61,-609.45C598.24,-613.52 621.45,-617.5 643.08,-620.44 674.01,-624.64 899.38,-623.12 923.08,-643.44 949.11,-665.75 916.23,-694.82 941.08,-718.44 942.04,-719.35 943.02,-720.24 944.03,-721.11"/>
<polygon fill="#1a2833" stroke="#1a2833" points="942,-723.96 952.07,-727.24 946.24,-718.39 942,-723.96"/>
<text text-anchor="middle" x="783.08" y="-646.44" font-family="Times,serif" font-size="10.00" fill="#767676">^2.0</text>
</g>
<!-- bartlett/php&#45;compatinfo&#45;db&#45;&gt;symfony/stopwatch -->
<g id="edge27" class="edge">
<title>bartlett/php&#45;compatinfo&#45;db&#45;&gt;symfony/stopwatch</title>
<path fill="none" stroke="#1a2833" d="M501.02,-609.53C522.48,-644.82 575.29,-722.37 643.08,-756.44 698.99,-784.54 878.51,-742.51 923.08,-786.44 970.27,-832.96 895.74,-886.12 941.08,-934.44 949.9,-943.84 960.86,-950.58 972.78,-955.35"/>
<polygon fill="#1a2833" stroke="#1a2833" points="971.92,-958.75 982.52,-958.76 974.24,-952.15 971.92,-958.75"/>
<text text-anchor="middle" x="783.08" y="-789.44" font-family="Times,serif" font-size="10.00" fill="#767676">^6.4 || ^7.4 || ^8.0</text>
</g>
<!-- bartlett/sarif&#45;php&#45;sdk&#45;&gt;php -->
<g id="edge32" class="edge">
<title>bartlett/sarif&#45;php&#45;sdk&#45;&gt;php</title>
<path fill="none" stroke="#1a2833" d="M566.24,-997.52C588.52,-1006.52 610.74,-1019.84 625.08,-1039.44 646.2,-1068.32 617.31,-1174.61 643.08,-1199.44 688.01,-1242.73 877.92,-1177.39 923.08,-1220.44 970.4,-1265.55 896.3,-1318.8 941.08,-1366.44 968.36,-1395.47 1016.1,-1399.14 1049.21,-1397.58"/>
<polygon fill="#1a2833" stroke="#1a2833" points="1049.64,-1401.05 1059.39,-1396.91 1049.19,-1394.07 1049.64,-1401.05"/>
<text text-anchor="middle" x="783.08" y="-1223.44" font-family="Times,serif" font-size="10.00" fill="#767676">^7.4 || ^8.0</text>
</g>
<!-- bartlett/sarif&#45;php&#45;sdk&#45;&gt;ext&#45;json -->
<g id="edge29" class="edge">
<title>bartlett/sarif&#45;php&#45;sdk&#45;&gt;ext&#45;json</title>
<path fill="none" stroke="#1a2833" d="M596.1,-985.69C722.15,-993.39 916.96,-1006.09 923.08,-1011.44 952.16,-1036.84 913.45,-1069.46 941.08,-1096.44 966.75,-1121.51 1007.82,-1127.18 1039.62,-1127.21"/>
<polygon fill="#1a2833" stroke="#1a2833" points="1040.08,-1130.7 1050.01,-1127.02 1039.95,-1123.7 1040.08,-1130.7"/>
<text text-anchor="middle" x="783.08" y="-1014.44" font-family="Times,serif" font-size="10.00" fill="#767676">*</text>
</g>
<!-- bartlett/sarif&#45;php&#45;sdk&#45;&gt;ext&#45;pcre -->
<g id="edge30" class="edge">
<title>bartlett/sarif&#45;php&#45;sdk&#45;&gt;ext&#45;pcre</title>
<path fill="none" stroke="#1a2833" d="M566.09,-961.42C603.39,-952.55 640.93,-943.69 643.08,-943.44 704.88,-936.24 871.55,-908.56 923.08,-943.44 940.92,-955.52 924.43,-974.77 941.08,-988.44 968.19,-1010.7 1007.85,-1016.84 1038.76,-1017.75"/>
<polygon fill="#1a2833" stroke="#1a2833" points="1038.84,-1021.25 1048.88,-1017.88 1038.93,-1014.26 1038.84,-1021.25"/>
<text text-anchor="middle" x="783.08" y="-946.44" font-family="Times,serif" font-size="10.00" fill="#767676">*</text>
</g>
<!-- bartlett/sarif&#45;php&#45;sdk&#45;&gt;ext&#45;spl -->
<g id="edge31" class="edge">
<title>bartlett/sarif&#45;php&#45;sdk&#45;&gt;ext&#45;spl</title>
<path fill="none" stroke="#1a2833" d="M596.41,-977.87C612.05,-977.69 627.99,-977.54 643.08,-977.44 705.3,-977.03 873.56,-939.77 923.08,-977.44 946.94,-995.59 919,-1022.17 941.08,-1042.44 968.53,-1067.64 1011.66,-1072.88 1043.67,-1072.73"/>
<polygon fill="#1a2833" stroke="#1a2833" points="1044.14,-1076.22 1054.06,-1072.49 1043.98,-1069.22 1044.14,-1076.22"/>
<text text-anchor="middle" x="783.08" y="-980.44" font-family="Times,serif" font-size="10.00" fill="#767676">*</text>
</g>
<!-- doctrine/collections&#45;&gt;php -->
<g id="edge36" class="edge">
<title>doctrine/collections&#45;&gt;php</title>
<path fill="none" stroke="#1a2833" d="M512.2,-1154.54C540.38,-1177.05 592.1,-1214.79 643.08,-1233.44 702.05,-1255.01 877.53,-1228.22 923.08,-1271.44 954.25,-1301.02 910.65,-1336.09 941.08,-1366.44 969.2,-1394.49 1016.55,-1398.41 1049.34,-1397.18"/>
<polygon fill="#1a2833" stroke="#1a2833" points="1049.64,-1400.67 1059.44,-1396.62 1049.26,-1393.68 1049.64,-1400.67"/>
<text text-anchor="middle" x="783.08" y="-1274.44" font-family="Times,serif" font-size="10.00" fill="#767676">^8.1</text>
</g>
<!-- doctrine/collections&#45;&gt;symfony/polyfill&#45;php84 -->
<g id="edge37" class="edge">
<title>doctrine/collections&#45;&gt;symfony/polyfill&#45;php84</title>
<path fill="none" stroke="#1a2833" d="M590.26,-1134.81C709.66,-1133.75 896.96,-1135.26 923.08,-1154.44 942.12,-1168.42 923.09,-1189.13 941.08,-1204.44 945.93,-1208.56 951.2,-1212.14 956.77,-1215.24"/>
<polygon fill="#1a2833" stroke="#1a2833" points="955.24,-1218.39 965.75,-1219.72 958.37,-1212.12 955.24,-1218.39"/>
<text text-anchor="middle" x="783.08" y="-1157.44" font-family="Times,serif" font-size="10.00" fill="#767676">^1.30</text>
</g>
<!-- doctrine/deprecations -->
<g id="node28" class="node">
<title>doctrine/deprecations</title>
<path fill="#eeeeee" stroke="black" d="M1183.58,-1195.44C1183.58,-1195.44 989.58,-1195.44 989.58,-1195.44 983.58,-1195.44 977.58,-1189.44 977.58,-1183.44 977.58,-1183.44 977.58,-1171.44 977.58,-1171.44 977.58,-1165.44 983.58,-1159.44 989.58,-1159.44 989.58,-1159.44 1183.58,-1159.44 1183.58,-1159.44 1189.58,-1159.44 1195.58,-1165.44 1195.58,-1171.44 1195.58,-1171.44 1195.58,-1183.44 1195.58,-1183.44 1195.58,-1189.44 1189.58,-1195.44 1183.58,-1195.44"/>
<text text-anchor="middle" x="1086.58" y="-1173.74" font-family="Times,serif" font-size="14.00" fill="#314b5f">doctrine/deprecations: 1.1.6</text>
</g>
<!-- doctrine/collections&#45;&gt;doctrine/deprecations -->
<g id="edge35" class="edge">
<title>doctrine/collections&#45;&gt;doctrine/deprecations</title>
<path fill="none" stroke="#1a2833" d="M590.13,-1124.48C607.74,-1122.8 625.93,-1121.34 643.08,-1120.44 705.22,-1117.19 868.93,-1089.78 923.08,-1120.44 936.61,-1128.1 928.31,-1141.56 941.08,-1150.44 949.25,-1156.12 958.29,-1160.7 967.73,-1164.38"/>
<polygon fill="#1a2833" stroke="#1a2833" points="966.71,-1167.72 977.3,-1167.76 969.04,-1161.13 966.71,-1167.72"/>
<text text-anchor="middle" x="783.08" y="-1123.44" font-family="Times,serif" font-size="10.00" fill="#767676">^1</text>
</g>
<!-- nikic/php&#45;parser&#45;&gt;php -->
<g id="edge42" class="edge">
<title>nikic/php&#45;parser&#45;&gt;php</title>
<path fill="none" stroke="#1a2833" d="M540.75,-1307.49C570.18,-1317.34 608.3,-1328.84 643.08,-1335.44 765.75,-1358.71 802.1,-1327.54 923.08,-1358.44 931.56,-1360.61 932.72,-1363.84 941.08,-1366.44 977.11,-1377.64 1019.72,-1384.91 1049.29,-1389.05"/>
<polygon fill="#1a2833" stroke="#1a2833" points="1049.18,-1392.57 1059.56,-1390.44 1050.12,-1385.63 1049.18,-1392.57"/>
<text text-anchor="middle" x="783.08" y="-1361.44" font-family="Times,serif" font-size="10.00" fill="#767676">&gt;=7.4</text>
</g>
<!-- nikic/php&#45;parser&#45;&gt;ext&#45;json -->
<g id="edge40" class="edge">
<title>nikic/php&#45;parser&#45;&gt;ext&#45;json</title>
<path fill="none" stroke="#1a2833" d="M517.98,-1271.26C548.77,-1249.35 597.99,-1209.68 625.08,-1163.44 641.97,-1134.61 616.77,-1111.05 643.08,-1090.44 692.06,-1052.07 861.66,-1080.47 923.08,-1090.44 931.4,-1091.79 932.91,-1094.33 941.08,-1096.44 973.76,-1104.9 1011.24,-1111.82 1039.84,-1116.54"/>
<polygon fill="#1a2833" stroke="#1a2833" points="1039.52,-1120.03 1049.95,-1118.18 1040.63,-1113.12 1039.52,-1120.03"/>
<text text-anchor="middle" x="783.08" y="-1093.44" font-family="Times,serif" font-size="10.00" fill="#767676">*</text>
</g>
<!-- ext&#45;ctype -->
<g id="node30" class="node">
<title>ext&#45;ctype</title>
<path fill="#eeeeee" stroke="black" d="M1116.08,-1357.44C1116.08,-1357.44 1057.08,-1357.44 1057.08,-1357.44 1051.08,-1357.44 1045.08,-1351.44 1045.08,-1345.44 1045.08,-1345.44 1045.08,-1333.44 1045.08,-1333.44 1045.08,-1327.44 1051.08,-1321.44 1057.08,-1321.44 1057.08,-1321.44 1116.08,-1321.44 1116.08,-1321.44 1122.08,-1321.44 1128.08,-1327.44 1128.08,-1333.44 1128.08,-1333.44 1128.08,-1345.44 1128.08,-1345.44 1128.08,-1351.44 1122.08,-1357.44 1116.08,-1357.44"/>
<text text-anchor="middle" x="1086.58" y="-1335.74" font-family="Times,serif" font-size="14.00" fill="#314b5f">ext&#45;ctype</text>
</g>
<!-- nikic/php&#45;parser&#45;&gt;ext&#45;ctype -->
<g id="edge39" class="edge">
<title>nikic/php&#45;parser&#45;&gt;ext&#45;ctype</title>
<path fill="none" stroke="#1a2833" d="M582.61,-1296.76C689.49,-1305.29 859.28,-1318.91 923.08,-1324.44 960.52,-1327.68 1002.79,-1331.59 1034.83,-1334.61"/>
<polygon fill="#1a2833" stroke="#1a2833" points="1034.57,-1338.1 1044.85,-1335.55 1035.23,-1331.13 1034.57,-1338.1"/>
<text text-anchor="middle" x="783.08" y="-1327.44" font-family="Times,serif" font-size="10.00" fill="#767676">*</text>
</g>
<!-- ext&#45;tokenizer -->
<g id="node31" class="node">
<title>ext&#45;tokenizer</title>
<path fill="#eeeeee" stroke="black" d="M1129.58,-1303.44C1129.58,-1303.44 1043.58,-1303.44 1043.58,-1303.44 1037.58,-1303.44 1031.58,-1297.44 1031.58,-1291.44 1031.58,-1291.44 1031.58,-1279.44 1031.58,-1279.44 1031.58,-1273.44 1037.58,-1267.44 1043.58,-1267.44 1043.58,-1267.44 1129.58,-1267.44 1129.58,-1267.44 1135.58,-1267.44 1141.58,-1273.44 1141.58,-1279.44 1141.58,-1279.44 1141.58,-1291.44 1141.58,-1291.44 1141.58,-1297.44 1135.58,-1303.44 1129.58,-1303.44"/>
<text text-anchor="middle" x="1086.58" y="-1281.74" font-family="Times,serif" font-size="14.00" fill="#314b5f">ext&#45;tokenizer</text>
</g>
<!-- nikic/php&#45;parser&#45;&gt;ext&#45;tokenizer -->
<g id="edge41" class="edge">
<title>nikic/php&#45;parser&#45;&gt;ext&#45;tokenizer</title>
<path fill="none" stroke="#1a2833" d="M582.89,-1288.82C704.51,-1288 915.33,-1286.58 1021.12,-1285.87"/>
<polygon fill="#1a2833" stroke="#1a2833" points="1021.36,-1289.37 1031.33,-1285.8 1021.31,-1282.37 1021.36,-1289.37"/>
<text text-anchor="middle" x="783.08" y="-1290.44" font-family="Times,serif" font-size="10.00" fill="#767676">*</text>
</g>
<!-- ramsey/uuid&#45;&gt;php -->
<g id="edge46" class="edge">
<title>ramsey/uuid&#45;&gt;php</title>
<path fill="none" stroke="#1a2833" d="M564.95,-1444.42C589.76,-1440.95 617.58,-1437.29 643.08,-1434.44 767.21,-1420.58 798.74,-1422.27 923.08,-1410.44 966.52,-1406.31 1016.44,-1401 1049.36,-1397.42"/>
<polygon fill="#1a2833" stroke="#1a2833" points="1049.86,-1400.89 1059.42,-1396.33 1049.1,-1393.93 1049.86,-1400.89"/>
<text text-anchor="middle" x="783.08" y="-1437.44" font-family="Times,serif" font-size="10.00" fill="#767676">^8.0</text>
</g>
<!-- brick/math -->
<g id="node33" class="node">
<title>brick/math</title>
<path fill="#eeeeee" stroke="black" d="M1148.58,-1519.44C1148.58,-1519.44 1024.58,-1519.44 1024.58,-1519.44 1018.58,-1519.44 1012.58,-1513.44 1012.58,-1507.44 1012.58,-1507.44 1012.58,-1495.44 1012.58,-1495.44 1012.58,-1489.44 1018.58,-1483.44 1024.58,-1483.44 1024.58,-1483.44 1148.58,-1483.44 1148.58,-1483.44 1154.58,-1483.44 1160.58,-1489.44 1160.58,-1495.44 1160.58,-1495.44 1160.58,-1507.44 1160.58,-1507.44 1160.58,-1513.44 1154.58,-1519.44 1148.58,-1519.44"/>
<text text-anchor="middle" x="1086.58" y="-1497.74" font-family="Times,serif" font-size="14.00" fill="#314b5f">brick/math: 0.14.8</text>
</g>
<!-- ramsey/uuid&#45;&gt;brick/math -->
<g id="edge45" class="edge">
<title>ramsey/uuid&#45;&gt;brick/math</title>
<path fill="none" stroke="#1a2833" d="M564.8,-1459.19C585.74,-1463.08 607.56,-1470.09 625.08,-1482.44 637.79,-1491.4 629.55,-1504.78 643.08,-1512.44 697.22,-1543.1 860.89,-1514.54 923.08,-1512.44 948.9,-1511.57 976.99,-1509.92 1002.44,-1508.15"/>
<polygon fill="#1a2833" stroke="#1a2833" points="1002.7,-1511.64 1012.42,-1507.45 1002.2,-1504.66 1002.7,-1511.64"/>
<text text-anchor="middle" x="783.08" y="-1529.44" font-family="Times,serif" font-size="10.00" fill="#767676">^0.8.16 || ^0.9 || ^0.10 || ^0.11 || ^0.12 || ^0.13 || ^0.14</text>
</g>
<!-- ramsey/collection -->
<g id="node34" class="node">
<title>ramsey/collection</title>
<path fill="#eeeeee" stroke="black" d="M1168.08,-1465.44C1168.08,-1465.44 1005.08,-1465.44 1005.08,-1465.44 999.08,-1465.44 993.08,-1459.44 993.08,-1453.44 993.08,-1453.44 993.08,-1441.44 993.08,-1441.44 993.08,-1435.44 999.08,-1429.44 1005.08,-1429.44 1005.08,-1429.44 1168.08,-1429.44 1168.08,-1429.44 1174.08,-1429.44 1180.08,-1435.44 1180.08,-1441.44 1180.08,-1441.44 1180.08,-1453.44 1180.08,-1453.44 1180.08,-1459.44 1174.08,-1465.44 1168.08,-1465.44"/>
<text text-anchor="middle" x="1086.58" y="-1443.74" font-family="Times,serif" font-size="14.00" fill="#314b5f">ramsey/collection: 2.1.1</text>
</g>
<!-- ramsey/uuid&#45;&gt;ramsey/collection -->
<g id="edge47" class="edge">
<title>ramsey/uuid&#45;&gt;ramsey/collection</title>
<path fill="none" stroke="#1a2833" d="M564.73,-1454.44C670.07,-1453.03 863.45,-1450.43 982.64,-1448.82"/>
<polygon fill="#1a2833" stroke="#1a2833" points="982.91,-1452.32 992.86,-1448.69 982.82,-1445.32 982.91,-1452.32"/>
<text text-anchor="middle" x="783.08" y="-1455.44" font-family="Times,serif" font-size="10.00" fill="#767676">^1.2 || ^2.0</text>
</g>
<!-- symfony/serializer&#45;&gt;php -->
<g id="edge54" class="edge">
<title>symfony/serializer&#45;&gt;php</title>
<path fill="none" stroke="#1a2833" d="M590.19,-1502.41C713.79,-1493.3 909.99,-1477.41 923.08,-1467.44 940.87,-1453.89 923.9,-1434.76 941.08,-1420.44 971.2,-1395.33 1017.21,-1390.64 1049.19,-1390.9"/>
<polygon fill="#1a2833" stroke="#1a2833" points="1049.37,-1394.4 1059.45,-1391.15 1049.54,-1387.4 1049.37,-1394.4"/>
<text text-anchor="middle" x="783.08" y="-1500.44" font-family="Times,serif" font-size="10.00" fill="#767676">&gt;=8.2</text>
</g>
<!-- symfony/serializer&#45;&gt;symfony/polyfill&#45;php84 -->
<g id="edge57" class="edge">
<title>symfony/serializer&#45;&gt;symfony/polyfill&#45;php84</title>
<path fill="none" stroke="#1a2833" d="M590.25,-1503.33C603.23,-1498.77 615.37,-1492.09 625.08,-1482.44 653.08,-1454.6 613.65,-1421.76 643.08,-1395.44 689.66,-1353.78 877.41,-1412.09 923.08,-1369.44 959.6,-1335.32 906.16,-1294.2 941.08,-1258.44 945.76,-1253.65 951,-1249.55 956.63,-1246.06"/>
<polygon fill="#1a2833" stroke="#1a2833" points="958.69,-1248.93 965.79,-1241.07 955.34,-1242.78 958.69,-1248.93"/>
<text text-anchor="middle" x="783.08" y="-1398.44" font-family="Times,serif" font-size="10.00" fill="#767676">^1.30</text>
</g>
<!-- symfony/deprecation&#45;contracts -->
<g id="node36" class="node">
<title>symfony/deprecation&#45;contracts</title>
<path fill="#eeeeee" stroke="black" d="M1219.58,-1627.44C1219.58,-1627.44 953.58,-1627.44 953.58,-1627.44 947.58,-1627.44 941.58,-1621.44 941.58,-1615.44 941.58,-1615.44 941.58,-1603.44 941.58,-1603.44 941.58,-1597.44 947.58,-1591.44 953.58,-1591.44 953.58,-1591.44 1219.58,-1591.44 1219.58,-1591.44 1225.58,-1591.44 1231.58,-1597.44 1231.58,-1603.44 1231.58,-1603.44 1231.58,-1615.44 1231.58,-1615.44 1231.58,-1621.44 1225.58,-1627.44 1219.58,-1627.44"/>
<text text-anchor="middle" x="1086.58" y="-1605.74" font-family="Times,serif" font-size="14.00" fill="#314b5f">symfony/deprecation&#45;contracts: v3.6.0</text>
</g>
<!-- symfony/serializer&#45;&gt;symfony/deprecation&#45;contracts -->
<g id="edge55" class="edge">
<title>symfony/serializer&#45;&gt;symfony/deprecation&#45;contracts</title>
<path fill="none" stroke="#1a2833" d="M590.41,-1519.95C603.28,-1524.9 615.35,-1531.82 625.08,-1541.44 648.53,-1564.63 617.08,-1593.14 643.08,-1613.44 665.69,-1631.1 812.61,-1626.78 931.05,-1620.13"/>
<polygon fill="#1a2833" stroke="#1a2833" points="931.55,-1623.61 941.33,-1619.54 931.15,-1616.62 931.55,-1623.61"/>
<text text-anchor="middle" x="783.08" y="-1628.44" font-family="Times,serif" font-size="10.00" fill="#767676">^2.5|^3</text>
</g>
<!-- symfony/polyfill&#45;ctype -->
<g id="node37" class="node">
<title>symfony/polyfill&#45;ctype</title>
<path fill="#eeeeee" stroke="black" d="M1192.08,-1573.44C1192.08,-1573.44 981.08,-1573.44 981.08,-1573.44 975.08,-1573.44 969.08,-1567.44 969.08,-1561.44 969.08,-1561.44 969.08,-1549.44 969.08,-1549.44 969.08,-1543.44 975.08,-1537.44 981.08,-1537.44 981.08,-1537.44 1192.08,-1537.44 1192.08,-1537.44 1198.08,-1537.44 1204.08,-1543.44 1204.08,-1549.44 1204.08,-1549.44 1204.08,-1561.44 1204.08,-1561.44 1204.08,-1567.44 1198.08,-1573.44 1192.08,-1573.44"/>
<text text-anchor="middle" x="1086.58" y="-1551.74" font-family="Times,serif" font-size="14.00" fill="#314b5f">symfony/polyfill&#45;ctype: v1.36.0</text>
</g>
<!-- symfony/serializer&#45;&gt;symfony/polyfill&#45;ctype -->
<g id="edge56" class="edge">
<title>symfony/serializer&#45;&gt;symfony/polyfill&#45;ctype</title>
<path fill="none" stroke="#1a2833" d="M590.23,-1522.18C602.83,-1526.83 614.86,-1533.08 625.08,-1541.44 639.85,-1553.53 627,-1570.15 643.08,-1580.44 696.95,-1614.91 867.44,-1594.07 980.38,-1575.22"/>
<polygon fill="#1a2833" stroke="#1a2833" points="981.17,-1578.64 990.45,-1573.52 980,-1571.73 981.17,-1578.64"/>
<text text-anchor="middle" x="783.08" y="-1601.44" font-family="Times,serif" font-size="10.00" fill="#767676">~1.8</text>
</g>
<!-- bamarni/composer&#45;bin&#45;plugin&#45;&gt;php -->
<g id="edge61" class="edge">
<title>bamarni/composer&#45;bin&#45;plugin&#45;&gt;php</title>
<path fill="none" stroke="#1a2833" d="M625.35,-1564.09C748.15,-1559.51 912.07,-1551.54 923.08,-1541.44 963.13,-1504.67 903.35,-1459.59 941.08,-1420.44 968.72,-1391.75 1016.38,-1388.01 1049.37,-1389.46"/>
<polygon fill="#1a2833" stroke="#1a2833" points="1049.32,-1392.96 1059.52,-1390.09 1049.76,-1385.98 1049.32,-1392.96"/>
<text text-anchor="middle" x="783.08" y="-1565.44" font-family="Times,serif" font-size="10.00" fill="#767676">^7.2.5 || ^8.0</text>
</g>
<!-- composer&#45;plugin&#45;api -->
<g id="node39" class="node">
<title>composer&#45;plugin&#45;api</title>
<path fill="#eeeeee" stroke="black" d="M1155.08,-1681.44C1155.08,-1681.44 1018.08,-1681.44 1018.08,-1681.44 1012.08,-1681.44 1006.08,-1675.44 1006.08,-1669.44 1006.08,-1669.44 1006.08,-1657.44 1006.08,-1657.44 1006.08,-1651.44 1012.08,-1645.44 1018.08,-1645.44 1018.08,-1645.44 1155.08,-1645.44 1155.08,-1645.44 1161.08,-1645.44 1167.08,-1651.44 1167.08,-1657.44 1167.08,-1657.44 1167.08,-1669.44 1167.08,-1669.44 1167.08,-1675.44 1161.08,-1681.44 1155.08,-1681.44"/>
<text text-anchor="middle" x="1086.58" y="-1659.74" font-family="Times,serif" font-size="14.00" fill="#314b5f">composer&#45;plugin&#45;api</text>
</g>
<!-- bamarni/composer&#45;bin&#45;plugin&#45;&gt;composer&#45;plugin&#45;api -->
<g id="edge60" class="edge">
<title>bamarni/composer&#45;bin&#45;plugin&#45;&gt;composer&#45;plugin&#45;api</title>
<path fill="none" stroke="#1a2833" d="M516.08,-1586.45C545.22,-1605.88 595.1,-1635.75 643.08,-1648.44 761.86,-1679.85 904.82,-1677.88 995.46,-1671.97"/>
<polygon fill="#1a2833" stroke="#1a2833" points="995.96,-1675.45 1005.7,-1671.28 995.48,-1668.46 995.96,-1675.45"/>
<text text-anchor="middle" x="783.08" y="-1678.44" font-family="Times,serif" font-size="10.00" fill="#767676">^2.0</text>
</g>
</g>
</svg>
