<?xml version="1.0" encoding="UTF-8" standalone="no"?>
<!DOCTYPE svg PUBLIC "-//W3C//DTD SVG 1.1//EN"
 "http://www.w3.org/Graphics/SVG/1.1/DTD/svg11.dtd">
<!-- Generated by graphviz version 2.43.0 (0)
 -->
<!-- Title: %3 Pages: 1 -->
<svg width="1161pt" height="2404pt"
 viewBox="0.00 0.00 1161.08 2403.88" xmlns="http://www.w3.org/2000/svg" xmlns:xlink="http://www.w3.org/1999/xlink">
<g id="graph0" class="graph" transform="scale(1 1) rotate(0) translate(4 2399.88)">
<title>%3</title>
<polygon fill="white" stroke="transparent" points="-4,4 -4,-2399.88 1157.08,-2399.88 1157.08,4 -4,4"/>
<!-- bartlett/php&#45;compatinfo -->
<g id="node1" class="node">
<title>bartlett/php&#45;compatinfo</title>
<ellipse fill="lightgrey" stroke="black" stroke-width="2" cx="121.54" cy="-1226.88" rx="121.58" ry="18"/>
<text text-anchor="middle" x="121.54" y="-1223.18" font-family="Times,serif" font-size="14.00">bartlett/php&#45;compatinfo</text>
</g>
<!-- php -->
<g id="node2" class="node">
<title>php</title>
<path fill="#eeeeee" stroke="black" d="M1020.58,-756.88C1020.58,-756.88 990.58,-756.88 990.58,-756.88 984.58,-756.88 978.58,-750.88 978.58,-744.88 978.58,-744.88 978.58,-732.88 978.58,-732.88 978.58,-726.88 984.58,-720.88 990.58,-720.88 990.58,-720.88 1020.58,-720.88 1020.58,-720.88 1026.58,-720.88 1032.58,-726.88 1032.58,-732.88 1032.58,-732.88 1032.58,-744.88 1032.58,-744.88 1032.58,-750.88 1026.58,-756.88 1020.58,-756.88"/>
<text text-anchor="middle" x="1005.58" y="-735.18" font-family="Times,serif" font-size="14.00" fill="#314b5f">php</text>
</g>
<!-- bartlett/php&#45;compatinfo&#45;&gt;php -->
<g id="edge1" class="edge">
<title>bartlett/php&#45;compatinfo&#45;&gt;php</title>
<path fill="none" stroke="#1a2833" d="M124.18,-1208.52C131.8,-1135.63 170.89,-865.88 338.08,-765.88 445.27,-701.77 845.05,-726.53 968.22,-735.92"/>
<polygon fill="#1a2833" stroke="#1a2833" points="968.03,-739.41 978.27,-736.69 968.57,-732.43 968.03,-739.41"/>
<text text-anchor="middle" x="484.08" y="-768.88" font-family="Times,serif" font-size="10.00" fill="#767676">^8.1</text>
</g>
<!-- ext&#45;json -->
<g id="node3" class="node">
<title>ext&#45;json</title>
<path fill="#eeeeee" stroke="black" d="M1030.08,-1576.88C1030.08,-1576.88 981.08,-1576.88 981.08,-1576.88 975.08,-1576.88 969.08,-1570.88 969.08,-1564.88 969.08,-1564.88 969.08,-1552.88 969.08,-1552.88 969.08,-1546.88 975.08,-1540.88 981.08,-1540.88 981.08,-1540.88 1030.08,-1540.88 1030.08,-1540.88 1036.08,-1540.88 1042.08,-1546.88 1042.08,-1552.88 1042.08,-1552.88 1042.08,-1564.88 1042.08,-1564.88 1042.08,-1570.88 1036.08,-1576.88 1030.08,-1576.88"/>
<text text-anchor="middle" x="1005.58" y="-1555.18" font-family="Times,serif" font-size="14.00" fill="#314b5f">ext&#45;json</text>
</g>
<!-- bartlett/php&#45;compatinfo&#45;&gt;ext&#45;json -->
<g id="edge2" class="edge">
<title>bartlett/php&#45;compatinfo&#45;&gt;ext&#45;json</title>
<path fill="none" stroke="#1a2833" d="M134.73,-1244.87C164.58,-1287.61 245.64,-1396.31 338.08,-1457.88 528.58,-1584.78 611.39,-1582.6 840.08,-1572.88 880.26,-1571.18 925.81,-1567.14 958.78,-1563.83"/>
<polygon fill="#1a2833" stroke="#1a2833" points="959.42,-1567.28 969.02,-1562.79 958.71,-1560.32 959.42,-1567.28"/>
<text text-anchor="middle" x="484.08" y="-1576.88" font-family="Times,serif" font-size="10.00" fill="#767676">*</text>
</g>
<!-- ext&#45;pcre -->
<g id="node4" class="node">
<title>ext&#45;pcre</title>
<path fill="#eeeeee" stroke="black" d="M1031.08,-2332.88C1031.08,-2332.88 980.08,-2332.88 980.08,-2332.88 974.08,-2332.88 968.08,-2326.88 968.08,-2320.88 968.08,-2320.88 968.08,-2308.88 968.08,-2308.88 968.08,-2302.88 974.08,-2296.88 980.08,-2296.88 980.08,-2296.88 1031.08,-2296.88 1031.08,-2296.88 1037.08,-2296.88 1043.08,-2302.88 1043.08,-2308.88 1043.08,-2308.88 1043.08,-2320.88 1043.08,-2320.88 1043.08,-2326.88 1037.08,-2332.88 1031.08,-2332.88"/>
<text text-anchor="middle" x="1005.58" y="-2311.18" font-family="Times,serif" font-size="14.00" fill="#314b5f">ext&#45;pcre</text>
</g>
<!-- bartlett/php&#45;compatinfo&#45;&gt;ext&#45;pcre -->
<g id="edge3" class="edge">
<title>bartlett/php&#45;compatinfo&#45;&gt;ext&#45;pcre</title>
<path fill="none" stroke="#1a2833" d="M122.53,-1244.96C122.88,-1379.69 133.32,-2225.12 338.08,-2328.88 548.03,-2435.27 845.01,-2363.8 958.26,-2329.91"/>
<polygon fill="#1a2833" stroke="#1a2833" points="959.45,-2333.21 968,-2326.95 957.42,-2326.51 959.45,-2333.21"/>
<text text-anchor="middle" x="484.08" y="-2387.88" font-family="Times,serif" font-size="10.00" fill="#767676">*</text>
</g>
<!-- ext&#45;spl -->
<g id="node5" class="node">
<title>ext&#45;spl</title>
<path fill="#eeeeee" stroke="black" d="M1026.08,-2278.88C1026.08,-2278.88 985.08,-2278.88 985.08,-2278.88 979.08,-2278.88 973.08,-2272.88 973.08,-2266.88 973.08,-2266.88 973.08,-2254.88 973.08,-2254.88 973.08,-2248.88 979.08,-2242.88 985.08,-2242.88 985.08,-2242.88 1026.08,-2242.88 1026.08,-2242.88 1032.08,-2242.88 1038.08,-2248.88 1038.08,-2254.88 1038.08,-2254.88 1038.08,-2266.88 1038.08,-2266.88 1038.08,-2272.88 1032.08,-2278.88 1026.08,-2278.88"/>
<text text-anchor="middle" x="1005.58" y="-2257.18" font-family="Times,serif" font-size="14.00" fill="#314b5f">ext&#45;spl</text>
</g>
<!-- bartlett/php&#45;compatinfo&#45;&gt;ext&#45;spl -->
<g id="edge4" class="edge">
<title>bartlett/php&#45;compatinfo&#45;&gt;ext&#45;spl</title>
<path fill="none" stroke="#1a2833" d="M122.71,-1245.05C124.21,-1364.3 138.07,-2034.8 261.08,-2187.88 343.27,-2290.18 717.42,-2350.52 840.08,-2303.88 850.08,-2300.08 848.46,-2292.58 858.08,-2287.88 891.03,-2271.79 932.41,-2265.24 962.79,-2262.6"/>
<polygon fill="#1a2833" stroke="#1a2833" points="963.34,-2266.07 973.04,-2261.82 962.8,-2259.09 963.34,-2266.07"/>
<text text-anchor="middle" x="484.08" y="-2316.88" font-family="Times,serif" font-size="10.00" fill="#767676">*</text>
</g>
<!-- bartlett/php&#45;compatinfo&#45;db -->
<g id="node6" class="node">
<title>bartlett/php&#45;compatinfo&#45;db</title>
<path fill="#eeeeee" stroke="black" d="M618.08,-1798.88C618.08,-1798.88 350.08,-1798.88 350.08,-1798.88 344.08,-1798.88 338.08,-1792.88 338.08,-1786.88 338.08,-1786.88 338.08,-1774.88 338.08,-1774.88 338.08,-1768.88 344.08,-1762.88 350.08,-1762.88 350.08,-1762.88 618.08,-1762.88 618.08,-1762.88 624.08,-1762.88 630.08,-1768.88 630.08,-1774.88 630.08,-1774.88 630.08,-1786.88 630.08,-1786.88 630.08,-1792.88 624.08,-1798.88 618.08,-1798.88"/>
<text text-anchor="middle" x="484.08" y="-1777.18" font-family="Times,serif" font-size="14.00" fill="#314b5f">bartlett/php&#45;compatinfo&#45;db: 6.14.x&#45;dev</text>
</g>
<!-- bartlett/php&#45;compatinfo&#45;&gt;bartlett/php&#45;compatinfo&#45;db -->
<g id="edge27" class="edge">
<title>bartlett/php&#45;compatinfo&#45;&gt;bartlett/php&#45;compatinfo&#45;db</title>
<path fill="none" stroke="#1a2833" d="M122.54,-1245.25C123.54,-1313.81 136.09,-1557.78 261.08,-1693.88 291.02,-1726.49 334.68,-1747.03 375.37,-1759.9"/>
<polygon fill="#1a2833" stroke="#1a2833" points="374.51,-1763.3 385.09,-1762.85 376.54,-1756.6 374.51,-1763.3"/>
<text text-anchor="middle" x="290.58" y="-1738.88" font-family="Times,serif" font-size="10.00" fill="#767676">6.14.x&#45;dev</text>
</g>
<!-- composer&#45;runtime&#45;api -->
<g id="node7" class="node">
<title>composer&#45;runtime&#45;api</title>
<path fill="#eeeeee" stroke="black" d="M1080.08,-1477.88C1080.08,-1477.88 931.08,-1477.88 931.08,-1477.88 925.08,-1477.88 919.08,-1471.88 919.08,-1465.88 919.08,-1465.88 919.08,-1453.88 919.08,-1453.88 919.08,-1447.88 925.08,-1441.88 931.08,-1441.88 931.08,-1441.88 1080.08,-1441.88 1080.08,-1441.88 1086.08,-1441.88 1092.08,-1447.88 1092.08,-1453.88 1092.08,-1453.88 1092.08,-1465.88 1092.08,-1465.88 1092.08,-1471.88 1086.08,-1477.88 1080.08,-1477.88"/>
<text text-anchor="middle" x="1005.58" y="-1456.18" font-family="Times,serif" font-size="14.00" fill="#314b5f">composer&#45;runtime&#45;api</text>
</g>
<!-- bartlett/php&#45;compatinfo&#45;&gt;composer&#45;runtime&#45;api -->
<g id="edge33" class="edge">
<title>bartlett/php&#45;compatinfo&#45;&gt;composer&#45;runtime&#45;api</title>
<path fill="none" stroke="#1a2833" d="M145.12,-1244.6C182.98,-1273.49 262.52,-1330.83 338.08,-1363.88 468.65,-1421.01 507.14,-1424.74 648.08,-1445.88 735.51,-1459 836.26,-1461.84 908.31,-1461.79"/>
<polygon fill="#1a2833" stroke="#1a2833" points="908.74,-1465.29 918.73,-1461.76 908.72,-1458.29 908.74,-1465.29"/>
<text text-anchor="middle" x="484.08" y="-1445.88" font-family="Times,serif" font-size="10.00" fill="#767676">^2.1</text>
</g>
<!-- symfony/config -->
<g id="node14" class="node">
<title>symfony/config</title>
<path fill="#eeeeee" stroke="black" d="M1086.58,-1384.88C1086.58,-1384.88 924.58,-1384.88 924.58,-1384.88 918.58,-1384.88 912.58,-1378.88 912.58,-1372.88 912.58,-1372.88 912.58,-1360.88 912.58,-1360.88 912.58,-1354.88 918.58,-1348.88 924.58,-1348.88 924.58,-1348.88 1086.58,-1348.88 1086.58,-1348.88 1092.58,-1348.88 1098.58,-1354.88 1098.58,-1360.88 1098.58,-1360.88 1098.58,-1372.88 1098.58,-1372.88 1098.58,-1378.88 1092.58,-1384.88 1086.58,-1384.88"/>
<text text-anchor="middle" x="1005.58" y="-1363.18" font-family="Times,serif" font-size="14.00" fill="#314b5f">symfony/config: v6.4.14</text>
</g>
<!-- bartlett/php&#45;compatinfo&#45;&gt;symfony/config -->
<g id="edge49" class="edge">
<title>bartlett/php&#45;compatinfo&#45;&gt;symfony/config</title>
<path fill="none" stroke="#1a2833" d="M175.22,-1243.16C269.14,-1271.35 472.18,-1328.58 648.08,-1352.88 733.17,-1364.64 830.69,-1367.77 902.2,-1368.16"/>
<polygon fill="#1a2833" stroke="#1a2833" points="902.54,-1371.67 912.56,-1368.2 902.57,-1364.67 902.54,-1371.67"/>
<text text-anchor="middle" x="484.08" y="-1351.88" font-family="Times,serif" font-size="10.00" fill="#767676">^6.4 || ^7.0</text>
</g>
<!-- symfony/console -->
<g id="node15" class="node">
<title>symfony/console</title>
<path fill="#eeeeee" stroke="black" d="M1092.08,-1630.88C1092.08,-1630.88 919.08,-1630.88 919.08,-1630.88 913.08,-1630.88 907.08,-1624.88 907.08,-1618.88 907.08,-1618.88 907.08,-1606.88 907.08,-1606.88 907.08,-1600.88 913.08,-1594.88 919.08,-1594.88 919.08,-1594.88 1092.08,-1594.88 1092.08,-1594.88 1098.08,-1594.88 1104.08,-1600.88 1104.08,-1606.88 1104.08,-1606.88 1104.08,-1618.88 1104.08,-1618.88 1104.08,-1624.88 1098.08,-1630.88 1092.08,-1630.88"/>
<text text-anchor="middle" x="1005.58" y="-1609.18" font-family="Times,serif" font-size="14.00" fill="#314b5f">symfony/console: v6.4.15</text>
</g>
<!-- bartlett/php&#45;compatinfo&#45;&gt;symfony/console -->
<g id="edge50" class="edge">
<title>bartlett/php&#45;compatinfo&#45;&gt;symfony/console</title>
<path fill="none" stroke="#1a2833" d="M127.76,-1244.97C145.91,-1304.42 212.1,-1495.36 338.08,-1588.88 428.7,-1656.16 740.11,-1718.26 840.08,-1665.88 852.53,-1659.36 846.27,-1647.51 858.08,-1639.88 869.79,-1632.32 883.06,-1626.74 896.73,-1622.65"/>
<polygon fill="#1a2833" stroke="#1a2833" points="898,-1625.93 906.73,-1619.92 896.16,-1619.17 898,-1625.93"/>
<text text-anchor="middle" x="484.08" y="-1680.88" font-family="Times,serif" font-size="10.00" fill="#767676">^6.4 || ^7.0</text>
</g>
<!-- symfony/dependency&#45;injection -->
<g id="node16" class="node">
<title>symfony/dependency&#45;injection</title>
<path fill="#eeeeee" stroke="black" d="M1141.08,-1291.88C1141.08,-1291.88 870.08,-1291.88 870.08,-1291.88 864.08,-1291.88 858.08,-1285.88 858.08,-1279.88 858.08,-1279.88 858.08,-1267.88 858.08,-1267.88 858.08,-1261.88 864.08,-1255.88 870.08,-1255.88 870.08,-1255.88 1141.08,-1255.88 1141.08,-1255.88 1147.08,-1255.88 1153.08,-1261.88 1153.08,-1267.88 1153.08,-1267.88 1153.08,-1279.88 1153.08,-1279.88 1153.08,-1285.88 1147.08,-1291.88 1141.08,-1291.88"/>
<text text-anchor="middle" x="1005.58" y="-1270.18" font-family="Times,serif" font-size="14.00" fill="#314b5f">symfony/dependency&#45;injection: v6.4.16</text>
</g>
<!-- bartlett/php&#45;compatinfo&#45;&gt;symfony/dependency&#45;injection -->
<g id="edge53" class="edge">
<title>bartlett/php&#45;compatinfo&#45;&gt;symfony/dependency&#45;injection</title>
<path fill="none" stroke="#1a2833" d="M231.71,-1234.49C337.97,-1241.71 504.05,-1252.53 648.08,-1259.88 713.41,-1263.22 785.52,-1266.18 847.69,-1268.52"/>
<polygon fill="#1a2833" stroke="#1a2833" points="847.86,-1272.03 857.98,-1268.9 848.12,-1265.03 847.86,-1272.03"/>
<text text-anchor="middle" x="484.08" y="-1260.88" font-family="Times,serif" font-size="10.00" fill="#767676">^6.4 || ^7.0</text>
</g>
<!-- symfony/event&#45;dispatcher -->
<g id="node17" class="node">
<title>symfony/event&#45;dispatcher</title>
<path fill="#eeeeee" stroke="black" d="M1125.08,-1198.88C1125.08,-1198.88 886.08,-1198.88 886.08,-1198.88 880.08,-1198.88 874.08,-1192.88 874.08,-1186.88 874.08,-1186.88 874.08,-1174.88 874.08,-1174.88 874.08,-1168.88 880.08,-1162.88 886.08,-1162.88 886.08,-1162.88 1125.08,-1162.88 1125.08,-1162.88 1131.08,-1162.88 1137.08,-1168.88 1137.08,-1174.88 1137.08,-1174.88 1137.08,-1186.88 1137.08,-1186.88 1137.08,-1192.88 1131.08,-1198.88 1125.08,-1198.88"/>
<text text-anchor="middle" x="1005.58" y="-1177.18" font-family="Times,serif" font-size="14.00" fill="#314b5f">symfony/event&#45;dispatcher: v6.4.13</text>
</g>
<!-- bartlett/php&#45;compatinfo&#45;&gt;symfony/event&#45;dispatcher -->
<g id="edge51" class="edge">
<title>bartlett/php&#45;compatinfo&#45;&gt;symfony/event&#45;dispatcher</title>
<path fill="none" stroke="#1a2833" d="M232.47,-1219.5C338.77,-1212.52 504.4,-1202.08 648.08,-1194.88 718.98,-1191.33 797.86,-1188.16 863.36,-1185.73"/>
<polygon fill="#1a2833" stroke="#1a2833" points="863.89,-1189.21 873.75,-1185.35 863.63,-1182.22 863.89,-1189.21"/>
<text text-anchor="middle" x="484.08" y="-1214.88" font-family="Times,serif" font-size="10.00" fill="#767676">^6.4 || ^7.0</text>
</g>
<!-- symfony/finder -->
<g id="node18" class="node">
<title>symfony/finder</title>
<path fill="#eeeeee" stroke="black" d="M1086.08,-1119.88C1086.08,-1119.88 925.08,-1119.88 925.08,-1119.88 919.08,-1119.88 913.08,-1113.88 913.08,-1107.88 913.08,-1107.88 913.08,-1095.88 913.08,-1095.88 913.08,-1089.88 919.08,-1083.88 925.08,-1083.88 925.08,-1083.88 1086.08,-1083.88 1086.08,-1083.88 1092.08,-1083.88 1098.08,-1089.88 1098.08,-1095.88 1098.08,-1095.88 1098.08,-1107.88 1098.08,-1107.88 1098.08,-1113.88 1092.08,-1119.88 1086.08,-1119.88"/>
<text text-anchor="middle" x="1005.58" y="-1098.18" font-family="Times,serif" font-size="14.00" fill="#314b5f">symfony/finder: v6.4.13</text>
</g>
<!-- bartlett/php&#45;compatinfo&#45;&gt;symfony/finder -->
<g id="edge52" class="edge">
<title>bartlett/php&#45;compatinfo&#45;&gt;symfony/finder</title>
<path fill="none" stroke="#1a2833" d="M173.66,-1210.5C266.8,-1181.6 470.87,-1122.67 648.08,-1101.88 733.47,-1091.87 831.17,-1092.72 902.67,-1095.6"/>
<polygon fill="#1a2833" stroke="#1a2833" points="902.88,-1099.11 913.02,-1096.04 903.18,-1092.12 902.88,-1099.11"/>
<text text-anchor="middle" x="484.08" y="-1163.88" font-family="Times,serif" font-size="10.00" fill="#767676">^6.4 || ^7.0</text>
</g>
<!-- symfony/stopwatch -->
<g id="node24" class="node">
<title>symfony/stopwatch</title>
<path fill="#eeeeee" stroke="black" d="M1102.08,-2224.88C1102.08,-2224.88 909.08,-2224.88 909.08,-2224.88 903.08,-2224.88 897.08,-2218.88 897.08,-2212.88 897.08,-2212.88 897.08,-2200.88 897.08,-2200.88 897.08,-2194.88 903.08,-2188.88 909.08,-2188.88 909.08,-2188.88 1102.08,-2188.88 1102.08,-2188.88 1108.08,-2188.88 1114.08,-2194.88 1114.08,-2200.88 1114.08,-2200.88 1114.08,-2212.88 1114.08,-2212.88 1114.08,-2218.88 1108.08,-2224.88 1102.08,-2224.88"/>
<text text-anchor="middle" x="1005.58" y="-2203.18" font-family="Times,serif" font-size="14.00" fill="#314b5f">symfony/stopwatch: v6.4.13</text>
</g>
<!-- bartlett/php&#45;compatinfo&#45;&gt;symfony/stopwatch -->
<g id="edge58" class="edge">
<title>bartlett/php&#45;compatinfo&#45;&gt;symfony/stopwatch</title>
<path fill="none" stroke="#1a2833" d="M123.69,-1245.01C128.88,-1315.18 154.64,-1573.88 261.08,-1750.88 381.82,-1951.68 436.66,-2007.89 648.08,-2108.88 725.89,-2146.06 771.93,-2084.04 840.08,-2136.88 856.45,-2149.58 841.95,-2166.88 858.08,-2179.88 866.88,-2186.98 876.94,-2192.43 887.58,-2196.61"/>
<polygon fill="#1a2833" stroke="#1a2833" points="886.47,-2199.93 897.07,-2199.95 888.8,-2193.32 886.47,-2199.93"/>
<text text-anchor="middle" x="484.08" y="-2101.88" font-family="Times,serif" font-size="10.00" fill="#767676">^6.4 || ^7.0</text>
</g>
<!-- bartlett/sarif&#45;php&#45;sdk -->
<g id="node25" class="node">
<title>bartlett/sarif&#45;php&#45;sdk</title>
<path fill="#eeeeee" stroke="black" d="M578.58,-2207.88C578.58,-2207.88 389.58,-2207.88 389.58,-2207.88 383.58,-2207.88 377.58,-2201.88 377.58,-2195.88 377.58,-2195.88 377.58,-2183.88 377.58,-2183.88 377.58,-2177.88 383.58,-2171.88 389.58,-2171.88 389.58,-2171.88 578.58,-2171.88 578.58,-2171.88 584.58,-2171.88 590.58,-2177.88 590.58,-2183.88 590.58,-2183.88 590.58,-2195.88 590.58,-2195.88 590.58,-2201.88 584.58,-2207.88 578.58,-2207.88"/>
<text text-anchor="middle" x="484.08" y="-2186.18" font-family="Times,serif" font-size="14.00" fill="#314b5f">bartlett/sarif&#45;php&#45;sdk: 2.1.0</text>
</g>
<!-- bartlett/php&#45;compatinfo&#45;&gt;bartlett/sarif&#45;php&#45;sdk -->
<g id="edge32" class="edge">
<title>bartlett/php&#45;compatinfo&#45;&gt;bartlett/sarif&#45;php&#45;sdk</title>
<path fill="none" stroke="#1a2833" d="M122.65,-1245.02C123.71,-1361.19 135.3,-2000.17 261.08,-2136.88 288.11,-2166.26 328.24,-2180.73 366.99,-2187.46"/>
<polygon fill="#1a2833" stroke="#1a2833" points="366.91,-2190.99 377.33,-2189.09 367.99,-2184.08 366.91,-2190.99"/>
<text text-anchor="middle" x="290.58" y="-2175.88" font-family="Times,serif" font-size="10.00" fill="#767676">^2.1</text>
</g>
<!-- doctrine/collections -->
<g id="node26" class="node">
<title>doctrine/collections</title>
<path fill="#eeeeee" stroke="black" d="M572.58,-909.88C572.58,-909.88 395.58,-909.88 395.58,-909.88 389.58,-909.88 383.58,-903.88 383.58,-897.88 383.58,-897.88 383.58,-885.88 383.58,-885.88 383.58,-879.88 389.58,-873.88 395.58,-873.88 395.58,-873.88 572.58,-873.88 572.58,-873.88 578.58,-873.88 584.58,-879.88 584.58,-885.88 584.58,-885.88 584.58,-897.88 584.58,-897.88 584.58,-903.88 578.58,-909.88 572.58,-909.88"/>
<text text-anchor="middle" x="484.08" y="-888.18" font-family="Times,serif" font-size="14.00" fill="#314b5f">doctrine/collections: 2.2.2</text>
</g>
<!-- bartlett/php&#45;compatinfo&#45;&gt;doctrine/collections -->
<g id="edge36" class="edge">
<title>bartlett/php&#45;compatinfo&#45;&gt;doctrine/collections</title>
<path fill="none" stroke="#1a2833" d="M131.5,-1208.79C150.91,-1170.96 200.05,-1082.27 261.08,-1024.88 312.63,-976.41 384.78,-937.24 432.67,-914.27"/>
<polygon fill="#1a2833" stroke="#1a2833" points="434.37,-917.34 441.91,-909.9 431.37,-911.01 434.37,-917.34"/>
<text text-anchor="middle" x="290.58" y="-1027.88" font-family="Times,serif" font-size="10.00" fill="#767676">^2.1</text>
</g>
<!-- nikic/php&#45;parser -->
<g id="node28" class="node">
<title>nikic/php&#45;parser</title>
<path fill="#eeeeee" stroke="black" d="M565.08,-1045.88C565.08,-1045.88 403.08,-1045.88 403.08,-1045.88 397.08,-1045.88 391.08,-1039.88 391.08,-1033.88 391.08,-1033.88 391.08,-1021.88 391.08,-1021.88 391.08,-1015.88 397.08,-1009.88 403.08,-1009.88 403.08,-1009.88 565.08,-1009.88 565.08,-1009.88 571.08,-1009.88 577.08,-1015.88 577.08,-1021.88 577.08,-1021.88 577.08,-1033.88 577.08,-1033.88 577.08,-1039.88 571.08,-1045.88 565.08,-1045.88"/>
<text text-anchor="middle" x="484.08" y="-1024.18" font-family="Times,serif" font-size="14.00" fill="#314b5f">nikic/php&#45;parser: v5.3.1</text>
</g>
<!-- bartlett/php&#45;compatinfo&#45;&gt;nikic/php&#45;parser -->
<g id="edge41" class="edge">
<title>bartlett/php&#45;compatinfo&#45;&gt;nikic/php&#45;parser</title>
<path fill="none" stroke="#1a2833" d="M131.89,-1208.93C151,-1174.25 198.07,-1098.36 261.08,-1062.88 297.05,-1042.63 341.2,-1033.14 380.63,-1028.97"/>
<polygon fill="#1a2833" stroke="#1a2833" points="381.19,-1032.44 390.81,-1028 380.52,-1025.47 381.19,-1032.44"/>
<text text-anchor="middle" x="290.58" y="-1065.88" font-family="Times,serif" font-size="10.00" fill="#767676">^5.0</text>
</g>
<!-- psr/log -->
<g id="node31" class="node">
<title>psr/log</title>
<path fill="#eeeeee" stroke="black" d="M527.58,-821.88C527.58,-821.88 440.58,-821.88 440.58,-821.88 434.58,-821.88 428.58,-815.88 428.58,-809.88 428.58,-809.88 428.58,-797.88 428.58,-797.88 428.58,-791.88 434.58,-785.88 440.58,-785.88 440.58,-785.88 527.58,-785.88 527.58,-785.88 533.58,-785.88 539.58,-791.88 539.58,-797.88 539.58,-797.88 539.58,-809.88 539.58,-809.88 539.58,-815.88 533.58,-821.88 527.58,-821.88"/>
<text text-anchor="middle" x="484.08" y="-800.18" font-family="Times,serif" font-size="14.00" fill="#314b5f">psr/log: 3.0.2</text>
</g>
<!-- bartlett/php&#45;compatinfo&#45;&gt;psr/log -->
<g id="edge43" class="edge">
<title>bartlett/php&#45;compatinfo&#45;&gt;psr/log</title>
<path fill="none" stroke="#1a2833" d="M128.03,-1208.56C146.77,-1149.19 214.08,-960.41 338.08,-864.88 361.88,-846.55 391.99,-832.71 418.6,-822.89"/>
<polygon fill="#1a2833" stroke="#1a2833" points="419.99,-826.11 428.23,-819.45 417.64,-819.52 419.99,-826.11"/>
<text text-anchor="middle" x="290.58" y="-939.88" font-family="Times,serif" font-size="10.00" fill="#767676">^3.0</text>
</g>
<!-- ramsey/uuid -->
<g id="node32" class="node">
<title>ramsey/uuid</title>
<path fill="#eeeeee" stroke="black" d="M547.08,-686.88C547.08,-686.88 421.08,-686.88 421.08,-686.88 415.08,-686.88 409.08,-680.88 409.08,-674.88 409.08,-674.88 409.08,-662.88 409.08,-662.88 409.08,-656.88 415.08,-650.88 421.08,-650.88 421.08,-650.88 547.08,-650.88 547.08,-650.88 553.08,-650.88 559.08,-656.88 559.08,-662.88 559.08,-662.88 559.08,-674.88 559.08,-674.88 559.08,-680.88 553.08,-686.88 547.08,-686.88"/>
<text text-anchor="middle" x="484.08" y="-665.18" font-family="Times,serif" font-size="14.00" fill="#314b5f">ramsey/uuid: 4.7.6</text>
</g>
<!-- bartlett/php&#45;compatinfo&#45;&gt;ramsey/uuid -->
<g id="edge48" class="edge">
<title>bartlett/php&#45;compatinfo&#45;&gt;ramsey/uuid</title>
<path fill="none" stroke="#1a2833" d="M124.58,-1208.88C134.55,-1124.41 180.85,-768.57 261.08,-697.88 298.02,-665.33 352.76,-657.9 398.63,-658.69"/>
<polygon fill="#1a2833" stroke="#1a2833" points="398.78,-662.19 408.88,-659 398.99,-655.2 398.78,-662.19"/>
<text text-anchor="middle" x="290.58" y="-700.88" font-family="Times,serif" font-size="10.00" fill="#767676">^4.0</text>
</g>
<!-- symfony/serializer -->
<g id="node35" class="node">
<title>symfony/serializer</title>
<path fill="#eeeeee" stroke="black" d="M577.08,-632.88C577.08,-632.88 391.08,-632.88 391.08,-632.88 385.08,-632.88 379.08,-626.88 379.08,-620.88 379.08,-620.88 379.08,-608.88 379.08,-608.88 379.08,-602.88 385.08,-596.88 391.08,-596.88 391.08,-596.88 577.08,-596.88 577.08,-596.88 583.08,-596.88 589.08,-602.88 589.08,-608.88 589.08,-608.88 589.08,-620.88 589.08,-620.88 589.08,-626.88 583.08,-632.88 577.08,-632.88"/>
<text text-anchor="middle" x="484.08" y="-611.18" font-family="Times,serif" font-size="14.00" fill="#314b5f">symfony/serializer: v6.4.15</text>
</g>
<!-- bartlett/php&#45;compatinfo&#45;&gt;symfony/serializer -->
<g id="edge57" class="edge">
<title>bartlett/php&#45;compatinfo&#45;&gt;symfony/serializer</title>
<path fill="none" stroke="#1a2833" d="M124.27,-1208.6C133.11,-1119.4 176.07,-731.04 261.08,-651.88 289.82,-625.12 330.22,-613.67 368.69,-609.63"/>
<polygon fill="#1a2833" stroke="#1a2833" points="369.29,-613.09 378.95,-608.72 368.67,-606.12 369.29,-613.09"/>
<text text-anchor="middle" x="290.58" y="-654.88" font-family="Times,serif" font-size="10.00" fill="#767676">^6.4 || ^7.0</text>
</g>
<!-- symfony/framework&#45;bundle -->
<g id="node38" class="node">
<title>symfony/framework&#45;bundle</title>
<path fill="#eeeeee" stroke="black" d="M609.08,-578.88C609.08,-578.88 359.08,-578.88 359.08,-578.88 353.08,-578.88 347.08,-572.88 347.08,-566.88 347.08,-566.88 347.08,-554.88 347.08,-554.88 347.08,-548.88 353.08,-542.88 359.08,-542.88 359.08,-542.88 609.08,-542.88 609.08,-542.88 615.08,-542.88 621.08,-548.88 621.08,-554.88 621.08,-554.88 621.08,-566.88 621.08,-566.88 621.08,-572.88 615.08,-578.88 609.08,-578.88"/>
<text text-anchor="middle" x="484.08" y="-557.18" font-family="Times,serif" font-size="14.00" fill="#314b5f">symfony/framework&#45;bundle: v6.4.13</text>
</g>
<!-- bartlett/php&#45;compatinfo&#45;&gt;symfony/framework&#45;bundle -->
<g id="edge74" class="edge">
<title>bartlett/php&#45;compatinfo&#45;&gt;symfony/framework&#45;bundle</title>
<path fill="none" stroke="#1a2833" stroke-dasharray="5,2" d="M124,-1208.78C131.84,-1115.9 172.01,-693.79 261.08,-604.88 281.6,-584.4 308.74,-572.07 336.98,-564.89"/>
<polygon fill="#1a2833" stroke="#1a2833" points="338.05,-568.24 347,-562.56 336.47,-561.42 338.05,-568.24"/>
<text text-anchor="middle" x="290.58" y="-607.88" font-family="Times,serif" font-size="10.00" fill="#767676">^6.4 || ^7.0</text>
</g>
<!-- bamarni/composer&#45;bin&#45;plugin -->
<g id="node46" class="node">
<title>bamarni/composer&#45;bin&#45;plugin</title>
<path fill="#eeeeee" stroke="black" d="M607.58,-524.88C607.58,-524.88 360.58,-524.88 360.58,-524.88 354.58,-524.88 348.58,-518.88 348.58,-512.88 348.58,-512.88 348.58,-500.88 348.58,-500.88 348.58,-494.88 354.58,-488.88 360.58,-488.88 360.58,-488.88 607.58,-488.88 607.58,-488.88 613.58,-488.88 619.58,-494.88 619.58,-500.88 619.58,-500.88 619.58,-512.88 619.58,-512.88 619.58,-518.88 613.58,-524.88 607.58,-524.88"/>
<text text-anchor="middle" x="484.08" y="-503.18" font-family="Times,serif" font-size="14.00" fill="#314b5f">bamarni/composer&#45;bin&#45;plugin: 1.8.2</text>
</g>
<!-- bartlett/php&#45;compatinfo&#45;&gt;bamarni/composer&#45;bin&#45;plugin -->
<g id="edge77" class="edge">
<title>bartlett/php&#45;compatinfo&#45;&gt;bamarni/composer&#45;bin&#45;plugin</title>
<path fill="none" stroke="#1a2833" stroke-dasharray="5,2" d="M123.79,-1208.77C130.84,-1111.87 168.64,-655.5 261.08,-555.88 281.52,-533.85 309.44,-520.59 338.59,-512.84"/>
<polygon fill="#1a2833" stroke="#1a2833" points="339.62,-516.19 348.51,-510.41 337.96,-509.39 339.62,-516.19"/>
<text text-anchor="middle" x="290.58" y="-558.88" font-family="Times,serif" font-size="10.00" fill="#767676">^1.8</text>
</g>
<!-- bartlett/php&#45;compatinfo&#45;db&#45;&gt;php -->
<g id="edge14" class="edge">
<title>bartlett/php&#45;compatinfo&#45;db&#45;&gt;php</title>
<path fill="none" stroke="#1a2833" d="M541.93,-1762.77C573.8,-1749.4 610.89,-1727.74 630.08,-1694.88 653.15,-1655.39 618.49,-906.75 648.08,-871.88 704.25,-805.69 758.8,-866.39 840.08,-835.88 888.88,-817.57 939.78,-785.16 971.8,-762.88"/>
<polygon fill="#1a2833" stroke="#1a2833" points="974.15,-765.51 980.31,-756.89 970.12,-759.79 974.15,-765.51"/>
<text text-anchor="middle" x="744.08" y="-874.88" font-family="Times,serif" font-size="10.00" fill="#767676">^8.1</text>
</g>
<!-- bartlett/php&#45;compatinfo&#45;db&#45;&gt;ext&#45;json -->
<g id="edge9" class="edge">
<title>bartlett/php&#45;compatinfo&#45;db&#45;&gt;ext&#45;json</title>
<path fill="none" stroke="#1a2833" d="M535.53,-1762.85C567.25,-1748.99 606.49,-1726.76 630.08,-1694.88 650.21,-1667.67 622.76,-1643.35 648.08,-1620.88 680.22,-1592.37 799.77,-1612.76 840.08,-1597.88 849.1,-1594.55 849.17,-1589.5 858.08,-1585.88 890.35,-1572.8 929.19,-1566.01 958.77,-1562.52"/>
<polygon fill="#1a2833" stroke="#1a2833" points="959.26,-1565.98 968.82,-1561.41 958.5,-1559.02 959.26,-1565.98"/>
<text text-anchor="middle" x="744.08" y="-1623.88" font-family="Times,serif" font-size="10.00" fill="#767676">*</text>
</g>
<!-- bartlett/php&#45;compatinfo&#45;db&#45;&gt;ext&#45;pcre -->
<g id="edge10" class="edge">
<title>bartlett/php&#45;compatinfo&#45;db&#45;&gt;ext&#45;pcre</title>
<path fill="none" stroke="#1a2833" d="M495.55,-1798.91C522.67,-1846.49 595.48,-1980.1 630.08,-2100.88 638.41,-2129.98 626.43,-2214.74 648.08,-2235.88 678.78,-2265.87 804.1,-2233.48 840.08,-2256.88 853.43,-2265.57 845.05,-2278.71 858.08,-2287.88 887.05,-2308.28 926.98,-2314.58 957.83,-2316.03"/>
<polygon fill="#1a2833" stroke="#1a2833" points="957.81,-2319.53 967.92,-2316.35 958.03,-2312.53 957.81,-2319.53"/>
<text text-anchor="middle" x="744.08" y="-2259.88" font-family="Times,serif" font-size="10.00" fill="#767676">*</text>
</g>
<!-- bartlett/php&#45;compatinfo&#45;db&#45;&gt;ext&#45;spl -->
<g id="edge13" class="edge">
<title>bartlett/php&#45;compatinfo&#45;db&#45;&gt;ext&#45;spl</title>
<path fill="none" stroke="#1a2833" d="M488.33,-1799.05C499.42,-1855.34 541.11,-2028.17 648.08,-2112.88 716.71,-2167.24 778.04,-2095.12 840.08,-2156.88 864.98,-2181.68 832.65,-2209.63 858.08,-2233.88 885.69,-2260.22 930.13,-2265.17 962.84,-2264.63"/>
<polygon fill="#1a2833" stroke="#1a2833" points="963.13,-2268.12 973.01,-2264.29 962.89,-2261.13 963.13,-2268.12"/>
<text text-anchor="middle" x="744.08" y="-2159.88" font-family="Times,serif" font-size="10.00" fill="#767676">*</text>
</g>
<!-- bartlett/php&#45;compatinfo&#45;db&#45;&gt;composer&#45;runtime&#45;api -->
<g id="edge5" class="edge">
<title>bartlett/php&#45;compatinfo&#45;db&#45;&gt;composer&#45;runtime&#45;api</title>
<path fill="none" stroke="#1a2833" d="M540.04,-1762.75C571.86,-1749.25 609.56,-1727.44 630.08,-1694.88 653.99,-1656.95 616.46,-1525.69 648.08,-1493.88 657.24,-1484.67 806.48,-1472.99 908.93,-1465.99"/>
<polygon fill="#1a2833" stroke="#1a2833" points="909.26,-1469.48 919,-1465.31 908.79,-1462.5 909.26,-1469.48"/>
<text text-anchor="middle" x="744.08" y="-1496.88" font-family="Times,serif" font-size="10.00" fill="#767676">^2.0</text>
</g>
<!-- composer/semver -->
<g id="node8" class="node">
<title>composer/semver</title>
<path fill="#eeeeee" stroke="black" d="M1087.58,-2170.88C1087.58,-2170.88 923.58,-2170.88 923.58,-2170.88 917.58,-2170.88 911.58,-2164.88 911.58,-2158.88 911.58,-2158.88 911.58,-2146.88 911.58,-2146.88 911.58,-2140.88 917.58,-2134.88 923.58,-2134.88 923.58,-2134.88 1087.58,-2134.88 1087.58,-2134.88 1093.58,-2134.88 1099.58,-2140.88 1099.58,-2146.88 1099.58,-2146.88 1099.58,-2158.88 1099.58,-2158.88 1099.58,-2164.88 1093.58,-2170.88 1087.58,-2170.88"/>
<text text-anchor="middle" x="1005.58" y="-2149.18" font-family="Times,serif" font-size="14.00" fill="#314b5f">composer/semver: 3.4.3</text>
</g>
<!-- bartlett/php&#45;compatinfo&#45;db&#45;&gt;composer/semver -->
<g id="edge6" class="edge">
<title>bartlett/php&#45;compatinfo&#45;db&#45;&gt;composer/semver</title>
<path fill="none" stroke="#1a2833" d="M490.36,-1798.97C505.61,-1847.64 554.71,-1981.69 648.08,-2040.88 720.66,-2086.9 774.55,-2008.27 840.08,-2063.88 861.96,-2082.45 836.8,-2106.64 858.08,-2125.88 870.31,-2136.95 885.54,-2144.17 901.51,-2148.79"/>
<polygon fill="#1a2833" stroke="#1a2833" points="900.98,-2152.26 911.53,-2151.33 902.7,-2145.48 900.98,-2152.26"/>
<text text-anchor="middle" x="744.08" y="-2066.88" font-family="Times,serif" font-size="10.00" fill="#767676">^3.0</text>
</g>
<!-- doctrine/dbal -->
<g id="node9" class="node">
<title>doctrine/dbal</title>
<path fill="#eeeeee" stroke="black" d="M1071.58,-2116.88C1071.58,-2116.88 939.58,-2116.88 939.58,-2116.88 933.58,-2116.88 927.58,-2110.88 927.58,-2104.88 927.58,-2104.88 927.58,-2092.88 927.58,-2092.88 927.58,-2086.88 933.58,-2080.88 939.58,-2080.88 939.58,-2080.88 1071.58,-2080.88 1071.58,-2080.88 1077.58,-2080.88 1083.58,-2086.88 1083.58,-2092.88 1083.58,-2092.88 1083.58,-2104.88 1083.58,-2104.88 1083.58,-2110.88 1077.58,-2116.88 1071.58,-2116.88"/>
<text text-anchor="middle" x="1005.58" y="-2095.18" font-family="Times,serif" font-size="14.00" fill="#314b5f">doctrine/dbal: 4.2.1</text>
</g>
<!-- bartlett/php&#45;compatinfo&#45;db&#45;&gt;doctrine/dbal -->
<g id="edge7" class="edge">
<title>bartlett/php&#45;compatinfo&#45;db&#45;&gt;doctrine/dbal</title>
<path fill="none" stroke="#1a2833" d="M492.13,-1799.19C510.29,-1843.57 563.27,-1956.9 648.08,-2006.88 722.12,-2050.52 771.28,-1978.38 840.08,-2029.88 856.34,-2042.05 842.21,-2059.21 858.08,-2071.88 874.91,-2085.33 896.3,-2092.89 917.5,-2096.96"/>
<polygon fill="#1a2833" stroke="#1a2833" points="917.1,-2100.44 927.54,-2098.64 918.26,-2093.54 917.1,-2100.44"/>
<text text-anchor="middle" x="744.08" y="-2032.88" font-family="Times,serif" font-size="10.00" fill="#767676">^4.0</text>
</g>
<!-- doctrine/orm -->
<g id="node10" class="node">
<title>doctrine/orm</title>
<path fill="#eeeeee" stroke="black" d="M1070.58,-2062.88C1070.58,-2062.88 940.58,-2062.88 940.58,-2062.88 934.58,-2062.88 928.58,-2056.88 928.58,-2050.88 928.58,-2050.88 928.58,-2038.88 928.58,-2038.88 928.58,-2032.88 934.58,-2026.88 940.58,-2026.88 940.58,-2026.88 1070.58,-2026.88 1070.58,-2026.88 1076.58,-2026.88 1082.58,-2032.88 1082.58,-2038.88 1082.58,-2038.88 1082.58,-2050.88 1082.58,-2050.88 1082.58,-2056.88 1076.58,-2062.88 1070.58,-2062.88"/>
<text text-anchor="middle" x="1005.58" y="-2041.18" font-family="Times,serif" font-size="14.00" fill="#314b5f">doctrine/orm: 3.3.1</text>
</g>
<!-- bartlett/php&#45;compatinfo&#45;db&#45;&gt;doctrine/orm -->
<g id="edge8" class="edge">
<title>bartlett/php&#45;compatinfo&#45;db&#45;&gt;doctrine/orm</title>
<path fill="none" stroke="#1a2833" d="M494.32,-1799.08C515.45,-1838.52 571.43,-1931.7 648.08,-1972.88 723.78,-2013.56 764.74,-1954.52 840.08,-1995.88 851.15,-2001.96 847.2,-2011.46 858.08,-2017.88 876.16,-2028.57 897.51,-2035.19 918.24,-2039.25"/>
<polygon fill="#1a2833" stroke="#1a2833" points="917.89,-2042.75 928.35,-2041.05 919.12,-2035.85 917.89,-2042.75"/>
<text text-anchor="middle" x="744.08" y="-1998.88" font-family="Times,serif" font-size="10.00" fill="#767676">^3.3</text>
</g>
<!-- ext&#45;pdo -->
<g id="node11" class="node">
<title>ext&#45;pdo</title>
<path fill="#eeeeee" stroke="black" d="M1028.58,-2008.88C1028.58,-2008.88 982.58,-2008.88 982.58,-2008.88 976.58,-2008.88 970.58,-2002.88 970.58,-1996.88 970.58,-1996.88 970.58,-1984.88 970.58,-1984.88 970.58,-1978.88 976.58,-1972.88 982.58,-1972.88 982.58,-1972.88 1028.58,-1972.88 1028.58,-1972.88 1034.58,-1972.88 1040.58,-1978.88 1040.58,-1984.88 1040.58,-1984.88 1040.58,-1996.88 1040.58,-1996.88 1040.58,-2002.88 1034.58,-2008.88 1028.58,-2008.88"/>
<text text-anchor="middle" x="1005.58" y="-1987.18" font-family="Times,serif" font-size="14.00" fill="#314b5f">ext&#45;pdo</text>
</g>
<!-- bartlett/php&#45;compatinfo&#45;db&#45;&gt;ext&#45;pdo -->
<g id="edge11" class="edge">
<title>bartlett/php&#45;compatinfo&#45;db&#45;&gt;ext&#45;pdo</title>
<path fill="none" stroke="#1a2833" d="M497.36,-1798.94C521.63,-1832.98 579.41,-1906.17 648.08,-1938.88 725.67,-1975.84 755.06,-1949.31 840.08,-1961.88 880.85,-1967.91 927.05,-1976.19 960.09,-1982.35"/>
<polygon fill="#1a2833" stroke="#1a2833" points="959.85,-1985.87 970.33,-1984.28 961.14,-1978.99 959.85,-1985.87"/>
<text text-anchor="middle" x="744.08" y="-1964.88" font-family="Times,serif" font-size="10.00" fill="#767676">*</text>
</g>
<!-- ext&#45;phar -->
<g id="node12" class="node">
<title>ext&#45;phar</title>
<path fill="#eeeeee" stroke="black" d="M1032.08,-1954.88C1032.08,-1954.88 979.08,-1954.88 979.08,-1954.88 973.08,-1954.88 967.08,-1948.88 967.08,-1942.88 967.08,-1942.88 967.08,-1930.88 967.08,-1930.88 967.08,-1924.88 973.08,-1918.88 979.08,-1918.88 979.08,-1918.88 1032.08,-1918.88 1032.08,-1918.88 1038.08,-1918.88 1044.08,-1924.88 1044.08,-1930.88 1044.08,-1930.88 1044.08,-1942.88 1044.08,-1942.88 1044.08,-1948.88 1038.08,-1954.88 1032.08,-1954.88"/>
<text text-anchor="middle" x="1005.58" y="-1933.18" font-family="Times,serif" font-size="14.00" fill="#314b5f">ext&#45;phar</text>
</g>
<!-- bartlett/php&#45;compatinfo&#45;db&#45;&gt;ext&#45;phar -->
<g id="edge12" class="edge">
<title>bartlett/php&#45;compatinfo&#45;db&#45;&gt;ext&#45;phar</title>
<path fill="none" stroke="#1a2833" d="M506.96,-1798.97C536.84,-1822.61 593,-1863.43 648.08,-1883.88 753.53,-1923.04 886.68,-1933.34 956.62,-1936"/>
<polygon fill="#1a2833" stroke="#1a2833" points="956.77,-1939.51 966.88,-1936.35 957.01,-1932.51 956.77,-1939.51"/>
<text text-anchor="middle" x="744.08" y="-1928.88" font-family="Times,serif" font-size="10.00" fill="#767676">*</text>
</g>
<!-- symfony/cache -->
<g id="node13" class="node">
<title>symfony/cache</title>
<path fill="#eeeeee" stroke="black" d="M1085.58,-957.88C1085.58,-957.88 925.58,-957.88 925.58,-957.88 919.58,-957.88 913.58,-951.88 913.58,-945.88 913.58,-945.88 913.58,-933.88 913.58,-933.88 913.58,-927.88 919.58,-921.88 925.58,-921.88 925.58,-921.88 1085.58,-921.88 1085.58,-921.88 1091.58,-921.88 1097.58,-927.88 1097.58,-933.88 1097.58,-933.88 1097.58,-945.88 1097.58,-945.88 1097.58,-951.88 1091.58,-957.88 1085.58,-957.88"/>
<text text-anchor="middle" x="1005.58" y="-936.18" font-family="Times,serif" font-size="14.00" fill="#314b5f">symfony/cache: v6.4.16</text>
</g>
<!-- bartlett/php&#45;compatinfo&#45;db&#45;&gt;symfony/cache -->
<g id="edge15" class="edge">
<title>bartlett/php&#45;compatinfo&#45;db&#45;&gt;symfony/cache</title>
<path fill="none" stroke="#1a2833" d="M541.89,-1762.74C573.74,-1749.37 610.83,-1727.71 630.08,-1694.88 650.09,-1660.75 621.46,-1012.16 648.08,-982.88 681.31,-946.34 810.02,-938.56 903.26,-937.94"/>
<polygon fill="#1a2833" stroke="#1a2833" points="903.31,-941.44 913.3,-937.9 903.29,-934.44 903.31,-941.44"/>
<text text-anchor="middle" x="744.08" y="-985.88" font-family="Times,serif" font-size="10.00" fill="#767676">^6.4 || ^7.0</text>
</g>
<!-- bartlett/php&#45;compatinfo&#45;db&#45;&gt;symfony/config -->
<g id="edge16" class="edge">
<title>bartlett/php&#45;compatinfo&#45;db&#45;&gt;symfony/config</title>
<path fill="none" stroke="#1a2833" d="M540.74,-1762.8C572.59,-1749.36 610.09,-1727.6 630.08,-1694.88 664.2,-1639.02 602.59,-1447.95 648.08,-1400.88 652.52,-1396.29 798.49,-1383.56 902.25,-1375.04"/>
<polygon fill="#1a2833" stroke="#1a2833" points="902.79,-1378.51 912.47,-1374.21 902.21,-1371.54 902.79,-1378.51"/>
<text text-anchor="middle" x="744.08" y="-1403.88" font-family="Times,serif" font-size="10.00" fill="#767676">^6.4 || ^7.0</text>
</g>
<!-- bartlett/php&#45;compatinfo&#45;db&#45;&gt;symfony/console -->
<g id="edge17" class="edge">
<title>bartlett/php&#45;compatinfo&#45;db&#45;&gt;symfony/console</title>
<path fill="none" stroke="#1a2833" d="M519.65,-1762.74C551.95,-1746.65 601.98,-1723.88 648.08,-1711.88 689.61,-1701.07 806.44,-1717.54 840.08,-1690.88 858.92,-1675.95 839.8,-1655.5 858.08,-1639.88 869.26,-1630.33 882.71,-1623.69 896.86,-1619.14"/>
<polygon fill="#1a2833" stroke="#1a2833" points="898.1,-1622.43 906.75,-1616.31 896.17,-1615.69 898.1,-1622.43"/>
<text text-anchor="middle" x="744.08" y="-1714.88" font-family="Times,serif" font-size="10.00" fill="#767676">^6.4 || ^7.0</text>
</g>
<!-- bartlett/php&#45;compatinfo&#45;db&#45;&gt;symfony/dependency&#45;injection -->
<g id="edge18" class="edge">
<title>bartlett/php&#45;compatinfo&#45;db&#45;&gt;symfony/dependency&#45;injection</title>
<path fill="none" stroke="#1a2833" d="M541.27,-1762.75C573.11,-1749.33 610.41,-1727.63 630.08,-1694.88 652.25,-1657.98 618.39,-1339.05 648.08,-1307.88 651.75,-1304.03 753.78,-1294.55 847.74,-1286.57"/>
<polygon fill="#1a2833" stroke="#1a2833" points="848.31,-1290.04 857.98,-1285.71 847.72,-1283.06 848.31,-1290.04"/>
<text text-anchor="middle" x="744.08" y="-1310.88" font-family="Times,serif" font-size="10.00" fill="#767676">^6.4 || ^7.0</text>
</g>
<!-- bartlett/php&#45;compatinfo&#45;db&#45;&gt;symfony/event&#45;dispatcher -->
<g id="edge19" class="edge">
<title>bartlett/php&#45;compatinfo&#45;db&#45;&gt;symfony/event&#45;dispatcher</title>
<path fill="none" stroke="#1a2833" d="M541.38,-1762.81C573.26,-1749.42 610.56,-1727.71 630.08,-1694.88 657.36,-1649.01 611.44,-1253.69 648.08,-1214.88 651.95,-1210.79 765.83,-1200.42 863.85,-1192.2"/>
<polygon fill="#1a2833" stroke="#1a2833" points="864.22,-1195.68 873.89,-1191.36 863.63,-1188.71 864.22,-1195.68"/>
<text text-anchor="middle" x="744.08" y="-1217.88" font-family="Times,serif" font-size="10.00" fill="#767676">^6.4 || ^7.0</text>
</g>
<!-- bartlett/php&#45;compatinfo&#45;db&#45;&gt;symfony/finder -->
<g id="edge20" class="edge">
<title>bartlett/php&#45;compatinfo&#45;db&#45;&gt;symfony/finder</title>
<path fill="none" stroke="#1a2833" d="M541.45,-1762.86C573.36,-1749.48 610.66,-1727.77 630.08,-1694.88 662.58,-1639.84 603.31,-1165.51 648.08,-1119.88 665.65,-1101.97 803.64,-1099.52 902.68,-1100.13"/>
<polygon fill="#1a2833" stroke="#1a2833" points="902.71,-1103.63 912.74,-1100.21 902.76,-1096.64 902.71,-1103.63"/>
<text text-anchor="middle" x="744.08" y="-1122.88" font-family="Times,serif" font-size="10.00" fill="#767676">^6.4 || ^7.0</text>
</g>
<!-- symfony/http&#45;client -->
<g id="node19" class="node">
<title>symfony/http&#45;client</title>
<path fill="#eeeeee" stroke="black" d="M1102.58,-1900.88C1102.58,-1900.88 908.58,-1900.88 908.58,-1900.88 902.58,-1900.88 896.58,-1894.88 896.58,-1888.88 896.58,-1888.88 896.58,-1876.88 896.58,-1876.88 896.58,-1870.88 902.58,-1864.88 908.58,-1864.88 908.58,-1864.88 1102.58,-1864.88 1102.58,-1864.88 1108.58,-1864.88 1114.58,-1870.88 1114.58,-1876.88 1114.58,-1876.88 1114.58,-1888.88 1114.58,-1888.88 1114.58,-1894.88 1108.58,-1900.88 1102.58,-1900.88"/>
<text text-anchor="middle" x="1005.58" y="-1879.18" font-family="Times,serif" font-size="14.00" fill="#314b5f">symfony/http&#45;client: v6.4.16</text>
</g>
<!-- bartlett/php&#45;compatinfo&#45;db&#45;&gt;symfony/http&#45;client -->
<g id="edge21" class="edge">
<title>bartlett/php&#45;compatinfo&#45;db&#45;&gt;symfony/http&#45;client</title>
<path fill="none" stroke="#1a2833" d="M527.55,-1798.89C560,-1811.94 606.13,-1828.96 648.08,-1838.88 726.31,-1857.39 816.15,-1868.42 886.07,-1874.8"/>
<polygon fill="#1a2833" stroke="#1a2833" points="885.97,-1878.31 896.24,-1875.71 886.59,-1871.34 885.97,-1878.31"/>
<text text-anchor="middle" x="744.08" y="-1871.88" font-family="Times,serif" font-size="10.00" fill="#767676">^6.4 || ^7.0</text>
</g>
<!-- symfony/messenger -->
<g id="node20" class="node">
<title>symfony/messenger</title>
<path fill="#eeeeee" stroke="black" d="M1104.08,-1846.88C1104.08,-1846.88 907.08,-1846.88 907.08,-1846.88 901.08,-1846.88 895.08,-1840.88 895.08,-1834.88 895.08,-1834.88 895.08,-1822.88 895.08,-1822.88 895.08,-1816.88 901.08,-1810.88 907.08,-1810.88 907.08,-1810.88 1104.08,-1810.88 1104.08,-1810.88 1110.08,-1810.88 1116.08,-1816.88 1116.08,-1822.88 1116.08,-1822.88 1116.08,-1834.88 1116.08,-1834.88 1116.08,-1840.88 1110.08,-1846.88 1104.08,-1846.88"/>
<text text-anchor="middle" x="1005.58" y="-1825.18" font-family="Times,serif" font-size="14.00" fill="#314b5f">symfony/messenger: v6.4.16</text>
</g>
<!-- bartlett/php&#45;compatinfo&#45;db&#45;&gt;symfony/messenger -->
<g id="edge22" class="edge">
<title>bartlett/php&#45;compatinfo&#45;db&#45;&gt;symfony/messenger</title>
<path fill="none" stroke="#1a2833" d="M574.89,-1798.9C598.61,-1803.1 624.24,-1807.14 648.08,-1809.88 726.72,-1818.94 815.63,-1823.69 884.98,-1826.17"/>
<polygon fill="#1a2833" stroke="#1a2833" points="884.95,-1829.68 895.07,-1826.53 885.2,-1822.68 884.95,-1829.68"/>
<text text-anchor="middle" x="744.08" y="-1826.88" font-family="Times,serif" font-size="10.00" fill="#767676">^6.4 || ^7.0</text>
</g>
<!-- symfony/polyfill&#45;php84 -->
<g id="node21" class="node">
<title>symfony/polyfill&#45;php84</title>
<path fill="#eeeeee" stroke="black" d="M1114.08,-1792.88C1114.08,-1792.88 897.08,-1792.88 897.08,-1792.88 891.08,-1792.88 885.08,-1786.88 885.08,-1780.88 885.08,-1780.88 885.08,-1768.88 885.08,-1768.88 885.08,-1762.88 891.08,-1756.88 897.08,-1756.88 897.08,-1756.88 1114.08,-1756.88 1114.08,-1756.88 1120.08,-1756.88 1126.08,-1762.88 1126.08,-1768.88 1126.08,-1768.88 1126.08,-1780.88 1126.08,-1780.88 1126.08,-1786.88 1120.08,-1792.88 1114.08,-1792.88"/>
<text text-anchor="middle" x="1005.58" y="-1771.18" font-family="Times,serif" font-size="14.00" fill="#314b5f">symfony/polyfill&#45;php84: v1.31.0</text>
</g>
<!-- bartlett/php&#45;compatinfo&#45;db&#45;&gt;symfony/polyfill&#45;php84 -->
<g id="edge23" class="edge">
<title>bartlett/php&#45;compatinfo&#45;db&#45;&gt;symfony/polyfill&#45;php84</title>
<path fill="none" stroke="#1a2833" d="M630.35,-1792.12C636.34,-1792.41 642.27,-1792.67 648.08,-1792.88 733.35,-1796.02 754.87,-1797.53 840.08,-1792.88 851.28,-1792.27 862.9,-1791.43 874.54,-1790.44"/>
<polygon fill="#1a2833" stroke="#1a2833" points="875.11,-1793.9 884.76,-1789.53 874.49,-1786.93 875.11,-1793.9"/>
<text text-anchor="middle" x="744.08" y="-1797.88" font-family="Times,serif" font-size="10.00" fill="#767676">^1.0</text>
</g>
<!-- symfony/process -->
<g id="node22" class="node">
<title>symfony/process</title>
<path fill="#eeeeee" stroke="black" d="M1092.58,-1738.88C1092.58,-1738.88 918.58,-1738.88 918.58,-1738.88 912.58,-1738.88 906.58,-1732.88 906.58,-1726.88 906.58,-1726.88 906.58,-1714.88 906.58,-1714.88 906.58,-1708.88 912.58,-1702.88 918.58,-1702.88 918.58,-1702.88 1092.58,-1702.88 1092.58,-1702.88 1098.58,-1702.88 1104.58,-1708.88 1104.58,-1714.88 1104.58,-1714.88 1104.58,-1726.88 1104.58,-1726.88 1104.58,-1732.88 1098.58,-1738.88 1092.58,-1738.88"/>
<text text-anchor="middle" x="1005.58" y="-1717.18" font-family="Times,serif" font-size="14.00" fill="#314b5f">symfony/process: v6.4.15</text>
</g>
<!-- bartlett/php&#45;compatinfo&#45;db&#45;&gt;symfony/process -->
<g id="edge24" class="edge">
<title>bartlett/php&#45;compatinfo&#45;db&#45;&gt;symfony/process</title>
<path fill="none" stroke="#1a2833" d="M630.13,-1778.92C710.5,-1776.45 801.72,-1770.97 840.08,-1758.88 849.02,-1756.07 849.32,-1751.23 858.08,-1747.88 870.2,-1743.24 883.21,-1739.39 896.28,-1736.18"/>
<polygon fill="#1a2833" stroke="#1a2833" points="897.33,-1739.53 906.28,-1733.86 895.74,-1732.71 897.33,-1739.53"/>
<text text-anchor="middle" x="744.08" y="-1780.88" font-family="Times,serif" font-size="10.00" fill="#767676">^6.4 || ^7.0</text>
</g>
<!-- symfony/requirements&#45;checker -->
<g id="node23" class="node">
<title>symfony/requirements&#45;checker</title>
<path fill="#eeeeee" stroke="black" d="M1139.08,-1684.88C1139.08,-1684.88 872.08,-1684.88 872.08,-1684.88 866.08,-1684.88 860.08,-1678.88 860.08,-1672.88 860.08,-1672.88 860.08,-1660.88 860.08,-1660.88 860.08,-1654.88 866.08,-1648.88 872.08,-1648.88 872.08,-1648.88 1139.08,-1648.88 1139.08,-1648.88 1145.08,-1648.88 1151.08,-1654.88 1151.08,-1660.88 1151.08,-1660.88 1151.08,-1672.88 1151.08,-1672.88 1151.08,-1678.88 1145.08,-1684.88 1139.08,-1684.88"/>
<text text-anchor="middle" x="1005.58" y="-1663.18" font-family="Times,serif" font-size="14.00" fill="#314b5f">symfony/requirements&#45;checker: v2.0.3</text>
</g>
<!-- bartlett/php&#45;compatinfo&#45;db&#45;&gt;symfony/requirements&#45;checker -->
<g id="edge25" class="edge">
<title>bartlett/php&#45;compatinfo&#45;db&#45;&gt;symfony/requirements&#45;checker</title>
<path fill="none" stroke="#1a2833" d="M561.06,-1762.88C588.38,-1756.85 619.51,-1750.5 648.08,-1745.88 690.45,-1739.04 804.1,-1748.29 840.08,-1724.88 853.43,-1716.19 845.05,-1703.06 858.08,-1693.88 860.01,-1692.52 861.99,-1691.22 864.02,-1689.99"/>
<polygon fill="#1a2833" stroke="#1a2833" points="866.09,-1692.84 873.15,-1684.93 862.71,-1686.71 866.09,-1692.84"/>
<text text-anchor="middle" x="744.08" y="-1748.88" font-family="Times,serif" font-size="10.00" fill="#767676">^2.0</text>
</g>
<!-- bartlett/php&#45;compatinfo&#45;db&#45;&gt;symfony/stopwatch -->
<g id="edge26" class="edge">
<title>bartlett/php&#45;compatinfo&#45;db&#45;&gt;symfony/stopwatch</title>
<path fill="none" stroke="#1a2833" d="M489.03,-1798.95C501.63,-1851.74 546.13,-2006.34 648.08,-2074.88 719.4,-2122.83 776.44,-2040.13 840.08,-2097.88 867.71,-2122.96 831.25,-2153.95 858.08,-2179.88 866.49,-2188.02 876.51,-2194.12 887.3,-2198.65"/>
<polygon fill="#1a2833" stroke="#1a2833" points="886.36,-2202.04 896.96,-2202.25 888.8,-2195.48 886.36,-2202.04"/>
<text text-anchor="middle" x="744.08" y="-2100.88" font-family="Times,serif" font-size="10.00" fill="#767676">^6.4 || ^7.0</text>
</g>
<!-- bartlett/sarif&#45;php&#45;sdk&#45;&gt;php -->
<g id="edge31" class="edge">
<title>bartlett/sarif&#45;php&#45;sdk&#45;&gt;php</title>
<path fill="none" stroke="#1a2833" d="M584.84,-2171.82C602.47,-2164.17 618.77,-2153.3 630.08,-2137.88 660.46,-2096.46 615.29,-1715.43 648.08,-1675.88 703.95,-1608.49 784.73,-1699.71 840.08,-1631.88 867.24,-1598.6 839.24,-897.49 858.08,-858.88 881.43,-811.01 933.91,-775.67 969.29,-756.17"/>
<polygon fill="#1a2833" stroke="#1a2833" points="971.17,-759.13 978.33,-751.33 967.86,-752.96 971.17,-759.13"/>
<text text-anchor="middle" x="744.08" y="-1678.88" font-family="Times,serif" font-size="10.00" fill="#767676">^8.1</text>
</g>
<!-- bartlett/sarif&#45;php&#45;sdk&#45;&gt;ext&#45;json -->
<g id="edge28" class="edge">
<title>bartlett/sarif&#45;php&#45;sdk&#45;&gt;ext&#45;json</title>
<path fill="none" stroke="#1a2833" d="M590.94,-2186.76C692.39,-2183.25 831.4,-2176.83 840.08,-2167.88 885.11,-2121.43 815.92,-1634.96 858.08,-1585.88 882.26,-1557.74 925.35,-1552.66 958.56,-1553.63"/>
<polygon fill="#1a2833" stroke="#1a2833" points="958.8,-1557.15 968.96,-1554.14 959.14,-1550.16 958.8,-1557.15"/>
<text text-anchor="middle" x="744.08" y="-2186.88" font-family="Times,serif" font-size="10.00" fill="#767676">*</text>
</g>
<!-- bartlett/sarif&#45;php&#45;sdk&#45;&gt;ext&#45;pcre -->
<g id="edge29" class="edge">
<title>bartlett/sarif&#45;php&#45;sdk&#45;&gt;ext&#45;pcre</title>
<path fill="none" stroke="#1a2833" d="M514.5,-2208.05C546.23,-2226.74 598.85,-2255.15 648.08,-2269.88 755.8,-2302.14 888.56,-2311.28 957.7,-2313.87"/>
<polygon fill="#1a2833" stroke="#1a2833" points="957.72,-2317.37 967.83,-2314.22 957.96,-2310.37 957.72,-2317.37"/>
<text text-anchor="middle" x="744.08" y="-2307.88" font-family="Times,serif" font-size="10.00" fill="#767676">*</text>
</g>
<!-- bartlett/sarif&#45;php&#45;sdk&#45;&gt;ext&#45;spl -->
<g id="edge30" class="edge">
<title>bartlett/sarif&#45;php&#45;sdk&#45;&gt;ext&#45;spl</title>
<path fill="none" stroke="#1a2833" d="M590.99,-2198.36C686.86,-2206.36 816.57,-2218.1 840.08,-2224.88 848.67,-2227.36 849.6,-2231.05 858.08,-2233.88 892.52,-2245.41 933.27,-2252.42 963.03,-2256.39"/>
<polygon fill="#1a2833" stroke="#1a2833" points="962.71,-2259.88 973.07,-2257.67 963.6,-2252.94 962.71,-2259.88"/>
<text text-anchor="middle" x="744.08" y="-2227.88" font-family="Times,serif" font-size="10.00" fill="#767676">*</text>
</g>
<!-- doctrine/collections&#45;&gt;php -->
<g id="edge35" class="edge">
<title>doctrine/collections&#45;&gt;php</title>
<path fill="none" stroke="#1a2833" d="M556.6,-873.75C582.27,-864.37 609.85,-850.62 630.08,-830.88 644.03,-817.27 632.37,-802.43 648.08,-790.88 682.71,-765.44 797.57,-774.17 840.08,-767.88 884.34,-761.34 935.01,-752.15 968.28,-745.88"/>
<polygon fill="#1a2833" stroke="#1a2833" points="969.27,-749.25 978.44,-743.95 967.96,-742.38 969.27,-749.25"/>
<text text-anchor="middle" x="744.08" y="-793.88" font-family="Times,serif" font-size="10.00" fill="#767676">^8.1</text>
</g>
<!-- doctrine/deprecations -->
<g id="node27" class="node">
<title>doctrine/deprecations</title>
<path fill="#eeeeee" stroke="black" d="M1102.58,-903.88C1102.58,-903.88 908.58,-903.88 908.58,-903.88 902.58,-903.88 896.58,-897.88 896.58,-891.88 896.58,-891.88 896.58,-879.88 896.58,-879.88 896.58,-873.88 902.58,-867.88 908.58,-867.88 908.58,-867.88 1102.58,-867.88 1102.58,-867.88 1108.58,-867.88 1114.58,-873.88 1114.58,-879.88 1114.58,-879.88 1114.58,-891.88 1114.58,-891.88 1114.58,-897.88 1108.58,-903.88 1102.58,-903.88"/>
<text text-anchor="middle" x="1005.58" y="-882.18" font-family="Times,serif" font-size="14.00" fill="#314b5f">doctrine/deprecations: 1.1.4</text>
</g>
<!-- doctrine/collections&#45;&gt;doctrine/deprecations -->
<g id="edge34" class="edge">
<title>doctrine/collections&#45;&gt;doctrine/deprecations</title>
<path fill="none" stroke="#1a2833" d="M584.63,-890.73C670.67,-889.74 795.2,-888.3 886.3,-887.25"/>
<polygon fill="#1a2833" stroke="#1a2833" points="886.45,-890.75 896.4,-887.13 886.36,-883.75 886.45,-890.75"/>
<text text-anchor="middle" x="744.08" y="-892.88" font-family="Times,serif" font-size="10.00" fill="#767676">^1</text>
</g>
<!-- nikic/php&#45;parser&#45;&gt;php -->
<g id="edge40" class="edge">
<title>nikic/php&#45;parser&#45;&gt;php</title>
<path fill="none" stroke="#1a2833" d="M522.92,-1009.71C556.54,-991.52 604.24,-960.3 630.08,-918.88 652.59,-882.79 616.97,-853.89 648.08,-824.88 679.51,-795.58 798.36,-812.2 840.08,-801.88 886.01,-790.52 936.51,-769.88 969.28,-755.33"/>
<polygon fill="#1a2833" stroke="#1a2833" points="970.76,-758.5 978.44,-751.21 967.89,-752.12 970.76,-758.5"/>
<text text-anchor="middle" x="744.08" y="-827.88" font-family="Times,serif" font-size="10.00" fill="#767676">&gt;=7.4</text>
</g>
<!-- nikic/php&#45;parser&#45;&gt;ext&#45;json -->
<g id="edge38" class="edge">
<title>nikic/php&#45;parser&#45;&gt;ext&#45;json</title>
<path fill="none" stroke="#1a2833" d="M577.22,-1033.83C597.52,-1039.6 616.89,-1049.44 630.08,-1065.88 663,-1106.9 611.23,-1501.36 648.08,-1538.88 669.38,-1560.58 867.41,-1560.77 958.78,-1559.67"/>
<polygon fill="#1a2833" stroke="#1a2833" points="958.9,-1563.17 968.85,-1559.54 958.81,-1556.17 958.9,-1563.17"/>
<text text-anchor="middle" x="744.08" y="-1561.88" font-family="Times,serif" font-size="10.00" fill="#767676">*</text>
</g>
<!-- ext&#45;ctype -->
<g id="node29" class="node">
<title>ext&#45;ctype</title>
<path fill="#eeeeee" stroke="black" d="M1035.08,-1065.88C1035.08,-1065.88 976.08,-1065.88 976.08,-1065.88 970.08,-1065.88 964.08,-1059.88 964.08,-1053.88 964.08,-1053.88 964.08,-1041.88 964.08,-1041.88 964.08,-1035.88 970.08,-1029.88 976.08,-1029.88 976.08,-1029.88 1035.08,-1029.88 1035.08,-1029.88 1041.08,-1029.88 1047.08,-1035.88 1047.08,-1041.88 1047.08,-1041.88 1047.08,-1053.88 1047.08,-1053.88 1047.08,-1059.88 1041.08,-1065.88 1035.08,-1065.88"/>
<text text-anchor="middle" x="1005.58" y="-1044.18" font-family="Times,serif" font-size="14.00" fill="#314b5f">ext&#45;ctype</text>
</g>
<!-- nikic/php&#45;parser&#45;&gt;ext&#45;ctype -->
<g id="edge37" class="edge">
<title>nikic/php&#45;parser&#45;&gt;ext&#45;ctype</title>
<path fill="none" stroke="#1a2833" d="M577.11,-1025.32C648.83,-1024 750.87,-1023.62 840.08,-1028.88 878.28,-1031.14 921.22,-1036.18 953.65,-1040.51"/>
<polygon fill="#1a2833" stroke="#1a2833" points="953.41,-1044.01 963.79,-1041.88 954.35,-1037.07 953.41,-1044.01"/>
<text text-anchor="middle" x="744.08" y="-1031.88" font-family="Times,serif" font-size="10.00" fill="#767676">*</text>
</g>
<!-- ext&#45;tokenizer -->
<g id="node30" class="node">
<title>ext&#45;tokenizer</title>
<path fill="#eeeeee" stroke="black" d="M1048.58,-1011.88C1048.58,-1011.88 962.58,-1011.88 962.58,-1011.88 956.58,-1011.88 950.58,-1005.88 950.58,-999.88 950.58,-999.88 950.58,-987.88 950.58,-987.88 950.58,-981.88 956.58,-975.88 962.58,-975.88 962.58,-975.88 1048.58,-975.88 1048.58,-975.88 1054.58,-975.88 1060.58,-981.88 1060.58,-987.88 1060.58,-987.88 1060.58,-999.88 1060.58,-999.88 1060.58,-1005.88 1054.58,-1011.88 1048.58,-1011.88"/>
<text text-anchor="middle" x="1005.58" y="-990.18" font-family="Times,serif" font-size="14.00" fill="#314b5f">ext&#45;tokenizer</text>
</g>
<!-- nikic/php&#45;parser&#45;&gt;ext&#45;tokenizer -->
<g id="edge39" class="edge">
<title>nikic/php&#45;parser&#45;&gt;ext&#45;tokenizer</title>
<path fill="none" stroke="#1a2833" d="M577.2,-1015.94C600.31,-1013.28 625.07,-1010.71 648.08,-1008.88 750.05,-1000.81 868.8,-996.91 940.26,-995.16"/>
<polygon fill="#1a2833" stroke="#1a2833" points="940.53,-998.65 950.45,-994.92 940.37,-991.66 940.53,-998.65"/>
<text text-anchor="middle" x="744.08" y="-1011.88" font-family="Times,serif" font-size="10.00" fill="#767676">*</text>
</g>
<!-- psr/log&#45;&gt;php -->
<g id="edge42" class="edge">
<title>psr/log&#45;&gt;php</title>
<path fill="none" stroke="#1a2833" d="M536.13,-785.88C567.91,-775.49 609.88,-763.27 648.08,-756.88 763.88,-737.53 903.53,-736.96 968.31,-737.98"/>
<polygon fill="#1a2833" stroke="#1a2833" points="968.35,-741.48 978.41,-738.16 968.48,-734.48 968.35,-741.48"/>
<text text-anchor="middle" x="744.08" y="-759.88" font-family="Times,serif" font-size="10.00" fill="#767676">&gt;=8.0.0</text>
</g>
<!-- ramsey/uuid&#45;&gt;php -->
<g id="edge46" class="edge">
<title>ramsey/uuid&#45;&gt;php</title>
<path fill="none" stroke="#1a2833" d="M559.28,-671.43C631.39,-674.73 743.82,-682.06 840.08,-697.88 884.95,-705.26 935.59,-718.67 968.68,-728.14"/>
<polygon fill="#1a2833" stroke="#1a2833" points="967.78,-731.52 978.36,-730.94 969.73,-724.8 967.78,-731.52"/>
<text text-anchor="middle" x="744.08" y="-700.88" font-family="Times,serif" font-size="10.00" fill="#767676">^8.0</text>
</g>
<!-- ramsey/uuid&#45;&gt;ext&#45;json -->
<g id="edge45" class="edge">
<title>ramsey/uuid&#45;&gt;ext&#45;json</title>
<path fill="none" stroke="#1a2833" d="M559.35,-667.37C585.67,-670.92 612.97,-680.07 630.08,-700.88 658.45,-735.4 617.88,-1471.95 648.08,-1504.88 677.09,-1536.52 797.66,-1519.32 840.08,-1525.88 880.51,-1532.14 926.1,-1541.46 959.01,-1548.61"/>
<polygon fill="#1a2833" stroke="#1a2833" points="958.28,-1552.03 968.8,-1550.75 959.78,-1545.19 958.28,-1552.03"/>
<text text-anchor="middle" x="744.08" y="-1528.88" font-family="Times,serif" font-size="10.00" fill="#767676">*</text>
</g>
<!-- brick/math -->
<g id="node33" class="node">
<title>brick/math</title>
<path fill="#eeeeee" stroke="black" d="M1067.58,-680.88C1067.58,-680.88 943.58,-680.88 943.58,-680.88 937.58,-680.88 931.58,-674.88 931.58,-668.88 931.58,-668.88 931.58,-656.88 931.58,-656.88 931.58,-650.88 937.58,-644.88 943.58,-644.88 943.58,-644.88 1067.58,-644.88 1067.58,-644.88 1073.58,-644.88 1079.58,-650.88 1079.58,-656.88 1079.58,-656.88 1079.58,-668.88 1079.58,-668.88 1079.58,-674.88 1073.58,-680.88 1067.58,-680.88"/>
<text text-anchor="middle" x="1005.58" y="-659.18" font-family="Times,serif" font-size="14.00" fill="#314b5f">brick/math: 0.12.1</text>
</g>
<!-- ramsey/uuid&#45;&gt;brick/math -->
<g id="edge44" class="edge">
<title>ramsey/uuid&#45;&gt;brick/math</title>
<path fill="none" stroke="#1a2833" d="M559.31,-666.17C587.15,-665.27 619.06,-664.37 648.08,-663.88 741.57,-662.32 848.86,-662.25 921.12,-662.46"/>
<polygon fill="#1a2833" stroke="#1a2833" points="921.51,-665.96 931.52,-662.49 921.53,-658.96 921.51,-665.96"/>
<text text-anchor="middle" x="744.08" y="-666.88" font-family="Times,serif" font-size="10.00" fill="#767676">^0.8.8 || ^0.9 || ^0.10 || ^0.11 || ^0.12</text>
</g>
<!-- ramsey/collection -->
<g id="node34" class="node">
<title>ramsey/collection</title>
<path fill="#eeeeee" stroke="black" d="M1087.08,-584.88C1087.08,-584.88 924.08,-584.88 924.08,-584.88 918.08,-584.88 912.08,-578.88 912.08,-572.88 912.08,-572.88 912.08,-560.88 912.08,-560.88 912.08,-554.88 918.08,-548.88 924.08,-548.88 924.08,-548.88 1087.08,-548.88 1087.08,-548.88 1093.08,-548.88 1099.08,-554.88 1099.08,-560.88 1099.08,-560.88 1099.08,-572.88 1099.08,-572.88 1099.08,-578.88 1093.08,-584.88 1087.08,-584.88"/>
<text text-anchor="middle" x="1005.58" y="-563.18" font-family="Times,serif" font-size="14.00" fill="#314b5f">ramsey/collection: 2.0.0</text>
</g>
<!-- ramsey/uuid&#45;&gt;ramsey/collection -->
<g id="edge47" class="edge">
<title>ramsey/uuid&#45;&gt;ramsey/collection</title>
<path fill="none" stroke="#1a2833" d="M559.22,-671.69C584.88,-668.77 611.78,-660.7 630.08,-641.88 665.85,-605.12 609.08,-561.21 648.08,-527.88 680.52,-500.17 799.24,-515.52 840.08,-527.88 849.28,-530.67 849.17,-536.27 858.08,-539.88 871.94,-545.5 887.01,-549.96 902.05,-553.5"/>
<polygon fill="#1a2833" stroke="#1a2833" points="901.39,-556.93 911.91,-555.69 902.91,-550.1 901.39,-556.93"/>
<text text-anchor="middle" x="744.08" y="-530.88" font-family="Times,serif" font-size="10.00" fill="#767676">^1.2 || ^2.0</text>
</g>
<!-- symfony/serializer&#45;&gt;php -->
<g id="edge54" class="edge">
<title>symfony/serializer&#45;&gt;php</title>
<path fill="none" stroke="#1a2833" d="M589.18,-612.66C679.41,-612.79 801.39,-618.55 840.08,-646.88 856.79,-659.13 842.9,-675.78 858.08,-689.88 888.57,-718.21 935.94,-730.2 968.51,-735.25"/>
<polygon fill="#1a2833" stroke="#1a2833" points="968.14,-738.73 978.53,-736.66 969.11,-731.8 968.14,-738.73"/>
<text text-anchor="middle" x="744.08" y="-649.88" font-family="Times,serif" font-size="10.00" fill="#767676">&gt;=8.1</text>
</g>
<!-- symfony/deprecation&#45;contracts -->
<g id="node36" class="node">
<title>symfony/deprecation&#45;contracts</title>
<path fill="#eeeeee" stroke="black" d="M1138.58,-476.88C1138.58,-476.88 872.58,-476.88 872.58,-476.88 866.58,-476.88 860.58,-470.88 860.58,-464.88 860.58,-464.88 860.58,-452.88 860.58,-452.88 860.58,-446.88 866.58,-440.88 872.58,-440.88 872.58,-440.88 1138.58,-440.88 1138.58,-440.88 1144.58,-440.88 1150.58,-446.88 1150.58,-452.88 1150.58,-452.88 1150.58,-464.88 1150.58,-464.88 1150.58,-470.88 1144.58,-476.88 1138.58,-476.88"/>
<text text-anchor="middle" x="1005.58" y="-455.18" font-family="Times,serif" font-size="14.00" fill="#314b5f">symfony/deprecation&#45;contracts: v3.5.1</text>
</g>
<!-- symfony/serializer&#45;&gt;symfony/deprecation&#45;contracts -->
<g id="edge55" class="edge">
<title>symfony/serializer&#45;&gt;symfony/deprecation&#45;contracts</title>
<path fill="none" stroke="#1a2833" d="M589.37,-611.71C604.67,-606.94 618.99,-599.42 630.08,-587.88 668.66,-547.73 606.22,-500.62 648.08,-463.88 678.09,-437.55 768.38,-436.48 850.58,-441.91"/>
<polygon fill="#1a2833" stroke="#1a2833" points="850.34,-445.4 860.56,-442.6 850.83,-438.42 850.34,-445.4"/>
<text text-anchor="middle" x="744.08" y="-466.88" font-family="Times,serif" font-size="10.00" fill="#767676">^2.5|^3</text>
</g>
<!-- symfony/polyfill&#45;ctype -->
<g id="node37" class="node">
<title>symfony/polyfill&#45;ctype</title>
<path fill="#eeeeee" stroke="black" d="M1111.08,-530.88C1111.08,-530.88 900.08,-530.88 900.08,-530.88 894.08,-530.88 888.08,-524.88 888.08,-518.88 888.08,-518.88 888.08,-506.88 888.08,-506.88 888.08,-500.88 894.08,-494.88 900.08,-494.88 900.08,-494.88 1111.08,-494.88 1111.08,-494.88 1117.08,-494.88 1123.08,-500.88 1123.08,-506.88 1123.08,-506.88 1123.08,-518.88 1123.08,-518.88 1123.08,-524.88 1117.08,-530.88 1111.08,-530.88"/>
<text text-anchor="middle" x="1005.58" y="-509.18" font-family="Times,serif" font-size="14.00" fill="#314b5f">symfony/polyfill&#45;ctype: v1.31.0</text>
</g>
<!-- symfony/serializer&#45;&gt;symfony/polyfill&#45;ctype -->
<g id="edge56" class="edge">
<title>symfony/serializer&#45;&gt;symfony/polyfill&#45;ctype</title>
<path fill="none" stroke="#1a2833" d="M589.23,-611.1C604.46,-606.39 618.79,-599.05 630.08,-587.88 659.39,-558.89 616.22,-523.06 648.08,-496.88 685.22,-466.37 808.33,-478.73 899.54,-493.2"/>
<polygon fill="#1a2833" stroke="#1a2833" points="899.22,-496.69 909.65,-494.83 900.34,-489.78 899.22,-496.69"/>
<text text-anchor="middle" x="744.08" y="-499.88" font-family="Times,serif" font-size="10.00" fill="#767676">~1.8</text>
</g>
<!-- symfony/framework&#45;bundle&#45;&gt;php -->
<g id="edge61" class="edge">
<title>symfony/framework&#45;bundle&#45;&gt;php</title>
<path fill="none" stroke="#1a2833" d="M621.26,-571.32C717.83,-579.33 831.75,-590.27 840.08,-597.88 870.83,-626 830.59,-658.58 858.08,-689.88 885.78,-721.43 934.39,-732.72 967.98,-736.73"/>
<polygon fill="#1a2833" stroke="#1a2833" points="968,-740.25 978.31,-737.79 968.72,-733.29 968,-740.25"/>
<text text-anchor="middle" x="744.08" y="-600.88" font-family="Times,serif" font-size="10.00" fill="#767676">&gt;=8.1</text>
</g>
<!-- symfony/framework&#45;bundle&#45;&gt;composer&#45;runtime&#45;api -->
<g id="edge59" class="edge">
<title>symfony/framework&#45;bundle&#45;&gt;composer&#45;runtime&#45;api</title>
<path fill="none" stroke="#1a2833" d="M621.17,-579.11C624.36,-581.75 627.34,-584.66 630.08,-587.88 659.73,-622.78 617.32,-1377.97 648.08,-1411.88 676.95,-1443.71 797.5,-1429.1 840.08,-1434.88 862.39,-1437.92 886.38,-1441.42 908.94,-1444.83"/>
<polygon fill="#1a2833" stroke="#1a2833" points="908.44,-1448.29 918.85,-1446.33 909.49,-1441.37 908.44,-1448.29"/>
<text text-anchor="middle" x="744.08" y="-1437.88" font-family="Times,serif" font-size="10.00" fill="#767676">&gt;=2.1</text>
</g>
<!-- symfony/framework&#45;bundle&#45;&gt;symfony/cache -->
<g id="edge62" class="edge">
<title>symfony/framework&#45;bundle&#45;&gt;symfony/cache</title>
<path fill="none" stroke="#1a2833" d="M620.72,-579C624.07,-581.66 627.2,-584.62 630.08,-587.88 676.55,-640.68 599.44,-853.07 648.08,-903.88 652.51,-908.52 799.34,-922.13 903.16,-931.23"/>
<polygon fill="#1a2833" stroke="#1a2833" points="903.11,-934.74 913.38,-932.12 903.72,-927.76 903.11,-934.74"/>
<text text-anchor="middle" x="744.08" y="-927.88" font-family="Times,serif" font-size="10.00" fill="#767676">^5.4|^6.0|^7.0</text>
</g>
<!-- symfony/framework&#45;bundle&#45;&gt;symfony/config -->
<g id="edge63" class="edge">
<title>symfony/framework&#45;bundle&#45;&gt;symfony/config</title>
<path fill="none" stroke="#1a2833" d="M621.15,-579.12C624.35,-581.75 627.34,-584.67 630.08,-587.88 656.42,-618.81 620.74,-1288.83 648.08,-1318.88 676.99,-1350.67 797.5,-1336.1 840.08,-1341.88 860.25,-1344.62 881.78,-1347.75 902.39,-1350.84"/>
<polygon fill="#1a2833" stroke="#1a2833" points="902.02,-1354.32 912.43,-1352.35 903.06,-1347.4 902.02,-1354.32"/>
<text text-anchor="middle" x="744.08" y="-1344.88" font-family="Times,serif" font-size="10.00" fill="#767676">^6.1|^7.0</text>
</g>
<!-- symfony/framework&#45;bundle&#45;&gt;symfony/dependency&#45;injection -->
<g id="edge64" class="edge">
<title>symfony/framework&#45;bundle&#45;&gt;symfony/dependency&#45;injection</title>
<path fill="none" stroke="#1a2833" d="M620.85,-578.89C624.16,-581.59 627.25,-584.58 630.08,-587.88 676.17,-641.78 600.27,-1173.51 648.08,-1225.88 677.05,-1257.62 797.5,-1243.1 840.08,-1248.88 852.74,-1250.6 865.93,-1252.48 879.1,-1254.4"/>
<polygon fill="#1a2833" stroke="#1a2833" points="878.75,-1257.88 889.16,-1255.87 879.77,-1250.96 878.75,-1257.88"/>
<text text-anchor="middle" x="744.08" y="-1251.88" font-family="Times,serif" font-size="10.00" fill="#767676">^6.4.12|^7.0</text>
</g>
<!-- symfony/framework&#45;bundle&#45;&gt;symfony/event&#45;dispatcher -->
<g id="edge67" class="edge">
<title>symfony/framework&#45;bundle&#45;&gt;symfony/event&#45;dispatcher</title>
<path fill="none" stroke="#1a2833" d="M620.83,-578.91C624.14,-581.6 627.24,-584.58 630.08,-587.88 669.57,-633.84 607.12,-1088.23 648.08,-1132.88 677.13,-1164.55 797.5,-1150.1 840.08,-1155.88 852.74,-1157.6 865.93,-1159.48 879.1,-1161.4"/>
<polygon fill="#1a2833" stroke="#1a2833" points="878.75,-1164.88 889.16,-1162.87 879.77,-1157.96 878.75,-1164.88"/>
<text text-anchor="middle" x="744.08" y="-1158.88" font-family="Times,serif" font-size="10.00" fill="#767676">^5.4|^6.0|^7.0</text>
</g>
<!-- symfony/framework&#45;bundle&#45;&gt;symfony/finder -->
<g id="edge69" class="edge">
<title>symfony/framework&#45;bundle&#45;&gt;symfony/finder</title>
<path fill="none" stroke="#1a2833" d="M620.8,-578.93C624.12,-581.62 627.23,-584.59 630.08,-587.88 662.96,-625.89 613.98,-1002.96 648.08,-1039.88 677.23,-1071.45 799.77,-1048 840.08,-1062.88 849.1,-1066.21 849.17,-1071.27 858.08,-1074.88 872.23,-1080.62 887.66,-1085.15 903.01,-1088.72"/>
<polygon fill="#1a2833" stroke="#1a2833" points="902.55,-1092.2 913.07,-1090.93 904.05,-1085.37 902.55,-1092.2"/>
<text text-anchor="middle" x="744.08" y="-1065.88" font-family="Times,serif" font-size="10.00" fill="#767676">^5.4|^6.0|^7.0</text>
</g>
<!-- symfony/framework&#45;bundle&#45;&gt;symfony/deprecation&#45;contracts -->
<g id="edge65" class="edge">
<title>symfony/framework&#45;bundle&#45;&gt;symfony/deprecation&#45;contracts</title>
<path fill="none" stroke="#1a2833" d="M619.66,-542.8C623.36,-540.13 626.85,-537.17 630.08,-533.88 664.16,-499.15 610.95,-457.34 648.08,-425.88 680.63,-398.31 797.96,-419.05 840.08,-425.88 848.4,-427.23 849.91,-429.78 858.08,-431.88 867.47,-434.3 877.25,-436.59 887.11,-438.74"/>
<polygon fill="#1a2833" stroke="#1a2833" points="886.48,-442.18 896.99,-440.83 887.93,-435.33 886.48,-442.18"/>
<text text-anchor="middle" x="744.08" y="-428.88" font-family="Times,serif" font-size="10.00" fill="#767676">^2.5|^3</text>
</g>
<!-- ext&#45;xml -->
<g id="node39" class="node">
<title>ext&#45;xml</title>
<path fill="#eeeeee" stroke="black" d="M1028.58,-422.88C1028.58,-422.88 982.58,-422.88 982.58,-422.88 976.58,-422.88 970.58,-416.88 970.58,-410.88 970.58,-410.88 970.58,-398.88 970.58,-398.88 970.58,-392.88 976.58,-386.88 982.58,-386.88 982.58,-386.88 1028.58,-386.88 1028.58,-386.88 1034.58,-386.88 1040.58,-392.88 1040.58,-398.88 1040.58,-398.88 1040.58,-410.88 1040.58,-410.88 1040.58,-416.88 1034.58,-422.88 1028.58,-422.88"/>
<text text-anchor="middle" x="1005.58" y="-401.18" font-family="Times,serif" font-size="14.00" fill="#314b5f">ext&#45;xml</text>
</g>
<!-- symfony/framework&#45;bundle&#45;&gt;ext&#45;xml -->
<g id="edge60" class="edge">
<title>symfony/framework&#45;bundle&#45;&gt;ext&#45;xml</title>
<path fill="none" stroke="#1a2833" d="M620.11,-542.71C623.65,-540.07 626.99,-537.13 630.08,-533.88 672.05,-489.65 602.22,-438.07 648.08,-397.88 693.33,-358.23 875.42,-382.83 960.44,-396.97"/>
<polygon fill="#1a2833" stroke="#1a2833" points="960.11,-400.47 970.55,-398.68 961.28,-393.56 960.11,-400.47"/>
<text text-anchor="middle" x="744.08" y="-400.88" font-family="Times,serif" font-size="10.00" fill="#767676">*</text>
</g>
<!-- symfony/error&#45;handler -->
<g id="node40" class="node">
<title>symfony/error&#45;handler</title>
<path fill="#eeeeee" stroke="black" d="M1113.08,-368.88C1113.08,-368.88 898.08,-368.88 898.08,-368.88 892.08,-368.88 886.08,-362.88 886.08,-356.88 886.08,-356.88 886.08,-344.88 886.08,-344.88 886.08,-338.88 892.08,-332.88 898.08,-332.88 898.08,-332.88 1113.08,-332.88 1113.08,-332.88 1119.08,-332.88 1125.08,-338.88 1125.08,-344.88 1125.08,-344.88 1125.08,-356.88 1125.08,-356.88 1125.08,-362.88 1119.08,-368.88 1113.08,-368.88"/>
<text text-anchor="middle" x="1005.58" y="-347.18" font-family="Times,serif" font-size="14.00" fill="#314b5f">symfony/error&#45;handler: v6.4.14</text>
</g>
<!-- symfony/framework&#45;bundle&#45;&gt;symfony/error&#45;handler -->
<g id="edge66" class="edge">
<title>symfony/framework&#45;bundle&#45;&gt;symfony/error&#45;handler</title>
<path fill="none" stroke="#1a2833" d="M620.22,-542.82C623.74,-540.14 627.04,-537.18 630.08,-533.88 656.15,-505.65 619.92,-388.04 648.08,-361.88 680.4,-331.85 787.21,-331.85 875.56,-337.74"/>
<polygon fill="#1a2833" stroke="#1a2833" points="875.47,-341.25 885.69,-338.45 875.96,-334.26 875.47,-341.25"/>
<text text-anchor="middle" x="744.08" y="-364.88" font-family="Times,serif" font-size="10.00" fill="#767676">^6.1|^7.0</text>
</g>
<!-- symfony/filesystem -->
<g id="node41" class="node">
<title>symfony/filesystem</title>
<path fill="#eeeeee" stroke="black" d="M1101.58,-314.88C1101.58,-314.88 909.58,-314.88 909.58,-314.88 903.58,-314.88 897.58,-308.88 897.58,-302.88 897.58,-302.88 897.58,-290.88 897.58,-290.88 897.58,-284.88 903.58,-278.88 909.58,-278.88 909.58,-278.88 1101.58,-278.88 1101.58,-278.88 1107.58,-278.88 1113.58,-284.88 1113.58,-290.88 1113.58,-290.88 1113.58,-302.88 1113.58,-302.88 1113.58,-308.88 1107.58,-314.88 1101.58,-314.88"/>
<text text-anchor="middle" x="1005.58" y="-293.18" font-family="Times,serif" font-size="14.00" fill="#314b5f">symfony/filesystem: v6.4.13</text>
</g>
<!-- symfony/framework&#45;bundle&#45;&gt;symfony/filesystem -->
<g id="edge68" class="edge">
<title>symfony/framework&#45;bundle&#45;&gt;symfony/filesystem</title>
<path fill="none" stroke="#1a2833" d="M620.61,-542.67C623.99,-540.03 627.16,-537.11 630.08,-533.88 662.09,-498.49 614.01,-353.3 648.08,-319.88 681.1,-287.5 796.67,-285.04 887.38,-288.63"/>
<polygon fill="#1a2833" stroke="#1a2833" points="887.33,-292.14 897.47,-289.06 887.63,-285.14 887.33,-292.14"/>
<text text-anchor="middle" x="744.08" y="-322.88" font-family="Times,serif" font-size="10.00" fill="#767676">^5.4|^6.0|^7.0</text>
</g>
<!-- symfony/http&#45;foundation -->
<g id="node42" class="node">
<title>symfony/http&#45;foundation</title>
<path fill="#eeeeee" stroke="black" d="M1120.58,-260.88C1120.58,-260.88 890.58,-260.88 890.58,-260.88 884.58,-260.88 878.58,-254.88 878.58,-248.88 878.58,-248.88 878.58,-236.88 878.58,-236.88 878.58,-230.88 884.58,-224.88 890.58,-224.88 890.58,-224.88 1120.58,-224.88 1120.58,-224.88 1126.58,-224.88 1132.58,-230.88 1132.58,-236.88 1132.58,-236.88 1132.58,-248.88 1132.58,-248.88 1132.58,-254.88 1126.58,-260.88 1120.58,-260.88"/>
<text text-anchor="middle" x="1005.58" y="-239.18" font-family="Times,serif" font-size="14.00" fill="#314b5f">symfony/http&#45;foundation: v6.4.16</text>
</g>
<!-- symfony/framework&#45;bundle&#45;&gt;symfony/http&#45;foundation -->
<g id="edge70" class="edge">
<title>symfony/framework&#45;bundle&#45;&gt;symfony/http&#45;foundation</title>
<path fill="none" stroke="#1a2833" d="M620.67,-542.72C624.03,-540.07 627.18,-537.13 630.08,-533.88 668.75,-490.48 607.28,-314.3 648.08,-272.88 678.4,-242.1 781.07,-235.92 868.49,-236.69"/>
<polygon fill="#1a2833" stroke="#1a2833" points="868.48,-240.19 878.53,-236.81 868.57,-233.19 868.48,-240.19"/>
<text text-anchor="middle" x="744.08" y="-275.88" font-family="Times,serif" font-size="10.00" fill="#767676">^6.4|^7.0</text>
</g>
<!-- symfony/http&#45;kernel -->
<g id="node43" class="node">
<title>symfony/http&#45;kernel</title>
<path fill="#eeeeee" stroke="black" d="M1105.08,-206.88C1105.08,-206.88 906.08,-206.88 906.08,-206.88 900.08,-206.88 894.08,-200.88 894.08,-194.88 894.08,-194.88 894.08,-182.88 894.08,-182.88 894.08,-176.88 900.08,-170.88 906.08,-170.88 906.08,-170.88 1105.08,-170.88 1105.08,-170.88 1111.08,-170.88 1117.08,-176.88 1117.08,-182.88 1117.08,-182.88 1117.08,-194.88 1117.08,-194.88 1117.08,-200.88 1111.08,-206.88 1105.08,-206.88"/>
<text text-anchor="middle" x="1005.58" y="-185.18" font-family="Times,serif" font-size="14.00" fill="#314b5f">symfony/http&#45;kernel: v6.4.16</text>
</g>
<!-- symfony/framework&#45;bundle&#45;&gt;symfony/http&#45;kernel -->
<g id="edge71" class="edge">
<title>symfony/framework&#45;bundle&#45;&gt;symfony/http&#45;kernel</title>
<path fill="none" stroke="#1a2833" d="M620.72,-542.77C624.07,-540.1 627.2,-537.15 630.08,-533.88 675.98,-481.77 599.83,-271.84 648.08,-221.88 679.92,-188.92 793.38,-182.98 883.86,-183.87"/>
<polygon fill="#1a2833" stroke="#1a2833" points="883.89,-187.37 893.93,-184 883.97,-180.38 883.89,-187.37"/>
<text text-anchor="middle" x="744.08" y="-224.88" font-family="Times,serif" font-size="10.00" fill="#767676">^6.4</text>
</g>
<!-- symfony/polyfill&#45;mbstring -->
<g id="node44" class="node">
<title>symfony/polyfill&#45;mbstring</title>
<path fill="#eeeeee" stroke="black" d="M1124.08,-152.88C1124.08,-152.88 887.08,-152.88 887.08,-152.88 881.08,-152.88 875.08,-146.88 875.08,-140.88 875.08,-140.88 875.08,-128.88 875.08,-128.88 875.08,-122.88 881.08,-116.88 887.08,-116.88 887.08,-116.88 1124.08,-116.88 1124.08,-116.88 1130.08,-116.88 1136.08,-122.88 1136.08,-128.88 1136.08,-128.88 1136.08,-140.88 1136.08,-140.88 1136.08,-146.88 1130.08,-152.88 1124.08,-152.88"/>
<text text-anchor="middle" x="1005.58" y="-131.18" font-family="Times,serif" font-size="14.00" fill="#314b5f">symfony/polyfill&#45;mbstring: v1.31.0</text>
</g>
<!-- symfony/framework&#45;bundle&#45;&gt;symfony/polyfill&#45;mbstring -->
<g id="edge72" class="edge">
<title>symfony/framework&#45;bundle&#45;&gt;symfony/polyfill&#45;mbstring</title>
<path fill="none" stroke="#1a2833" d="M620.76,-542.8C624.09,-540.12 627.21,-537.16 630.08,-533.88 656.72,-503.39 620.15,-199.2 648.08,-169.88 716.02,-98.56 836.37,-102.1 918.26,-115.16"/>
<polygon fill="#1a2833" stroke="#1a2833" points="917.85,-118.65 928.29,-116.84 919.01,-111.74 917.85,-118.65"/>
<text text-anchor="middle" x="744.08" y="-172.88" font-family="Times,serif" font-size="10.00" fill="#767676">~1.0</text>
</g>
<!-- symfony/routing -->
<g id="node45" class="node">
<title>symfony/routing</title>
<path fill="#eeeeee" stroke="black" d="M1091.58,-98.88C1091.58,-98.88 919.58,-98.88 919.58,-98.88 913.58,-98.88 907.58,-92.88 907.58,-86.88 907.58,-86.88 907.58,-74.88 907.58,-74.88 907.58,-68.88 913.58,-62.88 919.58,-62.88 919.58,-62.88 1091.58,-62.88 1091.58,-62.88 1097.58,-62.88 1103.58,-68.88 1103.58,-74.88 1103.58,-74.88 1103.58,-86.88 1103.58,-86.88 1103.58,-92.88 1097.58,-98.88 1091.58,-98.88"/>
<text text-anchor="middle" x="1005.58" y="-77.18" font-family="Times,serif" font-size="14.00" fill="#314b5f">symfony/routing: v6.4.16</text>
</g>
<!-- symfony/framework&#45;bundle&#45;&gt;symfony/routing -->
<g id="edge73" class="edge">
<title>symfony/framework&#45;bundle&#45;&gt;symfony/routing</title>
<path fill="none" stroke="#1a2833" d="M620.79,-542.83C624.12,-540.15 627.23,-537.17 630.08,-533.88 662.18,-496.81 613.28,-127.44 648.08,-92.88 682.07,-59.13 805.17,-61.79 897.26,-69.18"/>
<polygon fill="#1a2833" stroke="#1a2833" points="897.23,-72.69 907.48,-70.03 897.81,-65.71 897.23,-72.69"/>
<text text-anchor="middle" x="744.08" y="-95.88" font-family="Times,serif" font-size="10.00" fill="#767676">^6.4|^7.0</text>
</g>
<!-- bamarni/composer&#45;bin&#45;plugin&#45;&gt;php -->
<g id="edge76" class="edge">
<title>bamarni/composer&#45;bin&#45;plugin&#45;&gt;php</title>
<path fill="none" stroke="#1a2833" d="M588.28,-524.96C602.37,-527.76 616.61,-530.76 630.08,-533.88 638.17,-535.76 639.92,-537.32 648.08,-538.88 690.23,-546.99 809.3,-529.97 840.08,-559.88 881.91,-600.53 820.82,-645 858.08,-689.88 885.17,-722.52 934.69,-733.53 968.6,-737.18"/>
<polygon fill="#1a2833" stroke="#1a2833" points="968.3,-740.67 978.58,-738.1 968.94,-733.7 968.3,-740.67"/>
<text text-anchor="middle" x="744.08" y="-562.88" font-family="Times,serif" font-size="10.00" fill="#767676">^7.2.5 || ^8.0</text>
</g>
<!-- composer&#45;plugin&#45;api -->
<g id="node47" class="node">
<title>composer&#45;plugin&#45;api</title>
<path fill="#eeeeee" stroke="black" d="M1074.08,-44.88C1074.08,-44.88 937.08,-44.88 937.08,-44.88 931.08,-44.88 925.08,-38.88 925.08,-32.88 925.08,-32.88 925.08,-20.88 925.08,-20.88 925.08,-14.88 931.08,-8.88 937.08,-8.88 937.08,-8.88 1074.08,-8.88 1074.08,-8.88 1080.08,-8.88 1086.08,-14.88 1086.08,-20.88 1086.08,-20.88 1086.08,-32.88 1086.08,-32.88 1086.08,-38.88 1080.08,-44.88 1074.08,-44.88"/>
<text text-anchor="middle" x="1005.58" y="-23.18" font-family="Times,serif" font-size="14.00" fill="#314b5f">composer&#45;plugin&#45;api</text>
</g>
<!-- bamarni/composer&#45;bin&#45;plugin&#45;&gt;composer&#45;plugin&#45;api -->
<g id="edge75" class="edge">
<title>bamarni/composer&#45;bin&#45;plugin&#45;&gt;composer&#45;plugin&#45;api</title>
<path fill="none" stroke="#1a2833" d="M485.07,-488.45C486.15,-417.61 500.47,-161.24 648.08,-49.88 723.78,7.22 836.21,4.32 914.5,-7.28"/>
<polygon fill="#1a2833" stroke="#1a2833" points="914.41,-10.81 924.83,-8.89 915.49,-3.89 914.41,-10.81"/>
<text text-anchor="middle" x="744.08" y="-52.88" font-family="Times,serif" font-size="10.00" fill="#767676">^2.0</text>
</g>
</g>
</svg>
