<?xml version="1.0" encoding="UTF-8" standalone="no"?>
<!DOCTYPE svg PUBLIC "-//W3C//DTD SVG 1.1//EN"
 "http://www.w3.org/Graphics/SVG/1.1/DTD/svg11.dtd">
<!-- Generated by graphviz version 2.43.0 (0)
 -->
<!-- Title: %3 Pages: 1 -->
<svg width="422pt" height="217pt"
 viewBox="0.00 0.00 422.00 217.00" xmlns="http://www.w3.org/2000/svg" xmlns:xlink="http://www.w3.org/1999/xlink">
<g id="graph0" class="graph" transform="scale(1 1) rotate(0) translate(4 213)">
<title>%3</title>
<g id="clust1" class="cluster">
<title>cluster_0</title>
<polygon fill="BurlyWood" stroke="black" points="28,-102 28,-201 386,-201 386,-102 28,-102"/>
<text text-anchor="middle" x="207" y="-185.8" font-family="Times,serif" font-size="14.00">Bartlett\CompatInfo\Infrastructure\Bus\Query</text>
</g>
<g id="clust2" class="cluster">
<title>cluster_1</title>
<polygon fill="transparent" stroke="black" points="8,-8 8,-94 406,-94 406,-8 8,-8"/>
<text text-anchor="middle" x="207" y="-78.8" font-family="Times,serif" font-size="14.00">Bartlett\CompatInfo\Application\Query</text>
</g>
<!-- Bartlett\\CompatInfo\\Infrastructure\\Bus\\Query\\MessengerQueryBus -->
<g id="node1" class="node">
<title>Bartlett\\CompatInfo\\Infrastructure\\Bus\\Query\\MessengerQueryBus</title>
<polygon fill="#fefece" stroke="transparent" points="378,-170 36,-170 36,-110 378,-110 378,-170"/>
<polygon fill="#eeeeee" stroke="transparent" points="36,-148 36,-170 378,-170 378,-148 36,-148"/>
<polygon fill="none" stroke="black" points="36,-148 36,-170 378,-170 378,-148 36,-148"/>
<text text-anchor="start" x="160.5" y="-153.6" font-family="Verdana" font-weight="bold" font-size="8.00">MessengerQueryBus</text>
<polygon fill="none" stroke="black" points="36,-142 36,-148 378,-148 378,-142 36,-142"/>
<polygon fill="none" stroke="black" points="36,-110 36,-142 378,-142 378,-110 36,-110"/>
<text text-anchor="start" x="41" y="-130.6" font-family="Verdana" font-size="8.00">+ __construct(queryBus : Symfony\Component\Messenger\MessageBusInterface)</text>
<text text-anchor="start" x="41" y="-117.6" font-family="Verdana" font-size="8.00">+ query(query : Bartlett\CompatInfo\Application\Query\QueryInterface) : ?mixed</text>
</g>
<!-- Bartlett\\CompatInfo\\Application\\Query\\QueryBusInterface -->
<g id="node2" class="node">
<title>Bartlett\\CompatInfo\\Application\\Query\\QueryBusInterface</title>
<polygon fill="#fefece" stroke="transparent" points="398.5,-63 15.5,-63 15.5,-16 398.5,-16 398.5,-63"/>
<polygon fill="#eeeeee" stroke="transparent" points="16,-40.5 16,-62.5 399,-62.5 399,-40.5 16,-40.5"/>
<polygon fill="none" stroke="black" points="16,-40.5 16,-62.5 399,-62.5 399,-40.5 16,-40.5"/>
<text text-anchor="start" x="181.5" y="-54.1" font-family="Verdana" font-weight="bold" font-size="8.00">«interface»</text>
<text text-anchor="start" x="165" y="-46.1" font-family="Verdana" font-weight="bold" font-size="8.00">QueryBusInterface</text>
<polygon fill="none" stroke="black" points="16,-34.5 16,-40.5 399,-40.5 399,-34.5 16,-34.5"/>
<polygon fill="none" stroke="black" points="16,-15.5 16,-34.5 399,-34.5 399,-15.5 16,-15.5"/>
<text text-anchor="start" x="21" y="-23.1" font-family="Verdana" font-size="8.00">+ «abstract» query(query : Bartlett\CompatInfo\Application\Query\QueryInterface) : ?mixed</text>
</g>
<!-- Bartlett\\CompatInfo\\Infrastructure\\Bus\\Query\\MessengerQueryBus&#45;&gt;Bartlett\\CompatInfo\\Application\\Query\\QueryBusInterface -->
<g id="edge1" class="edge">
<title>Bartlett\\CompatInfo\\Infrastructure\\Bus\\Query\\MessengerQueryBus&#45;&gt;Bartlett\\CompatInfo\\Application\\Query\\QueryBusInterface</title>
<path fill="none" stroke="black" stroke-dasharray="5,2" d="M207,-109.98C207,-98.39 207,-85 207,-73.08"/>
<polygon fill="none" stroke="black" points="210.5,-73.07 207,-63.07 203.5,-73.07 210.5,-73.07"/>
</g>
</g>
</svg>
