<?xml version="1.0" encoding="UTF-8" standalone="no"?>
<!DOCTYPE svg PUBLIC "-//W3C//DTD SVG 1.1//EN"
 "http://www.w3.org/Graphics/SVG/1.1/DTD/svg11.dtd">
<!-- Generated by graphviz version 2.43.0 (0)
 -->
<!-- Title: %3 Pages: 1 -->
<svg width="2198pt" height="1106pt"
 viewBox="0.00 0.00 2198.00 1106.00" xmlns="http://www.w3.org/2000/svg" xmlns:xlink="http://www.w3.org/1999/xlink">
<g id="graph0" class="graph" transform="scale(1 1) rotate(0) translate(4 1102)">
<title>%3</title>
<g id="clust1" class="cluster">
<title>cluster_0</title>
<polygon fill="BurlyWood" stroke="black" points="8,-8 8,-1090 1842,-1090 1842,-8 8,-8"/>
<text text-anchor="middle" x="925" y="-1074.8" font-family="Times,serif" font-size="14.00">Bartlett\CompatInfo\Application\Analyser</text>
</g>
<g id="clust2" class="cluster">
<title>cluster_1</title>
<polygon fill="transparent" stroke="black" points="1850,-169 1850,-365 2182,-365 2182,-169 1850,-169"/>
<text text-anchor="middle" x="2016" y="-349.8" font-family="Times,serif" font-size="14.00">PhpParser</text>
</g>
<!-- Bartlett\\CompatInfo\\Application\\Analyser\\AbstractSniffAnalyser -->
<g id="node1" class="node">
<title>Bartlett\\CompatInfo\\Application\\Analyser\\AbstractSniffAnalyser</title>
<polygon fill="#fefece" stroke="transparent" points="1668,-762 512,-762 512,-540 1668,-540 1668,-762"/>
<polygon fill="#eeeeee" stroke="transparent" points="512,-740 512,-762 1668,-762 1668,-740 512,-740"/>
<polygon fill="none" stroke="black" points="512,-740 512,-762 1668,-762 1668,-740 512,-740"/>
<text text-anchor="start" x="1066" y="-753.6" font-family="Verdana" font-weight="bold" font-size="8.00">«abstract»</text>
<text text-anchor="start" x="1040.5" y="-745.6" font-family="Verdana" font-weight="bold" font-size="8.00">AbstractSniffAnalyser</text>
<polygon fill="none" stroke="black" points="512,-669 512,-740 1668,-740 1668,-669 512,-669"/>
<text text-anchor="start" x="517" y="-728.6" font-family="Verdana" font-size="8.00">+ «static» DONT_TRAVERSE_CHILDREN : int = 1 {readOnly}</text>
<text text-anchor="start" x="517" y="-715.6" font-family="Verdana" font-size="8.00">+ «static» STOP_TRAVERSAL : int = 2 {readOnly}</text>
<text text-anchor="start" x="517" y="-702.6" font-family="Verdana" font-size="8.00">+ «static» REMOVE_NODE : int = 3 {readOnly}</text>
<text text-anchor="start" x="517" y="-689.6" font-family="Verdana" font-size="8.00">+ «static» DONT_TRAVERSE_CURRENT_AND_CHILDREN : int = 4 {readOnly}</text>
<text text-anchor="start" x="517" y="-676.6" font-family="Verdana" font-size="8.00">+ «static» REPLACE_WITH_NULL : int = 5 {readOnly}</text>
<polygon fill="none" stroke="black" points="512,-663 512,-669 1668,-669 1668,-663 512,-663"/>
<polygon fill="none" stroke="black" points="512,-540 512,-663 1668,-663 1668,-540 512,-540"/>
<text text-anchor="start" x="517" y="-651.6" font-family="Verdana" font-size="8.00">+ __construct(profiler : Bartlett\CompatInfo\Application\Profiler\ProfilerInterface, dispatcher : Symfony\Component\EventDispatcher\EventDispatcherInterface, sniffs : Bartlett\CompatInfo\Application\Collection\SniffCollectionInterface, attributeParentKey : string, attributeKey : string)</text>
<text text-anchor="start" x="517" y="-638.6" font-family="Verdana" font-size="8.00">+ getProfiler() : Bartlett\CompatInfo\Application\Profiler\ProfilerInterface</text>
<text text-anchor="start" x="517" y="-625.6" font-family="Verdana" font-size="8.00">+ setErrorHandler(errorHandler : Bartlett\CompatInfo\Application\DataCollector\ErrorHandler) : void</text>
<text text-anchor="start" x="517" y="-612.6" font-family="Verdana" font-size="8.00">+ setUpBeforeVisitor() : void</text>
<text text-anchor="start" x="517" y="-599.6" font-family="Verdana" font-size="8.00">+ tearDownAfterVisitor() : void</text>
<text text-anchor="start" x="517" y="-586.6" font-family="Verdana" font-size="8.00">+ beforeTraverse(nodes : array) : ?array</text>
<text text-anchor="start" x="517" y="-573.6" font-family="Verdana" font-size="8.00">+ enterNode(node : PhpParser\Node)</text>
<text text-anchor="start" x="517" y="-560.6" font-family="Verdana" font-size="8.00">+ leaveNode(node : PhpParser\Node)</text>
<text text-anchor="start" x="517" y="-547.6" font-family="Verdana" font-size="8.00">+ afterTraverse(nodes : array) : ?array</text>
</g>
<!-- Bartlett\\CompatInfo\\Application\\Analyser\\SniffAnalyserInterface -->
<g id="node2" class="node">
<title>Bartlett\\CompatInfo\\Application\\Analyser\\SniffAnalyserInterface</title>
<polygon fill="#fefece" stroke="transparent" points="1659.5,-504 1196.5,-504 1196.5,-373 1659.5,-373 1659.5,-504"/>
<polygon fill="#eeeeee" stroke="transparent" points="1197,-481.5 1197,-503.5 1660,-503.5 1660,-481.5 1197,-481.5"/>
<polygon fill="none" stroke="black" points="1197,-481.5 1197,-503.5 1660,-503.5 1660,-481.5 1197,-481.5"/>
<text text-anchor="start" x="1402.5" y="-495.1" font-family="Verdana" font-weight="bold" font-size="8.00">«interface»</text>
<text text-anchor="start" x="1377.5" y="-487.1" font-family="Verdana" font-weight="bold" font-size="8.00">SniffAnalyserInterface</text>
<polygon fill="none" stroke="black" points="1197,-410.5 1197,-481.5 1660,-481.5 1660,-410.5 1197,-410.5"/>
<text text-anchor="start" x="1202" y="-470.1" font-family="Verdana" font-size="8.00">+ «static» DONT_TRAVERSE_CHILDREN : int = 1 {readOnly}</text>
<text text-anchor="start" x="1202" y="-457.1" font-family="Verdana" font-size="8.00">+ «static» STOP_TRAVERSAL : int = 2 {readOnly}</text>
<text text-anchor="start" x="1202" y="-444.1" font-family="Verdana" font-size="8.00">+ «static» REMOVE_NODE : int = 3 {readOnly}</text>
<text text-anchor="start" x="1202" y="-431.1" font-family="Verdana" font-size="8.00">+ «static» DONT_TRAVERSE_CURRENT_AND_CHILDREN : int = 4 {readOnly}</text>
<text text-anchor="start" x="1202" y="-418.1" font-family="Verdana" font-size="8.00">+ «static» REPLACE_WITH_NULL : int = 5 {readOnly}</text>
<polygon fill="none" stroke="black" points="1197,-404.5 1197,-410.5 1660,-410.5 1660,-404.5 1197,-404.5"/>
<polygon fill="none" stroke="black" points="1197,-372.5 1197,-404.5 1660,-404.5 1660,-372.5 1197,-372.5"/>
<text text-anchor="start" x="1202" y="-393.1" font-family="Verdana" font-size="8.00">+ «abstract» getProfiler() : Bartlett\CompatInfo\Application\Profiler\ProfilerInterface</text>
<text text-anchor="start" x="1202" y="-380.1" font-family="Verdana" font-size="8.00">+ «abstract» setErrorHandler(errorHandler : Bartlett\CompatInfo\Application\DataCollector\ErrorHandler) : void</text>
</g>
<!-- Bartlett\\CompatInfo\\Application\\Analyser\\AbstractSniffAnalyser&#45;&gt;Bartlett\\CompatInfo\\Application\\Analyser\\SniffAnalyserInterface -->
<g id="edge4" class="edge">
<title>Bartlett\\CompatInfo\\Application\\Analyser\\AbstractSniffAnalyser&#45;&gt;Bartlett\\CompatInfo\\Application\\Analyser\\SniffAnalyserInterface</title>
<path fill="none" stroke="black" stroke-dasharray="5,2" d="M1266.92,-539.82C1283.5,-529.49 1299.97,-519.23 1315.7,-509.44"/>
<polygon fill="none" stroke="black" points="1317.73,-512.3 1324.36,-504.04 1314.03,-506.36 1317.73,-512.3"/>
</g>
<!-- Bartlett\\CompatInfo\\Application\\Analyser\\SniffVisitorInterface -->
<g id="node3" class="node">
<title>Bartlett\\CompatInfo\\Application\\Analyser\\SniffVisitorInterface</title>
<polygon fill="#fefece" stroke="transparent" points="1519,-285.5 1337,-285.5 1337,-225.5 1519,-225.5 1519,-285.5"/>
<polygon fill="#eeeeee" stroke="transparent" points="1337,-263.5 1337,-285.5 1519,-285.5 1519,-263.5 1337,-263.5"/>
<polygon fill="none" stroke="black" points="1337,-263.5 1337,-285.5 1519,-285.5 1519,-263.5 1337,-263.5"/>
<text text-anchor="start" x="1402" y="-277.1" font-family="Verdana" font-weight="bold" font-size="8.00">«interface»</text>
<text text-anchor="start" x="1382" y="-269.1" font-family="Verdana" font-weight="bold" font-size="8.00">SniffVisitorInterface</text>
<polygon fill="none" stroke="black" points="1337,-257.5 1337,-263.5 1519,-263.5 1519,-257.5 1337,-257.5"/>
<polygon fill="none" stroke="black" points="1337,-225.5 1337,-257.5 1519,-257.5 1519,-225.5 1337,-225.5"/>
<text text-anchor="start" x="1342" y="-246.1" font-family="Verdana" font-size="8.00">+ «abstract» setUpBeforeVisitor() : void</text>
<text text-anchor="start" x="1342" y="-233.1" font-family="Verdana" font-size="8.00">+ «abstract» tearDownAfterVisitor() : void</text>
</g>
<!-- Bartlett\\CompatInfo\\Application\\Analyser\\SniffAnalyserInterface&#45;&gt;Bartlett\\CompatInfo\\Application\\Analyser\\SniffVisitorInterface -->
<g id="edge2" class="edge">
<title>Bartlett\\CompatInfo\\Application\\Analyser\\SniffAnalyserInterface&#45;&gt;Bartlett\\CompatInfo\\Application\\Analyser\\SniffVisitorInterface</title>
<path fill="none" stroke="black" stroke-dasharray="5,2" d="M1428,-372.92C1428,-347.15 1428,-318.32 1428,-295.8"/>
<polygon fill="none" stroke="black" points="1431.5,-295.61 1428,-285.61 1424.5,-295.61 1431.5,-295.61"/>
</g>
<!-- PhpParser\\NodeVisitor -->
<g id="node6" class="node">
<title>PhpParser\\NodeVisitor</title>
<polygon fill="#fefece" stroke="transparent" points="2173.5,-334 1858.5,-334 1858.5,-177 2173.5,-177 2173.5,-334"/>
<polygon fill="#eeeeee" stroke="transparent" points="1859,-311.5 1859,-333.5 2174,-333.5 2174,-311.5 1859,-311.5"/>
<polygon fill="none" stroke="black" points="1859,-311.5 1859,-333.5 2174,-333.5 2174,-311.5 1859,-311.5"/>
<text text-anchor="start" x="1990.5" y="-325.1" font-family="Verdana" font-weight="bold" font-size="8.00">«interface»</text>
<text text-anchor="start" x="1990" y="-317.1" font-family="Verdana" font-weight="bold" font-size="8.00">NodeVisitor</text>
<polygon fill="none" stroke="black" points="1859,-240.5 1859,-311.5 2174,-311.5 2174,-240.5 1859,-240.5"/>
<text text-anchor="start" x="1864" y="-300.1" font-family="Verdana" font-size="8.00">+ «static» DONT_TRAVERSE_CHILDREN : int = 1 {readOnly}</text>
<text text-anchor="start" x="1864" y="-287.1" font-family="Verdana" font-size="8.00">+ «static» STOP_TRAVERSAL : int = 2 {readOnly}</text>
<text text-anchor="start" x="1864" y="-274.1" font-family="Verdana" font-size="8.00">+ «static» REMOVE_NODE : int = 3 {readOnly}</text>
<text text-anchor="start" x="1864" y="-261.1" font-family="Verdana" font-size="8.00">+ «static» DONT_TRAVERSE_CURRENT_AND_CHILDREN : int = 4 {readOnly}</text>
<text text-anchor="start" x="1864" y="-248.1" font-family="Verdana" font-size="8.00">+ «static» REPLACE_WITH_NULL : int = 5 {readOnly}</text>
<polygon fill="none" stroke="black" points="1859,-234.5 1859,-240.5 2174,-240.5 2174,-234.5 1859,-234.5"/>
<polygon fill="none" stroke="black" points="1859,-176.5 1859,-234.5 2174,-234.5 2174,-176.5 1859,-176.5"/>
<text text-anchor="start" x="1864" y="-223.1" font-family="Verdana" font-size="8.00">+ «abstract» beforeTraverse(nodes : array)</text>
<text text-anchor="start" x="1864" y="-210.1" font-family="Verdana" font-size="8.00">+ «abstract» enterNode(node : PhpParser\Node)</text>
<text text-anchor="start" x="1864" y="-197.1" font-family="Verdana" font-size="8.00">+ «abstract» leaveNode(node : PhpParser\Node)</text>
<text text-anchor="start" x="1864" y="-184.1" font-family="Verdana" font-size="8.00">+ «abstract» afterTraverse(nodes : array)</text>
</g>
<!-- Bartlett\\CompatInfo\\Application\\Analyser\\SniffAnalyserInterface&#45;&gt;PhpParser\\NodeVisitor -->
<g id="edge3" class="edge">
<title>Bartlett\\CompatInfo\\Application\\Analyser\\SniffAnalyserInterface&#45;&gt;PhpParser\\NodeVisitor</title>
<path fill="none" stroke="black" stroke-dasharray="5,2" d="M1659.68,-414.06C1721.55,-403.32 1787.46,-387.7 1846,-365 1863.93,-358.05 1881.99,-349.08 1899.3,-339.29"/>
<polygon fill="none" stroke="black" points="1901.38,-342.14 1908.28,-334.1 1897.87,-336.08 1901.38,-342.14"/>
</g>
<!-- Bartlett\\CompatInfo\\Application\\Analyser\\AnalyserInterface -->
<g id="node4" class="node">
<title>Bartlett\\CompatInfo\\Application\\Analyser\\AnalyserInterface</title>
<polygon fill="#fefece" stroke="transparent" points="1594,-141 1262,-141 1262,-16 1594,-16 1594,-141"/>
<polygon fill="#eeeeee" stroke="transparent" points="1262,-118.5 1262,-140.5 1594,-140.5 1594,-118.5 1262,-118.5"/>
<polygon fill="none" stroke="black" points="1262,-118.5 1262,-140.5 1594,-140.5 1594,-118.5 1262,-118.5"/>
<text text-anchor="start" x="1402" y="-132.1" font-family="Verdana" font-weight="bold" font-size="8.00">«interface»</text>
<text text-anchor="start" x="1388" y="-124.1" font-family="Verdana" font-weight="bold" font-size="8.00">AnalyserInterface</text>
<polygon fill="none" stroke="black" points="1262,-112.5 1262,-118.5 1594,-118.5 1594,-112.5 1262,-112.5"/>
<polygon fill="none" stroke="black" points="1262,-15.5 1262,-112.5 1594,-112.5 1594,-15.5 1262,-15.5"/>
<text text-anchor="start" x="1267" y="-101.1" font-family="Verdana" font-size="8.00">+ «abstract» getCurrentFile() : Symfony\Component\Finder\SplFileInfo</text>
<text text-anchor="start" x="1267" y="-88.1" font-family="Verdana" font-size="8.00">+ «abstract» getTokens() : array</text>
<text text-anchor="start" x="1267" y="-75.1" font-family="Verdana" font-size="8.00">+ «abstract» setTokens(tokens : array) : void</text>
<text text-anchor="start" x="1267" y="-62.1" font-family="Verdana" font-size="8.00">+ «abstract» setCurrentFile(file : Symfony\Component\Finder\SplFileInfo) : void</text>
<text text-anchor="start" x="1267" y="-49.1" font-family="Verdana" font-size="8.00">+ «abstract» getName() : string</text>
<text text-anchor="start" x="1267" y="-36.1" font-family="Verdana" font-size="8.00">+ «abstract» getNamespace() : string</text>
<text text-anchor="start" x="1267" y="-23.1" font-family="Verdana" font-size="8.00">+ «abstract» getShortName() : string</text>
</g>
<!-- Bartlett\\CompatInfo\\Application\\Analyser\\SniffVisitorInterface&#45;&gt;Bartlett\\CompatInfo\\Application\\Analyser\\AnalyserInterface -->
<g id="edge1" class="edge">
<title>Bartlett\\CompatInfo\\Application\\Analyser\\SniffVisitorInterface&#45;&gt;Bartlett\\CompatInfo\\Application\\Analyser\\AnalyserInterface</title>
<path fill="none" stroke="black" stroke-dasharray="5,2" d="M1428,-225.21C1428,-205.02 1428,-177.27 1428,-151.4"/>
<polygon fill="none" stroke="black" points="1431.5,-151.22 1428,-141.22 1424.5,-151.22 1431.5,-151.22"/>
</g>
<!-- Bartlett\\CompatInfo\\Application\\Analyser\\CompatibilityAnalyser -->
<g id="node5" class="node">
<title>Bartlett\\CompatInfo\\Application\\Analyser\\CompatibilityAnalyser</title>
<polygon fill="#fefece" stroke="transparent" points="1834,-1059 16,-1059 16,-798 1834,-798 1834,-1059"/>
<polygon fill="#eeeeee" stroke="transparent" points="16,-1036.5 16,-1058.5 1834,-1058.5 1834,-1036.5 16,-1036.5"/>
<polygon fill="none" stroke="black" points="16,-1036.5 16,-1058.5 1834,-1058.5 1834,-1036.5 16,-1036.5"/>
<text text-anchor="start" x="874.5" y="-1042.1" font-family="Verdana" font-weight="bold" font-size="8.00">CompatibilityAnalyser</text>
<polygon fill="none" stroke="black" points="16,-978.5 16,-1036.5 1834,-1036.5 1834,-978.5 16,-978.5"/>
<text text-anchor="start" x="21" y="-1025.1" font-family="Verdana" font-size="8.00">+ «static» ANALYSER_NODE_ATTRIBUTE : string = &quot;bartlett\.data_collector&quot; {readOnly}</text>
<text text-anchor="start" x="21" y="-1012.1" font-family="Verdana" font-size="8.00">+ «static» PARENT_NODE_ATTRIBUTE : string = &quot;bartlett\.parent&quot; {readOnly}</text>
<text text-anchor="start" x="21" y="-999.1" font-family="Verdana" font-size="8.00">+ «static» NAMESPACED_NAME_NODE_ATTRIBUTE : string = &quot;bartlett\.name&quot; {readOnly}</text>
<text text-anchor="start" x="21" y="-986.1" font-family="Verdana" font-size="8.00">+ «static» COLLECTOR_NAME : string = &quot;Bartlett\CompatInfo\Application\Analyser\CompatibilityAnalyser&quot; {readOnly}</text>
<polygon fill="none" stroke="black" points="16,-972.5 16,-978.5 1834,-978.5 1834,-972.5 16,-972.5"/>
<polygon fill="none" stroke="black" points="16,-797.5 16,-972.5 1834,-972.5 1834,-797.5 16,-797.5"/>
<text text-anchor="start" x="21" y="-961.1" font-family="Verdana" font-size="8.00">+ __construct(profiler : Bartlett\CompatInfo\Application\Profiler\ProfilerInterface, sniffCollection : Bartlett\CompatInfo\Application\Collection\SniffCollectionInterface, referenceCollection : Bartlett\CompatInfo\Application\Collection\ReferenceCollectionInterface, polyfillCollection : Bartlett\CompatInfo\Application\Collection\PolyfillCollectionInterface, compatibilityEventDispatcher : Symfony\Component\EventDispatcher\EventDispatcherInterface)</text>
<text text-anchor="start" x="21" y="-948.1" font-family="Verdana" font-size="8.00">+ getCurrentFile() : Symfony\Component\Finder\SplFileInfo</text>
<text text-anchor="start" x="21" y="-935.1" font-family="Verdana" font-size="8.00">+ getTokens() : array</text>
<text text-anchor="start" x="21" y="-922.1" font-family="Verdana" font-size="8.00">+ setTokens(tokens : array) : void</text>
<text text-anchor="start" x="21" y="-909.1" font-family="Verdana" font-size="8.00">+ setCurrentFile(file : Symfony\Component\Finder\SplFileInfo) : void</text>
<text text-anchor="start" x="21" y="-896.1" font-family="Verdana" font-size="8.00">+ getName() : string</text>
<text text-anchor="start" x="21" y="-883.1" font-family="Verdana" font-size="8.00">+ getNamespace() : string</text>
<text text-anchor="start" x="21" y="-870.1" font-family="Verdana" font-size="8.00">+ getShortName() : string</text>
<text text-anchor="start" x="21" y="-857.1" font-family="Verdana" font-size="8.00">+ beforeTraverse(nodes : array) : ?array</text>
<text text-anchor="start" x="21" y="-844.1" font-family="Verdana" font-size="8.00">+ afterTraverse(nodes : array) : ?array</text>
<text text-anchor="start" x="21" y="-831.1" font-family="Verdana" font-size="8.00">+ getData() : array</text>
<text text-anchor="start" x="21" y="-818.1" font-family="Verdana" font-size="8.00">+ enterNode(node : PhpParser\Node)</text>
<text text-anchor="start" x="21" y="-805.1" font-family="Verdana" font-size="8.00">+ leaveNode(node : PhpParser\Node)</text>
</g>
<!-- Bartlett\\CompatInfo\\Application\\Analyser\\CompatibilityAnalyser&#45;&gt;Bartlett\\CompatInfo\\Application\\Analyser\\AbstractSniffAnalyser -->
<g id="edge5" class="edge">
<title>Bartlett\\CompatInfo\\Application\\Analyser\\CompatibilityAnalyser&#45;&gt;Bartlett\\CompatInfo\\Application\\Analyser\\AbstractSniffAnalyser</title>
<path fill="none" stroke="black" d="M1002.67,-797.82C1008,-788.92 1013.35,-779.98 1018.65,-771.14"/>
<polygon fill="none" stroke="black" points="1021.78,-772.72 1023.91,-762.34 1015.77,-769.12 1021.78,-772.72"/>
</g>
</g>
</svg>
