<?xml version="1.0" encoding="UTF-8" standalone="no"?>
<!DOCTYPE svg PUBLIC "-//W3C//DTD SVG 1.1//EN"
 "http://www.w3.org/Graphics/SVG/1.1/DTD/svg11.dtd">
<!-- Generated by graphviz version 2.43.0 (0)
 -->
<!-- Title: %3 Pages: 1 -->
<svg width="1091pt" height="426pt"
 viewBox="0.00 0.00 1091.00 426.00" xmlns="http://www.w3.org/2000/svg" xmlns:xlink="http://www.w3.org/1999/xlink">
<g id="graph0" class="graph" transform="scale(1 1) rotate(0) translate(4 422)">
<title>%3</title>
<g id="clust1" class="cluster">
<title>cluster_0</title>
<polygon fill="Bisque" stroke="black" points="8,-193 8,-410 656,-410 656,-193 8,-193"/>
<text text-anchor="middle" x="332" y="-394.8" font-family="Times,serif" font-size="14.00">Bartlett\CompatInfo\Application\Query\Analyser\Compatibility</text>
</g>
<g id="clust2" class="cluster">
<title>cluster_1</title>
<polygon fill="BurlyWood" stroke="black" points="676,-76 676,-271 1075,-271 1075,-76 676,-76"/>
<text text-anchor="middle" x="875.5" y="-255.8" font-family="Times,serif" font-size="14.00">Bartlett\CompatInfo\Application\Query</text>
</g>
<g id="clust3" class="cluster">
<title>cluster_2</title>
<polygon fill="Bisque" stroke="black" points="19.5,-8 19.5,-185 644.5,-185 644.5,-8 19.5,-8"/>
<text text-anchor="middle" x="332" y="-169.8" font-family="Times,serif" font-size="14.00">Bartlett\CompatInfo\Application\Query\Diagnose</text>
</g>
<!-- Bartlett\\CompatInfo\\Application\\Query\\Analyser\\Compatibility\\GetCompatibilityHandler -->
<g id="node1" class="node">
<title>Bartlett\\CompatInfo\\Application\\Query\\Analyser\\Compatibility\\GetCompatibilityHandler</title>
<polygon fill="#fefece" stroke="transparent" points="648,-379 16,-379 16,-319 648,-319 648,-379"/>
<polygon fill="#eeeeee" stroke="transparent" points="16,-357 16,-379 648,-379 648,-357 16,-357"/>
<polygon fill="none" stroke="black" points="16,-357 16,-379 648,-379 648,-357 16,-357"/>
<text text-anchor="start" x="275" y="-362.6" font-family="Verdana" font-weight="bold" font-size="8.00">GetCompatibilityHandler</text>
<polygon fill="none" stroke="black" points="16,-351 16,-357 648,-357 648,-351 16,-351"/>
<polygon fill="none" stroke="black" points="16,-319 16,-351 648,-351 648,-319 16,-319"/>
<text text-anchor="start" x="21" y="-339.6" font-family="Verdana" font-size="8.00">+ __construct(parser : Bartlett\CompatInfo\Application\PhpParser\Parser)</text>
<text text-anchor="start" x="21" y="-326.6" font-family="Verdana" font-size="8.00">+ __invoke(query : Bartlett\CompatInfo\Application\Query\Analyser\Compatibility\GetCompatibilityQuery) : Bartlett\CompatInfo\Application\Profiler\Profile</text>
</g>
<!-- Bartlett\\CompatInfo\\Application\\Query\\QueryHandlerInterface -->
<g id="node3" class="node">
<title>Bartlett\\CompatInfo\\Application\\Query\\QueryHandlerInterface</title>
<polygon fill="#fefece" stroke="transparent" points="930.5,-240 820.5,-240 820.5,-204 930.5,-204 930.5,-240"/>
<polygon fill="#eeeeee" stroke="transparent" points="820.5,-217 820.5,-239 930.5,-239 930.5,-217 820.5,-217"/>
<polygon fill="none" stroke="black" points="820.5,-217 820.5,-239 930.5,-239 930.5,-217 820.5,-217"/>
<text text-anchor="start" x="849.5" y="-230.6" font-family="Verdana" font-weight="bold" font-size="8.00">«interface»</text>
<text text-anchor="start" x="823.5" y="-222.6" font-family="Verdana" font-weight="bold" font-size="8.00">QueryHandlerInterface</text>
<polygon fill="none" stroke="black" points="820.5,-211 820.5,-217 930.5,-217 930.5,-211 820.5,-211"/>
<polygon fill="none" stroke="black" points="820.5,-205 820.5,-211 930.5,-211 930.5,-205 820.5,-205"/>
</g>
<!-- Bartlett\\CompatInfo\\Application\\Query\\Analyser\\Compatibility\\GetCompatibilityHandler&#45;&gt;Bartlett\\CompatInfo\\Application\\Query\\QueryHandlerInterface -->
<g id="edge1" class="edge">
<title>Bartlett\\CompatInfo\\Application\\Query\\Analyser\\Compatibility\\GetCompatibilityHandler&#45;&gt;Bartlett\\CompatInfo\\Application\\Query\\QueryHandlerInterface</title>
<path fill="none" stroke="black" stroke-dasharray="5,2" d="M617.38,-318.92C630.49,-316.2 643.42,-313.23 656,-310 717.81,-294.12 785.45,-264.9 828.85,-244.51"/>
<polygon fill="none" stroke="black" points="830.47,-247.61 838,-240.17 827.47,-241.29 830.47,-247.61"/>
</g>
<!-- Bartlett\\CompatInfo\\Application\\Query\\Analyser\\Compatibility\\GetCompatibilityQuery -->
<g id="node2" class="node">
<title>Bartlett\\CompatInfo\\Application\\Query\\Analyser\\Compatibility\\GetCompatibilityQuery</title>
<polygon fill="#fefece" stroke="transparent" points="505,-300.5 159,-300.5 159,-201.5 505,-201.5 505,-300.5"/>
<polygon fill="#eeeeee" stroke="transparent" points="159,-278 159,-300 505,-300 505,-278 159,-278"/>
<polygon fill="none" stroke="black" points="159,-278 159,-300 505,-300 505,-278 159,-278"/>
<text text-anchor="start" x="279.5" y="-283.6" font-family="Verdana" font-weight="bold" font-size="8.00">GetCompatibilityQuery</text>
<polygon fill="none" stroke="black" points="159,-272 159,-278 505,-278 505,-272 159,-272"/>
<polygon fill="none" stroke="black" points="159,-201 159,-272 505,-272 505,-201 159,-201"/>
<text text-anchor="start" x="164" y="-260.6" font-family="Verdana" font-size="8.00">+ __construct(source : string, exclude : array, stopOnFailure : bool, version : string)</text>
<text text-anchor="start" x="164" y="-247.6" font-family="Verdana" font-size="8.00">+ getSource() : string</text>
<text text-anchor="start" x="164" y="-234.6" font-family="Verdana" font-size="8.00">+ getExclude() : array</text>
<text text-anchor="start" x="164" y="-221.6" font-family="Verdana" font-size="8.00">+ isStopOnFailure() : bool</text>
<text text-anchor="start" x="164" y="-208.6" font-family="Verdana" font-size="8.00">+ getVersion() : string</text>
</g>
<!-- Bartlett\\CompatInfo\\Application\\Query\\QueryInterface -->
<g id="node4" class="node">
<title>Bartlett\\CompatInfo\\Application\\Query\\QueryInterface</title>
<polygon fill="#fefece" stroke="transparent" points="912.5,-186 838.5,-186 838.5,-150 912.5,-150 912.5,-186"/>
<polygon fill="#eeeeee" stroke="transparent" points="838.5,-163 838.5,-185 912.5,-185 912.5,-163 838.5,-163"/>
<polygon fill="none" stroke="black" points="838.5,-163 838.5,-185 912.5,-185 912.5,-163 838.5,-163"/>
<text text-anchor="start" x="849.5" y="-176.6" font-family="Verdana" font-weight="bold" font-size="8.00">«interface»</text>
<text text-anchor="start" x="841.5" y="-168.6" font-family="Verdana" font-weight="bold" font-size="8.00">QueryInterface</text>
<polygon fill="none" stroke="black" points="838.5,-157 838.5,-163 912.5,-163 912.5,-157 838.5,-157"/>
<polygon fill="none" stroke="black" points="838.5,-151 838.5,-157 912.5,-157 912.5,-151 838.5,-151"/>
</g>
<!-- Bartlett\\CompatInfo\\Application\\Query\\Analyser\\Compatibility\\GetCompatibilityQuery&#45;&gt;Bartlett\\CompatInfo\\Application\\Query\\QueryInterface -->
<g id="edge2" class="edge">
<title>Bartlett\\CompatInfo\\Application\\Query\\Analyser\\Compatibility\\GetCompatibilityQuery&#45;&gt;Bartlett\\CompatInfo\\Application\\Query\\QueryInterface</title>
<path fill="none" stroke="black" stroke-dasharray="5,2" d="M505.15,-221.97C559.74,-213.02 620.36,-203.33 676,-195 728.05,-187.21 787.93,-179.2 828.19,-173.94"/>
<polygon fill="none" stroke="black" points="828.77,-177.4 838.24,-172.64 827.87,-170.46 828.77,-177.4"/>
</g>
<!-- Bartlett\\CompatInfo\\Application\\Query\\QueryBusInterface -->
<g id="node5" class="node">
<title>Bartlett\\CompatInfo\\Application\\Query\\QueryBusInterface</title>
<polygon fill="#fefece" stroke="transparent" points="1067,-131.5 684,-131.5 684,-84.5 1067,-84.5 1067,-131.5"/>
<polygon fill="#eeeeee" stroke="transparent" points="684.5,-109 684.5,-131 1067.5,-131 1067.5,-109 684.5,-109"/>
<polygon fill="none" stroke="black" points="684.5,-109 684.5,-131 1067.5,-131 1067.5,-109 684.5,-109"/>
<text text-anchor="start" x="850" y="-122.6" font-family="Verdana" font-weight="bold" font-size="8.00">«interface»</text>
<text text-anchor="start" x="833.5" y="-114.6" font-family="Verdana" font-weight="bold" font-size="8.00">QueryBusInterface</text>
<polygon fill="none" stroke="black" points="684.5,-103 684.5,-109 1067.5,-109 1067.5,-103 684.5,-103"/>
<polygon fill="none" stroke="black" points="684.5,-84 684.5,-103 1067.5,-103 1067.5,-84 684.5,-84"/>
<text text-anchor="start" x="689.5" y="-91.6" font-family="Verdana" font-size="8.00">+ «abstract» query(query : Bartlett\CompatInfo\Application\Query\QueryInterface) : ?mixed</text>
</g>
<!-- Bartlett\\CompatInfo\\Application\\Query\\Diagnose\\DiagnoseHandler -->
<g id="node6" class="node">
<title>Bartlett\\CompatInfo\\Application\\Query\\Diagnose\\DiagnoseHandler</title>
<polygon fill="#fefece" stroke="transparent" points="636.5,-154 27.5,-154 27.5,-94 636.5,-94 636.5,-154"/>
<polygon fill="#eeeeee" stroke="transparent" points="28,-132 28,-154 637,-154 637,-132 28,-132"/>
<polygon fill="none" stroke="black" points="28,-132 28,-154 637,-154 637,-132 28,-132"/>
<text text-anchor="start" x="293" y="-137.6" font-family="Verdana" font-weight="bold" font-size="8.00">DiagnoseHandler</text>
<polygon fill="none" stroke="black" points="28,-126 28,-132 637,-132 637,-126 28,-126"/>
<polygon fill="none" stroke="black" points="28,-94 28,-126 637,-126 637,-94 28,-94"/>
<text text-anchor="start" x="33" y="-114.6" font-family="Verdana" font-size="8.00">+ __construct(handler : Bartlett\CompatInfoDb\Application\Query\Diagnose\DiagnoseHandler)</text>
<text text-anchor="start" x="33" y="-101.6" font-family="Verdana" font-size="8.00">+ __invoke(query : Bartlett\CompatInfo\Application\Query\Diagnose\DiagnoseQuery) : Bartlett\CompatInfoDb\Infrastructure\RequirementsInterface</text>
</g>
<!-- Bartlett\\CompatInfo\\Application\\Query\\Diagnose\\DiagnoseHandler&#45;&gt;Bartlett\\CompatInfo\\Application\\Query\\QueryHandlerInterface -->
<g id="edge3" class="edge">
<title>Bartlett\\CompatInfo\\Application\\Query\\Diagnose\\DiagnoseHandler&#45;&gt;Bartlett\\CompatInfo\\Application\\Query\\QueryHandlerInterface</title>
<path fill="none" stroke="black" stroke-dasharray="5,2" d="M497.57,-154.05C548.57,-164.18 604.81,-176.2 656,-189 665,-191.25 666.93,-193.04 676,-195 720.31,-204.6 770.96,-211.42 810.01,-215.81"/>
<polygon fill="none" stroke="black" points="809.86,-219.31 820.18,-216.93 810.62,-212.36 809.86,-219.31"/>
</g>
<!-- Bartlett\\CompatInfo\\Application\\Query\\Diagnose\\DiagnoseQuery -->
<g id="node7" class="node">
<title>Bartlett\\CompatInfo\\Application\\Query\\Diagnose\\DiagnoseQuery</title>
<polygon fill="#fefece" stroke="transparent" points="478.5,-76 185.5,-76 185.5,-16 478.5,-16 478.5,-76"/>
<polygon fill="#eeeeee" stroke="transparent" points="186,-54 186,-76 479,-76 479,-54 186,-54"/>
<polygon fill="none" stroke="black" points="186,-54 186,-76 479,-76 479,-54 186,-54"/>
<text text-anchor="start" x="297.5" y="-59.6" font-family="Verdana" font-weight="bold" font-size="8.00">DiagnoseQuery</text>
<polygon fill="none" stroke="black" points="186,-48 186,-54 479,-54 479,-48 186,-48"/>
<polygon fill="none" stroke="black" points="186,-16 186,-48 479,-48 479,-16 186,-16"/>
<text text-anchor="start" x="191" y="-36.6" font-family="Verdana" font-size="8.00">+ __construct(entityManager : Doctrine\ORM\EntityManagerInterface)</text>
<text text-anchor="start" x="191" y="-23.6" font-family="Verdana" font-size="8.00">+ getDatabaseConnection() : Doctrine\DBAL\Connection</text>
</g>
<!-- Bartlett\\CompatInfo\\Application\\Query\\Diagnose\\DiagnoseQuery&#45;&gt;Bartlett\\CompatInfo\\Application\\Query\\QueryInterface -->
<g id="edge4" class="edge">
<title>Bartlett\\CompatInfo\\Application\\Query\\Diagnose\\DiagnoseQuery&#45;&gt;Bartlett\\CompatInfo\\Application\\Query\\QueryInterface</title>
<path fill="none" stroke="black" stroke-dasharray="5,2" d="M478.52,-31.68C539.17,-33.23 606.79,-45.7 656,-85 676.65,-101.49 655.47,-124.35 676,-141 718.64,-175.58 784.16,-177.78 828.14,-174.39"/>
<polygon fill="none" stroke="black" points="828.63,-177.86 838.28,-173.48 828,-170.89 828.63,-177.86"/>
</g>
</g>
</svg>
