<?xml version="1.0" encoding="UTF-8" standalone="no"?>
<!DOCTYPE svg PUBLIC "-//W3C//DTD SVG 1.1//EN"
 "http://www.w3.org/Graphics/SVG/1.1/DTD/svg11.dtd">
<!-- Generated by graphviz version 2.43.0 (0)
 -->
<!-- Title: %3 Pages: 1 -->
<svg width="412pt" height="110pt"
 viewBox="0.00 0.00 412.00 110.00" xmlns="http://www.w3.org/2000/svg" xmlns:xlink="http://www.w3.org/1999/xlink">
<g id="graph0" class="graph" transform="scale(1 1) rotate(0) translate(4 106)">
<title>%3</title>
<g id="clust1" class="cluster">
<title>cluster_0</title>
<polygon fill="BurlyWood" stroke="black" points="8,-8 8,-94 396,-94 396,-8 8,-8"/>
<text text-anchor="middle" x="202" y="-78.8" font-family="Times,serif" font-size="14.00">Bartlett\CompatInfo\Application\Service</text>
</g>
<!-- Bartlett\\CompatInfo\\Application\\Service\\SourceProvider -->
<g id="node1" class="node">
<title>Bartlett\\CompatInfo\\Application\\Service\\SourceProvider</title>
<polygon fill="#fefece" stroke="transparent" points="387.5,-63 16.5,-63 16.5,-16 387.5,-16 387.5,-63"/>
<polygon fill="#eeeeee" stroke="transparent" points="17,-40.5 17,-62.5 388,-62.5 388,-40.5 17,-40.5"/>
<polygon fill="none" stroke="black" points="17,-40.5 17,-62.5 388,-62.5 388,-40.5 17,-40.5"/>
<text text-anchor="start" x="167.5" y="-46.1" font-family="Verdana" font-weight="bold" font-size="8.00">SourceProvider</text>
<polygon fill="none" stroke="black" points="17,-34.5 17,-40.5 388,-40.5 388,-34.5 17,-34.5"/>
<polygon fill="none" stroke="black" points="17,-15.5 17,-34.5 388,-34.5 388,-15.5 17,-15.5"/>
<text text-anchor="start" x="22" y="-23.1" font-family="Verdana" font-size="8.00">+ «static» getFinder(source : string, exclude : array) : Symfony\Component\Finder\Finder</text>
</g>
</g>
</svg>
