<?xml version="1.0" encoding="UTF-8" standalone="no"?>
<!DOCTYPE svg PUBLIC "-//W3C//DTD SVG 1.1//EN"
 "http://www.w3.org/Graphics/SVG/1.1/DTD/svg11.dtd">
<!-- Generated by graphviz version 2.43.0 (0)
 -->
<!-- Title: %3 Pages: 1 -->
<svg width="1202pt" height="315pt"
 viewBox="0.00 0.00 1202.00 315.00" xmlns="http://www.w3.org/2000/svg" xmlns:xlink="http://www.w3.org/1999/xlink">
<g id="graph0" class="graph" transform="scale(1 1) rotate(0) translate(4 311)">
<title>%3</title>
<g id="clust1" class="cluster">
<title>cluster_0</title>
<polygon fill="BurlyWood" stroke="black" points="8,-8 8,-299 1186,-299 1186,-8 8,-8"/>
<text text-anchor="middle" x="597" y="-283.8" font-family="Times,serif" font-size="14.00">Bartlett\CompatInfo\Application\Polyfills</text>
</g>
<!-- Bartlett\\CompatInfo\\Application\\Polyfills\\PolyfillInterface -->
<g id="node1" class="node">
<title>Bartlett\\CompatInfo\\Application\\Polyfills\\PolyfillInterface</title>
<polygon fill="#fefece" stroke="transparent" points="670,-76 524,-76 524,-16 670,-16 670,-76"/>
<polygon fill="#eeeeee" stroke="transparent" points="524,-54 524,-76 670,-76 670,-54 524,-54"/>
<polygon fill="none" stroke="black" points="524,-54 524,-76 670,-76 670,-54 524,-54"/>
<text text-anchor="start" x="571" y="-67.6" font-family="Verdana" font-weight="bold" font-size="8.00">«interface»</text>
<text text-anchor="start" x="560.5" y="-59.6" font-family="Verdana" font-weight="bold" font-size="8.00">PolyfillInterface</text>
<polygon fill="none" stroke="black" points="524,-48 524,-54 670,-54 670,-48 524,-48"/>
<polygon fill="none" stroke="black" points="524,-16 524,-48 670,-48 670,-16 524,-16"/>
<text text-anchor="start" x="529" y="-36.6" font-family="Verdana" font-size="8.00">+ «abstract» getName() : string</text>
<text text-anchor="start" x="529" y="-23.6" font-family="Verdana" font-size="8.00">+ «abstract» getVersion() : string</text>
</g>
<!-- Bartlett\\CompatInfo\\Application\\Polyfills\\SymfonyCtype -->
<g id="node2" class="node">
<title>Bartlett\\CompatInfo\\Application\\Polyfills\\SymfonyCtype</title>
<polygon fill="#fefece" stroke="transparent" points="1178,-268 1078,-268 1078,-208 1178,-208 1178,-268"/>
<polygon fill="#eeeeee" stroke="transparent" points="1078,-246 1078,-268 1178,-268 1178,-246 1078,-246"/>
<polygon fill="none" stroke="black" points="1078,-246 1078,-268 1178,-268 1178,-246 1078,-246"/>
<text text-anchor="start" x="1094.5" y="-251.6" font-family="Verdana" font-weight="bold" font-size="8.00">SymfonyCtype</text>
<polygon fill="none" stroke="black" points="1078,-240 1078,-246 1178,-246 1178,-240 1078,-240"/>
<polygon fill="none" stroke="black" points="1078,-208 1078,-240 1178,-240 1178,-208 1078,-208"/>
<text text-anchor="start" x="1083" y="-228.6" font-family="Verdana" font-size="8.00">+ getName() : string</text>
<text text-anchor="start" x="1083" y="-215.6" font-family="Verdana" font-size="8.00">+ getVersion() : string</text>
</g>
<!-- Bartlett\\CompatInfo\\Application\\Polyfills\\AbstractPolyfillInstalled -->
<g id="node3" class="node">
<title>Bartlett\\CompatInfo\\Application\\Polyfills\\AbstractPolyfillInstalled</title>
<polygon fill="#fefece" stroke="transparent" points="667,-172 527,-172 527,-112 667,-112 667,-172"/>
<polygon fill="#eeeeee" stroke="transparent" points="527,-150 527,-172 667,-172 667,-150 527,-150"/>
<polygon fill="none" stroke="black" points="527,-150 527,-172 667,-172 667,-150 527,-150"/>
<text text-anchor="start" x="573" y="-163.6" font-family="Verdana" font-weight="bold" font-size="8.00">«abstract»</text>
<text text-anchor="start" x="542.5" y="-155.6" font-family="Verdana" font-weight="bold" font-size="8.00">AbstractPolyfillInstalled</text>
<polygon fill="none" stroke="black" points="527,-144 527,-150 667,-150 667,-144 527,-144"/>
<polygon fill="none" stroke="black" points="527,-112 527,-144 667,-144 667,-112 527,-112"/>
<text text-anchor="start" x="532" y="-132.6" font-family="Verdana" font-size="8.00">+ «abstract» getName() : string</text>
<text text-anchor="start" x="532" y="-119.6" font-family="Verdana" font-size="8.00">+ getVersion() : string</text>
</g>
<!-- Bartlett\\CompatInfo\\Application\\Polyfills\\SymfonyCtype&#45;&gt;Bartlett\\CompatInfo\\Application\\Polyfills\\AbstractPolyfillInstalled -->
<g id="edge2" class="edge">
<title>Bartlett\\CompatInfo\\Application\\Polyfills\\SymfonyCtype&#45;&gt;Bartlett\\CompatInfo\\Application\\Polyfills\\AbstractPolyfillInstalled</title>
<path fill="none" stroke="black" d="M1077.9,-211.06C1074.93,-209.94 1071.95,-208.9 1069,-208 935.44,-167.15 772.73,-151.91 677.43,-146.27"/>
<polygon fill="none" stroke="black" points="677.47,-142.76 667.28,-145.69 677.07,-149.75 677.47,-142.76"/>
</g>
<!-- Bartlett\\CompatInfo\\Application\\Polyfills\\AbstractPolyfillInstalled&#45;&gt;Bartlett\\CompatInfo\\Application\\Polyfills\\PolyfillInterface -->
<g id="edge1" class="edge">
<title>Bartlett\\CompatInfo\\Application\\Polyfills\\AbstractPolyfillInstalled&#45;&gt;Bartlett\\CompatInfo\\Application\\Polyfills\\PolyfillInterface</title>
<path fill="none" stroke="black" stroke-dasharray="5,2" d="M597,-111.77C597,-103.73 597,-94.87 597,-86.35"/>
<polygon fill="none" stroke="black" points="600.5,-86.21 597,-76.21 593.5,-86.21 600.5,-86.21"/>
</g>
<!-- Bartlett\\CompatInfo\\Application\\Polyfills\\SymfonyIconv -->
<g id="node4" class="node">
<title>Bartlett\\CompatInfo\\Application\\Polyfills\\SymfonyIconv</title>
<polygon fill="#fefece" stroke="transparent" points="1060,-268 960,-268 960,-208 1060,-208 1060,-268"/>
<polygon fill="#eeeeee" stroke="transparent" points="960,-246 960,-268 1060,-268 1060,-246 960,-246"/>
<polygon fill="none" stroke="black" points="960,-246 960,-268 1060,-268 1060,-246 960,-246"/>
<text text-anchor="start" x="978" y="-251.6" font-family="Verdana" font-weight="bold" font-size="8.00">SymfonyIconv</text>
<polygon fill="none" stroke="black" points="960,-240 960,-246 1060,-246 1060,-240 960,-240"/>
<polygon fill="none" stroke="black" points="960,-208 960,-240 1060,-240 1060,-208 960,-208"/>
<text text-anchor="start" x="965" y="-228.6" font-family="Verdana" font-size="8.00">+ getName() : string</text>
<text text-anchor="start" x="965" y="-215.6" font-family="Verdana" font-size="8.00">+ getVersion() : string</text>
</g>
<!-- Bartlett\\CompatInfo\\Application\\Polyfills\\SymfonyIconv&#45;&gt;Bartlett\\CompatInfo\\Application\\Polyfills\\AbstractPolyfillInstalled -->
<g id="edge3" class="edge">
<title>Bartlett\\CompatInfo\\Application\\Polyfills\\SymfonyIconv&#45;&gt;Bartlett\\CompatInfo\\Application\\Polyfills\\AbstractPolyfillInstalled</title>
<path fill="none" stroke="black" d="M959.85,-211.22C956.89,-210.05 953.93,-208.97 951,-208 859.63,-177.8 750.08,-160.41 677.29,-151.35"/>
<polygon fill="none" stroke="black" points="677.62,-147.86 667.27,-150.13 676.77,-154.81 677.62,-147.86"/>
</g>
<!-- Bartlett\\CompatInfo\\Application\\Polyfills\\SymfonyMbstring -->
<g id="node5" class="node">
<title>Bartlett\\CompatInfo\\Application\\Polyfills\\SymfonyMbstring</title>
<polygon fill="#fefece" stroke="transparent" points="942,-268 842,-268 842,-208 942,-208 942,-268"/>
<polygon fill="#eeeeee" stroke="transparent" points="842,-246 842,-268 942,-268 942,-246 842,-246"/>
<polygon fill="none" stroke="black" points="842,-246 842,-268 942,-268 942,-246 842,-246"/>
<text text-anchor="start" x="851" y="-251.6" font-family="Verdana" font-weight="bold" font-size="8.00">SymfonyMbstring</text>
<polygon fill="none" stroke="black" points="842,-240 842,-246 942,-246 942,-240 842,-240"/>
<polygon fill="none" stroke="black" points="842,-208 842,-240 942,-240 942,-208 842,-208"/>
<text text-anchor="start" x="847" y="-228.6" font-family="Verdana" font-size="8.00">+ getName() : string</text>
<text text-anchor="start" x="847" y="-215.6" font-family="Verdana" font-size="8.00">+ getVersion() : string</text>
</g>
<!-- Bartlett\\CompatInfo\\Application\\Polyfills\\SymfonyMbstring&#45;&gt;Bartlett\\CompatInfo\\Application\\Polyfills\\AbstractPolyfillInstalled -->
<g id="edge4" class="edge">
<title>Bartlett\\CompatInfo\\Application\\Polyfills\\SymfonyMbstring&#45;&gt;Bartlett\\CompatInfo\\Application\\Polyfills\\AbstractPolyfillInstalled</title>
<path fill="none" stroke="black" d="M841.75,-211.53C838.81,-210.28 835.88,-209.09 833,-208 782.2,-188.71 723.27,-172.48 677,-161.06"/>
<polygon fill="none" stroke="black" points="677.58,-157.59 667.03,-158.62 675.91,-164.39 677.58,-157.59"/>
</g>
<!-- Bartlett\\CompatInfo\\Application\\Polyfills\\SymfonyPhp70 -->
<g id="node6" class="node">
<title>Bartlett\\CompatInfo\\Application\\Polyfills\\SymfonyPhp70</title>
<polygon fill="#fefece" stroke="transparent" points="824,-268 724,-268 724,-208 824,-208 824,-268"/>
<polygon fill="#eeeeee" stroke="transparent" points="724,-246 724,-268 824,-268 824,-246 724,-246"/>
<polygon fill="none" stroke="black" points="724,-246 724,-268 824,-268 824,-246 724,-246"/>
<text text-anchor="start" x="739.5" y="-251.6" font-family="Verdana" font-weight="bold" font-size="8.00">SymfonyPhp70</text>
<polygon fill="none" stroke="black" points="724,-240 724,-246 824,-246 824,-240 724,-240"/>
<polygon fill="none" stroke="black" points="724,-208 724,-240 824,-240 824,-208 724,-208"/>
<text text-anchor="start" x="729" y="-228.6" font-family="Verdana" font-size="8.00">+ getName() : string</text>
<text text-anchor="start" x="729" y="-215.6" font-family="Verdana" font-size="8.00">+ getVersion() : string</text>
</g>
<!-- Bartlett\\CompatInfo\\Application\\Polyfills\\SymfonyPhp70&#45;&gt;Bartlett\\CompatInfo\\Application\\Polyfills\\AbstractPolyfillInstalled -->
<g id="edge5" class="edge">
<title>Bartlett\\CompatInfo\\Application\\Polyfills\\SymfonyPhp70&#45;&gt;Bartlett\\CompatInfo\\Application\\Polyfills\\AbstractPolyfillInstalled</title>
<path fill="none" stroke="black" d="M723.75,-210.31C704.17,-199.91 681.48,-187.87 660.77,-176.87"/>
<polygon fill="none" stroke="black" points="662.19,-173.66 651.72,-172.06 658.91,-179.84 662.19,-173.66"/>
</g>
<!-- Bartlett\\CompatInfo\\Application\\Polyfills\\SymfonyPhp71 -->
<g id="node7" class="node">
<title>Bartlett\\CompatInfo\\Application\\Polyfills\\SymfonyPhp71</title>
<polygon fill="#fefece" stroke="transparent" points="706,-268 606,-268 606,-208 706,-208 706,-268"/>
<polygon fill="#eeeeee" stroke="transparent" points="606,-246 606,-268 706,-268 706,-246 606,-246"/>
<polygon fill="none" stroke="black" points="606,-246 606,-268 706,-268 706,-246 606,-246"/>
<text text-anchor="start" x="621.5" y="-251.6" font-family="Verdana" font-weight="bold" font-size="8.00">SymfonyPhp71</text>
<polygon fill="none" stroke="black" points="606,-240 606,-246 706,-246 706,-240 606,-240"/>
<polygon fill="none" stroke="black" points="606,-208 606,-240 706,-240 706,-208 606,-208"/>
<text text-anchor="start" x="611" y="-228.6" font-family="Verdana" font-size="8.00">+ getName() : string</text>
<text text-anchor="start" x="611" y="-215.6" font-family="Verdana" font-size="8.00">+ getVersion() : string</text>
</g>
<!-- Bartlett\\CompatInfo\\Application\\Polyfills\\SymfonyPhp71&#45;&gt;Bartlett\\CompatInfo\\Application\\Polyfills\\AbstractPolyfillInstalled -->
<g id="edge6" class="edge">
<title>Bartlett\\CompatInfo\\Application\\Polyfills\\SymfonyPhp71&#45;&gt;Bartlett\\CompatInfo\\Application\\Polyfills\\AbstractPolyfillInstalled</title>
<path fill="none" stroke="black" d="M637.66,-207.77C632.33,-199.28 626.43,-189.89 620.82,-180.95"/>
<polygon fill="none" stroke="black" points="623.61,-178.82 615.33,-172.21 617.68,-182.54 623.61,-178.82"/>
</g>
<!-- Bartlett\\CompatInfo\\Application\\Polyfills\\SymfonyPhp72 -->
<g id="node8" class="node">
<title>Bartlett\\CompatInfo\\Application\\Polyfills\\SymfonyPhp72</title>
<polygon fill="#fefece" stroke="transparent" points="588,-268 488,-268 488,-208 588,-208 588,-268"/>
<polygon fill="#eeeeee" stroke="transparent" points="488,-246 488,-268 588,-268 588,-246 488,-246"/>
<polygon fill="none" stroke="black" points="488,-246 488,-268 588,-268 588,-246 488,-246"/>
<text text-anchor="start" x="503.5" y="-251.6" font-family="Verdana" font-weight="bold" font-size="8.00">SymfonyPhp72</text>
<polygon fill="none" stroke="black" points="488,-240 488,-246 588,-246 588,-240 488,-240"/>
<polygon fill="none" stroke="black" points="488,-208 488,-240 588,-240 588,-208 488,-208"/>
<text text-anchor="start" x="493" y="-228.6" font-family="Verdana" font-size="8.00">+ getName() : string</text>
<text text-anchor="start" x="493" y="-215.6" font-family="Verdana" font-size="8.00">+ getVersion() : string</text>
</g>
<!-- Bartlett\\CompatInfo\\Application\\Polyfills\\SymfonyPhp72&#45;&gt;Bartlett\\CompatInfo\\Application\\Polyfills\\AbstractPolyfillInstalled -->
<g id="edge7" class="edge">
<title>Bartlett\\CompatInfo\\Application\\Polyfills\\SymfonyPhp72&#45;&gt;Bartlett\\CompatInfo\\Application\\Polyfills\\AbstractPolyfillInstalled</title>
<path fill="none" stroke="black" d="M556.34,-207.77C561.67,-199.28 567.57,-189.89 573.18,-180.95"/>
<polygon fill="none" stroke="black" points="576.32,-182.54 578.67,-172.21 570.39,-178.82 576.32,-182.54"/>
</g>
<!-- Bartlett\\CompatInfo\\Application\\Polyfills\\SymfonyPhp73 -->
<g id="node9" class="node">
<title>Bartlett\\CompatInfo\\Application\\Polyfills\\SymfonyPhp73</title>
<polygon fill="#fefece" stroke="transparent" points="470,-268 370,-268 370,-208 470,-208 470,-268"/>
<polygon fill="#eeeeee" stroke="transparent" points="370,-246 370,-268 470,-268 470,-246 370,-246"/>
<polygon fill="none" stroke="black" points="370,-246 370,-268 470,-268 470,-246 370,-246"/>
<text text-anchor="start" x="385.5" y="-251.6" font-family="Verdana" font-weight="bold" font-size="8.00">SymfonyPhp73</text>
<polygon fill="none" stroke="black" points="370,-240 370,-246 470,-246 470,-240 370,-240"/>
<polygon fill="none" stroke="black" points="370,-208 370,-240 470,-240 470,-208 370,-208"/>
<text text-anchor="start" x="375" y="-228.6" font-family="Verdana" font-size="8.00">+ getName() : string</text>
<text text-anchor="start" x="375" y="-215.6" font-family="Verdana" font-size="8.00">+ getVersion() : string</text>
</g>
<!-- Bartlett\\CompatInfo\\Application\\Polyfills\\SymfonyPhp73&#45;&gt;Bartlett\\CompatInfo\\Application\\Polyfills\\AbstractPolyfillInstalled -->
<g id="edge8" class="edge">
<title>Bartlett\\CompatInfo\\Application\\Polyfills\\SymfonyPhp73&#45;&gt;Bartlett\\CompatInfo\\Application\\Polyfills\\AbstractPolyfillInstalled</title>
<path fill="none" stroke="black" d="M470.25,-210.31C489.83,-199.91 512.52,-187.87 533.23,-176.87"/>
<polygon fill="none" stroke="black" points="535.09,-179.84 542.28,-172.06 531.81,-173.66 535.09,-179.84"/>
</g>
<!-- Bartlett\\CompatInfo\\Application\\Polyfills\\SymfonyPhp74 -->
<g id="node10" class="node">
<title>Bartlett\\CompatInfo\\Application\\Polyfills\\SymfonyPhp74</title>
<polygon fill="#fefece" stroke="transparent" points="352,-268 252,-268 252,-208 352,-208 352,-268"/>
<polygon fill="#eeeeee" stroke="transparent" points="252,-246 252,-268 352,-268 352,-246 252,-246"/>
<polygon fill="none" stroke="black" points="252,-246 252,-268 352,-268 352,-246 252,-246"/>
<text text-anchor="start" x="267.5" y="-251.6" font-family="Verdana" font-weight="bold" font-size="8.00">SymfonyPhp74</text>
<polygon fill="none" stroke="black" points="252,-240 252,-246 352,-246 352,-240 252,-240"/>
<polygon fill="none" stroke="black" points="252,-208 252,-240 352,-240 352,-208 252,-208"/>
<text text-anchor="start" x="257" y="-228.6" font-family="Verdana" font-size="8.00">+ getName() : string</text>
<text text-anchor="start" x="257" y="-215.6" font-family="Verdana" font-size="8.00">+ getVersion() : string</text>
</g>
<!-- Bartlett\\CompatInfo\\Application\\Polyfills\\SymfonyPhp74&#45;&gt;Bartlett\\CompatInfo\\Application\\Polyfills\\AbstractPolyfillInstalled -->
<g id="edge9" class="edge">
<title>Bartlett\\CompatInfo\\Application\\Polyfills\\SymfonyPhp74&#45;&gt;Bartlett\\CompatInfo\\Application\\Polyfills\\AbstractPolyfillInstalled</title>
<path fill="none" stroke="black" d="M352.25,-211.53C355.19,-210.28 358.12,-209.09 361,-208 411.8,-188.71 470.73,-172.48 517,-161.06"/>
<polygon fill="none" stroke="black" points="518.09,-164.39 526.97,-158.62 516.42,-157.59 518.09,-164.39"/>
</g>
<!-- Bartlett\\CompatInfo\\Application\\Polyfills\\SymfonyPhp80 -->
<g id="node11" class="node">
<title>Bartlett\\CompatInfo\\Application\\Polyfills\\SymfonyPhp80</title>
<polygon fill="#fefece" stroke="transparent" points="234,-268 134,-268 134,-208 234,-208 234,-268"/>
<polygon fill="#eeeeee" stroke="transparent" points="134,-246 134,-268 234,-268 234,-246 134,-246"/>
<polygon fill="none" stroke="black" points="134,-246 134,-268 234,-268 234,-246 134,-246"/>
<text text-anchor="start" x="149.5" y="-251.6" font-family="Verdana" font-weight="bold" font-size="8.00">SymfonyPhp80</text>
<polygon fill="none" stroke="black" points="134,-240 134,-246 234,-246 234,-240 134,-240"/>
<polygon fill="none" stroke="black" points="134,-208 134,-240 234,-240 234,-208 134,-208"/>
<text text-anchor="start" x="139" y="-228.6" font-family="Verdana" font-size="8.00">+ getName() : string</text>
<text text-anchor="start" x="139" y="-215.6" font-family="Verdana" font-size="8.00">+ getVersion() : string</text>
</g>
<!-- Bartlett\\CompatInfo\\Application\\Polyfills\\SymfonyPhp80&#45;&gt;Bartlett\\CompatInfo\\Application\\Polyfills\\AbstractPolyfillInstalled -->
<g id="edge10" class="edge">
<title>Bartlett\\CompatInfo\\Application\\Polyfills\\SymfonyPhp80&#45;&gt;Bartlett\\CompatInfo\\Application\\Polyfills\\AbstractPolyfillInstalled</title>
<path fill="none" stroke="black" d="M234.15,-211.22C237.11,-210.05 240.07,-208.97 243,-208 334.37,-177.8 443.92,-160.41 516.71,-151.35"/>
<polygon fill="none" stroke="black" points="517.23,-154.81 526.73,-150.13 516.38,-147.86 517.23,-154.81"/>
</g>
<!-- Bartlett\\CompatInfo\\Application\\Polyfills\\SymfonyPhp81 -->
<g id="node12" class="node">
<title>Bartlett\\CompatInfo\\Application\\Polyfills\\SymfonyPhp81</title>
<polygon fill="#fefece" stroke="transparent" points="116,-268 16,-268 16,-208 116,-208 116,-268"/>
<polygon fill="#eeeeee" stroke="transparent" points="16,-246 16,-268 116,-268 116,-246 16,-246"/>
<polygon fill="none" stroke="black" points="16,-246 16,-268 116,-268 116,-246 16,-246"/>
<text text-anchor="start" x="31.5" y="-251.6" font-family="Verdana" font-weight="bold" font-size="8.00">SymfonyPhp81</text>
<polygon fill="none" stroke="black" points="16,-240 16,-246 116,-246 116,-240 16,-240"/>
<polygon fill="none" stroke="black" points="16,-208 16,-240 116,-240 116,-208 16,-208"/>
<text text-anchor="start" x="21" y="-228.6" font-family="Verdana" font-size="8.00">+ getName() : string</text>
<text text-anchor="start" x="21" y="-215.6" font-family="Verdana" font-size="8.00">+ getVersion() : string</text>
</g>
<!-- Bartlett\\CompatInfo\\Application\\Polyfills\\SymfonyPhp81&#45;&gt;Bartlett\\CompatInfo\\Application\\Polyfills\\AbstractPolyfillInstalled -->
<g id="edge11" class="edge">
<title>Bartlett\\CompatInfo\\Application\\Polyfills\\SymfonyPhp81&#45;&gt;Bartlett\\CompatInfo\\Application\\Polyfills\\AbstractPolyfillInstalled</title>
<path fill="none" stroke="black" d="M116.1,-211.06C119.07,-209.94 122.05,-208.9 125,-208 258.56,-167.15 421.27,-151.91 516.57,-146.27"/>
<polygon fill="none" stroke="black" points="516.93,-149.75 526.72,-145.69 516.53,-142.76 516.93,-149.75"/>
</g>
</g>
</svg>
