<?xml version="1.0" encoding="UTF-8" standalone="no"?>
<!DOCTYPE svg PUBLIC "-//W3C//DTD SVG 1.1//EN"
 "http://www.w3.org/Graphics/SVG/1.1/DTD/svg11.dtd">
<!-- Generated by graphviz version 2.43.0 (0)
 -->
<!-- Title: %3 Pages: 1 -->
<svg width="914pt" height="497pt"
 viewBox="0.00 0.00 914.00 497.00" xmlns="http://www.w3.org/2000/svg" xmlns:xlink="http://www.w3.org/1999/xlink">
<g id="graph0" class="graph" transform="scale(1 1) rotate(0) translate(4 493)">
<title>%3</title>
<g id="clust1" class="cluster">
<title>cluster_0</title>
<polygon fill="BurlyWood" stroke="black" points="8,-8 8,-481 898,-481 898,-8 8,-8"/>
<text text-anchor="middle" x="453" y="-465.8" font-family="Times,serif" font-size="14.00">Bartlett\CompatInfo\Application\Profiler</text>
</g>
<!-- Bartlett\\CompatInfo\\Application\\Profiler\\CollectorInterface -->
<g id="node1" class="node">
<title>Bartlett\\CompatInfo\\Application\\Profiler\\CollectorInterface</title>
<polygon fill="#fefece" stroke="transparent" points="668,-115 194,-115 194,-16 668,-16 668,-115"/>
<polygon fill="#eeeeee" stroke="transparent" points="194,-92.5 194,-114.5 668,-114.5 668,-92.5 194,-92.5"/>
<polygon fill="none" stroke="black" points="194,-92.5 194,-114.5 668,-114.5 668,-92.5 194,-92.5"/>
<text text-anchor="start" x="405" y="-106.1" font-family="Verdana" font-weight="bold" font-size="8.00">«interface»</text>
<text text-anchor="start" x="390.5" y="-98.1" font-family="Verdana" font-weight="bold" font-size="8.00">CollectorInterface</text>
<polygon fill="none" stroke="black" points="194,-86.5 194,-92.5 668,-92.5 668,-86.5 194,-86.5"/>
<polygon fill="none" stroke="black" points="194,-15.5 194,-86.5 668,-86.5 668,-15.5 194,-15.5"/>
<text text-anchor="start" x="199" y="-75.1" font-family="Verdana" font-size="8.00">+ «abstract» getCollectors() : array</text>
<text text-anchor="start" x="199" y="-62.1" font-family="Verdana" font-size="8.00">+ «abstract» getCollector(name : string) : Bartlett\CompatInfo\Application\DataCollector\DataCollectorInterface</text>
<text text-anchor="start" x="199" y="-49.1" font-family="Verdana" font-size="8.00">+ «abstract» addCollector(collector : Bartlett\CompatInfo\Application\DataCollector\DataCollectorInterface) : void</text>
<text text-anchor="start" x="199" y="-36.1" font-family="Verdana" font-size="8.00">+ «abstract» setCollectors(collectors : array) : void</text>
<text text-anchor="start" x="199" y="-23.1" font-family="Verdana" font-size="8.00">+ «abstract» hasCollector(name : string) : bool</text>
</g>
<!-- Bartlett\\CompatInfo\\Application\\Profiler\\CollectorTrait -->
<g id="node2" class="node">
<title>Bartlett\\CompatInfo\\Application\\Profiler\\CollectorTrait</title>
<polygon fill="#fefece" stroke="transparent" points="890,-430.5 462,-430.5 462,-331.5 890,-331.5 890,-430.5"/>
<polygon fill="#eeeeee" stroke="transparent" points="462,-408 462,-430 890,-430 890,-408 462,-408"/>
<polygon fill="none" stroke="black" points="462,-408 462,-430 890,-430 890,-408 462,-408"/>
<text text-anchor="start" x="645.5" y="-413.6" font-family="Verdana" font-weight="bold" font-size="8.00">CollectorTrait</text>
<polygon fill="none" stroke="black" points="462,-402 462,-408 890,-408 890,-402 462,-402"/>
<polygon fill="none" stroke="black" points="462,-331 462,-402 890,-402 890,-331 462,-331"/>
<text text-anchor="start" x="467" y="-390.6" font-family="Verdana" font-size="8.00">+ getCollectors() : array</text>
<text text-anchor="start" x="467" y="-377.6" font-family="Verdana" font-size="8.00">+ getCollector(name : string) : Bartlett\CompatInfo\Application\DataCollector\DataCollectorInterface</text>
<text text-anchor="start" x="467" y="-364.6" font-family="Verdana" font-size="8.00">+ addCollector(collector : Bartlett\CompatInfo\Application\DataCollector\DataCollectorInterface) : void</text>
<text text-anchor="start" x="467" y="-351.6" font-family="Verdana" font-size="8.00">+ setCollectors(collectors : array) : void</text>
<text text-anchor="start" x="467" y="-338.6" font-family="Verdana" font-size="8.00">+ hasCollector(name : string) : bool</text>
</g>
<!-- Bartlett\\CompatInfo\\Application\\Profiler\\Profile -->
<g id="node3" class="node">
<title>Bartlett\\CompatInfo\\Application\\Profiler\\Profile</title>
<polygon fill="#fefece" stroke="transparent" points="824,-276 396,-276 396,-151 824,-151 824,-276"/>
<polygon fill="#eeeeee" stroke="transparent" points="396,-253.5 396,-275.5 824,-275.5 824,-253.5 396,-253.5"/>
<polygon fill="none" stroke="black" points="396,-253.5 396,-275.5 824,-275.5 824,-253.5 396,-253.5"/>
<text text-anchor="start" x="595" y="-259.1" font-family="Verdana" font-weight="bold" font-size="8.00">Profile</text>
<polygon fill="none" stroke="black" points="396,-247.5 396,-253.5 824,-253.5 824,-247.5 396,-247.5"/>
<polygon fill="none" stroke="black" points="396,-150.5 396,-247.5 824,-247.5 824,-150.5 396,-150.5"/>
<text text-anchor="start" x="401" y="-236.1" font-family="Verdana" font-size="8.00">+ __construct(token : string, data : iterable)</text>
<text text-anchor="start" x="401" y="-223.1" font-family="Verdana" font-size="8.00">+ getData() : array</text>
<text text-anchor="start" x="401" y="-210.1" font-family="Verdana" font-size="8.00">+ getCollectors() : array</text>
<text text-anchor="start" x="401" y="-197.1" font-family="Verdana" font-size="8.00">+ getCollector(name : string) : Bartlett\CompatInfo\Application\DataCollector\DataCollectorInterface</text>
<text text-anchor="start" x="401" y="-184.1" font-family="Verdana" font-size="8.00">+ addCollector(collector : Bartlett\CompatInfo\Application\DataCollector\DataCollectorInterface) : void</text>
<text text-anchor="start" x="401" y="-171.1" font-family="Verdana" font-size="8.00">+ setCollectors(collectors : array) : void</text>
<text text-anchor="start" x="401" y="-158.1" font-family="Verdana" font-size="8.00">+ hasCollector(name : string) : bool</text>
</g>
<!-- Bartlett\\CompatInfo\\Application\\Profiler\\Profile&#45;&gt;Bartlett\\CompatInfo\\Application\\Profiler\\CollectorInterface -->
<g id="edge1" class="edge">
<title>Bartlett\\CompatInfo\\Application\\Profiler\\Profile&#45;&gt;Bartlett\\CompatInfo\\Application\\Profiler\\CollectorInterface</title>
<path fill="none" stroke="black" stroke-dasharray="5,2" d="M534.35,-150.79C522.49,-141.12 510.29,-131.17 498.63,-121.66"/>
<polygon fill="none" stroke="black" points="500.61,-118.76 490.64,-115.15 496.18,-124.18 500.61,-118.76"/>
</g>
<!-- Bartlett\\CompatInfo\\Application\\Profiler\\Profiler -->
<g id="node4" class="node">
<title>Bartlett\\CompatInfo\\Application\\Profiler\\Profiler</title>
<polygon fill="#fefece" stroke="transparent" points="444,-450 16,-450 16,-312 444,-312 444,-450"/>
<polygon fill="#eeeeee" stroke="transparent" points="16,-428 16,-450 444,-450 444,-428 16,-428"/>
<polygon fill="none" stroke="black" points="16,-428 16,-450 444,-450 444,-428 16,-428"/>
<text text-anchor="start" x="213" y="-433.6" font-family="Verdana" font-weight="bold" font-size="8.00">Profiler</text>
<polygon fill="none" stroke="black" points="16,-422 16,-428 444,-428 444,-422 16,-422"/>
<polygon fill="none" stroke="black" points="16,-312 16,-422 444,-422 444,-312 16,-312"/>
<text text-anchor="start" x="21" y="-410.6" font-family="Verdana" font-size="8.00">+ __construct(token : string)</text>
<text text-anchor="start" x="21" y="-397.6" font-family="Verdana" font-size="8.00">+ reset() : void</text>
<text text-anchor="start" x="21" y="-384.6" font-family="Verdana" font-size="8.00">+ collect() : Bartlett\CompatInfo\Application\Profiler\Profile</text>
<text text-anchor="start" x="21" y="-371.6" font-family="Verdana" font-size="8.00">+ getCollectors() : array</text>
<text text-anchor="start" x="21" y="-358.6" font-family="Verdana" font-size="8.00">+ getCollector(name : string) : Bartlett\CompatInfo\Application\DataCollector\DataCollectorInterface</text>
<text text-anchor="start" x="21" y="-345.6" font-family="Verdana" font-size="8.00">+ addCollector(collector : Bartlett\CompatInfo\Application\DataCollector\DataCollectorInterface) : void</text>
<text text-anchor="start" x="21" y="-332.6" font-family="Verdana" font-size="8.00">+ setCollectors(collectors : array) : void</text>
<text text-anchor="start" x="21" y="-319.6" font-family="Verdana" font-size="8.00">+ hasCollector(name : string) : bool</text>
</g>
<!-- Bartlett\\CompatInfo\\Application\\Profiler\\ProfilerInterface -->
<g id="node5" class="node">
<title>Bartlett\\CompatInfo\\Application\\Profiler\\ProfilerInterface</title>
<polygon fill="#fefece" stroke="transparent" points="378,-243.5 82,-243.5 82,-183.5 378,-183.5 378,-243.5"/>
<polygon fill="#eeeeee" stroke="transparent" points="82,-221.5 82,-243.5 378,-243.5 378,-221.5 82,-221.5"/>
<polygon fill="none" stroke="black" points="82,-221.5 82,-243.5 378,-243.5 378,-221.5 82,-221.5"/>
<text text-anchor="start" x="204" y="-235.1" font-family="Verdana" font-weight="bold" font-size="8.00">«interface»</text>
<text text-anchor="start" x="193" y="-227.1" font-family="Verdana" font-weight="bold" font-size="8.00">ProfilerInterface</text>
<polygon fill="none" stroke="black" points="82,-215.5 82,-221.5 378,-221.5 378,-215.5 82,-215.5"/>
<polygon fill="none" stroke="black" points="82,-183.5 82,-215.5 378,-215.5 378,-183.5 82,-183.5"/>
<text text-anchor="start" x="87" y="-204.1" font-family="Verdana" font-size="8.00">+ «abstract» reset() : void</text>
<text text-anchor="start" x="87" y="-191.1" font-family="Verdana" font-size="8.00">+ «abstract» collect() : Bartlett\CompatInfo\Application\Profiler\Profile</text>
</g>
<!-- Bartlett\\CompatInfo\\Application\\Profiler\\Profiler&#45;&gt;Bartlett\\CompatInfo\\Application\\Profiler\\ProfilerInterface -->
<g id="edge3" class="edge">
<title>Bartlett\\CompatInfo\\Application\\Profiler\\Profiler&#45;&gt;Bartlett\\CompatInfo\\Application\\Profiler\\ProfilerInterface</title>
<path fill="none" stroke="black" stroke-dasharray="5,2" d="M230,-311.73C230,-292.12 230,-271.38 230,-254.12"/>
<polygon fill="none" stroke="black" points="233.5,-253.86 230,-243.86 226.5,-253.86 233.5,-253.86"/>
</g>
<!-- Bartlett\\CompatInfo\\Application\\Profiler\\ProfilerInterface&#45;&gt;Bartlett\\CompatInfo\\Application\\Profiler\\CollectorInterface -->
<g id="edge2" class="edge">
<title>Bartlett\\CompatInfo\\Application\\Profiler\\ProfilerInterface&#45;&gt;Bartlett\\CompatInfo\\Application\\Profiler\\CollectorInterface</title>
<path fill="none" stroke="black" stroke-dasharray="5,2" d="M270.19,-183.31C294.7,-165.51 326.79,-142.19 355.86,-121.08"/>
<polygon fill="none" stroke="black" points="357.93,-123.9 363.97,-115.19 353.82,-118.24 357.93,-123.9"/>
</g>
</g>
</svg>
