<?xml version="1.0" encoding="UTF-8" standalone="no"?>
<!DOCTYPE svg PUBLIC "-//W3C//DTD SVG 1.1//EN"
 "http://www.w3.org/Graphics/SVG/1.1/DTD/svg11.dtd">
<!-- Generated by graphviz version 2.43.0 (0)
 -->
<!-- Title: %3 Pages: 1 -->
<svg width="1260pt" height="1729pt"
 viewBox="0.00 0.00 1260.08 1728.60" xmlns="http://www.w3.org/2000/svg" xmlns:xlink="http://www.w3.org/1999/xlink">
<g id="graph0" class="graph" transform="scale(1 1) rotate(0) translate(4 1724.6)">
<title>%3</title>
<polygon fill="white" stroke="transparent" points="-4,4 -4,-1724.6 1256.08,-1724.6 1256.08,4 -4,4"/>
<g id="clust1" class="cluster">
<title>cluster_0</title>
<polygon fill="none" stroke="black" points="8,-17.6 8,-1712.6 1244.08,-1712.6 1244.08,-17.6 8,-17.6"/>
<text text-anchor="middle" x="626.04" y="-1697.4" font-family="Times,serif" font-size="14.00">0</text>
</g>
<!-- bartlett/php&#45;compatinfo -->
<g id="node1" class="node">
<title>bartlett/php&#45;compatinfo</title>
<ellipse fill="lightgrey" stroke="black" stroke-width="2" cx="137.54" cy="-885.6" rx="121.58" ry="18"/>
<text text-anchor="middle" x="137.54" y="-881.9" font-family="Times,serif" font-size="14.00">bartlett/php&#45;compatinfo</text>
</g>
<!-- php -->
<g id="node2" class="node">
<title>php</title>
<path fill="#eeeeee" stroke="black" d="M1103.58,-1411.6C1103.58,-1411.6 1073.58,-1411.6 1073.58,-1411.6 1067.58,-1411.6 1061.58,-1405.6 1061.58,-1399.6 1061.58,-1399.6 1061.58,-1387.6 1061.58,-1387.6 1061.58,-1381.6 1067.58,-1375.6 1073.58,-1375.6 1073.58,-1375.6 1103.58,-1375.6 1103.58,-1375.6 1109.58,-1375.6 1115.58,-1381.6 1115.58,-1387.6 1115.58,-1387.6 1115.58,-1399.6 1115.58,-1399.6 1115.58,-1405.6 1109.58,-1411.6 1103.58,-1411.6"/>
<text text-anchor="middle" x="1088.58" y="-1389.9" font-family="Times,serif" font-size="14.00" fill="#314b5f">php</text>
</g>
<!-- bartlett/php&#45;compatinfo&#45;&gt;php -->
<g id="edge1" class="edge">
<title>bartlett/php&#45;compatinfo&#45;&gt;php</title>
<path fill="none" stroke="#1a2833" d="M141.88,-903.83C155.15,-970.67 210.47,-1204.17 354.08,-1316.6 459.7,-1399.29 510.37,-1384.05 643.08,-1403.6 766.2,-1421.73 798.69,-1407.37 923.08,-1403.6 967.21,-1402.26 1017.9,-1398.9 1051.21,-1396.44"/>
<polygon fill="#1a2833" stroke="#1a2833" points="1051.68,-1399.92 1061.39,-1395.68 1051.16,-1392.94 1051.68,-1399.92"/>
<text text-anchor="middle" x="489.58" y="-1403.6" font-family="Times,serif" font-size="10.00" fill="#767676">^8.2</text>
</g>
<!-- ext&#45;json -->
<g id="node3" class="node">
<title>ext&#45;json</title>
<path fill="#eeeeee" stroke="black" d="M1113.08,-1141.6C1113.08,-1141.6 1064.08,-1141.6 1064.08,-1141.6 1058.08,-1141.6 1052.08,-1135.6 1052.08,-1129.6 1052.08,-1129.6 1052.08,-1117.6 1052.08,-1117.6 1052.08,-1111.6 1058.08,-1105.6 1064.08,-1105.6 1064.08,-1105.6 1113.08,-1105.6 1113.08,-1105.6 1119.08,-1105.6 1125.08,-1111.6 1125.08,-1117.6 1125.08,-1117.6 1125.08,-1129.6 1125.08,-1129.6 1125.08,-1135.6 1119.08,-1141.6 1113.08,-1141.6"/>
<text text-anchor="middle" x="1088.58" y="-1119.9" font-family="Times,serif" font-size="14.00" fill="#314b5f">ext&#45;json</text>
</g>
<!-- bartlett/php&#45;compatinfo&#45;&gt;ext&#45;json -->
<g id="edge2" class="edge">
<title>bartlett/php&#45;compatinfo&#45;&gt;ext&#45;json</title>
<path fill="none" stroke="#1a2833" d="M162.97,-903.38C201.5,-930.45 279.66,-981.5 354.08,-1006.6 477.6,-1048.24 513.42,-1043.13 643.08,-1056.6 674.04,-1059.81 896.27,-1050.78 923.08,-1066.6 936.47,-1074.5 928.3,-1087.74 941.08,-1096.6 970.48,-1116.99 1010.9,-1123.22 1041.83,-1124.65"/>
<polygon fill="#1a2833" stroke="#1a2833" points="1041.82,-1128.15 1051.93,-1124.96 1042.04,-1121.15 1041.82,-1128.15"/>
<text text-anchor="middle" x="489.58" y="-1056.6" font-family="Times,serif" font-size="10.00" fill="#767676">*</text>
</g>
<!-- ext&#45;pcre -->
<g id="node4" class="node">
<title>ext&#45;pcre</title>
<path fill="#eeeeee" stroke="black" d="M1114.08,-1033.6C1114.08,-1033.6 1063.08,-1033.6 1063.08,-1033.6 1057.08,-1033.6 1051.08,-1027.6 1051.08,-1021.6 1051.08,-1021.6 1051.08,-1009.6 1051.08,-1009.6 1051.08,-1003.6 1057.08,-997.6 1063.08,-997.6 1063.08,-997.6 1114.08,-997.6 1114.08,-997.6 1120.08,-997.6 1126.08,-1003.6 1126.08,-1009.6 1126.08,-1009.6 1126.08,-1021.6 1126.08,-1021.6 1126.08,-1027.6 1120.08,-1033.6 1114.08,-1033.6"/>
<text text-anchor="middle" x="1088.58" y="-1011.9" font-family="Times,serif" font-size="14.00" fill="#314b5f">ext&#45;pcre</text>
</g>
<!-- bartlett/php&#45;compatinfo&#45;&gt;ext&#45;pcre -->
<g id="edge3" class="edge">
<title>bartlett/php&#45;compatinfo&#45;&gt;ext&#45;pcre</title>
<path fill="none" stroke="#1a2833" d="M258.36,-883.16C474.96,-879.02 910.58,-872.04 923.08,-882.6 959.59,-913.43 907.53,-954.57 941.08,-988.6 966.64,-1014.52 1008.38,-1020.1 1040.79,-1019.87"/>
<polygon fill="#1a2833" stroke="#1a2833" points="1041.04,-1023.36 1050.95,-1019.61 1040.86,-1016.36 1041.04,-1023.36"/>
<text text-anchor="middle" x="489.58" y="-883.6" font-family="Times,serif" font-size="10.00" fill="#767676">*</text>
</g>
<!-- ext&#45;spl -->
<g id="node5" class="node">
<title>ext&#45;spl</title>
<path fill="#eeeeee" stroke="black" d="M1109.08,-1087.6C1109.08,-1087.6 1068.08,-1087.6 1068.08,-1087.6 1062.08,-1087.6 1056.08,-1081.6 1056.08,-1075.6 1056.08,-1075.6 1056.08,-1063.6 1056.08,-1063.6 1056.08,-1057.6 1062.08,-1051.6 1068.08,-1051.6 1068.08,-1051.6 1109.08,-1051.6 1109.08,-1051.6 1115.08,-1051.6 1121.08,-1057.6 1121.08,-1063.6 1121.08,-1063.6 1121.08,-1075.6 1121.08,-1075.6 1121.08,-1081.6 1115.08,-1087.6 1109.08,-1087.6"/>
<text text-anchor="middle" x="1088.58" y="-1065.9" font-family="Times,serif" font-size="14.00" fill="#314b5f">ext&#45;spl</text>
</g>
<!-- bartlett/php&#45;compatinfo&#45;&gt;ext&#45;spl -->
<g id="edge4" class="edge">
<title>bartlett/php&#45;compatinfo&#45;&gt;ext&#45;spl</title>
<path fill="none" stroke="#1a2833" d="M250.23,-892.43C352.45,-898.53 507.9,-907.43 643.08,-913.6 658.63,-914.3 911.46,-913.24 923.08,-923.6 963,-959.19 903.87,-1004.17 941.08,-1042.6 967.7,-1070.09 1012.5,-1074.82 1045.56,-1073.92"/>
<polygon fill="#1a2833" stroke="#1a2833" points="1046.02,-1077.4 1055.85,-1073.45 1045.7,-1070.41 1046.02,-1077.4"/>
<text text-anchor="middle" x="489.58" y="-914.6" font-family="Times,serif" font-size="10.00" fill="#767676">*</text>
</g>
<!-- bartlett/php&#45;compatinfo&#45;db -->
<g id="node6" class="node">
<title>bartlett/php&#45;compatinfo&#45;db</title>
<path fill="#eeeeee" stroke="black" d="M609.08,-609.6C609.08,-609.6 370.08,-609.6 370.08,-609.6 364.08,-609.6 358.08,-603.6 358.08,-597.6 358.08,-597.6 358.08,-585.6 358.08,-585.6 358.08,-579.6 364.08,-573.6 370.08,-573.6 370.08,-573.6 609.08,-573.6 609.08,-573.6 615.08,-573.6 621.08,-579.6 621.08,-585.6 621.08,-585.6 621.08,-597.6 621.08,-597.6 621.08,-603.6 615.08,-609.6 609.08,-609.6"/>
<text text-anchor="middle" x="489.58" y="-587.9" font-family="Times,serif" font-size="14.00" fill="#314b5f">bartlett/php&#45;compatinfo&#45;db: 6.32.1</text>
</g>
<!-- bartlett/php&#45;compatinfo&#45;&gt;bartlett/php&#45;compatinfo&#45;db -->
<g id="edge28" class="edge">
<title>bartlett/php&#45;compatinfo&#45;&gt;bartlett/php&#45;compatinfo&#45;db</title>
<path fill="none" stroke="#1a2833" d="M159.65,-867.87C219.44,-817.64 390.11,-674.3 459.1,-616.35"/>
<polygon fill="#1a2833" stroke="#1a2833" points="461.59,-618.83 467,-609.72 457.09,-613.47 461.59,-618.83"/>
<text text-anchor="middle" x="306.58" y="-767.6" font-family="Times,serif" font-size="10.00" fill="#767676">^6.32</text>
</g>
<!-- composer&#45;runtime&#45;api -->
<g id="node7" class="node">
<title>composer&#45;runtime&#45;api</title>
<path fill="#eeeeee" stroke="black" d="M1163.08,-925.6C1163.08,-925.6 1014.08,-925.6 1014.08,-925.6 1008.08,-925.6 1002.08,-919.6 1002.08,-913.6 1002.08,-913.6 1002.08,-901.6 1002.08,-901.6 1002.08,-895.6 1008.08,-889.6 1014.08,-889.6 1014.08,-889.6 1163.08,-889.6 1163.08,-889.6 1169.08,-889.6 1175.08,-895.6 1175.08,-901.6 1175.08,-901.6 1175.08,-913.6 1175.08,-913.6 1175.08,-919.6 1169.08,-925.6 1163.08,-925.6"/>
<text text-anchor="middle" x="1088.58" y="-903.9" font-family="Times,serif" font-size="14.00" fill="#314b5f">composer&#45;runtime&#45;api</text>
</g>
<!-- bartlett/php&#45;compatinfo&#45;&gt;composer&#45;runtime&#45;api -->
<g id="edge34" class="edge">
<title>bartlett/php&#45;compatinfo&#45;&gt;composer&#45;runtime&#45;api</title>
<path fill="none" stroke="#1a2833" d="M173.69,-868.24C215.49,-848.62 287.95,-817.84 354.08,-805.6 385.16,-799.84 898.39,-780.85 923.08,-800.6 951.54,-823.36 914.81,-855.33 941.08,-880.6 954.97,-893.95 973.18,-901.82 992.03,-906.27"/>
<polygon fill="#1a2833" stroke="#1a2833" points="991.42,-909.72 1001.92,-908.29 992.83,-902.86 991.42,-909.72"/>
<text text-anchor="middle" x="489.58" y="-808.6" font-family="Times,serif" font-size="10.00" fill="#767676">^2.1</text>
</g>
<!-- psr/log -->
<g id="node13" class="node">
<title>psr/log</title>
<path fill="#eeeeee" stroke="black" d="M1132.08,-61.6C1132.08,-61.6 1045.08,-61.6 1045.08,-61.6 1039.08,-61.6 1033.08,-55.6 1033.08,-49.6 1033.08,-49.6 1033.08,-37.6 1033.08,-37.6 1033.08,-31.6 1039.08,-25.6 1045.08,-25.6 1045.08,-25.6 1132.08,-25.6 1132.08,-25.6 1138.08,-25.6 1144.08,-31.6 1144.08,-37.6 1144.08,-37.6 1144.08,-49.6 1144.08,-49.6 1144.08,-55.6 1138.08,-61.6 1132.08,-61.6"/>
<text text-anchor="middle" x="1088.58" y="-39.9" font-family="Times,serif" font-size="14.00" fill="#314b5f">psr/log: 3.0.2</text>
</g>
<!-- bartlett/php&#45;compatinfo&#45;&gt;psr/log -->
<g id="edge44" class="edge">
<title>bartlett/php&#45;compatinfo&#45;&gt;psr/log</title>
<path fill="none" stroke="#1a2833" d="M138.26,-867.5C137.66,-781.61 143.21,-408.38 277.08,-146.6 299.69,-102.37 308.73,-85.87 354.08,-65.6 581.93,36.25 890.58,-4.89 1022.95,-29.82"/>
<polygon fill="#1a2833" stroke="#1a2833" points="1022.45,-33.29 1032.93,-31.74 1023.77,-26.42 1022.45,-33.29"/>
<text text-anchor="middle" x="489.58" y="-68.6" font-family="Times,serif" font-size="10.00" fill="#767676">^3.0</text>
</g>
<!-- symfony/config -->
<g id="node15" class="node">
<title>symfony/config</title>
<path fill="#eeeeee" stroke="black" d="M1169.58,-115.6C1169.58,-115.6 1007.58,-115.6 1007.58,-115.6 1001.58,-115.6 995.58,-109.6 995.58,-103.6 995.58,-103.6 995.58,-91.6 995.58,-91.6 995.58,-85.6 1001.58,-79.6 1007.58,-79.6 1007.58,-79.6 1169.58,-79.6 1169.58,-79.6 1175.58,-79.6 1181.58,-85.6 1181.58,-91.6 1181.58,-91.6 1181.58,-103.6 1181.58,-103.6 1181.58,-109.6 1175.58,-115.6 1169.58,-115.6"/>
<text text-anchor="middle" x="1088.58" y="-93.9" font-family="Times,serif" font-size="14.00" fill="#314b5f">symfony/config: v7.4.10</text>
</g>
<!-- bartlett/php&#45;compatinfo&#45;&gt;symfony/config -->
<g id="edge49" class="edge">
<title>bartlett/php&#45;compatinfo&#45;&gt;symfony/config</title>
<path fill="none" stroke="#1a2833" d="M140.47,-867.35C150.96,-770.7 203.33,-318.56 277.08,-201.6 299.93,-165.35 314.39,-159.74 354.08,-143.6 565.29,-57.65 839.07,-69.28 985.13,-84.14"/>
<polygon fill="#1a2833" stroke="#1a2833" points="985.11,-87.66 995.42,-85.22 985.84,-80.7 985.11,-87.66"/>
<text text-anchor="middle" x="489.58" y="-146.6" font-family="Times,serif" font-size="10.00" fill="#767676">^7.4 || ^8.0</text>
</g>
<!-- symfony/console -->
<g id="node16" class="node">
<title>symfony/console</title>
<path fill="#eeeeee" stroke="black" d="M1170.58,-169.6C1170.58,-169.6 1006.58,-169.6 1006.58,-169.6 1000.58,-169.6 994.58,-163.6 994.58,-157.6 994.58,-157.6 994.58,-145.6 994.58,-145.6 994.58,-139.6 1000.58,-133.6 1006.58,-133.6 1006.58,-133.6 1170.58,-133.6 1170.58,-133.6 1176.58,-133.6 1182.58,-139.6 1182.58,-145.6 1182.58,-145.6 1182.58,-157.6 1182.58,-157.6 1182.58,-163.6 1176.58,-169.6 1170.58,-169.6"/>
<text text-anchor="middle" x="1088.58" y="-147.9" font-family="Times,serif" font-size="14.00" fill="#314b5f">symfony/console: v7.4.9</text>
</g>
<!-- bartlett/php&#45;compatinfo&#45;&gt;symfony/console -->
<g id="edge50" class="edge">
<title>bartlett/php&#45;compatinfo&#45;&gt;symfony/console</title>
<path fill="none" stroke="#1a2833" d="M137.93,-867.43C136.11,-787.49 137.91,-461.66 277.08,-252.6 300.24,-217.8 315.15,-213.82 354.08,-198.6 465.93,-154.84 809.92,-150.02 984.15,-150.54"/>
<polygon fill="#1a2833" stroke="#1a2833" points="984.35,-154.04 994.36,-150.57 984.37,-147.04 984.35,-154.04"/>
<text text-anchor="middle" x="489.58" y="-201.6" font-family="Times,serif" font-size="10.00" fill="#767676">^7.4 || ^8.0</text>
</g>
<!-- symfony/dependency&#45;injection -->
<g id="node17" class="node">
<title>symfony/dependency&#45;injection</title>
<path fill="#eeeeee" stroke="black" d="M1224.08,-223.6C1224.08,-223.6 953.08,-223.6 953.08,-223.6 947.08,-223.6 941.08,-217.6 941.08,-211.6 941.08,-211.6 941.08,-199.6 941.08,-199.6 941.08,-193.6 947.08,-187.6 953.08,-187.6 953.08,-187.6 1224.08,-187.6 1224.08,-187.6 1230.08,-187.6 1236.08,-193.6 1236.08,-199.6 1236.08,-199.6 1236.08,-211.6 1236.08,-211.6 1236.08,-217.6 1230.08,-223.6 1224.08,-223.6"/>
<text text-anchor="middle" x="1088.58" y="-201.9" font-family="Times,serif" font-size="14.00" fill="#314b5f">symfony/dependency&#45;injection: v7.4.10</text>
</g>
<!-- bartlett/php&#45;compatinfo&#45;&gt;symfony/dependency&#45;injection -->
<g id="edge53" class="edge">
<title>bartlett/php&#45;compatinfo&#45;&gt;symfony/dependency&#45;injection</title>
<path fill="none" stroke="#1a2833" d="M139.48,-867.28C143.93,-793.96 167.59,-516.24 277.08,-323.6 300.84,-281.79 310.63,-268.2 354.08,-247.6 470.8,-192.24 514.18,-225.09 643.08,-216.6 738.57,-210.3 845.81,-207.53 931.03,-206.33"/>
<polygon fill="#1a2833" stroke="#1a2833" points="931.09,-209.83 941.04,-206.2 931,-202.83 931.09,-209.83"/>
<text text-anchor="middle" x="489.58" y="-250.6" font-family="Times,serif" font-size="10.00" fill="#767676">^7.4 || ^8.0</text>
</g>
<!-- symfony/event&#45;dispatcher -->
<g id="node18" class="node">
<title>symfony/event&#45;dispatcher</title>
<path fill="#eeeeee" stroke="black" d="M1203.58,-277.6C1203.58,-277.6 973.58,-277.6 973.58,-277.6 967.58,-277.6 961.58,-271.6 961.58,-265.6 961.58,-265.6 961.58,-253.6 961.58,-253.6 961.58,-247.6 967.58,-241.6 973.58,-241.6 973.58,-241.6 1203.58,-241.6 1203.58,-241.6 1209.58,-241.6 1215.58,-247.6 1215.58,-253.6 1215.58,-253.6 1215.58,-265.6 1215.58,-265.6 1215.58,-271.6 1209.58,-277.6 1203.58,-277.6"/>
<text text-anchor="middle" x="1088.58" y="-255.9" font-family="Times,serif" font-size="14.00" fill="#314b5f">symfony/event&#45;dispatcher: v7.4.9</text>
</g>
<!-- bartlett/php&#45;compatinfo&#45;&gt;symfony/event&#45;dispatcher -->
<g id="edge51" class="edge">
<title>bartlett/php&#45;compatinfo&#45;&gt;symfony/event&#45;dispatcher</title>
<path fill="none" stroke="#1a2833" d="M139.11,-867.38C142.68,-786.83 168.54,-460.09 354.08,-310.6 455.15,-229.16 513.72,-279.26 643.08,-268.6 746.22,-260.09 863.26,-258.03 951.34,-257.99"/>
<polygon fill="#1a2833" stroke="#1a2833" points="951.39,-261.49 961.39,-257.99 951.39,-254.49 951.39,-261.49"/>
<text text-anchor="middle" x="489.58" y="-313.6" font-family="Times,serif" font-size="10.00" fill="#767676">^7.4 || ^8.0</text>
</g>
<!-- symfony/finder -->
<g id="node19" class="node">
<title>symfony/finder</title>
<path fill="#eeeeee" stroke="black" d="M1164.58,-331.6C1164.58,-331.6 1012.58,-331.6 1012.58,-331.6 1006.58,-331.6 1000.58,-325.6 1000.58,-319.6 1000.58,-319.6 1000.58,-307.6 1000.58,-307.6 1000.58,-301.6 1006.58,-295.6 1012.58,-295.6 1012.58,-295.6 1164.58,-295.6 1164.58,-295.6 1170.58,-295.6 1176.58,-301.6 1176.58,-307.6 1176.58,-307.6 1176.58,-319.6 1176.58,-319.6 1176.58,-325.6 1170.58,-331.6 1164.58,-331.6"/>
<text text-anchor="middle" x="1088.58" y="-309.9" font-family="Times,serif" font-size="14.00" fill="#314b5f">symfony/finder: v7.4.8</text>
</g>
<!-- bartlett/php&#45;compatinfo&#45;&gt;symfony/finder -->
<g id="edge52" class="edge">
<title>bartlett/php&#45;compatinfo&#45;&gt;symfony/finder</title>
<path fill="none" stroke="#1a2833" d="M146.41,-867.64C184.95,-782.41 363.37,-418.71 643.08,-317.6 674.71,-306.16 869.43,-308.45 990.42,-311.07"/>
<polygon fill="#1a2833" stroke="#1a2833" points="990.37,-314.57 1000.45,-311.29 990.53,-307.57 990.37,-314.57"/>
<text text-anchor="middle" x="489.58" y="-535.6" font-family="Times,serif" font-size="10.00" fill="#767676">^7.4 || ^8.0</text>
</g>
<!-- symfony/stopwatch -->
<g id="node25" class="node">
<title>symfony/stopwatch</title>
<path fill="#eeeeee" stroke="black" d="M1180.58,-979.6C1180.58,-979.6 996.58,-979.6 996.58,-979.6 990.58,-979.6 984.58,-973.6 984.58,-967.6 984.58,-967.6 984.58,-955.6 984.58,-955.6 984.58,-949.6 990.58,-943.6 996.58,-943.6 996.58,-943.6 1180.58,-943.6 1180.58,-943.6 1186.58,-943.6 1192.58,-949.6 1192.58,-955.6 1192.58,-955.6 1192.58,-967.6 1192.58,-967.6 1192.58,-973.6 1186.58,-979.6 1180.58,-979.6"/>
<text text-anchor="middle" x="1088.58" y="-957.9" font-family="Times,serif" font-size="14.00" fill="#314b5f">symfony/stopwatch: v7.4.8</text>
</g>
<!-- bartlett/php&#45;compatinfo&#45;&gt;symfony/stopwatch -->
<g id="edge59" class="edge">
<title>bartlett/php&#45;compatinfo&#45;&gt;symfony/stopwatch</title>
<path fill="none" stroke="#1a2833" d="M212.54,-871.42C253.98,-864.2 306.71,-856.2 354.08,-852.6 474.18,-843.46 510.48,-815.54 625.08,-852.6 634.47,-855.63 633.74,-862.39 643.08,-865.6 672.52,-875.7 898.39,-856.63 923.08,-875.6 944.82,-892.3 920.62,-916.34 941.08,-934.6 950.84,-943.31 962.47,-949.63 974.85,-954.17"/>
<polygon fill="#1a2833" stroke="#1a2833" points="973.84,-957.52 984.44,-957.3 976.02,-950.87 973.84,-957.52"/>
<text text-anchor="middle" x="489.58" y="-855.6" font-family="Times,serif" font-size="10.00" fill="#767676">^7.4 || ^8.0</text>
</g>
<!-- bartlett/sarif&#45;php&#45;sdk -->
<g id="node26" class="node">
<title>bartlett/sarif&#45;php&#45;sdk</title>
<path fill="#eeeeee" stroke="black" d="M584.08,-997.6C584.08,-997.6 395.08,-997.6 395.08,-997.6 389.08,-997.6 383.08,-991.6 383.08,-985.6 383.08,-985.6 383.08,-973.6 383.08,-973.6 383.08,-967.6 389.08,-961.6 395.08,-961.6 395.08,-961.6 584.08,-961.6 584.08,-961.6 590.08,-961.6 596.08,-967.6 596.08,-973.6 596.08,-973.6 596.08,-985.6 596.08,-985.6 596.08,-991.6 590.08,-997.6 584.08,-997.6"/>
<text text-anchor="middle" x="489.58" y="-975.9" font-family="Times,serif" font-size="14.00" fill="#314b5f">bartlett/sarif&#45;php&#45;sdk: 2.4.0</text>
</g>
<!-- bartlett/php&#45;compatinfo&#45;&gt;bartlett/sarif&#45;php&#45;sdk -->
<g id="edge33" class="edge">
<title>bartlett/php&#45;compatinfo&#45;&gt;bartlett/sarif&#45;php&#45;sdk</title>
<path fill="none" stroke="#1a2833" d="M178.57,-902.61C205.93,-913.74 243.23,-927.95 277.08,-937.6 307.78,-946.34 341.49,-953.92 372.81,-960.14"/>
<polygon fill="#1a2833" stroke="#1a2833" points="372.4,-963.63 382.88,-962.11 373.74,-956.76 372.4,-963.63"/>
<text text-anchor="middle" x="306.58" y="-954.6" font-family="Times,serif" font-size="10.00" fill="#767676">^2.1</text>
</g>
<!-- doctrine/collections -->
<g id="node27" class="node">
<title>doctrine/collections</title>
<path fill="#eeeeee" stroke="black" d="M578.08,-1154.6C578.08,-1154.6 401.08,-1154.6 401.08,-1154.6 395.08,-1154.6 389.08,-1148.6 389.08,-1142.6 389.08,-1142.6 389.08,-1130.6 389.08,-1130.6 389.08,-1124.6 395.08,-1118.6 401.08,-1118.6 401.08,-1118.6 578.08,-1118.6 578.08,-1118.6 584.08,-1118.6 590.08,-1124.6 590.08,-1130.6 590.08,-1130.6 590.08,-1142.6 590.08,-1142.6 590.08,-1148.6 584.08,-1154.6 578.08,-1154.6"/>
<text text-anchor="middle" x="489.58" y="-1132.9" font-family="Times,serif" font-size="14.00" fill="#314b5f">doctrine/collections: 2.6.0</text>
</g>
<!-- bartlett/php&#45;compatinfo&#45;&gt;doctrine/collections -->
<g id="edge38" class="edge">
<title>bartlett/php&#45;compatinfo&#45;&gt;doctrine/collections</title>
<path fill="none" stroke="#1a2833" d="M147.53,-903.63C166.49,-939.83 214.05,-1021.74 277.08,-1066.6 309.11,-1089.4 349.06,-1105.13 385.58,-1115.81"/>
<polygon fill="#1a2833" stroke="#1a2833" points="384.71,-1119.2 395.28,-1118.55 386.61,-1112.46 384.71,-1119.2"/>
<text text-anchor="middle" x="306.58" y="-1100.6" font-family="Times,serif" font-size="10.00" fill="#767676">^2.1</text>
</g>
<!-- nikic/php&#45;parser -->
<g id="node29" class="node">
<title>nikic/php&#45;parser</title>
<path fill="#eeeeee" stroke="black" d="M570.58,-1307.6C570.58,-1307.6 408.58,-1307.6 408.58,-1307.6 402.58,-1307.6 396.58,-1301.6 396.58,-1295.6 396.58,-1295.6 396.58,-1283.6 396.58,-1283.6 396.58,-1277.6 402.58,-1271.6 408.58,-1271.6 408.58,-1271.6 570.58,-1271.6 570.58,-1271.6 576.58,-1271.6 582.58,-1277.6 582.58,-1283.6 582.58,-1283.6 582.58,-1295.6 582.58,-1295.6 582.58,-1301.6 576.58,-1307.6 570.58,-1307.6"/>
<text text-anchor="middle" x="489.58" y="-1285.9" font-family="Times,serif" font-size="14.00" fill="#314b5f">nikic/php&#45;parser: v5.7.0</text>
</g>
<!-- bartlett/php&#45;compatinfo&#45;&gt;nikic/php&#45;parser -->
<g id="edge43" class="edge">
<title>bartlett/php&#45;compatinfo&#45;&gt;nikic/php&#45;parser</title>
<path fill="none" stroke="#1a2833" d="M147.02,-903.69C166.41,-943.93 216.97,-1042.8 277.08,-1112.6 331.24,-1175.48 409.01,-1234.35 453.6,-1265.82"/>
<polygon fill="#1a2833" stroke="#1a2833" points="451.59,-1268.68 461.79,-1271.55 455.61,-1262.95 451.59,-1268.68"/>
<text text-anchor="middle" x="306.58" y="-1174.6" font-family="Times,serif" font-size="10.00" fill="#767676">^5.0</text>
</g>
<!-- ramsey/uuid -->
<g id="node32" class="node">
<title>ramsey/uuid</title>
<path fill="#eeeeee" stroke="black" d="M552.58,-1473.6C552.58,-1473.6 426.58,-1473.6 426.58,-1473.6 420.58,-1473.6 414.58,-1467.6 414.58,-1461.6 414.58,-1461.6 414.58,-1449.6 414.58,-1449.6 414.58,-1443.6 420.58,-1437.6 426.58,-1437.6 426.58,-1437.6 552.58,-1437.6 552.58,-1437.6 558.58,-1437.6 564.58,-1443.6 564.58,-1449.6 564.58,-1449.6 564.58,-1461.6 564.58,-1461.6 564.58,-1467.6 558.58,-1473.6 552.58,-1473.6"/>
<text text-anchor="middle" x="489.58" y="-1451.9" font-family="Times,serif" font-size="14.00" fill="#314b5f">ramsey/uuid: 4.9.2</text>
</g>
<!-- bartlett/php&#45;compatinfo&#45;&gt;ramsey/uuid -->
<g id="edge48" class="edge">
<title>bartlett/php&#45;compatinfo&#45;&gt;ramsey/uuid</title>
<path fill="none" stroke="#1a2833" d="M140.73,-903.73C151.26,-988.03 199.44,-1340.52 277.08,-1413.6 310.71,-1445.25 361.04,-1456.15 404.16,-1458.94"/>
<polygon fill="#1a2833" stroke="#1a2833" points="404.22,-1462.45 414.39,-1459.47 404.58,-1455.46 404.22,-1462.45"/>
<text text-anchor="middle" x="306.58" y="-1447.6" font-family="Times,serif" font-size="10.00" fill="#767676">^4.0</text>
</g>
<!-- symfony/serializer -->
<g id="node35" class="node">
<title>symfony/serializer</title>
<path fill="#eeeeee" stroke="black" d="M582.58,-1527.6C582.58,-1527.6 396.58,-1527.6 396.58,-1527.6 390.58,-1527.6 384.58,-1521.6 384.58,-1515.6 384.58,-1515.6 384.58,-1503.6 384.58,-1503.6 384.58,-1497.6 390.58,-1491.6 396.58,-1491.6 396.58,-1491.6 582.58,-1491.6 582.58,-1491.6 588.58,-1491.6 594.58,-1497.6 594.58,-1503.6 594.58,-1503.6 594.58,-1515.6 594.58,-1515.6 594.58,-1521.6 588.58,-1527.6 582.58,-1527.6"/>
<text text-anchor="middle" x="489.58" y="-1505.9" font-family="Times,serif" font-size="14.00" fill="#314b5f">symfony/serializer: v7.4.10</text>
</g>
<!-- bartlett/php&#45;compatinfo&#45;&gt;symfony/serializer -->
<g id="edge58" class="edge">
<title>bartlett/php&#45;compatinfo&#45;&gt;symfony/serializer</title>
<path fill="none" stroke="#1a2833" d="M140.48,-903.64C150.32,-991.69 197.3,-1375.43 277.08,-1459.6 302.29,-1486.19 338.81,-1499.8 374.43,-1506.45"/>
<polygon fill="#1a2833" stroke="#1a2833" points="374,-1509.93 384.45,-1508.15 375.17,-1503.03 374,-1509.93"/>
<text text-anchor="middle" x="306.58" y="-1498.6" font-family="Times,serif" font-size="10.00" fill="#767676">^7.4 || ^8.0</text>
</g>
<!-- bamarni/composer&#45;bin&#45;plugin -->
<g id="node38" class="node">
<title>bamarni/composer&#45;bin&#45;plugin</title>
<path fill="#eeeeee" stroke="black" d="M613.08,-1586.6C613.08,-1586.6 366.08,-1586.6 366.08,-1586.6 360.08,-1586.6 354.08,-1580.6 354.08,-1574.6 354.08,-1574.6 354.08,-1562.6 354.08,-1562.6 354.08,-1556.6 360.08,-1550.6 366.08,-1550.6 366.08,-1550.6 613.08,-1550.6 613.08,-1550.6 619.08,-1550.6 625.08,-1556.6 625.08,-1562.6 625.08,-1562.6 625.08,-1574.6 625.08,-1574.6 625.08,-1580.6 619.08,-1586.6 613.08,-1586.6"/>
<text text-anchor="middle" x="489.58" y="-1564.9" font-family="Times,serif" font-size="14.00" fill="#314b5f">bamarni/composer&#45;bin&#45;plugin: 1.9.1</text>
</g>
<!-- bartlett/php&#45;compatinfo&#45;&gt;bamarni/composer&#45;bin&#45;plugin -->
<g id="edge62" class="edge">
<title>bartlett/php&#45;compatinfo&#45;&gt;bamarni/composer&#45;bin&#45;plugin</title>
<path fill="none" stroke="#1a2833" stroke-dasharray="5,2" d="M140.17,-903.61C148.86,-996.06 192.62,-1416.53 277.08,-1510.6 294.9,-1530.44 318.8,-1543.77 344.13,-1552.66"/>
<polygon fill="#1a2833" stroke="#1a2833" points="343.3,-1556.07 353.89,-1555.85 345.47,-1549.42 343.3,-1556.07"/>
<text text-anchor="middle" x="306.58" y="-1551.6" font-family="Times,serif" font-size="10.00" fill="#767676">^1.8</text>
</g>
<!-- bartlett/php&#45;compatinfo&#45;db&#45;&gt;php -->
<g id="edge14" class="edge">
<title>bartlett/php&#45;compatinfo&#45;db&#45;&gt;php</title>
<path fill="none" stroke="#1a2833" d="M510.52,-609.76C541.67,-639.59 600.83,-702.37 625.08,-769.6 640.03,-811.03 612.4,-1134 643.08,-1165.6 686.55,-1210.36 878.41,-1143.03 923.08,-1186.6 951.85,-1214.67 913.85,-1337.02 941.08,-1366.6 968.58,-1396.47 1017.45,-1399.86 1051.14,-1398.01"/>
<polygon fill="#1a2833" stroke="#1a2833" points="1051.78,-1401.47 1061.5,-1397.25 1051.27,-1394.49 1051.78,-1401.47"/>
<text text-anchor="middle" x="783.08" y="-1189.6" font-family="Times,serif" font-size="10.00" fill="#767676">8.2 &#45; 8.5</text>
</g>
<!-- bartlett/php&#45;compatinfo&#45;db&#45;&gt;ext&#45;json -->
<g id="edge9" class="edge">
<title>bartlett/php&#45;compatinfo&#45;db&#45;&gt;ext&#45;json</title>
<path fill="none" stroke="#1a2833" d="M509.37,-609.88C539.19,-640.1 596.87,-703.73 625.08,-769.6 644.58,-815.13 607.15,-845.49 643.08,-879.6 733.88,-965.8 835.16,-821.45 923.08,-910.6 952.24,-940.16 913,-1066 941.08,-1096.6 966.09,-1123.85 1008.88,-1129.08 1041.78,-1128.38"/>
<polygon fill="#1a2833" stroke="#1a2833" points="1042.22,-1131.87 1052.08,-1127.97 1041.94,-1124.88 1042.22,-1131.87"/>
<text text-anchor="middle" x="783.08" y="-913.6" font-family="Times,serif" font-size="10.00" fill="#767676">*</text>
</g>
<!-- bartlett/php&#45;compatinfo&#45;db&#45;&gt;ext&#45;pcre -->
<g id="edge10" class="edge">
<title>bartlett/php&#45;compatinfo&#45;db&#45;&gt;ext&#45;pcre</title>
<path fill="none" stroke="#1a2833" d="M504.99,-609.71C530.12,-641.51 583.3,-709.72 625.08,-769.6 633.54,-781.73 630.39,-789.98 643.08,-797.6 696.6,-829.73 878.39,-777 923.08,-820.6 949.96,-846.81 915.55,-961.06 941.08,-988.6 965.91,-1015.38 1007.93,-1020.83 1040.61,-1020.33"/>
<polygon fill="#1a2833" stroke="#1a2833" points="1040.99,-1023.82 1050.86,-1019.98 1040.75,-1016.82 1040.99,-1023.82"/>
<text text-anchor="middle" x="783.08" y="-823.6" font-family="Times,serif" font-size="10.00" fill="#767676">*</text>
</g>
<!-- bartlett/php&#45;compatinfo&#45;db&#45;&gt;ext&#45;spl -->
<g id="edge13" class="edge">
<title>bartlett/php&#45;compatinfo&#45;db&#45;&gt;ext&#45;spl</title>
<path fill="none" stroke="#1a2833" d="M508,-609.8C536.42,-640.41 592.78,-705.2 625.08,-769.6 637.94,-795.24 621.31,-812.9 643.08,-831.6 738.29,-913.4 835.58,-778.59 923.08,-868.6 950.17,-896.47 914.7,-1014.04 941.08,-1042.6 967.13,-1070.79 1012.22,-1075.37 1045.52,-1074.24"/>
<polygon fill="#1a2833" stroke="#1a2833" points="1046.07,-1077.71 1055.87,-1073.69 1045.7,-1070.72 1046.07,-1077.71"/>
<text text-anchor="middle" x="783.08" y="-871.6" font-family="Times,serif" font-size="10.00" fill="#767676">*</text>
</g>
<!-- bartlett/php&#45;compatinfo&#45;db&#45;&gt;composer&#45;runtime&#45;api -->
<g id="edge5" class="edge">
<title>bartlett/php&#45;compatinfo&#45;db&#45;&gt;composer&#45;runtime&#45;api</title>
<path fill="none" stroke="#1a2833" d="M505.11,-610.01C529.82,-639.75 583.18,-697.56 643.08,-722.6 700.68,-746.67 877.83,-702.58 923.08,-745.6 966.95,-787.3 899.35,-836.74 941.08,-880.6 954.51,-894.72 972.73,-902.86 991.76,-907.33"/>
<polygon fill="#1a2833" stroke="#1a2833" points="991.27,-910.8 1001.76,-909.34 992.65,-903.94 991.27,-910.8"/>
<text text-anchor="middle" x="783.08" y="-748.6" font-family="Times,serif" font-size="10.00" fill="#767676">^2.0</text>
</g>
<!-- composer/semver -->
<g id="node8" class="node">
<title>composer/semver</title>
<path fill="#eeeeee" stroke="black" d="M1170.58,-817.6C1170.58,-817.6 1006.58,-817.6 1006.58,-817.6 1000.58,-817.6 994.58,-811.6 994.58,-805.6 994.58,-805.6 994.58,-793.6 994.58,-793.6 994.58,-787.6 1000.58,-781.6 1006.58,-781.6 1006.58,-781.6 1170.58,-781.6 1170.58,-781.6 1176.58,-781.6 1182.58,-787.6 1182.58,-793.6 1182.58,-793.6 1182.58,-805.6 1182.58,-805.6 1182.58,-811.6 1176.58,-817.6 1170.58,-817.6"/>
<text text-anchor="middle" x="1088.58" y="-795.9" font-family="Times,serif" font-size="14.00" fill="#314b5f">composer/semver: 3.4.4</text>
</g>
<!-- bartlett/php&#45;compatinfo&#45;db&#45;&gt;composer/semver -->
<g id="edge6" class="edge">
<title>bartlett/php&#45;compatinfo&#45;db&#45;&gt;composer/semver</title>
<path fill="none" stroke="#1a2833" d="M525.58,-609.72C555.83,-624.48 601.17,-644.48 643.08,-654.6 703.77,-669.25 876.67,-635.83 923.08,-677.6 955.02,-706.34 910.62,-742.28 941.08,-772.6 952.92,-784.38 968.11,-791.93 984.21,-796.65"/>
<polygon fill="#1a2833" stroke="#1a2833" points="983.78,-800.15 994.33,-799.22 985.51,-793.36 983.78,-800.15"/>
<text text-anchor="middle" x="783.08" y="-680.6" font-family="Times,serif" font-size="10.00" fill="#767676">^3.0</text>
</g>
<!-- doctrine/dbal -->
<g id="node9" class="node">
<title>doctrine/dbal</title>
<path fill="#eeeeee" stroke="black" d="M1154.58,-871.6C1154.58,-871.6 1022.58,-871.6 1022.58,-871.6 1016.58,-871.6 1010.58,-865.6 1010.58,-859.6 1010.58,-859.6 1010.58,-847.6 1010.58,-847.6 1010.58,-841.6 1016.58,-835.6 1022.58,-835.6 1022.58,-835.6 1154.58,-835.6 1154.58,-835.6 1160.58,-835.6 1166.58,-841.6 1166.58,-847.6 1166.58,-847.6 1166.58,-859.6 1166.58,-859.6 1166.58,-865.6 1160.58,-871.6 1154.58,-871.6"/>
<text text-anchor="middle" x="1088.58" y="-849.9" font-family="Times,serif" font-size="14.00" fill="#314b5f">doctrine/dbal: 4.4.3</text>
</g>
<!-- bartlett/php&#45;compatinfo&#45;db&#45;&gt;doctrine/dbal -->
<g id="edge7" class="edge">
<title>bartlett/php&#45;compatinfo&#45;db&#45;&gt;doctrine/dbal</title>
<path fill="none" stroke="#1a2833" d="M511.57,-609.72C539.47,-632.64 591.33,-671.2 643.08,-688.6 702.26,-708.49 877.34,-669.1 923.08,-711.6 960.98,-746.81 904.99,-789.52 941.08,-826.6 956.64,-842.59 978.36,-850.87 1000.31,-854.81"/>
<polygon fill="#1a2833" stroke="#1a2833" points="999.98,-858.3 1010.39,-856.34 1001.03,-851.38 999.98,-858.3"/>
<text text-anchor="middle" x="783.08" y="-714.6" font-family="Times,serif" font-size="10.00" fill="#767676">^4.0</text>
</g>
<!-- doctrine/orm -->
<g id="node10" class="node">
<title>doctrine/orm</title>
<path fill="#eeeeee" stroke="black" d="M1153.58,-385.6C1153.58,-385.6 1023.58,-385.6 1023.58,-385.6 1017.58,-385.6 1011.58,-379.6 1011.58,-373.6 1011.58,-373.6 1011.58,-361.6 1011.58,-361.6 1011.58,-355.6 1017.58,-349.6 1023.58,-349.6 1023.58,-349.6 1153.58,-349.6 1153.58,-349.6 1159.58,-349.6 1165.58,-355.6 1165.58,-361.6 1165.58,-361.6 1165.58,-373.6 1165.58,-373.6 1165.58,-379.6 1159.58,-385.6 1153.58,-385.6"/>
<text text-anchor="middle" x="1088.58" y="-363.9" font-family="Times,serif" font-size="14.00" fill="#314b5f">doctrine/orm: 3.6.5</text>
</g>
<!-- bartlett/php&#45;compatinfo&#45;db&#45;&gt;doctrine/orm -->
<g id="edge8" class="edge">
<title>bartlett/php&#45;compatinfo&#45;db&#45;&gt;doctrine/orm</title>
<path fill="none" stroke="#1a2833" d="M499.28,-573.31C518.79,-534.62 570.11,-444.91 643.08,-406.6 698.37,-377.57 860.87,-388.1 923.08,-382.6 948.44,-380.35 975.99,-377.86 1001.16,-375.56"/>
<polygon fill="#1a2833" stroke="#1a2833" points="1001.78,-379.02 1011.42,-374.63 1001.14,-372.05 1001.78,-379.02"/>
<text text-anchor="middle" x="783.08" y="-409.6" font-family="Times,serif" font-size="10.00" fill="#767676">^3.5</text>
</g>
<!-- ext&#45;pdo -->
<g id="node11" class="node">
<title>ext&#45;pdo</title>
<path fill="#eeeeee" stroke="black" d="M1111.58,-439.6C1111.58,-439.6 1065.58,-439.6 1065.58,-439.6 1059.58,-439.6 1053.58,-433.6 1053.58,-427.6 1053.58,-427.6 1053.58,-415.6 1053.58,-415.6 1053.58,-409.6 1059.58,-403.6 1065.58,-403.6 1065.58,-403.6 1111.58,-403.6 1111.58,-403.6 1117.58,-403.6 1123.58,-409.6 1123.58,-415.6 1123.58,-415.6 1123.58,-427.6 1123.58,-427.6 1123.58,-433.6 1117.58,-439.6 1111.58,-439.6"/>
<text text-anchor="middle" x="1088.58" y="-417.9" font-family="Times,serif" font-size="14.00" fill="#314b5f">ext&#45;pdo</text>
</g>
<!-- bartlett/php&#45;compatinfo&#45;db&#45;&gt;ext&#45;pdo -->
<g id="edge11" class="edge">
<title>bartlett/php&#45;compatinfo&#45;db&#45;&gt;ext&#45;pdo</title>
<path fill="none" stroke="#1a2833" d="M501.66,-573.5C523.67,-539.48 576.57,-466.75 643.08,-437.6 678.98,-421.86 937.51,-421.02 1042.97,-421.35"/>
<polygon fill="#1a2833" stroke="#1a2833" points="1043.26,-424.85 1053.28,-421.38 1043.29,-417.85 1043.26,-424.85"/>
<text text-anchor="middle" x="783.08" y="-440.6" font-family="Times,serif" font-size="10.00" fill="#767676">*</text>
</g>
<!-- ext&#45;phar -->
<g id="node12" class="node">
<title>ext&#45;phar</title>
<path fill="#eeeeee" stroke="black" d="M1115.08,-493.6C1115.08,-493.6 1062.08,-493.6 1062.08,-493.6 1056.08,-493.6 1050.08,-487.6 1050.08,-481.6 1050.08,-481.6 1050.08,-469.6 1050.08,-469.6 1050.08,-463.6 1056.08,-457.6 1062.08,-457.6 1062.08,-457.6 1115.08,-457.6 1115.08,-457.6 1121.08,-457.6 1127.08,-463.6 1127.08,-469.6 1127.08,-469.6 1127.08,-481.6 1127.08,-481.6 1127.08,-487.6 1121.08,-493.6 1115.08,-493.6"/>
<text text-anchor="middle" x="1088.58" y="-471.9" font-family="Times,serif" font-size="14.00" fill="#314b5f">ext&#45;phar</text>
</g>
<!-- bartlett/php&#45;compatinfo&#45;db&#45;&gt;ext&#45;phar -->
<g id="edge12" class="edge">
<title>bartlett/php&#45;compatinfo&#45;db&#45;&gt;ext&#45;phar</title>
<path fill="none" stroke="#1a2833" d="M507.73,-573.58C533.97,-547.45 586.98,-500.14 643.08,-481.6 781.31,-435.91 957.17,-454.29 1040.15,-467.13"/>
<polygon fill="#1a2833" stroke="#1a2833" points="1039.61,-470.59 1050.04,-468.71 1040.71,-463.68 1039.61,-470.59"/>
<text text-anchor="middle" x="783.08" y="-484.6" font-family="Times,serif" font-size="10.00" fill="#767676">*</text>
</g>
<!-- bartlett/php&#45;compatinfo&#45;db&#45;&gt;psr/log -->
<g id="edge15" class="edge">
<title>bartlett/php&#45;compatinfo&#45;db&#45;&gt;psr/log</title>
<path fill="none" stroke="#1a2833" d="M502.98,-573.41C530.51,-531.97 596.56,-426.44 625.08,-327.6 637.33,-285.15 613.52,-162.43 643.08,-129.6 668.34,-101.54 906.1,-67.15 1023.13,-51.74"/>
<polygon fill="#1a2833" stroke="#1a2833" points="1023.59,-55.21 1033.05,-50.44 1022.68,-48.27 1023.59,-55.21"/>
<text text-anchor="middle" x="783.08" y="-132.6" font-family="Times,serif" font-size="10.00" fill="#767676">^3.0</text>
</g>
<!-- symfony/cache -->
<g id="node14" class="node">
<title>symfony/cache</title>
<path fill="#eeeeee" stroke="black" d="M1168.58,-547.6C1168.58,-547.6 1008.58,-547.6 1008.58,-547.6 1002.58,-547.6 996.58,-541.6 996.58,-535.6 996.58,-535.6 996.58,-523.6 996.58,-523.6 996.58,-517.6 1002.58,-511.6 1008.58,-511.6 1008.58,-511.6 1168.58,-511.6 1168.58,-511.6 1174.58,-511.6 1180.58,-517.6 1180.58,-523.6 1180.58,-523.6 1180.58,-535.6 1180.58,-535.6 1180.58,-541.6 1174.58,-547.6 1168.58,-547.6"/>
<text text-anchor="middle" x="1088.58" y="-525.9" font-family="Times,serif" font-size="14.00" fill="#314b5f">symfony/cache: v7.4.10</text>
</g>
<!-- bartlett/php&#45;compatinfo&#45;db&#45;&gt;symfony/cache -->
<g id="edge16" class="edge">
<title>bartlett/php&#45;compatinfo&#45;db&#45;&gt;symfony/cache</title>
<path fill="none" stroke="#1a2833" d="M516.91,-573.45C546.18,-554.47 595.62,-525.9 643.08,-514.6 758.37,-487.14 895.21,-498 986.31,-511.1"/>
<polygon fill="#1a2833" stroke="#1a2833" points="985.95,-514.59 996.36,-512.58 986.97,-507.66 985.95,-514.59"/>
<text text-anchor="middle" x="783.08" y="-517.6" font-family="Times,serif" font-size="10.00" fill="#767676">^7.4 || ^8.0</text>
</g>
<!-- bartlett/php&#45;compatinfo&#45;db&#45;&gt;symfony/config -->
<g id="edge17" class="edge">
<title>bartlett/php&#45;compatinfo&#45;db&#45;&gt;symfony/config</title>
<path fill="none" stroke="#1a2833" d="M502.72,-573.34C529.72,-531.74 594.77,-425.91 625.08,-327.6 634.39,-297.41 620.99,-209.17 643.08,-186.6 731.08,-96.65 812.25,-204.2 923.08,-144.6 933.61,-138.93 930.64,-130.43 941.08,-124.6 954.59,-117.03 969.8,-111.53 985.17,-107.54"/>
<polygon fill="#1a2833" stroke="#1a2833" points="986.36,-110.85 995.28,-105.13 984.74,-104.05 986.36,-110.85"/>
<text text-anchor="middle" x="783.08" y="-189.6" font-family="Times,serif" font-size="10.00" fill="#767676">^7.4 || ^8.0</text>
</g>
<!-- bartlett/php&#45;compatinfo&#45;db&#45;&gt;symfony/console -->
<g id="edge18" class="edge">
<title>bartlett/php&#45;compatinfo&#45;db&#45;&gt;symfony/console</title>
<path fill="none" stroke="#1a2833" d="M501.97,-573.47C527.71,-531.71 590.8,-424.87 625.08,-327.6 638.06,-290.76 614.59,-268.3 643.08,-241.6 734.78,-155.62 814.26,-264.53 923.08,-201.6 934.32,-195.1 929.98,-185.32 941.08,-178.6 954.24,-170.63 969.19,-164.91 984.39,-160.81"/>
<polygon fill="#1a2833" stroke="#1a2833" points="985.52,-164.14 994.39,-158.35 983.85,-157.34 985.52,-164.14"/>
<text text-anchor="middle" x="783.08" y="-244.6" font-family="Times,serif" font-size="10.00" fill="#767676">^7.4 || ^8.0</text>
</g>
<!-- bartlett/php&#45;compatinfo&#45;db&#45;&gt;symfony/dependency&#45;injection -->
<g id="edge19" class="edge">
<title>bartlett/php&#45;compatinfo&#45;db&#45;&gt;symfony/dependency&#45;injection</title>
<path fill="none" stroke="#1a2833" d="M499.92,-573.38C521.86,-530.55 578.38,-420.13 625.08,-327.6 633.14,-311.63 628.48,-301.93 643.08,-291.6 745.46,-219.16 814.61,-319.54 923.08,-256.6 934.61,-249.9 929.74,-239.62 941.08,-232.6 943.6,-231.03 946.2,-229.55 948.85,-228.16"/>
<polygon fill="#1a2833" stroke="#1a2833" points="950.57,-231.21 958.06,-223.71 947.53,-224.9 950.57,-231.21"/>
<text text-anchor="middle" x="783.08" y="-294.6" font-family="Times,serif" font-size="10.00" fill="#767676">^7.4 || ^8.0</text>
</g>
<!-- bartlett/php&#45;compatinfo&#45;db&#45;&gt;symfony/event&#45;dispatcher -->
<g id="edge20" class="edge">
<title>bartlett/php&#45;compatinfo&#45;db&#45;&gt;symfony/event&#45;dispatcher</title>
<path fill="none" stroke="#1a2833" d="M495.28,-573.38C508.82,-525.04 552.83,-393.24 643.08,-335.6 748.52,-268.25 811.57,-363.32 923.08,-306.6 933.74,-301.17 930.64,-292.43 941.08,-286.6 944.6,-284.63 948.23,-282.8 951.95,-281.1"/>
<polygon fill="#1a2833" stroke="#1a2833" points="953.5,-284.24 961.36,-277.14 950.79,-277.79 953.5,-284.24"/>
<text text-anchor="middle" x="783.08" y="-338.6" font-family="Times,serif" font-size="10.00" fill="#767676">^7.4 || ^8.0</text>
</g>
<!-- bartlett/php&#45;compatinfo&#45;db&#45;&gt;symfony/finder -->
<g id="edge21" class="edge">
<title>bartlett/php&#45;compatinfo&#45;db&#45;&gt;symfony/finder</title>
<path fill="none" stroke="#1a2833" d="M496.78,-573.4C512.88,-529.33 560.59,-417.03 643.08,-369.6 697.17,-338.49 862.57,-363.82 923.08,-348.6 931.57,-346.46 932.72,-343.18 941.08,-340.6 956.73,-335.75 973.61,-331.65 990.14,-328.22"/>
<polygon fill="#1a2833" stroke="#1a2833" points="991.26,-331.57 1000.38,-326.17 989.89,-324.7 991.26,-331.57"/>
<text text-anchor="middle" x="783.08" y="-372.6" font-family="Times,serif" font-size="10.00" fill="#767676">^7.4 || ^8.0</text>
</g>
<!-- symfony/http&#45;client -->
<g id="node20" class="node">
<title>symfony/http&#45;client</title>
<path fill="#eeeeee" stroke="black" d="M1181.08,-601.6C1181.08,-601.6 996.08,-601.6 996.08,-601.6 990.08,-601.6 984.08,-595.6 984.08,-589.6 984.08,-589.6 984.08,-577.6 984.08,-577.6 984.08,-571.6 990.08,-565.6 996.08,-565.6 996.08,-565.6 1181.08,-565.6 1181.08,-565.6 1187.08,-565.6 1193.08,-571.6 1193.08,-577.6 1193.08,-577.6 1193.08,-589.6 1193.08,-589.6 1193.08,-595.6 1187.08,-601.6 1181.08,-601.6"/>
<text text-anchor="middle" x="1088.58" y="-579.9" font-family="Times,serif" font-size="14.00" fill="#314b5f">symfony/http&#45;client: v7.4.9</text>
</g>
<!-- bartlett/php&#45;compatinfo&#45;db&#45;&gt;symfony/http&#45;client -->
<g id="edge22" class="edge">
<title>bartlett/php&#45;compatinfo&#45;db&#45;&gt;symfony/http&#45;client</title>
<path fill="none" stroke="#1a2833" d="M533.38,-573.51C563.46,-561.82 604.97,-547.68 643.08,-541.6 704.52,-531.78 864.57,-520.41 923.08,-541.6 932.87,-545.14 931.65,-552.17 941.08,-556.6 951.4,-561.44 962.51,-565.41 973.84,-568.67"/>
<polygon fill="#1a2833" stroke="#1a2833" points="973.26,-572.14 983.83,-571.36 975.08,-565.38 973.26,-572.14"/>
<text text-anchor="middle" x="783.08" y="-544.6" font-family="Times,serif" font-size="10.00" fill="#767676">^7.4 || ^8.0</text>
</g>
<!-- symfony/messenger -->
<g id="node21" class="node">
<title>symfony/messenger</title>
<path fill="#eeeeee" stroke="black" d="M1187.08,-655.6C1187.08,-655.6 990.08,-655.6 990.08,-655.6 984.08,-655.6 978.08,-649.6 978.08,-643.6 978.08,-643.6 978.08,-631.6 978.08,-631.6 978.08,-625.6 984.08,-619.6 990.08,-619.6 990.08,-619.6 1187.08,-619.6 1187.08,-619.6 1193.08,-619.6 1199.08,-625.6 1199.08,-631.6 1199.08,-631.6 1199.08,-643.6 1199.08,-643.6 1199.08,-649.6 1193.08,-655.6 1187.08,-655.6"/>
<text text-anchor="middle" x="1088.58" y="-633.9" font-family="Times,serif" font-size="14.00" fill="#314b5f">symfony/messenger: v7.4.10</text>
</g>
<!-- bartlett/php&#45;compatinfo&#45;db&#45;&gt;symfony/messenger -->
<g id="edge23" class="edge">
<title>bartlett/php&#45;compatinfo&#45;db&#45;&gt;symfony/messenger</title>
<path fill="none" stroke="#1a2833" d="M621.12,-576.99C628.54,-576.45 635.9,-575.97 643.08,-575.6 705.22,-572.34 869.96,-543.18 923.08,-575.6 938.01,-584.71 927.04,-600.16 941.08,-610.6 949.42,-616.79 958.74,-621.71 968.55,-625.59"/>
<polygon fill="#1a2833" stroke="#1a2833" points="967.48,-628.93 978.07,-629.01 969.84,-622.34 967.48,-628.93"/>
<text text-anchor="middle" x="783.08" y="-578.6" font-family="Times,serif" font-size="10.00" fill="#767676">^7.4 || ^8.0</text>
</g>
<!-- symfony/polyfill&#45;php84 -->
<g id="node22" class="node">
<title>symfony/polyfill&#45;php84</title>
<path fill="#eeeeee" stroke="black" d="M1197.08,-1249.6C1197.08,-1249.6 980.08,-1249.6 980.08,-1249.6 974.08,-1249.6 968.08,-1243.6 968.08,-1237.6 968.08,-1237.6 968.08,-1225.6 968.08,-1225.6 968.08,-1219.6 974.08,-1213.6 980.08,-1213.6 980.08,-1213.6 1197.08,-1213.6 1197.08,-1213.6 1203.08,-1213.6 1209.08,-1219.6 1209.08,-1225.6 1209.08,-1225.6 1209.08,-1237.6 1209.08,-1237.6 1209.08,-1243.6 1203.08,-1249.6 1197.08,-1249.6"/>
<text text-anchor="middle" x="1088.58" y="-1227.9" font-family="Times,serif" font-size="14.00" fill="#314b5f">symfony/polyfill&#45;php84: v1.37.0</text>
</g>
<!-- bartlett/php&#45;compatinfo&#45;db&#45;&gt;symfony/polyfill&#45;php84 -->
<g id="edge24" class="edge">
<title>bartlett/php&#45;compatinfo&#45;db&#45;&gt;symfony/polyfill&#45;php84</title>
<path fill="none" stroke="#1a2833" d="M510.57,-610.08C541.51,-640.11 600.04,-702.87 625.08,-769.6 644.88,-822.37 604.16,-981.83 643.08,-1022.6 729.61,-1113.23 834.35,-967.12 923.08,-1055.6 970.31,-1102.69 895.4,-1155.99 941.08,-1204.6 946.31,-1210.17 952.29,-1214.81 958.78,-1218.67"/>
<polygon fill="#1a2833" stroke="#1a2833" points="957.42,-1221.91 967.91,-1223.46 960.68,-1215.71 957.42,-1221.91"/>
<text text-anchor="middle" x="783.08" y="-1058.6" font-family="Times,serif" font-size="10.00" fill="#767676">^1.0</text>
</g>
<!-- symfony/process -->
<g id="node23" class="node">
<title>symfony/process</title>
<path fill="#eeeeee" stroke="black" d="M1171.08,-709.6C1171.08,-709.6 1006.08,-709.6 1006.08,-709.6 1000.08,-709.6 994.08,-703.6 994.08,-697.6 994.08,-697.6 994.08,-685.6 994.08,-685.6 994.08,-679.6 1000.08,-673.6 1006.08,-673.6 1006.08,-673.6 1171.08,-673.6 1171.08,-673.6 1177.08,-673.6 1183.08,-679.6 1183.08,-685.6 1183.08,-685.6 1183.08,-697.6 1183.08,-697.6 1183.08,-703.6 1177.08,-709.6 1171.08,-709.6"/>
<text text-anchor="middle" x="1088.58" y="-687.9" font-family="Times,serif" font-size="14.00" fill="#314b5f">symfony/process: v7.4.8</text>
</g>
<!-- bartlett/php&#45;compatinfo&#45;db&#45;&gt;symfony/process -->
<g id="edge25" class="edge">
<title>bartlett/php&#45;compatinfo&#45;db&#45;&gt;symfony/process</title>
<path fill="none" stroke="#1a2833" d="M621.23,-589.61C739.71,-589.01 899.37,-591.65 923.08,-609.6 943.58,-625.12 921.71,-647.67 941.08,-664.6 953.25,-675.24 968.22,-682.29 983.89,-686.88"/>
<polygon fill="#1a2833" stroke="#1a2833" points="983.16,-690.3 993.71,-689.42 984.91,-683.53 983.16,-690.3"/>
<text text-anchor="middle" x="783.08" y="-612.6" font-family="Times,serif" font-size="10.00" fill="#767676">^7.4 || ^8.0</text>
</g>
<!-- symfony/requirements&#45;checker -->
<g id="node24" class="node">
<title>symfony/requirements&#45;checker</title>
<path fill="#eeeeee" stroke="black" d="M1222.08,-763.6C1222.08,-763.6 955.08,-763.6 955.08,-763.6 949.08,-763.6 943.08,-757.6 943.08,-751.6 943.08,-751.6 943.08,-739.6 943.08,-739.6 943.08,-733.6 949.08,-727.6 955.08,-727.6 955.08,-727.6 1222.08,-727.6 1222.08,-727.6 1228.08,-727.6 1234.08,-733.6 1234.08,-739.6 1234.08,-739.6 1234.08,-751.6 1234.08,-751.6 1234.08,-757.6 1228.08,-763.6 1222.08,-763.6"/>
<text text-anchor="middle" x="1088.58" y="-741.9" font-family="Times,serif" font-size="14.00" fill="#314b5f">symfony/requirements&#45;checker: v2.0.3</text>
</g>
<!-- bartlett/php&#45;compatinfo&#45;db&#45;&gt;symfony/requirements&#45;checker -->
<g id="edge26" class="edge">
<title>bartlett/php&#45;compatinfo&#45;db&#45;&gt;symfony/requirements&#45;checker</title>
<path fill="none" stroke="#1a2833" d="M576.61,-609.61C598.24,-613.68 621.45,-617.66 643.08,-620.6 674.01,-624.8 899.38,-623.28 923.08,-643.6 949.11,-665.9 916.2,-695.01 941.08,-718.6 942.05,-719.52 943.05,-720.42 944.07,-721.29"/>
<polygon fill="#1a2833" stroke="#1a2833" points="942.15,-724.23 952.23,-727.5 946.39,-718.66 942.15,-724.23"/>
<text text-anchor="middle" x="783.08" y="-646.6" font-family="Times,serif" font-size="10.00" fill="#767676">^2.0</text>
</g>
<!-- bartlett/php&#45;compatinfo&#45;db&#45;&gt;symfony/stopwatch -->
<g id="edge27" class="edge">
<title>bartlett/php&#45;compatinfo&#45;db&#45;&gt;symfony/stopwatch</title>
<path fill="none" stroke="#1a2833" d="M501.02,-609.69C522.48,-644.98 575.29,-722.52 643.08,-756.6 698.99,-784.7 878.51,-742.66 923.08,-786.6 970.27,-833.11 895.68,-886.33 941.08,-934.6 950.33,-944.43 961.89,-951.37 974.45,-956.2"/>
<polygon fill="#1a2833" stroke="#1a2833" points="973.63,-959.62 984.22,-959.49 975.86,-952.98 973.63,-959.62"/>
<text text-anchor="middle" x="783.08" y="-789.6" font-family="Times,serif" font-size="10.00" fill="#767676">^7.4 || ^8.0</text>
</g>
<!-- bartlett/sarif&#45;php&#45;sdk&#45;&gt;php -->
<g id="edge32" class="edge">
<title>bartlett/sarif&#45;php&#45;sdk&#45;&gt;php</title>
<path fill="none" stroke="#1a2833" d="M566.24,-997.68C588.52,-1006.67 610.74,-1019.99 625.08,-1039.6 646.2,-1068.47 617.31,-1174.77 643.08,-1199.6 688.01,-1242.89 877.92,-1177.54 923.08,-1220.6 970.4,-1265.71 896.25,-1319.01 941.08,-1366.6 968.84,-1396.07 1017.44,-1399.59 1051,-1397.88"/>
<polygon fill="#1a2833" stroke="#1a2833" points="1051.59,-1401.35 1061.33,-1397.17 1051.11,-1394.36 1051.59,-1401.35"/>
<text text-anchor="middle" x="783.08" y="-1223.6" font-family="Times,serif" font-size="10.00" fill="#767676">^7.4 || ^8.0</text>
</g>
<!-- bartlett/sarif&#45;php&#45;sdk&#45;&gt;ext&#45;json -->
<g id="edge29" class="edge">
<title>bartlett/sarif&#45;php&#45;sdk&#45;&gt;ext&#45;json</title>
<path fill="none" stroke="#1a2833" d="M596.1,-985.85C722.15,-993.55 916.96,-1006.25 923.08,-1011.6 952.16,-1037 913.41,-1069.65 941.08,-1096.6 967.33,-1122.16 1009.39,-1127.7 1041.72,-1127.55"/>
<polygon fill="#1a2833" stroke="#1a2833" points="1041.93,-1131.04 1051.85,-1127.32 1041.77,-1124.04 1041.93,-1131.04"/>
<text text-anchor="middle" x="783.08" y="-1014.6" font-family="Times,serif" font-size="10.00" fill="#767676">*</text>
</g>
<!-- bartlett/sarif&#45;php&#45;sdk&#45;&gt;ext&#45;pcre -->
<g id="edge30" class="edge">
<title>bartlett/sarif&#45;php&#45;sdk&#45;&gt;ext&#45;pcre</title>
<path fill="none" stroke="#1a2833" d="M566.09,-961.58C603.39,-952.71 640.93,-943.85 643.08,-943.6 704.88,-936.4 871.55,-908.71 923.08,-943.6 940.92,-955.67 924.41,-974.95 941.08,-988.6 968.76,-1011.27 1009.31,-1017.32 1040.74,-1018.1"/>
<polygon fill="#1a2833" stroke="#1a2833" points="1040.99,-1021.6 1051.01,-1018.17 1041.04,-1014.6 1040.99,-1021.6"/>
<text text-anchor="middle" x="783.08" y="-946.6" font-family="Times,serif" font-size="10.00" fill="#767676">*</text>
</g>
<!-- bartlett/sarif&#45;php&#45;sdk&#45;&gt;ext&#45;spl -->
<g id="edge31" class="edge">
<title>bartlett/sarif&#45;php&#45;sdk&#45;&gt;ext&#45;spl</title>
<path fill="none" stroke="#1a2833" d="M596.41,-978.03C612.05,-977.85 627.99,-977.69 643.08,-977.6 705.3,-977.19 873.56,-939.92 923.08,-977.6 946.94,-995.74 918.97,-1022.35 941.08,-1042.6 969.13,-1068.29 1013.31,-1073.37 1045.82,-1073.04"/>
<polygon fill="#1a2833" stroke="#1a2833" points="1046.03,-1076.54 1055.93,-1072.77 1045.84,-1069.54 1046.03,-1076.54"/>
<text text-anchor="middle" x="783.08" y="-980.6" font-family="Times,serif" font-size="10.00" fill="#767676">*</text>
</g>
<!-- doctrine/collections&#45;&gt;php -->
<g id="edge36" class="edge">
<title>doctrine/collections&#45;&gt;php</title>
<path fill="none" stroke="#1a2833" d="M512.2,-1154.69C540.38,-1177.2 592.1,-1214.95 643.08,-1233.6 702.05,-1255.17 877.53,-1228.37 923.08,-1271.6 954.25,-1301.18 910.62,-1336.28 941.08,-1366.6 969.7,-1395.07 1017.89,-1398.86 1051.14,-1397.48"/>
<polygon fill="#1a2833" stroke="#1a2833" points="1051.59,-1400.96 1061.37,-1396.87 1051.18,-1393.97 1051.59,-1400.96"/>
<text text-anchor="middle" x="783.08" y="-1274.6" font-family="Times,serif" font-size="10.00" fill="#767676">^8.1</text>
</g>
<!-- doctrine/collections&#45;&gt;symfony/polyfill&#45;php84 -->
<g id="edge37" class="edge">
<title>doctrine/collections&#45;&gt;symfony/polyfill&#45;php84</title>
<path fill="none" stroke="#1a2833" d="M590.26,-1134.97C709.66,-1133.91 896.96,-1135.41 923.08,-1154.6 942.12,-1168.58 923.07,-1189.31 941.08,-1204.6 946.44,-1209.15 952.32,-1213.04 958.55,-1216.36"/>
<polygon fill="#1a2833" stroke="#1a2833" points="957.36,-1219.67 967.89,-1220.82 960.38,-1213.35 957.36,-1219.67"/>
<text text-anchor="middle" x="783.08" y="-1157.6" font-family="Times,serif" font-size="10.00" fill="#767676">^1.30</text>
</g>
<!-- doctrine/deprecations -->
<g id="node28" class="node">
<title>doctrine/deprecations</title>
<path fill="#eeeeee" stroke="black" d="M1185.58,-1195.6C1185.58,-1195.6 991.58,-1195.6 991.58,-1195.6 985.58,-1195.6 979.58,-1189.6 979.58,-1183.6 979.58,-1183.6 979.58,-1171.6 979.58,-1171.6 979.58,-1165.6 985.58,-1159.6 991.58,-1159.6 991.58,-1159.6 1185.58,-1159.6 1185.58,-1159.6 1191.58,-1159.6 1197.58,-1165.6 1197.58,-1171.6 1197.58,-1171.6 1197.58,-1183.6 1197.58,-1183.6 1197.58,-1189.6 1191.58,-1195.6 1185.58,-1195.6"/>
<text text-anchor="middle" x="1088.58" y="-1173.9" font-family="Times,serif" font-size="14.00" fill="#314b5f">doctrine/deprecations: 1.1.6</text>
</g>
<!-- doctrine/collections&#45;&gt;doctrine/deprecations -->
<g id="edge35" class="edge">
<title>doctrine/collections&#45;&gt;doctrine/deprecations</title>
<path fill="none" stroke="#1a2833" d="M590.13,-1124.64C607.74,-1122.95 625.93,-1121.49 643.08,-1120.6 705.22,-1117.34 868.93,-1089.94 923.08,-1120.6 936.61,-1128.26 928.3,-1141.74 941.08,-1150.6 949.87,-1156.69 959.63,-1161.52 969.84,-1165.33"/>
<polygon fill="#1a2833" stroke="#1a2833" points="968.73,-1168.65 979.32,-1168.56 970.98,-1162.02 968.73,-1168.65"/>
<text text-anchor="middle" x="783.08" y="-1123.6" font-family="Times,serif" font-size="10.00" fill="#767676">^1</text>
</g>
<!-- nikic/php&#45;parser&#45;&gt;php -->
<g id="edge42" class="edge">
<title>nikic/php&#45;parser&#45;&gt;php</title>
<path fill="none" stroke="#1a2833" d="M540.75,-1307.65C570.18,-1317.5 608.3,-1329 643.08,-1335.6 765.75,-1358.87 802.1,-1327.69 923.08,-1358.6 931.56,-1360.76 932.72,-1364.01 941.08,-1366.6 977.87,-1377.99 1021.44,-1385.26 1051.45,-1389.36"/>
<polygon fill="#1a2833" stroke="#1a2833" points="1051.09,-1392.84 1061.46,-1390.67 1052,-1385.9 1051.09,-1392.84"/>
<text text-anchor="middle" x="783.08" y="-1361.6" font-family="Times,serif" font-size="10.00" fill="#767676">&gt;=7.4</text>
</g>
<!-- nikic/php&#45;parser&#45;&gt;ext&#45;json -->
<g id="edge40" class="edge">
<title>nikic/php&#45;parser&#45;&gt;ext&#45;json</title>
<path fill="none" stroke="#1a2833" d="M517.98,-1271.41C548.77,-1249.51 597.99,-1209.84 625.08,-1163.6 641.97,-1134.76 616.77,-1111.2 643.08,-1090.6 692.06,-1052.22 861.66,-1080.63 923.08,-1090.6 931.4,-1091.95 932.91,-1094.49 941.08,-1096.6 974.57,-1105.22 1013.05,-1112.2 1042.17,-1116.9"/>
<polygon fill="#1a2833" stroke="#1a2833" points="1041.63,-1120.36 1052.05,-1118.47 1042.72,-1113.45 1041.63,-1120.36"/>
<text text-anchor="middle" x="783.08" y="-1093.6" font-family="Times,serif" font-size="10.00" fill="#767676">*</text>
</g>
<!-- ext&#45;ctype -->
<g id="node30" class="node">
<title>ext&#45;ctype</title>
<path fill="#eeeeee" stroke="black" d="M1118.08,-1357.6C1118.08,-1357.6 1059.08,-1357.6 1059.08,-1357.6 1053.08,-1357.6 1047.08,-1351.6 1047.08,-1345.6 1047.08,-1345.6 1047.08,-1333.6 1047.08,-1333.6 1047.08,-1327.6 1053.08,-1321.6 1059.08,-1321.6 1059.08,-1321.6 1118.08,-1321.6 1118.08,-1321.6 1124.08,-1321.6 1130.08,-1327.6 1130.08,-1333.6 1130.08,-1333.6 1130.08,-1345.6 1130.08,-1345.6 1130.08,-1351.6 1124.08,-1357.6 1118.08,-1357.6"/>
<text text-anchor="middle" x="1088.58" y="-1335.9" font-family="Times,serif" font-size="14.00" fill="#314b5f">ext&#45;ctype</text>
</g>
<!-- nikic/php&#45;parser&#45;&gt;ext&#45;ctype -->
<g id="edge39" class="edge">
<title>nikic/php&#45;parser&#45;&gt;ext&#45;ctype</title>
<path fill="none" stroke="#1a2833" d="M582.61,-1296.93C689.49,-1305.47 859.28,-1319.11 923.08,-1324.6 961.24,-1327.88 1004.35,-1331.82 1036.86,-1334.84"/>
<polygon fill="#1a2833" stroke="#1a2833" points="1036.75,-1338.34 1047.03,-1335.78 1037.39,-1331.37 1036.75,-1338.34"/>
<text text-anchor="middle" x="783.08" y="-1327.6" font-family="Times,serif" font-size="10.00" fill="#767676">*</text>
</g>
<!-- ext&#45;tokenizer -->
<g id="node31" class="node">
<title>ext&#45;tokenizer</title>
<path fill="#eeeeee" stroke="black" d="M1131.58,-1303.6C1131.58,-1303.6 1045.58,-1303.6 1045.58,-1303.6 1039.58,-1303.6 1033.58,-1297.6 1033.58,-1291.6 1033.58,-1291.6 1033.58,-1279.6 1033.58,-1279.6 1033.58,-1273.6 1039.58,-1267.6 1045.58,-1267.6 1045.58,-1267.6 1131.58,-1267.6 1131.58,-1267.6 1137.58,-1267.6 1143.58,-1273.6 1143.58,-1279.6 1143.58,-1279.6 1143.58,-1291.6 1143.58,-1291.6 1143.58,-1297.6 1137.58,-1303.6 1131.58,-1303.6"/>
<text text-anchor="middle" x="1088.58" y="-1281.9" font-family="Times,serif" font-size="14.00" fill="#314b5f">ext&#45;tokenizer</text>
</g>
<!-- nikic/php&#45;parser&#45;&gt;ext&#45;tokenizer -->
<g id="edge41" class="edge">
<title>nikic/php&#45;parser&#45;&gt;ext&#45;tokenizer</title>
<path fill="none" stroke="#1a2833" d="M582.88,-1288.98C704.98,-1288.16 917.11,-1286.74 1023.24,-1286.03"/>
<polygon fill="#1a2833" stroke="#1a2833" points="1023.51,-1289.53 1033.48,-1285.96 1023.46,-1282.53 1023.51,-1289.53"/>
<text text-anchor="middle" x="783.08" y="-1290.6" font-family="Times,serif" font-size="10.00" fill="#767676">*</text>
</g>
<!-- ramsey/uuid&#45;&gt;php -->
<g id="edge46" class="edge">
<title>ramsey/uuid&#45;&gt;php</title>
<path fill="none" stroke="#1a2833" d="M564.95,-1444.58C589.76,-1441.11 617.58,-1437.44 643.08,-1434.6 767.21,-1420.74 798.73,-1422.35 923.08,-1410.6 967.18,-1406.43 1017.88,-1401.11 1051.2,-1397.54"/>
<polygon fill="#1a2833" stroke="#1a2833" points="1051.81,-1400.99 1061.38,-1396.45 1051.06,-1394.03 1051.81,-1400.99"/>
<text text-anchor="middle" x="783.08" y="-1437.6" font-family="Times,serif" font-size="10.00" fill="#767676">^8.0</text>
</g>
<!-- brick/math -->
<g id="node33" class="node">
<title>brick/math</title>
<path fill="#eeeeee" stroke="black" d="M1150.58,-1519.6C1150.58,-1519.6 1026.58,-1519.6 1026.58,-1519.6 1020.58,-1519.6 1014.58,-1513.6 1014.58,-1507.6 1014.58,-1507.6 1014.58,-1495.6 1014.58,-1495.6 1014.58,-1489.6 1020.58,-1483.6 1026.58,-1483.6 1026.58,-1483.6 1150.58,-1483.6 1150.58,-1483.6 1156.58,-1483.6 1162.58,-1489.6 1162.58,-1495.6 1162.58,-1495.6 1162.58,-1507.6 1162.58,-1507.6 1162.58,-1513.6 1156.58,-1519.6 1150.58,-1519.6"/>
<text text-anchor="middle" x="1088.58" y="-1497.9" font-family="Times,serif" font-size="14.00" fill="#314b5f">brick/math: 0.14.8</text>
</g>
<!-- ramsey/uuid&#45;&gt;brick/math -->
<g id="edge45" class="edge">
<title>ramsey/uuid&#45;&gt;brick/math</title>
<path fill="none" stroke="#1a2833" d="M564.8,-1459.35C585.74,-1463.24 607.56,-1470.24 625.08,-1482.6 637.79,-1491.56 629.55,-1504.93 643.08,-1512.6 697.22,-1543.25 860.89,-1514.67 923.08,-1512.6 949.47,-1511.71 978.2,-1510.04 1004.16,-1508.26"/>
<polygon fill="#1a2833" stroke="#1a2833" points="1004.61,-1511.74 1014.34,-1507.54 1004.12,-1504.75 1004.61,-1511.74"/>
<text text-anchor="middle" x="783.08" y="-1529.6" font-family="Times,serif" font-size="10.00" fill="#767676">^0.8.16 || ^0.9 || ^0.10 || ^0.11 || ^0.12 || ^0.13 || ^0.14</text>
</g>
<!-- ramsey/collection -->
<g id="node34" class="node">
<title>ramsey/collection</title>
<path fill="#eeeeee" stroke="black" d="M1170.08,-1465.6C1170.08,-1465.6 1007.08,-1465.6 1007.08,-1465.6 1001.08,-1465.6 995.08,-1459.6 995.08,-1453.6 995.08,-1453.6 995.08,-1441.6 995.08,-1441.6 995.08,-1435.6 1001.08,-1429.6 1007.08,-1429.6 1007.08,-1429.6 1170.08,-1429.6 1170.08,-1429.6 1176.08,-1429.6 1182.08,-1435.6 1182.08,-1441.6 1182.08,-1441.6 1182.08,-1453.6 1182.08,-1453.6 1182.08,-1459.6 1176.08,-1465.6 1170.08,-1465.6"/>
<text text-anchor="middle" x="1088.58" y="-1443.9" font-family="Times,serif" font-size="14.00" fill="#314b5f">ramsey/collection: 2.1.1</text>
</g>
<!-- ramsey/uuid&#45;&gt;ramsey/collection -->
<g id="edge47" class="edge">
<title>ramsey/uuid&#45;&gt;ramsey/collection</title>
<path fill="none" stroke="#1a2833" d="M564.68,-1454.6C670.43,-1453.19 865.03,-1450.58 984.69,-1448.97"/>
<polygon fill="#1a2833" stroke="#1a2833" points="985.01,-1452.47 994.96,-1448.84 984.91,-1445.47 985.01,-1452.47"/>
<text text-anchor="middle" x="783.08" y="-1455.6" font-family="Times,serif" font-size="10.00" fill="#767676">^1.2 || ^2.0</text>
</g>
<!-- symfony/serializer&#45;&gt;php -->
<g id="edge54" class="edge">
<title>symfony/serializer&#45;&gt;php</title>
<path fill="none" stroke="#1a2833" d="M594.74,-1502.23C718.54,-1493.07 910.15,-1477.44 923.08,-1467.6 940.87,-1454.04 923.88,-1434.9 941.08,-1420.6 971.72,-1395.12 1018.55,-1390.53 1050.98,-1390.91"/>
<polygon fill="#1a2833" stroke="#1a2833" points="1051.28,-1394.42 1061.38,-1391.21 1051.48,-1387.43 1051.28,-1394.42"/>
<text text-anchor="middle" x="783.08" y="-1500.6" font-family="Times,serif" font-size="10.00" fill="#767676">&gt;=8.2</text>
</g>
<!-- symfony/serializer&#45;&gt;symfony/polyfill&#45;php84 -->
<g id="edge57" class="edge">
<title>symfony/serializer&#45;&gt;symfony/polyfill&#45;php84</title>
<path fill="none" stroke="#1a2833" d="M594.62,-1501.86C605.94,-1497.38 616.46,-1491.16 625.08,-1482.6 653.08,-1454.76 613.65,-1421.92 643.08,-1395.6 689.66,-1353.94 877.41,-1412.25 923.08,-1369.6 959.6,-1335.48 906.12,-1294.31 941.08,-1258.6 946.36,-1253.2 952.35,-1248.68 958.81,-1244.91"/>
<polygon fill="#1a2833" stroke="#1a2833" points="960.61,-1247.92 967.89,-1240.22 957.4,-1241.7 960.61,-1247.92"/>
<text text-anchor="middle" x="783.08" y="-1398.6" font-family="Times,serif" font-size="10.00" fill="#767676">^1.30</text>
</g>
<!-- symfony/deprecation&#45;contracts -->
<g id="node36" class="node">
<title>symfony/deprecation&#45;contracts</title>
<path fill="#eeeeee" stroke="black" d="M1221.58,-1627.6C1221.58,-1627.6 955.58,-1627.6 955.58,-1627.6 949.58,-1627.6 943.58,-1621.6 943.58,-1615.6 943.58,-1615.6 943.58,-1603.6 943.58,-1603.6 943.58,-1597.6 949.58,-1591.6 955.58,-1591.6 955.58,-1591.6 1221.58,-1591.6 1221.58,-1591.6 1227.58,-1591.6 1233.58,-1597.6 1233.58,-1603.6 1233.58,-1603.6 1233.58,-1615.6 1233.58,-1615.6 1233.58,-1621.6 1227.58,-1627.6 1221.58,-1627.6"/>
<text text-anchor="middle" x="1088.58" y="-1605.9" font-family="Times,serif" font-size="14.00" fill="#314b5f">symfony/deprecation&#45;contracts: v3.7.0</text>
</g>
<!-- symfony/serializer&#45;&gt;symfony/deprecation&#45;contracts -->
<g id="edge55" class="edge">
<title>symfony/serializer&#45;&gt;symfony/deprecation&#45;contracts</title>
<path fill="none" stroke="#1a2833" d="M594.78,-1521.88C606.01,-1526.67 616.46,-1533.07 625.08,-1541.6 648.53,-1564.79 617.08,-1593.3 643.08,-1613.6 665.85,-1631.38 814.1,-1626.99 933.22,-1620.28"/>
<polygon fill="#1a2833" stroke="#1a2833" points="933.78,-1623.75 943.56,-1619.69 933.38,-1616.76 933.78,-1623.75"/>
<text text-anchor="middle" x="783.08" y="-1628.6" font-family="Times,serif" font-size="10.00" fill="#767676">^2.5|^3</text>
</g>
<!-- symfony/polyfill&#45;ctype -->
<g id="node37" class="node">
<title>symfony/polyfill&#45;ctype</title>
<path fill="#eeeeee" stroke="black" d="M1194.08,-1573.6C1194.08,-1573.6 983.08,-1573.6 983.08,-1573.6 977.08,-1573.6 971.08,-1567.6 971.08,-1561.6 971.08,-1561.6 971.08,-1549.6 971.08,-1549.6 971.08,-1543.6 977.08,-1537.6 983.08,-1537.6 983.08,-1537.6 1194.08,-1537.6 1194.08,-1537.6 1200.08,-1537.6 1206.08,-1543.6 1206.08,-1549.6 1206.08,-1549.6 1206.08,-1561.6 1206.08,-1561.6 1206.08,-1567.6 1200.08,-1573.6 1194.08,-1573.6"/>
<text text-anchor="middle" x="1088.58" y="-1551.9" font-family="Times,serif" font-size="14.00" fill="#314b5f">symfony/polyfill&#45;ctype: v1.37.0</text>
</g>
<!-- symfony/serializer&#45;&gt;symfony/polyfill&#45;ctype -->
<g id="edge56" class="edge">
<title>symfony/serializer&#45;&gt;symfony/polyfill&#45;ctype</title>
<path fill="none" stroke="#1a2833" d="M594.67,-1524.05C605.65,-1528.49 616.07,-1534.22 625.08,-1541.6 639.85,-1553.69 627,-1570.31 643.08,-1580.6 697.27,-1615.27 868.95,-1594.28 982.4,-1575.35"/>
<polygon fill="#1a2833" stroke="#1a2833" points="983.23,-1578.76 992.51,-1573.64 982.07,-1571.86 983.23,-1578.76"/>
<text text-anchor="middle" x="783.08" y="-1601.6" font-family="Times,serif" font-size="10.00" fill="#767676">~1.8</text>
</g>
<!-- bamarni/composer&#45;bin&#45;plugin&#45;&gt;php -->
<g id="edge61" class="edge">
<title>bamarni/composer&#45;bin&#45;plugin&#45;&gt;php</title>
<path fill="none" stroke="#1a2833" d="M625.35,-1564.25C748.15,-1559.66 912.07,-1551.7 923.08,-1541.6 963.13,-1504.83 903.3,-1459.7 941.08,-1420.6 969.21,-1391.47 1017.72,-1387.87 1051.17,-1389.47"/>
<polygon fill="#1a2833" stroke="#1a2833" points="1051.25,-1392.98 1061.45,-1390.15 1051.7,-1386 1051.25,-1392.98"/>
<text text-anchor="middle" x="783.08" y="-1565.6" font-family="Times,serif" font-size="10.00" fill="#767676">^7.2.5 || ^8.0</text>
</g>
<!-- composer&#45;plugin&#45;api -->
<g id="node39" class="node">
<title>composer&#45;plugin&#45;api</title>
<path fill="#eeeeee" stroke="black" d="M1157.08,-1681.6C1157.08,-1681.6 1020.08,-1681.6 1020.08,-1681.6 1014.08,-1681.6 1008.08,-1675.6 1008.08,-1669.6 1008.08,-1669.6 1008.08,-1657.6 1008.08,-1657.6 1008.08,-1651.6 1014.08,-1645.6 1020.08,-1645.6 1020.08,-1645.6 1157.08,-1645.6 1157.08,-1645.6 1163.08,-1645.6 1169.08,-1651.6 1169.08,-1657.6 1169.08,-1657.6 1169.08,-1669.6 1169.08,-1669.6 1169.08,-1675.6 1163.08,-1681.6 1157.08,-1681.6"/>
<text text-anchor="middle" x="1088.58" y="-1659.9" font-family="Times,serif" font-size="14.00" fill="#314b5f">composer&#45;plugin&#45;api</text>
</g>
<!-- bamarni/composer&#45;bin&#45;plugin&#45;&gt;composer&#45;plugin&#45;api -->
<g id="edge60" class="edge">
<title>bamarni/composer&#45;bin&#45;plugin&#45;&gt;composer&#45;plugin&#45;api</title>
<path fill="none" stroke="#1a2833" d="M516.08,-1586.6C545.22,-1606.04 595.1,-1635.91 643.08,-1648.6 762.7,-1680.22 906.73,-1678.13 997.74,-1672.14"/>
<polygon fill="#1a2833" stroke="#1a2833" points="998.01,-1675.63 1007.75,-1671.45 997.53,-1668.65 998.01,-1675.63"/>
<text text-anchor="middle" x="783.08" y="-1678.6" font-family="Times,serif" font-size="10.00" fill="#767676">^2.0</text>
</g>
</g>
</svg>
