<?xml version="1.0" encoding="UTF-8" standalone="no"?>
<!DOCTYPE svg PUBLIC "-//W3C//DTD SVG 1.1//EN"
 "http://www.w3.org/Graphics/SVG/1.1/DTD/svg11.dtd">
<!-- Generated by graphviz version 2.40.1 (20161225.0304)
 -->
<!-- Title: %3 Pages: 1 -->
<svg width="2829pt" height="127pt"
 viewBox="0.00 0.00 2828.50 127.00" xmlns="http://www.w3.org/2000/svg" xmlns:xlink="http://www.w3.org/1999/xlink">
<g id="graph0" class="graph" transform="scale(1 1) rotate(0) translate(4 123)">
<title>%3</title>
<polygon fill="#ffffff" stroke="transparent" points="-4,4 -4,-123 2824.5,-123 2824.5,4 -4,4"/>
<!-- bartlett/php&#45;compatinfo -->
<g id="node1" class="node">
<title>bartlett/php&#45;compatinfo</title>
<ellipse fill="#d3d3d3" stroke="#000000" stroke-width="2" cx="1249" cy="-101" rx="94.7833" ry="18"/>
<text text-anchor="middle" x="1249" y="-97.3" font-family="Times,serif" font-size="14.00" fill="#000000">bartlett/php&#45;compatinfo</text>
</g>
<!-- php -->
<g id="node2" class="node">
<title>php</title>
<path fill="#eeeeee" stroke="#000000" d="M42,-36C42,-36 12,-36 12,-36 6,-36 0,-30 0,-24 0,-24 0,-12 0,-12 0,-6 6,0 12,0 12,0 42,0 42,0 48,0 54,-6 54,-12 54,-12 54,-24 54,-24 54,-30 48,-36 42,-36"/>
<text text-anchor="middle" x="27" y="-14.3" font-family="Times,serif" font-size="14.00" fill="#314b5f">php</text>
</g>
<!-- bartlett/php&#45;compatinfo&#45;&gt;php -->
<g id="edge1" class="edge">
<title>bartlett/php&#45;compatinfo&#45;&gt;php</title>
<path fill="none" stroke="#1a2833" d="M1153.9239,-100.6756C926.7615,-99.441 357.3907,-93.5082 169,-65 123.6314,-58.1346 110.2153,-53.9751 63.6921,-35.9831"/>
<polygon fill="#1a2833" stroke="#1a2833" points="64.856,-32.6805 54.267,-32.3276 62.3247,-39.2068 64.856,-32.6805"/>
<text text-anchor="middle" x="187.5" y="-57" font-family="Times,serif" font-size="10.00" fill="#767676">^7.4|^8.0</text>
</g>
<!-- ext&#45;json -->
<g id="node3" class="node">
<title>ext&#45;json</title>
<path fill="#eeeeee" stroke="#000000" d="M120,-36C120,-36 84,-36 84,-36 78,-36 72,-30 72,-24 72,-24 72,-12 72,-12 72,-6 78,0 84,0 84,0 120,0 120,0 126,0 132,-6 132,-12 132,-12 132,-24 132,-24 132,-30 126,-36 120,-36"/>
<text text-anchor="middle" x="102" y="-14.3" font-family="Times,serif" font-size="14.00" fill="#314b5f">ext&#45;json</text>
</g>
<!-- bartlett/php&#45;compatinfo&#45;&gt;ext&#45;json -->
<g id="edge2" class="edge">
<title>bartlett/php&#45;compatinfo&#45;&gt;ext&#45;json</title>
<path fill="none" stroke="#1a2833" d="M1154.5016,-99.2196C947.4992,-95.0283 459.397,-83.4773 295,-65 228.8975,-57.5704 209.1027,-57.2158 142.1436,-36.013"/>
<polygon fill="#1a2833" stroke="#1a2833" points="142.9638,-32.6006 132.3727,-32.88 140.8264,-39.2663 142.9638,-32.6006"/>
<text text-anchor="middle" x="298" y="-57" font-family="Times,serif" font-size="10.00" fill="#767676">*</text>
</g>
<!-- ext&#45;libxml -->
<g id="node4" class="node">
<title>ext&#45;libxml</title>
<path fill="#eeeeee" stroke="#000000" d="M212,-36C212,-36 162,-36 162,-36 156,-36 150,-30 150,-24 150,-24 150,-12 150,-12 150,-6 156,0 162,0 162,0 212,0 212,0 218,0 224,-6 224,-12 224,-12 224,-24 224,-24 224,-30 218,-36 212,-36"/>
<text text-anchor="middle" x="187" y="-14.3" font-family="Times,serif" font-size="14.00" fill="#314b5f">ext&#45;libxml</text>
</g>
<!-- bartlett/php&#45;compatinfo&#45;&gt;ext&#45;libxml -->
<g id="edge3" class="edge">
<title>bartlett/php&#45;compatinfo&#45;&gt;ext&#45;libxml</title>
<path fill="none" stroke="#1a2833" d="M1154.6407,-98.9833C961.1237,-94.5386 525.0779,-82.8545 377,-65 315.2227,-57.5512 297.2932,-54.6805 233.9094,-36.0551"/>
<polygon fill="#1a2833" stroke="#1a2833" points="234.7992,-32.6685 224.2173,-33.1903 232.815,-39.3814 234.7992,-32.6685"/>
<text text-anchor="middle" x="380" y="-57" font-family="Times,serif" font-size="10.00" fill="#767676">*</text>
</g>
<!-- ext&#45;pcre -->
<g id="node5" class="node">
<title>ext&#45;pcre</title>
<path fill="#eeeeee" stroke="#000000" d="M291.5,-36C291.5,-36 254.5,-36 254.5,-36 248.5,-36 242.5,-30 242.5,-24 242.5,-24 242.5,-12 242.5,-12 242.5,-6 248.5,0 254.5,0 254.5,0 291.5,0 291.5,0 297.5,0 303.5,-6 303.5,-12 303.5,-12 303.5,-24 303.5,-24 303.5,-30 297.5,-36 291.5,-36"/>
<text text-anchor="middle" x="273" y="-14.3" font-family="Times,serif" font-size="14.00" fill="#314b5f">ext&#45;pcre</text>
</g>
<!-- bartlett/php&#45;compatinfo&#45;&gt;ext&#45;pcre -->
<g id="edge4" class="edge">
<title>bartlett/php&#45;compatinfo&#45;&gt;ext&#45;pcre</title>
<path fill="none" stroke="#1a2833" d="M1155.0343,-98.0933C979.3455,-92.4117 607.2813,-79.1469 479,-65 407.6095,-57.127 386.3253,-57.901 313.3665,-35.7129"/>
<polygon fill="#1a2833" stroke="#1a2833" points="314.301,-32.3385 303.7136,-32.7375 312.2389,-39.0279 314.301,-32.3385"/>
<text text-anchor="middle" x="482" y="-57" font-family="Times,serif" font-size="10.00" fill="#767676">*</text>
</g>
<!-- ext&#45;spl -->
<g id="node6" class="node">
<title>ext&#45;spl</title>
<path fill="#eeeeee" stroke="#000000" d="M364,-36C364,-36 334,-36 334,-36 328,-36 322,-30 322,-24 322,-24 322,-12 322,-12 322,-6 328,0 334,0 334,0 364,0 364,0 370,0 376,-6 376,-12 376,-12 376,-24 376,-24 376,-30 370,-36 364,-36"/>
<text text-anchor="middle" x="349" y="-14.3" font-family="Times,serif" font-size="14.00" fill="#314b5f">ext&#45;spl</text>
</g>
<!-- bartlett/php&#45;compatinfo&#45;&gt;ext&#45;spl -->
<g id="edge5" class="edge">
<title>bartlett/php&#45;compatinfo&#45;&gt;ext&#45;spl</title>
<path fill="none" stroke="#1a2833" d="M1154.8601,-98.5368C965.8563,-92.8531 545.3886,-76.2972 385.759,-35.491"/>
<polygon fill="#1a2833" stroke="#1a2833" points="386.6452,-32.1051 376.0799,-32.8959 384.8324,-38.8663 386.6452,-32.1051"/>
<text text-anchor="middle" x="570" y="-57" font-family="Times,serif" font-size="10.00" fill="#767676">*</text>
</g>
<!-- bartlett/php&#45;compatinfo&#45;db -->
<g id="node7" class="node">
<title>bartlett/php&#45;compatinfo&#45;db</title>
<path fill="#eeeeee" stroke="#000000" d="M588,-36C588,-36 406,-36 406,-36 400,-36 394,-30 394,-24 394,-24 394,-12 394,-12 394,-6 400,0 406,0 406,0 588,0 588,0 594,0 600,-6 600,-12 600,-12 600,-24 600,-24 600,-30 594,-36 588,-36"/>
<text text-anchor="middle" x="497" y="-14.3" font-family="Times,serif" font-size="14.00" fill="#314b5f">bartlett/php&#45;compatinfo&#45;db: 3.15.0</text>
</g>
<!-- bartlett/php&#45;compatinfo&#45;&gt;bartlett/php&#45;compatinfo&#45;db -->
<g id="edge6" class="edge">
<title>bartlett/php&#45;compatinfo&#45;&gt;bartlett/php&#45;compatinfo&#45;db</title>
<path fill="none" stroke="#1a2833" d="M1161.8592,-93.7672C1040.5155,-83.3338 813.5721,-62.5113 610.0822,-36.1034"/>
<polygon fill="#1a2833" stroke="#1a2833" points="610.4727,-32.6248 600.1039,-34.8015 609.567,-39.5659 610.4727,-32.6248"/>
<text text-anchor="middle" x="864" y="-57" font-family="Times,serif" font-size="10.00" fill="#767676">^3.6</text>
</g>
<!-- composer/package&#45;versions&#45;deprecated -->
<g id="node8" class="node">
<title>composer/package&#45;versions&#45;deprecated</title>
<path fill="#eeeeee" stroke="#000000" d="M896,-36C896,-36 630,-36 630,-36 624,-36 618,-30 618,-24 618,-24 618,-12 618,-12 618,-6 624,0 630,0 630,0 896,0 896,0 902,0 908,-6 908,-12 908,-12 908,-24 908,-24 908,-30 902,-36 896,-36"/>
<text text-anchor="middle" x="763" y="-14.3" font-family="Times,serif" font-size="14.00" fill="#314b5f">composer/package&#45;versions&#45;deprecated: 1.11.99.4</text>
</g>
<!-- bartlett/php&#45;compatinfo&#45;&gt;composer/package&#45;versions&#45;deprecated -->
<g id="edge7" class="edge">
<title>bartlett/php&#45;compatinfo&#45;&gt;composer/package&#45;versions&#45;deprecated</title>
<path fill="none" stroke="#1a2833" d="M1178.3314,-88.9311C1099.8429,-75.5267 971.9349,-53.6823 878.7743,-37.7722"/>
<polygon fill="#1a2833" stroke="#1a2833" points="879.1798,-34.2908 868.7333,-36.0573 878.0013,-41.1909 879.1798,-34.2908"/>
<text text-anchor="middle" x="1045" y="-57" font-family="Times,serif" font-size="10.00" fill="#767676">^1.8</text>
</g>
<!-- doctrine/collections -->
<g id="node9" class="node">
<title>doctrine/collections</title>
<path fill="#eeeeee" stroke="#000000" d="M1072,-36C1072,-36 938,-36 938,-36 932,-36 926,-30 926,-24 926,-24 926,-12 926,-12 926,-6 932,0 938,0 938,0 1072,0 1072,0 1078,0 1084,-6 1084,-12 1084,-12 1084,-24 1084,-24 1084,-30 1078,-36 1072,-36"/>
<text text-anchor="middle" x="1005" y="-14.3" font-family="Times,serif" font-size="14.00" fill="#314b5f">doctrine/collections: 1.6.8</text>
</g>
<!-- bartlett/php&#45;compatinfo&#45;&gt;doctrine/collections -->
<g id="edge8" class="edge">
<title>bartlett/php&#45;compatinfo&#45;&gt;doctrine/collections</title>
<path fill="none" stroke="#1a2833" d="M1202.5311,-85.193C1164.3043,-72.1896 1109.7664,-53.6377 1067.6782,-39.3209"/>
<polygon fill="#1a2833" stroke="#1a2833" points="1068.6774,-35.9639 1058.083,-36.0569 1066.4231,-42.591 1068.6774,-35.9639"/>
<text text-anchor="middle" x="1151" y="-57" font-family="Times,serif" font-size="10.00" fill="#767676">^1.4</text>
</g>
<!-- nikic/php&#45;parser -->
<g id="node10" class="node">
<title>nikic/php&#45;parser</title>
<path fill="#eeeeee" stroke="#000000" d="M1244,-36C1244,-36 1114,-36 1114,-36 1108,-36 1102,-30 1102,-24 1102,-24 1102,-12 1102,-12 1102,-6 1108,0 1114,0 1114,0 1244,0 1244,0 1250,0 1256,-6 1256,-12 1256,-12 1256,-24 1256,-24 1256,-30 1250,-36 1244,-36"/>
<text text-anchor="middle" x="1179" y="-14.3" font-family="Times,serif" font-size="14.00" fill="#314b5f">nikic/php&#45;parser: v4.13.2</text>
</g>
<!-- bartlett/php&#45;compatinfo&#45;&gt;nikic/php&#45;parser -->
<g id="edge9" class="edge">
<title>bartlett/php&#45;compatinfo&#45;&gt;nikic/php&#45;parser</title>
<path fill="none" stroke="#1a2833" d="M1233.811,-82.9902C1224.2454,-71.6482 1211.7361,-56.8157 1201.0836,-44.1848"/>
<polygon fill="#1a2833" stroke="#1a2833" points="1203.5236,-41.6491 1194.401,-36.2612 1198.1726,-46.1621 1203.5236,-41.6491"/>
<text text-anchor="middle" x="1230.5" y="-57" font-family="Times,serif" font-size="10.00" fill="#767676">^4.10</text>
</g>
<!-- psr/log -->
<g id="node11" class="node">
<title>psr/log</title>
<path fill="#eeeeee" stroke="#000000" d="M1351.5,-36C1351.5,-36 1286.5,-36 1286.5,-36 1280.5,-36 1274.5,-30 1274.5,-24 1274.5,-24 1274.5,-12 1274.5,-12 1274.5,-6 1280.5,0 1286.5,0 1286.5,0 1351.5,0 1351.5,0 1357.5,0 1363.5,-6 1363.5,-12 1363.5,-12 1363.5,-24 1363.5,-24 1363.5,-30 1357.5,-36 1351.5,-36"/>
<text text-anchor="middle" x="1319" y="-14.3" font-family="Times,serif" font-size="14.00" fill="#314b5f">psr/log: 1.1.4</text>
</g>
<!-- bartlett/php&#45;compatinfo&#45;&gt;psr/log -->
<g id="edge10" class="edge">
<title>bartlett/php&#45;compatinfo&#45;&gt;psr/log</title>
<path fill="none" stroke="#1a2833" d="M1264.189,-82.9902C1273.7546,-71.6482 1286.2639,-56.8157 1296.9164,-44.1848"/>
<polygon fill="#1a2833" stroke="#1a2833" points="1299.8274,-46.1621 1303.599,-36.2612 1294.4764,-41.6491 1299.8274,-46.1621"/>
<text text-anchor="middle" x="1298" y="-57" font-family="Times,serif" font-size="10.00" fill="#767676">^1.0</text>
</g>
<!-- ramsey/uuid -->
<g id="node12" class="node">
<title>ramsey/uuid</title>
<path fill="#eeeeee" stroke="#000000" d="M1488.5,-36C1488.5,-36 1393.5,-36 1393.5,-36 1387.5,-36 1381.5,-30 1381.5,-24 1381.5,-24 1381.5,-12 1381.5,-12 1381.5,-6 1387.5,0 1393.5,0 1393.5,0 1488.5,0 1488.5,0 1494.5,0 1500.5,-6 1500.5,-12 1500.5,-12 1500.5,-24 1500.5,-24 1500.5,-30 1494.5,-36 1488.5,-36"/>
<text text-anchor="middle" x="1441" y="-14.3" font-family="Times,serif" font-size="14.00" fill="#314b5f">ramsey/uuid: 4.2.3</text>
</g>
<!-- bartlett/php&#45;compatinfo&#45;&gt;ramsey/uuid -->
<g id="edge11" class="edge">
<title>bartlett/php&#45;compatinfo&#45;&gt;ramsey/uuid</title>
<path fill="none" stroke="#1a2833" d="M1287.3926,-84.4032C1316.875,-71.6582 1357.8603,-53.9406 1390.0804,-40.0121"/>
<polygon fill="#1a2833" stroke="#1a2833" points="1391.556,-43.1873 1399.3463,-36.0066 1388.7784,-36.762 1391.556,-43.1873"/>
<text text-anchor="middle" x="1375.5" y="-57" font-family="Times,serif" font-size="10.00" fill="#767676">^3.9|^4.0</text>
</g>
<!-- symfony/config -->
<g id="node13" class="node">
<title>symfony/config</title>
<path fill="#eeeeee" stroke="#000000" d="M1651.5,-36C1651.5,-36 1530.5,-36 1530.5,-36 1524.5,-36 1518.5,-30 1518.5,-24 1518.5,-24 1518.5,-12 1518.5,-12 1518.5,-6 1524.5,0 1530.5,0 1530.5,0 1651.5,0 1651.5,0 1657.5,0 1663.5,-6 1663.5,-12 1663.5,-12 1663.5,-24 1663.5,-24 1663.5,-30 1657.5,-36 1651.5,-36"/>
<text text-anchor="middle" x="1591" y="-14.3" font-family="Times,serif" font-size="14.00" fill="#314b5f">symfony/config: v5.4.0</text>
</g>
<!-- bartlett/php&#45;compatinfo&#45;&gt;symfony/config -->
<g id="edge12" class="edge">
<title>bartlett/php&#45;compatinfo&#45;&gt;symfony/config</title>
<path fill="none" stroke="#1a2833" d="M1307.7432,-86.8329C1335.1698,-80.2118 1368.2582,-72.2144 1398,-65 1434.1464,-56.2321 1474.0923,-46.5098 1508.2205,-38.1935"/>
<polygon fill="#1a2833" stroke="#1a2833" points="1509.2609,-41.5424 1518.1478,-35.7741 1507.6034,-34.7415 1509.2609,-41.5424"/>
<text text-anchor="middle" x="1459.5" y="-57" font-family="Times,serif" font-size="10.00" fill="#767676">^4.4|^5.0</text>
</g>
<!-- symfony/console -->
<g id="node14" class="node">
<title>symfony/console</title>
<path fill="#eeeeee" stroke="#000000" d="M1822,-36C1822,-36 1694,-36 1694,-36 1688,-36 1682,-30 1682,-24 1682,-24 1682,-12 1682,-12 1682,-6 1688,0 1694,0 1694,0 1822,0 1822,0 1828,0 1834,-6 1834,-12 1834,-12 1834,-24 1834,-24 1834,-30 1828,-36 1822,-36"/>
<text text-anchor="middle" x="1758" y="-14.3" font-family="Times,serif" font-size="14.00" fill="#314b5f">symfony/console: v5.4.1</text>
</g>
<!-- bartlett/php&#45;compatinfo&#45;&gt;symfony/console -->
<g id="edge13" class="edge">
<title>bartlett/php&#45;compatinfo&#45;&gt;symfony/console</title>
<path fill="none" stroke="#1a2833" d="M1326.009,-90.4374C1408.7893,-78.795 1544.4516,-58.8852 1671.6836,-36.0056"/>
<polygon fill="#1a2833" stroke="#1a2833" points="1672.3913,-39.4345 1681.6093,-34.2115 1671.1462,-32.5461 1672.3913,-39.4345"/>
<text text-anchor="middle" x="1575.5" y="-57" font-family="Times,serif" font-size="10.00" fill="#767676">^4.4|^5.0</text>
</g>
<!-- symfony/event&#45;dispatcher -->
<g id="node15" class="node">
<title>symfony/event&#45;dispatcher</title>
<path fill="#eeeeee" stroke="#000000" d="M2040,-36C2040,-36 1864,-36 1864,-36 1858,-36 1852,-30 1852,-24 1852,-24 1852,-12 1852,-12 1852,-6 1858,0 1864,0 1864,0 2040,0 2040,0 2046,0 2052,-6 2052,-12 2052,-12 2052,-24 2052,-24 2052,-30 2046,-36 2040,-36"/>
<text text-anchor="middle" x="1952" y="-14.3" font-family="Times,serif" font-size="14.00" fill="#314b5f">symfony/event&#45;dispatcher: v5.4.0</text>
</g>
<!-- bartlett/php&#45;compatinfo&#45;&gt;symfony/event&#45;dispatcher -->
<g id="edge14" class="edge">
<title>bartlett/php&#45;compatinfo&#45;&gt;symfony/event&#45;dispatcher</title>
<path fill="none" stroke="#1a2833" d="M1335.2874,-93.2905C1449.0351,-82.7389 1655.5715,-62.2396 1841.959,-36.1136"/>
<polygon fill="#1a2833" stroke="#1a2833" points="1842.5305,-39.5678 1851.9439,-34.7059 1841.5532,-32.6363 1842.5305,-39.5678"/>
<text text-anchor="middle" x="1715.5" y="-57" font-family="Times,serif" font-size="10.00" fill="#767676">^4.4|^5.0</text>
</g>
<!-- symfony/finder -->
<g id="node16" class="node">
<title>symfony/finder</title>
<path fill="#eeeeee" stroke="#000000" d="M2201.5,-36C2201.5,-36 2082.5,-36 2082.5,-36 2076.5,-36 2070.5,-30 2070.5,-24 2070.5,-24 2070.5,-12 2070.5,-12 2070.5,-6 2076.5,0 2082.5,0 2082.5,0 2201.5,0 2201.5,0 2207.5,0 2213.5,-6 2213.5,-12 2213.5,-12 2213.5,-24 2213.5,-24 2213.5,-30 2207.5,-36 2201.5,-36"/>
<text text-anchor="middle" x="2142" y="-14.3" font-family="Times,serif" font-size="14.00" fill="#314b5f">symfony/finder: v5.4.0</text>
</g>
<!-- bartlett/php&#45;compatinfo&#45;&gt;symfony/finder -->
<g id="edge15" class="edge">
<title>bartlett/php&#45;compatinfo&#45;&gt;symfony/finder</title>
<path fill="none" stroke="#1a2833" d="M1342.6874,-98.0176C1492.452,-92.2519 1795.0109,-76.512 2059.9034,-36.0555"/>
<polygon fill="#1a2833" stroke="#1a2833" points="2060.7531,-39.466 2070.1027,-34.4826 2059.6861,-32.5478 2060.7531,-39.466"/>
<text text-anchor="middle" x="1947.5" y="-57" font-family="Times,serif" font-size="10.00" fill="#767676">^4.4|^5.0</text>
</g>
<!-- symfony/dependency&#45;injection -->
<g id="node17" class="node">
<title>symfony/dependency&#45;injection</title>
<path fill="#eeeeee" stroke="#000000" d="M2446.5,-36C2446.5,-36 2243.5,-36 2243.5,-36 2237.5,-36 2231.5,-30 2231.5,-24 2231.5,-24 2231.5,-12 2231.5,-12 2231.5,-6 2237.5,0 2243.5,0 2243.5,0 2446.5,0 2446.5,0 2452.5,0 2458.5,-6 2458.5,-12 2458.5,-12 2458.5,-24 2458.5,-24 2458.5,-30 2452.5,-36 2446.5,-36"/>
<text text-anchor="middle" x="2345" y="-14.3" font-family="Times,serif" font-size="14.00" fill="#314b5f">symfony/dependency&#45;injection: v5.4.1</text>
</g>
<!-- bartlett/php&#45;compatinfo&#45;&gt;symfony/dependency&#45;injection -->
<g id="edge16" class="edge">
<title>bartlett/php&#45;compatinfo&#45;&gt;symfony/dependency&#45;injection</title>
<path fill="none" stroke="#1a2833" d="M1343.0334,-98.2461C1480.7916,-93.7716 1745.4814,-83.5044 1970,-65 2079.1762,-56.0019 2108.5659,-50.9024 2221.3456,-36.0725"/>
<polygon fill="#1a2833" stroke="#1a2833" points="2221.9634,-39.5216 2231.4233,-34.7507 2221.053,-32.581 2221.9634,-39.5216"/>
<text text-anchor="middle" x="2102.5" y="-57" font-family="Times,serif" font-size="10.00" fill="#767676">^4.4|^5.0</text>
</g>
<!-- symfony/serializer -->
<g id="node18" class="node">
<title>symfony/serializer</title>
<path fill="#eeeeee" stroke="#000000" d="M2625,-36C2625,-36 2489,-36 2489,-36 2483,-36 2477,-30 2477,-24 2477,-24 2477,-12 2477,-12 2477,-6 2483,0 2489,0 2489,0 2625,0 2625,0 2631,0 2637,-6 2637,-12 2637,-12 2637,-24 2637,-24 2637,-30 2631,-36 2625,-36"/>
<text text-anchor="middle" x="2557" y="-14.3" font-family="Times,serif" font-size="14.00" fill="#314b5f">symfony/serializer: v5.4.0</text>
</g>
<!-- bartlett/php&#45;compatinfo&#45;&gt;symfony/serializer -->
<g id="edge17" class="edge">
<title>bartlett/php&#45;compatinfo&#45;&gt;symfony/serializer</title>
<path fill="none" stroke="#1a2833" d="M1343.056,-98.4776C1503.5464,-93.8729 1840.546,-82.8966 2125,-65 2273.9736,-55.6272 2314.252,-57.3556 2466.4195,-35.987"/>
<polygon fill="#1a2833" stroke="#1a2833" points="2467.1956,-39.4122 2476.6067,-34.5458 2466.2149,-32.4812 2467.1956,-39.4122"/>
<text text-anchor="middle" x="2326.5" y="-57" font-family="Times,serif" font-size="10.00" fill="#767676">^4.4|^5.0</text>
</g>
<!-- symfony/stopwatch -->
<g id="node19" class="node">
<title>symfony/stopwatch</title>
<path fill="#eeeeee" stroke="#000000" d="M2808.5,-36C2808.5,-36 2667.5,-36 2667.5,-36 2661.5,-36 2655.5,-30 2655.5,-24 2655.5,-24 2655.5,-12 2655.5,-12 2655.5,-6 2661.5,0 2667.5,0 2667.5,0 2808.5,0 2808.5,0 2814.5,0 2820.5,-6 2820.5,-12 2820.5,-12 2820.5,-24 2820.5,-24 2820.5,-30 2814.5,-36 2808.5,-36"/>
<text text-anchor="middle" x="2738" y="-14.3" font-family="Times,serif" font-size="14.00" fill="#314b5f">symfony/stopwatch: v5.4.0</text>
</g>
<!-- bartlett/php&#45;compatinfo&#45;&gt;symfony/stopwatch -->
<g id="edge18" class="edge">
<title>bartlett/php&#45;compatinfo&#45;&gt;symfony/stopwatch</title>
<path fill="none" stroke="#1a2833" d="M1344.0049,-99.9562C1534.7107,-97.4047 1977.6689,-89.1799 2349,-65 2478.1163,-56.5923 2513.0784,-55.2617 2645.2071,-36.0431"/>
<polygon fill="#1a2833" stroke="#1a2833" points="2645.9235,-39.4757 2655.3122,-34.5663 2644.9112,-32.5493 2645.9235,-39.4757"/>
<text text-anchor="middle" x="2521.5" y="-57" font-family="Times,serif" font-size="10.00" fill="#767676">^4.4|^5.0</text>
</g>
</g>
</svg>
