<?xml version="1.0" encoding="UTF-8" standalone="no"?>
<!DOCTYPE svg PUBLIC "-//W3C//DTD SVG 1.1//EN"
 "http://www.w3.org/Graphics/SVG/1.1/DTD/svg11.dtd">
<!-- Generated by graphviz version 2.43.0 (0)
 -->
<!-- Title: %3 Pages: 1 -->
<svg width="2875pt" height="1222pt"
 viewBox="0.00 0.00 2875.00 1222.00" xmlns="http://www.w3.org/2000/svg" xmlns:xlink="http://www.w3.org/1999/xlink">
<g id="graph0" class="graph" transform="scale(1 1) rotate(0) translate(4 1218)">
<title>%3</title>
<g id="clust1" class="cluster">
<title>cluster_0</title>
<polygon fill="Bisque" stroke="black" points="0,-976 0,-1128 413,-1128 413,-976 0,-976"/>
<text text-anchor="middle" x="206.5" y="-1112.8" font-family="Times,serif" font-size="14.00">Bartlett\CompatInfo\Application\PhpParser\Node\Name</text>
</g>
<g id="clust2" class="cluster">
<title>cluster_1</title>
<polygon fill="transparent" stroke="black" points="619,-977 619,-1128 798,-1128 798,-977 619,-977"/>
<text text-anchor="middle" x="708.5" y="-1112.8" font-family="Times,serif" font-size="14.00">PhpParser\Node\Name</text>
</g>
<g id="clust3" class="cluster">
<title>cluster_2</title>
<polygon fill="transparent" stroke="black" points="1456,-899 1456,-1206 1777,-1206 1777,-899 1456,-899"/>
<text text-anchor="middle" x="1616.5" y="-1190.8" font-family="Times,serif" font-size="14.00">PhpParser\Node</text>
</g>
<g id="clust4" class="cluster">
<title>cluster_3</title>
<polygon fill="transparent" stroke="black" points="2249,-512 2249,-989 2859,-989 2859,-512 2249,-512"/>
<text text-anchor="middle" x="2554" y="-973.8" font-family="Times,serif" font-size="14.00">PhpParser</text>
</g>
<g id="clust5" class="cluster">
<title>cluster_4</title>
<polygon fill="transparent" stroke="black" points="2620.5,-997 2620.5,-1149 2779.5,-1149 2779.5,-997 2620.5,-997"/>
<text text-anchor="middle" x="2700" y="-1133.8" font-family="Times,serif" font-size="14.00">0</text>
</g>
<g id="clust6" class="cluster">
<title>cluster_5</title>
<polygon fill="Bisque" stroke="black" points="433,-8 433,-367 1784.5,-367 1784.5,-8 433,-8"/>
<text text-anchor="middle" x="1108.75" y="-351.8" font-family="Times,serif" font-size="14.00">Bartlett\CompatInfo\Application\PhpParser\NodeVisitor</text>
</g>
<g id="clust7" class="cluster">
<title>cluster_6</title>
<polygon fill="transparent" stroke="black" points="1425.5,-375 1425.5,-604 1807.5,-604 1807.5,-375 1425.5,-375"/>
<text text-anchor="middle" x="1616.5" y="-588.8" font-family="Times,serif" font-size="14.00">PhpParser\NodeVisitor</text>
</g>
<g id="clust8" class="cluster">
<title>cluster_7</title>
<polygon fill="BurlyWood" stroke="black" points="1004,-680 1004,-871 2229,-871 2229,-680 1004,-680"/>
<text text-anchor="middle" x="1616.5" y="-855.8" font-family="Times,serif" font-size="14.00">Bartlett\CompatInfo\Application\PhpParser</text>
</g>
<!-- Bartlett\\CompatInfo\\Application\\PhpParser\\Node\\Name\\ClassFullyQualified -->
<g id="node1" class="node">
<title>Bartlett\\CompatInfo\\Application\\PhpParser\\Node\\Name\\ClassFullyQualified</title>
<polygon fill="#fefece" stroke="transparent" points="253.5,-1096.5 159.5,-1096.5 159.5,-1049.5 253.5,-1049.5 253.5,-1096.5"/>
<polygon fill="#eeeeee" stroke="transparent" points="159.5,-1074 159.5,-1096 253.5,-1096 253.5,-1074 159.5,-1074"/>
<polygon fill="none" stroke="black" points="159.5,-1074 159.5,-1096 253.5,-1096 253.5,-1074 159.5,-1074"/>
<text text-anchor="start" x="162.5" y="-1079.6" font-family="Verdana" font-weight="bold" font-size="8.00">ClassFullyQualified</text>
<polygon fill="none" stroke="black" points="159.5,-1068 159.5,-1074 253.5,-1074 253.5,-1068 159.5,-1068"/>
<polygon fill="none" stroke="black" points="159.5,-1049 159.5,-1068 253.5,-1068 253.5,-1049 159.5,-1049"/>
<text text-anchor="start" x="164.5" y="-1056.6" font-family="Verdana" font-size="8.00">+ getType() : string</text>
</g>
<!-- PhpParser\\Node\\Name\\FullyQualified -->
<g id="node3" class="node">
<title>PhpParser\\Node\\Name\\FullyQualified</title>
<polygon fill="#fefece" stroke="transparent" points="765,-1097 652,-1097 652,-985 765,-985 765,-1097"/>
<polygon fill="#eeeeee" stroke="transparent" points="652.5,-1075 652.5,-1097 765.5,-1097 765.5,-1075 652.5,-1075"/>
<polygon fill="none" stroke="black" points="652.5,-1075 652.5,-1097 765.5,-1097 765.5,-1075 652.5,-1075"/>
<text text-anchor="start" x="677" y="-1080.6" font-family="Verdana" font-weight="bold" font-size="8.00">FullyQualified</text>
<polygon fill="none" stroke="black" points="652.5,-1069 652.5,-1075 765.5,-1075 765.5,-1069 652.5,-1069"/>
<polygon fill="none" stroke="black" points="652.5,-985 652.5,-1069 765.5,-1069 765.5,-985 652.5,-985"/>
<text text-anchor="start" x="657.5" y="-1057.6" font-family="Verdana" font-size="8.00">+ isUnqualified() : bool</text>
<text text-anchor="start" x="657.5" y="-1044.6" font-family="Verdana" font-size="8.00">+ isQualified() : bool</text>
<text text-anchor="start" x="657.5" y="-1031.6" font-family="Verdana" font-size="8.00">+ isFullyQualified() : bool</text>
<text text-anchor="start" x="657.5" y="-1018.6" font-family="Verdana" font-size="8.00">+ isRelative() : bool</text>
<text text-anchor="start" x="657.5" y="-1005.6" font-family="Verdana" font-size="8.00">+ toCodeString() : string</text>
<text text-anchor="start" x="657.5" y="-992.6" font-family="Verdana" font-size="8.00">+ getType() : string</text>
</g>
<!-- Bartlett\\CompatInfo\\Application\\PhpParser\\Node\\Name\\ClassFullyQualified&#45;&gt;PhpParser\\Node\\Name\\FullyQualified -->
<g id="edge6" class="edge">
<title>Bartlett\\CompatInfo\\Application\\PhpParser\\Node\\Name\\ClassFullyQualified&#45;&gt;PhpParser\\Node\\Name\\FullyQualified</title>
<path fill="none" stroke="black" d="M253.64,-1070.05C342.69,-1064.35 538.52,-1051.81 641.4,-1045.23"/>
<polygon fill="none" stroke="black" points="641.9,-1048.71 651.66,-1044.57 641.46,-1041.72 641.9,-1048.71"/>
</g>
<!-- Bartlett\\CompatInfo\\Application\\PhpParser\\Node\\Name\\InterfaceFullyQualified -->
<g id="node2" class="node">
<title>Bartlett\\CompatInfo\\Application\\PhpParser\\Node\\Name\\InterfaceFullyQualified</title>
<polygon fill="#fefece" stroke="transparent" points="262,-1031.5 151,-1031.5 151,-984.5 262,-984.5 262,-1031.5"/>
<polygon fill="#eeeeee" stroke="transparent" points="151.5,-1009 151.5,-1031 262.5,-1031 262.5,-1009 151.5,-1009"/>
<polygon fill="none" stroke="black" points="151.5,-1009 151.5,-1031 262.5,-1031 262.5,-1009 151.5,-1009"/>
<text text-anchor="start" x="154.5" y="-1014.6" font-family="Verdana" font-weight="bold" font-size="8.00">InterfaceFullyQualified</text>
<polygon fill="none" stroke="black" points="151.5,-1003 151.5,-1009 262.5,-1009 262.5,-1003 151.5,-1003"/>
<polygon fill="none" stroke="black" points="151.5,-984 151.5,-1003 262.5,-1003 262.5,-984 151.5,-984"/>
<text text-anchor="start" x="156.5" y="-991.6" font-family="Verdana" font-size="8.00">+ getType() : string</text>
</g>
<!-- Bartlett\\CompatInfo\\Application\\PhpParser\\Node\\Name\\InterfaceFullyQualified&#45;&gt;PhpParser\\Node\\Name\\FullyQualified -->
<g id="edge7" class="edge">
<title>Bartlett\\CompatInfo\\Application\\PhpParser\\Node\\Name\\InterfaceFullyQualified&#45;&gt;PhpParser\\Node\\Name\\FullyQualified</title>
<path fill="none" stroke="black" d="M262.44,-1011.63C355.05,-1017.74 541.88,-1030.07 641.47,-1036.64"/>
<polygon fill="none" stroke="black" points="641.5,-1040.15 651.71,-1037.32 641.96,-1033.17 641.5,-1040.15"/>
</g>
<!-- PhpParser\\Node\\Name -->
<g id="node4" class="node">
<title>PhpParser\\Node\\Name</title>
<polygon fill="#fefece" stroke="transparent" points="1769,-1175 1464,-1175 1464,-907 1769,-907 1769,-1175"/>
<polygon fill="#eeeeee" stroke="transparent" points="1464.5,-1153 1464.5,-1175 1769.5,-1175 1769.5,-1153 1464.5,-1153"/>
<polygon fill="none" stroke="black" points="1464.5,-1153 1464.5,-1175 1769.5,-1175 1769.5,-1153 1464.5,-1153"/>
<text text-anchor="start" x="1604" y="-1158.6" font-family="Verdana" font-weight="bold" font-size="8.00">Name</text>
<polygon fill="none" stroke="black" points="1464.5,-1134 1464.5,-1153 1769.5,-1153 1769.5,-1134 1464.5,-1134"/>
<text text-anchor="start" x="1469.5" y="-1141.6" font-family="Verdana" font-size="8.00">+ parts : mixed</text>
<polygon fill="none" stroke="black" points="1464.5,-907 1464.5,-1134 1769.5,-1134 1769.5,-907 1464.5,-907"/>
<text text-anchor="start" x="1469.5" y="-1122.6" font-family="Verdana" font-size="8.00">+ __construct(name : mixed, attributes : array = [])</text>
<text text-anchor="start" x="1469.5" y="-1109.6" font-family="Verdana" font-size="8.00">+ getSubNodeNames() : array</text>
<text text-anchor="start" x="1469.5" y="-1096.6" font-family="Verdana" font-size="8.00">+ getParts() : array</text>
<text text-anchor="start" x="1469.5" y="-1083.6" font-family="Verdana" font-size="8.00">+ getFirst() : string</text>
<text text-anchor="start" x="1469.5" y="-1070.6" font-family="Verdana" font-size="8.00">+ getLast() : string</text>
<text text-anchor="start" x="1469.5" y="-1057.6" font-family="Verdana" font-size="8.00">+ isUnqualified() : bool</text>
<text text-anchor="start" x="1469.5" y="-1044.6" font-family="Verdana" font-size="8.00">+ isQualified() : bool</text>
<text text-anchor="start" x="1469.5" y="-1031.6" font-family="Verdana" font-size="8.00">+ isFullyQualified() : bool</text>
<text text-anchor="start" x="1469.5" y="-1018.6" font-family="Verdana" font-size="8.00">+ isRelative() : bool</text>
<text text-anchor="start" x="1469.5" y="-1005.6" font-family="Verdana" font-size="8.00">+ toString() : string</text>
<text text-anchor="start" x="1469.5" y="-992.6" font-family="Verdana" font-size="8.00">+ toCodeString() : string</text>
<text text-anchor="start" x="1469.5" y="-979.6" font-family="Verdana" font-size="8.00">+ toLowerString() : string</text>
<text text-anchor="start" x="1469.5" y="-966.6" font-family="Verdana" font-size="8.00">+ isSpecialClassName() : bool</text>
<text text-anchor="start" x="1469.5" y="-953.6" font-family="Verdana" font-size="8.00">+ __toString() : string</text>
<text text-anchor="start" x="1469.5" y="-940.6" font-family="Verdana" font-size="8.00">+ slice(offset : int, length : int = «unknown»)</text>
<text text-anchor="start" x="1469.5" y="-927.6" font-family="Verdana" font-size="8.00">+ «static» concat(name1 : mixed, name2 : mixed, attributes : array = [])</text>
<text text-anchor="start" x="1469.5" y="-914.6" font-family="Verdana" font-size="8.00">+ getType() : string</text>
</g>
<!-- PhpParser\\Node\\Name\\FullyQualified&#45;&gt;PhpParser\\Node\\Name -->
<g id="edge5" class="edge">
<title>PhpParser\\Node\\Name\\FullyQualified&#45;&gt;PhpParser\\Node\\Name</title>
<path fill="none" stroke="black" d="M765.15,-1041C899.72,-1041 1246.85,-1041 1453.61,-1041"/>
<polygon fill="none" stroke="black" points="1453.65,-1044.5 1463.65,-1041 1453.65,-1037.5 1453.65,-1044.5"/>
</g>
<!-- PhpParser\\NodeAbstract -->
<g id="node5" class="node">
<title>PhpParser\\NodeAbstract</title>
<polygon fill="#fefece" stroke="transparent" points="2513,-957.5 2257,-957.5 2257,-702.5 2513,-702.5 2513,-957.5"/>
<polygon fill="#eeeeee" stroke="transparent" points="2257,-935 2257,-957 2513,-957 2513,-935 2257,-935"/>
<polygon fill="none" stroke="black" points="2257,-935 2257,-957 2513,-957 2513,-935 2257,-935"/>
<text text-anchor="start" x="2361" y="-948.6" font-family="Verdana" font-weight="bold" font-size="8.00">«abstract»</text>
<text text-anchor="start" x="2354.5" y="-940.6" font-family="Verdana" font-weight="bold" font-size="8.00">NodeAbstract</text>
<polygon fill="none" stroke="black" points="2257,-929 2257,-935 2513,-935 2513,-929 2257,-929"/>
<polygon fill="none" stroke="black" points="2257,-702 2257,-929 2513,-929 2513,-702 2257,-702"/>
<text text-anchor="start" x="2262" y="-917.6" font-family="Verdana" font-size="8.00">+ __construct(attributes : array = [])</text>
<text text-anchor="start" x="2262" y="-904.6" font-family="Verdana" font-size="8.00">+ getLine() : int</text>
<text text-anchor="start" x="2262" y="-891.6" font-family="Verdana" font-size="8.00">+ getStartLine() : int</text>
<text text-anchor="start" x="2262" y="-878.6" font-family="Verdana" font-size="8.00">+ getEndLine() : int</text>
<text text-anchor="start" x="2262" y="-865.6" font-family="Verdana" font-size="8.00">+ getStartTokenPos() : int</text>
<text text-anchor="start" x="2262" y="-852.6" font-family="Verdana" font-size="8.00">+ getEndTokenPos() : int</text>
<text text-anchor="start" x="2262" y="-839.6" font-family="Verdana" font-size="8.00">+ getStartFilePos() : int</text>
<text text-anchor="start" x="2262" y="-826.6" font-family="Verdana" font-size="8.00">+ getEndFilePos() : int</text>
<text text-anchor="start" x="2262" y="-813.6" font-family="Verdana" font-size="8.00">+ getComments() : array</text>
<text text-anchor="start" x="2262" y="-800.6" font-family="Verdana" font-size="8.00">+ getDocComment()</text>
<text text-anchor="start" x="2262" y="-787.6" font-family="Verdana" font-size="8.00">+ setDocComment(docComment : PhpParser\Comment\Doc)</text>
<text text-anchor="start" x="2262" y="-774.6" font-family="Verdana" font-size="8.00">+ setAttribute(key : string, value)</text>
<text text-anchor="start" x="2262" y="-761.6" font-family="Verdana" font-size="8.00">+ hasAttribute(key : string) : bool</text>
<text text-anchor="start" x="2262" y="-748.6" font-family="Verdana" font-size="8.00">+ getAttribute(key : string, default = «unknown»)</text>
<text text-anchor="start" x="2262" y="-735.6" font-family="Verdana" font-size="8.00">+ getAttributes() : array</text>
<text text-anchor="start" x="2262" y="-722.6" font-family="Verdana" font-size="8.00">+ setAttributes(attributes : array)</text>
<text text-anchor="start" x="2262" y="-709.6" font-family="Verdana" font-size="8.00">+ jsonSerialize() : array</text>
</g>
<!-- PhpParser\\Node\\Name&#45;&gt;PhpParser\\NodeAbstract -->
<g id="edge3" class="edge">
<title>PhpParser\\Node\\Name&#45;&gt;PhpParser\\NodeAbstract</title>
<path fill="none" stroke="black" d="M1769.11,-1000.63C1892.98,-967.46 2072.52,-918.95 2229,-875 2234.93,-873.33 2240.99,-871.62 2247.1,-869.89"/>
<polygon fill="none" stroke="black" points="2248.09,-873.24 2256.75,-867.14 2246.17,-866.51 2248.09,-873.24"/>
</g>
<!-- Stringable -->
<g id="node11" class="node">
<title>Stringable</title>
<polygon fill="#fefece" stroke="transparent" points="2771.5,-1117.5 2628.5,-1117.5 2628.5,-1070.5 2771.5,-1070.5 2771.5,-1117.5"/>
<polygon fill="#eeeeee" stroke="transparent" points="2629,-1095 2629,-1117 2772,-1117 2772,-1095 2629,-1095"/>
<polygon fill="none" stroke="black" points="2629,-1095 2629,-1117 2772,-1117 2772,-1095 2629,-1095"/>
<text text-anchor="start" x="2674.5" y="-1108.6" font-family="Verdana" font-weight="bold" font-size="8.00">«interface»</text>
<text text-anchor="start" x="2676" y="-1100.6" font-family="Verdana" font-weight="bold" font-size="8.00">Stringable</text>
<polygon fill="none" stroke="black" points="2629,-1089 2629,-1095 2772,-1095 2772,-1089 2629,-1089"/>
<polygon fill="none" stroke="black" points="2629,-1070 2629,-1089 2772,-1089 2772,-1070 2629,-1070"/>
<text text-anchor="start" x="2634" y="-1077.6" font-family="Verdana" font-size="8.00">+ «abstract» __toString() : string</text>
</g>
<!-- PhpParser\\Node\\Name&#45;&gt;Stringable -->
<g id="edge4" class="edge">
<title>PhpParser\\Node\\Name&#45;&gt;Stringable</title>
<path fill="none" stroke="black" stroke-dasharray="5,2" d="M1769.02,-1048.43C2001.4,-1059.81 2437.8,-1081.2 2618,-1090.03"/>
<polygon fill="none" stroke="black" points="2618.04,-1093.54 2628.2,-1090.53 2618.38,-1086.54 2618.04,-1093.54"/>
</g>
<!-- PhpParser\\Node -->
<g id="node6" class="node">
<title>PhpParser\\Node</title>
<polygon fill="#fefece" stroke="transparent" points="2851,-957.5 2549,-957.5 2549,-702.5 2851,-702.5 2851,-957.5"/>
<polygon fill="#eeeeee" stroke="transparent" points="2549,-935 2549,-957 2851,-957 2851,-935 2549,-935"/>
<polygon fill="none" stroke="black" points="2549,-935 2549,-957 2851,-957 2851,-935 2549,-935"/>
<text text-anchor="start" x="2674" y="-948.6" font-family="Verdana" font-weight="bold" font-size="8.00">«interface»</text>
<text text-anchor="start" x="2688" y="-940.6" font-family="Verdana" font-weight="bold" font-size="8.00">Node</text>
<polygon fill="none" stroke="black" points="2549,-929 2549,-935 2851,-935 2851,-929 2549,-929"/>
<polygon fill="none" stroke="black" points="2549,-702 2549,-929 2851,-929 2851,-702 2549,-702"/>
<text text-anchor="start" x="2554" y="-917.6" font-family="Verdana" font-size="8.00">+ «abstract» getType() : string</text>
<text text-anchor="start" x="2554" y="-904.6" font-family="Verdana" font-size="8.00">+ «abstract» getSubNodeNames() : array</text>
<text text-anchor="start" x="2554" y="-891.6" font-family="Verdana" font-size="8.00">+ «abstract» getLine() : int</text>
<text text-anchor="start" x="2554" y="-878.6" font-family="Verdana" font-size="8.00">+ «abstract» getStartLine() : int</text>
<text text-anchor="start" x="2554" y="-865.6" font-family="Verdana" font-size="8.00">+ «abstract» getEndLine() : int</text>
<text text-anchor="start" x="2554" y="-852.6" font-family="Verdana" font-size="8.00">+ «abstract» getStartTokenPos() : int</text>
<text text-anchor="start" x="2554" y="-839.6" font-family="Verdana" font-size="8.00">+ «abstract» getEndTokenPos() : int</text>
<text text-anchor="start" x="2554" y="-826.6" font-family="Verdana" font-size="8.00">+ «abstract» getStartFilePos() : int</text>
<text text-anchor="start" x="2554" y="-813.6" font-family="Verdana" font-size="8.00">+ «abstract» getEndFilePos() : int</text>
<text text-anchor="start" x="2554" y="-800.6" font-family="Verdana" font-size="8.00">+ «abstract» getComments() : array</text>
<text text-anchor="start" x="2554" y="-787.6" font-family="Verdana" font-size="8.00">+ «abstract» getDocComment()</text>
<text text-anchor="start" x="2554" y="-774.6" font-family="Verdana" font-size="8.00">+ «abstract» setDocComment(docComment : PhpParser\Comment\Doc)</text>
<text text-anchor="start" x="2554" y="-761.6" font-family="Verdana" font-size="8.00">+ «abstract» setAttribute(key : string, value : mixed)</text>
<text text-anchor="start" x="2554" y="-748.6" font-family="Verdana" font-size="8.00">+ «abstract» hasAttribute(key : string) : bool</text>
<text text-anchor="start" x="2554" y="-735.6" font-family="Verdana" font-size="8.00">+ «abstract» getAttribute(key : string, default : mixed = «unknown»)</text>
<text text-anchor="start" x="2554" y="-722.6" font-family="Verdana" font-size="8.00">+ «abstract» getAttributes() : array</text>
<text text-anchor="start" x="2554" y="-709.6" font-family="Verdana" font-size="8.00">+ «abstract» setAttributes(attributes : array)</text>
</g>
<!-- PhpParser\\NodeAbstract&#45;&gt;PhpParser\\Node -->
<g id="edge1" class="edge">
<title>PhpParser\\NodeAbstract&#45;&gt;PhpParser\\Node</title>
<path fill="none" stroke="black" stroke-dasharray="5,2" d="M2513.31,-830C2521.7,-830 2530.21,-830 2538.74,-830"/>
<polygon fill="none" stroke="black" points="2538.75,-833.5 2548.75,-830 2538.75,-826.5 2538.75,-833.5"/>
</g>
<!-- JsonSerializable -->
<g id="node10" class="node">
<title>JsonSerializable</title>
<polygon fill="#fefece" stroke="transparent" points="2762.5,-1052.5 2637.5,-1052.5 2637.5,-1005.5 2762.5,-1005.5 2762.5,-1052.5"/>
<polygon fill="#eeeeee" stroke="transparent" points="2638,-1030 2638,-1052 2763,-1052 2763,-1030 2638,-1030"/>
<polygon fill="none" stroke="black" points="2638,-1030 2638,-1052 2763,-1052 2763,-1030 2638,-1030"/>
<text text-anchor="start" x="2674.5" y="-1043.6" font-family="Verdana" font-weight="bold" font-size="8.00">«interface»</text>
<text text-anchor="start" x="2664" y="-1035.6" font-family="Verdana" font-weight="bold" font-size="8.00">JsonSerializable</text>
<polygon fill="none" stroke="black" points="2638,-1024 2638,-1030 2763,-1030 2763,-1024 2638,-1024"/>
<polygon fill="none" stroke="black" points="2638,-1005 2638,-1024 2763,-1024 2763,-1005 2638,-1005"/>
<text text-anchor="start" x="2643" y="-1012.6" font-family="Verdana" font-size="8.00">+ «abstract» jsonSerialize()</text>
</g>
<!-- PhpParser\\NodeAbstract&#45;&gt;JsonSerializable -->
<g id="edge2" class="edge">
<title>PhpParser\\NodeAbstract&#45;&gt;JsonSerializable</title>
<path fill="none" stroke="black" stroke-dasharray="5,2" d="M2498.86,-957.78C2514.68,-971.05 2531.54,-983.22 2549,-993 2572.83,-1006.34 2601.47,-1014.77 2627.31,-1020.08"/>
<polygon fill="none" stroke="black" points="2626.95,-1023.57 2637.44,-1022.03 2628.28,-1016.7 2626.95,-1023.57"/>
</g>
<!-- PhpParser\\NodeVisitorAbstract -->
<g id="node7" class="node">
<title>PhpParser\\NodeVisitorAbstract</title>
<polygon fill="#fefece" stroke="transparent" points="2467,-606 2303,-606 2303,-520 2467,-520 2467,-606"/>
<polygon fill="#eeeeee" stroke="transparent" points="2303,-584 2303,-606 2467,-606 2467,-584 2303,-584"/>
<polygon fill="none" stroke="black" points="2303,-584 2303,-606 2467,-606 2467,-584 2303,-584"/>
<text text-anchor="start" x="2339.5" y="-589.6" font-family="Verdana" font-weight="bold" font-size="8.00">NodeVisitorAbstract</text>
<polygon fill="none" stroke="black" points="2303,-578 2303,-584 2467,-584 2467,-578 2303,-578"/>
<polygon fill="none" stroke="black" points="2303,-520 2303,-578 2467,-578 2467,-520 2303,-520"/>
<text text-anchor="start" x="2308" y="-566.6" font-family="Verdana" font-size="8.00">+ beforeTraverse(nodes : array)</text>
<text text-anchor="start" x="2308" y="-553.6" font-family="Verdana" font-size="8.00">+ enterNode(node : PhpParser\Node)</text>
<text text-anchor="start" x="2308" y="-540.6" font-family="Verdana" font-size="8.00">+ leaveNode(node : PhpParser\Node)</text>
<text text-anchor="start" x="2308" y="-527.6" font-family="Verdana" font-size="8.00">+ afterTraverse(nodes : array)</text>
</g>
<!-- PhpParser\\NodeVisitor -->
<g id="node8" class="node">
<title>PhpParser\\NodeVisitor</title>
<polygon fill="#fefece" stroke="transparent" points="2805,-606 2595,-606 2595,-520 2805,-520 2805,-606"/>
<polygon fill="#eeeeee" stroke="transparent" points="2595,-584 2595,-606 2805,-606 2805,-584 2595,-584"/>
<polygon fill="none" stroke="black" points="2595,-584 2595,-606 2805,-606 2805,-584 2595,-584"/>
<text text-anchor="start" x="2674" y="-597.6" font-family="Verdana" font-weight="bold" font-size="8.00">«interface»</text>
<text text-anchor="start" x="2673.5" y="-589.6" font-family="Verdana" font-weight="bold" font-size="8.00">NodeVisitor</text>
<polygon fill="none" stroke="black" points="2595,-578 2595,-584 2805,-584 2805,-578 2595,-578"/>
<polygon fill="none" stroke="black" points="2595,-520 2595,-578 2805,-578 2805,-520 2595,-520"/>
<text text-anchor="start" x="2600" y="-566.6" font-family="Verdana" font-size="8.00">+ «abstract» beforeTraverse(nodes : array)</text>
<text text-anchor="start" x="2600" y="-553.6" font-family="Verdana" font-size="8.00">+ «abstract» enterNode(node : PhpParser\Node)</text>
<text text-anchor="start" x="2600" y="-540.6" font-family="Verdana" font-size="8.00">+ «abstract» leaveNode(node : PhpParser\Node)</text>
<text text-anchor="start" x="2600" y="-527.6" font-family="Verdana" font-size="8.00">+ «abstract» afterTraverse(nodes : array)</text>
</g>
<!-- PhpParser\\NodeVisitorAbstract&#45;&gt;PhpParser\\NodeVisitor -->
<g id="edge8" class="edge">
<title>PhpParser\\NodeVisitorAbstract&#45;&gt;PhpParser\\NodeVisitor</title>
<path fill="none" stroke="black" stroke-dasharray="5,2" d="M2467.01,-563C2502.84,-563 2545.62,-563 2584.62,-563"/>
<polygon fill="none" stroke="black" points="2584.98,-566.5 2594.98,-563 2584.98,-559.5 2584.98,-566.5"/>
</g>
<!-- PhpParser\\NodeDumper -->
<g id="node9" class="node">
<title>PhpParser\\NodeDumper</title>
<polygon fill="#fefece" stroke="transparent" points="2509,-684 2261,-684 2261,-624 2509,-624 2509,-684"/>
<polygon fill="#eeeeee" stroke="transparent" points="2261,-662 2261,-684 2509,-684 2509,-662 2261,-662"/>
<polygon fill="none" stroke="black" points="2261,-662 2261,-684 2509,-684 2509,-662 2261,-662"/>
<text text-anchor="start" x="2355" y="-667.6" font-family="Verdana" font-weight="bold" font-size="8.00">NodeDumper</text>
<polygon fill="none" stroke="black" points="2261,-656 2261,-662 2509,-662 2509,-656 2261,-656"/>
<polygon fill="none" stroke="black" points="2261,-624 2261,-656 2509,-656 2509,-624 2261,-624"/>
<text text-anchor="start" x="2266" y="-644.6" font-family="Verdana" font-size="8.00">+ __construct(options : array = [])</text>
<text text-anchor="start" x="2266" y="-631.6" font-family="Verdana" font-size="8.00">+ dump(node : mixed, code : string = «unknown») : string</text>
</g>
<!-- Bartlett\\CompatInfo\\Application\\PhpParser\\NodeVisitor\\FilterVisitor -->
<g id="node12" class="node">
<title>Bartlett\\CompatInfo\\Application\\PhpParser\\NodeVisitor\\FilterVisitor</title>
<polygon fill="#fefece" stroke="transparent" points="939,-76 478,-76 478,-16 939,-16 939,-76"/>
<polygon fill="#eeeeee" stroke="transparent" points="478.5,-54 478.5,-76 939.5,-76 939.5,-54 478.5,-54"/>
<polygon fill="none" stroke="black" points="478.5,-54 478.5,-76 939.5,-76 939.5,-54 478.5,-54"/>
<text text-anchor="start" x="682" y="-59.6" font-family="Verdana" font-weight="bold" font-size="8.00">FilterVisitor</text>
<polygon fill="none" stroke="black" points="478.5,-48 478.5,-54 939.5,-54 939.5,-48 478.5,-48"/>
<polygon fill="none" stroke="black" points="478.5,-16 478.5,-48 939.5,-48 939.5,-16 478.5,-16"/>
<text text-anchor="start" x="483.5" y="-36.6" font-family="Verdana" font-size="8.00">+ __construct(normalizer : Symfony\Component\Serializer\Normalizer\NormalizerInterface, context : array = [])</text>
<text text-anchor="start" x="483.5" y="-23.6" font-family="Verdana" font-size="8.00">+ getCollection() : Doctrine\Common\Collections\ArrayCollection</text>
</g>
<!-- Bartlett\\CompatInfo\\Application\\PhpParser\\NodeVisitor\\NodeVisitor -->
<g id="node13" class="node">
<title>Bartlett\\CompatInfo\\Application\\PhpParser\\NodeVisitor\\NodeVisitor</title>
<polygon fill="#fefece" stroke="transparent" points="1776.5,-189.5 1456.5,-189.5 1456.5,-142.5 1776.5,-142.5 1776.5,-189.5"/>
<polygon fill="#eeeeee" stroke="transparent" points="1456.5,-167 1456.5,-189 1776.5,-189 1776.5,-167 1456.5,-167"/>
<polygon fill="none" stroke="black" points="1456.5,-167 1456.5,-189 1776.5,-189 1776.5,-167 1456.5,-167"/>
<text text-anchor="start" x="1590.5" y="-180.6" font-family="Verdana" font-weight="bold" font-size="8.00">«interface»</text>
<text text-anchor="start" x="1590" y="-172.6" font-family="Verdana" font-weight="bold" font-size="8.00">NodeVisitor</text>
<polygon fill="none" stroke="black" points="1456.5,-161 1456.5,-167 1776.5,-167 1776.5,-161 1456.5,-161"/>
<polygon fill="none" stroke="black" points="1456.5,-142 1456.5,-161 1776.5,-161 1776.5,-142 1456.5,-142"/>
<text text-anchor="start" x="1461.5" y="-149.6" font-family="Verdana" font-size="8.00">+ «abstract» getCollection() : Doctrine\Common\Collections\ArrayCollection</text>
</g>
<!-- Bartlett\\CompatInfo\\Application\\PhpParser\\NodeVisitor\\FilterVisitor&#45;&gt;Bartlett\\CompatInfo\\Application\\PhpParser\\NodeVisitor\\NodeVisitor -->
<g id="edge12" class="edge">
<title>Bartlett\\CompatInfo\\Application\\PhpParser\\NodeVisitor\\FilterVisitor&#45;&gt;Bartlett\\CompatInfo\\Application\\PhpParser\\NodeVisitor\\NodeVisitor</title>
<path fill="none" stroke="black" stroke-dasharray="5,2" d="M936.08,-76.01C1094.24,-96.96 1301.97,-124.47 1445.91,-143.54"/>
<polygon fill="none" stroke="black" points="1445.78,-147.05 1456.16,-144.89 1446.7,-140.11 1445.78,-147.05"/>
</g>
<!-- PhpParser\\NodeVisitor\\FindingVisitor -->
<g id="node17" class="node">
<title>PhpParser\\NodeVisitor\\FindingVisitor</title>
<polygon fill="#fefece" stroke="transparent" points="1698.5,-469 1534.5,-469 1534.5,-383 1698.5,-383 1698.5,-469"/>
<polygon fill="#eeeeee" stroke="transparent" points="1534.5,-447 1534.5,-469 1698.5,-469 1698.5,-447 1534.5,-447"/>
<polygon fill="none" stroke="black" points="1534.5,-447 1534.5,-469 1698.5,-469 1698.5,-447 1534.5,-447"/>
<text text-anchor="start" x="1584" y="-452.6" font-family="Verdana" font-weight="bold" font-size="8.00">FindingVisitor</text>
<polygon fill="none" stroke="black" points="1534.5,-441 1534.5,-447 1698.5,-447 1698.5,-441 1534.5,-441"/>
<polygon fill="none" stroke="black" points="1534.5,-383 1534.5,-441 1698.5,-441 1698.5,-383 1534.5,-383"/>
<text text-anchor="start" x="1539.5" y="-429.6" font-family="Verdana" font-size="8.00">+ __construct(filterCallback : callable)</text>
<text text-anchor="start" x="1539.5" y="-416.6" font-family="Verdana" font-size="8.00">+ getFoundNodes() : array</text>
<text text-anchor="start" x="1539.5" y="-403.6" font-family="Verdana" font-size="8.00">+ beforeTraverse(nodes : array)</text>
<text text-anchor="start" x="1539.5" y="-390.6" font-family="Verdana" font-size="8.00">+ enterNode(node : PhpParser\Node)</text>
</g>
<!-- Bartlett\\CompatInfo\\Application\\PhpParser\\NodeVisitor\\FilterVisitor&#45;&gt;PhpParser\\NodeVisitor\\FindingVisitor -->
<g id="edge10" class="edge">
<title>Bartlett\\CompatInfo\\Application\\PhpParser\\NodeVisitor\\FilterVisitor&#45;&gt;PhpParser\\NodeVisitor\\FindingVisitor</title>
<path fill="none" stroke="black" d="M939.01,-57.48C952.65,-64.62 965.19,-73.66 976,-85 1020.07,-131.22 958.67,-326.02 1004,-371 1141.12,-507.05 1390.53,-478.04 1524.54,-449.49"/>
<polygon fill="none" stroke="black" points="1525.35,-452.9 1534.38,-447.35 1523.87,-446.06 1525.35,-452.9"/>
</g>
<!-- Bartlett\\CompatInfo\\Application\\PhpParser\\NodeVisitor\\NodeVisitor&#45;&gt;PhpParser\\NodeVisitor -->
<g id="edge11" class="edge">
<title>Bartlett\\CompatInfo\\Application\\PhpParser\\NodeVisitor\\NodeVisitor&#45;&gt;PhpParser\\NodeVisitor</title>
<path fill="none" stroke="black" stroke-dasharray="5,2" d="M1692.88,-189.55C1808.86,-226.16 2037.7,-299.95 2229,-371 2353.74,-417.33 2494.82,-475.79 2589.57,-515.96"/>
<polygon fill="none" stroke="black" points="2588.31,-519.23 2598.88,-519.91 2591.05,-512.79 2588.31,-519.23"/>
</g>
<!-- Bartlett\\CompatInfo\\Application\\PhpParser\\NodeVisitor\\NameResolverVisitor -->
<g id="node14" class="node">
<title>Bartlett\\CompatInfo\\Application\\PhpParser\\NodeVisitor\\NameResolverVisitor</title>
<polygon fill="#fefece" stroke="transparent" points="891.5,-154 525.5,-154 525.5,-94 891.5,-94 891.5,-154"/>
<polygon fill="#eeeeee" stroke="transparent" points="525.5,-132 525.5,-154 891.5,-154 891.5,-132 525.5,-132"/>
<polygon fill="none" stroke="black" points="525.5,-132 525.5,-154 891.5,-154 891.5,-132 525.5,-132"/>
<text text-anchor="start" x="661.5" y="-137.6" font-family="Verdana" font-weight="bold" font-size="8.00">NameResolverVisitor</text>
<polygon fill="none" stroke="black" points="525.5,-126 525.5,-132 891.5,-132 891.5,-126 525.5,-126"/>
<polygon fill="none" stroke="black" points="525.5,-94 525.5,-126 891.5,-126 891.5,-94 525.5,-94"/>
<text text-anchor="start" x="530.5" y="-114.6" font-family="Verdana" font-size="8.00">+ __construct(errorHandler : PhpParser\ErrorHandler = «unknown», options : array = [])</text>
<text text-anchor="start" x="530.5" y="-101.6" font-family="Verdana" font-size="8.00">+ enterNode(node : PhpParser\Node)</text>
</g>
<!-- PhpParser\\NodeVisitor\\NameResolver -->
<g id="node18" class="node">
<title>PhpParser\\NodeVisitor\\NameResolver</title>
<polygon fill="#fefece" stroke="transparent" points="1799.5,-573 1433.5,-573 1433.5,-487 1799.5,-487 1799.5,-573"/>
<polygon fill="#eeeeee" stroke="transparent" points="1433.5,-551 1433.5,-573 1799.5,-573 1799.5,-551 1433.5,-551"/>
<polygon fill="none" stroke="black" points="1433.5,-551 1433.5,-573 1799.5,-573 1799.5,-551 1433.5,-551"/>
<text text-anchor="start" x="1584.5" y="-556.6" font-family="Verdana" font-weight="bold" font-size="8.00">NameResolver</text>
<polygon fill="none" stroke="black" points="1433.5,-545 1433.5,-551 1799.5,-551 1799.5,-545 1433.5,-545"/>
<polygon fill="none" stroke="black" points="1433.5,-487 1433.5,-545 1799.5,-545 1799.5,-487 1433.5,-487"/>
<text text-anchor="start" x="1438.5" y="-533.6" font-family="Verdana" font-size="8.00">+ __construct(errorHandler : PhpParser\ErrorHandler = «unknown», options : array = [])</text>
<text text-anchor="start" x="1438.5" y="-520.6" font-family="Verdana" font-size="8.00">+ getNameContext() : PhpParser\NameContext</text>
<text text-anchor="start" x="1438.5" y="-507.6" font-family="Verdana" font-size="8.00">+ beforeTraverse(nodes : array)</text>
<text text-anchor="start" x="1438.5" y="-494.6" font-family="Verdana" font-size="8.00">+ enterNode(node : PhpParser\Node)</text>
</g>
<!-- Bartlett\\CompatInfo\\Application\\PhpParser\\NodeVisitor\\NameResolverVisitor&#45;&gt;PhpParser\\NodeVisitor\\NameResolver -->
<g id="edge14" class="edge">
<title>Bartlett\\CompatInfo\\Application\\PhpParser\\NodeVisitor\\NameResolverVisitor&#45;&gt;PhpParser\\NodeVisitor\\NameResolver</title>
<path fill="none" stroke="black" d="M891.52,-118.17C923.41,-125.51 953.52,-139.21 976,-163 1024.27,-214.08 954.21,-428.4 1004,-478 1111.15,-584.74 1287.48,-589.09 1423.33,-571.79"/>
<polygon fill="none" stroke="black" points="1423.99,-575.23 1433.45,-570.45 1423.08,-568.29 1423.99,-575.23"/>
</g>
<!-- Bartlett\\CompatInfo\\Application\\PhpParser\\NodeVisitor\\ParentContextVisitor -->
<g id="node15" class="node">
<title>Bartlett\\CompatInfo\\Application\\PhpParser\\NodeVisitor\\ParentContextVisitor</title>
<polygon fill="#fefece" stroke="transparent" points="790.5,-336 626.5,-336 626.5,-250 790.5,-250 790.5,-336"/>
<polygon fill="#eeeeee" stroke="transparent" points="626.5,-314 626.5,-336 790.5,-336 790.5,-314 626.5,-314"/>
<polygon fill="none" stroke="black" points="626.5,-314 626.5,-336 790.5,-336 790.5,-314 626.5,-314"/>
<text text-anchor="start" x="661" y="-319.6" font-family="Verdana" font-weight="bold" font-size="8.00">ParentContextVisitor</text>
<polygon fill="none" stroke="black" points="626.5,-308 626.5,-314 790.5,-314 790.5,-308 626.5,-308"/>
<polygon fill="none" stroke="black" points="626.5,-250 626.5,-308 790.5,-308 790.5,-250 626.5,-250"/>
<text text-anchor="start" x="631.5" y="-296.6" font-family="Verdana" font-size="8.00">+ __construct(options : array = [])</text>
<text text-anchor="start" x="631.5" y="-283.6" font-family="Verdana" font-size="8.00">+ beforeTraverse(nodes : array)</text>
<text text-anchor="start" x="631.5" y="-270.6" font-family="Verdana" font-size="8.00">+ enterNode(node : PhpParser\Node)</text>
<text text-anchor="start" x="631.5" y="-257.6" font-family="Verdana" font-size="8.00">+ leaveNode(node : PhpParser\Node)</text>
</g>
<!-- Bartlett\\CompatInfo\\Application\\PhpParser\\NodeVisitor\\ParentContextVisitor&#45;&gt;PhpParser\\NodeVisitorAbstract -->
<g id="edge15" class="edge">
<title>Bartlett\\CompatInfo\\Application\\PhpParser\\NodeVisitor\\ParentContextVisitor&#45;&gt;PhpParser\\NodeVisitorAbstract</title>
<path fill="none" stroke="black" d="M730.47,-336C770.89,-413.29 867.78,-573.42 1004,-636 1065.84,-664.41 2166.45,-662.81 2229,-636 2240.85,-630.92 2238.28,-622.16 2249,-615 2262.58,-605.93 2277.97,-598.12 2293.37,-591.5"/>
<polygon fill="none" stroke="black" points="2295.04,-594.6 2302.94,-587.54 2292.37,-588.13 2295.04,-594.6"/>
</g>
<!-- Bartlett\\CompatInfo\\Application\\PhpParser\\NodeVisitor\\VersionResolverVisitor -->
<g id="node16" class="node">
<title>Bartlett\\CompatInfo\\Application\\PhpParser\\NodeVisitor\\VersionResolverVisitor</title>
<polygon fill="#fefece" stroke="transparent" points="976,-232 441,-232 441,-172 976,-172 976,-232"/>
<polygon fill="#eeeeee" stroke="transparent" points="441.5,-210 441.5,-232 976.5,-232 976.5,-210 441.5,-210"/>
<polygon fill="none" stroke="black" points="441.5,-210 441.5,-232 976.5,-232 976.5,-210 441.5,-210"/>
<text text-anchor="start" x="658" y="-215.6" font-family="Verdana" font-weight="bold" font-size="8.00">VersionResolverVisitor</text>
<polygon fill="none" stroke="black" points="441.5,-204 441.5,-210 976.5,-210 976.5,-204 441.5,-204"/>
<polygon fill="none" stroke="black" points="441.5,-172 441.5,-204 976.5,-204 976.5,-172 441.5,-172"/>
<text text-anchor="start" x="446.5" y="-192.6" font-family="Verdana" font-size="8.00">+ __construct(referenceCollection : Bartlett\CompatInfo\Application\Collection\ReferenceCollectionInterface, options : array = [])</text>
<text text-anchor="start" x="446.5" y="-179.6" font-family="Verdana" font-size="8.00">+ enterNode(node : PhpParser\Node)</text>
</g>
<!-- Bartlett\\CompatInfo\\Application\\PhpParser\\NodeVisitor\\VersionResolverVisitor&#45;&gt;PhpParser\\NodeVisitorAbstract -->
<g id="edge16" class="edge">
<title>Bartlett\\CompatInfo\\Application\\PhpParser\\NodeVisitor\\VersionResolverVisitor&#45;&gt;PhpParser\\NodeVisitorAbstract</title>
<path fill="none" stroke="black" d="M966.76,-232.04C969.96,-234.85 973.05,-237.84 976,-241 1031.8,-300.8 944,-552.41 1004,-608 1053.92,-654.26 2161.62,-617.58 2229,-608 2250.08,-605 2272.29,-599.82 2293.12,-594.02"/>
<polygon fill="none" stroke="black" points="2294.24,-597.33 2302.9,-591.22 2292.32,-590.6 2294.24,-597.33"/>
</g>
<!-- PhpParser\\NodeVisitor\\FindingVisitor&#45;&gt;PhpParser\\NodeVisitorAbstract -->
<g id="edge9" class="edge">
<title>PhpParser\\NodeVisitor\\FindingVisitor&#45;&gt;PhpParser\\NodeVisitorAbstract</title>
<path fill="none" stroke="black" d="M1698.64,-422.37C1817.67,-419.38 2045.4,-422.57 2229,-478 2257.12,-486.49 2285.88,-500.51 2310.87,-514.75"/>
<polygon fill="none" stroke="black" points="2309.14,-517.79 2319.55,-519.78 2312.66,-511.73 2309.14,-517.79"/>
</g>
<!-- PhpParser\\NodeVisitor\\NameResolver&#45;&gt;PhpParser\\NodeVisitorAbstract -->
<g id="edge13" class="edge">
<title>PhpParser\\NodeVisitor\\NameResolver&#45;&gt;PhpParser\\NodeVisitorAbstract</title>
<path fill="none" stroke="black" d="M1799.64,-537.84C1954.73,-544.52 2171.13,-553.84 2292.36,-559.05"/>
<polygon fill="none" stroke="black" points="2292.57,-562.57 2302.71,-559.5 2292.87,-555.57 2292.57,-562.57"/>
</g>
<!-- Bartlett\\CompatInfo\\Application\\PhpParser\\NodeDumper -->
<g id="node19" class="node">
<title>Bartlett\\CompatInfo\\Application\\PhpParser\\NodeDumper</title>
<polygon fill="#fefece" stroke="transparent" points="1740.5,-839.5 1492.5,-839.5 1492.5,-766.5 1740.5,-766.5 1740.5,-839.5"/>
<polygon fill="#eeeeee" stroke="transparent" points="1492.5,-817 1492.5,-839 1740.5,-839 1740.5,-817 1492.5,-817"/>
<polygon fill="none" stroke="black" points="1492.5,-817 1492.5,-839 1740.5,-839 1740.5,-817 1492.5,-817"/>
<text text-anchor="start" x="1586.5" y="-822.6" font-family="Verdana" font-weight="bold" font-size="8.00">NodeDumper</text>
<polygon fill="none" stroke="black" points="1492.5,-811 1492.5,-817 1740.5,-817 1740.5,-811 1492.5,-811"/>
<polygon fill="none" stroke="black" points="1492.5,-766 1492.5,-811 1740.5,-811 1740.5,-766 1492.5,-766"/>
<text text-anchor="start" x="1497.5" y="-799.6" font-family="Verdana" font-size="8.00">+ __construct(options : array = [])</text>
<text text-anchor="start" x="1497.5" y="-786.6" font-family="Verdana" font-size="8.00">+ dump(node : mixed, code : string = «unknown») : string</text>
<text text-anchor="start" x="1497.5" y="-773.6" font-family="Verdana" font-size="8.00">+ dumpPosition(node : PhpParser\Node)</text>
</g>
<!-- Bartlett\\CompatInfo\\Application\\PhpParser\\NodeDumper&#45;&gt;PhpParser\\NodeDumper -->
<g id="edge17" class="edge">
<title>Bartlett\\CompatInfo\\Application\\PhpParser\\NodeDumper&#45;&gt;PhpParser\\NodeDumper</title>
<path fill="none" stroke="black" d="M1740.62,-830.75C1875.4,-853.49 2090.71,-866.39 2229,-757 2252.04,-738.77 2228.03,-714.57 2249,-694 2250.26,-692.76 2251.56,-691.57 2252.89,-690.41"/>
<polygon fill="none" stroke="black" points="2255.14,-693.08 2260.84,-684.15 2250.82,-687.58 2255.14,-693.08"/>
</g>
<!-- Bartlett\\CompatInfo\\Application\\PhpParser\\Parser -->
<g id="node20" class="node">
<title>Bartlett\\CompatInfo\\Application\\PhpParser\\Parser</title>
<polygon fill="#fefece" stroke="transparent" points="2221,-748 1012,-748 1012,-688 2221,-688 2221,-748"/>
<polygon fill="#eeeeee" stroke="transparent" points="1012.5,-726 1012.5,-748 2221.5,-748 2221.5,-726 1012.5,-726"/>
<polygon fill="none" stroke="black" points="1012.5,-726 1012.5,-748 2221.5,-748 2221.5,-726 1012.5,-726"/>
<text text-anchor="start" x="1602.5" y="-731.6" font-family="Verdana" font-weight="bold" font-size="8.00">Parser</text>
<polygon fill="none" stroke="black" points="1012.5,-720 1012.5,-726 2221.5,-726 2221.5,-720 1012.5,-720"/>
<polygon fill="none" stroke="black" points="1012.5,-688 1012.5,-720 2221.5,-720 2221.5,-688 1012.5,-688"/>
<text text-anchor="start" x="1017.5" y="-708.6" font-family="Verdana" font-size="8.00">+ __construct(compatibilityEventDispatcher : Symfony\Component\EventDispatcher\EventDispatcherInterface, compatibilityAnalyser : Bartlett\CompatInfo\Application\Analyser\SniffAnalyserInterface, referenceCollection : Bartlett\CompatInfo\Application\Collection\ReferenceCollectionInterface)</text>
<text text-anchor="start" x="1017.5" y="-695.6" font-family="Verdana" font-size="8.00">+ parse(source : string, finder : Symfony\Component\Finder\Finder, errorHandler : Bartlett\CompatInfo\Application\DataCollector\ErrorHandler, version : string) : Bartlett\CompatInfo\Application\Profiler\Profile</text>
</g>
</g>
</svg>
