<?xml version="1.0" encoding="UTF-8" standalone="no"?>
<!DOCTYPE svg PUBLIC "-//W3C//DTD SVG 1.1//EN"
 "http://www.w3.org/Graphics/SVG/1.1/DTD/svg11.dtd">
<!-- Generated by graphviz version 2.43.0 (0)
 -->
<!-- Title: %3 Pages: 1 -->
<svg width="1544pt" height="1282pt"
 viewBox="0.00 0.00 1544.00 1282.00" xmlns="http://www.w3.org/2000/svg" xmlns:xlink="http://www.w3.org/1999/xlink">
<g id="graph0" class="graph" transform="scale(1 1) rotate(0) translate(4 1278)">
<title>%3</title>
<g id="clust1" class="cluster">
<title>cluster_0</title>
<polygon fill="BurlyWood" stroke="black" points="286,-886 286,-1266 1528,-1266 1528,-886 286,-886"/>
<text text-anchor="middle" x="907" y="-1250.8" font-family="Times,serif" font-size="14.00">Bartlett\CompatInfo\Application\Collection</text>
</g>
<g id="clust2" class="cluster">
<title>cluster_1</title>
<polygon fill="transparent" stroke="black" points="8,-213 8,-1167 278,-1167 278,-213 8,-213"/>
<text text-anchor="middle" x="143" y="-1151.8" font-family="Times,serif" font-size="14.00">Doctrine\Common\Collections</text>
</g>
<g id="clust3" class="cluster">
<title>cluster_2</title>
<polygon fill="transparent" stroke="black" points="81,-8 81,-205 569,-205 569,-8 81,-8"/>
<text text-anchor="middle" x="325" y="-189.8" font-family="Times,serif" font-size="14.00">0</text>
</g>
<!-- Bartlett\\CompatInfo\\Application\\Collection\\ReferenceCollection -->
<g id="node1" class="node">
<title>Bartlett\\CompatInfo\\Application\\Collection\\ReferenceCollection</title>
<polygon fill="#fefece" stroke="transparent" points="1369.5,-1235 294.5,-1235 294.5,-1175 1369.5,-1175 1369.5,-1235"/>
<polygon fill="#eeeeee" stroke="transparent" points="295,-1213 295,-1235 1370,-1235 1370,-1213 295,-1213"/>
<polygon fill="none" stroke="black" points="295,-1213 295,-1235 1370,-1235 1370,-1213 295,-1213"/>
<text text-anchor="start" x="787" y="-1218.6" font-family="Verdana" font-weight="bold" font-size="8.00">ReferenceCollection</text>
<polygon fill="none" stroke="black" points="295,-1207 295,-1213 1370,-1213 1370,-1207 295,-1207"/>
<polygon fill="none" stroke="black" points="295,-1175 295,-1207 1370,-1207 1370,-1175 295,-1175"/>
<text text-anchor="start" x="300" y="-1195.6" font-family="Verdana" font-size="8.00">+ __construct(classRepository : Bartlett\CompatInfoDb\Domain\Repository\ClassRepository, constantRepository : Bartlett\CompatInfoDb\Domain\Repository\ConstantRepository, functionRepository : Bartlett\CompatInfoDb\Domain\Repository\FunctionRepository)</text>
<text text-anchor="start" x="300" y="-1182.6" font-family="Verdana" font-size="8.00">+ find(group : string, key : string, argc : int = 0, extra : string = «unknown») : array</text>
</g>
<!-- Bartlett\\CompatInfo\\Application\\Collection\\ReferenceCollectionInterface -->
<g id="node2" class="node">
<title>Bartlett\\CompatInfo\\Application\\Collection\\ReferenceCollectionInterface</title>
<polygon fill="#fefece" stroke="transparent" points="857,-941 465,-941 465,-894 857,-894 857,-941"/>
<polygon fill="#eeeeee" stroke="transparent" points="465,-918.5 465,-940.5 857,-940.5 857,-918.5 465,-918.5"/>
<polygon fill="none" stroke="black" points="465,-918.5 465,-940.5 857,-940.5 857,-918.5 465,-918.5"/>
<text text-anchor="start" x="635" y="-932.1" font-family="Verdana" font-weight="bold" font-size="8.00">«interface»</text>
<text text-anchor="start" x="595.5" y="-924.1" font-family="Verdana" font-weight="bold" font-size="8.00">ReferenceCollectionInterface</text>
<polygon fill="none" stroke="black" points="465,-912.5 465,-918.5 857,-918.5 857,-912.5 465,-912.5"/>
<polygon fill="none" stroke="black" points="465,-893.5 465,-912.5 857,-912.5 857,-893.5 465,-893.5"/>
<text text-anchor="start" x="470" y="-901.1" font-family="Verdana" font-size="8.00">+ «abstract» find(group : string, key : string, argc : int = 0, extra : string = «unknown») : array</text>
</g>
<!-- Bartlett\\CompatInfo\\Application\\Collection\\ReferenceCollection&#45;&gt;Bartlett\\CompatInfo\\Application\\Collection\\ReferenceCollectionInterface -->
<g id="edge9" class="edge">
<title>Bartlett\\CompatInfo\\Application\\Collection\\ReferenceCollection&#45;&gt;Bartlett\\CompatInfo\\Application\\Collection\\ReferenceCollectionInterface</title>
<path fill="none" stroke="black" stroke-dasharray="5,2" d="M814.5,-1174.79C782.17,-1120.8 713.32,-1005.86 679.94,-950.12"/>
<polygon fill="none" stroke="black" points="682.84,-948.16 674.7,-941.38 676.84,-951.76 682.84,-948.16"/>
</g>
<!-- Doctrine\\Common\\Collections\\AbstractLazyCollection -->
<g id="node5" class="node">
<title>Doctrine\\Common\\Collections\\AbstractLazyCollection</title>
<polygon fill="#fefece" stroke="transparent" points="259,-1136 101,-1136 101,-699 259,-699 259,-1136"/>
<polygon fill="#eeeeee" stroke="transparent" points="101,-1113.5 101,-1135.5 259,-1135.5 259,-1113.5 101,-1113.5"/>
<polygon fill="none" stroke="black" points="101,-1113.5 101,-1135.5 259,-1135.5 259,-1113.5 101,-1113.5"/>
<text text-anchor="start" x="156" y="-1127.1" font-family="Verdana" font-weight="bold" font-size="8.00">«abstract»</text>
<text text-anchor="start" x="128.5" y="-1119.1" font-family="Verdana" font-weight="bold" font-size="8.00">AbstractLazyCollection</text>
<polygon fill="none" stroke="black" points="101,-1107.5 101,-1113.5 259,-1113.5 259,-1107.5 101,-1107.5"/>
<polygon fill="none" stroke="black" points="101,-698.5 101,-1107.5 259,-1107.5 259,-698.5 101,-698.5"/>
<text text-anchor="start" x="106" y="-1096.1" font-family="Verdana" font-size="8.00">+ count()</text>
<text text-anchor="start" x="106" y="-1083.1" font-family="Verdana" font-size="8.00">+ add(element)</text>
<text text-anchor="start" x="106" y="-1070.1" font-family="Verdana" font-size="8.00">+ clear()</text>
<text text-anchor="start" x="106" y="-1057.1" font-family="Verdana" font-size="8.00">+ contains(element)</text>
<text text-anchor="start" x="106" y="-1044.1" font-family="Verdana" font-size="8.00">+ isEmpty()</text>
<text text-anchor="start" x="106" y="-1031.1" font-family="Verdana" font-size="8.00">+ remove(key)</text>
<text text-anchor="start" x="106" y="-1018.1" font-family="Verdana" font-size="8.00">+ removeElement(element)</text>
<text text-anchor="start" x="106" y="-1005.1" font-family="Verdana" font-size="8.00">+ containsKey(key)</text>
<text text-anchor="start" x="106" y="-992.1" font-family="Verdana" font-size="8.00">+ get(key)</text>
<text text-anchor="start" x="106" y="-979.1" font-family="Verdana" font-size="8.00">+ getKeys()</text>
<text text-anchor="start" x="106" y="-966.1" font-family="Verdana" font-size="8.00">+ getValues()</text>
<text text-anchor="start" x="106" y="-953.1" font-family="Verdana" font-size="8.00">+ set(key, value)</text>
<text text-anchor="start" x="106" y="-940.1" font-family="Verdana" font-size="8.00">+ toArray()</text>
<text text-anchor="start" x="106" y="-927.1" font-family="Verdana" font-size="8.00">+ first()</text>
<text text-anchor="start" x="106" y="-914.1" font-family="Verdana" font-size="8.00">+ last()</text>
<text text-anchor="start" x="106" y="-901.1" font-family="Verdana" font-size="8.00">+ key()</text>
<text text-anchor="start" x="106" y="-888.1" font-family="Verdana" font-size="8.00">+ current()</text>
<text text-anchor="start" x="106" y="-875.1" font-family="Verdana" font-size="8.00">+ next()</text>
<text text-anchor="start" x="106" y="-862.1" font-family="Verdana" font-size="8.00">+ exists(p : Closure)</text>
<text text-anchor="start" x="106" y="-849.1" font-family="Verdana" font-size="8.00">+ filter(p : Closure)</text>
<text text-anchor="start" x="106" y="-836.1" font-family="Verdana" font-size="8.00">+ forAll(p : Closure)</text>
<text text-anchor="start" x="106" y="-823.1" font-family="Verdana" font-size="8.00">+ map(func : Closure)</text>
<text text-anchor="start" x="106" y="-810.1" font-family="Verdana" font-size="8.00">+ partition(p : Closure)</text>
<text text-anchor="start" x="106" y="-797.1" font-family="Verdana" font-size="8.00">+ indexOf(element)</text>
<text text-anchor="start" x="106" y="-784.1" font-family="Verdana" font-size="8.00">+ slice(offset, length = «unknown»)</text>
<text text-anchor="start" x="106" y="-771.1" font-family="Verdana" font-size="8.00">+ getIterator()</text>
<text text-anchor="start" x="106" y="-758.1" font-family="Verdana" font-size="8.00">+ offsetExists(offset : TKey)</text>
<text text-anchor="start" x="106" y="-745.1" font-family="Verdana" font-size="8.00">+ offsetGet(offset : TKey)</text>
<text text-anchor="start" x="106" y="-732.1" font-family="Verdana" font-size="8.00">+ offsetSet(offset : mixed, value : T)</text>
<text text-anchor="start" x="106" y="-719.1" font-family="Verdana" font-size="8.00">+ offsetUnset(offset : TKey)</text>
<text text-anchor="start" x="106" y="-706.1" font-family="Verdana" font-size="8.00">+ isInitialized()</text>
</g>
<!-- Bartlett\\CompatInfo\\Application\\Collection\\ReferenceCollection&#45;&gt;Doctrine\\Common\\Collections\\AbstractLazyCollection -->
<g id="edge7" class="edge">
<title>Bartlett\\CompatInfo\\Application\\Collection\\ReferenceCollection&#45;&gt;Doctrine\\Common\\Collections\\AbstractLazyCollection</title>
<path fill="none" stroke="black" d="M302.12,-1174.95C292.85,-1172.51 285.98,-1169.87 282,-1167 272.56,-1160.2 263.99,-1152.37 256.22,-1143.77"/>
<polygon fill="none" stroke="black" points="258.75,-1141.34 249.58,-1136.02 253.43,-1145.89 258.75,-1141.34"/>
</g>
<!-- Doctrine\\Common\\Collections\\Collection -->
<g id="node6" class="node">
<title>Doctrine\\Common\\Collections\\Collection</title>
<polygon fill="#fefece" stroke="transparent" points="270.5,-663 67.5,-663 67.5,-538 270.5,-538 270.5,-663"/>
<polygon fill="#eeeeee" stroke="transparent" points="68,-640.5 68,-662.5 271,-662.5 271,-640.5 68,-640.5"/>
<polygon fill="none" stroke="black" points="68,-640.5 68,-662.5 271,-662.5 271,-640.5 68,-640.5"/>
<text text-anchor="start" x="143.5" y="-654.1" font-family="Verdana" font-weight="bold" font-size="8.00">«interface»</text>
<text text-anchor="start" x="146.5" y="-646.1" font-family="Verdana" font-weight="bold" font-size="8.00">Collection</text>
<polygon fill="none" stroke="black" points="68,-634.5 68,-640.5 271,-640.5 271,-634.5 68,-634.5"/>
<polygon fill="none" stroke="black" points="68,-537.5 68,-634.5 271,-634.5 271,-537.5 68,-537.5"/>
<text text-anchor="start" x="73" y="-623.1" font-family="Verdana" font-size="8.00">+ «abstract» add(element : mixed)</text>
<text text-anchor="start" x="73" y="-610.1" font-family="Verdana" font-size="8.00">+ «abstract» clear()</text>
<text text-anchor="start" x="73" y="-597.1" font-family="Verdana" font-size="8.00">+ «abstract» remove(key : mixed)</text>
<text text-anchor="start" x="73" y="-584.1" font-family="Verdana" font-size="8.00">+ «abstract» removeElement(element : mixed)</text>
<text text-anchor="start" x="73" y="-571.1" font-family="Verdana" font-size="8.00">+ «abstract» set(key : mixed, value : mixed)</text>
<text text-anchor="start" x="73" y="-558.1" font-family="Verdana" font-size="8.00">+ «abstract» filter(p : Closure)</text>
<text text-anchor="start" x="73" y="-545.1" font-family="Verdana" font-size="8.00">+ «abstract» partition(p : Closure)</text>
</g>
<!-- Bartlett\\CompatInfo\\Application\\Collection\\ReferenceCollectionInterface&#45;&gt;Doctrine\\Common\\Collections\\Collection -->
<g id="edge8" class="edge">
<title>Bartlett\\CompatInfo\\Application\\Collection\\ReferenceCollectionInterface&#45;&gt;Doctrine\\Common\\Collections\\Collection</title>
<path fill="none" stroke="black" stroke-dasharray="5,2" d="M625.62,-893.85C552.93,-847.31 384.33,-739.37 273.61,-668.47"/>
<polygon fill="none" stroke="black" points="275.38,-665.45 265.07,-663.01 271.61,-671.35 275.38,-665.45"/>
</g>
<!-- Bartlett\\CompatInfo\\Application\\Collection\\SniffCollection -->
<g id="node3" class="node">
<title>Bartlett\\CompatInfo\\Application\\Collection\\SniffCollection</title>
<polygon fill="#fefece" stroke="transparent" points="1520,-1235 1388,-1235 1388,-1175 1520,-1175 1520,-1235"/>
<polygon fill="#eeeeee" stroke="transparent" points="1388,-1213 1388,-1235 1520,-1235 1520,-1213 1388,-1213"/>
<polygon fill="none" stroke="black" points="1388,-1213 1388,-1235 1520,-1235 1520,-1213 1388,-1213"/>
<text text-anchor="start" x="1420.5" y="-1218.6" font-family="Verdana" font-weight="bold" font-size="8.00">SniffCollection</text>
<polygon fill="none" stroke="black" points="1388,-1207 1388,-1213 1520,-1213 1520,-1207 1388,-1207"/>
<polygon fill="none" stroke="black" points="1388,-1175 1388,-1207 1520,-1207 1520,-1175 1388,-1175"/>
<text text-anchor="start" x="1393" y="-1195.6" font-family="Verdana" font-size="8.00">+ __construct(sniffs : iterable)</text>
<text text-anchor="start" x="1393" y="-1182.6" font-family="Verdana" font-size="8.00">+ getIterator() : Traversable</text>
</g>
<!-- Bartlett\\CompatInfo\\Application\\Collection\\SniffCollectionInterface -->
<g id="node4" class="node">
<title>Bartlett\\CompatInfo\\Application\\Collection\\SniffCollectionInterface</title>
<polygon fill="#fefece" stroke="transparent" points="1250,-935.5 1136,-935.5 1136,-899.5 1250,-899.5 1250,-935.5"/>
<polygon fill="#eeeeee" stroke="transparent" points="1136,-912.5 1136,-934.5 1250,-934.5 1250,-912.5 1136,-912.5"/>
<polygon fill="none" stroke="black" points="1136,-912.5 1136,-934.5 1250,-934.5 1250,-912.5 1136,-912.5"/>
<text text-anchor="start" x="1167" y="-926.1" font-family="Verdana" font-weight="bold" font-size="8.00">«interface»</text>
<text text-anchor="start" x="1139" y="-918.1" font-family="Verdana" font-weight="bold" font-size="8.00">SniffCollectionInterface</text>
<polygon fill="none" stroke="black" points="1136,-906.5 1136,-912.5 1250,-912.5 1250,-906.5 1136,-906.5"/>
<polygon fill="none" stroke="black" points="1136,-900.5 1136,-906.5 1250,-906.5 1250,-900.5 1136,-900.5"/>
</g>
<!-- Bartlett\\CompatInfo\\Application\\Collection\\SniffCollection&#45;&gt;Bartlett\\CompatInfo\\Application\\Collection\\SniffCollectionInterface -->
<g id="edge11" class="edge">
<title>Bartlett\\CompatInfo\\Application\\Collection\\SniffCollection&#45;&gt;Bartlett\\CompatInfo\\Application\\Collection\\SniffCollectionInterface</title>
<path fill="none" stroke="black" stroke-dasharray="5,2" d="M1427.29,-1174.79C1375.76,-1118.42 1263.46,-995.58 1215.47,-943.08"/>
<polygon fill="none" stroke="black" points="1217.94,-940.59 1208.61,-935.58 1212.77,-945.32 1217.94,-940.59"/>
</g>
<!-- IteratorAggregate -->
<g id="node9" class="node">
<title>IteratorAggregate</title>
<polygon fill="#fefece" stroke="transparent" points="561,-154.5 445,-154.5 445,-107.5 561,-107.5 561,-154.5"/>
<polygon fill="#eeeeee" stroke="transparent" points="445,-132 445,-154 561,-154 561,-132 445,-132"/>
<polygon fill="none" stroke="black" points="445,-132 445,-154 561,-154 561,-132 445,-132"/>
<text text-anchor="start" x="477" y="-145.6" font-family="Verdana" font-weight="bold" font-size="8.00">«interface»</text>
<text text-anchor="start" x="462" y="-137.6" font-family="Verdana" font-weight="bold" font-size="8.00">IteratorAggregate</text>
<polygon fill="none" stroke="black" points="445,-126 445,-132 561,-132 561,-126 445,-126"/>
<polygon fill="none" stroke="black" points="445,-107 445,-126 561,-126 561,-107 445,-107"/>
<text text-anchor="start" x="450" y="-114.6" font-family="Verdana" font-size="8.00">+ «abstract» getIterator()</text>
</g>
<!-- Bartlett\\CompatInfo\\Application\\Collection\\SniffCollectionInterface&#45;&gt;IteratorAggregate -->
<g id="edge10" class="edge">
<title>Bartlett\\CompatInfo\\Application\\Collection\\SniffCollectionInterface&#45;&gt;IteratorAggregate</title>
<path fill="none" stroke="black" stroke-dasharray="5,2" d="M1177.95,-899.39C1090.11,-799.52 643.8,-292.08 529.63,-162.27"/>
<polygon fill="none" stroke="black" points="532.13,-159.82 522.9,-154.62 526.88,-164.44 532.13,-159.82"/>
</g>
<!-- Doctrine\\Common\\Collections\\AbstractLazyCollection&#45;&gt;Doctrine\\Common\\Collections\\Collection -->
<g id="edge6" class="edge">
<title>Doctrine\\Common\\Collections\\AbstractLazyCollection&#45;&gt;Doctrine\\Common\\Collections\\Collection</title>
<path fill="none" stroke="black" stroke-dasharray="5,2" d="M172.39,-698.58C172.08,-689.73 171.78,-681.18 171.5,-673.07"/>
<polygon fill="none" stroke="black" points="175,-672.91 171.15,-663.04 168,-673.15 175,-672.91"/>
</g>
<!-- Doctrine\\Common\\Collections\\ReadableCollection -->
<g id="node7" class="node">
<title>Doctrine\\Common\\Collections\\ReadableCollection</title>
<polygon fill="#fefece" stroke="transparent" points="270,-502 16,-502 16,-221 270,-221 270,-502"/>
<polygon fill="#eeeeee" stroke="transparent" points="16,-479.5 16,-501.5 270,-501.5 270,-479.5 16,-479.5"/>
<polygon fill="none" stroke="black" points="16,-479.5 16,-501.5 270,-501.5 270,-479.5 16,-479.5"/>
<text text-anchor="start" x="117" y="-493.1" font-family="Verdana" font-weight="bold" font-size="8.00">«interface»</text>
<text text-anchor="start" x="99" y="-485.1" font-family="Verdana" font-weight="bold" font-size="8.00">ReadableCollection</text>
<polygon fill="none" stroke="black" points="16,-473.5 16,-479.5 270,-479.5 270,-473.5 16,-473.5"/>
<polygon fill="none" stroke="black" points="16,-220.5 16,-473.5 270,-473.5 270,-220.5 16,-220.5"/>
<text text-anchor="start" x="21" y="-462.1" font-family="Verdana" font-size="8.00">+ «abstract» contains(element : mixed)</text>
<text text-anchor="start" x="21" y="-449.1" font-family="Verdana" font-size="8.00">+ «abstract» isEmpty()</text>
<text text-anchor="start" x="21" y="-436.1" font-family="Verdana" font-size="8.00">+ «abstract» containsKey(key : mixed)</text>
<text text-anchor="start" x="21" y="-423.1" font-family="Verdana" font-size="8.00">+ «abstract» get(key : mixed)</text>
<text text-anchor="start" x="21" y="-410.1" font-family="Verdana" font-size="8.00">+ «abstract» getKeys()</text>
<text text-anchor="start" x="21" y="-397.1" font-family="Verdana" font-size="8.00">+ «abstract» getValues()</text>
<text text-anchor="start" x="21" y="-384.1" font-family="Verdana" font-size="8.00">+ «abstract» toArray()</text>
<text text-anchor="start" x="21" y="-371.1" font-family="Verdana" font-size="8.00">+ «abstract» first()</text>
<text text-anchor="start" x="21" y="-358.1" font-family="Verdana" font-size="8.00">+ «abstract» last()</text>
<text text-anchor="start" x="21" y="-345.1" font-family="Verdana" font-size="8.00">+ «abstract» key()</text>
<text text-anchor="start" x="21" y="-332.1" font-family="Verdana" font-size="8.00">+ «abstract» current()</text>
<text text-anchor="start" x="21" y="-319.1" font-family="Verdana" font-size="8.00">+ «abstract» next()</text>
<text text-anchor="start" x="21" y="-306.1" font-family="Verdana" font-size="8.00">+ «abstract» slice(offset : int, length : mixed = «unknown»)</text>
<text text-anchor="start" x="21" y="-293.1" font-family="Verdana" font-size="8.00">+ «abstract» exists(p : Closure)</text>
<text text-anchor="start" x="21" y="-280.1" font-family="Verdana" font-size="8.00">+ «abstract» filter(p : Closure)</text>
<text text-anchor="start" x="21" y="-267.1" font-family="Verdana" font-size="8.00">+ «abstract» map(func : Closure)</text>
<text text-anchor="start" x="21" y="-254.1" font-family="Verdana" font-size="8.00">+ «abstract» partition(p : Closure)</text>
<text text-anchor="start" x="21" y="-241.1" font-family="Verdana" font-size="8.00">+ «abstract» forAll(p : Closure)</text>
<text text-anchor="start" x="21" y="-228.1" font-family="Verdana" font-size="8.00">+ «abstract» indexOf(element : mixed)</text>
</g>
<!-- Doctrine\\Common\\Collections\\Collection&#45;&gt;Doctrine\\Common\\Collections\\ReadableCollection -->
<g id="edge4" class="edge">
<title>Doctrine\\Common\\Collections\\Collection&#45;&gt;Doctrine\\Common\\Collections\\ReadableCollection</title>
<path fill="none" stroke="black" stroke-dasharray="5,2" d="M162.24,-537.85C161.35,-529.78 160.42,-521.25 159.45,-512.46"/>
<polygon fill="none" stroke="black" points="162.92,-512.01 158.35,-502.46 155.97,-512.78 162.92,-512.01"/>
</g>
<!-- ArrayAccess -->
<g id="node11" class="node">
<title>ArrayAccess</title>
<polygon fill="#fefece" stroke="transparent" points="427,-174 203,-174 203,-88 427,-88 427,-174"/>
<polygon fill="#eeeeee" stroke="transparent" points="203,-152 203,-174 427,-174 427,-152 203,-152"/>
<polygon fill="none" stroke="black" points="203,-152 203,-174 427,-174 427,-152 203,-152"/>
<text text-anchor="start" x="289" y="-165.6" font-family="Verdana" font-weight="bold" font-size="8.00">«interface»</text>
<text text-anchor="start" x="288" y="-157.6" font-family="Verdana" font-weight="bold" font-size="8.00">ArrayAccess</text>
<polygon fill="none" stroke="black" points="203,-146 203,-152 427,-152 427,-146 203,-146"/>
<polygon fill="none" stroke="black" points="203,-88 203,-146 427,-146 427,-88 203,-88"/>
<text text-anchor="start" x="208" y="-134.6" font-family="Verdana" font-size="8.00">+ «abstract» offsetExists(offset : mixed)</text>
<text text-anchor="start" x="208" y="-121.6" font-family="Verdana" font-size="8.00">+ «abstract» offsetGet(offset : mixed)</text>
<text text-anchor="start" x="208" y="-108.6" font-family="Verdana" font-size="8.00">+ «abstract» offsetSet(offset : mixed, value : mixed)</text>
<text text-anchor="start" x="208" y="-95.6" font-family="Verdana" font-size="8.00">+ «abstract» offsetUnset(offset : mixed)</text>
</g>
<!-- Doctrine\\Common\\Collections\\Collection&#45;&gt;ArrayAccess -->
<g id="edge5" class="edge">
<title>Doctrine\\Common\\Collections\\Collection&#45;&gt;ArrayAccess</title>
<path fill="none" stroke="black" stroke-dasharray="5,2" d="M253.1,-537.84C263.28,-526.98 272.4,-514.96 279,-502 331.47,-399.02 328.15,-259.06 321.42,-184.25"/>
<polygon fill="none" stroke="black" points="324.88,-183.76 320.45,-174.14 317.92,-184.43 324.88,-183.76"/>
</g>
<!-- Countable -->
<g id="node8" class="node">
<title>Countable</title>
<polygon fill="#fefece" stroke="transparent" points="184.5,-154.5 89.5,-154.5 89.5,-107.5 184.5,-107.5 184.5,-154.5"/>
<polygon fill="#eeeeee" stroke="transparent" points="90,-132 90,-154 185,-154 185,-132 90,-132"/>
<polygon fill="none" stroke="black" points="90,-132 90,-154 185,-154 185,-132 90,-132"/>
<text text-anchor="start" x="111.5" y="-145.6" font-family="Verdana" font-weight="bold" font-size="8.00">«interface»</text>
<text text-anchor="start" x="114" y="-137.6" font-family="Verdana" font-weight="bold" font-size="8.00">Countable</text>
<polygon fill="none" stroke="black" points="90,-126 90,-132 185,-132 185,-126 90,-126"/>
<polygon fill="none" stroke="black" points="90,-107 90,-126 185,-126 185,-107 90,-107"/>
<text text-anchor="start" x="95" y="-114.6" font-family="Verdana" font-size="8.00">+ «abstract» count()</text>
</g>
<!-- Doctrine\\Common\\Collections\\ReadableCollection&#45;&gt;Countable -->
<g id="edge1" class="edge">
<title>Doctrine\\Common\\Collections\\ReadableCollection&#45;&gt;Countable</title>
<path fill="none" stroke="black" stroke-dasharray="5,2" d="M139.34,-221C138.79,-200.01 138.27,-180.22 137.86,-164.65"/>
<polygon fill="none" stroke="black" points="141.35,-164.5 137.59,-154.59 134.36,-164.68 141.35,-164.5"/>
</g>
<!-- Doctrine\\Common\\Collections\\ReadableCollection&#45;&gt;IteratorAggregate -->
<g id="edge3" class="edge">
<title>Doctrine\\Common\\Collections\\ReadableCollection&#45;&gt;IteratorAggregate</title>
<path fill="none" stroke="black" stroke-dasharray="5,2" d="M270.2,-304.8C323.9,-278.37 385.54,-244.01 436,-205 451.81,-192.78 467.08,-176.61 479.03,-162.6"/>
<polygon fill="none" stroke="black" points="481.95,-164.56 485.66,-154.64 476.57,-160.08 481.95,-164.56"/>
</g>
<!-- Traversable -->
<g id="node10" class="node">
<title>Traversable</title>
<polygon fill="#fefece" stroke="transparent" points="532,-52 474,-52 474,-16 532,-16 532,-52"/>
<polygon fill="#eeeeee" stroke="transparent" points="474,-29 474,-51 532,-51 532,-29 474,-29"/>
<polygon fill="none" stroke="black" points="474,-29 474,-51 532,-51 532,-29 474,-29"/>
<text text-anchor="start" x="477" y="-42.6" font-family="Verdana" font-weight="bold" font-size="8.00">«interface»</text>
<text text-anchor="start" x="477" y="-34.6" font-family="Verdana" font-weight="bold" font-size="8.00">Traversable</text>
<polygon fill="none" stroke="black" points="474,-23 474,-29 532,-29 532,-23 474,-23"/>
<polygon fill="none" stroke="black" points="474,-17 474,-23 532,-23 532,-17 474,-17"/>
</g>
<!-- IteratorAggregate&#45;&gt;Traversable -->
<g id="edge2" class="edge">
<title>IteratorAggregate&#45;&gt;Traversable</title>
<path fill="none" stroke="black" stroke-dasharray="5,2" d="M503,-107.49C503,-93.93 503,-76.58 503,-62.26"/>
<polygon fill="none" stroke="black" points="506.5,-62 503,-52 499.5,-62 506.5,-62"/>
</g>
</g>
</svg>
