<?xml version="1.0" encoding="UTF-8" standalone="no"?>
<!DOCTYPE svg PUBLIC "-//W3C//DTD SVG 1.1//EN"
 "http://www.w3.org/Graphics/SVG/1.1/DTD/svg11.dtd">
<!-- Generated by graphviz version 2.43.0 (0)
 -->
<!-- Title: %3 Pages: 1 -->
<svg width="728pt" height="547pt"
 viewBox="0.00 0.00 728.00 547.00" xmlns="http://www.w3.org/2000/svg" xmlns:xlink="http://www.w3.org/1999/xlink">
<g id="graph0" class="graph" transform="scale(1 1) rotate(0) translate(4 543)">
<title>%3</title>
<g id="clust1" class="cluster">
<title>cluster_0</title>
<polygon fill="BurlyWood" stroke="black" points="8,-393 8,-531 712,-531 712,-393 8,-393"/>
<text text-anchor="middle" x="360" y="-515.8" font-family="Times,serif" font-size="14.00">Bartlett\CompatInfo\Application\Logger</text>
</g>
<g id="clust2" class="cluster">
<title>cluster_1</title>
<polygon fill="transparent" stroke="black" points="194,-8 194,-385 526,-385 526,-8 194,-8"/>
<text text-anchor="middle" x="360" y="-369.8" font-family="Times,serif" font-size="14.00">Psr\Log</text>
</g>
<!-- Bartlett\\CompatInfo\\Application\\Logger\\DefaultLogger -->
<g id="node1" class="node">
<title>Bartlett\\CompatInfo\\Application\\Logger\\DefaultLogger</title>
<polygon fill="#fefece" stroke="transparent" points="703.5,-500 16.5,-500 16.5,-401 703.5,-401 703.5,-500"/>
<polygon fill="#eeeeee" stroke="transparent" points="17,-477.5 17,-499.5 704,-499.5 704,-477.5 17,-477.5"/>
<polygon fill="none" stroke="black" points="17,-477.5 17,-499.5 704,-499.5 704,-477.5 17,-477.5"/>
<text text-anchor="start" x="327.5" y="-483.1" font-family="Verdana" font-weight="bold" font-size="8.00">DefaultLogger</text>
<polygon fill="none" stroke="black" points="17,-471.5 17,-477.5 704,-477.5 704,-471.5 17,-471.5"/>
<polygon fill="none" stroke="black" points="17,-400.5 17,-471.5 704,-471.5 704,-400.5 17,-400.5"/>
<text text-anchor="start" x="22" y="-460.1" font-family="Verdana" font-size="8.00">+ __construct(stream : string, name : string = &#39;DefaultLoggerChannel&#39;, level : string = Psr\Log\LogLevel\:\:INFO, handler : object = «unknown», processors : array = [])</text>
<text text-anchor="start" x="22" y="-447.1" font-family="Verdana" font-size="8.00">+ isHandling(record : array) : bool</text>
<text text-anchor="start" x="22" y="-434.1" font-family="Verdana" font-size="8.00">+ log(level, message, context : array = []) : void</text>
<text text-anchor="start" x="22" y="-421.1" font-family="Verdana" font-size="8.00">+ handle(record : array) : void</text>
<text text-anchor="start" x="22" y="-408.1" font-family="Verdana" font-size="8.00">+ interpolate(record : array) : array</text>
</g>
<!-- Psr\\Log\\AbstractLogger -->
<g id="node2" class="node">
<title>Psr\\Log\\AbstractLogger</title>
<polygon fill="#fefece" stroke="transparent" points="518,-354 202,-354 202,-203 518,-203 518,-354"/>
<polygon fill="#eeeeee" stroke="transparent" points="202,-331.5 202,-353.5 518,-353.5 518,-331.5 202,-331.5"/>
<polygon fill="none" stroke="black" points="202,-331.5 202,-353.5 518,-353.5 518,-331.5 202,-331.5"/>
<text text-anchor="start" x="336" y="-345.1" font-family="Verdana" font-weight="bold" font-size="8.00">«abstract»</text>
<text text-anchor="start" x="325" y="-337.1" font-family="Verdana" font-weight="bold" font-size="8.00">AbstractLogger</text>
<polygon fill="none" stroke="black" points="202,-325.5 202,-331.5 518,-331.5 518,-325.5 202,-325.5"/>
<polygon fill="none" stroke="black" points="202,-202.5 202,-325.5 518,-325.5 518,-202.5 202,-202.5"/>
<text text-anchor="start" x="207" y="-314.1" font-family="Verdana" font-size="8.00">+ emergency(message : mixed, context : array = []) : void</text>
<text text-anchor="start" x="207" y="-301.1" font-family="Verdana" font-size="8.00">+ alert(message : mixed, context : array = []) : void</text>
<text text-anchor="start" x="207" y="-288.1" font-family="Verdana" font-size="8.00">+ critical(message : mixed, context : array = []) : void</text>
<text text-anchor="start" x="207" y="-275.1" font-family="Verdana" font-size="8.00">+ error(message : mixed, context : array = []) : void</text>
<text text-anchor="start" x="207" y="-262.1" font-family="Verdana" font-size="8.00">+ warning(message : mixed, context : array = []) : void</text>
<text text-anchor="start" x="207" y="-249.1" font-family="Verdana" font-size="8.00">+ notice(message : mixed, context : array = []) : void</text>
<text text-anchor="start" x="207" y="-236.1" font-family="Verdana" font-size="8.00">+ info(message : mixed, context : array = []) : void</text>
<text text-anchor="start" x="207" y="-223.1" font-family="Verdana" font-size="8.00">+ debug(message : mixed, context : array = []) : void</text>
<text text-anchor="start" x="207" y="-210.1" font-family="Verdana" font-size="8.00">+ «abstract» log(level : mixed, message : mixed, context : array = []) : void</text>
</g>
<!-- Bartlett\\CompatInfo\\Application\\Logger\\DefaultLogger&#45;&gt;Psr\\Log\\AbstractLogger -->
<g id="edge2" class="edge">
<title>Bartlett\\CompatInfo\\Application\\Logger\\DefaultLogger&#45;&gt;Psr\\Log\\AbstractLogger</title>
<path fill="none" stroke="black" d="M360,-400.78C360,-389.33 360,-376.79 360,-364.25"/>
<polygon fill="none" stroke="black" points="363.5,-364.22 360,-354.22 356.5,-364.22 363.5,-364.22"/>
</g>
<!-- Psr\\Log\\LoggerInterface -->
<g id="node3" class="node">
<title>Psr\\Log\\LoggerInterface</title>
<polygon fill="#fefece" stroke="transparent" points="518,-167 202,-167 202,-16 518,-16 518,-167"/>
<polygon fill="#eeeeee" stroke="transparent" points="202,-144.5 202,-166.5 518,-166.5 518,-144.5 202,-144.5"/>
<polygon fill="none" stroke="black" points="202,-144.5 202,-166.5 518,-166.5 518,-144.5 202,-144.5"/>
<text text-anchor="start" x="334" y="-158.1" font-family="Verdana" font-weight="bold" font-size="8.00">«interface»</text>
<text text-anchor="start" x="323.5" y="-150.1" font-family="Verdana" font-weight="bold" font-size="8.00">LoggerInterface</text>
<polygon fill="none" stroke="black" points="202,-138.5 202,-144.5 518,-144.5 518,-138.5 202,-138.5"/>
<polygon fill="none" stroke="black" points="202,-15.5 202,-138.5 518,-138.5 518,-15.5 202,-15.5"/>
<text text-anchor="start" x="207" y="-127.1" font-family="Verdana" font-size="8.00">+ «abstract» emergency(message : mixed, context : array = []) : void</text>
<text text-anchor="start" x="207" y="-114.1" font-family="Verdana" font-size="8.00">+ «abstract» alert(message : mixed, context : array = []) : void</text>
<text text-anchor="start" x="207" y="-101.1" font-family="Verdana" font-size="8.00">+ «abstract» critical(message : mixed, context : array = []) : void</text>
<text text-anchor="start" x="207" y="-88.1" font-family="Verdana" font-size="8.00">+ «abstract» error(message : mixed, context : array = []) : void</text>
<text text-anchor="start" x="207" y="-75.1" font-family="Verdana" font-size="8.00">+ «abstract» warning(message : mixed, context : array = []) : void</text>
<text text-anchor="start" x="207" y="-62.1" font-family="Verdana" font-size="8.00">+ «abstract» notice(message : mixed, context : array = []) : void</text>
<text text-anchor="start" x="207" y="-49.1" font-family="Verdana" font-size="8.00">+ «abstract» info(message : mixed, context : array = []) : void</text>
<text text-anchor="start" x="207" y="-36.1" font-family="Verdana" font-size="8.00">+ «abstract» debug(message : mixed, context : array = []) : void</text>
<text text-anchor="start" x="207" y="-23.1" font-family="Verdana" font-size="8.00">+ «abstract» log(level : mixed, message : mixed, context : array = []) : void</text>
</g>
<!-- Psr\\Log\\AbstractLogger&#45;&gt;Psr\\Log\\LoggerInterface -->
<g id="edge1" class="edge">
<title>Psr\\Log\\AbstractLogger&#45;&gt;Psr\\Log\\LoggerInterface</title>
<path fill="none" stroke="black" stroke-dasharray="5,2" d="M360,-202.79C360,-194.45 360,-185.9 360,-177.45"/>
<polygon fill="none" stroke="black" points="363.5,-177.19 360,-167.19 356.5,-177.19 363.5,-177.19"/>
</g>
</g>
</svg>
