<?xml version="1.0" encoding="UTF-8" standalone="no"?>
<!DOCTYPE svg PUBLIC "-//W3C//DTD SVG 1.1//EN"
 "http://www.w3.org/Graphics/SVG/1.1/DTD/svg11.dtd">
<!-- Generated by graphviz version 2.43.0 (0)
 -->
<!-- Title: %3 Pages: 1 -->
<svg width="1252pt" height="2395pt"
 viewBox="0.00 0.00 1252.08 2395.00" xmlns="http://www.w3.org/2000/svg" xmlns:xlink="http://www.w3.org/1999/xlink">
<g id="graph0" class="graph" transform="scale(1 1) rotate(0) translate(4 2391)">
<title>%3</title>
<polygon fill="white" stroke="transparent" points="-4,4 -4,-2391 1248.08,-2391 1248.08,4 -4,4"/>
<!-- bartlett/php&#45;compatinfo -->
<g id="node1" class="node">
<title>bartlett/php&#45;compatinfo</title>
<ellipse fill="lightgrey" stroke="black" stroke-width="2" cx="121.54" cy="-1290" rx="121.58" ry="18"/>
<text text-anchor="middle" x="121.54" y="-1286.3" font-family="Times,serif" font-size="14.00">bartlett/php&#45;compatinfo</text>
</g>
<!-- php -->
<g id="node2" class="node">
<title>php</title>
<path fill="#eeeeee" stroke="black" d="M1232.08,-1250C1232.08,-1250 1202.08,-1250 1202.08,-1250 1196.08,-1250 1190.08,-1244 1190.08,-1238 1190.08,-1238 1190.08,-1226 1190.08,-1226 1190.08,-1220 1196.08,-1214 1202.08,-1214 1202.08,-1214 1232.08,-1214 1232.08,-1214 1238.08,-1214 1244.08,-1220 1244.08,-1226 1244.08,-1226 1244.08,-1238 1244.08,-1238 1244.08,-1244 1238.08,-1250 1232.08,-1250"/>
<text text-anchor="middle" x="1217.08" y="-1228.3" font-family="Times,serif" font-size="14.00" fill="#314b5f">php</text>
</g>
<!-- bartlett/php&#45;compatinfo&#45;&gt;php -->
<g id="edge1" class="edge">
<title>bartlett/php&#45;compatinfo&#45;&gt;php</title>
<path fill="none" stroke="#1a2833" d="M122.2,-1308.05C120.32,-1429.4 116.01,-2125.77 261.08,-2262 400.74,-2393.16 965.34,-2417.19 1122.08,-2307 1175.79,-2269.24 1159.28,-2232.39 1172.08,-2168 1207.88,-1987.79 1214.76,-1396.88 1215.88,-1260.33"/>
<polygon fill="#1a2833" stroke="#1a2833" points="1219.38,-1260.28 1215.96,-1250.26 1212.38,-1260.23 1219.38,-1260.28"/>
<text text-anchor="middle" x="737.58" y="-2379" font-family="Times,serif" font-size="10.00" fill="#767676">~8.0 || ~8.1 || ~8.2 || ~8.3</text>
</g>
<!-- ext&#45;json -->
<g id="node3" class="node">
<title>ext&#45;json</title>
<path fill="#eeeeee" stroke="black" d="M1001.08,-1351C1001.08,-1351 952.08,-1351 952.08,-1351 946.08,-1351 940.08,-1345 940.08,-1339 940.08,-1339 940.08,-1327 940.08,-1327 940.08,-1321 946.08,-1315 952.08,-1315 952.08,-1315 1001.08,-1315 1001.08,-1315 1007.08,-1315 1013.08,-1321 1013.08,-1327 1013.08,-1327 1013.08,-1339 1013.08,-1339 1013.08,-1345 1007.08,-1351 1001.08,-1351"/>
<text text-anchor="middle" x="976.58" y="-1329.3" font-family="Times,serif" font-size="14.00" fill="#314b5f">ext&#45;json</text>
</g>
<!-- bartlett/php&#45;compatinfo&#45;&gt;ext&#45;json -->
<g id="edge2" class="edge">
<title>bartlett/php&#45;compatinfo&#45;&gt;ext&#45;json</title>
<path fill="none" stroke="#1a2833" d="M237.14,-1295.78C427.37,-1305.37 800.24,-1324.16 929.87,-1330.7"/>
<polygon fill="#1a2833" stroke="#1a2833" points="929.69,-1334.19 939.86,-1331.2 930.05,-1327.2 929.69,-1334.19"/>
<text text-anchor="middle" x="508.58" y="-1318" font-family="Times,serif" font-size="10.00" fill="#767676">*</text>
</g>
<!-- ext&#45;pcre -->
<g id="node4" class="node">
<title>ext&#45;pcre</title>
<path fill="#eeeeee" stroke="black" d="M1002.08,-2248C1002.08,-2248 951.08,-2248 951.08,-2248 945.08,-2248 939.08,-2242 939.08,-2236 939.08,-2236 939.08,-2224 939.08,-2224 939.08,-2218 945.08,-2212 951.08,-2212 951.08,-2212 1002.08,-2212 1002.08,-2212 1008.08,-2212 1014.08,-2218 1014.08,-2224 1014.08,-2224 1014.08,-2236 1014.08,-2236 1014.08,-2242 1008.08,-2248 1002.08,-2248"/>
<text text-anchor="middle" x="976.58" y="-2226.3" font-family="Times,serif" font-size="14.00" fill="#314b5f">ext&#45;pcre</text>
</g>
<!-- bartlett/php&#45;compatinfo&#45;&gt;ext&#45;pcre -->
<g id="edge3" class="edge">
<title>bartlett/php&#45;compatinfo&#45;&gt;ext&#45;pcre</title>
<path fill="none" stroke="#1a2833" d="M122.42,-1308.19C122.79,-1404.06 137.4,-1855.02 373.08,-2087 469.05,-2181.46 531.11,-2146.68 662.08,-2178 711.92,-2189.92 854.5,-2211.92 928.99,-2223.1"/>
<polygon fill="#1a2833" stroke="#1a2833" points="928.62,-2226.58 939.03,-2224.6 929.66,-2219.66 928.62,-2226.58"/>
<text text-anchor="middle" x="508.58" y="-2176" font-family="Times,serif" font-size="10.00" fill="#767676">*</text>
</g>
<!-- ext&#45;spl -->
<g id="node5" class="node">
<title>ext&#45;spl</title>
<path fill="#eeeeee" stroke="black" d="M997.08,-2194C997.08,-2194 956.08,-2194 956.08,-2194 950.08,-2194 944.08,-2188 944.08,-2182 944.08,-2182 944.08,-2170 944.08,-2170 944.08,-2164 950.08,-2158 956.08,-2158 956.08,-2158 997.08,-2158 997.08,-2158 1003.08,-2158 1009.08,-2164 1009.08,-2170 1009.08,-2170 1009.08,-2182 1009.08,-2182 1009.08,-2188 1003.08,-2194 997.08,-2194"/>
<text text-anchor="middle" x="976.58" y="-2172.3" font-family="Times,serif" font-size="14.00" fill="#314b5f">ext&#45;spl</text>
</g>
<!-- bartlett/php&#45;compatinfo&#45;&gt;ext&#45;spl -->
<g id="edge4" class="edge">
<title>bartlett/php&#45;compatinfo&#45;&gt;ext&#45;spl</title>
<path fill="none" stroke="#1a2833" d="M126.56,-1308.2C139.49,-1364.27 183.77,-1538.03 261.08,-1662 398.16,-1881.81 434.46,-1961.32 662.08,-2085 722.05,-2117.59 758.55,-2071.95 813.08,-2113 827.37,-2123.76 816.79,-2138.23 831.08,-2149 860.47,-2171.15 902.59,-2176.92 933.79,-2177.72"/>
<polygon fill="#1a2833" stroke="#1a2833" points="933.88,-2181.23 943.91,-2177.82 933.95,-2174.23 933.88,-2181.23"/>
<text text-anchor="middle" x="508.58" y="-2075" font-family="Times,serif" font-size="10.00" fill="#767676">*</text>
</g>
<!-- bartlett/php&#45;compatinfo&#45;db -->
<g id="node6" class="node">
<title>bartlett/php&#45;compatinfo&#45;db</title>
<path fill="#eeeeee" stroke="black" d="M623.58,-1715C623.58,-1715 393.58,-1715 393.58,-1715 387.58,-1715 381.58,-1709 381.58,-1703 381.58,-1703 381.58,-1691 381.58,-1691 381.58,-1685 387.58,-1679 393.58,-1679 393.58,-1679 623.58,-1679 623.58,-1679 629.58,-1679 635.58,-1685 635.58,-1691 635.58,-1691 635.58,-1703 635.58,-1703 635.58,-1709 629.58,-1715 623.58,-1715"/>
<text text-anchor="middle" x="508.58" y="-1693.3" font-family="Times,serif" font-size="14.00" fill="#314b5f">bartlett/php&#45;compatinfo&#45;db: 6.5.0</text>
</g>
<!-- bartlett/php&#45;compatinfo&#45;&gt;bartlett/php&#45;compatinfo&#45;db -->
<g id="edge25" class="edge">
<title>bartlett/php&#45;compatinfo&#45;&gt;bartlett/php&#45;compatinfo&#45;db</title>
<path fill="none" stroke="#1a2833" d="M126.34,-1308.29C137.79,-1359.12 176.5,-1503.82 261.08,-1587 305.9,-1631.08 371.44,-1659.17 423.67,-1675.92"/>
<polygon fill="#1a2833" stroke="#1a2833" points="422.67,-1679.28 433.26,-1678.92 424.76,-1672.59 422.67,-1679.28"/>
<text text-anchor="middle" x="308.08" y="-1650" font-family="Times,serif" font-size="10.00" fill="#767676">^5.12 || ^6.4.2</text>
</g>
<!-- composer&#45;runtime&#45;api -->
<g id="node7" class="node">
<title>composer&#45;runtime&#45;api</title>
<path fill="#eeeeee" stroke="black" d="M1051.08,-670C1051.08,-670 902.08,-670 902.08,-670 896.08,-670 890.08,-664 890.08,-658 890.08,-658 890.08,-646 890.08,-646 890.08,-640 896.08,-634 902.08,-634 902.08,-634 1051.08,-634 1051.08,-634 1057.08,-634 1063.08,-640 1063.08,-646 1063.08,-646 1063.08,-658 1063.08,-658 1063.08,-664 1057.08,-670 1051.08,-670"/>
<text text-anchor="middle" x="976.58" y="-648.3" font-family="Times,serif" font-size="14.00" fill="#314b5f">composer&#45;runtime&#45;api</text>
</g>
<!-- bartlett/php&#45;compatinfo&#45;&gt;composer&#45;runtime&#45;api -->
<g id="edge31" class="edge">
<title>bartlett/php&#45;compatinfo&#45;&gt;composer&#45;runtime&#45;api</title>
<path fill="none" stroke="#1a2833" d="M122.79,-1271.86C125.14,-1184.84 148.33,-809.4 373.08,-687 460.29,-639.5 720.26,-573.71 813.08,-609 823.08,-612.8 821.47,-620.29 831.08,-625 846.21,-632.42 863.15,-637.8 879.96,-641.71"/>
<polygon fill="#1a2833" stroke="#1a2833" points="879.32,-645.16 889.83,-643.85 880.8,-638.31 879.32,-645.16"/>
<text text-anchor="middle" x="508.58" y="-690" font-family="Times,serif" font-size="10.00" fill="#767676">^2.1</text>
</g>
<!-- symfony/config -->
<g id="node14" class="node">
<title>symfony/config</title>
<path fill="#eeeeee" stroke="black" d="M1053.08,-778C1053.08,-778 900.08,-778 900.08,-778 894.08,-778 888.08,-772 888.08,-766 888.08,-766 888.08,-754 888.08,-754 888.08,-748 894.08,-742 900.08,-742 900.08,-742 1053.08,-742 1053.08,-742 1059.08,-742 1065.08,-748 1065.08,-754 1065.08,-754 1065.08,-766 1065.08,-766 1065.08,-772 1059.08,-778 1053.08,-778"/>
<text text-anchor="middle" x="976.58" y="-756.3" font-family="Times,serif" font-size="14.00" fill="#314b5f">symfony/config: v6.4.6</text>
</g>
<!-- bartlett/php&#45;compatinfo&#45;&gt;symfony/config -->
<g id="edge47" class="edge">
<title>bartlett/php&#45;compatinfo&#45;&gt;symfony/config</title>
<path fill="none" stroke="#1a2833" d="M124.76,-1271.63C132.65,-1213.66 164.27,-1032.1 261.08,-925 338.47,-839.37 647.41,-797.68 662.08,-795 733.78,-781.88 815.66,-772.95 877.76,-767.39"/>
<polygon fill="#1a2833" stroke="#1a2833" points="878.28,-770.85 887.94,-766.49 877.67,-763.88 878.28,-770.85"/>
<text text-anchor="middle" x="508.58" y="-864" font-family="Times,serif" font-size="10.00" fill="#767676">^5.4 || ^6.0 || ^7.0</text>
</g>
<!-- symfony/console -->
<g id="node15" class="node">
<title>symfony/console</title>
<path fill="#eeeeee" stroke="black" d="M1058.58,-1553C1058.58,-1553 894.58,-1553 894.58,-1553 888.58,-1553 882.58,-1547 882.58,-1541 882.58,-1541 882.58,-1529 882.58,-1529 882.58,-1523 888.58,-1517 894.58,-1517 894.58,-1517 1058.58,-1517 1058.58,-1517 1064.58,-1517 1070.58,-1523 1070.58,-1529 1070.58,-1529 1070.58,-1541 1070.58,-1541 1070.58,-1547 1064.58,-1553 1058.58,-1553"/>
<text text-anchor="middle" x="976.58" y="-1531.3" font-family="Times,serif" font-size="14.00" fill="#314b5f">symfony/console: v6.4.6</text>
</g>
<!-- bartlett/php&#45;compatinfo&#45;&gt;symfony/console -->
<g id="edge48" class="edge">
<title>bartlett/php&#45;compatinfo&#45;&gt;symfony/console</title>
<path fill="none" stroke="#1a2833" d="M134.87,-1308.24C156.75,-1339.25 205.33,-1402.36 261.08,-1438 360.23,-1501.38 699.1,-1523.98 872.12,-1531.52"/>
<polygon fill="#1a2833" stroke="#1a2833" points="872.12,-1535.02 882.26,-1531.95 872.42,-1528.03 872.12,-1535.02"/>
<text text-anchor="middle" x="508.58" y="-1519" font-family="Times,serif" font-size="10.00" fill="#767676">^5.4 || ^6.0 || ^7.0</text>
</g>
<!-- symfony/dependency&#45;injection -->
<g id="node16" class="node">
<title>symfony/dependency&#45;injection</title>
<path fill="#eeeeee" stroke="black" d="M1107.58,-724C1107.58,-724 845.58,-724 845.58,-724 839.58,-724 833.58,-718 833.58,-712 833.58,-712 833.58,-700 833.58,-700 833.58,-694 839.58,-688 845.58,-688 845.58,-688 1107.58,-688 1107.58,-688 1113.58,-688 1119.58,-694 1119.58,-700 1119.58,-700 1119.58,-712 1119.58,-712 1119.58,-718 1113.58,-724 1107.58,-724"/>
<text text-anchor="middle" x="976.58" y="-702.3" font-family="Times,serif" font-size="14.00" fill="#314b5f">symfony/dependency&#45;injection: v6.4.6</text>
</g>
<!-- bartlett/php&#45;compatinfo&#45;&gt;symfony/dependency&#45;injection -->
<g id="edge52" class="edge">
<title>bartlett/php&#45;compatinfo&#45;&gt;symfony/dependency&#45;injection</title>
<path fill="none" stroke="#1a2833" d="M124.52,-1271.69C132.04,-1209.3 163.51,-1001.39 261.08,-866 297.3,-815.73 317.44,-810.26 373.08,-783 551.65,-695.52 614.25,-699.55 813.08,-702 816.39,-702.04 819.75,-702.09 823.13,-702.14"/>
<polygon fill="#1a2833" stroke="#1a2833" points="823.29,-705.64 833.34,-702.3 823.4,-698.64 823.29,-705.64"/>
<text text-anchor="middle" x="508.58" y="-786" font-family="Times,serif" font-size="10.00" fill="#767676">^5.4 || ^6.0 || ^7.0</text>
</g>
<!-- symfony/event&#45;dispatcher -->
<g id="node17" class="node">
<title>symfony/event&#45;dispatcher</title>
<path fill="#eeeeee" stroke="black" d="M1091.58,-832C1091.58,-832 861.58,-832 861.58,-832 855.58,-832 849.58,-826 849.58,-820 849.58,-820 849.58,-808 849.58,-808 849.58,-802 855.58,-796 861.58,-796 861.58,-796 1091.58,-796 1091.58,-796 1097.58,-796 1103.58,-802 1103.58,-808 1103.58,-808 1103.58,-820 1103.58,-820 1103.58,-826 1097.58,-832 1091.58,-832"/>
<text text-anchor="middle" x="976.58" y="-810.3" font-family="Times,serif" font-size="14.00" fill="#314b5f">symfony/event&#45;dispatcher: v6.4.3</text>
</g>
<!-- bartlett/php&#45;compatinfo&#45;&gt;symfony/event&#45;dispatcher -->
<g id="edge49" class="edge">
<title>bartlett/php&#45;compatinfo&#45;&gt;symfony/event&#45;dispatcher</title>
<path fill="none" stroke="#1a2833" d="M127.95,-1271.77C147.92,-1208.26 224.12,-996.26 373.08,-916 459.87,-869.23 724.61,-902.52 813.08,-859 823.23,-854.01 821.07,-846.28 831.08,-841 834.6,-839.15 838.22,-837.42 841.93,-835.8"/>
<polygon fill="#1a2833" stroke="#1a2833" points="843.33,-839.02 851.3,-832.04 840.71,-832.52 843.33,-839.02"/>
<text text-anchor="middle" x="508.58" y="-919" font-family="Times,serif" font-size="10.00" fill="#767676">^5.4 || ^6.0 || ^7.0</text>
</g>
<!-- symfony/stopwatch -->
<g id="node22" class="node">
<title>symfony/stopwatch</title>
<path fill="#eeeeee" stroke="black" d="M1068.58,-1607C1068.58,-1607 884.58,-1607 884.58,-1607 878.58,-1607 872.58,-1601 872.58,-1595 872.58,-1595 872.58,-1583 872.58,-1583 872.58,-1577 878.58,-1571 884.58,-1571 884.58,-1571 1068.58,-1571 1068.58,-1571 1074.58,-1571 1080.58,-1577 1080.58,-1583 1080.58,-1583 1080.58,-1595 1080.58,-1595 1080.58,-1601 1074.58,-1607 1068.58,-1607"/>
<text text-anchor="middle" x="976.58" y="-1585.3" font-family="Times,serif" font-size="14.00" fill="#314b5f">symfony/stopwatch: v6.4.3</text>
</g>
<!-- bartlett/php&#45;compatinfo&#45;&gt;symfony/stopwatch -->
<g id="edge57" class="edge">
<title>bartlett/php&#45;compatinfo&#45;&gt;symfony/stopwatch</title>
<path fill="none" stroke="#1a2833" d="M132.96,-1307.95C153.74,-1342.56 203.36,-1419.5 261.08,-1469 304.27,-1506.04 318.74,-1514.13 373.08,-1531 537.8,-1582.15 738.97,-1591.55 862.14,-1591.71"/>
<polygon fill="#1a2833" stroke="#1a2833" points="862.34,-1595.21 872.34,-1591.71 862.34,-1588.21 862.34,-1595.21"/>
<text text-anchor="middle" x="508.58" y="-1584" font-family="Times,serif" font-size="10.00" fill="#767676">^5.4 || ^6.0 || ^7.0</text>
</g>
<!-- bartlett/sarif&#45;php&#45;sdk -->
<g id="node23" class="node">
<title>bartlett/sarif&#45;php&#45;sdk</title>
<path fill="#eeeeee" stroke="black" d="M603.08,-2257C603.08,-2257 414.08,-2257 414.08,-2257 408.08,-2257 402.08,-2251 402.08,-2245 402.08,-2245 402.08,-2233 402.08,-2233 402.08,-2227 408.08,-2221 414.08,-2221 414.08,-2221 603.08,-2221 603.08,-2221 609.08,-2221 615.08,-2227 615.08,-2233 615.08,-2233 615.08,-2245 615.08,-2245 615.08,-2251 609.08,-2257 603.08,-2257"/>
<text text-anchor="middle" x="508.58" y="-2235.3" font-family="Times,serif" font-size="14.00" fill="#314b5f">bartlett/sarif&#45;php&#45;sdk: 1.1.0</text>
</g>
<!-- bartlett/php&#45;compatinfo&#45;&gt;bartlett/sarif&#45;php&#45;sdk -->
<g id="edge30" class="edge">
<title>bartlett/php&#45;compatinfo&#45;&gt;bartlett/sarif&#45;php&#45;sdk</title>
<path fill="none" stroke="#1a2833" d="M122.46,-1308.05C122.32,-1424.99 127.61,-2074.78 261.08,-2206 295,-2239.35 345.37,-2250.1 391.76,-2251.54"/>
<polygon fill="#1a2833" stroke="#1a2833" points="391.84,-2255.04 401.9,-2251.71 391.96,-2248.04 391.84,-2255.04"/>
<text text-anchor="middle" x="308.08" y="-2250" font-family="Times,serif" font-size="10.00" fill="#767676">^1.0</text>
</g>
<!-- doctrine/collections -->
<g id="node24" class="node">
<title>doctrine/collections</title>
<path fill="#eeeeee" stroke="black" d="M597.08,-1466C597.08,-1466 420.08,-1466 420.08,-1466 414.08,-1466 408.08,-1460 408.08,-1454 408.08,-1454 408.08,-1442 408.08,-1442 408.08,-1436 414.08,-1430 420.08,-1430 420.08,-1430 597.08,-1430 597.08,-1430 603.08,-1430 609.08,-1436 609.08,-1442 609.08,-1442 609.08,-1454 609.08,-1454 609.08,-1460 603.08,-1466 597.08,-1466"/>
<text text-anchor="middle" x="508.58" y="-1444.3" font-family="Times,serif" font-size="14.00" fill="#314b5f">doctrine/collections: 1.8.0</text>
</g>
<!-- bartlett/php&#45;compatinfo&#45;&gt;doctrine/collections -->
<g id="edge34" class="edge">
<title>bartlett/php&#45;compatinfo&#45;&gt;doctrine/collections</title>
<path fill="none" stroke="#1a2833" d="M141.05,-1307.85C166.16,-1331.05 213.39,-1371.16 261.08,-1393 303.89,-1412.6 354.15,-1425.44 398.09,-1433.73"/>
<polygon fill="#1a2833" stroke="#1a2833" points="397.47,-1437.18 407.94,-1435.54 398.73,-1430.29 397.47,-1437.18"/>
<text text-anchor="middle" x="308.08" y="-1426" font-family="Times,serif" font-size="10.00" fill="#767676">^1.4</text>
</g>
<!-- nikic/php&#45;parser -->
<g id="node26" class="node">
<title>nikic/php&#45;parser</title>
<path fill="#eeeeee" stroke="black" d="M589.58,-1239C589.58,-1239 427.58,-1239 427.58,-1239 421.58,-1239 415.58,-1233 415.58,-1227 415.58,-1227 415.58,-1215 415.58,-1215 415.58,-1209 421.58,-1203 427.58,-1203 427.58,-1203 589.58,-1203 589.58,-1203 595.58,-1203 601.58,-1209 601.58,-1215 601.58,-1215 601.58,-1227 601.58,-1227 601.58,-1233 595.58,-1239 589.58,-1239"/>
<text text-anchor="middle" x="508.58" y="-1217.3" font-family="Times,serif" font-size="14.00" fill="#314b5f">nikic/php&#45;parser: v5.0.2</text>
</g>
<!-- bartlett/php&#45;compatinfo&#45;&gt;nikic/php&#45;parser -->
<g id="edge39" class="edge">
<title>bartlett/php&#45;compatinfo&#45;&gt;nikic/php&#45;parser</title>
<path fill="none" stroke="#1a2833" d="M199.99,-1276.12C258.99,-1265.55 340.75,-1250.9 405.14,-1239.36"/>
<polygon fill="#1a2833" stroke="#1a2833" points="406.1,-1242.74 415.32,-1237.53 404.86,-1235.85 406.1,-1242.74"/>
<text text-anchor="middle" x="308.08" y="-1266" font-family="Times,serif" font-size="10.00" fill="#767676">^5.0</text>
</g>
<!-- psr/log -->
<g id="node29" class="node">
<title>psr/log</title>
<path fill="#eeeeee" stroke="black" d="M781.08,-1433C781.08,-1433 694.08,-1433 694.08,-1433 688.08,-1433 682.08,-1427 682.08,-1421 682.08,-1421 682.08,-1409 682.08,-1409 682.08,-1403 688.08,-1397 694.08,-1397 694.08,-1397 781.08,-1397 781.08,-1397 787.08,-1397 793.08,-1403 793.08,-1409 793.08,-1409 793.08,-1421 793.08,-1421 793.08,-1427 787.08,-1433 781.08,-1433"/>
<text text-anchor="middle" x="737.58" y="-1411.3" font-family="Times,serif" font-size="14.00" fill="#314b5f">psr/log: 3.0.0</text>
</g>
<!-- bartlett/php&#45;compatinfo&#45;&gt;psr/log -->
<g id="edge41" class="edge">
<title>bartlett/php&#45;compatinfo&#45;&gt;psr/log</title>
<path fill="none" stroke="#1a2833" d="M176.88,-1306.08C202.32,-1313.3 233.12,-1321.62 261.08,-1328 406.98,-1361.29 580.33,-1390.41 672.1,-1405.02"/>
<polygon fill="#1a2833" stroke="#1a2833" points="671.64,-1408.5 682.07,-1406.61 672.74,-1401.58 671.64,-1408.5"/>
<text text-anchor="middle" x="308.08" y="-1350" font-family="Times,serif" font-size="10.00" fill="#767676">^3.0</text>
</g>
<!-- ramsey/uuid -->
<g id="node30" class="node">
<title>ramsey/uuid</title>
<path fill="#eeeeee" stroke="black" d="M571.58,-1078C571.58,-1078 445.58,-1078 445.58,-1078 439.58,-1078 433.58,-1072 433.58,-1066 433.58,-1066 433.58,-1054 433.58,-1054 433.58,-1048 439.58,-1042 445.58,-1042 445.58,-1042 571.58,-1042 571.58,-1042 577.58,-1042 583.58,-1048 583.58,-1054 583.58,-1054 583.58,-1066 583.58,-1066 583.58,-1072 577.58,-1078 571.58,-1078"/>
<text text-anchor="middle" x="508.58" y="-1056.3" font-family="Times,serif" font-size="14.00" fill="#314b5f">ramsey/uuid: 4.7.5</text>
</g>
<!-- bartlett/php&#45;compatinfo&#45;&gt;ramsey/uuid -->
<g id="edge46" class="edge">
<title>bartlett/php&#45;compatinfo&#45;&gt;ramsey/uuid</title>
<path fill="none" stroke="#1a2833" d="M151.8,-1272.52C220.26,-1231.62 390.97,-1129.66 468.35,-1083.44"/>
<polygon fill="#1a2833" stroke="#1a2833" points="470.52,-1086.22 477.31,-1078.08 466.93,-1080.21 470.52,-1086.22"/>
<text text-anchor="middle" x="308.08" y="-1205" font-family="Times,serif" font-size="10.00" fill="#767676">^3.9 || ^4.0</text>
</g>
<!-- symfony/finder -->
<g id="node33" class="node">
<title>symfony/finder</title>
<path fill="#eeeeee" stroke="black" d="M1052.58,-238C1052.58,-238 900.58,-238 900.58,-238 894.58,-238 888.58,-232 888.58,-226 888.58,-226 888.58,-214 888.58,-214 888.58,-208 894.58,-202 900.58,-202 900.58,-202 1052.58,-202 1052.58,-202 1058.58,-202 1064.58,-208 1064.58,-214 1064.58,-214 1064.58,-226 1064.58,-226 1064.58,-232 1058.58,-238 1052.58,-238"/>
<text text-anchor="middle" x="976.58" y="-216.3" font-family="Times,serif" font-size="14.00" fill="#314b5f">symfony/finder: v6.4.0</text>
</g>
<!-- bartlett/php&#45;compatinfo&#45;&gt;symfony/finder -->
<g id="edge51" class="edge">
<title>bartlett/php&#45;compatinfo&#45;&gt;symfony/finder</title>
<path fill="none" stroke="#1a2833" d="M123.9,-1271.89C132.03,-1167.35 176.69,-640.91 261.08,-506 377.86,-319.31 452.63,-282.99 662.08,-215 731.99,-192.31 815.37,-194.94 878.56,-202.5"/>
<polygon fill="#1a2833" stroke="#1a2833" points="878.16,-205.98 888.52,-203.76 879.03,-199.04 878.16,-205.98"/>
<text text-anchor="middle" x="508.58" y="-362" font-family="Times,serif" font-size="10.00" fill="#767676">^5.4 || ^6.0 || ^7.0</text>
</g>
<!-- symfony/serializer -->
<g id="node34" class="node">
<title>symfony/serializer</title>
<path fill="#eeeeee" stroke="black" d="M597.08,-972C597.08,-972 420.08,-972 420.08,-972 414.08,-972 408.08,-966 408.08,-960 408.08,-960 408.08,-948 408.08,-948 408.08,-942 414.08,-936 420.08,-936 420.08,-936 597.08,-936 597.08,-936 603.08,-936 609.08,-942 609.08,-948 609.08,-948 609.08,-960 609.08,-960 609.08,-966 603.08,-972 597.08,-972"/>
<text text-anchor="middle" x="508.58" y="-950.3" font-family="Times,serif" font-size="14.00" fill="#314b5f">symfony/serializer: v6.4.6</text>
</g>
<!-- bartlett/php&#45;compatinfo&#45;&gt;symfony/serializer -->
<g id="edge56" class="edge">
<title>bartlett/php&#45;compatinfo&#45;&gt;symfony/serializer</title>
<path fill="none" stroke="#1a2833" d="M136.77,-1271.95C172.7,-1227.22 271.46,-1109.37 373.08,-1033 401.48,-1011.66 436.08,-991.45 463.08,-976.81"/>
<polygon fill="#1a2833" stroke="#1a2833" points="464.77,-979.88 471.93,-972.07 461.46,-973.71 464.77,-979.88"/>
<text text-anchor="middle" x="308.08" y="-1133" font-family="Times,serif" font-size="10.00" fill="#767676">^5.4 || ^6.0 || ^7.0</text>
</g>
<!-- symfony/framework&#45;bundle -->
<g id="node37" class="node">
<title>symfony/framework&#45;bundle</title>
<path fill="#eeeeee" stroke="black" d="M629.08,-502C629.08,-502 388.08,-502 388.08,-502 382.08,-502 376.08,-496 376.08,-490 376.08,-490 376.08,-478 376.08,-478 376.08,-472 382.08,-466 388.08,-466 388.08,-466 629.08,-466 629.08,-466 635.08,-466 641.08,-472 641.08,-478 641.08,-478 641.08,-490 641.08,-490 641.08,-496 635.08,-502 629.08,-502"/>
<text text-anchor="middle" x="508.58" y="-480.3" font-family="Times,serif" font-size="14.00" fill="#314b5f">symfony/framework&#45;bundle: v6.4.6</text>
</g>
<!-- bartlett/php&#45;compatinfo&#45;&gt;symfony/framework&#45;bundle -->
<g id="edge73" class="edge">
<title>bartlett/php&#45;compatinfo&#45;&gt;symfony/framework&#45;bundle</title>
<path fill="none" stroke="#1a2833" stroke-dasharray="5,2" d="M123.64,-1271.68C130.04,-1170.47 165.68,-680.4 261.08,-570 288.99,-537.69 329.74,-517.52 370.1,-504.92"/>
<polygon fill="#1a2833" stroke="#1a2833" points="371.2,-508.24 379.79,-502.04 369.2,-501.53 371.2,-508.24"/>
<text text-anchor="middle" x="308.08" y="-573" font-family="Times,serif" font-size="10.00" fill="#767676">^5.4 || ^6.0 || ^7.0</text>
</g>
<!-- bamarni/composer&#45;bin&#45;plugin -->
<g id="node45" class="node">
<title>bamarni/composer&#45;bin&#45;plugin</title>
<path fill="#eeeeee" stroke="black" d="M632.08,-90C632.08,-90 385.08,-90 385.08,-90 379.08,-90 373.08,-84 373.08,-78 373.08,-78 373.08,-66 373.08,-66 373.08,-60 379.08,-54 385.08,-54 385.08,-54 632.08,-54 632.08,-54 638.08,-54 644.08,-60 644.08,-66 644.08,-66 644.08,-78 644.08,-78 644.08,-84 638.08,-90 632.08,-90"/>
<text text-anchor="middle" x="508.58" y="-68.3" font-family="Times,serif" font-size="14.00" fill="#314b5f">bamarni/composer&#45;bin&#45;plugin: 1.8.2</text>
</g>
<!-- bartlett/php&#45;compatinfo&#45;&gt;bamarni/composer&#45;bin&#45;plugin -->
<g id="edge76" class="edge">
<title>bartlett/php&#45;compatinfo&#45;&gt;bamarni/composer&#45;bin&#45;plugin</title>
<path fill="none" stroke="#1a2833" stroke-dasharray="5,2" d="M123.43,-1271.82C130.52,-1130.58 179.6,-211.79 261.08,-123 287.25,-94.48 324.83,-79.59 362.78,-72.31"/>
<polygon fill="#1a2833" stroke="#1a2833" points="363.7,-75.7 372.96,-70.54 362.5,-68.81 363.7,-75.7"/>
<text text-anchor="middle" x="308.08" y="-126" font-family="Times,serif" font-size="10.00" fill="#767676">^1.8</text>
</g>
<!-- bartlett/php&#45;compatinfo&#45;db&#45;&gt;php -->
<g id="edge14" class="edge">
<title>bartlett/php&#45;compatinfo&#45;db&#45;&gt;php</title>
<path fill="none" stroke="#1a2833" d="M513.16,-1715.16C524.52,-1767.56 564.86,-1919.84 662.08,-1992 716.89,-2032.68 756.42,-1981.95 813.08,-2020 825.36,-2028.25 818.09,-2040.91 831.08,-2048 887.84,-2078.99 1073.81,-2091.03 1122.08,-2048 1182.26,-1994.36 1209.46,-1398.81 1215,-1260.55"/>
<polygon fill="#1a2833" stroke="#1a2833" points="1218.5,-1260.47 1215.4,-1250.34 1211.51,-1260.2 1218.5,-1260.47"/>
<text text-anchor="middle" x="976.58" y="-2078" font-family="Times,serif" font-size="10.00" fill="#767676">^8.1</text>
</g>
<!-- bartlett/php&#45;compatinfo&#45;db&#45;&gt;ext&#45;json -->
<g id="edge9" class="edge">
<title>bartlett/php&#45;compatinfo&#45;db&#45;&gt;ext&#45;json</title>
<path fill="none" stroke="#1a2833" d="M545.36,-1678.88C577.25,-1660.63 622.16,-1629.28 644.08,-1588 665.83,-1547.02 630.13,-1413.65 662.08,-1380 685.4,-1355.43 779.57,-1364.01 813.08,-1359 852.47,-1353.11 897.15,-1345.92 929.68,-1340.6"/>
<polygon fill="#1a2833" stroke="#1a2833" points="930.49,-1344.02 939.79,-1338.94 929.35,-1337.11 930.49,-1344.02"/>
<text text-anchor="middle" x="737.58" y="-1383" font-family="Times,serif" font-size="10.00" fill="#767676">*</text>
</g>
<!-- bartlett/php&#45;compatinfo&#45;db&#45;&gt;ext&#45;pcre -->
<g id="edge10" class="edge">
<title>bartlett/php&#45;compatinfo&#45;db&#45;&gt;ext&#45;pcre</title>
<path fill="none" stroke="#1a2833" d="M516.52,-1715.03C537.3,-1769.28 600.25,-1935.99 644.08,-2077 653.23,-2106.44 639.1,-2123.44 662.08,-2144 712.68,-2189.26 758.19,-2127.05 813.08,-2167 827.54,-2177.53 816.79,-2192.23 831.08,-2203 859,-2224.05 898.43,-2230.3 929.04,-2231.56"/>
<polygon fill="#1a2833" stroke="#1a2833" points="928.97,-2235.06 939.06,-2231.82 929.15,-2228.07 928.97,-2235.06"/>
<text text-anchor="middle" x="737.58" y="-2170" font-family="Times,serif" font-size="10.00" fill="#767676">*</text>
</g>
<!-- bartlett/php&#45;compatinfo&#45;db&#45;&gt;ext&#45;spl -->
<g id="edge13" class="edge">
<title>bartlett/php&#45;compatinfo&#45;db&#45;&gt;ext&#45;spl</title>
<path fill="none" stroke="#1a2833" d="M511.39,-1715.39C518.32,-1774.91 548.74,-1963.47 662.08,-2051 715.81,-2092.49 763.09,-2028.07 813.08,-2074 838.32,-2097.2 806.23,-2125.38 831.08,-2149 858.2,-2174.78 901.66,-2179.89 933.84,-2179.54"/>
<polygon fill="#1a2833" stroke="#1a2833" points="933.96,-2183.04 943.86,-2179.26 933.77,-2176.04 933.96,-2183.04"/>
<text text-anchor="middle" x="737.58" y="-2077" font-family="Times,serif" font-size="10.00" fill="#767676">*</text>
</g>
<!-- bartlett/php&#45;compatinfo&#45;db&#45;&gt;composer&#45;runtime&#45;api -->
<g id="edge5" class="edge">
<title>bartlett/php&#45;compatinfo&#45;db&#45;&gt;composer&#45;runtime&#45;api</title>
<path fill="none" stroke="#1a2833" d="M546.61,-1678.85C578.9,-1660.77 623.66,-1629.71 644.08,-1588 665.29,-1544.68 631.87,-757.6 662.08,-720 675.91,-702.78 792.98,-680.79 880.03,-666.55"/>
<polygon fill="#1a2833" stroke="#1a2833" points="880.65,-670 889.96,-664.94 879.52,-663.09 880.65,-670"/>
<text text-anchor="middle" x="737.58" y="-723" font-family="Times,serif" font-size="10.00" fill="#767676">^2.0</text>
</g>
<!-- composer/semver -->
<g id="node8" class="node">
<title>composer/semver</title>
<path fill="#eeeeee" stroke="black" d="M1058.58,-1877C1058.58,-1877 894.58,-1877 894.58,-1877 888.58,-1877 882.58,-1871 882.58,-1865 882.58,-1865 882.58,-1853 882.58,-1853 882.58,-1847 888.58,-1841 894.58,-1841 894.58,-1841 1058.58,-1841 1058.58,-1841 1064.58,-1841 1070.58,-1847 1070.58,-1853 1070.58,-1853 1070.58,-1865 1070.58,-1865 1070.58,-1871 1064.58,-1877 1058.58,-1877"/>
<text text-anchor="middle" x="976.58" y="-1855.3" font-family="Times,serif" font-size="14.00" fill="#314b5f">composer/semver: 3.4.0</text>
</g>
<!-- bartlett/php&#45;compatinfo&#45;db&#45;&gt;composer/semver -->
<g id="edge6" class="edge">
<title>bartlett/php&#45;compatinfo&#45;db&#45;&gt;composer/semver</title>
<path fill="none" stroke="#1a2833" d="M534.26,-1715.04C563.45,-1735.6 614.15,-1768.96 662.08,-1789 729.48,-1817.18 809.98,-1834.85 872.54,-1845.38"/>
<polygon fill="#1a2833" stroke="#1a2833" points="871.98,-1848.84 882.42,-1847.01 873.12,-1841.93 871.98,-1848.84"/>
<text text-anchor="middle" x="737.58" y="-1837" font-family="Times,serif" font-size="10.00" fill="#767676">^3.0</text>
</g>
<!-- doctrine/dbal -->
<g id="node9" class="node">
<title>doctrine/dbal</title>
<path fill="#eeeeee" stroke="black" d="M1042.58,-1823C1042.58,-1823 910.58,-1823 910.58,-1823 904.58,-1823 898.58,-1817 898.58,-1811 898.58,-1811 898.58,-1799 898.58,-1799 898.58,-1793 904.58,-1787 910.58,-1787 910.58,-1787 1042.58,-1787 1042.58,-1787 1048.58,-1787 1054.58,-1793 1054.58,-1799 1054.58,-1799 1054.58,-1811 1054.58,-1811 1054.58,-1817 1048.58,-1823 1042.58,-1823"/>
<text text-anchor="middle" x="976.58" y="-1801.3" font-family="Times,serif" font-size="14.00" fill="#314b5f">doctrine/dbal: 3.8.3</text>
</g>
<!-- bartlett/php&#45;compatinfo&#45;db&#45;&gt;doctrine/dbal -->
<g id="edge7" class="edge">
<title>bartlett/php&#45;compatinfo&#45;db&#45;&gt;doctrine/dbal</title>
<path fill="none" stroke="#1a2833" d="M560.3,-1715.04C589.75,-1725.07 627.72,-1737.26 662.08,-1746 736.17,-1764.84 755.95,-1763.87 831.08,-1778 849.57,-1781.48 869.41,-1785.19 888.27,-1788.72"/>
<polygon fill="#1a2833" stroke="#1a2833" points="887.86,-1792.2 898.33,-1790.6 889.14,-1785.32 887.86,-1792.2"/>
<text text-anchor="middle" x="737.58" y="-1777" font-family="Times,serif" font-size="10.00" fill="#767676">^3.2</text>
</g>
<!-- doctrine/orm -->
<g id="node10" class="node">
<title>doctrine/orm</title>
<path fill="#eeeeee" stroke="black" d="M1046.08,-1769C1046.08,-1769 907.08,-1769 907.08,-1769 901.08,-1769 895.08,-1763 895.08,-1757 895.08,-1757 895.08,-1745 895.08,-1745 895.08,-1739 901.08,-1733 907.08,-1733 907.08,-1733 1046.08,-1733 1046.08,-1733 1052.08,-1733 1058.08,-1739 1058.08,-1745 1058.08,-1745 1058.08,-1757 1058.08,-1757 1058.08,-1763 1052.08,-1769 1046.08,-1769"/>
<text text-anchor="middle" x="976.58" y="-1747.3" font-family="Times,serif" font-size="14.00" fill="#314b5f">doctrine/orm: 2.19.4</text>
</g>
<!-- bartlett/php&#45;compatinfo&#45;db&#45;&gt;doctrine/orm -->
<g id="edge8" class="edge">
<title>bartlett/php&#45;compatinfo&#45;db&#45;&gt;doctrine/orm</title>
<path fill="none" stroke="#1a2833" d="M635.68,-1711.61C714.3,-1720.72 813.64,-1732.23 884.59,-1740.46"/>
<polygon fill="#1a2833" stroke="#1a2833" points="884.51,-1743.97 894.84,-1741.64 885.31,-1737.02 884.51,-1743.97"/>
<text text-anchor="middle" x="737.58" y="-1734" font-family="Times,serif" font-size="10.00" fill="#767676">^2.12</text>
</g>
<!-- ext&#45;pdo -->
<g id="node11" class="node">
<title>ext&#45;pdo</title>
<path fill="#eeeeee" stroke="black" d="M999.58,-1715C999.58,-1715 953.58,-1715 953.58,-1715 947.58,-1715 941.58,-1709 941.58,-1703 941.58,-1703 941.58,-1691 941.58,-1691 941.58,-1685 947.58,-1679 953.58,-1679 953.58,-1679 999.58,-1679 999.58,-1679 1005.58,-1679 1011.58,-1685 1011.58,-1691 1011.58,-1691 1011.58,-1703 1011.58,-1703 1011.58,-1709 1005.58,-1715 999.58,-1715"/>
<text text-anchor="middle" x="976.58" y="-1693.3" font-family="Times,serif" font-size="14.00" fill="#314b5f">ext&#45;pdo</text>
</g>
<!-- bartlett/php&#45;compatinfo&#45;db&#45;&gt;ext&#45;pdo -->
<g id="edge11" class="edge">
<title>bartlett/php&#45;compatinfo&#45;db&#45;&gt;ext&#45;pdo</title>
<path fill="none" stroke="#1a2833" d="M635.68,-1697C733.68,-1697 863.88,-1697 931.14,-1697"/>
<polygon fill="#1a2833" stroke="#1a2833" points="931.38,-1700.5 941.38,-1697 931.38,-1693.5 931.38,-1700.5"/>
<text text-anchor="middle" x="737.58" y="-1700" font-family="Times,serif" font-size="10.00" fill="#767676">*</text>
</g>
<!-- ext&#45;phar -->
<g id="node12" class="node">
<title>ext&#45;phar</title>
<path fill="#eeeeee" stroke="black" d="M1003.08,-1661C1003.08,-1661 950.08,-1661 950.08,-1661 944.08,-1661 938.08,-1655 938.08,-1649 938.08,-1649 938.08,-1637 938.08,-1637 938.08,-1631 944.08,-1625 950.08,-1625 950.08,-1625 1003.08,-1625 1003.08,-1625 1009.08,-1625 1015.08,-1631 1015.08,-1637 1015.08,-1637 1015.08,-1649 1015.08,-1649 1015.08,-1655 1009.08,-1661 1003.08,-1661"/>
<text text-anchor="middle" x="976.58" y="-1639.3" font-family="Times,serif" font-size="14.00" fill="#314b5f">ext&#45;phar</text>
</g>
<!-- bartlett/php&#45;compatinfo&#45;db&#45;&gt;ext&#45;phar -->
<g id="edge12" class="edge">
<title>bartlett/php&#45;compatinfo&#45;db&#45;&gt;ext&#45;phar</title>
<path fill="none" stroke="#1a2833" d="M635.68,-1682.39C732.09,-1671.22 859.65,-1656.43 927.81,-1648.54"/>
<polygon fill="#1a2833" stroke="#1a2833" points="928.3,-1652 937.83,-1647.37 927.49,-1645.05 928.3,-1652"/>
<text text-anchor="middle" x="737.58" y="-1680" font-family="Times,serif" font-size="10.00" fill="#767676">*</text>
</g>
<!-- symfony/cache -->
<g id="node13" class="node">
<title>symfony/cache</title>
<path fill="#eeeeee" stroke="black" d="M1052.08,-1297C1052.08,-1297 901.08,-1297 901.08,-1297 895.08,-1297 889.08,-1291 889.08,-1285 889.08,-1285 889.08,-1273 889.08,-1273 889.08,-1267 895.08,-1261 901.08,-1261 901.08,-1261 1052.08,-1261 1052.08,-1261 1058.08,-1261 1064.08,-1267 1064.08,-1273 1064.08,-1273 1064.08,-1285 1064.08,-1285 1064.08,-1291 1058.08,-1297 1052.08,-1297"/>
<text text-anchor="middle" x="976.58" y="-1275.3" font-family="Times,serif" font-size="14.00" fill="#314b5f">symfony/cache: v6.4.6</text>
</g>
<!-- bartlett/php&#45;compatinfo&#45;db&#45;&gt;symfony/cache -->
<g id="edge15" class="edge">
<title>bartlett/php&#45;compatinfo&#45;db&#45;&gt;symfony/cache</title>
<path fill="none" stroke="#1a2833" d="M545.47,-1678.94C577.44,-1660.73 622.41,-1629.41 644.08,-1588 669.08,-1540.22 627.08,-1387.02 662.08,-1346 676.34,-1329.28 792.3,-1307.7 879.06,-1293.61"/>
<polygon fill="#1a2833" stroke="#1a2833" points="879.64,-1297.06 888.95,-1292.01 878.52,-1290.15 879.64,-1297.06"/>
<text text-anchor="middle" x="737.58" y="-1349" font-family="Times,serif" font-size="10.00" fill="#767676">^6.4 || ^7.0</text>
</g>
<!-- bartlett/php&#45;compatinfo&#45;db&#45;&gt;symfony/config -->
<g id="edge16" class="edge">
<title>bartlett/php&#45;compatinfo&#45;db&#45;&gt;symfony/config</title>
<path fill="none" stroke="#1a2833" d="M546.56,-1678.82C578.81,-1660.73 623.54,-1629.65 644.08,-1588 677.6,-1520.01 616.34,-966.45 662.08,-906 704.49,-849.95 764.81,-910.09 813.08,-859 835.73,-835.02 807.06,-809.61 831.08,-787 843.97,-774.86 860.49,-767.32 877.72,-762.77"/>
<polygon fill="#1a2833" stroke="#1a2833" points="878.96,-766.08 887.93,-760.43 877.4,-759.26 878.96,-766.08"/>
<text text-anchor="middle" x="737.58" y="-909" font-family="Times,serif" font-size="10.00" fill="#767676">^6.4 || ^7.0</text>
</g>
<!-- bartlett/php&#45;compatinfo&#45;db&#45;&gt;symfony/console -->
<g id="edge17" class="edge">
<title>bartlett/php&#45;compatinfo&#45;db&#45;&gt;symfony/console</title>
<path fill="none" stroke="#1a2833" d="M532.46,-1678.83C561.13,-1656.95 612.53,-1620.59 662.08,-1600 729.18,-1572.12 809.49,-1555.76 872.03,-1546.43"/>
<polygon fill="#1a2833" stroke="#1a2833" points="872.92,-1549.84 882.31,-1544.94 871.91,-1542.91 872.92,-1549.84"/>
<text text-anchor="middle" x="737.58" y="-1603" font-family="Times,serif" font-size="10.00" fill="#767676">^6.4 || ^7.0</text>
</g>
<!-- bartlett/php&#45;compatinfo&#45;db&#45;&gt;symfony/dependency&#45;injection -->
<g id="edge18" class="edge">
<title>bartlett/php&#45;compatinfo&#45;db&#45;&gt;symfony/dependency&#45;injection</title>
<path fill="none" stroke="#1a2833" d="M546.59,-1678.84C578.86,-1660.75 623.61,-1629.68 644.08,-1588 663.06,-1549.34 635.84,-847.15 662.08,-813 704.67,-757.57 759.41,-813.78 813.08,-769 826.81,-757.54 816.79,-743.77 831.08,-733 832.72,-731.76 834.4,-730.57 836.12,-729.44"/>
<polygon fill="#1a2833" stroke="#1a2833" points="838.2,-732.27 844.99,-724.15 834.61,-726.26 838.2,-732.27"/>
<text text-anchor="middle" x="737.58" y="-816" font-family="Times,serif" font-size="10.00" fill="#767676">^6.4 || ^7.0</text>
</g>
<!-- bartlett/php&#45;compatinfo&#45;db&#45;&gt;symfony/event&#45;dispatcher -->
<g id="edge19" class="edge">
<title>bartlett/php&#45;compatinfo&#45;db&#45;&gt;symfony/event&#45;dispatcher</title>
<path fill="none" stroke="#1a2833" d="M546.12,-1678.94C578.31,-1660.83 623.21,-1629.65 644.08,-1588 667.04,-1542.17 627.8,-1165.11 662.08,-1127 707.44,-1076.58 766.99,-1154.76 813.08,-1105 853.04,-1061.86 791.99,-884.93 831.08,-841 834.08,-837.62 837.37,-834.58 840.87,-831.85"/>
<polygon fill="#1a2833" stroke="#1a2833" points="843.14,-834.54 849.43,-826.02 839.2,-828.75 843.14,-834.54"/>
<text text-anchor="middle" x="737.58" y="-1130" font-family="Times,serif" font-size="10.00" fill="#767676">^6.4 || ^7.0</text>
</g>
<!-- symfony/http&#45;client -->
<g id="node18" class="node">
<title>symfony/http&#45;client</title>
<path fill="#eeeeee" stroke="black" d="M1069.08,-2140C1069.08,-2140 884.08,-2140 884.08,-2140 878.08,-2140 872.08,-2134 872.08,-2128 872.08,-2128 872.08,-2116 872.08,-2116 872.08,-2110 878.08,-2104 884.08,-2104 884.08,-2104 1069.08,-2104 1069.08,-2104 1075.08,-2104 1081.08,-2110 1081.08,-2116 1081.08,-2116 1081.08,-2128 1081.08,-2128 1081.08,-2134 1075.08,-2140 1069.08,-2140"/>
<text text-anchor="middle" x="976.58" y="-2118.3" font-family="Times,serif" font-size="14.00" fill="#314b5f">symfony/http&#45;client: v6.4.6</text>
</g>
<!-- bartlett/php&#45;compatinfo&#45;db&#45;&gt;symfony/http&#45;client -->
<g id="edge20" class="edge">
<title>bartlett/php&#45;compatinfo&#45;db&#45;&gt;symfony/http&#45;client</title>
<path fill="none" stroke="#1a2833" d="M512.26,-1715.22C521.49,-1770.81 557.32,-1939.23 662.08,-2017 716.58,-2057.47 760.64,-1996.88 813.08,-2040 831.32,-2055 813.35,-2074.4 831.08,-2090 840.2,-2098.02 850.87,-2104.17 862.22,-2108.87"/>
<polygon fill="#1a2833" stroke="#1a2833" points="861.3,-2112.26 871.89,-2112.48 863.75,-2105.71 861.3,-2112.26"/>
<text text-anchor="middle" x="737.58" y="-2043" font-family="Times,serif" font-size="10.00" fill="#767676">^6.4 || ^7.0</text>
</g>
<!-- symfony/messenger -->
<g id="node19" class="node">
<title>symfony/messenger</title>
<path fill="#eeeeee" stroke="black" d="M1070.58,-2039C1070.58,-2039 882.58,-2039 882.58,-2039 876.58,-2039 870.58,-2033 870.58,-2027 870.58,-2027 870.58,-2015 870.58,-2015 870.58,-2009 876.58,-2003 882.58,-2003 882.58,-2003 1070.58,-2003 1070.58,-2003 1076.58,-2003 1082.58,-2009 1082.58,-2015 1082.58,-2015 1082.58,-2027 1082.58,-2027 1082.58,-2033 1076.58,-2039 1070.58,-2039"/>
<text text-anchor="middle" x="976.58" y="-2017.3" font-family="Times,serif" font-size="14.00" fill="#314b5f">symfony/messenger: v6.4.6</text>
</g>
<!-- bartlett/php&#45;compatinfo&#45;db&#45;&gt;symfony/messenger -->
<g id="edge21" class="edge">
<title>bartlett/php&#45;compatinfo&#45;db&#45;&gt;symfony/messenger</title>
<path fill="none" stroke="#1a2833" d="M514.32,-1715.32C527.97,-1763.99 572.21,-1896.97 662.08,-1958 718.24,-1996.14 750.25,-1955.3 813.08,-1981 822.21,-1984.74 822.01,-1990.11 831.08,-1994 840.5,-1998.04 850.52,-2001.48 860.72,-2004.4"/>
<polygon fill="#1a2833" stroke="#1a2833" points="859.98,-2007.82 870.55,-2007.05 861.8,-2001.07 859.98,-2007.82"/>
<text text-anchor="middle" x="737.58" y="-1984" font-family="Times,serif" font-size="10.00" fill="#767676">^6.4 || ^7.0</text>
</g>
<!-- symfony/process -->
<g id="node20" class="node">
<title>symfony/process</title>
<path fill="#eeeeee" stroke="black" d="M1059.08,-1985C1059.08,-1985 894.08,-1985 894.08,-1985 888.08,-1985 882.08,-1979 882.08,-1973 882.08,-1973 882.08,-1961 882.08,-1961 882.08,-1955 888.08,-1949 894.08,-1949 894.08,-1949 1059.08,-1949 1059.08,-1949 1065.08,-1949 1071.08,-1955 1071.08,-1961 1071.08,-1961 1071.08,-1973 1071.08,-1973 1071.08,-1979 1065.08,-1985 1059.08,-1985"/>
<text text-anchor="middle" x="976.58" y="-1963.3" font-family="Times,serif" font-size="14.00" fill="#314b5f">symfony/process: v6.4.4</text>
</g>
<!-- bartlett/php&#45;compatinfo&#45;db&#45;&gt;symfony/process -->
<g id="edge22" class="edge">
<title>bartlett/php&#45;compatinfo&#45;db&#45;&gt;symfony/process</title>
<path fill="none" stroke="#1a2833" d="M516.61,-1715.17C534.05,-1757.63 583.68,-1863.49 662.08,-1913 679.86,-1924.23 787.45,-1941.21 871.7,-1953.13"/>
<polygon fill="#1a2833" stroke="#1a2833" points="871.46,-1956.63 881.85,-1954.55 872.43,-1949.69 871.46,-1956.63"/>
<text text-anchor="middle" x="737.58" y="-1947" font-family="Times,serif" font-size="10.00" fill="#767676">^6.4 || ^7.0</text>
</g>
<!-- symfony/requirements&#45;checker -->
<g id="node21" class="node">
<title>symfony/requirements&#45;checker</title>
<path fill="#eeeeee" stroke="black" d="M1110.08,-1931C1110.08,-1931 843.08,-1931 843.08,-1931 837.08,-1931 831.08,-1925 831.08,-1919 831.08,-1919 831.08,-1907 831.08,-1907 831.08,-1901 837.08,-1895 843.08,-1895 843.08,-1895 1110.08,-1895 1110.08,-1895 1116.08,-1895 1122.08,-1901 1122.08,-1907 1122.08,-1907 1122.08,-1919 1122.08,-1919 1122.08,-1925 1116.08,-1931 1110.08,-1931"/>
<text text-anchor="middle" x="976.58" y="-1909.3" font-family="Times,serif" font-size="14.00" fill="#314b5f">symfony/requirements&#45;checker: v2.0.1</text>
</g>
<!-- bartlett/php&#45;compatinfo&#45;db&#45;&gt;symfony/requirements&#45;checker -->
<g id="edge23" class="edge">
<title>bartlett/php&#45;compatinfo&#45;db&#45;&gt;symfony/requirements&#45;checker</title>
<path fill="none" stroke="#1a2833" d="M522.14,-1715.06C545.65,-1747.37 599.57,-1814.88 662.08,-1849 710.29,-1875.32 768.03,-1890.85 820.74,-1900.01"/>
<polygon fill="#1a2833" stroke="#1a2833" points="820.43,-1903.5 830.87,-1901.7 821.58,-1896.6 820.43,-1903.5"/>
<text text-anchor="middle" x="737.58" y="-1901" font-family="Times,serif" font-size="10.00" fill="#767676">^2.0</text>
</g>
<!-- bartlett/php&#45;compatinfo&#45;db&#45;&gt;symfony/stopwatch -->
<g id="edge24" class="edge">
<title>bartlett/php&#45;compatinfo&#45;db&#45;&gt;symfony/stopwatch</title>
<path fill="none" stroke="#1a2833" d="M558.88,-1678.98C588.5,-1668.61 627.12,-1655.92 662.08,-1647 727.87,-1630.21 802.59,-1616.19 862.58,-1606.15"/>
<polygon fill="#1a2833" stroke="#1a2833" points="863.17,-1609.6 872.46,-1604.51 862.02,-1602.69 863.17,-1609.6"/>
<text text-anchor="middle" x="737.58" y="-1650" font-family="Times,serif" font-size="10.00" fill="#767676">^6.4 || ^7.0</text>
</g>
<!-- bartlett/sarif&#45;php&#45;sdk&#45;&gt;php -->
<g id="edge29" class="edge">
<title>bartlett/sarif&#45;php&#45;sdk&#45;&gt;php</title>
<path fill="none" stroke="#1a2833" d="M606.88,-2257C759.88,-2282.89 1047.06,-2320.89 1122.08,-2257 1200.13,-2190.53 1213.78,-1419.51 1215.77,-1260.56"/>
<polygon fill="#1a2833" stroke="#1a2833" points="1219.28,-1260.23 1215.9,-1250.19 1212.28,-1260.14 1219.28,-1260.23"/>
<text text-anchor="middle" x="976.58" y="-2295" font-family="Times,serif" font-size="10.00" fill="#767676">^7.4 || ^8.0</text>
</g>
<!-- bartlett/sarif&#45;php&#45;sdk&#45;&gt;ext&#45;json -->
<g id="edge26" class="edge">
<title>bartlett/sarif&#45;php&#45;sdk&#45;&gt;ext&#45;json</title>
<path fill="none" stroke="#1a2833" d="M615.21,-2226.24C625.91,-2221.5 635.85,-2215.24 644.08,-2207 668.61,-2182.44 638.01,-2156.02 662.08,-2131 710.37,-2080.8 770.25,-2143.94 813.08,-2089 862.55,-2025.54 779.93,-1427.12 831.08,-1365 854.44,-1336.63 896.8,-1329.97 929.64,-1329.62"/>
<polygon fill="#1a2833" stroke="#1a2833" points="929.9,-1333.12 939.93,-1329.71 929.96,-1326.12 929.9,-1333.12"/>
<text text-anchor="middle" x="737.58" y="-2134" font-family="Times,serif" font-size="10.00" fill="#767676">*</text>
</g>
<!-- bartlett/sarif&#45;php&#45;sdk&#45;&gt;ext&#45;pcre -->
<g id="edge27" class="edge">
<title>bartlett/sarif&#45;php&#45;sdk&#45;&gt;ext&#45;pcre</title>
<path fill="none" stroke="#1a2833" d="M615.29,-2239.25C673.63,-2239.15 747.37,-2238.63 813.08,-2237 852.05,-2236.03 896.25,-2234.07 928.7,-2232.47"/>
<polygon fill="#1a2833" stroke="#1a2833" points="928.99,-2235.96 938.8,-2231.97 928.64,-2228.97 928.99,-2235.96"/>
<text text-anchor="middle" x="737.58" y="-2242" font-family="Times,serif" font-size="10.00" fill="#767676">*</text>
</g>
<!-- bartlett/sarif&#45;php&#45;sdk&#45;&gt;ext&#45;spl -->
<g id="edge28" class="edge">
<title>bartlett/sarif&#45;php&#45;sdk&#45;&gt;ext&#45;spl</title>
<path fill="none" stroke="#1a2833" d="M615.32,-2224.7C716.16,-2211.07 862.88,-2191.24 933.93,-2181.63"/>
<polygon fill="#1a2833" stroke="#1a2833" points="934.41,-2185.1 943.85,-2180.29 933.47,-2178.16 934.41,-2185.1"/>
<text text-anchor="middle" x="737.58" y="-2219" font-family="Times,serif" font-size="10.00" fill="#767676">*</text>
</g>
<!-- doctrine/collections&#45;&gt;php -->
<g id="edge33" class="edge">
<title>doctrine/collections&#45;&gt;php</title>
<path fill="none" stroke="#1a2833" d="M609.27,-1446.84C771.39,-1444.26 1078.53,-1436.21 1122.08,-1412 1178.46,-1380.65 1202.27,-1302.15 1211.26,-1259.92"/>
<polygon fill="#1a2833" stroke="#1a2833" points="1214.71,-1260.51 1213.24,-1250.02 1207.85,-1259.14 1214.71,-1260.51"/>
<text text-anchor="middle" x="976.58" y="-1444" font-family="Times,serif" font-size="10.00" fill="#767676">^7.1.3 || ^8.0</text>
</g>
<!-- doctrine/deprecations -->
<g id="node25" class="node">
<title>doctrine/deprecations</title>
<path fill="#eeeeee" stroke="black" d="M1073.58,-1499C1073.58,-1499 879.58,-1499 879.58,-1499 873.58,-1499 867.58,-1493 867.58,-1487 867.58,-1487 867.58,-1475 867.58,-1475 867.58,-1469 873.58,-1463 879.58,-1463 879.58,-1463 1073.58,-1463 1073.58,-1463 1079.58,-1463 1085.58,-1469 1085.58,-1475 1085.58,-1475 1085.58,-1487 1085.58,-1487 1085.58,-1493 1079.58,-1499 1073.58,-1499"/>
<text text-anchor="middle" x="976.58" y="-1477.3" font-family="Times,serif" font-size="14.00" fill="#314b5f">doctrine/deprecations: 1.1.3</text>
</g>
<!-- doctrine/collections&#45;&gt;doctrine/deprecations -->
<g id="edge32" class="edge">
<title>doctrine/collections&#45;&gt;doctrine/deprecations</title>
<path fill="none" stroke="#1a2833" d="M609.25,-1455.22C626.85,-1456.48 645,-1457.78 662.08,-1459 726.64,-1463.59 798.7,-1468.65 857.43,-1472.76"/>
<polygon fill="#1a2833" stroke="#1a2833" points="857.26,-1476.26 867.48,-1473.47 857.75,-1469.28 857.26,-1476.26"/>
<text text-anchor="middle" x="737.58" y="-1472" font-family="Times,serif" font-size="10.00" fill="#767676">^0.5.3 || ^1</text>
</g>
<!-- nikic/php&#45;parser&#45;&gt;php -->
<g id="edge38" class="edge">
<title>nikic/php&#45;parser&#45;&gt;php</title>
<path fill="none" stroke="#1a2833" d="M601.58,-1222.43C758.92,-1224.88 1073.04,-1229.77 1179.68,-1231.43"/>
<polygon fill="#1a2833" stroke="#1a2833" points="1179.87,-1234.94 1189.92,-1231.59 1179.98,-1227.94 1179.87,-1234.94"/>
<text text-anchor="middle" x="976.58" y="-1233" font-family="Times,serif" font-size="10.00" fill="#767676">&gt;=7.4</text>
</g>
<!-- nikic/php&#45;parser&#45;&gt;ext&#45;json -->
<g id="edge36" class="edge">
<title>nikic/php&#45;parser&#45;&gt;ext&#45;json</title>
<path fill="none" stroke="#1a2833" d="M564.17,-1239.07C593.03,-1248.12 629.21,-1258.68 662.08,-1266 728.34,-1280.75 752.07,-1259.23 813.08,-1289 822.97,-1293.83 821.27,-1301.01 831.08,-1306 861.8,-1321.64 900.33,-1328.29 929.88,-1331.08"/>
<polygon fill="#1a2833" stroke="#1a2833" points="929.67,-1334.58 939.93,-1331.92 930.25,-1327.6 929.67,-1334.58"/>
<text text-anchor="middle" x="737.58" y="-1292" font-family="Times,serif" font-size="10.00" fill="#767676">*</text>
</g>
<!-- ext&#45;ctype -->
<g id="node27" class="node">
<title>ext&#45;ctype</title>
<path fill="#eeeeee" stroke="black" d="M1006.08,-1142C1006.08,-1142 947.08,-1142 947.08,-1142 941.08,-1142 935.08,-1136 935.08,-1130 935.08,-1130 935.08,-1118 935.08,-1118 935.08,-1112 941.08,-1106 947.08,-1106 947.08,-1106 1006.08,-1106 1006.08,-1106 1012.08,-1106 1018.08,-1112 1018.08,-1118 1018.08,-1118 1018.08,-1130 1018.08,-1130 1018.08,-1136 1012.08,-1142 1006.08,-1142"/>
<text text-anchor="middle" x="976.58" y="-1120.3" font-family="Times,serif" font-size="14.00" fill="#314b5f">ext&#45;ctype</text>
</g>
<!-- nikic/php&#45;parser&#45;&gt;ext&#45;ctype -->
<g id="edge35" class="edge">
<title>nikic/php&#45;parser&#45;&gt;ext&#45;ctype</title>
<path fill="none" stroke="#1a2833" d="M555.3,-1202.91C585.26,-1191.69 625.49,-1177.78 662.08,-1169 753.5,-1147.06 862.65,-1134.35 925.06,-1128.33"/>
<polygon fill="#1a2833" stroke="#1a2833" points="925.41,-1131.81 935.04,-1127.39 924.76,-1124.85 925.41,-1131.81"/>
<text text-anchor="middle" x="737.58" y="-1172" font-family="Times,serif" font-size="10.00" fill="#767676">*</text>
</g>
<!-- ext&#45;tokenizer -->
<g id="node28" class="node">
<title>ext&#45;tokenizer</title>
<path fill="#eeeeee" stroke="black" d="M1019.58,-1196C1019.58,-1196 933.58,-1196 933.58,-1196 927.58,-1196 921.58,-1190 921.58,-1184 921.58,-1184 921.58,-1172 921.58,-1172 921.58,-1166 927.58,-1160 933.58,-1160 933.58,-1160 1019.58,-1160 1019.58,-1160 1025.58,-1160 1031.58,-1166 1031.58,-1172 1031.58,-1172 1031.58,-1184 1031.58,-1184 1031.58,-1190 1025.58,-1196 1019.58,-1196"/>
<text text-anchor="middle" x="976.58" y="-1174.3" font-family="Times,serif" font-size="14.00" fill="#314b5f">ext&#45;tokenizer</text>
</g>
<!-- nikic/php&#45;parser&#45;&gt;ext&#45;tokenizer -->
<g id="edge37" class="edge">
<title>nikic/php&#45;parser&#45;&gt;ext&#45;tokenizer</title>
<path fill="none" stroke="#1a2833" d="M601.7,-1204.3C621.56,-1201.15 642.48,-1198.16 662.08,-1196 747.93,-1186.53 847.59,-1181.88 911.08,-1179.72"/>
<polygon fill="#1a2833" stroke="#1a2833" points="911.47,-1183.21 921.34,-1179.38 911.23,-1176.22 911.47,-1183.21"/>
<text text-anchor="middle" x="737.58" y="-1199" font-family="Times,serif" font-size="10.00" fill="#767676">*</text>
</g>
<!-- psr/log&#45;&gt;php -->
<g id="edge40" class="edge">
<title>psr/log&#45;&gt;php</title>
<path fill="none" stroke="#1a2833" d="M793.35,-1406.62C805.75,-1404.74 818.86,-1402.78 831.08,-1401 960.32,-1382.12 1009.96,-1427 1122.08,-1360 1161.59,-1336.39 1189.54,-1289.14 1204.21,-1259.13"/>
<polygon fill="#1a2833" stroke="#1a2833" points="1207.39,-1260.57 1208.5,-1250.04 1201.06,-1257.58 1207.39,-1260.57"/>
<text text-anchor="middle" x="976.58" y="-1404" font-family="Times,serif" font-size="10.00" fill="#767676">&gt;=8.0.0</text>
</g>
<!-- ramsey/uuid&#45;&gt;php -->
<g id="edge44" class="edge">
<title>ramsey/uuid&#45;&gt;php</title>
<path fill="none" stroke="#1a2833" d="M583.77,-1059.36C736.69,-1058.58 1076.49,-1059.86 1122.08,-1086 1167.42,-1112 1194.46,-1169.75 1207.2,-1204.32"/>
<polygon fill="#1a2833" stroke="#1a2833" points="1203.92,-1205.56 1210.55,-1213.83 1210.52,-1203.23 1203.92,-1205.56"/>
<text text-anchor="middle" x="976.58" y="-1089" font-family="Times,serif" font-size="10.00" fill="#767676">^8.0</text>
</g>
<!-- ramsey/uuid&#45;&gt;ext&#45;json -->
<g id="edge43" class="edge">
<title>ramsey/uuid&#45;&gt;ext&#45;json</title>
<path fill="none" stroke="#1a2833" d="M527.7,-1078.18C567.24,-1117.81 658.05,-1208.66 662.08,-1211 722.33,-1245.97 762.46,-1205.14 813.08,-1253 831.16,-1270.09 812.28,-1289.71 831.08,-1306 857.94,-1329.28 898.33,-1335.22 929.59,-1335.8"/>
<polygon fill="#1a2833" stroke="#1a2833" points="929.81,-1339.3 939.81,-1335.81 929.81,-1332.3 929.81,-1339.3"/>
<text text-anchor="middle" x="737.58" y="-1256" font-family="Times,serif" font-size="10.00" fill="#767676">*</text>
</g>
<!-- brick/math -->
<g id="node31" class="node">
<title>brick/math</title>
<path fill="#eeeeee" stroke="black" d="M1038.58,-987C1038.58,-987 914.58,-987 914.58,-987 908.58,-987 902.58,-981 902.58,-975 902.58,-975 902.58,-963 902.58,-963 902.58,-957 908.58,-951 914.58,-951 914.58,-951 1038.58,-951 1038.58,-951 1044.58,-951 1050.58,-957 1050.58,-963 1050.58,-963 1050.58,-975 1050.58,-975 1050.58,-981 1044.58,-987 1038.58,-987"/>
<text text-anchor="middle" x="976.58" y="-965.3" font-family="Times,serif" font-size="14.00" fill="#314b5f">brick/math: 0.11.0</text>
</g>
<!-- ramsey/uuid&#45;&gt;brick/math -->
<g id="edge42" class="edge">
<title>ramsey/uuid&#45;&gt;brick/math</title>
<path fill="none" stroke="#1a2833" d="M557.01,-1041.91C586.79,-1031.19 626.21,-1018.15 662.08,-1010 739.18,-992.48 828.77,-981.7 892.38,-975.61"/>
<polygon fill="#1a2833" stroke="#1a2833" points="892.73,-979.1 902.36,-974.68 892.08,-972.13 892.73,-979.1"/>
<text text-anchor="middle" x="737.58" y="-1013" font-family="Times,serif" font-size="10.00" fill="#767676">^0.8.8 || ^0.9 || ^0.10 || ^0.11</text>
</g>
<!-- ramsey/collection -->
<g id="node32" class="node">
<title>ramsey/collection</title>
<path fill="#eeeeee" stroke="black" d="M1058.08,-1041C1058.08,-1041 895.08,-1041 895.08,-1041 889.08,-1041 883.08,-1035 883.08,-1029 883.08,-1029 883.08,-1017 883.08,-1017 883.08,-1011 889.08,-1005 895.08,-1005 895.08,-1005 1058.08,-1005 1058.08,-1005 1064.08,-1005 1070.08,-1011 1070.08,-1017 1070.08,-1017 1070.08,-1029 1070.08,-1029 1070.08,-1035 1064.08,-1041 1058.08,-1041"/>
<text text-anchor="middle" x="976.58" y="-1019.3" font-family="Times,serif" font-size="14.00" fill="#314b5f">ramsey/collection: 2.0.0</text>
</g>
<!-- ramsey/uuid&#45;&gt;ramsey/collection -->
<g id="edge45" class="edge">
<title>ramsey/uuid&#45;&gt;ramsey/collection</title>
<path fill="none" stroke="#1a2833" d="M583.8,-1045.93C608.6,-1041.74 636.45,-1037.58 662.08,-1035 732.15,-1027.94 811.42,-1024.95 872.71,-1023.72"/>
<polygon fill="#1a2833" stroke="#1a2833" points="872.84,-1027.22 882.78,-1023.53 872.71,-1020.22 872.84,-1027.22"/>
<text text-anchor="middle" x="737.58" y="-1038" font-family="Times,serif" font-size="10.00" fill="#767676">^1.2 || ^2.0</text>
</g>
<!-- symfony/finder&#45;&gt;php -->
<g id="edge50" class="edge">
<title>symfony/finder&#45;&gt;php</title>
<path fill="none" stroke="#1a2833" d="M1064.9,-218.55C1086.35,-222.54 1107.36,-230.9 1122.08,-247 1188.44,-319.59 1211.29,-1050.52 1215.38,-1203.87"/>
<polygon fill="#1a2833" stroke="#1a2833" points="1211.88,-1203.99 1215.64,-1213.9 1218.88,-1203.81 1211.88,-1203.99"/>
<text text-anchor="middle" x="1156.08" y="-449" font-family="Times,serif" font-size="10.00" fill="#767676">&gt;=8.1</text>
</g>
<!-- symfony/serializer&#45;&gt;php -->
<g id="edge53" class="edge">
<title>symfony/serializer&#45;&gt;php</title>
<path fill="none" stroke="#1a2833" d="M591.71,-972.02C655.28,-981.76 743.85,-985.94 813.08,-953 824.49,-947.57 819.66,-936.41 831.08,-931 889.52,-903.31 1069.98,-892.69 1122.08,-931 1167.08,-964.09 1200.07,-1135.71 1211.6,-1203.96"/>
<polygon fill="#1a2833" stroke="#1a2833" points="1208.18,-1204.7 1213.27,-1213.99 1215.08,-1203.56 1208.18,-1204.7"/>
<text text-anchor="middle" x="976.58" y="-934" font-family="Times,serif" font-size="10.00" fill="#767676">&gt;=8.1</text>
</g>
<!-- symfony/deprecation&#45;contracts -->
<g id="node35" class="node">
<title>symfony/deprecation&#45;contracts</title>
<path fill="#eeeeee" stroke="black" d="M1109.58,-616C1109.58,-616 843.58,-616 843.58,-616 837.58,-616 831.58,-610 831.58,-604 831.58,-604 831.58,-592 831.58,-592 831.58,-586 837.58,-580 843.58,-580 843.58,-580 1109.58,-580 1109.58,-580 1115.58,-580 1121.58,-586 1121.58,-592 1121.58,-592 1121.58,-604 1121.58,-604 1121.58,-610 1115.58,-616 1109.58,-616"/>
<text text-anchor="middle" x="976.58" y="-594.3" font-family="Times,serif" font-size="14.00" fill="#314b5f">symfony/deprecation&#45;contracts: v3.4.0</text>
</g>
<!-- symfony/serializer&#45;&gt;symfony/deprecation&#45;contracts -->
<g id="edge54" class="edge">
<title>symfony/serializer&#45;&gt;symfony/deprecation&#45;contracts</title>
<path fill="none" stroke="#1a2833" d="M579.89,-935.95C604.18,-926.12 629.04,-911.24 644.08,-889 676.77,-840.66 621.3,-668.75 662.08,-627 684.69,-603.85 753.47,-595.91 820.86,-594.06"/>
<polygon fill="#1a2833" stroke="#1a2833" points="821.3,-597.55 831.22,-593.83 821.14,-590.56 821.3,-597.55"/>
<text text-anchor="middle" x="737.58" y="-630" font-family="Times,serif" font-size="10.00" fill="#767676">^2.5|^3</text>
</g>
<!-- symfony/polyfill&#45;ctype -->
<g id="node36" class="node">
<title>symfony/polyfill&#45;ctype</title>
<path fill="#eeeeee" stroke="black" d="M1082.08,-886C1082.08,-886 871.08,-886 871.08,-886 865.08,-886 859.08,-880 859.08,-874 859.08,-874 859.08,-862 859.08,-862 859.08,-856 865.08,-850 871.08,-850 871.08,-850 1082.08,-850 1082.08,-850 1088.08,-850 1094.08,-856 1094.08,-862 1094.08,-862 1094.08,-874 1094.08,-874 1094.08,-880 1088.08,-886 1082.08,-886"/>
<text text-anchor="middle" x="976.58" y="-864.3" font-family="Times,serif" font-size="14.00" fill="#314b5f">symfony/polyfill&#45;ctype: v1.29.0</text>
</g>
<!-- symfony/serializer&#45;&gt;symfony/polyfill&#45;ctype -->
<g id="edge55" class="edge">
<title>symfony/serializer&#45;&gt;symfony/polyfill&#45;ctype</title>
<path fill="none" stroke="#1a2833" d="M609.42,-945.9C690.75,-938.73 794.99,-928.04 813.08,-919 823.48,-913.8 820.96,-905.73 831.08,-900 838.07,-896.04 845.52,-892.57 853.19,-889.53"/>
<polygon fill="#1a2833" stroke="#1a2833" points="854.49,-892.78 862.66,-886.03 852.06,-886.21 854.49,-892.78"/>
<text text-anchor="middle" x="737.58" y="-943" font-family="Times,serif" font-size="10.00" fill="#767676">~1.8</text>
</g>
<!-- symfony/framework&#45;bundle&#45;&gt;php -->
<g id="edge60" class="edge">
<title>symfony/framework&#45;bundle&#45;&gt;php</title>
<path fill="none" stroke="#1a2833" d="M514.19,-465.7C527.63,-416.39 571.67,-280.08 662.08,-215 745.25,-155.12 1035.72,-126.82 1122.08,-182 1166.65,-210.48 1159.5,-238.62 1172.08,-290 1216.1,-469.8 1216.68,-1066.94 1216.22,-1203.86"/>
<polygon fill="#1a2833" stroke="#1a2833" points="1212.72,-1203.94 1216.18,-1213.95 1219.72,-1203.96 1212.72,-1203.94"/>
<text text-anchor="middle" x="976.58" y="-185" font-family="Times,serif" font-size="10.00" fill="#767676">&gt;=8.1</text>
</g>
<!-- symfony/framework&#45;bundle&#45;&gt;composer&#45;runtime&#45;api -->
<g id="edge58" class="edge">
<title>symfony/framework&#45;bundle&#45;&gt;composer&#45;runtime&#45;api</title>
<path fill="none" stroke="#1a2833" d="M546.29,-502.11C576.65,-516.35 621.23,-535.63 662.08,-547 727.48,-565.2 761.28,-526.12 813.08,-570 832.7,-586.63 811.74,-608.05 831.08,-625 844.76,-636.99 862.03,-644.4 879.83,-648.84"/>
<polygon fill="#1a2833" stroke="#1a2833" points="879.23,-652.3 889.75,-651.02 880.73,-645.46 879.23,-652.3"/>
<text text-anchor="middle" x="737.58" y="-573" font-family="Times,serif" font-size="10.00" fill="#767676">&gt;=2.1</text>
</g>
<!-- symfony/framework&#45;bundle&#45;&gt;symfony/cache -->
<g id="edge61" class="edge">
<title>symfony/framework&#45;bundle&#45;&gt;symfony/cache</title>
<path fill="none" stroke="#1a2833" d="M557.57,-502.14C588.09,-516.42 625.29,-539.56 644.08,-573 670.06,-619.24 629.46,-1008.18 662.08,-1050 705.07,-1105.12 767.93,-1040.63 813.08,-1094 857.3,-1146.27 785.16,-1196.21 831.08,-1247 843.71,-1260.98 860.96,-1269.57 879.15,-1274.72"/>
<polygon fill="#1a2833" stroke="#1a2833" points="878.47,-1278.16 889.02,-1277.18 880.16,-1271.37 878.47,-1278.16"/>
<text text-anchor="middle" x="737.58" y="-1097" font-family="Times,serif" font-size="10.00" fill="#767676">^5.4|^6.0|^7.0</text>
</g>
<!-- symfony/framework&#45;bundle&#45;&gt;symfony/config -->
<g id="edge62" class="edge">
<title>symfony/framework&#45;bundle&#45;&gt;symfony/config</title>
<path fill="none" stroke="#1a2833" d="M555.78,-502.13C586.13,-516.58 623.84,-539.92 644.08,-573 662.75,-603.52 636.45,-708.03 662.08,-733 677.42,-747.94 791.57,-754.71 877.74,-757.71"/>
<polygon fill="#1a2833" stroke="#1a2833" points="877.72,-761.21 887.83,-758.05 877.95,-754.22 877.72,-761.21"/>
<text text-anchor="middle" x="737.58" y="-757" font-family="Times,serif" font-size="10.00" fill="#767676">^6.1|^7.0</text>
</g>
<!-- symfony/framework&#45;bundle&#45;&gt;symfony/dependency&#45;injection -->
<g id="edge63" class="edge">
<title>symfony/framework&#45;bundle&#45;&gt;symfony/dependency&#45;injection</title>
<path fill="none" stroke="#1a2833" d="M552.01,-502.04C582,-516.89 620.84,-540.74 644.08,-573 662.1,-598.02 639.1,-619.44 662.08,-640 712.68,-685.26 751.63,-634.15 813.08,-663 822.77,-667.55 821.47,-674.29 831.08,-679 834.95,-680.9 838.93,-682.66 843,-684.3"/>
<polygon fill="#1a2833" stroke="#1a2833" points="842.05,-687.68 852.64,-687.9 844.5,-681.12 842.05,-687.68"/>
<text text-anchor="middle" x="737.58" y="-666" font-family="Times,serif" font-size="10.00" fill="#767676">^6.4|^7.0</text>
</g>
<!-- symfony/framework&#45;bundle&#45;&gt;symfony/event&#45;dispatcher -->
<g id="edge66" class="edge">
<title>symfony/framework&#45;bundle&#45;&gt;symfony/event&#45;dispatcher</title>
<path fill="none" stroke="#1a2833" d="M556.54,-502.03C587.03,-516.38 624.59,-539.63 644.08,-573 672.51,-621.67 620.83,-787.58 662.08,-826 691.32,-853.23 790.02,-845.31 868.96,-833.58"/>
<polygon fill="#1a2833" stroke="#1a2833" points="869.62,-837.02 878.97,-832.06 868.56,-830.1 869.62,-837.02"/>
<text text-anchor="middle" x="737.58" y="-847" font-family="Times,serif" font-size="10.00" fill="#767676">^5.4|^6.0|^7.0</text>
</g>
<!-- symfony/framework&#45;bundle&#45;&gt;symfony/finder -->
<g id="edge68" class="edge">
<title>symfony/framework&#45;bundle&#45;&gt;symfony/finder</title>
<path fill="none" stroke="#1a2833" d="M516.35,-465.85C533.39,-422.94 582.49,-315.13 662.08,-266 726.62,-226.16 812.57,-215.89 878.15,-214.9"/>
<polygon fill="#1a2833" stroke="#1a2833" points="878.53,-218.39 888.5,-214.81 878.47,-211.39 878.53,-218.39"/>
<text text-anchor="middle" x="737.58" y="-269" font-family="Times,serif" font-size="10.00" fill="#767676">^5.4|^6.0|^7.0</text>
</g>
<!-- symfony/framework&#45;bundle&#45;&gt;symfony/deprecation&#45;contracts -->
<g id="edge64" class="edge">
<title>symfony/framework&#45;bundle&#45;&gt;symfony/deprecation&#45;contracts</title>
<path fill="none" stroke="#1a2833" d="M601.41,-502.03C621.39,-505.79 642.42,-509.64 662.08,-513 728.99,-524.45 757.97,-496.36 813.08,-536 827.28,-546.21 817.05,-560.55 831.08,-571 832.91,-572.36 834.79,-573.66 836.71,-574.9"/>
<polygon fill="#1a2833" stroke="#1a2833" points="834.98,-577.95 845.38,-579.97 838.51,-571.91 834.98,-577.95"/>
<text text-anchor="middle" x="737.58" y="-539" font-family="Times,serif" font-size="10.00" fill="#767676">^2.5|^3</text>
</g>
<!-- ext&#45;xml -->
<g id="node38" class="node">
<title>ext&#45;xml</title>
<path fill="#eeeeee" stroke="black" d="M999.58,-292C999.58,-292 953.58,-292 953.58,-292 947.58,-292 941.58,-286 941.58,-280 941.58,-280 941.58,-268 941.58,-268 941.58,-262 947.58,-256 953.58,-256 953.58,-256 999.58,-256 999.58,-256 1005.58,-256 1011.58,-262 1011.58,-268 1011.58,-268 1011.58,-280 1011.58,-280 1011.58,-286 1005.58,-292 999.58,-292"/>
<text text-anchor="middle" x="976.58" y="-270.3" font-family="Times,serif" font-size="14.00" fill="#314b5f">ext&#45;xml</text>
</g>
<!-- symfony/framework&#45;bundle&#45;&gt;ext&#45;xml -->
<g id="edge59" class="edge">
<title>symfony/framework&#45;bundle&#45;&gt;ext&#45;xml</title>
<path fill="none" stroke="#1a2833" d="M521.08,-465.96C543.62,-432.27 597.11,-360.13 662.08,-326 749.52,-280.06 867.99,-272.94 931.32,-272.82"/>
<polygon fill="#1a2833" stroke="#1a2833" points="931.35,-276.32 941.37,-272.86 931.38,-269.32 931.35,-276.32"/>
<text text-anchor="middle" x="737.58" y="-329" font-family="Times,serif" font-size="10.00" fill="#767676">*</text>
</g>
<!-- symfony/error&#45;handler -->
<g id="node39" class="node">
<title>symfony/error&#45;handler</title>
<path fill="#eeeeee" stroke="black" d="M1079.58,-562C1079.58,-562 873.58,-562 873.58,-562 867.58,-562 861.58,-556 861.58,-550 861.58,-550 861.58,-538 861.58,-538 861.58,-532 867.58,-526 873.58,-526 873.58,-526 1079.58,-526 1079.58,-526 1085.58,-526 1091.58,-532 1091.58,-538 1091.58,-538 1091.58,-550 1091.58,-550 1091.58,-556 1085.58,-562 1079.58,-562"/>
<text text-anchor="middle" x="976.58" y="-540.3" font-family="Times,serif" font-size="14.00" fill="#314b5f">symfony/error&#45;handler: v6.4.6</text>
</g>
<!-- symfony/framework&#45;bundle&#45;&gt;symfony/error&#45;handler -->
<g id="edge65" class="edge">
<title>symfony/framework&#45;bundle&#45;&gt;symfony/error&#45;handler</title>
<path fill="none" stroke="#1a2833" d="M641.37,-483.75C708.45,-485.22 782.22,-489.78 813.08,-502 822.76,-505.83 821.66,-512.57 831.08,-517 837.67,-520.1 844.58,-522.84 851.67,-525.27"/>
<polygon fill="#1a2833" stroke="#1a2833" points="850.83,-528.68 861.42,-528.39 852.97,-522.01 850.83,-528.68"/>
<text text-anchor="middle" x="737.58" y="-505" font-family="Times,serif" font-size="10.00" fill="#767676">^6.1|^7.0</text>
</g>
<!-- symfony/filesystem -->
<g id="node40" class="node">
<title>symfony/filesystem</title>
<path fill="#eeeeee" stroke="black" d="M1068.08,-508C1068.08,-508 885.08,-508 885.08,-508 879.08,-508 873.08,-502 873.08,-496 873.08,-496 873.08,-484 873.08,-484 873.08,-478 879.08,-472 885.08,-472 885.08,-472 1068.08,-472 1068.08,-472 1074.08,-472 1080.08,-478 1080.08,-484 1080.08,-484 1080.08,-496 1080.08,-496 1080.08,-502 1074.08,-508 1068.08,-508"/>
<text text-anchor="middle" x="976.58" y="-486.3" font-family="Times,serif" font-size="14.00" fill="#314b5f">symfony/filesystem: v6.4.6</text>
</g>
<!-- symfony/framework&#45;bundle&#45;&gt;symfony/filesystem -->
<g id="edge67" class="edge">
<title>symfony/framework&#45;bundle&#45;&gt;symfony/filesystem</title>
<path fill="none" stroke="#1a2833" d="M641.35,-469.31C648.36,-468.8 655.3,-468.35 662.08,-468 729.1,-464.49 746.12,-463.49 813.08,-468 829.19,-469.09 846.14,-470.77 862.77,-472.74"/>
<polygon fill="#1a2833" stroke="#1a2833" points="862.72,-476.26 873.07,-473.99 863.57,-469.31 862.72,-476.26"/>
<text text-anchor="middle" x="737.58" y="-471" font-family="Times,serif" font-size="10.00" fill="#767676">^5.4|^6.0|^7.0</text>
</g>
<!-- symfony/http&#45;foundation -->
<g id="node41" class="node">
<title>symfony/http&#45;foundation</title>
<path fill="#eeeeee" stroke="black" d="M1087.08,-137C1087.08,-137 866.08,-137 866.08,-137 860.08,-137 854.08,-131 854.08,-125 854.08,-125 854.08,-113 854.08,-113 854.08,-107 860.08,-101 866.08,-101 866.08,-101 1087.08,-101 1087.08,-101 1093.08,-101 1099.08,-107 1099.08,-113 1099.08,-113 1099.08,-125 1099.08,-125 1099.08,-131 1093.08,-137 1087.08,-137"/>
<text text-anchor="middle" x="976.58" y="-115.3" font-family="Times,serif" font-size="14.00" fill="#314b5f">symfony/http&#45;foundation: v6.4.4</text>
</g>
<!-- symfony/framework&#45;bundle&#45;&gt;symfony/http&#45;foundation -->
<g id="edge69" class="edge">
<title>symfony/framework&#45;bundle&#45;&gt;symfony/http&#45;foundation</title>
<path fill="none" stroke="#1a2833" d="M515.18,-465.79C535.25,-401.7 605.45,-188.3 662.08,-148 713.97,-111.07 783.56,-101.75 844,-102.56"/>
<polygon fill="#1a2833" stroke="#1a2833" points="843.93,-106.06 854,-102.78 844.09,-99.06 843.93,-106.06"/>
<text text-anchor="middle" x="737.58" y="-151" font-family="Times,serif" font-size="10.00" fill="#767676">^6.4|^7.0</text>
</g>
<!-- symfony/http&#45;kernel -->
<g id="node42" class="node">
<title>symfony/http&#45;kernel</title>
<path fill="#eeeeee" stroke="black" d="M1071.58,-454C1071.58,-454 881.58,-454 881.58,-454 875.58,-454 869.58,-448 869.58,-442 869.58,-442 869.58,-430 869.58,-430 869.58,-424 875.58,-418 881.58,-418 881.58,-418 1071.58,-418 1071.58,-418 1077.58,-418 1083.58,-424 1083.58,-430 1083.58,-430 1083.58,-442 1083.58,-442 1083.58,-448 1077.58,-454 1071.58,-454"/>
<text text-anchor="middle" x="976.58" y="-432.3" font-family="Times,serif" font-size="14.00" fill="#314b5f">symfony/http&#45;kernel: v6.4.6</text>
</g>
<!-- symfony/framework&#45;bundle&#45;&gt;symfony/http&#45;kernel -->
<g id="edge70" class="edge">
<title>symfony/framework&#45;bundle&#45;&gt;symfony/http&#45;kernel</title>
<path fill="none" stroke="#1a2833" d="M575.9,-465.98C602.49,-459.49 633.54,-452.83 662.08,-449 726.89,-440.29 799.87,-436.89 859.09,-435.74"/>
<polygon fill="#1a2833" stroke="#1a2833" points="859.29,-439.24 869.22,-435.56 859.16,-432.24 859.29,-439.24"/>
<text text-anchor="middle" x="737.58" y="-452" font-family="Times,serif" font-size="10.00" fill="#767676">^6.4</text>
</g>
<!-- symfony/polyfill&#45;mbstring -->
<g id="node43" class="node">
<title>symfony/polyfill&#45;mbstring</title>
<path fill="#eeeeee" stroke="black" d="M1095.08,-400C1095.08,-400 858.08,-400 858.08,-400 852.08,-400 846.08,-394 846.08,-388 846.08,-388 846.08,-376 846.08,-376 846.08,-370 852.08,-364 858.08,-364 858.08,-364 1095.08,-364 1095.08,-364 1101.08,-364 1107.08,-370 1107.08,-376 1107.08,-376 1107.08,-388 1107.08,-388 1107.08,-394 1101.08,-400 1095.08,-400"/>
<text text-anchor="middle" x="976.58" y="-378.3" font-family="Times,serif" font-size="14.00" fill="#314b5f">symfony/polyfill&#45;mbstring: v1.29.0</text>
</g>
<!-- symfony/framework&#45;bundle&#45;&gt;symfony/polyfill&#45;mbstring -->
<g id="edge71" class="edge">
<title>symfony/framework&#45;bundle&#45;&gt;symfony/polyfill&#45;mbstring</title>
<path fill="none" stroke="#1a2833" d="M546.26,-465.94C576.59,-451.78 621.16,-432.73 662.08,-422 718.04,-407.32 781.08,-397.95 835.88,-392"/>
<polygon fill="#1a2833" stroke="#1a2833" points="836.44,-395.46 846.01,-390.93 835.7,-388.5 836.44,-395.46"/>
<text text-anchor="middle" x="737.58" y="-425" font-family="Times,serif" font-size="10.00" fill="#767676">~1.0</text>
</g>
<!-- symfony/routing -->
<g id="node44" class="node">
<title>symfony/routing</title>
<path fill="#eeeeee" stroke="black" d="M1058.08,-346C1058.08,-346 895.08,-346 895.08,-346 889.08,-346 883.08,-340 883.08,-334 883.08,-334 883.08,-322 883.08,-322 883.08,-316 889.08,-310 895.08,-310 895.08,-310 1058.08,-310 1058.08,-310 1064.08,-310 1070.08,-316 1070.08,-322 1070.08,-322 1070.08,-334 1070.08,-334 1070.08,-340 1064.08,-346 1058.08,-346"/>
<text text-anchor="middle" x="976.58" y="-324.3" font-family="Times,serif" font-size="14.00" fill="#314b5f">symfony/routing: v6.4.6</text>
</g>
<!-- symfony/framework&#45;bundle&#45;&gt;symfony/routing -->
<g id="edge72" class="edge">
<title>symfony/framework&#45;bundle&#45;&gt;symfony/routing</title>
<path fill="none" stroke="#1a2833" d="M530.09,-465.62C557.88,-441.81 610.03,-400.88 662.08,-380 729.26,-353.05 809.92,-340.07 872.6,-333.81"/>
<polygon fill="#1a2833" stroke="#1a2833" points="873.27,-337.27 882.89,-332.83 872.61,-330.3 873.27,-337.27"/>
<text text-anchor="middle" x="737.58" y="-383" font-family="Times,serif" font-size="10.00" fill="#767676">^6.4|^7.0</text>
</g>
<!-- bamarni/composer&#45;bin&#45;plugin&#45;&gt;php -->
<g id="edge75" class="edge">
<title>bamarni/composer&#45;bin&#45;plugin&#45;&gt;php</title>
<path fill="none" stroke="#1a2833" d="M644.14,-66.42C812.41,-60.61 1083.27,-55.51 1122.08,-81 1167.3,-110.7 1159.6,-139.35 1172.08,-192 1219.46,-391.87 1217.39,-1056.85 1216.33,-1203.31"/>
<polygon fill="#1a2833" stroke="#1a2833" points="1212.83,-1203.65 1216.25,-1213.68 1219.83,-1203.71 1212.83,-1203.65"/>
<text text-anchor="middle" x="976.58" y="-84" font-family="Times,serif" font-size="10.00" fill="#767676">^7.2.5 || ^8.0</text>
</g>
<!-- composer&#45;plugin&#45;api -->
<g id="node46" class="node">
<title>composer&#45;plugin&#45;api</title>
<path fill="#eeeeee" stroke="black" d="M1045.08,-36C1045.08,-36 908.08,-36 908.08,-36 902.08,-36 896.08,-30 896.08,-24 896.08,-24 896.08,-12 896.08,-12 896.08,-6 902.08,0 908.08,0 908.08,0 1045.08,0 1045.08,0 1051.08,0 1057.08,-6 1057.08,-12 1057.08,-12 1057.08,-24 1057.08,-24 1057.08,-30 1051.08,-36 1045.08,-36"/>
<text text-anchor="middle" x="976.58" y="-14.3" font-family="Times,serif" font-size="14.00" fill="#314b5f">composer&#45;plugin&#45;api</text>
</g>
<!-- bamarni/composer&#45;bin&#45;plugin&#45;&gt;composer&#45;plugin&#45;api -->
<g id="edge74" class="edge">
<title>bamarni/composer&#45;bin&#45;plugin&#45;&gt;composer&#45;plugin&#45;api</title>
<path fill="none" stroke="#1a2833" d="M613.62,-53.94C629.81,-51.42 646.38,-49.01 662.08,-47 737.19,-37.38 822.82,-29.68 885.58,-24.64"/>
<polygon fill="#1a2833" stroke="#1a2833" points="886.15,-28.1 895.84,-23.82 885.6,-21.13 886.15,-28.1"/>
<text text-anchor="middle" x="737.58" y="-50" font-family="Times,serif" font-size="10.00" fill="#767676">^2.0</text>
</g>
</g>
</svg>
