<?xml version="1.0" encoding="UTF-8" standalone="no"?>
<!DOCTYPE svg PUBLIC "-//W3C//DTD SVG 1.1//EN"
 "http://www.w3.org/Graphics/SVG/1.1/DTD/svg11.dtd">
<!-- Generated by graphviz version 2.43.0 (0)
 -->
<!-- Title: %3 Pages: 1 -->
<svg width="1223pt" height="2377pt"
 viewBox="0.00 0.00 1223.08 2377.00" xmlns="http://www.w3.org/2000/svg" xmlns:xlink="http://www.w3.org/1999/xlink">
<g id="graph0" class="graph" transform="scale(1 1) rotate(0) translate(4 2373)">
<title>%3</title>
<polygon fill="white" stroke="transparent" points="-4,4 -4,-2373 1219.08,-2373 1219.08,4 -4,4"/>
<!-- bartlett/php&#45;compatinfo -->
<g id="node1" class="node">
<title>bartlett/php&#45;compatinfo</title>
<ellipse fill="lightgrey" stroke="black" stroke-width="2" cx="121.54" cy="-1286" rx="121.58" ry="18"/>
<text text-anchor="middle" x="121.54" y="-1282.3" font-family="Times,serif" font-size="14.00">bartlett/php&#45;compatinfo</text>
</g>
<!-- php -->
<g id="node2" class="node">
<title>php</title>
<path fill="#eeeeee" stroke="black" d="M1203.08,-980C1203.08,-980 1173.08,-980 1173.08,-980 1167.08,-980 1161.08,-974 1161.08,-968 1161.08,-968 1161.08,-956 1161.08,-956 1161.08,-950 1167.08,-944 1173.08,-944 1173.08,-944 1203.08,-944 1203.08,-944 1209.08,-944 1215.08,-950 1215.08,-956 1215.08,-956 1215.08,-968 1215.08,-968 1215.08,-974 1209.08,-980 1203.08,-980"/>
<text text-anchor="middle" x="1188.08" y="-958.3" font-family="Times,serif" font-size="14.00" fill="#314b5f">php</text>
</g>
<!-- bartlett/php&#45;compatinfo&#45;&gt;php -->
<g id="edge1" class="edge">
<title>bartlett/php&#45;compatinfo&#45;&gt;php</title>
<path fill="none" stroke="#1a2833" d="M123.75,-1304.25C131.53,-1418.47 176.96,-2035.47 261.08,-2202 284.6,-2248.57 296.26,-2264.15 344.08,-2285 496.68,-2351.55 961.16,-2403.56 1093.08,-2302 1161.93,-2249 1130.23,-2198.93 1143.08,-2113 1176.94,-1886.54 1185.43,-1144.19 1186.84,-990.14"/>
<polygon fill="#1a2833" stroke="#1a2833" points="1190.34,-990.12 1186.93,-980.08 1183.34,-990.05 1190.34,-990.12"/>
<text text-anchor="middle" x="708.58" y="-2361" font-family="Times,serif" font-size="10.00" fill="#767676">~8.0 || ~8.1 || ~8.2 || ~8.3</text>
</g>
<!-- ext&#45;json -->
<g id="node3" class="node">
<title>ext&#45;json</title>
<path fill="#eeeeee" stroke="black" d="M972.08,-1547C972.08,-1547 923.08,-1547 923.08,-1547 917.08,-1547 911.08,-1541 911.08,-1535 911.08,-1535 911.08,-1523 911.08,-1523 911.08,-1517 917.08,-1511 923.08,-1511 923.08,-1511 972.08,-1511 972.08,-1511 978.08,-1511 984.08,-1517 984.08,-1523 984.08,-1523 984.08,-1535 984.08,-1535 984.08,-1541 978.08,-1547 972.08,-1547"/>
<text text-anchor="middle" x="947.58" y="-1525.3" font-family="Times,serif" font-size="14.00" fill="#314b5f">ext&#45;json</text>
</g>
<!-- bartlett/php&#45;compatinfo&#45;&gt;ext&#45;json -->
<g id="edge2" class="edge">
<title>bartlett/php&#45;compatinfo&#45;&gt;ext&#45;json</title>
<path fill="none" stroke="#1a2833" d="M136.18,-1303.88C167.94,-1344.24 251.27,-1442.75 344.08,-1493 518.27,-1587.3 590.31,-1605.12 784.08,-1564 792.64,-1562.18 793.72,-1558.6 802.08,-1556 834.42,-1545.94 872.06,-1539.06 900.81,-1534.76"/>
<polygon fill="#1a2833" stroke="#1a2833" points="901.58,-1538.18 910.98,-1533.29 900.58,-1531.26 901.58,-1538.18"/>
<text text-anchor="middle" x="479.58" y="-1587" font-family="Times,serif" font-size="10.00" fill="#767676">*</text>
</g>
<!-- ext&#45;pcre -->
<g id="node4" class="node">
<title>ext&#45;pcre</title>
<path fill="#eeeeee" stroke="black" d="M973.08,-2293C973.08,-2293 922.08,-2293 922.08,-2293 916.08,-2293 910.08,-2287 910.08,-2281 910.08,-2281 910.08,-2269 910.08,-2269 910.08,-2263 916.08,-2257 922.08,-2257 922.08,-2257 973.08,-2257 973.08,-2257 979.08,-2257 985.08,-2263 985.08,-2269 985.08,-2269 985.08,-2281 985.08,-2281 985.08,-2287 979.08,-2293 973.08,-2293"/>
<text text-anchor="middle" x="947.58" y="-2271.3" font-family="Times,serif" font-size="14.00" fill="#314b5f">ext&#45;pcre</text>
</g>
<!-- bartlett/php&#45;compatinfo&#45;&gt;ext&#45;pcre -->
<g id="edge3" class="edge">
<title>bartlett/php&#45;compatinfo&#45;&gt;ext&#45;pcre</title>
<path fill="none" stroke="#1a2833" d="M122.89,-1304.19C125.42,-1417.97 144.42,-2031.18 261.08,-2168 288.48,-2200.13 336.39,-2232.7 633.08,-2273 726.89,-2285.74 837.95,-2282.09 899.51,-2278.44"/>
<polygon fill="#1a2833" stroke="#1a2833" points="899.92,-2281.92 909.68,-2277.81 899.48,-2274.94 899.92,-2281.92"/>
<text text-anchor="middle" x="479.58" y="-2273" font-family="Times,serif" font-size="10.00" fill="#767676">*</text>
</g>
<!-- ext&#45;spl -->
<g id="node5" class="node">
<title>ext&#45;spl</title>
<path fill="#eeeeee" stroke="black" d="M968.08,-2188C968.08,-2188 927.08,-2188 927.08,-2188 921.08,-2188 915.08,-2182 915.08,-2176 915.08,-2176 915.08,-2164 915.08,-2164 915.08,-2158 921.08,-2152 927.08,-2152 927.08,-2152 968.08,-2152 968.08,-2152 974.08,-2152 980.08,-2158 980.08,-2164 980.08,-2164 980.08,-2176 980.08,-2176 980.08,-2182 974.08,-2188 968.08,-2188"/>
<text text-anchor="middle" x="947.58" y="-2166.3" font-family="Times,serif" font-size="14.00" fill="#314b5f">ext&#45;spl</text>
</g>
<!-- bartlett/php&#45;compatinfo&#45;&gt;ext&#45;spl -->
<g id="edge4" class="edge">
<title>bartlett/php&#45;compatinfo&#45;&gt;ext&#45;spl</title>
<path fill="none" stroke="#1a2833" d="M125.35,-1304.33C141.78,-1408.87 228.53,-1928.84 344.08,-2033 441.13,-2120.49 504.62,-2063.09 633.08,-2087 700.18,-2099.49 727.42,-2076.95 784.08,-2115 796.36,-2123.25 789.8,-2134.74 802.08,-2143 832.29,-2163.32 873.71,-2169.38 904.46,-2170.76"/>
<polygon fill="#1a2833" stroke="#1a2833" points="904.76,-2174.27 914.86,-2171.07 904.97,-2167.27 904.76,-2174.27"/>
<text text-anchor="middle" x="479.58" y="-2086" font-family="Times,serif" font-size="10.00" fill="#767676">*</text>
</g>
<!-- bartlett/php&#45;compatinfo&#45;db -->
<g id="node6" class="node">
<title>bartlett/php&#45;compatinfo&#45;db</title>
<path fill="#eeeeee" stroke="black" d="M594.58,-1765C594.58,-1765 364.58,-1765 364.58,-1765 358.58,-1765 352.58,-1759 352.58,-1753 352.58,-1753 352.58,-1741 352.58,-1741 352.58,-1735 358.58,-1729 364.58,-1729 364.58,-1729 594.58,-1729 594.58,-1729 600.58,-1729 606.58,-1735 606.58,-1741 606.58,-1741 606.58,-1753 606.58,-1753 606.58,-1759 600.58,-1765 594.58,-1765"/>
<text text-anchor="middle" x="479.58" y="-1743.3" font-family="Times,serif" font-size="14.00" fill="#314b5f">bartlett/php&#45;compatinfo&#45;db: 6.1.1</text>
</g>
<!-- bartlett/php&#45;compatinfo&#45;&gt;bartlett/php&#45;compatinfo&#45;db -->
<g id="edge25" class="edge">
<title>bartlett/php&#45;compatinfo&#45;&gt;bartlett/php&#45;compatinfo&#45;db</title>
<path fill="none" stroke="#1a2833" d="M127.1,-1304C140.52,-1354.17 183.83,-1498.1 261.08,-1592 309.37,-1650.7 385,-1697.78 433.16,-1724.06"/>
<polygon fill="#1a2833" stroke="#1a2833" points="431.65,-1727.22 442.11,-1728.87 434.96,-1721.05 431.65,-1727.22"/>
<text text-anchor="middle" x="293.58" y="-1655" font-family="Times,serif" font-size="10.00" fill="#767676">^5.12 || ^6.0</text>
</g>
<!-- composer&#45;runtime&#45;api -->
<g id="node7" class="node">
<title>composer&#45;runtime&#45;api</title>
<path fill="#eeeeee" stroke="black" d="M1022.08,-1439C1022.08,-1439 873.08,-1439 873.08,-1439 867.08,-1439 861.08,-1433 861.08,-1427 861.08,-1427 861.08,-1415 861.08,-1415 861.08,-1409 867.08,-1403 873.08,-1403 873.08,-1403 1022.08,-1403 1022.08,-1403 1028.08,-1403 1034.08,-1409 1034.08,-1415 1034.08,-1415 1034.08,-1427 1034.08,-1427 1034.08,-1433 1028.08,-1439 1022.08,-1439"/>
<text text-anchor="middle" x="947.58" y="-1417.3" font-family="Times,serif" font-size="14.00" fill="#314b5f">composer&#45;runtime&#45;api</text>
</g>
<!-- bartlett/php&#45;compatinfo&#45;&gt;composer&#45;runtime&#45;api -->
<g id="edge31" class="edge">
<title>bartlett/php&#45;compatinfo&#45;&gt;composer&#45;runtime&#45;api</title>
<path fill="none" stroke="#1a2833" d="M173.29,-1302.36C264.27,-1330.83 461.66,-1388.66 633.08,-1412 705.65,-1421.88 788.51,-1423.86 850.81,-1423.52"/>
<polygon fill="#1a2833" stroke="#1a2833" points="851.05,-1427.02 861.02,-1423.44 850.99,-1420.02 851.05,-1427.02"/>
<text text-anchor="middle" x="479.58" y="-1411" font-family="Times,serif" font-size="10.00" fill="#767676">^2.1</text>
</g>
<!-- symfony/config -->
<g id="node14" class="node">
<title>symfony/config</title>
<path fill="#eeeeee" stroke="black" d="M1024.08,-1351C1024.08,-1351 871.08,-1351 871.08,-1351 865.08,-1351 859.08,-1345 859.08,-1339 859.08,-1339 859.08,-1327 859.08,-1327 859.08,-1321 865.08,-1315 871.08,-1315 871.08,-1315 1024.08,-1315 1024.08,-1315 1030.08,-1315 1036.08,-1321 1036.08,-1327 1036.08,-1327 1036.08,-1339 1036.08,-1339 1036.08,-1345 1030.08,-1351 1024.08,-1351"/>
<text text-anchor="middle" x="947.58" y="-1329.3" font-family="Times,serif" font-size="14.00" fill="#314b5f">symfony/config: v6.4.0</text>
</g>
<!-- bartlett/php&#45;compatinfo&#45;&gt;symfony/config -->
<g id="edge45" class="edge">
<title>bartlett/php&#45;compatinfo&#45;&gt;symfony/config</title>
<path fill="none" stroke="#1a2833" d="M231.55,-1293.68C334.9,-1300.81 494.5,-1311.43 633.08,-1319 705.35,-1322.95 787.04,-1326.57 848.91,-1329.14"/>
<polygon fill="#1a2833" stroke="#1a2833" points="848.92,-1332.64 859.06,-1329.56 849.21,-1325.65 848.92,-1332.64"/>
<text text-anchor="middle" x="479.58" y="-1320" font-family="Times,serif" font-size="10.00" fill="#767676">^5.4 || ^6.0</text>
</g>
<!-- symfony/console -->
<g id="node15" class="node">
<title>symfony/console</title>
<path fill="#eeeeee" stroke="black" d="M1029.58,-1493C1029.58,-1493 865.58,-1493 865.58,-1493 859.58,-1493 853.58,-1487 853.58,-1481 853.58,-1481 853.58,-1469 853.58,-1469 853.58,-1463 859.58,-1457 865.58,-1457 865.58,-1457 1029.58,-1457 1029.58,-1457 1035.58,-1457 1041.58,-1463 1041.58,-1469 1041.58,-1469 1041.58,-1481 1041.58,-1481 1041.58,-1487 1035.58,-1493 1029.58,-1493"/>
<text text-anchor="middle" x="947.58" y="-1471.3" font-family="Times,serif" font-size="14.00" fill="#314b5f">symfony/console: v6.4.2</text>
</g>
<!-- bartlett/php&#45;compatinfo&#45;&gt;symfony/console -->
<g id="edge46" class="edge">
<title>bartlett/php&#45;compatinfo&#45;&gt;symfony/console</title>
<path fill="none" stroke="#1a2833" d="M144.59,-1303.78C182.76,-1333.56 264.7,-1393.19 344.08,-1423 510.42,-1485.46 720.15,-1488.06 843.2,-1482.65"/>
<polygon fill="#1a2833" stroke="#1a2833" points="843.54,-1486.14 853.37,-1482.18 843.22,-1479.15 843.54,-1486.14"/>
<text text-anchor="middle" x="479.58" y="-1481" font-family="Times,serif" font-size="10.00" fill="#767676">^5.4 || ^6.0</text>
</g>
<!-- symfony/dependency&#45;injection -->
<g id="node16" class="node">
<title>symfony/dependency&#45;injection</title>
<path fill="#eeeeee" stroke="black" d="M1078.58,-1283C1078.58,-1283 816.58,-1283 816.58,-1283 810.58,-1283 804.58,-1277 804.58,-1271 804.58,-1271 804.58,-1259 804.58,-1259 804.58,-1253 810.58,-1247 816.58,-1247 816.58,-1247 1078.58,-1247 1078.58,-1247 1084.58,-1247 1090.58,-1253 1090.58,-1259 1090.58,-1259 1090.58,-1271 1090.58,-1271 1090.58,-1277 1084.58,-1283 1078.58,-1283"/>
<text text-anchor="middle" x="947.58" y="-1261.3" font-family="Times,serif" font-size="14.00" fill="#314b5f">symfony/dependency&#45;injection: v6.4.2</text>
</g>
<!-- bartlett/php&#45;compatinfo&#45;&gt;symfony/dependency&#45;injection -->
<g id="edge50" class="edge">
<title>bartlett/php&#45;compatinfo&#45;&gt;symfony/dependency&#45;injection</title>
<path fill="none" stroke="#1a2833" d="M222.81,-1276.02C352.38,-1264.3 584.98,-1247.27 784.08,-1254 787.4,-1254.11 790.76,-1254.24 794.14,-1254.37"/>
<polygon fill="#1a2833" stroke="#1a2833" points="794.23,-1257.88 804.37,-1254.82 794.53,-1250.89 794.23,-1257.88"/>
<text text-anchor="middle" x="479.58" y="-1268" font-family="Times,serif" font-size="10.00" fill="#767676">^5.4 || ^6.0</text>
</g>
<!-- symfony/event&#45;dispatcher -->
<g id="node17" class="node">
<title>symfony/event&#45;dispatcher</title>
<path fill="#eeeeee" stroke="black" d="M1062.58,-1229C1062.58,-1229 832.58,-1229 832.58,-1229 826.58,-1229 820.58,-1223 820.58,-1217 820.58,-1217 820.58,-1205 820.58,-1205 820.58,-1199 826.58,-1193 832.58,-1193 832.58,-1193 1062.58,-1193 1062.58,-1193 1068.58,-1193 1074.58,-1199 1074.58,-1205 1074.58,-1205 1074.58,-1217 1074.58,-1217 1074.58,-1223 1068.58,-1229 1062.58,-1229"/>
<text text-anchor="middle" x="947.58" y="-1207.3" font-family="Times,serif" font-size="14.00" fill="#314b5f">symfony/event&#45;dispatcher: v6.4.2</text>
</g>
<!-- bartlett/php&#45;compatinfo&#45;&gt;symfony/event&#45;dispatcher -->
<g id="edge47" class="edge">
<title>bartlett/php&#45;compatinfo&#45;&gt;symfony/event&#45;dispatcher</title>
<path fill="none" stroke="#1a2833" d="M171.74,-1269.56C305.24,-1226.08 671.77,-1114.48 784.08,-1161 794.53,-1165.33 792.16,-1173.56 802.08,-1179 809.37,-1183 817.12,-1186.49 825.1,-1189.55"/>
<polygon fill="#1a2833" stroke="#1a2833" points="823.97,-1192.87 834.56,-1192.95 826.33,-1186.28 823.97,-1192.87"/>
<text text-anchor="middle" x="479.58" y="-1218" font-family="Times,serif" font-size="10.00" fill="#767676">^5.4 || ^6.0</text>
</g>
<!-- symfony/stopwatch -->
<g id="node22" class="node">
<title>symfony/stopwatch</title>
<path fill="#eeeeee" stroke="black" d="M1039.58,-2134C1039.58,-2134 855.58,-2134 855.58,-2134 849.58,-2134 843.58,-2128 843.58,-2122 843.58,-2122 843.58,-2110 843.58,-2110 843.58,-2104 849.58,-2098 855.58,-2098 855.58,-2098 1039.58,-2098 1039.58,-2098 1045.58,-2098 1051.58,-2104 1051.58,-2110 1051.58,-2110 1051.58,-2122 1051.58,-2122 1051.58,-2128 1045.58,-2134 1039.58,-2134"/>
<text text-anchor="middle" x="947.58" y="-2112.3" font-family="Times,serif" font-size="14.00" fill="#314b5f">symfony/stopwatch: v6.4.0</text>
</g>
<!-- bartlett/php&#45;compatinfo&#45;&gt;symfony/stopwatch -->
<g id="edge55" class="edge">
<title>bartlett/php&#45;compatinfo&#45;&gt;symfony/stopwatch</title>
<path fill="none" stroke="#1a2833" d="M127.02,-1304.32C141.29,-1360.81 188.99,-1536.36 261.08,-1667 290.16,-1719.69 302.84,-1730.16 344.08,-1774 461.23,-1898.56 479.26,-1953.28 633.08,-2028 694.47,-2057.82 728.82,-2015.93 784.08,-2056 797.6,-2065.81 788.56,-2079.18 802.08,-2089 811.6,-2095.91 822.37,-2101.21 833.64,-2105.25"/>
<polygon fill="#1a2833" stroke="#1a2833" points="832.62,-2108.6 843.21,-2108.36 834.78,-2101.94 832.62,-2108.6"/>
<text text-anchor="middle" x="479.58" y="-2021" font-family="Times,serif" font-size="10.00" fill="#767676">^5.4 || ^6.0</text>
</g>
<!-- bartlett/sarif&#45;php&#45;sdk -->
<g id="node23" class="node">
<title>bartlett/sarif&#45;php&#45;sdk</title>
<path fill="#eeeeee" stroke="black" d="M574.08,-2186C574.08,-2186 385.08,-2186 385.08,-2186 379.08,-2186 373.08,-2180 373.08,-2174 373.08,-2174 373.08,-2162 373.08,-2162 373.08,-2156 379.08,-2150 385.08,-2150 385.08,-2150 574.08,-2150 574.08,-2150 580.08,-2150 586.08,-2156 586.08,-2162 586.08,-2162 586.08,-2174 586.08,-2174 586.08,-2180 580.08,-2186 574.08,-2186"/>
<text text-anchor="middle" x="479.58" y="-2164.3" font-family="Times,serif" font-size="14.00" fill="#314b5f">bartlett/sarif&#45;php&#45;sdk: 1.0.1</text>
</g>
<!-- bartlett/php&#45;compatinfo&#45;&gt;bartlett/sarif&#45;php&#45;sdk -->
<g id="edge30" class="edge">
<title>bartlett/php&#45;compatinfo&#45;&gt;bartlett/sarif&#45;php&#45;sdk</title>
<path fill="none" stroke="#1a2833" d="M122.95,-1304.28C125.83,-1414.65 146.24,-1991.4 261.08,-2115 287.24,-2143.16 325.66,-2157.47 362.95,-2164.43"/>
<polygon fill="#1a2833" stroke="#1a2833" points="362.47,-2167.9 372.91,-2166.13 363.64,-2161 362.47,-2167.9"/>
<text text-anchor="middle" x="293.58" y="-2156" font-family="Times,serif" font-size="10.00" fill="#767676">^1.0</text>
</g>
<!-- doctrine/collections -->
<g id="node24" class="node">
<title>doctrine/collections</title>
<path fill="#eeeeee" stroke="black" d="M568.08,-1106C568.08,-1106 391.08,-1106 391.08,-1106 385.08,-1106 379.08,-1100 379.08,-1094 379.08,-1094 379.08,-1082 379.08,-1082 379.08,-1076 385.08,-1070 391.08,-1070 391.08,-1070 568.08,-1070 568.08,-1070 574.08,-1070 580.08,-1076 580.08,-1082 580.08,-1082 580.08,-1094 580.08,-1094 580.08,-1100 574.08,-1106 568.08,-1106"/>
<text text-anchor="middle" x="479.58" y="-1084.3" font-family="Times,serif" font-size="14.00" fill="#314b5f">doctrine/collections: 1.8.0</text>
</g>
<!-- bartlett/php&#45;compatinfo&#45;&gt;doctrine/collections -->
<g id="edge34" class="edge">
<title>bartlett/php&#45;compatinfo&#45;&gt;doctrine/collections</title>
<path fill="none" stroke="#1a2833" d="M131.89,-1268.04C150.99,-1233.35 198.05,-1157.44 261.08,-1122 293.51,-1103.77 332.73,-1094.48 368.88,-1089.98"/>
<polygon fill="#1a2833" stroke="#1a2833" points="369.44,-1093.44 378.99,-1088.83 368.65,-1086.48 369.44,-1093.44"/>
<text text-anchor="middle" x="293.58" y="-1125" font-family="Times,serif" font-size="10.00" fill="#767676">^1.4</text>
</g>
<!-- nikic/php&#45;parser -->
<g id="node26" class="node">
<title>nikic/php&#45;parser</title>
<path fill="#eeeeee" stroke="black" d="M565.08,-1047C565.08,-1047 394.08,-1047 394.08,-1047 388.08,-1047 382.08,-1041 382.08,-1035 382.08,-1035 382.08,-1023 382.08,-1023 382.08,-1017 388.08,-1011 394.08,-1011 394.08,-1011 565.08,-1011 565.08,-1011 571.08,-1011 577.08,-1017 577.08,-1023 577.08,-1023 577.08,-1035 577.08,-1035 577.08,-1041 571.08,-1047 565.08,-1047"/>
<text text-anchor="middle" x="479.58" y="-1025.3" font-family="Times,serif" font-size="14.00" fill="#314b5f">nikic/php&#45;parser: v4.18.0</text>
</g>
<!-- bartlett/php&#45;compatinfo&#45;&gt;nikic/php&#45;parser -->
<g id="edge37" class="edge">
<title>bartlett/php&#45;compatinfo&#45;&gt;nikic/php&#45;parser</title>
<path fill="none" stroke="#1a2833" d="M129.65,-1267.88C146.27,-1227.98 191.58,-1132.15 261.08,-1083 293.37,-1060.16 334.32,-1046.95 371.95,-1039.31"/>
<polygon fill="#1a2833" stroke="#1a2833" points="372.79,-1042.72 381.95,-1037.4 371.47,-1035.84 372.79,-1042.72"/>
<text text-anchor="middle" x="293.58" y="-1086" font-family="Times,serif" font-size="10.00" fill="#767676">^4.10</text>
</g>
<!-- psr/log -->
<g id="node28" class="node">
<title>psr/log</title>
<path fill="#eeeeee" stroke="black" d="M752.08,-980C752.08,-980 665.08,-980 665.08,-980 659.08,-980 653.08,-974 653.08,-968 653.08,-968 653.08,-956 653.08,-956 653.08,-950 659.08,-944 665.08,-944 665.08,-944 752.08,-944 752.08,-944 758.08,-944 764.08,-950 764.08,-956 764.08,-956 764.08,-968 764.08,-968 764.08,-974 758.08,-980 752.08,-980"/>
<text text-anchor="middle" x="708.58" y="-958.3" font-family="Times,serif" font-size="14.00" fill="#314b5f">psr/log: 3.0.0</text>
</g>
<!-- bartlett/php&#45;compatinfo&#45;&gt;psr/log -->
<g id="edge39" class="edge">
<title>bartlett/php&#45;compatinfo&#45;&gt;psr/log</title>
<path fill="none" stroke="#1a2833" d="M128.13,-1267.81C142.79,-1222.9 186.46,-1105.49 261.08,-1038 366.86,-942.32 546.9,-944.07 642.86,-953.22"/>
<polygon fill="#1a2833" stroke="#1a2833" points="642.71,-956.72 653.01,-954.25 643.41,-949.76 642.71,-956.72"/>
<text text-anchor="middle" x="293.58" y="-1041" font-family="Times,serif" font-size="10.00" fill="#767676">^3.0</text>
</g>
<!-- ramsey/uuid -->
<g id="node29" class="node">
<title>ramsey/uuid</title>
<path fill="#eeeeee" stroke="black" d="M542.58,-926C542.58,-926 416.58,-926 416.58,-926 410.58,-926 404.58,-920 404.58,-914 404.58,-914 404.58,-902 404.58,-902 404.58,-896 410.58,-890 416.58,-890 416.58,-890 542.58,-890 542.58,-890 548.58,-890 554.58,-896 554.58,-902 554.58,-902 554.58,-914 554.58,-914 554.58,-920 548.58,-926 542.58,-926"/>
<text text-anchor="middle" x="479.58" y="-904.3" font-family="Times,serif" font-size="14.00" fill="#314b5f">ramsey/uuid: 4.7.5</text>
</g>
<!-- bartlett/php&#45;compatinfo&#45;&gt;ramsey/uuid -->
<g id="edge44" class="edge">
<title>bartlett/php&#45;compatinfo&#45;&gt;ramsey/uuid</title>
<path fill="none" stroke="#1a2833" d="M123.76,-1267.63C128.71,-1209.07 152.63,-1025.57 261.08,-940 298.26,-910.66 350.49,-902.25 394.46,-901.37"/>
<polygon fill="#1a2833" stroke="#1a2833" points="394.59,-904.86 404.57,-901.29 394.54,-897.87 394.59,-904.86"/>
<text text-anchor="middle" x="293.58" y="-943" font-family="Times,serif" font-size="10.00" fill="#767676">^3.9 || ^4.0</text>
</g>
<!-- symfony/finder -->
<g id="node32" class="node">
<title>symfony/finder</title>
<path fill="#eeeeee" stroke="black" d="M1023.58,-137C1023.58,-137 871.58,-137 871.58,-137 865.58,-137 859.58,-131 859.58,-125 859.58,-125 859.58,-113 859.58,-113 859.58,-107 865.58,-101 871.58,-101 871.58,-101 1023.58,-101 1023.58,-101 1029.58,-101 1035.58,-107 1035.58,-113 1035.58,-113 1035.58,-125 1035.58,-125 1035.58,-131 1029.58,-137 1023.58,-137"/>
<text text-anchor="middle" x="947.58" y="-115.3" font-family="Times,serif" font-size="14.00" fill="#314b5f">symfony/finder: v6.4.0</text>
</g>
<!-- bartlett/php&#45;compatinfo&#45;&gt;symfony/finder -->
<g id="edge49" class="edge">
<title>bartlett/php&#45;compatinfo&#45;&gt;symfony/finder</title>
<path fill="none" stroke="#1a2833" d="M123.79,-1267.79C130.79,-1176.22 171.32,-759.51 344.08,-479 448.43,-309.55 455.05,-225.93 633.08,-137 699.74,-103.7 784.59,-100.83 849.2,-105.39"/>
<polygon fill="#1a2833" stroke="#1a2833" points="849.15,-108.89 859.39,-106.18 849.69,-101.91 849.15,-108.89"/>
<text text-anchor="middle" x="479.58" y="-482" font-family="Times,serif" font-size="10.00" fill="#767676">^5.4 || ^6.0</text>
</g>
<!-- symfony/serializer -->
<g id="node33" class="node">
<title>symfony/serializer</title>
<path fill="#eeeeee" stroke="black" d="M568.08,-694C568.08,-694 391.08,-694 391.08,-694 385.08,-694 379.08,-688 379.08,-682 379.08,-682 379.08,-670 379.08,-670 379.08,-664 385.08,-658 391.08,-658 391.08,-658 568.08,-658 568.08,-658 574.08,-658 580.08,-664 580.08,-670 580.08,-670 580.08,-682 580.08,-682 580.08,-688 574.08,-694 568.08,-694"/>
<text text-anchor="middle" x="479.58" y="-672.3" font-family="Times,serif" font-size="14.00" fill="#314b5f">symfony/serializer: v6.4.2</text>
</g>
<!-- bartlett/php&#45;compatinfo&#45;&gt;symfony/serializer -->
<g id="edge54" class="edge">
<title>bartlett/php&#45;compatinfo&#45;&gt;symfony/serializer</title>
<path fill="none" stroke="#1a2833" d="M125.96,-1268.01C137.55,-1210.17 179.24,-1025.17 261.08,-895 312.6,-813.05 399.72,-737.7 446.54,-700.45"/>
<polygon fill="#1a2833" stroke="#1a2833" points="448.83,-703.1 454.52,-694.16 444.5,-697.6 448.83,-703.1"/>
<text text-anchor="middle" x="293.58" y="-898" font-family="Times,serif" font-size="10.00" fill="#767676">^5.4 || ^6.0</text>
</g>
<!-- symfony/framework&#45;bundle -->
<g id="node36" class="node">
<title>symfony/framework&#45;bundle</title>
<path fill="#eeeeee" stroke="black" d="M600.08,-535C600.08,-535 359.08,-535 359.08,-535 353.08,-535 347.08,-529 347.08,-523 347.08,-523 347.08,-511 347.08,-511 347.08,-505 353.08,-499 359.08,-499 359.08,-499 600.08,-499 600.08,-499 606.08,-499 612.08,-505 612.08,-511 612.08,-511 612.08,-523 612.08,-523 612.08,-529 606.08,-535 600.08,-535"/>
<text text-anchor="middle" x="479.58" y="-513.3" font-family="Times,serif" font-size="14.00" fill="#314b5f">symfony/framework&#45;bundle: v6.4.2</text>
</g>
<!-- bartlett/php&#45;compatinfo&#45;&gt;symfony/framework&#45;bundle -->
<g id="edge71" class="edge">
<title>bartlett/php&#45;compatinfo&#45;&gt;symfony/framework&#45;bundle</title>
<path fill="none" stroke="#1a2833" stroke-dasharray="5,2" d="M124.69,-1267.88C135,-1187.42 185.69,-857.31 344.08,-649 375.57,-607.58 419.85,-566.67 448.87,-541.63"/>
<polygon fill="#1a2833" stroke="#1a2833" points="451.3,-544.16 456.63,-535.01 446.75,-538.84 451.3,-544.16"/>
<text text-anchor="middle" x="293.58" y="-776" font-family="Times,serif" font-size="10.00" fill="#767676">^5.4 || ^6.0</text>
</g>
<!-- bamarni/composer&#45;bin&#45;plugin -->
<g id="node44" class="node">
<title>bamarni/composer&#45;bin&#45;plugin</title>
<path fill="#eeeeee" stroke="black" d="M603.08,-87C603.08,-87 356.08,-87 356.08,-87 350.08,-87 344.08,-81 344.08,-75 344.08,-75 344.08,-63 344.08,-63 344.08,-57 350.08,-51 356.08,-51 356.08,-51 603.08,-51 603.08,-51 609.08,-51 615.08,-57 615.08,-63 615.08,-63 615.08,-75 615.08,-75 615.08,-81 609.08,-87 603.08,-87"/>
<text text-anchor="middle" x="479.58" y="-65.3" font-family="Times,serif" font-size="14.00" fill="#314b5f">bamarni/composer&#45;bin&#45;plugin: 1.8.2</text>
</g>
<!-- bartlett/php&#45;compatinfo&#45;&gt;bamarni/composer&#45;bin&#45;plugin -->
<g id="edge74" class="edge">
<title>bartlett/php&#45;compatinfo&#45;&gt;bamarni/composer&#45;bin&#45;plugin</title>
<path fill="none" stroke="#1a2833" stroke-dasharray="5,2" d="M123.33,-1267.89C129.72,-1125.24 174.98,-185.52 261.08,-98 280.53,-78.23 306.51,-67.36 333.73,-61.92"/>
<polygon fill="#1a2833" stroke="#1a2833" points="334.56,-65.33 343.81,-60.16 333.35,-58.43 334.56,-65.33"/>
<text text-anchor="middle" x="293.58" y="-101" font-family="Times,serif" font-size="10.00" fill="#767676">^1.8</text>
</g>
<!-- bartlett/php&#45;compatinfo&#45;db&#45;&gt;php -->
<g id="edge14" class="edge">
<title>bartlett/php&#45;compatinfo&#45;db&#45;&gt;php</title>
<path fill="none" stroke="#1a2833" d="M489.5,-1765.03C509.44,-1803.27 561.55,-1892.48 633.08,-1935 691.75,-1969.88 726.43,-1926.45 784.08,-1963 795.64,-1970.33 789.89,-1981.76 802.08,-1988 859.63,-2017.48 1045.31,-2031.59 1093.08,-1988 1168.88,-1918.82 1184.32,-1149.15 1186.7,-990.5"/>
<polygon fill="#1a2833" stroke="#1a2833" points="1190.21,-990.2 1186.85,-980.15 1183.21,-990.1 1190.21,-990.2"/>
<text text-anchor="middle" x="947.58" y="-2018" font-family="Times,serif" font-size="10.00" fill="#767676">^8.1</text>
</g>
<!-- bartlett/php&#45;compatinfo&#45;db&#45;&gt;ext&#45;json -->
<g id="edge9" class="edge">
<title>bartlett/php&#45;compatinfo&#45;db&#45;&gt;ext&#45;json</title>
<path fill="none" stroke="#1a2833" d="M501.04,-1728.6C528.78,-1704.8 580.87,-1664.02 633.08,-1644 696.35,-1619.74 733.28,-1667.84 784.08,-1623 807.19,-1602.59 779.44,-1576.94 802.08,-1556 828.33,-1531.71 869.15,-1525.92 900.72,-1525.66"/>
<polygon fill="#1a2833" stroke="#1a2833" points="901,-1529.16 911.04,-1525.76 901.07,-1522.16 901,-1529.16"/>
<text text-anchor="middle" x="708.58" y="-1647" font-family="Times,serif" font-size="10.00" fill="#767676">*</text>
</g>
<!-- bartlett/php&#45;compatinfo&#45;db&#45;&gt;ext&#45;pcre -->
<g id="edge10" class="edge">
<title>bartlett/php&#45;compatinfo&#45;db&#45;&gt;ext&#45;pcre</title>
<path fill="none" stroke="#1a2833" d="M492.4,-1765.28C519.34,-1807.91 585.23,-1918.08 615.08,-2020 625.13,-2054.34 610.04,-2152.63 633.08,-2180 678.09,-2233.48 724.41,-2187.58 784.08,-2224 794.01,-2230.06 791.96,-2237.27 802.08,-2243 832.08,-2259.99 870.33,-2267.96 899.94,-2271.7"/>
<polygon fill="#1a2833" stroke="#1a2833" points="899.69,-2275.19 910.02,-2272.85 900.49,-2268.24 899.69,-2275.19"/>
<text text-anchor="middle" x="708.58" y="-2227" font-family="Times,serif" font-size="10.00" fill="#767676">*</text>
</g>
<!-- bartlett/php&#45;compatinfo&#45;db&#45;&gt;ext&#45;spl -->
<g id="edge13" class="edge">
<title>bartlett/php&#45;compatinfo&#45;db&#45;&gt;ext&#45;spl</title>
<path fill="none" stroke="#1a2833" d="M485,-1765.18C498.2,-1815.6 542.21,-1958.29 633.08,-2032 687.37,-2076.04 735.17,-2026.05 784.08,-2076 805.65,-2098.03 779.44,-2122.06 802.08,-2143 829.43,-2168.3 872.58,-2173.53 904.62,-2173.34"/>
<polygon fill="#1a2833" stroke="#1a2833" points="905.1,-2176.83 915.01,-2173.1 904.93,-2169.84 905.1,-2176.83"/>
<text text-anchor="middle" x="708.58" y="-2079" font-family="Times,serif" font-size="10.00" fill="#767676">*</text>
</g>
<!-- bartlett/php&#45;compatinfo&#45;db&#45;&gt;composer&#45;runtime&#45;api -->
<g id="edge5" class="edge">
<title>bartlett/php&#45;compatinfo&#45;db&#45;&gt;composer&#45;runtime&#45;api</title>
<path fill="none" stroke="#1a2833" d="M501.83,-1728.89C531.73,-1702.23 585.83,-1649.41 615.08,-1593 630.66,-1562.95 609.76,-1543.54 633.08,-1519 681.32,-1468.24 727.39,-1515.11 784.08,-1474 795.46,-1465.75 790.28,-1455.64 802.08,-1448 816.67,-1438.54 833.73,-1432.21 850.91,-1428"/>
<polygon fill="#1a2833" stroke="#1a2833" points="852.01,-1431.34 861.02,-1425.77 850.5,-1424.51 852.01,-1431.34"/>
<text text-anchor="middle" x="708.58" y="-1522" font-family="Times,serif" font-size="10.00" fill="#767676">^2.0</text>
</g>
<!-- composer/semver -->
<g id="node8" class="node">
<title>composer/semver</title>
<path fill="#eeeeee" stroke="black" d="M1029.58,-1979C1029.58,-1979 865.58,-1979 865.58,-1979 859.58,-1979 853.58,-1973 853.58,-1967 853.58,-1967 853.58,-1955 853.58,-1955 853.58,-1949 859.58,-1943 865.58,-1943 865.58,-1943 1029.58,-1943 1029.58,-1943 1035.58,-1943 1041.58,-1949 1041.58,-1955 1041.58,-1955 1041.58,-1967 1041.58,-1967 1041.58,-1973 1035.58,-1979 1029.58,-1979"/>
<text text-anchor="middle" x="947.58" y="-1957.3" font-family="Times,serif" font-size="14.00" fill="#314b5f">composer/semver: 3.4.0</text>
</g>
<!-- bartlett/php&#45;compatinfo&#45;db&#45;&gt;composer/semver -->
<g id="edge6" class="edge">
<title>bartlett/php&#45;compatinfo&#45;db&#45;&gt;composer/semver</title>
<path fill="none" stroke="#1a2833" d="M492.51,-1765.18C515.38,-1798.36 568.86,-1868.32 633.08,-1901 693.58,-1931.79 719.84,-1902.06 784.08,-1924 792.74,-1926.96 793.47,-1930.9 802.08,-1934 815.12,-1938.7 829.13,-1942.62 843.12,-1945.88"/>
<polygon fill="#1a2833" stroke="#1a2833" points="842.76,-1949.39 853.28,-1948.14 844.28,-1942.55 842.76,-1949.39"/>
<text text-anchor="middle" x="708.58" y="-1927" font-family="Times,serif" font-size="10.00" fill="#767676">^3.0</text>
</g>
<!-- doctrine/dbal -->
<g id="node9" class="node">
<title>doctrine/dbal</title>
<path fill="#eeeeee" stroke="black" d="M1013.58,-1925C1013.58,-1925 881.58,-1925 881.58,-1925 875.58,-1925 869.58,-1919 869.58,-1913 869.58,-1913 869.58,-1901 869.58,-1901 869.58,-1895 875.58,-1889 881.58,-1889 881.58,-1889 1013.58,-1889 1013.58,-1889 1019.58,-1889 1025.58,-1895 1025.58,-1901 1025.58,-1901 1025.58,-1913 1025.58,-1913 1025.58,-1919 1019.58,-1925 1013.58,-1925"/>
<text text-anchor="middle" x="947.58" y="-1903.3" font-family="Times,serif" font-size="14.00" fill="#314b5f">doctrine/dbal: 3.7.2</text>
</g>
<!-- bartlett/php&#45;compatinfo&#45;db&#45;&gt;doctrine/dbal -->
<g id="edge7" class="edge">
<title>bartlett/php&#45;compatinfo&#45;db&#45;&gt;doctrine/dbal</title>
<path fill="none" stroke="#1a2833" d="M501.74,-1765.05C529.83,-1788.01 581.89,-1827.19 633.08,-1848 706.13,-1877.69 794.9,-1892.61 859.31,-1900"/>
<polygon fill="#1a2833" stroke="#1a2833" points="859.1,-1903.5 869.43,-1901.12 859.87,-1896.54 859.1,-1903.5"/>
<text text-anchor="middle" x="708.58" y="-1892" font-family="Times,serif" font-size="10.00" fill="#767676">^3.2</text>
</g>
<!-- doctrine/orm -->
<g id="node10" class="node">
<title>doctrine/orm</title>
<path fill="#eeeeee" stroke="black" d="M1017.08,-1871C1017.08,-1871 878.08,-1871 878.08,-1871 872.08,-1871 866.08,-1865 866.08,-1859 866.08,-1859 866.08,-1847 866.08,-1847 866.08,-1841 872.08,-1835 878.08,-1835 878.08,-1835 1017.08,-1835 1017.08,-1835 1023.08,-1835 1029.08,-1841 1029.08,-1847 1029.08,-1847 1029.08,-1859 1029.08,-1859 1029.08,-1865 1023.08,-1871 1017.08,-1871"/>
<text text-anchor="middle" x="947.58" y="-1849.3" font-family="Times,serif" font-size="14.00" fill="#314b5f">doctrine/orm: 2.17.2</text>
</g>
<!-- bartlett/php&#45;compatinfo&#45;db&#45;&gt;doctrine/orm -->
<g id="edge8" class="edge">
<title>bartlett/php&#45;compatinfo&#45;db&#45;&gt;doctrine/orm</title>
<path fill="none" stroke="#1a2833" d="M520.91,-1765.03C551.22,-1777.91 594.05,-1794.71 633.08,-1805 706.99,-1824.48 792.93,-1836.95 856.12,-1844.28"/>
<polygon fill="#1a2833" stroke="#1a2833" points="855.73,-1847.76 866.06,-1845.41 856.52,-1840.8 855.73,-1847.76"/>
<text text-anchor="middle" x="708.58" y="-1836" font-family="Times,serif" font-size="10.00" fill="#767676">^2.12</text>
</g>
<!-- ext&#45;pdo -->
<g id="node11" class="node">
<title>ext&#45;pdo</title>
<path fill="#eeeeee" stroke="black" d="M970.58,-1817C970.58,-1817 924.58,-1817 924.58,-1817 918.58,-1817 912.58,-1811 912.58,-1805 912.58,-1805 912.58,-1793 912.58,-1793 912.58,-1787 918.58,-1781 924.58,-1781 924.58,-1781 970.58,-1781 970.58,-1781 976.58,-1781 982.58,-1787 982.58,-1793 982.58,-1793 982.58,-1805 982.58,-1805 982.58,-1811 976.58,-1817 970.58,-1817"/>
<text text-anchor="middle" x="947.58" y="-1795.3" font-family="Times,serif" font-size="14.00" fill="#314b5f">ext&#45;pdo</text>
</g>
<!-- bartlett/php&#45;compatinfo&#45;db&#45;&gt;ext&#45;pdo -->
<g id="edge11" class="edge">
<title>bartlett/php&#45;compatinfo&#45;db&#45;&gt;ext&#45;pdo</title>
<path fill="none" stroke="#1a2833" d="M566.2,-1765.07C587.93,-1769.16 611.3,-1773.14 633.08,-1776 728.47,-1788.53 841.16,-1794.71 902.08,-1797.34"/>
<polygon fill="#1a2833" stroke="#1a2833" points="901.98,-1800.84 912.12,-1797.77 902.27,-1793.85 901.98,-1800.84"/>
<text text-anchor="middle" x="708.58" y="-1793" font-family="Times,serif" font-size="10.00" fill="#767676">*</text>
</g>
<!-- ext&#45;phar -->
<g id="node12" class="node">
<title>ext&#45;phar</title>
<path fill="#eeeeee" stroke="black" d="M974.08,-1763C974.08,-1763 921.08,-1763 921.08,-1763 915.08,-1763 909.08,-1757 909.08,-1751 909.08,-1751 909.08,-1739 909.08,-1739 909.08,-1733 915.08,-1727 921.08,-1727 921.08,-1727 974.08,-1727 974.08,-1727 980.08,-1727 986.08,-1733 986.08,-1739 986.08,-1739 986.08,-1751 986.08,-1751 986.08,-1757 980.08,-1763 974.08,-1763"/>
<text text-anchor="middle" x="947.58" y="-1741.3" font-family="Times,serif" font-size="14.00" fill="#314b5f">ext&#45;phar</text>
</g>
<!-- bartlett/php&#45;compatinfo&#45;db&#45;&gt;ext&#45;phar -->
<g id="edge12" class="edge">
<title>bartlett/php&#45;compatinfo&#45;db&#45;&gt;ext&#45;phar</title>
<path fill="none" stroke="#1a2833" d="M606.61,-1757.69C615.56,-1758.22 624.45,-1758.66 633.08,-1759 700.14,-1761.63 717.03,-1761.88 784.08,-1759 822.75,-1757.34 866.46,-1753.46 898.8,-1750.2"/>
<polygon fill="#1a2833" stroke="#1a2833" points="899.29,-1753.67 908.88,-1749.17 898.57,-1746.71 899.29,-1753.67"/>
<text text-anchor="middle" x="708.58" y="-1764" font-family="Times,serif" font-size="10.00" fill="#767676">*</text>
</g>
<!-- symfony/cache -->
<g id="node13" class="node">
<title>symfony/cache</title>
<path fill="#eeeeee" stroke="black" d="M1023.08,-771C1023.08,-771 872.08,-771 872.08,-771 866.08,-771 860.08,-765 860.08,-759 860.08,-759 860.08,-747 860.08,-747 860.08,-741 866.08,-735 872.08,-735 872.08,-735 1023.08,-735 1023.08,-735 1029.08,-735 1035.08,-741 1035.08,-747 1035.08,-747 1035.08,-759 1035.08,-759 1035.08,-765 1029.08,-771 1023.08,-771"/>
<text text-anchor="middle" x="947.58" y="-749.3" font-family="Times,serif" font-size="14.00" fill="#314b5f">symfony/cache: v6.4.2</text>
</g>
<!-- bartlett/php&#45;compatinfo&#45;db&#45;&gt;symfony/cache -->
<g id="edge15" class="edge">
<title>bartlett/php&#45;compatinfo&#45;db&#45;&gt;symfony/cache</title>
<path fill="none" stroke="#1a2833" d="M504.16,-1728.94C536.06,-1702.91 591.67,-1651.5 615.08,-1593 632.19,-1550.25 604.43,-1215.05 633.08,-1179 676.42,-1124.46 740.53,-1191.37 784.08,-1137 833.04,-1075.87 751.5,-844.81 802.08,-785 814.44,-770.38 831.85,-761.56 850.32,-756.4"/>
<polygon fill="#1a2833" stroke="#1a2833" points="851.17,-759.8 860.05,-754.03 849.51,-753 851.17,-759.8"/>
<text text-anchor="middle" x="708.58" y="-1182" font-family="Times,serif" font-size="10.00" fill="#767676">^6.4 || ^7.0</text>
</g>
<!-- bartlett/php&#45;compatinfo&#45;db&#45;&gt;symfony/config -->
<g id="edge16" class="edge">
<title>bartlett/php&#45;compatinfo&#45;db&#45;&gt;symfony/config</title>
<path fill="none" stroke="#1a2833" d="M503.16,-1728.85C534.15,-1702.52 588.98,-1650.55 615.08,-1593 639.89,-1538.27 593.89,-1504.55 633.08,-1459 678.66,-1406.01 725.34,-1452.89 784.08,-1415 794.41,-1408.34 792.15,-1401.25 802.08,-1394 824.7,-1377.48 852.47,-1364.39 877.6,-1354.64"/>
<polygon fill="#1a2833" stroke="#1a2833" points="878.96,-1357.86 887.08,-1351.06 876.49,-1351.31 878.96,-1357.86"/>
<text text-anchor="middle" x="708.58" y="-1462" font-family="Times,serif" font-size="10.00" fill="#767676">^6.4 || ^7.0</text>
</g>
<!-- bartlett/php&#45;compatinfo&#45;db&#45;&gt;symfony/console -->
<g id="edge17" class="edge">
<title>bartlett/php&#45;compatinfo&#45;db&#45;&gt;symfony/console</title>
<path fill="none" stroke="#1a2833" d="M495.96,-1728.58C521.47,-1699.2 575.44,-1641.84 633.08,-1610 694.16,-1576.26 734.92,-1616.52 784.08,-1567 805.2,-1545.73 780,-1522.27 802.08,-1502 813.83,-1491.21 828.47,-1484.08 843.87,-1479.46"/>
<polygon fill="#1a2833" stroke="#1a2833" points="844.77,-1482.85 853.54,-1476.91 842.98,-1476.08 844.77,-1482.85"/>
<text text-anchor="middle" x="708.58" y="-1613" font-family="Times,serif" font-size="10.00" fill="#767676">^6.4 || ^7.0</text>
</g>
<!-- bartlett/php&#45;compatinfo&#45;db&#45;&gt;symfony/dependency&#45;injection -->
<g id="edge18" class="edge">
<title>bartlett/php&#45;compatinfo&#45;db&#45;&gt;symfony/dependency&#45;injection</title>
<path fill="none" stroke="#1a2833" d="M503.86,-1728.82C535.42,-1702.65 590.62,-1651.07 615.08,-1593 634.64,-1546.57 601.39,-1406.16 633.08,-1367 677.13,-1312.56 722.9,-1356.07 784.08,-1322 793.43,-1316.79 792.69,-1311.15 802.08,-1306 816.7,-1297.98 833.03,-1291.41 849.31,-1286.07"/>
<polygon fill="#1a2833" stroke="#1a2833" points="850.39,-1289.4 858.88,-1283.06 848.29,-1282.72 850.39,-1289.4"/>
<text text-anchor="middle" x="708.58" y="-1370" font-family="Times,serif" font-size="10.00" fill="#767676">^6.4 || ^7.0</text>
</g>
<!-- bartlett/php&#45;compatinfo&#45;db&#45;&gt;symfony/event&#45;dispatcher -->
<g id="edge19" class="edge">
<title>bartlett/php&#45;compatinfo&#45;db&#45;&gt;symfony/event&#45;dispatcher</title>
<path fill="none" stroke="#1a2833" d="M504.05,-1728.9C535.83,-1702.82 591.29,-1651.35 615.08,-1593 628.48,-1560.13 609.97,-1300.95 633.08,-1274 645.25,-1259.8 731.45,-1243.1 810.38,-1230.46"/>
<polygon fill="#1a2833" stroke="#1a2833" points="811.14,-1233.88 820.47,-1228.86 810.04,-1226.97 811.14,-1233.88"/>
<text text-anchor="middle" x="708.58" y="-1277" font-family="Times,serif" font-size="10.00" fill="#767676">^6.4 || ^7.0</text>
</g>
<!-- symfony/http&#45;client -->
<g id="node18" class="node">
<title>symfony/http&#45;client</title>
<path fill="#eeeeee" stroke="black" d="M1040.08,-1709C1040.08,-1709 855.08,-1709 855.08,-1709 849.08,-1709 843.08,-1703 843.08,-1697 843.08,-1697 843.08,-1685 843.08,-1685 843.08,-1679 849.08,-1673 855.08,-1673 855.08,-1673 1040.08,-1673 1040.08,-1673 1046.08,-1673 1052.08,-1679 1052.08,-1685 1052.08,-1685 1052.08,-1697 1052.08,-1697 1052.08,-1703 1046.08,-1709 1040.08,-1709"/>
<text text-anchor="middle" x="947.58" y="-1687.3" font-family="Times,serif" font-size="14.00" fill="#314b5f">symfony/http&#45;client: v6.4.2</text>
</g>
<!-- bartlett/php&#45;compatinfo&#45;db&#45;&gt;symfony/http&#45;client -->
<g id="edge20" class="edge">
<title>bartlett/php&#45;compatinfo&#45;db&#45;&gt;symfony/http&#45;client</title>
<path fill="none" stroke="#1a2833" d="M606.58,-1746.26C661.63,-1743.79 726.61,-1737.95 784.08,-1725 792.45,-1723.11 793.82,-1720.35 802.08,-1718 812.03,-1715.16 822.45,-1712.55 832.95,-1710.15"/>
<polygon fill="#1a2833" stroke="#1a2833" points="834.01,-1713.5 843.02,-1707.93 832.5,-1706.67 834.01,-1713.5"/>
<text text-anchor="middle" x="708.58" y="-1747" font-family="Times,serif" font-size="10.00" fill="#767676">^6.4 || ^7.0</text>
</g>
<!-- symfony/messenger -->
<g id="node19" class="node">
<title>symfony/messenger</title>
<path fill="#eeeeee" stroke="black" d="M1041.58,-1655C1041.58,-1655 853.58,-1655 853.58,-1655 847.58,-1655 841.58,-1649 841.58,-1643 841.58,-1643 841.58,-1631 841.58,-1631 841.58,-1625 847.58,-1619 853.58,-1619 853.58,-1619 1041.58,-1619 1041.58,-1619 1047.58,-1619 1053.58,-1625 1053.58,-1631 1053.58,-1631 1053.58,-1643 1053.58,-1643 1053.58,-1649 1047.58,-1655 1041.58,-1655"/>
<text text-anchor="middle" x="947.58" y="-1633.3" font-family="Times,serif" font-size="14.00" fill="#314b5f">symfony/messenger: v6.4.0</text>
</g>
<!-- bartlett/php&#45;compatinfo&#45;db&#45;&gt;symfony/messenger -->
<g id="edge21" class="edge">
<title>bartlett/php&#45;compatinfo&#45;db&#45;&gt;symfony/messenger</title>
<path fill="none" stroke="#1a2833" d="M553.22,-1728.96C578.41,-1723.07 606.9,-1716.82 633.08,-1712 699.72,-1699.74 726.69,-1727.02 784.08,-1691 796.29,-1683.33 790.04,-1671.95 802.08,-1664 811.13,-1658.02 821.15,-1653.29 831.58,-1649.54"/>
<polygon fill="#1a2833" stroke="#1a2833" points="832.84,-1652.81 841.26,-1646.38 830.66,-1646.16 832.84,-1652.81"/>
<text text-anchor="middle" x="708.58" y="-1715" font-family="Times,serif" font-size="10.00" fill="#767676">^6.4 || ^7.0</text>
</g>
<!-- symfony/process -->
<g id="node20" class="node">
<title>symfony/process</title>
<path fill="#eeeeee" stroke="black" d="M1030.08,-1601C1030.08,-1601 865.08,-1601 865.08,-1601 859.08,-1601 853.08,-1595 853.08,-1589 853.08,-1589 853.08,-1577 853.08,-1577 853.08,-1571 859.08,-1565 865.08,-1565 865.08,-1565 1030.08,-1565 1030.08,-1565 1036.08,-1565 1042.08,-1571 1042.08,-1577 1042.08,-1577 1042.08,-1589 1042.08,-1589 1042.08,-1595 1036.08,-1601 1030.08,-1601"/>
<text text-anchor="middle" x="947.58" y="-1579.3" font-family="Times,serif" font-size="14.00" fill="#314b5f">symfony/process: v6.4.2</text>
</g>
<!-- bartlett/php&#45;compatinfo&#45;db&#45;&gt;symfony/process -->
<g id="edge22" class="edge">
<title>bartlett/php&#45;compatinfo&#45;db&#45;&gt;symfony/process</title>
<path fill="none" stroke="#1a2833" d="M513.15,-1728.94C543.33,-1713.02 589.95,-1690.47 633.08,-1678 698.17,-1659.17 731.04,-1699.16 784.08,-1657 801.59,-1643.08 784.9,-1624.32 802.08,-1610 813.9,-1600.15 828.17,-1593.44 843.07,-1588.94"/>
<polygon fill="#1a2833" stroke="#1a2833" points="844.19,-1592.26 852.94,-1586.29 842.38,-1585.5 844.19,-1592.26"/>
<text text-anchor="middle" x="708.58" y="-1681" font-family="Times,serif" font-size="10.00" fill="#767676">^6.4 || ^7.0</text>
</g>
<!-- symfony/requirements&#45;checker -->
<g id="node21" class="node">
<title>symfony/requirements&#45;checker</title>
<path fill="#eeeeee" stroke="black" d="M1081.08,-2080C1081.08,-2080 814.08,-2080 814.08,-2080 808.08,-2080 802.08,-2074 802.08,-2068 802.08,-2068 802.08,-2056 802.08,-2056 802.08,-2050 808.08,-2044 814.08,-2044 814.08,-2044 1081.08,-2044 1081.08,-2044 1087.08,-2044 1093.08,-2050 1093.08,-2056 1093.08,-2056 1093.08,-2068 1093.08,-2068 1093.08,-2074 1087.08,-2080 1081.08,-2080"/>
<text text-anchor="middle" x="947.58" y="-2058.3" font-family="Times,serif" font-size="14.00" fill="#314b5f">symfony/requirements&#45;checker: v2.0.1</text>
</g>
<!-- bartlett/php&#45;compatinfo&#45;db&#45;&gt;symfony/requirements&#45;checker -->
<g id="edge23" class="edge">
<title>bartlett/php&#45;compatinfo&#45;db&#45;&gt;symfony/requirements&#45;checker</title>
<path fill="none" stroke="#1a2833" d="M487.62,-1765.02C505.09,-1807.11 554.77,-1911.96 633.08,-1960 690.94,-1995.5 731.21,-1940.41 784.08,-1983 801.5,-1997.03 785.14,-2015.39 802.08,-2030 805.83,-2033.24 809.84,-2036.17 814.05,-2038.82"/>
<polygon fill="#1a2833" stroke="#1a2833" points="812.51,-2041.98 822.94,-2043.88 815.98,-2035.89 812.51,-2041.98"/>
<text text-anchor="middle" x="708.58" y="-1986" font-family="Times,serif" font-size="10.00" fill="#767676">^2.0</text>
</g>
<!-- bartlett/php&#45;compatinfo&#45;db&#45;&gt;symfony/stopwatch -->
<g id="edge24" class="edge">
<title>bartlett/php&#45;compatinfo&#45;db&#45;&gt;symfony/stopwatch</title>
<path fill="none" stroke="#1a2833" d="M485.85,-1765.03C500.51,-1811.69 546.49,-1936.72 633.08,-1994 689.7,-2031.45 733.88,-1971.3 784.08,-2017 808.47,-2039.2 778.06,-2066.39 802.08,-2089 811.17,-2097.56 822.06,-2103.83 833.74,-2108.38"/>
<polygon fill="#1a2833" stroke="#1a2833" points="832.65,-2111.71 843.25,-2111.67 834.94,-2105.09 832.65,-2111.71"/>
<text text-anchor="middle" x="708.58" y="-2020" font-family="Times,serif" font-size="10.00" fill="#767676">^6.4 || ^7.0</text>
</g>
<!-- bartlett/sarif&#45;php&#45;sdk&#45;&gt;php -->
<g id="edge29" class="edge">
<title>bartlett/sarif&#45;php&#45;sdk&#45;&gt;php</title>
<path fill="none" stroke="#1a2833" d="M527.5,-2186.05C557.25,-2196.52 596.83,-2208.65 633.08,-2214 735.69,-2229.14 1087.87,-2201.67 1093.08,-2197 1185.84,-2113.72 1187.68,-1167.94 1187.2,-990.57"/>
<polygon fill="#1a2833" stroke="#1a2833" points="1190.7,-990.45 1187.17,-980.46 1183.7,-990.47 1190.7,-990.45"/>
<text text-anchor="middle" x="947.58" y="-2220" font-family="Times,serif" font-size="10.00" fill="#767676">^7.1|^8.0</text>
</g>
<!-- bartlett/sarif&#45;php&#45;sdk&#45;&gt;ext&#45;json -->
<g id="edge26" class="edge">
<title>bartlett/sarif&#45;php&#45;sdk&#45;&gt;ext&#45;json</title>
<path fill="none" stroke="#1a2833" d="M586.35,-2154.75C663.65,-2142.68 759.15,-2121.96 784.08,-2091 821.38,-2044.68 763.32,-1601.11 802.08,-1556 825.79,-1528.4 867.91,-1523.17 900.58,-1523.95"/>
<polygon fill="#1a2833" stroke="#1a2833" points="900.67,-1527.46 910.82,-1524.4 900.98,-1520.47 900.67,-1527.46"/>
<text text-anchor="middle" x="708.58" y="-2148" font-family="Times,serif" font-size="10.00" fill="#767676">*</text>
</g>
<!-- bartlett/sarif&#45;php&#45;sdk&#45;&gt;ext&#45;pcre -->
<g id="edge27" class="edge">
<title>bartlett/sarif&#45;php&#45;sdk&#45;&gt;ext&#45;pcre</title>
<path fill="none" stroke="#1a2833" d="M511.56,-2186.06C541.59,-2202.67 588.95,-2226.55 633.08,-2239 682.05,-2252.82 825.02,-2265.54 899.79,-2271.48"/>
<polygon fill="#1a2833" stroke="#1a2833" points="899.63,-2274.98 909.87,-2272.27 900.18,-2268 899.63,-2274.98"/>
<text text-anchor="middle" x="708.58" y="-2263" font-family="Times,serif" font-size="10.00" fill="#767676">*</text>
</g>
<!-- bartlett/sarif&#45;php&#45;sdk&#45;&gt;ext&#45;spl -->
<g id="edge28" class="edge">
<title>bartlett/sarif&#45;php&#45;sdk&#45;&gt;ext&#45;spl</title>
<path fill="none" stroke="#1a2833" d="M586.27,-2168.27C644.61,-2168.44 718.35,-2168.69 784.08,-2169 825.06,-2169.19 871.86,-2169.49 904.68,-2169.71"/>
<polygon fill="#1a2833" stroke="#1a2833" points="904.79,-2173.21 914.82,-2169.78 904.84,-2166.21 904.79,-2173.21"/>
<text text-anchor="middle" x="708.58" y="-2172" font-family="Times,serif" font-size="10.00" fill="#767676">*</text>
</g>
<!-- doctrine/collections&#45;&gt;php -->
<g id="edge33" class="edge">
<title>doctrine/collections&#45;&gt;php</title>
<path fill="none" stroke="#1a2833" d="M580.28,-1082.08C655.58,-1079.53 751.35,-1080.98 784.08,-1102 798.8,-1111.45 787.15,-1127.89 802.08,-1137 857.28,-1170.68 1037.58,-1170.19 1093.08,-1137 1146.72,-1104.92 1171.52,-1030.56 1181.43,-989.86"/>
<polygon fill="#1a2833" stroke="#1a2833" points="1184.86,-990.58 1183.69,-980.05 1178.04,-989 1184.86,-990.58"/>
<text text-anchor="middle" x="947.58" y="-1165" font-family="Times,serif" font-size="10.00" fill="#767676">^7.1.3 || ^8.0</text>
</g>
<!-- doctrine/deprecations -->
<g id="node25" class="node">
<title>doctrine/deprecations</title>
<path fill="#eeeeee" stroke="black" d="M1044.58,-1128C1044.58,-1128 850.58,-1128 850.58,-1128 844.58,-1128 838.58,-1122 838.58,-1116 838.58,-1116 838.58,-1104 838.58,-1104 838.58,-1098 844.58,-1092 850.58,-1092 850.58,-1092 1044.58,-1092 1044.58,-1092 1050.58,-1092 1056.58,-1098 1056.58,-1104 1056.58,-1104 1056.58,-1116 1056.58,-1116 1056.58,-1122 1050.58,-1128 1044.58,-1128"/>
<text text-anchor="middle" x="947.58" y="-1106.3" font-family="Times,serif" font-size="14.00" fill="#314b5f">doctrine/deprecations: 1.1.2</text>
</g>
<!-- doctrine/collections&#45;&gt;doctrine/deprecations -->
<g id="edge32" class="edge">
<title>doctrine/collections&#45;&gt;doctrine/deprecations</title>
<path fill="none" stroke="#1a2833" d="M575.46,-1070C594.48,-1067.08 614.36,-1064.52 633.08,-1063 699.97,-1057.55 720.98,-1040.15 784.08,-1063 793.87,-1066.55 792.73,-1073.41 802.08,-1078 810.55,-1082.16 819.57,-1085.78 828.8,-1088.94"/>
<polygon fill="#1a2833" stroke="#1a2833" points="827.89,-1092.33 838.48,-1092.07 830.04,-1085.67 827.89,-1092.33"/>
<text text-anchor="middle" x="708.58" y="-1066" font-family="Times,serif" font-size="10.00" fill="#767676">^0.5.3 || ^1</text>
</g>
<!-- nikic/php&#45;parser&#45;&gt;php -->
<g id="edge36" class="edge">
<title>nikic/php&#45;parser&#45;&gt;php</title>
<path fill="none" stroke="#1a2833" d="M577.27,-1033.68C737.66,-1040.92 1045.85,-1052.36 1093.08,-1036 1120.65,-1026.45 1146.27,-1005.1 1163.77,-987.77"/>
<polygon fill="#1a2833" stroke="#1a2833" points="1166.74,-989.75 1171.22,-980.15 1161.73,-984.85 1166.74,-989.75"/>
<text text-anchor="middle" x="947.58" y="-1047" font-family="Times,serif" font-size="10.00" fill="#767676">&gt;=7.0</text>
</g>
<!-- ext&#45;tokenizer -->
<g id="node27" class="node">
<title>ext&#45;tokenizer</title>
<path fill="#eeeeee" stroke="black" d="M990.58,-1027C990.58,-1027 904.58,-1027 904.58,-1027 898.58,-1027 892.58,-1021 892.58,-1015 892.58,-1015 892.58,-1003 892.58,-1003 892.58,-997 898.58,-991 904.58,-991 904.58,-991 990.58,-991 990.58,-991 996.58,-991 1002.58,-997 1002.58,-1003 1002.58,-1003 1002.58,-1015 1002.58,-1015 1002.58,-1021 996.58,-1027 990.58,-1027"/>
<text text-anchor="middle" x="947.58" y="-1005.3" font-family="Times,serif" font-size="14.00" fill="#314b5f">ext&#45;tokenizer</text>
</g>
<!-- nikic/php&#45;parser&#45;&gt;ext&#45;tokenizer -->
<g id="edge35" class="edge">
<title>nikic/php&#45;parser&#45;&gt;ext&#45;tokenizer</title>
<path fill="none" stroke="#1a2833" d="M575.46,-1011C594.48,-1008.08 614.36,-1005.52 633.08,-1004 719.03,-997 818.67,-1000.58 882.13,-1004.32"/>
<polygon fill="#1a2833" stroke="#1a2833" points="882.19,-1007.83 892.38,-1004.95 882.62,-1000.85 882.19,-1007.83"/>
<text text-anchor="middle" x="708.58" y="-1007" font-family="Times,serif" font-size="10.00" fill="#767676">*</text>
</g>
<!-- psr/log&#45;&gt;php -->
<g id="edge38" class="edge">
<title>psr/log&#45;&gt;php</title>
<path fill="none" stroke="#1a2833" d="M764.35,-962C862.92,-962 1067.64,-962 1150.79,-962"/>
<polygon fill="#1a2833" stroke="#1a2833" points="1151,-965.5 1161,-962 1151,-958.5 1151,-965.5"/>
<text text-anchor="middle" x="947.58" y="-965" font-family="Times,serif" font-size="10.00" fill="#767676">&gt;=8.0.0</text>
</g>
<!-- ramsey/uuid&#45;&gt;php -->
<g id="edge42" class="edge">
<title>ramsey/uuid&#45;&gt;php</title>
<path fill="none" stroke="#1a2833" d="M527.88,-889.95C589.79,-867.38 702.18,-830.01 802.08,-816 930.16,-798.04 979.54,-754.06 1093.08,-816 1139.08,-841.1 1165.95,-899.43 1178.46,-934.29"/>
<polygon fill="#1a2833" stroke="#1a2833" points="1175.2,-935.55 1181.75,-943.88 1181.82,-933.28 1175.2,-935.55"/>
<text text-anchor="middle" x="947.58" y="-819" font-family="Times,serif" font-size="10.00" fill="#767676">^8.0</text>
</g>
<!-- ramsey/uuid&#45;&gt;ext&#45;json -->
<g id="edge41" class="edge">
<title>ramsey/uuid&#45;&gt;ext&#45;json</title>
<path fill="none" stroke="#1a2833" d="M525.03,-926.01C556.23,-941.24 595.71,-966.32 615.08,-1002 643.09,-1053.59 590.87,-1489.21 633.08,-1530 670.06,-1565.75 823.34,-1548.16 901.01,-1536.51"/>
<polygon fill="#1a2833" stroke="#1a2833" points="901.65,-1539.96 911,-1534.98 900.59,-1533.04 901.65,-1539.96"/>
<text text-anchor="middle" x="708.58" y="-1554" font-family="Times,serif" font-size="10.00" fill="#767676">*</text>
</g>
<!-- brick/math -->
<g id="node30" class="node">
<title>brick/math</title>
<path fill="#eeeeee" stroke="black" d="M1009.58,-926C1009.58,-926 885.58,-926 885.58,-926 879.58,-926 873.58,-920 873.58,-914 873.58,-914 873.58,-902 873.58,-902 873.58,-896 879.58,-890 885.58,-890 885.58,-890 1009.58,-890 1009.58,-890 1015.58,-890 1021.58,-896 1021.58,-902 1021.58,-902 1021.58,-914 1021.58,-914 1021.58,-920 1015.58,-926 1009.58,-926"/>
<text text-anchor="middle" x="947.58" y="-904.3" font-family="Times,serif" font-size="14.00" fill="#314b5f">brick/math: 0.11.0</text>
</g>
<!-- ramsey/uuid&#45;&gt;brick/math -->
<g id="edge40" class="edge">
<title>ramsey/uuid&#45;&gt;brick/math</title>
<path fill="none" stroke="#1a2833" d="M554.67,-908C638.79,-908 775.66,-908 863.37,-908"/>
<polygon fill="#1a2833" stroke="#1a2833" points="863.55,-911.5 873.55,-908 863.55,-904.5 863.55,-911.5"/>
<text text-anchor="middle" x="708.58" y="-911" font-family="Times,serif" font-size="10.00" fill="#767676">^0.8.8 || ^0.9 || ^0.10 || ^0.11</text>
</g>
<!-- ramsey/collection -->
<g id="node31" class="node">
<title>ramsey/collection</title>
<path fill="#eeeeee" stroke="black" d="M1029.08,-872C1029.08,-872 866.08,-872 866.08,-872 860.08,-872 854.08,-866 854.08,-860 854.08,-860 854.08,-848 854.08,-848 854.08,-842 860.08,-836 866.08,-836 866.08,-836 1029.08,-836 1029.08,-836 1035.08,-836 1041.08,-842 1041.08,-848 1041.08,-848 1041.08,-860 1041.08,-860 1041.08,-866 1035.08,-872 1029.08,-872"/>
<text text-anchor="middle" x="947.58" y="-850.3" font-family="Times,serif" font-size="14.00" fill="#314b5f">ramsey/collection: 2.0.0</text>
</g>
<!-- ramsey/uuid&#45;&gt;ramsey/collection -->
<g id="edge43" class="edge">
<title>ramsey/uuid&#45;&gt;ramsey/collection</title>
<path fill="none" stroke="#1a2833" d="M554.67,-899.41C632.81,-890.36 756.49,-876.03 843.98,-865.89"/>
<polygon fill="#1a2833" stroke="#1a2833" points="844.4,-869.36 853.93,-864.74 843.59,-862.41 844.4,-869.36"/>
<text text-anchor="middle" x="708.58" y="-891" font-family="Times,serif" font-size="10.00" fill="#767676">^1.2 || ^2.0</text>
</g>
<!-- symfony/finder&#45;&gt;php -->
<g id="edge48" class="edge">
<title>symfony/finder&#45;&gt;php</title>
<path fill="none" stroke="#1a2833" d="M1035.67,-119.08C1056.74,-123.14 1077.61,-131.15 1093.08,-146 1151.23,-201.83 1179.99,-795.7 1185.91,-933.54"/>
<polygon fill="#1a2833" stroke="#1a2833" points="1182.42,-933.87 1186.34,-943.71 1189.42,-933.57 1182.42,-933.87"/>
<text text-anchor="middle" x="1127.08" y="-353" font-family="Times,serif" font-size="10.00" fill="#767676">&gt;=8.1</text>
</g>
<!-- symfony/serializer&#45;&gt;php -->
<g id="edge51" class="edge">
<title>symfony/serializer&#45;&gt;php</title>
<path fill="none" stroke="#1a2833" d="M580.37,-666.98C743.42,-653.21 1052.94,-631.48 1093.08,-661 1138.08,-694.09 1171.07,-865.71 1182.6,-933.96"/>
<polygon fill="#1a2833" stroke="#1a2833" points="1179.18,-934.7 1184.27,-943.99 1186.08,-933.56 1179.18,-934.7"/>
<text text-anchor="middle" x="947.58" y="-664" font-family="Times,serif" font-size="10.00" fill="#767676">&gt;=8.1</text>
</g>
<!-- symfony/deprecation&#45;contracts -->
<g id="node34" class="node">
<title>symfony/deprecation&#45;contracts</title>
<path fill="#eeeeee" stroke="black" d="M1080.58,-616C1080.58,-616 814.58,-616 814.58,-616 808.58,-616 802.58,-610 802.58,-604 802.58,-604 802.58,-592 802.58,-592 802.58,-586 808.58,-580 814.58,-580 814.58,-580 1080.58,-580 1080.58,-580 1086.58,-580 1092.58,-586 1092.58,-592 1092.58,-592 1092.58,-604 1092.58,-604 1092.58,-610 1086.58,-616 1080.58,-616"/>
<text text-anchor="middle" x="947.58" y="-594.3" font-family="Times,serif" font-size="14.00" fill="#314b5f">symfony/deprecation&#45;contracts: v3.4.0</text>
</g>
<!-- symfony/serializer&#45;&gt;symfony/deprecation&#45;contracts -->
<g id="edge52" class="edge">
<title>symfony/serializer&#45;&gt;symfony/deprecation&#45;contracts</title>
<path fill="none" stroke="#1a2833" d="M527.6,-657.94C557.39,-647.24 596.98,-634.38 633.08,-627 684.41,-616.51 741.26,-609.81 792.29,-605.53"/>
<polygon fill="#1a2833" stroke="#1a2833" points="792.74,-609.01 802.42,-604.71 792.17,-602.03 792.74,-609.01"/>
<text text-anchor="middle" x="708.58" y="-630" font-family="Times,serif" font-size="10.00" fill="#767676">^2.5|^3</text>
</g>
<!-- symfony/polyfill&#45;ctype -->
<g id="node35" class="node">
<title>symfony/polyfill&#45;ctype</title>
<path fill="#eeeeee" stroke="black" d="M1053.08,-717C1053.08,-717 842.08,-717 842.08,-717 836.08,-717 830.08,-711 830.08,-705 830.08,-705 830.08,-693 830.08,-693 830.08,-687 836.08,-681 842.08,-681 842.08,-681 1053.08,-681 1053.08,-681 1059.08,-681 1065.08,-687 1065.08,-693 1065.08,-693 1065.08,-705 1065.08,-705 1065.08,-711 1059.08,-717 1053.08,-717"/>
<text text-anchor="middle" x="947.58" y="-695.3" font-family="Times,serif" font-size="14.00" fill="#314b5f">symfony/polyfill&#45;ctype: v1.28.0</text>
</g>
<!-- symfony/serializer&#45;&gt;symfony/polyfill&#45;ctype -->
<g id="edge53" class="edge">
<title>symfony/serializer&#45;&gt;symfony/polyfill&#45;ctype</title>
<path fill="none" stroke="#1a2833" d="M580.26,-680.92C650.24,-684.37 744.41,-689.02 819.74,-692.74"/>
<polygon fill="#1a2833" stroke="#1a2833" points="819.61,-696.24 829.77,-693.23 819.96,-689.25 819.61,-696.24"/>
<text text-anchor="middle" x="708.58" y="-693" font-family="Times,serif" font-size="10.00" fill="#767676">~1.8</text>
</g>
<!-- symfony/framework&#45;bundle&#45;&gt;php -->
<g id="edge58" class="edge">
<title>symfony/framework&#45;bundle&#45;&gt;php</title>
<path fill="none" stroke="#1a2833" d="M523.03,-498.93C553.48,-486.17 595.57,-468.93 633.08,-455 707.38,-427.39 723.86,-410.84 802.08,-398 865.89,-387.53 1043.5,-356.49 1093.08,-398 1176.24,-467.62 1185.92,-829.32 1186.97,-933.74"/>
<polygon fill="#1a2833" stroke="#1a2833" points="1183.47,-933.87 1187.05,-943.84 1190.47,-933.81 1183.47,-933.87"/>
<text text-anchor="middle" x="947.58" y="-401" font-family="Times,serif" font-size="10.00" fill="#767676">&gt;=8.1</text>
</g>
<!-- symfony/framework&#45;bundle&#45;&gt;composer&#45;runtime&#45;api -->
<g id="edge56" class="edge">
<title>symfony/framework&#45;bundle&#45;&gt;composer&#45;runtime&#45;api</title>
<path fill="none" stroke="#1a2833" d="M509.57,-535.2C542.1,-557.49 593.18,-598.58 615.08,-649 631.22,-686.16 606.07,-1347.8 633.08,-1378 636.77,-1382.13 760.13,-1398.11 850.98,-1409.38"/>
<polygon fill="#1a2833" stroke="#1a2833" points="850.69,-1412.87 861.05,-1410.62 851.55,-1405.92 850.69,-1412.87"/>
<text text-anchor="middle" x="708.58" y="-1403" font-family="Times,serif" font-size="10.00" fill="#767676">&gt;=2.1</text>
</g>
<!-- symfony/framework&#45;bundle&#45;&gt;symfony/cache -->
<g id="edge59" class="edge">
<title>symfony/framework&#45;bundle&#45;&gt;symfony/cache</title>
<path fill="none" stroke="#1a2833" d="M505.24,-535.04C535.26,-558.24 585.61,-601.25 615.08,-649 628.81,-671.25 613.18,-688.04 633.08,-705 692.17,-755.37 781.28,-764.81 849.41,-763.13"/>
<polygon fill="#1a2833" stroke="#1a2833" points="849.85,-766.62 859.73,-762.79 849.62,-759.62 849.85,-766.62"/>
<text text-anchor="middle" x="708.58" y="-763" font-family="Times,serif" font-size="10.00" fill="#767676">^5.4|^6.0|^7.0</text>
</g>
<!-- symfony/framework&#45;bundle&#45;&gt;symfony/config -->
<g id="edge60" class="edge">
<title>symfony/framework&#45;bundle&#45;&gt;symfony/config</title>
<path fill="none" stroke="#1a2833" d="M509.25,-535.01C541.73,-557.27 593.03,-598.47 615.08,-649 629.22,-681.4 609.67,-1258.52 633.08,-1285 655.56,-1310.43 750.53,-1302.86 784.08,-1308 805.03,-1311.21 827.49,-1314.66 848.83,-1317.94"/>
<polygon fill="#1a2833" stroke="#1a2833" points="848.46,-1321.42 858.87,-1319.48 849.52,-1314.5 848.46,-1321.42"/>
<text text-anchor="middle" x="708.58" y="-1311" font-family="Times,serif" font-size="10.00" fill="#767676">^6.1|^7.0</text>
</g>
<!-- symfony/framework&#45;bundle&#45;&gt;symfony/dependency&#45;injection -->
<g id="edge61" class="edge">
<title>symfony/framework&#45;bundle&#45;&gt;symfony/dependency&#45;injection</title>
<path fill="none" stroke="#1a2833" d="M509.2,-535.03C541.65,-557.31 592.9,-598.53 615.08,-649 639.36,-704.27 592.98,-1146.87 633.08,-1192 678.17,-1242.75 725.47,-1180.74 784.08,-1215 795.28,-1221.55 790.98,-1231.26 802.08,-1238 804.77,-1239.64 807.54,-1241.18 810.38,-1242.63"/>
<polygon fill="#1a2833" stroke="#1a2833" points="809.08,-1245.89 819.62,-1246.97 812.06,-1239.55 809.08,-1245.89"/>
<text text-anchor="middle" x="708.58" y="-1218" font-family="Times,serif" font-size="10.00" fill="#767676">^6.4|^7.0</text>
</g>
<!-- symfony/framework&#45;bundle&#45;&gt;symfony/event&#45;dispatcher -->
<g id="edge64" class="edge">
<title>symfony/framework&#45;bundle&#45;&gt;symfony/event&#45;dispatcher</title>
<path fill="none" stroke="#1a2833" d="M509.13,-535.07C541.5,-557.38 592.68,-598.63 615.08,-649 634.46,-692.59 603.65,-1040.45 633.08,-1078 676.19,-1133.02 734.1,-1073.13 784.08,-1122 803.07,-1140.57 782.49,-1161.06 802.08,-1179 805.53,-1182.16 809.22,-1185.03 813.1,-1187.64"/>
<polygon fill="#1a2833" stroke="#1a2833" points="811.51,-1190.77 821.88,-1192.95 815.13,-1184.78 811.51,-1190.77"/>
<text text-anchor="middle" x="708.58" y="-1125" font-family="Times,serif" font-size="10.00" fill="#767676">^5.4|^6.0|^7.0</text>
</g>
<!-- symfony/framework&#45;bundle&#45;&gt;symfony/finder -->
<g id="edge66" class="edge">
<title>symfony/framework&#45;bundle&#45;&gt;symfony/finder</title>
<path fill="none" stroke="#1a2833" d="M482.13,-498.59C488.3,-438.13 516.77,-244.57 633.08,-157 641.78,-150.45 760.43,-137.39 849.2,-128.43"/>
<polygon fill="#1a2833" stroke="#1a2833" points="849.73,-131.9 859.33,-127.41 849.03,-124.93 849.73,-131.9"/>
<text text-anchor="middle" x="708.58" y="-160" font-family="Times,serif" font-size="10.00" fill="#767676">^5.4|^6.0|^7.0</text>
</g>
<!-- symfony/framework&#45;bundle&#45;&gt;symfony/deprecation&#45;contracts -->
<g id="edge62" class="edge">
<title>symfony/framework&#45;bundle&#45;&gt;symfony/deprecation&#45;contracts</title>
<path fill="none" stroke="#1a2833" d="M562.74,-535.05C585.47,-539.83 610.19,-544.81 633.08,-549 691.36,-559.66 756.01,-570.01 811.38,-578.44"/>
<polygon fill="#1a2833" stroke="#1a2833" points="811.2,-581.95 821.61,-579.98 812.25,-575.03 811.2,-581.95"/>
<text text-anchor="middle" x="708.58" y="-576" font-family="Times,serif" font-size="10.00" fill="#767676">^2.5|^3</text>
</g>
<!-- ext&#45;xml -->
<g id="node37" class="node">
<title>ext&#45;xml</title>
<path fill="#eeeeee" stroke="black" d="M970.58,-353C970.58,-353 924.58,-353 924.58,-353 918.58,-353 912.58,-347 912.58,-341 912.58,-341 912.58,-329 912.58,-329 912.58,-323 918.58,-317 924.58,-317 924.58,-317 970.58,-317 970.58,-317 976.58,-317 982.58,-323 982.58,-329 982.58,-329 982.58,-341 982.58,-341 982.58,-347 976.58,-353 970.58,-353"/>
<text text-anchor="middle" x="947.58" y="-331.3" font-family="Times,serif" font-size="14.00" fill="#314b5f">ext&#45;xml</text>
</g>
<!-- symfony/framework&#45;bundle&#45;&gt;ext&#45;xml -->
<g id="edge57" class="edge">
<title>symfony/framework&#45;bundle&#45;&gt;ext&#45;xml</title>
<path fill="none" stroke="#1a2833" d="M492.19,-498.84C514.72,-465.39 567.92,-394.65 633.08,-364 721.4,-322.46 839.03,-324.76 902.12,-329.95"/>
<polygon fill="#1a2833" stroke="#1a2833" points="901.86,-333.44 912.13,-330.84 902.48,-326.47 901.86,-333.44"/>
<text text-anchor="middle" x="708.58" y="-367" font-family="Times,serif" font-size="10.00" fill="#767676">*</text>
</g>
<!-- symfony/error&#45;handler -->
<g id="node38" class="node">
<title>symfony/error&#45;handler</title>
<path fill="#eeeeee" stroke="black" d="M1050.58,-299C1050.58,-299 844.58,-299 844.58,-299 838.58,-299 832.58,-293 832.58,-287 832.58,-287 832.58,-275 832.58,-275 832.58,-269 838.58,-263 844.58,-263 844.58,-263 1050.58,-263 1050.58,-263 1056.58,-263 1062.58,-269 1062.58,-275 1062.58,-275 1062.58,-287 1062.58,-287 1062.58,-293 1056.58,-299 1050.58,-299"/>
<text text-anchor="middle" x="947.58" y="-277.3" font-family="Times,serif" font-size="14.00" fill="#314b5f">symfony/error&#45;handler: v6.4.0</text>
</g>
<!-- symfony/framework&#45;bundle&#45;&gt;symfony/error&#45;handler -->
<g id="edge63" class="edge">
<title>symfony/framework&#45;bundle&#45;&gt;symfony/error&#45;handler</title>
<path fill="none" stroke="#1a2833" d="M488,-498.97C505.95,-457.92 556,-357.69 633.08,-314 689.9,-281.79 761.89,-272.44 822.54,-271.64"/>
<polygon fill="#1a2833" stroke="#1a2833" points="822.58,-275.14 832.56,-271.58 822.54,-268.14 822.58,-275.14"/>
<text text-anchor="middle" x="708.58" y="-317" font-family="Times,serif" font-size="10.00" fill="#767676">^6.1|^7.0</text>
</g>
<!-- symfony/filesystem -->
<g id="node39" class="node">
<title>symfony/filesystem</title>
<path fill="#eeeeee" stroke="black" d="M1039.08,-245C1039.08,-245 856.08,-245 856.08,-245 850.08,-245 844.08,-239 844.08,-233 844.08,-233 844.08,-221 844.08,-221 844.08,-215 850.08,-209 856.08,-209 856.08,-209 1039.08,-209 1039.08,-209 1045.08,-209 1051.08,-215 1051.08,-221 1051.08,-221 1051.08,-233 1051.08,-233 1051.08,-239 1045.08,-245 1039.08,-245"/>
<text text-anchor="middle" x="947.58" y="-223.3" font-family="Times,serif" font-size="14.00" fill="#314b5f">symfony/filesystem: v6.4.0</text>
</g>
<!-- symfony/framework&#45;bundle&#45;&gt;symfony/filesystem -->
<g id="edge65" class="edge">
<title>symfony/framework&#45;bundle&#45;&gt;symfony/filesystem</title>
<path fill="none" stroke="#1a2833" d="M485.1,-498.91C498.32,-450.25 541.84,-316.3 633.08,-258 692.03,-220.33 770.33,-212.57 833.93,-214.22"/>
<polygon fill="#1a2833" stroke="#1a2833" points="833.9,-217.73 844.01,-214.57 834.14,-210.73 833.9,-217.73"/>
<text text-anchor="middle" x="708.58" y="-261" font-family="Times,serif" font-size="10.00" fill="#767676">^5.4|^6.0|^7.0</text>
</g>
<!-- symfony/http&#45;foundation -->
<g id="node40" class="node">
<title>symfony/http&#45;foundation</title>
<path fill="#eeeeee" stroke="black" d="M1058.08,-191C1058.08,-191 837.08,-191 837.08,-191 831.08,-191 825.08,-185 825.08,-179 825.08,-179 825.08,-167 825.08,-167 825.08,-161 831.08,-155 837.08,-155 837.08,-155 1058.08,-155 1058.08,-155 1064.08,-155 1070.08,-161 1070.08,-167 1070.08,-167 1070.08,-179 1070.08,-179 1070.08,-185 1064.08,-191 1058.08,-191"/>
<text text-anchor="middle" x="947.58" y="-169.3" font-family="Times,serif" font-size="14.00" fill="#314b5f">symfony/http&#45;foundation: v6.4.2</text>
</g>
<!-- symfony/framework&#45;bundle&#45;&gt;symfony/http&#45;foundation -->
<g id="edge67" class="edge">
<title>symfony/framework&#45;bundle&#45;&gt;symfony/http&#45;foundation</title>
<path fill="none" stroke="#1a2833" d="M483.1,-498.64C491.87,-442.68 526.53,-273.55 633.08,-200 662.33,-179.81 742.85,-173.17 814.95,-171.52"/>
<polygon fill="#1a2833" stroke="#1a2833" points="815.14,-175.02 825.07,-171.32 815,-168.02 815.14,-175.02"/>
<text text-anchor="middle" x="708.58" y="-203" font-family="Times,serif" font-size="10.00" fill="#767676">^6.4|^7.0</text>
</g>
<!-- symfony/http&#45;kernel -->
<g id="node41" class="node">
<title>symfony/http&#45;kernel</title>
<path fill="#eeeeee" stroke="black" d="M1042.58,-562C1042.58,-562 852.58,-562 852.58,-562 846.58,-562 840.58,-556 840.58,-550 840.58,-550 840.58,-538 840.58,-538 840.58,-532 846.58,-526 852.58,-526 852.58,-526 1042.58,-526 1042.58,-526 1048.58,-526 1054.58,-532 1054.58,-538 1054.58,-538 1054.58,-550 1054.58,-550 1054.58,-556 1048.58,-562 1042.58,-562"/>
<text text-anchor="middle" x="947.58" y="-540.3" font-family="Times,serif" font-size="14.00" fill="#314b5f">symfony/http&#45;kernel: v6.4.2</text>
</g>
<!-- symfony/framework&#45;bundle&#45;&gt;symfony/http&#45;kernel -->
<g id="edge68" class="edge">
<title>symfony/framework&#45;bundle&#45;&gt;symfony/http&#45;kernel</title>
<path fill="none" stroke="#1a2833" d="M612.25,-524.63C680.86,-528.6 764.02,-533.42 830.24,-537.26"/>
<polygon fill="#1a2833" stroke="#1a2833" points="830.12,-540.76 840.3,-537.84 830.52,-533.77 830.12,-540.76"/>
<text text-anchor="middle" x="708.58" y="-537" font-family="Times,serif" font-size="10.00" fill="#767676">^6.4</text>
</g>
<!-- symfony/polyfill&#45;mbstring -->
<g id="node42" class="node">
<title>symfony/polyfill&#45;mbstring</title>
<path fill="#eeeeee" stroke="black" d="M1066.08,-508C1066.08,-508 829.08,-508 829.08,-508 823.08,-508 817.08,-502 817.08,-496 817.08,-496 817.08,-484 817.08,-484 817.08,-478 823.08,-472 829.08,-472 829.08,-472 1066.08,-472 1066.08,-472 1072.08,-472 1078.08,-478 1078.08,-484 1078.08,-484 1078.08,-496 1078.08,-496 1078.08,-502 1072.08,-508 1066.08,-508"/>
<text text-anchor="middle" x="947.58" y="-486.3" font-family="Times,serif" font-size="14.00" fill="#314b5f">symfony/polyfill&#45;mbstring: v1.28.0</text>
</g>
<!-- symfony/framework&#45;bundle&#45;&gt;symfony/polyfill&#45;mbstring -->
<g id="edge69" class="edge">
<title>symfony/framework&#45;bundle&#45;&gt;symfony/polyfill&#45;mbstring</title>
<path fill="none" stroke="#1a2833" d="M612.25,-509.37C672.92,-505.86 744.99,-501.68 806.65,-498.11"/>
<polygon fill="#1a2833" stroke="#1a2833" points="807.07,-501.59 816.85,-497.52 806.66,-494.6 807.07,-501.59"/>
<text text-anchor="middle" x="708.58" y="-510" font-family="Times,serif" font-size="10.00" fill="#767676">~1.0</text>
</g>
<!-- symfony/routing -->
<g id="node43" class="node">
<title>symfony/routing</title>
<path fill="#eeeeee" stroke="black" d="M1029.08,-454C1029.08,-454 866.08,-454 866.08,-454 860.08,-454 854.08,-448 854.08,-442 854.08,-442 854.08,-430 854.08,-430 854.08,-424 860.08,-418 866.08,-418 866.08,-418 1029.08,-418 1029.08,-418 1035.08,-418 1041.08,-424 1041.08,-430 1041.08,-430 1041.08,-442 1041.08,-442 1041.08,-448 1035.08,-454 1029.08,-454"/>
<text text-anchor="middle" x="947.58" y="-432.3" font-family="Times,serif" font-size="14.00" fill="#314b5f">symfony/routing: v6.4.2</text>
</g>
<!-- symfony/framework&#45;bundle&#45;&gt;symfony/routing -->
<g id="edge70" class="edge">
<title>symfony/framework&#45;bundle&#45;&gt;symfony/routing</title>
<path fill="none" stroke="#1a2833" d="M559.54,-498.95C583.14,-493.82 609.1,-488.43 633.08,-484 703.22,-471.05 782.65,-458.92 844,-450.09"/>
<polygon fill="#1a2833" stroke="#1a2833" points="844.68,-453.53 854.08,-448.65 843.68,-446.6 844.68,-453.53"/>
<text text-anchor="middle" x="708.58" y="-487" font-family="Times,serif" font-size="10.00" fill="#767676">^6.4|^7.0</text>
</g>
<!-- bamarni/composer&#45;bin&#45;plugin&#45;&gt;php -->
<g id="edge73" class="edge">
<title>bamarni/composer&#45;bin&#45;plugin&#45;&gt;php</title>
<path fill="none" stroke="#1a2833" d="M615.34,-64.36C783.48,-59.7 1053.8,-56.3 1093.08,-81 1134.81,-107.24 1130.31,-132.39 1143.08,-180 1182.34,-326.46 1186.59,-811.22 1187.03,-933.7"/>
<polygon fill="#1a2833" stroke="#1a2833" points="1183.53,-933.79 1187.06,-943.78 1190.53,-933.77 1183.53,-933.79"/>
<text text-anchor="middle" x="947.58" y="-84" font-family="Times,serif" font-size="10.00" fill="#767676">^7.2.5 || ^8.0</text>
</g>
<!-- composer&#45;plugin&#45;api -->
<g id="node45" class="node">
<title>composer&#45;plugin&#45;api</title>
<path fill="#eeeeee" stroke="black" d="M1016.08,-36C1016.08,-36 879.08,-36 879.08,-36 873.08,-36 867.08,-30 867.08,-24 867.08,-24 867.08,-12 867.08,-12 867.08,-6 873.08,0 879.08,0 879.08,0 1016.08,0 1016.08,0 1022.08,0 1028.08,-6 1028.08,-12 1028.08,-12 1028.08,-24 1028.08,-24 1028.08,-30 1022.08,-36 1016.08,-36"/>
<text text-anchor="middle" x="947.58" y="-14.3" font-family="Times,serif" font-size="14.00" fill="#314b5f">composer&#45;plugin&#45;api</text>
</g>
<!-- bamarni/composer&#45;bin&#45;plugin&#45;&gt;composer&#45;plugin&#45;api -->
<g id="edge72" class="edge">
<title>bamarni/composer&#45;bin&#45;plugin&#45;&gt;composer&#45;plugin&#45;api</title>
<path fill="none" stroke="#1a2833" d="M601.62,-50.96C612.25,-49.55 622.85,-48.21 633.08,-47 708.28,-38.1 793.9,-30.34 856.64,-25.09"/>
<polygon fill="#1a2833" stroke="#1a2833" points="857.22,-28.56 866.9,-24.24 856.64,-21.58 857.22,-28.56"/>
<text text-anchor="middle" x="708.58" y="-50" font-family="Times,serif" font-size="10.00" fill="#767676">^2.0</text>
</g>
</g>
</svg>
