<?xml version="1.0" encoding="UTF-8" standalone="no"?>
<!DOCTYPE svg PUBLIC "-//W3C//DTD SVG 1.1//EN"
 "http://www.w3.org/Graphics/SVG/1.1/DTD/svg11.dtd">
<!-- Generated by graphviz version 2.43.0 (0)
 -->
<!-- Title: %3 Pages: 1 -->
<svg width="1252pt" height="2390pt"
 viewBox="0.00 0.00 1252.08 2390.00" xmlns="http://www.w3.org/2000/svg" xmlns:xlink="http://www.w3.org/1999/xlink">
<g id="graph0" class="graph" transform="scale(1 1) rotate(0) translate(4 2386)">
<title>%3</title>
<polygon fill="white" stroke="transparent" points="-4,4 -4,-2386 1248.08,-2386 1248.08,4 -4,4"/>
<!-- bartlett/php&#45;compatinfo -->
<g id="node1" class="node">
<title>bartlett/php&#45;compatinfo</title>
<ellipse fill="lightgrey" stroke="black" stroke-width="2" cx="121.54" cy="-1286" rx="121.58" ry="18"/>
<text text-anchor="middle" x="121.54" y="-1282.3" font-family="Times,serif" font-size="14.00">bartlett/php&#45;compatinfo</text>
</g>
<!-- php -->
<g id="node2" class="node">
<title>php</title>
<path fill="#eeeeee" stroke="black" d="M1232.08,-980C1232.08,-980 1202.08,-980 1202.08,-980 1196.08,-980 1190.08,-974 1190.08,-968 1190.08,-968 1190.08,-956 1190.08,-956 1190.08,-950 1196.08,-944 1202.08,-944 1202.08,-944 1232.08,-944 1232.08,-944 1238.08,-944 1244.08,-950 1244.08,-956 1244.08,-956 1244.08,-968 1244.08,-968 1244.08,-974 1238.08,-980 1232.08,-980"/>
<text text-anchor="middle" x="1217.08" y="-958.3" font-family="Times,serif" font-size="14.00" fill="#314b5f">php</text>
</g>
<!-- bartlett/php&#45;compatinfo&#45;&gt;php -->
<g id="edge1" class="edge">
<title>bartlett/php&#45;compatinfo&#45;&gt;php</title>
<path fill="none" stroke="#1a2833" d="M123.03,-1304.35C126.46,-1421.92 150.26,-2069.5 261.08,-2226 372.08,-2382.76 969.88,-2419.17 1122.08,-2302 1190.93,-2249 1159.23,-2198.93 1172.08,-2113 1205.94,-1886.54 1214.43,-1144.19 1215.84,-990.14"/>
<polygon fill="#1a2833" stroke="#1a2833" points="1219.34,-990.12 1215.93,-980.08 1212.34,-990.05 1219.34,-990.12"/>
<text text-anchor="middle" x="737.58" y="-2374" font-family="Times,serif" font-size="10.00" fill="#767676">~8.0 || ~8.1 || ~8.2 || ~8.3</text>
</g>
<!-- ext&#45;json -->
<g id="node3" class="node">
<title>ext&#45;json</title>
<path fill="#eeeeee" stroke="black" d="M1001.08,-1547C1001.08,-1547 952.08,-1547 952.08,-1547 946.08,-1547 940.08,-1541 940.08,-1535 940.08,-1535 940.08,-1523 940.08,-1523 940.08,-1517 946.08,-1511 952.08,-1511 952.08,-1511 1001.08,-1511 1001.08,-1511 1007.08,-1511 1013.08,-1517 1013.08,-1523 1013.08,-1523 1013.08,-1535 1013.08,-1535 1013.08,-1541 1007.08,-1547 1001.08,-1547"/>
<text text-anchor="middle" x="976.58" y="-1525.3" font-family="Times,serif" font-size="14.00" fill="#314b5f">ext&#45;json</text>
</g>
<!-- bartlett/php&#45;compatinfo&#45;&gt;ext&#45;json -->
<g id="edge2" class="edge">
<title>bartlett/php&#45;compatinfo&#45;&gt;ext&#45;json</title>
<path fill="none" stroke="#1a2833" d="M138.42,-1303.83C175.3,-1344.04 271.39,-1441.96 373.08,-1490 552.38,-1574.7 619.1,-1605.17 813.08,-1564 821.64,-1562.18 822.72,-1558.6 831.08,-1556 863.42,-1545.94 901.06,-1539.06 929.81,-1534.76"/>
<polygon fill="#1a2833" stroke="#1a2833" points="930.58,-1538.18 939.98,-1533.29 929.58,-1531.26 930.58,-1538.18"/>
<text text-anchor="middle" x="508.58" y="-1584" font-family="Times,serif" font-size="10.00" fill="#767676">*</text>
</g>
<!-- ext&#45;pcre -->
<g id="node4" class="node">
<title>ext&#45;pcre</title>
<path fill="#eeeeee" stroke="black" d="M1002.08,-2293C1002.08,-2293 951.08,-2293 951.08,-2293 945.08,-2293 939.08,-2287 939.08,-2281 939.08,-2281 939.08,-2269 939.08,-2269 939.08,-2263 945.08,-2257 951.08,-2257 951.08,-2257 1002.08,-2257 1002.08,-2257 1008.08,-2257 1014.08,-2263 1014.08,-2269 1014.08,-2269 1014.08,-2281 1014.08,-2281 1014.08,-2287 1008.08,-2293 1002.08,-2293"/>
<text text-anchor="middle" x="976.58" y="-2271.3" font-family="Times,serif" font-size="14.00" fill="#314b5f">ext&#45;pcre</text>
</g>
<!-- bartlett/php&#45;compatinfo&#45;&gt;ext&#45;pcre -->
<g id="edge3" class="edge">
<title>bartlett/php&#45;compatinfo&#45;&gt;ext&#45;pcre</title>
<path fill="none" stroke="#1a2833" d="M122.71,-1304.16C124.13,-1419.03 137.54,-2044.36 261.08,-2178 385.4,-2312.49 480.23,-2251.17 662.08,-2273 756.07,-2284.29 867.07,-2281.16 928.56,-2277.99"/>
<polygon fill="#1a2833" stroke="#1a2833" points="928.93,-2281.48 938.73,-2277.45 928.55,-2274.49 928.93,-2281.48"/>
<text text-anchor="middle" x="508.58" y="-2273" font-family="Times,serif" font-size="10.00" fill="#767676">*</text>
</g>
<!-- ext&#45;spl -->
<g id="node5" class="node">
<title>ext&#45;spl</title>
<path fill="#eeeeee" stroke="black" d="M997.08,-2188C997.08,-2188 956.08,-2188 956.08,-2188 950.08,-2188 944.08,-2182 944.08,-2176 944.08,-2176 944.08,-2164 944.08,-2164 944.08,-2158 950.08,-2152 956.08,-2152 956.08,-2152 997.08,-2152 997.08,-2152 1003.08,-2152 1009.08,-2158 1009.08,-2164 1009.08,-2164 1009.08,-2176 1009.08,-2176 1009.08,-2182 1003.08,-2188 997.08,-2188"/>
<text text-anchor="middle" x="976.58" y="-2166.3" font-family="Times,serif" font-size="14.00" fill="#314b5f">ext&#45;spl</text>
</g>
<!-- bartlett/php&#45;compatinfo&#45;&gt;ext&#45;spl -->
<g id="edge4" class="edge">
<title>bartlett/php&#45;compatinfo&#45;&gt;ext&#45;spl</title>
<path fill="none" stroke="#1a2833" d="M122.2,-1304.09C121.51,-1398.3 131.7,-1836.05 373.08,-2033 474.32,-2115.61 533.62,-2063.09 662.08,-2087 729.18,-2099.49 756.42,-2076.95 813.08,-2115 825.36,-2123.25 818.8,-2134.74 831.08,-2143 861.29,-2163.32 902.71,-2169.38 933.46,-2170.76"/>
<polygon fill="#1a2833" stroke="#1a2833" points="933.76,-2174.27 943.86,-2171.07 933.97,-2167.27 933.76,-2174.27"/>
<text text-anchor="middle" x="508.58" y="-2086" font-family="Times,serif" font-size="10.00" fill="#767676">*</text>
</g>
<!-- bartlett/php&#45;compatinfo&#45;db -->
<g id="node6" class="node">
<title>bartlett/php&#45;compatinfo&#45;db</title>
<path fill="#eeeeee" stroke="black" d="M623.58,-1765C623.58,-1765 393.58,-1765 393.58,-1765 387.58,-1765 381.58,-1759 381.58,-1753 381.58,-1753 381.58,-1741 381.58,-1741 381.58,-1735 387.58,-1729 393.58,-1729 393.58,-1729 623.58,-1729 623.58,-1729 629.58,-1729 635.58,-1735 635.58,-1741 635.58,-1741 635.58,-1753 635.58,-1753 635.58,-1759 629.58,-1765 623.58,-1765"/>
<text text-anchor="middle" x="508.58" y="-1743.3" font-family="Times,serif" font-size="14.00" fill="#314b5f">bartlett/php&#45;compatinfo&#45;db: 6.1.1</text>
</g>
<!-- bartlett/php&#45;compatinfo&#45;&gt;bartlett/php&#45;compatinfo&#45;db -->
<g id="edge25" class="edge">
<title>bartlett/php&#45;compatinfo&#45;&gt;bartlett/php&#45;compatinfo&#45;db</title>
<path fill="none" stroke="#1a2833" d="M126.82,-1304.23C139.52,-1355.02 181.15,-1500.37 261.08,-1592 314.95,-1653.76 399.45,-1699.46 454.18,-1724.67"/>
<polygon fill="#1a2833" stroke="#1a2833" points="452.81,-1727.9 463.37,-1728.84 455.71,-1721.52 452.81,-1727.9"/>
<text text-anchor="middle" x="308.08" y="-1671" font-family="Times,serif" font-size="10.00" fill="#767676">^5.12 || ^6.0</text>
</g>
<!-- composer&#45;runtime&#45;api -->
<g id="node7" class="node">
<title>composer&#45;runtime&#45;api</title>
<path fill="#eeeeee" stroke="black" d="M1051.08,-1439C1051.08,-1439 902.08,-1439 902.08,-1439 896.08,-1439 890.08,-1433 890.08,-1427 890.08,-1427 890.08,-1415 890.08,-1415 890.08,-1409 896.08,-1403 902.08,-1403 902.08,-1403 1051.08,-1403 1051.08,-1403 1057.08,-1403 1063.08,-1409 1063.08,-1415 1063.08,-1415 1063.08,-1427 1063.08,-1427 1063.08,-1433 1057.08,-1439 1051.08,-1439"/>
<text text-anchor="middle" x="976.58" y="-1417.3" font-family="Times,serif" font-size="14.00" fill="#314b5f">composer&#45;runtime&#45;api</text>
</g>
<!-- bartlett/php&#45;compatinfo&#45;&gt;composer&#45;runtime&#45;api -->
<g id="edge31" class="edge">
<title>bartlett/php&#45;compatinfo&#45;&gt;composer&#45;runtime&#45;api</title>
<path fill="none" stroke="#1a2833" d="M175.87,-1302.23C271.98,-1330.62 481.08,-1388.51 662.08,-1412 734.71,-1421.43 817.57,-1423.43 879.85,-1423.21"/>
<polygon fill="#1a2833" stroke="#1a2833" points="880.08,-1426.71 890.06,-1423.16 880.04,-1419.71 880.08,-1426.71"/>
<text text-anchor="middle" x="508.58" y="-1411" font-family="Times,serif" font-size="10.00" fill="#767676">^2.1</text>
</g>
<!-- symfony/config -->
<g id="node14" class="node">
<title>symfony/config</title>
<path fill="#eeeeee" stroke="black" d="M1053.08,-1351C1053.08,-1351 900.08,-1351 900.08,-1351 894.08,-1351 888.08,-1345 888.08,-1339 888.08,-1339 888.08,-1327 888.08,-1327 888.08,-1321 894.08,-1315 900.08,-1315 900.08,-1315 1053.08,-1315 1053.08,-1315 1059.08,-1315 1065.08,-1321 1065.08,-1327 1065.08,-1327 1065.08,-1339 1065.08,-1339 1065.08,-1345 1059.08,-1351 1053.08,-1351"/>
<text text-anchor="middle" x="976.58" y="-1329.3" font-family="Times,serif" font-size="14.00" fill="#314b5f">symfony/config: v6.4.0</text>
</g>
<!-- bartlett/php&#45;compatinfo&#45;&gt;symfony/config -->
<g id="edge45" class="edge">
<title>bartlett/php&#45;compatinfo&#45;&gt;symfony/config</title>
<path fill="none" stroke="#1a2833" d="M232.82,-1293.28C341.84,-1300.35 513.42,-1311.14 662.08,-1319 734.36,-1322.82 816.05,-1326.45 877.92,-1329.05"/>
<polygon fill="#1a2833" stroke="#1a2833" points="877.92,-1332.56 888.06,-1329.48 878.22,-1325.56 877.92,-1332.56"/>
<text text-anchor="middle" x="508.58" y="-1320" font-family="Times,serif" font-size="10.00" fill="#767676">^5.4 || ^6.0 || ^7.0</text>
</g>
<!-- symfony/console -->
<g id="node15" class="node">
<title>symfony/console</title>
<path fill="#eeeeee" stroke="black" d="M1058.58,-1493C1058.58,-1493 894.58,-1493 894.58,-1493 888.58,-1493 882.58,-1487 882.58,-1481 882.58,-1481 882.58,-1469 882.58,-1469 882.58,-1463 888.58,-1457 894.58,-1457 894.58,-1457 1058.58,-1457 1058.58,-1457 1064.58,-1457 1070.58,-1463 1070.58,-1469 1070.58,-1469 1070.58,-1481 1070.58,-1481 1070.58,-1487 1064.58,-1493 1058.58,-1493"/>
<text text-anchor="middle" x="976.58" y="-1471.3" font-family="Times,serif" font-size="14.00" fill="#314b5f">symfony/console: v6.4.2</text>
</g>
<!-- bartlett/php&#45;compatinfo&#45;&gt;symfony/console -->
<g id="edge46" class="edge">
<title>bartlett/php&#45;compatinfo&#45;&gt;symfony/console</title>
<path fill="none" stroke="#1a2833" d="M147.88,-1303.66C191.66,-1333.27 285.22,-1392.66 373.08,-1423 540.79,-1480.91 749.64,-1485.03 872.23,-1481.13"/>
<polygon fill="#1a2833" stroke="#1a2833" points="872.48,-1484.62 882.36,-1480.78 872.24,-1477.63 872.48,-1484.62"/>
<text text-anchor="middle" x="508.58" y="-1478" font-family="Times,serif" font-size="10.00" fill="#767676">^5.4 || ^6.0 || ^7.0</text>
</g>
<!-- symfony/dependency&#45;injection -->
<g id="node16" class="node">
<title>symfony/dependency&#45;injection</title>
<path fill="#eeeeee" stroke="black" d="M1107.58,-1283C1107.58,-1283 845.58,-1283 845.58,-1283 839.58,-1283 833.58,-1277 833.58,-1271 833.58,-1271 833.58,-1259 833.58,-1259 833.58,-1253 839.58,-1247 845.58,-1247 845.58,-1247 1107.58,-1247 1107.58,-1247 1113.58,-1247 1119.58,-1253 1119.58,-1259 1119.58,-1259 1119.58,-1271 1119.58,-1271 1119.58,-1277 1113.58,-1283 1107.58,-1283"/>
<text text-anchor="middle" x="976.58" y="-1261.3" font-family="Times,serif" font-size="14.00" fill="#314b5f">symfony/dependency&#45;injection: v6.4.2</text>
</g>
<!-- bartlett/php&#45;compatinfo&#45;&gt;symfony/dependency&#45;injection -->
<g id="edge50" class="edge">
<title>bartlett/php&#45;compatinfo&#45;&gt;symfony/dependency&#45;injection</title>
<path fill="none" stroke="#1a2833" d="M223.72,-1276.23C358.26,-1264.41 603.47,-1246.91 813.08,-1254 816.4,-1254.11 819.76,-1254.24 823.14,-1254.37"/>
<polygon fill="#1a2833" stroke="#1a2833" points="823.23,-1257.88 833.37,-1254.82 823.53,-1250.89 823.23,-1257.88"/>
<text text-anchor="middle" x="508.58" y="-1267" font-family="Times,serif" font-size="10.00" fill="#767676">^5.4 || ^6.0 || ^7.0</text>
</g>
<!-- symfony/event&#45;dispatcher -->
<g id="node17" class="node">
<title>symfony/event&#45;dispatcher</title>
<path fill="#eeeeee" stroke="black" d="M1091.58,-1229C1091.58,-1229 861.58,-1229 861.58,-1229 855.58,-1229 849.58,-1223 849.58,-1217 849.58,-1217 849.58,-1205 849.58,-1205 849.58,-1199 855.58,-1193 861.58,-1193 861.58,-1193 1091.58,-1193 1091.58,-1193 1097.58,-1193 1103.58,-1199 1103.58,-1205 1103.58,-1205 1103.58,-1217 1103.58,-1217 1103.58,-1223 1097.58,-1229 1091.58,-1229"/>
<text text-anchor="middle" x="976.58" y="-1207.3" font-family="Times,serif" font-size="14.00" fill="#314b5f">symfony/event&#45;dispatcher: v6.4.2</text>
</g>
<!-- bartlett/php&#45;compatinfo&#45;&gt;symfony/event&#45;dispatcher -->
<g id="edge47" class="edge">
<title>bartlett/php&#45;compatinfo&#45;&gt;symfony/event&#45;dispatcher</title>
<path fill="none" stroke="#1a2833" d="M172.92,-1269.67C311.47,-1225.88 695.74,-1112.39 813.08,-1161 823.53,-1165.33 821.16,-1173.56 831.08,-1179 838.37,-1183 846.12,-1186.49 854.1,-1189.55"/>
<polygon fill="#1a2833" stroke="#1a2833" points="852.97,-1192.87 863.56,-1192.95 855.33,-1186.28 852.97,-1192.87"/>
<text text-anchor="middle" x="508.58" y="-1211" font-family="Times,serif" font-size="10.00" fill="#767676">^5.4 || ^6.0 || ^7.0</text>
</g>
<!-- symfony/stopwatch -->
<g id="node22" class="node">
<title>symfony/stopwatch</title>
<path fill="#eeeeee" stroke="black" d="M1068.58,-2134C1068.58,-2134 884.58,-2134 884.58,-2134 878.58,-2134 872.58,-2128 872.58,-2122 872.58,-2122 872.58,-2110 872.58,-2110 872.58,-2104 878.58,-2098 884.58,-2098 884.58,-2098 1068.58,-2098 1068.58,-2098 1074.58,-2098 1080.58,-2104 1080.58,-2110 1080.58,-2110 1080.58,-2122 1080.58,-2122 1080.58,-2128 1074.58,-2134 1068.58,-2134"/>
<text text-anchor="middle" x="976.58" y="-2112.3" font-family="Times,serif" font-size="14.00" fill="#314b5f">symfony/stopwatch: v6.4.0</text>
</g>
<!-- bartlett/php&#45;compatinfo&#45;&gt;symfony/stopwatch -->
<g id="edge55" class="edge">
<title>bartlett/php&#45;compatinfo&#45;&gt;symfony/stopwatch</title>
<path fill="none" stroke="#1a2833" d="M125.4,-1304.13C135.41,-1363.22 173.12,-1553.89 261.08,-1683 393.45,-1877.3 450.06,-1926.39 662.08,-2028 723.63,-2057.5 757.82,-2015.93 813.08,-2056 826.6,-2065.81 817.56,-2079.18 831.08,-2089 840.6,-2095.91 851.37,-2101.21 862.64,-2105.25"/>
<polygon fill="#1a2833" stroke="#1a2833" points="861.62,-2108.6 872.21,-2108.36 863.78,-2101.94 861.62,-2108.6"/>
<text text-anchor="middle" x="508.58" y="-2021" font-family="Times,serif" font-size="10.00" fill="#767676">^5.4 || ^6.0 || ^7.0</text>
</g>
<!-- bartlett/sarif&#45;php&#45;sdk -->
<g id="node23" class="node">
<title>bartlett/sarif&#45;php&#45;sdk</title>
<path fill="#eeeeee" stroke="black" d="M603.08,-2186C603.08,-2186 414.08,-2186 414.08,-2186 408.08,-2186 402.08,-2180 402.08,-2174 402.08,-2174 402.08,-2162 402.08,-2162 402.08,-2156 408.08,-2150 414.08,-2150 414.08,-2150 603.08,-2150 603.08,-2150 609.08,-2150 615.08,-2156 615.08,-2162 615.08,-2162 615.08,-2174 615.08,-2174 615.08,-2180 609.08,-2186 603.08,-2186"/>
<text text-anchor="middle" x="508.58" y="-2164.3" font-family="Times,serif" font-size="14.00" fill="#314b5f">bartlett/sarif&#45;php&#45;sdk: 1.1.0</text>
</g>
<!-- bartlett/php&#45;compatinfo&#45;&gt;bartlett/sarif&#45;php&#45;sdk -->
<g id="edge30" class="edge">
<title>bartlett/php&#45;compatinfo&#45;&gt;bartlett/sarif&#45;php&#45;sdk</title>
<path fill="none" stroke="#1a2833" d="M122.91,-1304.33C125.5,-1414.95 144.56,-1992.97 261.08,-2115 294.52,-2150.03 345.1,-2164.68 391.75,-2170.02"/>
<polygon fill="#1a2833" stroke="#1a2833" points="391.64,-2173.53 401.95,-2171.05 392.35,-2166.56 391.64,-2173.53"/>
<text text-anchor="middle" x="308.08" y="-2166" font-family="Times,serif" font-size="10.00" fill="#767676">^1.0</text>
</g>
<!-- doctrine/collections -->
<g id="node24" class="node">
<title>doctrine/collections</title>
<path fill="#eeeeee" stroke="black" d="M597.08,-1106C597.08,-1106 420.08,-1106 420.08,-1106 414.08,-1106 408.08,-1100 408.08,-1094 408.08,-1094 408.08,-1082 408.08,-1082 408.08,-1076 414.08,-1070 420.08,-1070 420.08,-1070 597.08,-1070 597.08,-1070 603.08,-1070 609.08,-1076 609.08,-1082 609.08,-1082 609.08,-1094 609.08,-1094 609.08,-1100 603.08,-1106 597.08,-1106"/>
<text text-anchor="middle" x="508.58" y="-1084.3" font-family="Times,serif" font-size="14.00" fill="#314b5f">doctrine/collections: 1.8.0</text>
</g>
<!-- bartlett/php&#45;compatinfo&#45;&gt;doctrine/collections -->
<g id="edge34" class="edge">
<title>bartlett/php&#45;compatinfo&#45;&gt;doctrine/collections</title>
<path fill="none" stroke="#1a2833" d="M131.83,-1267.94C150.84,-1233.07 197.74,-1156.87 261.08,-1122 302.33,-1099.29 353.15,-1089.76 397.9,-1086.29"/>
<polygon fill="#1a2833" stroke="#1a2833" points="398.2,-1089.78 407.94,-1085.61 397.73,-1082.8 398.2,-1089.78"/>
<text text-anchor="middle" x="308.08" y="-1125" font-family="Times,serif" font-size="10.00" fill="#767676">^1.4</text>
</g>
<!-- nikic/php&#45;parser -->
<g id="node26" class="node">
<title>nikic/php&#45;parser</title>
<path fill="#eeeeee" stroke="black" d="M594.08,-1047C594.08,-1047 423.08,-1047 423.08,-1047 417.08,-1047 411.08,-1041 411.08,-1035 411.08,-1035 411.08,-1023 411.08,-1023 411.08,-1017 417.08,-1011 423.08,-1011 423.08,-1011 594.08,-1011 594.08,-1011 600.08,-1011 606.08,-1017 606.08,-1023 606.08,-1023 606.08,-1035 606.08,-1035 606.08,-1041 600.08,-1047 594.08,-1047"/>
<text text-anchor="middle" x="508.58" y="-1025.3" font-family="Times,serif" font-size="14.00" fill="#314b5f">nikic/php&#45;parser: v4.18.0</text>
</g>
<!-- bartlett/php&#45;compatinfo&#45;&gt;nikic/php&#45;parser -->
<g id="edge37" class="edge">
<title>bartlett/php&#45;compatinfo&#45;&gt;nikic/php&#45;parser</title>
<path fill="none" stroke="#1a2833" d="M128.9,-1267.93C144.41,-1226.73 188.32,-1125.6 261.08,-1077 301.95,-1049.7 354.62,-1037.14 400.78,-1031.62"/>
<polygon fill="#1a2833" stroke="#1a2833" points="401.27,-1035.09 410.83,-1030.52 400.5,-1028.13 401.27,-1035.09"/>
<text text-anchor="middle" x="308.08" y="-1080" font-family="Times,serif" font-size="10.00" fill="#767676">^4.10</text>
</g>
<!-- psr/log -->
<g id="node28" class="node">
<title>psr/log</title>
<path fill="#eeeeee" stroke="black" d="M781.08,-980C781.08,-980 694.08,-980 694.08,-980 688.08,-980 682.08,-974 682.08,-968 682.08,-968 682.08,-956 682.08,-956 682.08,-950 688.08,-944 694.08,-944 694.08,-944 781.08,-944 781.08,-944 787.08,-944 793.08,-950 793.08,-956 793.08,-956 793.08,-968 793.08,-968 793.08,-974 787.08,-980 781.08,-980"/>
<text text-anchor="middle" x="737.58" y="-958.3" font-family="Times,serif" font-size="14.00" fill="#314b5f">psr/log: 3.0.0</text>
</g>
<!-- bartlett/php&#45;compatinfo&#45;&gt;psr/log -->
<g id="edge39" class="edge">
<title>bartlett/php&#45;compatinfo&#45;&gt;psr/log</title>
<path fill="none" stroke="#1a2833" d="M126.48,-1267.97C137.96,-1220.01 176.07,-1088.64 261.08,-1025 382.76,-933.9 572.67,-940.68 671.65,-952.08"/>
<polygon fill="#1a2833" stroke="#1a2833" points="671.46,-955.58 681.81,-953.3 672.3,-948.63 671.46,-955.58"/>
<text text-anchor="middle" x="308.08" y="-1028" font-family="Times,serif" font-size="10.00" fill="#767676">^3.0</text>
</g>
<!-- ramsey/uuid -->
<g id="node29" class="node">
<title>ramsey/uuid</title>
<path fill="#eeeeee" stroke="black" d="M571.58,-926C571.58,-926 445.58,-926 445.58,-926 439.58,-926 433.58,-920 433.58,-914 433.58,-914 433.58,-902 433.58,-902 433.58,-896 439.58,-890 445.58,-890 445.58,-890 571.58,-890 571.58,-890 577.58,-890 583.58,-896 583.58,-902 583.58,-902 583.58,-914 583.58,-914 583.58,-920 577.58,-926 571.58,-926"/>
<text text-anchor="middle" x="508.58" y="-904.3" font-family="Times,serif" font-size="14.00" fill="#314b5f">ramsey/uuid: 4.7.5</text>
</g>
<!-- bartlett/php&#45;compatinfo&#45;&gt;ramsey/uuid -->
<g id="edge44" class="edge">
<title>bartlett/php&#45;compatinfo&#45;&gt;ramsey/uuid</title>
<path fill="none" stroke="#1a2833" d="M123.67,-1267.97C128.36,-1209.62 151.65,-1024.85 261.08,-940 306.56,-904.74 371.55,-897.53 423.38,-898.72"/>
<polygon fill="#1a2833" stroke="#1a2833" points="423.45,-902.22 433.56,-899.06 423.68,-895.22 423.45,-902.22"/>
<text text-anchor="middle" x="308.08" y="-943" font-family="Times,serif" font-size="10.00" fill="#767676">^3.9 || ^4.0</text>
</g>
<!-- symfony/finder -->
<g id="node32" class="node">
<title>symfony/finder</title>
<path fill="#eeeeee" stroke="black" d="M1052.58,-137C1052.58,-137 900.58,-137 900.58,-137 894.58,-137 888.58,-131 888.58,-125 888.58,-125 888.58,-113 888.58,-113 888.58,-107 894.58,-101 900.58,-101 900.58,-101 1052.58,-101 1052.58,-101 1058.58,-101 1064.58,-107 1064.58,-113 1064.58,-113 1064.58,-125 1064.58,-125 1064.58,-131 1058.58,-137 1052.58,-137"/>
<text text-anchor="middle" x="976.58" y="-115.3" font-family="Times,serif" font-size="14.00" fill="#314b5f">symfony/finder: v6.4.0</text>
</g>
<!-- bartlett/php&#45;compatinfo&#45;&gt;symfony/finder -->
<g id="edge49" class="edge">
<title>bartlett/php&#45;compatinfo&#45;&gt;symfony/finder</title>
<path fill="none" stroke="#1a2833" d="M123.95,-1267.95C130.53,-1190.38 162.12,-878.79 261.08,-646 373.75,-380.96 404.44,-265.7 662.08,-137 728.74,-103.7 813.59,-100.83 878.2,-105.39"/>
<polygon fill="#1a2833" stroke="#1a2833" points="878.15,-108.89 888.39,-106.18 878.69,-101.91 878.15,-108.89"/>
<text text-anchor="middle" x="508.58" y="-398" font-family="Times,serif" font-size="10.00" fill="#767676">^5.4 || ^6.0 || ^7.0</text>
</g>
<!-- symfony/serializer -->
<g id="node33" class="node">
<title>symfony/serializer</title>
<path fill="#eeeeee" stroke="black" d="M597.08,-694C597.08,-694 420.08,-694 420.08,-694 414.08,-694 408.08,-688 408.08,-682 408.08,-682 408.08,-670 408.08,-670 408.08,-664 414.08,-658 420.08,-658 420.08,-658 597.08,-658 597.08,-658 603.08,-658 609.08,-664 609.08,-670 609.08,-670 609.08,-682 609.08,-682 609.08,-688 603.08,-694 597.08,-694"/>
<text text-anchor="middle" x="508.58" y="-672.3" font-family="Times,serif" font-size="14.00" fill="#314b5f">symfony/serializer: v6.4.2</text>
</g>
<!-- bartlett/php&#45;compatinfo&#45;&gt;symfony/serializer -->
<g id="edge54" class="edge">
<title>bartlett/php&#45;compatinfo&#45;&gt;symfony/serializer</title>
<path fill="none" stroke="#1a2833" d="M125.39,-1267.83C135.36,-1208.59 172.96,-1017.42 261.08,-888 317.8,-804.69 415.32,-734.46 469.13,-699.59"/>
<polygon fill="#1a2833" stroke="#1a2833" points="471.16,-702.44 477.69,-694.1 467.38,-696.55 471.16,-702.44"/>
<text text-anchor="middle" x="308.08" y="-891" font-family="Times,serif" font-size="10.00" fill="#767676">^5.4 || ^6.0 || ^7.0</text>
</g>
<!-- symfony/framework&#45;bundle -->
<g id="node36" class="node">
<title>symfony/framework&#45;bundle</title>
<path fill="#eeeeee" stroke="black" d="M629.08,-535C629.08,-535 388.08,-535 388.08,-535 382.08,-535 376.08,-529 376.08,-523 376.08,-523 376.08,-511 376.08,-511 376.08,-505 382.08,-499 388.08,-499 388.08,-499 629.08,-499 629.08,-499 635.08,-499 641.08,-505 641.08,-511 641.08,-511 641.08,-523 641.08,-523 641.08,-529 635.08,-535 629.08,-535"/>
<text text-anchor="middle" x="508.58" y="-513.3" font-family="Times,serif" font-size="14.00" fill="#314b5f">symfony/framework&#45;bundle: v6.4.2</text>
</g>
<!-- bartlett/php&#45;compatinfo&#45;&gt;symfony/framework&#45;bundle -->
<g id="edge71" class="edge">
<title>bartlett/php&#45;compatinfo&#45;&gt;symfony/framework&#45;bundle</title>
<path fill="none" stroke="#1a2833" stroke-dasharray="5,2" d="M124.41,-1267.64C132.03,-1198.79 165.07,-950.82 261.08,-774 315.96,-672.92 421.26,-583.02 474.71,-541.44"/>
<polygon fill="#1a2833" stroke="#1a2833" points="477.05,-544.06 482.83,-535.19 472.77,-538.52 477.05,-544.06"/>
<text text-anchor="middle" x="308.08" y="-777" font-family="Times,serif" font-size="10.00" fill="#767676">^5.4 || ^6.0 || ^7.0</text>
</g>
<!-- bamarni/composer&#45;bin&#45;plugin -->
<g id="node44" class="node">
<title>bamarni/composer&#45;bin&#45;plugin</title>
<path fill="#eeeeee" stroke="black" d="M632.08,-87C632.08,-87 385.08,-87 385.08,-87 379.08,-87 373.08,-81 373.08,-75 373.08,-75 373.08,-63 373.08,-63 373.08,-57 379.08,-51 385.08,-51 385.08,-51 632.08,-51 632.08,-51 638.08,-51 644.08,-57 644.08,-63 644.08,-63 644.08,-75 644.08,-75 644.08,-81 638.08,-87 632.08,-87"/>
<text text-anchor="middle" x="508.58" y="-65.3" font-family="Times,serif" font-size="14.00" fill="#314b5f">bamarni/composer&#45;bin&#45;plugin: 1.8.2</text>
</g>
<!-- bartlett/php&#45;compatinfo&#45;&gt;bamarni/composer&#45;bin&#45;plugin -->
<g id="edge74" class="edge">
<title>bartlett/php&#45;compatinfo&#45;&gt;bamarni/composer&#45;bin&#45;plugin</title>
<path fill="none" stroke="#1a2833" stroke-dasharray="5,2" d="M123.32,-1267.88C129.62,-1125.14 174.31,-184.86 261.08,-98 287.85,-71.21 325.29,-59.39 362.93,-55.43"/>
<polygon fill="#1a2833" stroke="#1a2833" points="363.35,-58.91 373.01,-54.55 362.75,-51.93 363.35,-58.91"/>
<text text-anchor="middle" x="308.08" y="-101" font-family="Times,serif" font-size="10.00" fill="#767676">^1.8</text>
</g>
<!-- bartlett/php&#45;compatinfo&#45;db&#45;&gt;php -->
<g id="edge14" class="edge">
<title>bartlett/php&#45;compatinfo&#45;db&#45;&gt;php</title>
<path fill="none" stroke="#1a2833" d="M518.5,-1765.03C538.44,-1803.27 590.55,-1892.48 662.08,-1935 720.75,-1969.88 755.43,-1926.45 813.08,-1963 824.64,-1970.33 818.89,-1981.76 831.08,-1988 888.63,-2017.48 1074.31,-2031.59 1122.08,-1988 1197.88,-1918.82 1213.32,-1149.15 1215.7,-990.5"/>
<polygon fill="#1a2833" stroke="#1a2833" points="1219.21,-990.2 1215.85,-980.15 1212.21,-990.1 1219.21,-990.2"/>
<text text-anchor="middle" x="976.58" y="-2018" font-family="Times,serif" font-size="10.00" fill="#767676">^8.1</text>
</g>
<!-- bartlett/php&#45;compatinfo&#45;db&#45;&gt;ext&#45;json -->
<g id="edge9" class="edge">
<title>bartlett/php&#45;compatinfo&#45;db&#45;&gt;ext&#45;json</title>
<path fill="none" stroke="#1a2833" d="M530.04,-1728.6C557.78,-1704.8 609.87,-1664.02 662.08,-1644 725.35,-1619.74 762.28,-1667.84 813.08,-1623 836.19,-1602.59 808.44,-1576.94 831.08,-1556 857.33,-1531.71 898.15,-1525.92 929.72,-1525.66"/>
<polygon fill="#1a2833" stroke="#1a2833" points="930,-1529.16 940.04,-1525.76 930.07,-1522.16 930,-1529.16"/>
<text text-anchor="middle" x="737.58" y="-1647" font-family="Times,serif" font-size="10.00" fill="#767676">*</text>
</g>
<!-- bartlett/php&#45;compatinfo&#45;db&#45;&gt;ext&#45;pcre -->
<g id="edge10" class="edge">
<title>bartlett/php&#45;compatinfo&#45;db&#45;&gt;ext&#45;pcre</title>
<path fill="none" stroke="#1a2833" d="M521.4,-1765.28C548.34,-1807.91 614.23,-1918.08 644.08,-2020 654.13,-2054.34 639.04,-2152.63 662.08,-2180 707.09,-2233.48 753.41,-2187.58 813.08,-2224 823.01,-2230.06 820.96,-2237.27 831.08,-2243 861.08,-2259.99 899.33,-2267.96 928.94,-2271.7"/>
<polygon fill="#1a2833" stroke="#1a2833" points="928.69,-2275.19 939.02,-2272.85 929.49,-2268.24 928.69,-2275.19"/>
<text text-anchor="middle" x="737.58" y="-2227" font-family="Times,serif" font-size="10.00" fill="#767676">*</text>
</g>
<!-- bartlett/php&#45;compatinfo&#45;db&#45;&gt;ext&#45;spl -->
<g id="edge13" class="edge">
<title>bartlett/php&#45;compatinfo&#45;db&#45;&gt;ext&#45;spl</title>
<path fill="none" stroke="#1a2833" d="M514,-1765.18C527.2,-1815.6 571.21,-1958.29 662.08,-2032 716.37,-2076.04 764.17,-2026.05 813.08,-2076 834.65,-2098.03 808.44,-2122.06 831.08,-2143 858.43,-2168.3 901.58,-2173.53 933.62,-2173.34"/>
<polygon fill="#1a2833" stroke="#1a2833" points="934.1,-2176.83 944.01,-2173.1 933.93,-2169.84 934.1,-2176.83"/>
<text text-anchor="middle" x="737.58" y="-2079" font-family="Times,serif" font-size="10.00" fill="#767676">*</text>
</g>
<!-- bartlett/php&#45;compatinfo&#45;db&#45;&gt;composer&#45;runtime&#45;api -->
<g id="edge5" class="edge">
<title>bartlett/php&#45;compatinfo&#45;db&#45;&gt;composer&#45;runtime&#45;api</title>
<path fill="none" stroke="#1a2833" d="M530.83,-1728.89C560.73,-1702.23 614.83,-1649.41 644.08,-1593 659.66,-1562.95 638.76,-1543.54 662.08,-1519 710.32,-1468.24 756.39,-1515.11 813.08,-1474 824.46,-1465.75 819.28,-1455.64 831.08,-1448 845.67,-1438.54 862.73,-1432.21 879.91,-1428"/>
<polygon fill="#1a2833" stroke="#1a2833" points="881.01,-1431.34 890.02,-1425.77 879.5,-1424.51 881.01,-1431.34"/>
<text text-anchor="middle" x="737.58" y="-1522" font-family="Times,serif" font-size="10.00" fill="#767676">^2.0</text>
</g>
<!-- composer/semver -->
<g id="node8" class="node">
<title>composer/semver</title>
<path fill="#eeeeee" stroke="black" d="M1058.58,-1979C1058.58,-1979 894.58,-1979 894.58,-1979 888.58,-1979 882.58,-1973 882.58,-1967 882.58,-1967 882.58,-1955 882.58,-1955 882.58,-1949 888.58,-1943 894.58,-1943 894.58,-1943 1058.58,-1943 1058.58,-1943 1064.58,-1943 1070.58,-1949 1070.58,-1955 1070.58,-1955 1070.58,-1967 1070.58,-1967 1070.58,-1973 1064.58,-1979 1058.58,-1979"/>
<text text-anchor="middle" x="976.58" y="-1957.3" font-family="Times,serif" font-size="14.00" fill="#314b5f">composer/semver: 3.4.0</text>
</g>
<!-- bartlett/php&#45;compatinfo&#45;db&#45;&gt;composer/semver -->
<g id="edge6" class="edge">
<title>bartlett/php&#45;compatinfo&#45;db&#45;&gt;composer/semver</title>
<path fill="none" stroke="#1a2833" d="M521.51,-1765.18C544.38,-1798.36 597.86,-1868.32 662.08,-1901 722.58,-1931.79 748.84,-1902.06 813.08,-1924 821.74,-1926.96 822.47,-1930.9 831.08,-1934 844.12,-1938.7 858.13,-1942.62 872.12,-1945.88"/>
<polygon fill="#1a2833" stroke="#1a2833" points="871.76,-1949.39 882.28,-1948.14 873.28,-1942.55 871.76,-1949.39"/>
<text text-anchor="middle" x="737.58" y="-1927" font-family="Times,serif" font-size="10.00" fill="#767676">^3.0</text>
</g>
<!-- doctrine/dbal -->
<g id="node9" class="node">
<title>doctrine/dbal</title>
<path fill="#eeeeee" stroke="black" d="M1042.58,-1925C1042.58,-1925 910.58,-1925 910.58,-1925 904.58,-1925 898.58,-1919 898.58,-1913 898.58,-1913 898.58,-1901 898.58,-1901 898.58,-1895 904.58,-1889 910.58,-1889 910.58,-1889 1042.58,-1889 1042.58,-1889 1048.58,-1889 1054.58,-1895 1054.58,-1901 1054.58,-1901 1054.58,-1913 1054.58,-1913 1054.58,-1919 1048.58,-1925 1042.58,-1925"/>
<text text-anchor="middle" x="976.58" y="-1903.3" font-family="Times,serif" font-size="14.00" fill="#314b5f">doctrine/dbal: 3.7.2</text>
</g>
<!-- bartlett/php&#45;compatinfo&#45;db&#45;&gt;doctrine/dbal -->
<g id="edge7" class="edge">
<title>bartlett/php&#45;compatinfo&#45;db&#45;&gt;doctrine/dbal</title>
<path fill="none" stroke="#1a2833" d="M530.74,-1765.05C558.83,-1788.01 610.89,-1827.19 662.08,-1848 735.13,-1877.69 823.9,-1892.61 888.31,-1900"/>
<polygon fill="#1a2833" stroke="#1a2833" points="888.1,-1903.5 898.43,-1901.12 888.87,-1896.54 888.1,-1903.5"/>
<text text-anchor="middle" x="737.58" y="-1892" font-family="Times,serif" font-size="10.00" fill="#767676">^3.2</text>
</g>
<!-- doctrine/orm -->
<g id="node10" class="node">
<title>doctrine/orm</title>
<path fill="#eeeeee" stroke="black" d="M1046.08,-1871C1046.08,-1871 907.08,-1871 907.08,-1871 901.08,-1871 895.08,-1865 895.08,-1859 895.08,-1859 895.08,-1847 895.08,-1847 895.08,-1841 901.08,-1835 907.08,-1835 907.08,-1835 1046.08,-1835 1046.08,-1835 1052.08,-1835 1058.08,-1841 1058.08,-1847 1058.08,-1847 1058.08,-1859 1058.08,-1859 1058.08,-1865 1052.08,-1871 1046.08,-1871"/>
<text text-anchor="middle" x="976.58" y="-1849.3" font-family="Times,serif" font-size="14.00" fill="#314b5f">doctrine/orm: 2.17.2</text>
</g>
<!-- bartlett/php&#45;compatinfo&#45;db&#45;&gt;doctrine/orm -->
<g id="edge8" class="edge">
<title>bartlett/php&#45;compatinfo&#45;db&#45;&gt;doctrine/orm</title>
<path fill="none" stroke="#1a2833" d="M549.91,-1765.03C580.22,-1777.91 623.05,-1794.71 662.08,-1805 735.99,-1824.48 821.93,-1836.95 885.12,-1844.28"/>
<polygon fill="#1a2833" stroke="#1a2833" points="884.73,-1847.76 895.06,-1845.41 885.52,-1840.8 884.73,-1847.76"/>
<text text-anchor="middle" x="737.58" y="-1836" font-family="Times,serif" font-size="10.00" fill="#767676">^2.12</text>
</g>
<!-- ext&#45;pdo -->
<g id="node11" class="node">
<title>ext&#45;pdo</title>
<path fill="#eeeeee" stroke="black" d="M999.58,-1817C999.58,-1817 953.58,-1817 953.58,-1817 947.58,-1817 941.58,-1811 941.58,-1805 941.58,-1805 941.58,-1793 941.58,-1793 941.58,-1787 947.58,-1781 953.58,-1781 953.58,-1781 999.58,-1781 999.58,-1781 1005.58,-1781 1011.58,-1787 1011.58,-1793 1011.58,-1793 1011.58,-1805 1011.58,-1805 1011.58,-1811 1005.58,-1817 999.58,-1817"/>
<text text-anchor="middle" x="976.58" y="-1795.3" font-family="Times,serif" font-size="14.00" fill="#314b5f">ext&#45;pdo</text>
</g>
<!-- bartlett/php&#45;compatinfo&#45;db&#45;&gt;ext&#45;pdo -->
<g id="edge11" class="edge">
<title>bartlett/php&#45;compatinfo&#45;db&#45;&gt;ext&#45;pdo</title>
<path fill="none" stroke="#1a2833" d="M595.2,-1765.07C616.93,-1769.16 640.3,-1773.14 662.08,-1776 757.47,-1788.53 870.16,-1794.71 931.08,-1797.34"/>
<polygon fill="#1a2833" stroke="#1a2833" points="930.98,-1800.84 941.12,-1797.77 931.27,-1793.85 930.98,-1800.84"/>
<text text-anchor="middle" x="737.58" y="-1793" font-family="Times,serif" font-size="10.00" fill="#767676">*</text>
</g>
<!-- ext&#45;phar -->
<g id="node12" class="node">
<title>ext&#45;phar</title>
<path fill="#eeeeee" stroke="black" d="M1003.08,-1763C1003.08,-1763 950.08,-1763 950.08,-1763 944.08,-1763 938.08,-1757 938.08,-1751 938.08,-1751 938.08,-1739 938.08,-1739 938.08,-1733 944.08,-1727 950.08,-1727 950.08,-1727 1003.08,-1727 1003.08,-1727 1009.08,-1727 1015.08,-1733 1015.08,-1739 1015.08,-1739 1015.08,-1751 1015.08,-1751 1015.08,-1757 1009.08,-1763 1003.08,-1763"/>
<text text-anchor="middle" x="976.58" y="-1741.3" font-family="Times,serif" font-size="14.00" fill="#314b5f">ext&#45;phar</text>
</g>
<!-- bartlett/php&#45;compatinfo&#45;db&#45;&gt;ext&#45;phar -->
<g id="edge12" class="edge">
<title>bartlett/php&#45;compatinfo&#45;db&#45;&gt;ext&#45;phar</title>
<path fill="none" stroke="#1a2833" d="M635.61,-1757.69C644.56,-1758.22 653.45,-1758.66 662.08,-1759 729.14,-1761.63 746.03,-1761.88 813.08,-1759 851.75,-1757.34 895.46,-1753.46 927.8,-1750.2"/>
<polygon fill="#1a2833" stroke="#1a2833" points="928.29,-1753.67 937.88,-1749.17 927.57,-1746.71 928.29,-1753.67"/>
<text text-anchor="middle" x="737.58" y="-1764" font-family="Times,serif" font-size="10.00" fill="#767676">*</text>
</g>
<!-- symfony/cache -->
<g id="node13" class="node">
<title>symfony/cache</title>
<path fill="#eeeeee" stroke="black" d="M1052.08,-771C1052.08,-771 901.08,-771 901.08,-771 895.08,-771 889.08,-765 889.08,-759 889.08,-759 889.08,-747 889.08,-747 889.08,-741 895.08,-735 901.08,-735 901.08,-735 1052.08,-735 1052.08,-735 1058.08,-735 1064.08,-741 1064.08,-747 1064.08,-747 1064.08,-759 1064.08,-759 1064.08,-765 1058.08,-771 1052.08,-771"/>
<text text-anchor="middle" x="976.58" y="-749.3" font-family="Times,serif" font-size="14.00" fill="#314b5f">symfony/cache: v6.4.2</text>
</g>
<!-- bartlett/php&#45;compatinfo&#45;db&#45;&gt;symfony/cache -->
<g id="edge15" class="edge">
<title>bartlett/php&#45;compatinfo&#45;db&#45;&gt;symfony/cache</title>
<path fill="none" stroke="#1a2833" d="M533.16,-1728.94C565.06,-1702.91 620.67,-1651.5 644.08,-1593 661.19,-1550.25 633.43,-1215.05 662.08,-1179 705.42,-1124.46 769.53,-1191.37 813.08,-1137 862.04,-1075.87 780.5,-844.81 831.08,-785 843.44,-770.38 860.85,-761.56 879.32,-756.4"/>
<polygon fill="#1a2833" stroke="#1a2833" points="880.17,-759.8 889.05,-754.03 878.51,-753 880.17,-759.8"/>
<text text-anchor="middle" x="737.58" y="-1182" font-family="Times,serif" font-size="10.00" fill="#767676">^6.4 || ^7.0</text>
</g>
<!-- bartlett/php&#45;compatinfo&#45;db&#45;&gt;symfony/config -->
<g id="edge16" class="edge">
<title>bartlett/php&#45;compatinfo&#45;db&#45;&gt;symfony/config</title>
<path fill="none" stroke="#1a2833" d="M532.16,-1728.85C563.15,-1702.52 617.98,-1650.55 644.08,-1593 668.89,-1538.27 622.89,-1504.55 662.08,-1459 707.66,-1406.01 754.34,-1452.89 813.08,-1415 823.41,-1408.34 821.15,-1401.25 831.08,-1394 853.7,-1377.48 881.47,-1364.39 906.6,-1354.64"/>
<polygon fill="#1a2833" stroke="#1a2833" points="907.96,-1357.86 916.08,-1351.06 905.49,-1351.31 907.96,-1357.86"/>
<text text-anchor="middle" x="737.58" y="-1462" font-family="Times,serif" font-size="10.00" fill="#767676">^6.4 || ^7.0</text>
</g>
<!-- bartlett/php&#45;compatinfo&#45;db&#45;&gt;symfony/console -->
<g id="edge17" class="edge">
<title>bartlett/php&#45;compatinfo&#45;db&#45;&gt;symfony/console</title>
<path fill="none" stroke="#1a2833" d="M524.96,-1728.58C550.47,-1699.2 604.44,-1641.84 662.08,-1610 723.16,-1576.26 763.92,-1616.52 813.08,-1567 834.2,-1545.73 809,-1522.27 831.08,-1502 842.83,-1491.21 857.47,-1484.08 872.87,-1479.46"/>
<polygon fill="#1a2833" stroke="#1a2833" points="873.77,-1482.85 882.54,-1476.91 871.98,-1476.08 873.77,-1482.85"/>
<text text-anchor="middle" x="737.58" y="-1613" font-family="Times,serif" font-size="10.00" fill="#767676">^6.4 || ^7.0</text>
</g>
<!-- bartlett/php&#45;compatinfo&#45;db&#45;&gt;symfony/dependency&#45;injection -->
<g id="edge18" class="edge">
<title>bartlett/php&#45;compatinfo&#45;db&#45;&gt;symfony/dependency&#45;injection</title>
<path fill="none" stroke="#1a2833" d="M532.86,-1728.82C564.42,-1702.65 619.62,-1651.07 644.08,-1593 663.64,-1546.57 630.39,-1406.16 662.08,-1367 706.13,-1312.56 751.9,-1356.07 813.08,-1322 822.43,-1316.79 821.69,-1311.15 831.08,-1306 845.7,-1297.98 862.03,-1291.41 878.31,-1286.07"/>
<polygon fill="#1a2833" stroke="#1a2833" points="879.39,-1289.4 887.88,-1283.06 877.29,-1282.72 879.39,-1289.4"/>
<text text-anchor="middle" x="737.58" y="-1370" font-family="Times,serif" font-size="10.00" fill="#767676">^6.4 || ^7.0</text>
</g>
<!-- bartlett/php&#45;compatinfo&#45;db&#45;&gt;symfony/event&#45;dispatcher -->
<g id="edge19" class="edge">
<title>bartlett/php&#45;compatinfo&#45;db&#45;&gt;symfony/event&#45;dispatcher</title>
<path fill="none" stroke="#1a2833" d="M533.05,-1728.9C564.83,-1702.82 620.29,-1651.35 644.08,-1593 657.48,-1560.13 638.97,-1300.95 662.08,-1274 674.25,-1259.8 760.45,-1243.1 839.38,-1230.46"/>
<polygon fill="#1a2833" stroke="#1a2833" points="840.14,-1233.88 849.47,-1228.86 839.04,-1226.97 840.14,-1233.88"/>
<text text-anchor="middle" x="737.58" y="-1277" font-family="Times,serif" font-size="10.00" fill="#767676">^6.4 || ^7.0</text>
</g>
<!-- symfony/http&#45;client -->
<g id="node18" class="node">
<title>symfony/http&#45;client</title>
<path fill="#eeeeee" stroke="black" d="M1069.08,-1709C1069.08,-1709 884.08,-1709 884.08,-1709 878.08,-1709 872.08,-1703 872.08,-1697 872.08,-1697 872.08,-1685 872.08,-1685 872.08,-1679 878.08,-1673 884.08,-1673 884.08,-1673 1069.08,-1673 1069.08,-1673 1075.08,-1673 1081.08,-1679 1081.08,-1685 1081.08,-1685 1081.08,-1697 1081.08,-1697 1081.08,-1703 1075.08,-1709 1069.08,-1709"/>
<text text-anchor="middle" x="976.58" y="-1687.3" font-family="Times,serif" font-size="14.00" fill="#314b5f">symfony/http&#45;client: v6.4.2</text>
</g>
<!-- bartlett/php&#45;compatinfo&#45;db&#45;&gt;symfony/http&#45;client -->
<g id="edge20" class="edge">
<title>bartlett/php&#45;compatinfo&#45;db&#45;&gt;symfony/http&#45;client</title>
<path fill="none" stroke="#1a2833" d="M635.58,-1746.26C690.63,-1743.79 755.61,-1737.95 813.08,-1725 821.45,-1723.11 822.82,-1720.35 831.08,-1718 841.03,-1715.16 851.45,-1712.55 861.95,-1710.15"/>
<polygon fill="#1a2833" stroke="#1a2833" points="863.01,-1713.5 872.02,-1707.93 861.5,-1706.67 863.01,-1713.5"/>
<text text-anchor="middle" x="737.58" y="-1747" font-family="Times,serif" font-size="10.00" fill="#767676">^6.4 || ^7.0</text>
</g>
<!-- symfony/messenger -->
<g id="node19" class="node">
<title>symfony/messenger</title>
<path fill="#eeeeee" stroke="black" d="M1070.58,-1655C1070.58,-1655 882.58,-1655 882.58,-1655 876.58,-1655 870.58,-1649 870.58,-1643 870.58,-1643 870.58,-1631 870.58,-1631 870.58,-1625 876.58,-1619 882.58,-1619 882.58,-1619 1070.58,-1619 1070.58,-1619 1076.58,-1619 1082.58,-1625 1082.58,-1631 1082.58,-1631 1082.58,-1643 1082.58,-1643 1082.58,-1649 1076.58,-1655 1070.58,-1655"/>
<text text-anchor="middle" x="976.58" y="-1633.3" font-family="Times,serif" font-size="14.00" fill="#314b5f">symfony/messenger: v6.4.0</text>
</g>
<!-- bartlett/php&#45;compatinfo&#45;db&#45;&gt;symfony/messenger -->
<g id="edge21" class="edge">
<title>bartlett/php&#45;compatinfo&#45;db&#45;&gt;symfony/messenger</title>
<path fill="none" stroke="#1a2833" d="M582.22,-1728.96C607.41,-1723.07 635.9,-1716.82 662.08,-1712 728.72,-1699.74 755.69,-1727.02 813.08,-1691 825.29,-1683.33 819.04,-1671.95 831.08,-1664 840.13,-1658.02 850.15,-1653.29 860.58,-1649.54"/>
<polygon fill="#1a2833" stroke="#1a2833" points="861.84,-1652.81 870.26,-1646.38 859.66,-1646.16 861.84,-1652.81"/>
<text text-anchor="middle" x="737.58" y="-1715" font-family="Times,serif" font-size="10.00" fill="#767676">^6.4 || ^7.0</text>
</g>
<!-- symfony/process -->
<g id="node20" class="node">
<title>symfony/process</title>
<path fill="#eeeeee" stroke="black" d="M1059.08,-1601C1059.08,-1601 894.08,-1601 894.08,-1601 888.08,-1601 882.08,-1595 882.08,-1589 882.08,-1589 882.08,-1577 882.08,-1577 882.08,-1571 888.08,-1565 894.08,-1565 894.08,-1565 1059.08,-1565 1059.08,-1565 1065.08,-1565 1071.08,-1571 1071.08,-1577 1071.08,-1577 1071.08,-1589 1071.08,-1589 1071.08,-1595 1065.08,-1601 1059.08,-1601"/>
<text text-anchor="middle" x="976.58" y="-1579.3" font-family="Times,serif" font-size="14.00" fill="#314b5f">symfony/process: v6.4.2</text>
</g>
<!-- bartlett/php&#45;compatinfo&#45;db&#45;&gt;symfony/process -->
<g id="edge22" class="edge">
<title>bartlett/php&#45;compatinfo&#45;db&#45;&gt;symfony/process</title>
<path fill="none" stroke="#1a2833" d="M542.15,-1728.94C572.33,-1713.02 618.95,-1690.47 662.08,-1678 727.17,-1659.17 760.04,-1699.16 813.08,-1657 830.59,-1643.08 813.9,-1624.32 831.08,-1610 842.9,-1600.15 857.17,-1593.44 872.07,-1588.94"/>
<polygon fill="#1a2833" stroke="#1a2833" points="873.19,-1592.26 881.94,-1586.29 871.38,-1585.5 873.19,-1592.26"/>
<text text-anchor="middle" x="737.58" y="-1681" font-family="Times,serif" font-size="10.00" fill="#767676">^6.4 || ^7.0</text>
</g>
<!-- symfony/requirements&#45;checker -->
<g id="node21" class="node">
<title>symfony/requirements&#45;checker</title>
<path fill="#eeeeee" stroke="black" d="M1110.08,-2080C1110.08,-2080 843.08,-2080 843.08,-2080 837.08,-2080 831.08,-2074 831.08,-2068 831.08,-2068 831.08,-2056 831.08,-2056 831.08,-2050 837.08,-2044 843.08,-2044 843.08,-2044 1110.08,-2044 1110.08,-2044 1116.08,-2044 1122.08,-2050 1122.08,-2056 1122.08,-2056 1122.08,-2068 1122.08,-2068 1122.08,-2074 1116.08,-2080 1110.08,-2080"/>
<text text-anchor="middle" x="976.58" y="-2058.3" font-family="Times,serif" font-size="14.00" fill="#314b5f">symfony/requirements&#45;checker: v2.0.1</text>
</g>
<!-- bartlett/php&#45;compatinfo&#45;db&#45;&gt;symfony/requirements&#45;checker -->
<g id="edge23" class="edge">
<title>bartlett/php&#45;compatinfo&#45;db&#45;&gt;symfony/requirements&#45;checker</title>
<path fill="none" stroke="#1a2833" d="M516.62,-1765.02C534.09,-1807.11 583.77,-1911.96 662.08,-1960 719.94,-1995.5 760.21,-1940.41 813.08,-1983 830.5,-1997.03 814.14,-2015.39 831.08,-2030 834.83,-2033.24 838.84,-2036.17 843.05,-2038.82"/>
<polygon fill="#1a2833" stroke="#1a2833" points="841.51,-2041.98 851.94,-2043.88 844.98,-2035.89 841.51,-2041.98"/>
<text text-anchor="middle" x="737.58" y="-1986" font-family="Times,serif" font-size="10.00" fill="#767676">^2.0</text>
</g>
<!-- bartlett/php&#45;compatinfo&#45;db&#45;&gt;symfony/stopwatch -->
<g id="edge24" class="edge">
<title>bartlett/php&#45;compatinfo&#45;db&#45;&gt;symfony/stopwatch</title>
<path fill="none" stroke="#1a2833" d="M514.85,-1765.03C529.51,-1811.69 575.49,-1936.72 662.08,-1994 718.7,-2031.45 762.88,-1971.3 813.08,-2017 837.47,-2039.2 807.06,-2066.39 831.08,-2089 840.17,-2097.56 851.06,-2103.83 862.74,-2108.38"/>
<polygon fill="#1a2833" stroke="#1a2833" points="861.65,-2111.71 872.25,-2111.67 863.94,-2105.09 861.65,-2111.71"/>
<text text-anchor="middle" x="737.58" y="-2020" font-family="Times,serif" font-size="10.00" fill="#767676">^6.4 || ^7.0</text>
</g>
<!-- bartlett/sarif&#45;php&#45;sdk&#45;&gt;php -->
<g id="edge29" class="edge">
<title>bartlett/sarif&#45;php&#45;sdk&#45;&gt;php</title>
<path fill="none" stroke="#1a2833" d="M556.5,-2186.05C586.25,-2196.52 625.83,-2208.65 662.08,-2214 764.69,-2229.14 1116.87,-2201.67 1122.08,-2197 1214.84,-2113.72 1216.68,-1167.94 1216.2,-990.57"/>
<polygon fill="#1a2833" stroke="#1a2833" points="1219.7,-990.45 1216.17,-980.46 1212.7,-990.47 1219.7,-990.45"/>
<text text-anchor="middle" x="976.58" y="-2220" font-family="Times,serif" font-size="10.00" fill="#767676">^7.4 || ^8.0</text>
</g>
<!-- bartlett/sarif&#45;php&#45;sdk&#45;&gt;ext&#45;json -->
<g id="edge26" class="edge">
<title>bartlett/sarif&#45;php&#45;sdk&#45;&gt;ext&#45;json</title>
<path fill="none" stroke="#1a2833" d="M615.35,-2154.75C692.65,-2142.68 788.15,-2121.96 813.08,-2091 850.38,-2044.68 792.32,-1601.11 831.08,-1556 854.79,-1528.4 896.91,-1523.17 929.58,-1523.95"/>
<polygon fill="#1a2833" stroke="#1a2833" points="929.67,-1527.46 939.82,-1524.4 929.98,-1520.47 929.67,-1527.46"/>
<text text-anchor="middle" x="737.58" y="-2148" font-family="Times,serif" font-size="10.00" fill="#767676">*</text>
</g>
<!-- bartlett/sarif&#45;php&#45;sdk&#45;&gt;ext&#45;pcre -->
<g id="edge27" class="edge">
<title>bartlett/sarif&#45;php&#45;sdk&#45;&gt;ext&#45;pcre</title>
<path fill="none" stroke="#1a2833" d="M540.56,-2186.06C570.59,-2202.67 617.95,-2226.55 662.08,-2239 711.05,-2252.82 854.02,-2265.54 928.79,-2271.48"/>
<polygon fill="#1a2833" stroke="#1a2833" points="928.63,-2274.98 938.87,-2272.27 929.18,-2268 928.63,-2274.98"/>
<text text-anchor="middle" x="737.58" y="-2263" font-family="Times,serif" font-size="10.00" fill="#767676">*</text>
</g>
<!-- bartlett/sarif&#45;php&#45;sdk&#45;&gt;ext&#45;spl -->
<g id="edge28" class="edge">
<title>bartlett/sarif&#45;php&#45;sdk&#45;&gt;ext&#45;spl</title>
<path fill="none" stroke="#1a2833" d="M615.27,-2168.27C673.61,-2168.44 747.35,-2168.69 813.08,-2169 854.06,-2169.19 900.86,-2169.49 933.68,-2169.71"/>
<polygon fill="#1a2833" stroke="#1a2833" points="933.79,-2173.21 943.82,-2169.78 933.84,-2166.21 933.79,-2173.21"/>
<text text-anchor="middle" x="737.58" y="-2172" font-family="Times,serif" font-size="10.00" fill="#767676">*</text>
</g>
<!-- doctrine/collections&#45;&gt;php -->
<g id="edge33" class="edge">
<title>doctrine/collections&#45;&gt;php</title>
<path fill="none" stroke="#1a2833" d="M609.28,-1082.08C684.58,-1079.53 780.35,-1080.98 813.08,-1102 827.8,-1111.45 816.15,-1127.89 831.08,-1137 886.28,-1170.68 1066.58,-1170.19 1122.08,-1137 1175.72,-1104.92 1200.52,-1030.56 1210.43,-989.86"/>
<polygon fill="#1a2833" stroke="#1a2833" points="1213.86,-990.58 1212.69,-980.05 1207.04,-989 1213.86,-990.58"/>
<text text-anchor="middle" x="976.58" y="-1165" font-family="Times,serif" font-size="10.00" fill="#767676">^7.1.3 || ^8.0</text>
</g>
<!-- doctrine/deprecations -->
<g id="node25" class="node">
<title>doctrine/deprecations</title>
<path fill="#eeeeee" stroke="black" d="M1073.58,-1128C1073.58,-1128 879.58,-1128 879.58,-1128 873.58,-1128 867.58,-1122 867.58,-1116 867.58,-1116 867.58,-1104 867.58,-1104 867.58,-1098 873.58,-1092 879.58,-1092 879.58,-1092 1073.58,-1092 1073.58,-1092 1079.58,-1092 1085.58,-1098 1085.58,-1104 1085.58,-1104 1085.58,-1116 1085.58,-1116 1085.58,-1122 1079.58,-1128 1073.58,-1128"/>
<text text-anchor="middle" x="976.58" y="-1106.3" font-family="Times,serif" font-size="14.00" fill="#314b5f">doctrine/deprecations: 1.1.2</text>
</g>
<!-- doctrine/collections&#45;&gt;doctrine/deprecations -->
<g id="edge32" class="edge">
<title>doctrine/collections&#45;&gt;doctrine/deprecations</title>
<path fill="none" stroke="#1a2833" d="M604.46,-1070C623.48,-1067.08 643.36,-1064.52 662.08,-1063 728.97,-1057.55 749.98,-1040.15 813.08,-1063 822.87,-1066.55 821.73,-1073.41 831.08,-1078 839.55,-1082.16 848.57,-1085.78 857.8,-1088.94"/>
<polygon fill="#1a2833" stroke="#1a2833" points="856.89,-1092.33 867.48,-1092.07 859.04,-1085.67 856.89,-1092.33"/>
<text text-anchor="middle" x="737.58" y="-1066" font-family="Times,serif" font-size="10.00" fill="#767676">^0.5.3 || ^1</text>
</g>
<!-- nikic/php&#45;parser&#45;&gt;php -->
<g id="edge36" class="edge">
<title>nikic/php&#45;parser&#45;&gt;php</title>
<path fill="none" stroke="#1a2833" d="M606.27,-1033.68C766.66,-1040.92 1074.85,-1052.36 1122.08,-1036 1149.65,-1026.45 1175.27,-1005.1 1192.77,-987.77"/>
<polygon fill="#1a2833" stroke="#1a2833" points="1195.74,-989.75 1200.22,-980.15 1190.73,-984.85 1195.74,-989.75"/>
<text text-anchor="middle" x="976.58" y="-1047" font-family="Times,serif" font-size="10.00" fill="#767676">&gt;=7.0</text>
</g>
<!-- ext&#45;tokenizer -->
<g id="node27" class="node">
<title>ext&#45;tokenizer</title>
<path fill="#eeeeee" stroke="black" d="M1019.58,-1027C1019.58,-1027 933.58,-1027 933.58,-1027 927.58,-1027 921.58,-1021 921.58,-1015 921.58,-1015 921.58,-1003 921.58,-1003 921.58,-997 927.58,-991 933.58,-991 933.58,-991 1019.58,-991 1019.58,-991 1025.58,-991 1031.58,-997 1031.58,-1003 1031.58,-1003 1031.58,-1015 1031.58,-1015 1031.58,-1021 1025.58,-1027 1019.58,-1027"/>
<text text-anchor="middle" x="976.58" y="-1005.3" font-family="Times,serif" font-size="14.00" fill="#314b5f">ext&#45;tokenizer</text>
</g>
<!-- nikic/php&#45;parser&#45;&gt;ext&#45;tokenizer -->
<g id="edge35" class="edge">
<title>nikic/php&#45;parser&#45;&gt;ext&#45;tokenizer</title>
<path fill="none" stroke="#1a2833" d="M604.46,-1011C623.48,-1008.08 643.36,-1005.52 662.08,-1004 748.03,-997 847.67,-1000.58 911.13,-1004.32"/>
<polygon fill="#1a2833" stroke="#1a2833" points="911.19,-1007.83 921.38,-1004.95 911.62,-1000.85 911.19,-1007.83"/>
<text text-anchor="middle" x="737.58" y="-1007" font-family="Times,serif" font-size="10.00" fill="#767676">*</text>
</g>
<!-- psr/log&#45;&gt;php -->
<g id="edge38" class="edge">
<title>psr/log&#45;&gt;php</title>
<path fill="none" stroke="#1a2833" d="M793.35,-962C891.92,-962 1096.64,-962 1179.79,-962"/>
<polygon fill="#1a2833" stroke="#1a2833" points="1180,-965.5 1190,-962 1180,-958.5 1180,-965.5"/>
<text text-anchor="middle" x="976.58" y="-965" font-family="Times,serif" font-size="10.00" fill="#767676">&gt;=8.0.0</text>
</g>
<!-- ramsey/uuid&#45;&gt;php -->
<g id="edge42" class="edge">
<title>ramsey/uuid&#45;&gt;php</title>
<path fill="none" stroke="#1a2833" d="M556.88,-889.95C618.79,-867.38 731.18,-830.01 831.08,-816 959.16,-798.04 1008.54,-754.06 1122.08,-816 1168.08,-841.1 1194.95,-899.43 1207.46,-934.29"/>
<polygon fill="#1a2833" stroke="#1a2833" points="1204.2,-935.55 1210.75,-943.88 1210.82,-933.28 1204.2,-935.55"/>
<text text-anchor="middle" x="976.58" y="-819" font-family="Times,serif" font-size="10.00" fill="#767676">^8.0</text>
</g>
<!-- ramsey/uuid&#45;&gt;ext&#45;json -->
<g id="edge41" class="edge">
<title>ramsey/uuid&#45;&gt;ext&#45;json</title>
<path fill="none" stroke="#1a2833" d="M554.03,-926.01C585.23,-941.24 624.71,-966.32 644.08,-1002 672.09,-1053.59 619.87,-1489.21 662.08,-1530 699.06,-1565.75 852.34,-1548.16 930.01,-1536.51"/>
<polygon fill="#1a2833" stroke="#1a2833" points="930.65,-1539.96 940,-1534.98 929.59,-1533.04 930.65,-1539.96"/>
<text text-anchor="middle" x="737.58" y="-1554" font-family="Times,serif" font-size="10.00" fill="#767676">*</text>
</g>
<!-- brick/math -->
<g id="node30" class="node">
<title>brick/math</title>
<path fill="#eeeeee" stroke="black" d="M1038.58,-926C1038.58,-926 914.58,-926 914.58,-926 908.58,-926 902.58,-920 902.58,-914 902.58,-914 902.58,-902 902.58,-902 902.58,-896 908.58,-890 914.58,-890 914.58,-890 1038.58,-890 1038.58,-890 1044.58,-890 1050.58,-896 1050.58,-902 1050.58,-902 1050.58,-914 1050.58,-914 1050.58,-920 1044.58,-926 1038.58,-926"/>
<text text-anchor="middle" x="976.58" y="-904.3" font-family="Times,serif" font-size="14.00" fill="#314b5f">brick/math: 0.11.0</text>
</g>
<!-- ramsey/uuid&#45;&gt;brick/math -->
<g id="edge40" class="edge">
<title>ramsey/uuid&#45;&gt;brick/math</title>
<path fill="none" stroke="#1a2833" d="M583.67,-908C667.79,-908 804.66,-908 892.37,-908"/>
<polygon fill="#1a2833" stroke="#1a2833" points="892.55,-911.5 902.55,-908 892.55,-904.5 892.55,-911.5"/>
<text text-anchor="middle" x="737.58" y="-911" font-family="Times,serif" font-size="10.00" fill="#767676">^0.8.8 || ^0.9 || ^0.10 || ^0.11</text>
</g>
<!-- ramsey/collection -->
<g id="node31" class="node">
<title>ramsey/collection</title>
<path fill="#eeeeee" stroke="black" d="M1058.08,-872C1058.08,-872 895.08,-872 895.08,-872 889.08,-872 883.08,-866 883.08,-860 883.08,-860 883.08,-848 883.08,-848 883.08,-842 889.08,-836 895.08,-836 895.08,-836 1058.08,-836 1058.08,-836 1064.08,-836 1070.08,-842 1070.08,-848 1070.08,-848 1070.08,-860 1070.08,-860 1070.08,-866 1064.08,-872 1058.08,-872"/>
<text text-anchor="middle" x="976.58" y="-850.3" font-family="Times,serif" font-size="14.00" fill="#314b5f">ramsey/collection: 2.0.0</text>
</g>
<!-- ramsey/uuid&#45;&gt;ramsey/collection -->
<g id="edge43" class="edge">
<title>ramsey/uuid&#45;&gt;ramsey/collection</title>
<path fill="none" stroke="#1a2833" d="M583.67,-899.41C661.81,-890.36 785.49,-876.03 872.98,-865.89"/>
<polygon fill="#1a2833" stroke="#1a2833" points="873.4,-869.36 882.93,-864.74 872.59,-862.41 873.4,-869.36"/>
<text text-anchor="middle" x="737.58" y="-891" font-family="Times,serif" font-size="10.00" fill="#767676">^1.2 || ^2.0</text>
</g>
<!-- symfony/finder&#45;&gt;php -->
<g id="edge48" class="edge">
<title>symfony/finder&#45;&gt;php</title>
<path fill="none" stroke="#1a2833" d="M1064.67,-119.08C1085.74,-123.14 1106.61,-131.15 1122.08,-146 1180.23,-201.83 1208.99,-795.7 1214.91,-933.54"/>
<polygon fill="#1a2833" stroke="#1a2833" points="1211.42,-933.87 1215.34,-943.71 1218.42,-933.57 1211.42,-933.87"/>
<text text-anchor="middle" x="1156.08" y="-353" font-family="Times,serif" font-size="10.00" fill="#767676">&gt;=8.1</text>
</g>
<!-- symfony/serializer&#45;&gt;php -->
<g id="edge51" class="edge">
<title>symfony/serializer&#45;&gt;php</title>
<path fill="none" stroke="#1a2833" d="M609.37,-666.98C772.42,-653.21 1081.94,-631.48 1122.08,-661 1167.08,-694.09 1200.07,-865.71 1211.6,-933.96"/>
<polygon fill="#1a2833" stroke="#1a2833" points="1208.18,-934.7 1213.27,-943.99 1215.08,-933.56 1208.18,-934.7"/>
<text text-anchor="middle" x="976.58" y="-664" font-family="Times,serif" font-size="10.00" fill="#767676">&gt;=8.1</text>
</g>
<!-- symfony/deprecation&#45;contracts -->
<g id="node34" class="node">
<title>symfony/deprecation&#45;contracts</title>
<path fill="#eeeeee" stroke="black" d="M1109.58,-616C1109.58,-616 843.58,-616 843.58,-616 837.58,-616 831.58,-610 831.58,-604 831.58,-604 831.58,-592 831.58,-592 831.58,-586 837.58,-580 843.58,-580 843.58,-580 1109.58,-580 1109.58,-580 1115.58,-580 1121.58,-586 1121.58,-592 1121.58,-592 1121.58,-604 1121.58,-604 1121.58,-610 1115.58,-616 1109.58,-616"/>
<text text-anchor="middle" x="976.58" y="-594.3" font-family="Times,serif" font-size="14.00" fill="#314b5f">symfony/deprecation&#45;contracts: v3.4.0</text>
</g>
<!-- symfony/serializer&#45;&gt;symfony/deprecation&#45;contracts -->
<g id="edge52" class="edge">
<title>symfony/serializer&#45;&gt;symfony/deprecation&#45;contracts</title>
<path fill="none" stroke="#1a2833" d="M556.6,-657.94C586.39,-647.24 625.98,-634.38 662.08,-627 713.41,-616.51 770.26,-609.81 821.29,-605.53"/>
<polygon fill="#1a2833" stroke="#1a2833" points="821.74,-609.01 831.42,-604.71 821.17,-602.03 821.74,-609.01"/>
<text text-anchor="middle" x="737.58" y="-630" font-family="Times,serif" font-size="10.00" fill="#767676">^2.5|^3</text>
</g>
<!-- symfony/polyfill&#45;ctype -->
<g id="node35" class="node">
<title>symfony/polyfill&#45;ctype</title>
<path fill="#eeeeee" stroke="black" d="M1082.08,-717C1082.08,-717 871.08,-717 871.08,-717 865.08,-717 859.08,-711 859.08,-705 859.08,-705 859.08,-693 859.08,-693 859.08,-687 865.08,-681 871.08,-681 871.08,-681 1082.08,-681 1082.08,-681 1088.08,-681 1094.08,-687 1094.08,-693 1094.08,-693 1094.08,-705 1094.08,-705 1094.08,-711 1088.08,-717 1082.08,-717"/>
<text text-anchor="middle" x="976.58" y="-695.3" font-family="Times,serif" font-size="14.00" fill="#314b5f">symfony/polyfill&#45;ctype: v1.28.0</text>
</g>
<!-- symfony/serializer&#45;&gt;symfony/polyfill&#45;ctype -->
<g id="edge53" class="edge">
<title>symfony/serializer&#45;&gt;symfony/polyfill&#45;ctype</title>
<path fill="none" stroke="#1a2833" d="M609.26,-680.92C679.24,-684.37 773.41,-689.02 848.74,-692.74"/>
<polygon fill="#1a2833" stroke="#1a2833" points="848.61,-696.24 858.77,-693.23 848.96,-689.25 848.61,-696.24"/>
<text text-anchor="middle" x="737.58" y="-693" font-family="Times,serif" font-size="10.00" fill="#767676">~1.8</text>
</g>
<!-- symfony/framework&#45;bundle&#45;&gt;php -->
<g id="edge58" class="edge">
<title>symfony/framework&#45;bundle&#45;&gt;php</title>
<path fill="none" stroke="#1a2833" d="M552.03,-498.93C582.48,-486.17 624.57,-468.93 662.08,-455 736.38,-427.39 752.86,-410.84 831.08,-398 894.89,-387.53 1072.5,-356.49 1122.08,-398 1205.24,-467.62 1214.92,-829.32 1215.97,-933.74"/>
<polygon fill="#1a2833" stroke="#1a2833" points="1212.47,-933.87 1216.05,-943.84 1219.47,-933.81 1212.47,-933.87"/>
<text text-anchor="middle" x="976.58" y="-401" font-family="Times,serif" font-size="10.00" fill="#767676">&gt;=8.1</text>
</g>
<!-- symfony/framework&#45;bundle&#45;&gt;composer&#45;runtime&#45;api -->
<g id="edge56" class="edge">
<title>symfony/framework&#45;bundle&#45;&gt;composer&#45;runtime&#45;api</title>
<path fill="none" stroke="#1a2833" d="M538.57,-535.2C571.1,-557.49 622.18,-598.58 644.08,-649 660.22,-686.16 635.07,-1347.8 662.08,-1378 665.77,-1382.13 789.13,-1398.11 879.98,-1409.38"/>
<polygon fill="#1a2833" stroke="#1a2833" points="879.69,-1412.87 890.05,-1410.62 880.55,-1405.92 879.69,-1412.87"/>
<text text-anchor="middle" x="737.58" y="-1403" font-family="Times,serif" font-size="10.00" fill="#767676">&gt;=2.1</text>
</g>
<!-- symfony/framework&#45;bundle&#45;&gt;symfony/cache -->
<g id="edge59" class="edge">
<title>symfony/framework&#45;bundle&#45;&gt;symfony/cache</title>
<path fill="none" stroke="#1a2833" d="M534.24,-535.04C564.26,-558.24 614.61,-601.25 644.08,-649 657.81,-671.25 642.18,-688.04 662.08,-705 721.17,-755.37 810.28,-764.81 878.41,-763.13"/>
<polygon fill="#1a2833" stroke="#1a2833" points="878.85,-766.62 888.73,-762.79 878.62,-759.62 878.85,-766.62"/>
<text text-anchor="middle" x="737.58" y="-763" font-family="Times,serif" font-size="10.00" fill="#767676">^5.4|^6.0|^7.0</text>
</g>
<!-- symfony/framework&#45;bundle&#45;&gt;symfony/config -->
<g id="edge60" class="edge">
<title>symfony/framework&#45;bundle&#45;&gt;symfony/config</title>
<path fill="none" stroke="#1a2833" d="M538.25,-535.01C570.73,-557.27 622.03,-598.47 644.08,-649 658.22,-681.4 638.67,-1258.52 662.08,-1285 684.56,-1310.43 779.53,-1302.86 813.08,-1308 834.03,-1311.21 856.49,-1314.66 877.83,-1317.94"/>
<polygon fill="#1a2833" stroke="#1a2833" points="877.46,-1321.42 887.87,-1319.48 878.52,-1314.5 877.46,-1321.42"/>
<text text-anchor="middle" x="737.58" y="-1311" font-family="Times,serif" font-size="10.00" fill="#767676">^6.1|^7.0</text>
</g>
<!-- symfony/framework&#45;bundle&#45;&gt;symfony/dependency&#45;injection -->
<g id="edge61" class="edge">
<title>symfony/framework&#45;bundle&#45;&gt;symfony/dependency&#45;injection</title>
<path fill="none" stroke="#1a2833" d="M538.2,-535.03C570.65,-557.31 621.9,-598.53 644.08,-649 668.36,-704.27 621.98,-1146.87 662.08,-1192 707.17,-1242.75 754.47,-1180.74 813.08,-1215 824.28,-1221.55 819.98,-1231.26 831.08,-1238 833.77,-1239.64 836.54,-1241.18 839.38,-1242.63"/>
<polygon fill="#1a2833" stroke="#1a2833" points="838.08,-1245.89 848.62,-1246.97 841.06,-1239.55 838.08,-1245.89"/>
<text text-anchor="middle" x="737.58" y="-1218" font-family="Times,serif" font-size="10.00" fill="#767676">^6.4|^7.0</text>
</g>
<!-- symfony/framework&#45;bundle&#45;&gt;symfony/event&#45;dispatcher -->
<g id="edge64" class="edge">
<title>symfony/framework&#45;bundle&#45;&gt;symfony/event&#45;dispatcher</title>
<path fill="none" stroke="#1a2833" d="M538.13,-535.07C570.5,-557.38 621.68,-598.63 644.08,-649 663.46,-692.59 632.65,-1040.45 662.08,-1078 705.19,-1133.02 763.1,-1073.13 813.08,-1122 832.07,-1140.57 811.49,-1161.06 831.08,-1179 834.53,-1182.16 838.22,-1185.03 842.1,-1187.64"/>
<polygon fill="#1a2833" stroke="#1a2833" points="840.51,-1190.77 850.88,-1192.95 844.13,-1184.78 840.51,-1190.77"/>
<text text-anchor="middle" x="737.58" y="-1125" font-family="Times,serif" font-size="10.00" fill="#767676">^5.4|^6.0|^7.0</text>
</g>
<!-- symfony/framework&#45;bundle&#45;&gt;symfony/finder -->
<g id="edge66" class="edge">
<title>symfony/framework&#45;bundle&#45;&gt;symfony/finder</title>
<path fill="none" stroke="#1a2833" d="M511.13,-498.59C517.3,-438.13 545.77,-244.57 662.08,-157 670.78,-150.45 789.43,-137.39 878.2,-128.43"/>
<polygon fill="#1a2833" stroke="#1a2833" points="878.73,-131.9 888.33,-127.41 878.03,-124.93 878.73,-131.9"/>
<text text-anchor="middle" x="737.58" y="-160" font-family="Times,serif" font-size="10.00" fill="#767676">^5.4|^6.0|^7.0</text>
</g>
<!-- symfony/framework&#45;bundle&#45;&gt;symfony/deprecation&#45;contracts -->
<g id="edge62" class="edge">
<title>symfony/framework&#45;bundle&#45;&gt;symfony/deprecation&#45;contracts</title>
<path fill="none" stroke="#1a2833" d="M591.74,-535.05C614.47,-539.83 639.19,-544.81 662.08,-549 720.36,-559.66 785.01,-570.01 840.38,-578.44"/>
<polygon fill="#1a2833" stroke="#1a2833" points="840.2,-581.95 850.61,-579.98 841.25,-575.03 840.2,-581.95"/>
<text text-anchor="middle" x="737.58" y="-576" font-family="Times,serif" font-size="10.00" fill="#767676">^2.5|^3</text>
</g>
<!-- ext&#45;xml -->
<g id="node37" class="node">
<title>ext&#45;xml</title>
<path fill="#eeeeee" stroke="black" d="M999.58,-353C999.58,-353 953.58,-353 953.58,-353 947.58,-353 941.58,-347 941.58,-341 941.58,-341 941.58,-329 941.58,-329 941.58,-323 947.58,-317 953.58,-317 953.58,-317 999.58,-317 999.58,-317 1005.58,-317 1011.58,-323 1011.58,-329 1011.58,-329 1011.58,-341 1011.58,-341 1011.58,-347 1005.58,-353 999.58,-353"/>
<text text-anchor="middle" x="976.58" y="-331.3" font-family="Times,serif" font-size="14.00" fill="#314b5f">ext&#45;xml</text>
</g>
<!-- symfony/framework&#45;bundle&#45;&gt;ext&#45;xml -->
<g id="edge57" class="edge">
<title>symfony/framework&#45;bundle&#45;&gt;ext&#45;xml</title>
<path fill="none" stroke="#1a2833" d="M521.19,-498.84C543.72,-465.39 596.92,-394.65 662.08,-364 750.4,-322.46 868.03,-324.76 931.12,-329.95"/>
<polygon fill="#1a2833" stroke="#1a2833" points="930.86,-333.44 941.13,-330.84 931.48,-326.47 930.86,-333.44"/>
<text text-anchor="middle" x="737.58" y="-367" font-family="Times,serif" font-size="10.00" fill="#767676">*</text>
</g>
<!-- symfony/error&#45;handler -->
<g id="node38" class="node">
<title>symfony/error&#45;handler</title>
<path fill="#eeeeee" stroke="black" d="M1079.58,-299C1079.58,-299 873.58,-299 873.58,-299 867.58,-299 861.58,-293 861.58,-287 861.58,-287 861.58,-275 861.58,-275 861.58,-269 867.58,-263 873.58,-263 873.58,-263 1079.58,-263 1079.58,-263 1085.58,-263 1091.58,-269 1091.58,-275 1091.58,-275 1091.58,-287 1091.58,-287 1091.58,-293 1085.58,-299 1079.58,-299"/>
<text text-anchor="middle" x="976.58" y="-277.3" font-family="Times,serif" font-size="14.00" fill="#314b5f">symfony/error&#45;handler: v6.4.0</text>
</g>
<!-- symfony/framework&#45;bundle&#45;&gt;symfony/error&#45;handler -->
<g id="edge63" class="edge">
<title>symfony/framework&#45;bundle&#45;&gt;symfony/error&#45;handler</title>
<path fill="none" stroke="#1a2833" d="M517,-498.97C534.95,-457.92 585,-357.69 662.08,-314 718.9,-281.79 790.89,-272.44 851.54,-271.64"/>
<polygon fill="#1a2833" stroke="#1a2833" points="851.58,-275.14 861.56,-271.58 851.54,-268.14 851.58,-275.14"/>
<text text-anchor="middle" x="737.58" y="-317" font-family="Times,serif" font-size="10.00" fill="#767676">^6.1|^7.0</text>
</g>
<!-- symfony/filesystem -->
<g id="node39" class="node">
<title>symfony/filesystem</title>
<path fill="#eeeeee" stroke="black" d="M1068.08,-245C1068.08,-245 885.08,-245 885.08,-245 879.08,-245 873.08,-239 873.08,-233 873.08,-233 873.08,-221 873.08,-221 873.08,-215 879.08,-209 885.08,-209 885.08,-209 1068.08,-209 1068.08,-209 1074.08,-209 1080.08,-215 1080.08,-221 1080.08,-221 1080.08,-233 1080.08,-233 1080.08,-239 1074.08,-245 1068.08,-245"/>
<text text-anchor="middle" x="976.58" y="-223.3" font-family="Times,serif" font-size="14.00" fill="#314b5f">symfony/filesystem: v6.4.0</text>
</g>
<!-- symfony/framework&#45;bundle&#45;&gt;symfony/filesystem -->
<g id="edge65" class="edge">
<title>symfony/framework&#45;bundle&#45;&gt;symfony/filesystem</title>
<path fill="none" stroke="#1a2833" d="M514.1,-498.91C527.32,-450.25 570.84,-316.3 662.08,-258 721.03,-220.33 799.33,-212.57 862.93,-214.22"/>
<polygon fill="#1a2833" stroke="#1a2833" points="862.9,-217.73 873.01,-214.57 863.14,-210.73 862.9,-217.73"/>
<text text-anchor="middle" x="737.58" y="-261" font-family="Times,serif" font-size="10.00" fill="#767676">^5.4|^6.0|^7.0</text>
</g>
<!-- symfony/http&#45;foundation -->
<g id="node40" class="node">
<title>symfony/http&#45;foundation</title>
<path fill="#eeeeee" stroke="black" d="M1087.08,-191C1087.08,-191 866.08,-191 866.08,-191 860.08,-191 854.08,-185 854.08,-179 854.08,-179 854.08,-167 854.08,-167 854.08,-161 860.08,-155 866.08,-155 866.08,-155 1087.08,-155 1087.08,-155 1093.08,-155 1099.08,-161 1099.08,-167 1099.08,-167 1099.08,-179 1099.08,-179 1099.08,-185 1093.08,-191 1087.08,-191"/>
<text text-anchor="middle" x="976.58" y="-169.3" font-family="Times,serif" font-size="14.00" fill="#314b5f">symfony/http&#45;foundation: v6.4.2</text>
</g>
<!-- symfony/framework&#45;bundle&#45;&gt;symfony/http&#45;foundation -->
<g id="edge67" class="edge">
<title>symfony/framework&#45;bundle&#45;&gt;symfony/http&#45;foundation</title>
<path fill="none" stroke="#1a2833" d="M512.1,-498.64C520.87,-442.68 555.53,-273.55 662.08,-200 691.33,-179.81 771.85,-173.17 843.95,-171.52"/>
<polygon fill="#1a2833" stroke="#1a2833" points="844.14,-175.02 854.07,-171.32 844,-168.02 844.14,-175.02"/>
<text text-anchor="middle" x="737.58" y="-203" font-family="Times,serif" font-size="10.00" fill="#767676">^6.4|^7.0</text>
</g>
<!-- symfony/http&#45;kernel -->
<g id="node41" class="node">
<title>symfony/http&#45;kernel</title>
<path fill="#eeeeee" stroke="black" d="M1071.58,-562C1071.58,-562 881.58,-562 881.58,-562 875.58,-562 869.58,-556 869.58,-550 869.58,-550 869.58,-538 869.58,-538 869.58,-532 875.58,-526 881.58,-526 881.58,-526 1071.58,-526 1071.58,-526 1077.58,-526 1083.58,-532 1083.58,-538 1083.58,-538 1083.58,-550 1083.58,-550 1083.58,-556 1077.58,-562 1071.58,-562"/>
<text text-anchor="middle" x="976.58" y="-540.3" font-family="Times,serif" font-size="14.00" fill="#314b5f">symfony/http&#45;kernel: v6.4.2</text>
</g>
<!-- symfony/framework&#45;bundle&#45;&gt;symfony/http&#45;kernel -->
<g id="edge68" class="edge">
<title>symfony/framework&#45;bundle&#45;&gt;symfony/http&#45;kernel</title>
<path fill="none" stroke="#1a2833" d="M641.25,-524.63C709.86,-528.6 793.02,-533.42 859.24,-537.26"/>
<polygon fill="#1a2833" stroke="#1a2833" points="859.12,-540.76 869.3,-537.84 859.52,-533.77 859.12,-540.76"/>
<text text-anchor="middle" x="737.58" y="-537" font-family="Times,serif" font-size="10.00" fill="#767676">^6.4</text>
</g>
<!-- symfony/polyfill&#45;mbstring -->
<g id="node42" class="node">
<title>symfony/polyfill&#45;mbstring</title>
<path fill="#eeeeee" stroke="black" d="M1095.08,-508C1095.08,-508 858.08,-508 858.08,-508 852.08,-508 846.08,-502 846.08,-496 846.08,-496 846.08,-484 846.08,-484 846.08,-478 852.08,-472 858.08,-472 858.08,-472 1095.08,-472 1095.08,-472 1101.08,-472 1107.08,-478 1107.08,-484 1107.08,-484 1107.08,-496 1107.08,-496 1107.08,-502 1101.08,-508 1095.08,-508"/>
<text text-anchor="middle" x="976.58" y="-486.3" font-family="Times,serif" font-size="14.00" fill="#314b5f">symfony/polyfill&#45;mbstring: v1.28.0</text>
</g>
<!-- symfony/framework&#45;bundle&#45;&gt;symfony/polyfill&#45;mbstring -->
<g id="edge69" class="edge">
<title>symfony/framework&#45;bundle&#45;&gt;symfony/polyfill&#45;mbstring</title>
<path fill="none" stroke="#1a2833" d="M641.25,-509.37C701.92,-505.86 773.99,-501.68 835.65,-498.11"/>
<polygon fill="#1a2833" stroke="#1a2833" points="836.07,-501.59 845.85,-497.52 835.66,-494.6 836.07,-501.59"/>
<text text-anchor="middle" x="737.58" y="-510" font-family="Times,serif" font-size="10.00" fill="#767676">~1.0</text>
</g>
<!-- symfony/routing -->
<g id="node43" class="node">
<title>symfony/routing</title>
<path fill="#eeeeee" stroke="black" d="M1058.08,-454C1058.08,-454 895.08,-454 895.08,-454 889.08,-454 883.08,-448 883.08,-442 883.08,-442 883.08,-430 883.08,-430 883.08,-424 889.08,-418 895.08,-418 895.08,-418 1058.08,-418 1058.08,-418 1064.08,-418 1070.08,-424 1070.08,-430 1070.08,-430 1070.08,-442 1070.08,-442 1070.08,-448 1064.08,-454 1058.08,-454"/>
<text text-anchor="middle" x="976.58" y="-432.3" font-family="Times,serif" font-size="14.00" fill="#314b5f">symfony/routing: v6.4.2</text>
</g>
<!-- symfony/framework&#45;bundle&#45;&gt;symfony/routing -->
<g id="edge70" class="edge">
<title>symfony/framework&#45;bundle&#45;&gt;symfony/routing</title>
<path fill="none" stroke="#1a2833" d="M588.54,-498.95C612.14,-493.82 638.1,-488.43 662.08,-484 732.22,-471.05 811.65,-458.92 873,-450.09"/>
<polygon fill="#1a2833" stroke="#1a2833" points="873.68,-453.53 883.08,-448.65 872.68,-446.6 873.68,-453.53"/>
<text text-anchor="middle" x="737.58" y="-487" font-family="Times,serif" font-size="10.00" fill="#767676">^6.4|^7.0</text>
</g>
<!-- bamarni/composer&#45;bin&#45;plugin&#45;&gt;php -->
<g id="edge73" class="edge">
<title>bamarni/composer&#45;bin&#45;plugin&#45;&gt;php</title>
<path fill="none" stroke="#1a2833" d="M644.34,-64.36C812.48,-59.7 1082.8,-56.3 1122.08,-81 1163.81,-107.24 1159.31,-132.39 1172.08,-180 1211.34,-326.46 1215.59,-811.22 1216.03,-933.7"/>
<polygon fill="#1a2833" stroke="#1a2833" points="1212.53,-933.79 1216.06,-943.78 1219.53,-933.77 1212.53,-933.79"/>
<text text-anchor="middle" x="976.58" y="-84" font-family="Times,serif" font-size="10.00" fill="#767676">^7.2.5 || ^8.0</text>
</g>
<!-- composer&#45;plugin&#45;api -->
<g id="node45" class="node">
<title>composer&#45;plugin&#45;api</title>
<path fill="#eeeeee" stroke="black" d="M1045.08,-36C1045.08,-36 908.08,-36 908.08,-36 902.08,-36 896.08,-30 896.08,-24 896.08,-24 896.08,-12 896.08,-12 896.08,-6 902.08,0 908.08,0 908.08,0 1045.08,0 1045.08,0 1051.08,0 1057.08,-6 1057.08,-12 1057.08,-12 1057.08,-24 1057.08,-24 1057.08,-30 1051.08,-36 1045.08,-36"/>
<text text-anchor="middle" x="976.58" y="-14.3" font-family="Times,serif" font-size="14.00" fill="#314b5f">composer&#45;plugin&#45;api</text>
</g>
<!-- bamarni/composer&#45;bin&#45;plugin&#45;&gt;composer&#45;plugin&#45;api -->
<g id="edge72" class="edge">
<title>bamarni/composer&#45;bin&#45;plugin&#45;&gt;composer&#45;plugin&#45;api</title>
<path fill="none" stroke="#1a2833" d="M630.62,-50.96C641.25,-49.55 651.85,-48.21 662.08,-47 737.28,-38.1 822.9,-30.34 885.64,-25.09"/>
<polygon fill="#1a2833" stroke="#1a2833" points="886.22,-28.56 895.9,-24.24 885.64,-21.58 886.22,-28.56"/>
<text text-anchor="middle" x="737.58" y="-50" font-family="Times,serif" font-size="10.00" fill="#767676">^2.0</text>
</g>
</g>
</svg>
